<svg width="24" height="24" viewBox="0 0 24 24" fill="none" xmlns="http://www.w3.org/2000/svg">
<g clip-path="url(#clip0_4_339)">
<path opacity="0.985" fill-rule="evenodd" clip-rule="evenodd" d="M17.1797 -0.0234375C17.4609 -0.0234375 17.7422 -0.0234375 18.0234 -0.0234375C18.7809 0.194682 19.3122 0.671245 19.6172 1.40625C20.4297 1.42187 21.2422 1.4375 22.0547 1.45312C22.484 1.63236 22.6324 1.95268 22.5 2.41406C22.4297 2.60938 22.2969 2.74219 22.1016 2.8125C21.2594 2.86399 20.4157 2.90305 19.5703 2.92969C19.4755 3.15844 19.3505 3.36938 19.1953 3.5625C19.3716 3.75892 19.5122 3.97767 19.6172 4.21875C20.9141 4.23437 22.2109 4.25 23.5078 4.26562C23.7307 4.32475 23.8869 4.45756 23.9766 4.66406C23.9766 5.78906 23.9766 6.91406 23.9766 8.03906C23.8333 8.29097 23.6146 8.43942 23.3203 8.48438C22.086 8.49998 20.8516 8.51564 19.6172 8.53125C19.0554 9.64814 18.1647 10.07 16.9453 9.79688C16.296 9.57717 15.8585 9.14747 15.6328 8.50781C15.1172 8.50781 14.6016 8.50781 14.0859 8.50781C14.0859 8.97656 14.0859 9.44531 14.0859 9.91406C12.6797 9.91406 11.2734 9.91406 9.86719 9.91406C9.85937 8.99208 9.86719 8.07019 9.89063 7.14844C10.132 5.90789 10.8273 5.02509 11.9766 4.5C12.2499 4.39326 12.5312 4.31513 12.8203 4.26562C13.7422 4.25 14.6641 4.23437 15.5859 4.21875C15.6909 3.97767 15.8315 3.75892 16.0078 3.5625C15.8527 3.36938 15.7276 3.15844 15.6328 2.92969C14.8677 2.89065 14.1021 2.86721 13.3359 2.85938C12.731 2.72024 12.5357 2.35305 12.75 1.75781C12.856 1.62044 12.9888 1.51888 13.1484 1.45312C13.9609 1.4375 14.7735 1.42187 15.5859 1.40625C15.891 0.671245 16.4222 0.194682 17.1797 -0.0234375Z" fill="white"/>
<path opacity="0.973" fill-rule="evenodd" clip-rule="evenodd" d="M9.53906 11.2734C11.1641 11.2734 12.789 11.2734 14.4141 11.2734C14.798 12.4957 15.1965 13.7145 15.6094 14.9297C15.6406 14.9922 15.6406 15.0547 15.6094 15.1172C14.936 14.606 14.1782 14.2857 13.3359 14.1562C12.5703 14.1406 11.8047 14.125 11.0391 14.1094C10.3355 13.7733 9.648 13.4139 8.97656 13.0312C9.17855 12.4488 9.36605 11.8628 9.53906 11.2734Z" fill="white"/>
<path opacity="0.989" fill-rule="evenodd" clip-rule="evenodd" d="M23.9766 17.6015C23.9766 17.8203 23.9766 18.039 23.9766 18.2578C23.8665 18.5778 23.679 18.8512 23.4141 19.0781C20.9607 20.6015 18.5232 22.1484 16.1016 23.7187C15.8832 23.8199 15.6645 23.9058 15.4453 23.9765C15.1797 23.9765 14.9141 23.9765 14.6484 23.9765C11.8763 23.4859 9.09502 23.0093 6.30469 22.5469C4.47598 22.5089 2.64786 22.5167 0.820312 22.5703C0.437031 22.5821 0.155781 22.4259 -0.0234375 22.1015C-0.0234375 20.039 -0.0234375 17.9765 -0.0234375 15.914C0.0838223 15.7271 0.240072 15.5942 0.445312 15.5156C1.33594 15.5 2.22656 15.4843 3.11719 15.4687C4.1439 14.0653 5.51892 13.5184 7.24219 13.8281C7.40123 13.8655 7.55747 13.9124 7.71094 13.9687C8.73234 14.456 9.74794 14.956 10.7578 15.4687C11.586 15.4843 12.414 15.5 13.2422 15.5156C14.4164 15.7219 15.2679 16.3547 15.7969 17.414C15.875 17.9453 15.6484 18.25 15.1172 18.3281C13.5234 18.3437 11.9297 18.3594 10.3359 18.375C9.97008 18.5522 9.83728 18.8412 9.9375 19.2422C10.0409 19.509 10.2362 19.6574 10.5234 19.6875C12.4943 19.7333 14.4631 19.7177 16.4297 19.6406C18.1716 18.6837 19.906 17.715 21.6328 16.7344C22.229 16.3924 22.8228 16.3924 23.4141 16.7344C23.6909 16.9708 23.8784 17.2599 23.9766 17.6015Z" fill="white"/>
</g>
<defs>
<clipPath id="clip0_4_339">
<rect width="24" height="24" fill="white"/>
</clipPath>
</defs>
</svg>
