<svg width="500" height="500" viewBox="0 0 500 500" fill="none" xmlns="http://www.w3.org/2000/svg">
<g clip-path="url(#clip0_1_9011)">
<rect width="500" height="500" rx="250" fill="white"/>
<path d="M142.59 332.807L142.354 333.043C139.165 326.073 137.156 318.159 136.33 309.417C137.156 318.041 139.401 325.837 142.59 332.807Z" fill="#DFDFDF"/>
<path d="M218.427 230.864C233.954 230.864 246.541 218.277 246.541 202.75C246.541 187.223 233.954 174.636 218.427 174.636C202.9 174.636 190.313 187.223 190.313 202.75C190.313 218.277 202.9 230.864 218.427 230.864Z" fill="#DFDFDF"/>
<path d="M303.361 131.873H204.37C161.372 131.873 135.738 157.507 135.738 200.505V299.495C135.738 312.371 137.983 323.593 142.353 333.044C152.512 355.488 174.248 368.127 204.37 368.127H303.361C346.359 368.127 371.993 342.494 371.993 299.495V272.444V200.505C371.993 157.507 346.359 131.873 303.361 131.873ZM352.738 255.907C343.524 247.992 328.64 247.992 319.426 255.907L270.285 298.078C261.071 305.992 246.187 305.992 236.973 298.078L232.957 294.77C224.57 287.447 211.222 286.738 201.771 293.117L157.592 322.767C154.993 316.151 153.457 308.473 153.457 299.495V200.505C153.457 167.193 171.058 149.592 204.37 149.592H303.361C336.673 149.592 354.274 167.193 354.274 200.505V257.206L352.738 255.907Z" fill="#DFDFDF"/>
<g clip-path="url(#clip1_1_9011)">
<path d="M515.784 -34.6538H-27.604V508.735H515.784V-34.6538Z" fill="#F5D995"/>
<path d="M418.097 -34.6973L398.654 394.411H422.669L431.077 -34.6973H418.097Z" fill="#FAEBC3"/>
<path d="M516.014 -35.6304L496.573 404.288H520.587L528.995 -35.6304H516.014Z" fill="#FAEBC3"/>
<path d="M36.501 -39.6279L17.0586 400.29H41.0746L49.4826 -39.6279H36.501Z" fill="#FAEBC3"/>
<path d="M316.829 -34.6973L338.971 396.92H305.554V-34.6973H316.829Z" fill="#FAEBC3"/>
<path d="M204.89 -35.9526L227.031 395.666H193.617V-35.9526H204.89Z" fill="#FAEBC3"/>
<path d="M513.784 421.916H-29.6046V508.693H513.784V421.916Z" fill="#D29779"/>
<path d="M513.784 394.411H-29.6046V419.405H513.784V394.411Z" fill="#BC7B5B"/>
<path d="M513.784 396.919H-29.6046V421.913H513.784V396.919Z" fill="#FABB98"/>
<path d="M510.222 486.772L-19.754 496.033L39.4608 446.782L476.097 445.705L510.222 486.772Z" fill="#A4926A"/>
<path d="M511.339 483.7L-18.6382 492.961L40.5784 443.709L477.215 442.633L511.339 483.7Z" fill="#F5DA96"/>
<path d="M73.6575 -120.854H-113.168V190.899H73.6575V-120.854Z" fill="#9B8770"/>
<path d="M73.6577 -116.679H-113.168V195.074H73.6577V-116.679Z" fill="#C5B69D"/>
<path d="M57.3085 49.5205H-17.5559V179.001H57.3085V49.5205Z" fill="#ADDEE5"/>
<path d="M57.3085 -99.0835H-17.5559V30.3969H57.3085V-99.0835Z" fill="#ADDEE5"/>
<path d="M-17.5557 24.9504H51.5705V-99.0835H57.3087V30.3969H-17.5557V24.9504Z" fill="#9B8770"/>
<path d="M-17.5557 173.554H51.5705V49.5205H57.3087V178.999H-17.5557V173.554Z" fill="#9B8770"/>
<path d="M431.526 282.265C431.526 282.265 433.894 247.227 431.526 220.711C429.159 194.196 406.433 196.563 406.433 196.563C406.433 196.563 131.835 197.119 90.1479 196.563C42.8007 195.931 57.963 282.795 57.963 282.795H71.6836C71.6836 282.795 58.3144 234.262 72.1563 215.502C72.1563 215.502 78.3111 204.138 87.7806 204.138C97.25 204.138 130.393 205.085 130.393 205.085L124.711 282.263L136.075 282.795L136.548 204.613L189.577 205.085L195.259 282.795H209.938L197.154 205.085L260.127 206.505L253.498 282.793H261.547L263.442 206.505L314.578 205.558L323.1 282.793H332.097L319.313 205.083L373.762 204.136L382.759 282.792H392.703L378.024 203.662C378.024 203.662 412.115 200.347 415.902 206.502C419.689 212.656 422.057 282.79 422.057 282.79L431.526 282.265Z" fill="#B2B2B2"/>
<path d="M435.789 282.265C435.789 282.265 438.156 247.227 435.789 220.711C433.421 194.196 410.695 196.563 410.695 196.563C410.695 196.563 136.097 197.119 94.4104 196.563C47.0632 195.931 62.2255 282.795 62.2255 282.795H75.9461C75.9461 282.795 62.5769 234.262 76.4188 215.502C76.4188 215.502 82.5736 204.138 92.043 204.138C101.512 204.138 134.656 205.085 134.656 205.085L128.974 282.263L140.338 282.795L140.81 204.613L193.84 205.085L199.522 282.795H214.2L201.416 205.085L264.39 206.505L257.76 282.793H265.81L267.704 206.505L318.841 205.558L327.363 282.793H336.36L323.575 205.083L378.025 204.136L387.021 282.792H396.965L382.287 203.662C382.287 203.662 416.377 200.347 420.165 206.502C423.952 212.656 426.319 282.79 426.319 282.79L435.789 282.265Z" fill="white"/>
<path d="M131.106 392.696L137.922 436.741H142.643V392.696H131.106Z" fill="#B2B2B2"/>
<path d="M135.001 392.696L141.818 436.741H146.537V392.696H135.001Z" fill="white"/>
<path d="M385.396 392.696L378.578 436.741H373.86V392.696H385.396Z" fill="#B2B2B2"/>
<path d="M381.5 392.696L374.684 436.741H369.964V392.696H381.5Z" fill="white"/>
<path d="M57.4768 392.696L66.709 452.354H73.1011V392.696H57.4768Z" fill="#B2B2B2"/>
<path d="M62.753 392.696L71.9852 452.354H78.3773V392.696H62.753Z" fill="white"/>
<path d="M436.84 392.696L427.606 452.354H421.216V392.696H436.84Z" fill="#B2B2B2"/>
<path d="M440.39 392.696L431.158 452.354H424.766V392.696H440.39Z" fill="white"/>
<path d="M451.358 392.695H52.1994C41.779 392.695 33.3311 384.248 33.3311 373.827V303.538C33.3311 290.461 43.9326 279.861 57.0084 279.861H443.22C457.42 279.861 468.933 291.373 468.933 305.574V375.124C468.931 384.827 461.063 392.695 451.358 392.695Z" fill="#88C3AA"/>
<path d="M463.856 393.853H30.7263V338.455H468.931V388.776C468.931 391.58 466.658 393.853 463.856 393.853Z" fill="#598672"/>
<path d="M347.635 310.074L333.268 374.802C333.268 374.802 359.351 382.016 373.225 378.41L377.11 354.269L385.495 378.131C385.495 378.131 419.563 371.471 428.998 365.644L409.297 291.189L347.635 310.074Z" fill="#BD2043"/>
<path d="M369.06 332.713L377.108 354.269L373.222 378.41C373.222 378.41 368.064 379.941 361.476 379.381L369.06 332.713Z" fill="#9B1E45"/>
<path d="M399.78 300.146L419.592 369.607C419.592 369.607 427.424 367.126 428.996 365.646L409.295 291.189L399.78 300.146Z" fill="#9B1E45"/>
<path d="M402.805 265.447L409.294 291.191C402.265 302.291 384.322 306.915 384.322 306.915C349.73 317.089 346.586 308.949 346.586 308.949C342.516 303.214 346.401 294.52 346.401 294.52C346.955 284.346 342.885 271.028 342.885 271.028C342.885 271.028 342.88 271.035 342.867 271.048C336.267 277.972 323.894 283.94 321.814 284.915C321.715 284.962 321.615 285.009 321.514 285.054C320.815 283.656 307.971 262.946 306.567 260.683C306.545 260.647 306.525 260.614 306.507 260.587L306.444 260.484C317.154 253.645 318.351 252.232 328.828 242.726C339.652 232.902 352.467 222.882 352.865 222.57L352.873 222.565L352.874 222.563L370.078 218.862C405.04 227.741 416.139 256.414 416.139 256.414L402.805 265.447Z" fill="#145677"/>
<path d="M399.78 300.146L389.916 268.647L402.805 265.445L409.295 291.189C409.295 291.191 406.366 296.402 399.78 300.146Z" fill="#17485B"/>
<path d="M370.078 218.862C368.598 233.106 349.361 243.65 348.805 234.401C348.25 225.153 352.875 222.562 352.875 222.562C353.615 220.342 350.656 213.127 350.656 213.127C350.656 213.127 340.11 221.083 324.387 220.342C308.665 219.603 304.779 202.214 304.779 202.214C302.559 202.769 301.389 202.214 301.389 202.214C297.485 198.737 301.907 192.548 302.003 192.412C302.004 192.41 302.004 192.41 302.004 192.41C299.23 183.161 302.004 168.917 302.004 168.917C307.739 142.465 347.325 157.633 347.325 157.633L351.58 176.132C356.039 170.979 360.286 171.558 363.27 173.208C365.956 174.695 367.861 177.262 368.694 180.218C371.928 191.703 363.233 195.739 363.233 195.739C360.459 210.168 370.078 218.862 370.078 218.862Z" fill="url(#paint0_linear_1_9011)"/>
<path d="M383.397 180.941C383.397 180.941 376.648 200.179 362.766 202.231C362.766 202.231 362.766 202.206 362.762 202.158C362.739 201.698 362.549 199.079 361.292 195.594C361.292 195.594 371.714 191.968 368.615 179.95C368.615 179.95 368.609 179.932 368.598 179.899C368.462 179.496 367.473 176.715 365.215 174.591C365.188 174.565 365.162 174.54 365.133 174.516C364.175 173.632 362.994 172.87 361.558 172.453C361.551 172.45 361.541 172.448 361.532 172.446C360.236 172.071 358.73 171.979 356.995 172.332C356.995 172.332 356.993 172.332 356.988 172.334C356.948 172.343 356.738 172.392 356.388 172.531C356.378 172.535 356.365 172.54 356.352 172.546C355.456 172.91 353.693 173.848 351.579 176.132C351.579 176.132 348.806 180.939 350.715 184.516C350.489 184.368 336.024 174.851 333.76 161.086L333.452 170.028C333.452 170.028 316.098 163.607 310.439 156.581C310.439 156.581 308.398 157.342 306.21 160.091C304.466 162.277 302.629 165.719 301.651 171.037C301.356 172.645 301.138 174.424 301.026 176.393C301.024 176.422 301.023 176.453 301.021 176.482C301.021 176.482 301.021 176.482 301.019 176.48C300.898 176.427 294.694 173.696 292.142 167.885C289.615 162.131 290.671 153.353 304.779 141.17C304.779 141.17 318.612 131.701 336.968 130.4C336.969 130.399 336.973 130.399 336.975 130.399C347.645 129.643 359.844 131.648 371.743 139.875C371.743 139.875 391.906 154.674 383.397 180.941Z" fill="#231F20"/>
<path d="M350.931 419.626C350.264 426.806 349.904 433.319 350.192 437.513C350.192 437.513 350.929 451.451 350.288 459.308C350.128 461.262 348.495 462.764 346.535 462.764H306.444C303.484 451.664 323.001 449.351 323.001 449.351C329.558 449.109 331.389 445.013 333.821 441.767C336.344 438.402 337.42 436.54 337.094 432.347C336.83 428.927 336.814 424.497 336.958 419.626C337.498 401.198 340.297 376.488 340.297 376.488L356.24 379.037C356.24 379.037 352.612 401.468 350.931 419.626Z" fill="url(#paint1_linear_1_9011)"/>
<path d="M424.417 462.764H380.577C380.993 456.381 386.958 453.468 391.26 450.693C395.56 447.919 408 446.763 409.264 437.513C409.648 434.709 409.01 427.84 407.935 419.626C405.464 400.747 400.684 374.766 400.684 374.766L415.018 371.038C419.049 385.563 421.354 403.487 422.671 419.626C424.588 443.081 424.417 462.764 424.417 462.764Z" fill="url(#paint2_linear_1_9011)"/>
<path d="M314.092 272.777L306.779 260.955C306.779 260.955 295.348 265.856 293.13 265.856C293.13 265.856 262.549 265.124 250.367 257.283C250.012 257.055 249.635 256.861 249.244 256.7L249.224 256.68C246.556 256.477 240.709 255.764 233.741 253.26C224.159 249.821 215.956 253.693 215.956 253.693C215.956 253.693 215.061 255.925 218.727 256.412C218.727 256.412 212.853 257.646 211.292 258.446C209.728 259.245 212.896 262.092 217.856 260.998C217.856 260.998 229.749 259.97 237.767 263.947C237.767 263.947 238.965 264.802 239.928 265.793C240.707 266.592 239.292 267.948 238.336 268.521C236.876 269.392 235.721 270.457 233.022 270.455C231.585 270.457 230.794 272.198 231.781 273.243C232.659 274.174 234.871 274.808 239.957 274.128C239.957 274.128 246.746 273.965 251.915 269.109C261.109 272.877 277.918 278.617 295.722 278.988C295.72 278.99 306.011 278.22 314.092 272.777Z" fill="url(#paint3_linear_1_9011)"/>
<path d="M417.757 354.965C418.097 355.517 418.077 355.901 417.885 356.165C417.451 356.767 416.139 356.767 416.139 356.767C413.868 355.814 410.568 350.175 410.45 349.974C410.537 350.21 413.321 357.763 413.596 359.265C413.873 360.791 412.209 364.537 409.294 363.427C406.427 362.335 404.5 357.209 404.44 357.049C405.965 364.26 403.518 364.999 403.518 364.999C401.812 364.074 401.526 360.375 400.046 352.235C398.566 344.097 405.965 328.742 405.965 328.742C410.035 312.28 407.076 283.052 406.889 281.757C406.704 280.462 398.936 268.068 398.936 268.068L410.448 260.27C410.448 260.27 419.284 272.415 419.561 276.854C419.838 281.294 418.217 323.47 415.004 331.794L415.006 331.796C415.089 331.934 418.295 337.236 416.925 339.565C415.538 341.923 413.596 348.304 413.596 348.721C413.596 349.138 416.648 353.16 417.757 354.965Z" fill="url(#paint4_linear_1_9011)"/>
<path d="M307.322 183.346C308.242 183.346 308.987 181.793 308.987 179.878C308.987 177.962 308.242 176.409 307.322 176.409C306.403 176.409 305.658 177.962 305.658 179.878C305.658 181.793 306.403 183.346 307.322 183.346Z" fill="#231F20"/>
<path d="M309.82 162.951C309.82 162.951 305.011 165.587 306.444 170.443C307.877 175.299 328.966 177.518 328.966 177.518C328.966 177.518 333.822 171.136 309.82 162.951Z" fill="#231F20"/>
<path d="M329.369 207.485C329.378 210.956 324.955 213.511 320.133 213.175C318.206 213.04 317.297 212.805 315.926 211.648C315.926 211.648 314.589 210.249 314.508 210.137C313.845 209.228 313.988 208.958 314.955 208.364C317.503 206.801 324.663 202.417 326.055 202.229C327.411 202.044 328.71 202.412 329.184 205.053C329.3 205.714 329.366 206.514 329.369 207.485Z" fill="#231F20"/>
<path d="M329.361 207.462C329.388 210.932 325.095 213.785 319.772 213.145C319.618 208.563 327.225 205.611 329.162 205.033C329.283 205.69 329.354 206.491 329.361 207.462Z" fill="#B62325"/>
<path d="M350.192 437.513C350.192 437.513 350.935 451.536 350.283 459.378C350.123 461.291 348.527 462.764 346.607 462.764H306.446C303.486 451.664 323.003 449.351 323.003 449.351C329.56 449.108 331.391 445.013 333.823 441.767C336.346 438.402 337.422 436.54 337.096 432.347C336.832 428.927 336.816 424.497 336.96 419.626H350.933C350.264 426.806 349.904 433.319 350.192 437.513Z" fill="white"/>
<path d="M424.417 462.764H380.577C380.993 456.381 386.958 453.468 391.26 450.693C395.56 447.918 408 446.763 409.264 437.513C409.648 434.709 409.01 427.84 407.935 419.626H422.671C424.588 443.08 424.417 462.764 424.417 462.764Z" fill="white"/>
<path d="M304.779 202.215C302.559 202.769 301.389 202.215 301.389 202.215C297.485 198.737 301.907 192.548 302.003 192.412C302.004 192.41 302.004 192.41 302.004 192.41C302.004 192.41 306.444 191.763 308.293 196.665C310.144 201.566 304.779 202.215 304.779 202.215Z" fill="#EE8780"/>
<path opacity="0.46" d="M304.079 194.07C306.182 193.761 307.114 188.252 306.16 181.765C305.206 175.278 302.728 170.27 300.625 170.58C298.521 170.889 297.59 176.398 298.544 182.885C299.498 189.372 301.976 194.38 304.079 194.07Z" fill="#62C7D1"/>
<path d="M304.079 194.07C306.182 193.761 307.114 188.252 306.16 181.765C305.206 175.278 302.728 170.27 300.625 170.58C298.521 170.889 297.59 176.398 298.544 182.885C299.498 189.372 301.976 194.38 304.079 194.07Z" stroke="#9C7A2C" stroke-width="1.03306" stroke-miterlimit="10"/>
<path d="M305.99 180.787L350.68 178.53" stroke="#9C7A2C" stroke-width="1.03306" stroke-miterlimit="10"/>
<path d="M342.885 271.027C342.885 271.027 342.88 271.035 342.867 271.047C342.485 271.471 336.201 278.298 321.814 284.914C321.715 284.962 321.615 285.009 321.514 285.054L306.567 260.683L306.507 260.587L306.444 260.484C317.154 253.644 318.351 252.231 328.828 242.726C339.652 232.901 346.528 227.625 346.926 227.313C346.924 227.313 337.89 252.713 342.885 271.027Z" fill="white"/>
<path d="M378.045 221.358C378.045 221.358 370.171 244.945 391.814 271.027L392.74 272.322L416.14 256.414C416.14 256.414 407.074 231.349 378.045 221.358Z" fill="white"/>
<path d="M396.134 288.503C396.134 288.503 394.868 305.203 384.323 306.915C384.323 306.915 390.265 307.067 399.78 300.146L396.134 288.503Z" fill="#17485B"/>
<path d="M342.275 246.839C342.275 246.839 339.911 273.616 318.091 279.35L321.514 285.052C321.514 285.052 334.516 280.922 342.868 271.045C342.868 271.047 340.915 251.234 342.275 246.839Z" fill="#E0E0E0"/>
<path d="M377.384 224.107C377.384 224.107 402.298 237.603 406.167 263.195L416.14 256.414C416.14 256.414 408.025 231.809 378.045 221.358L377.384 224.107Z" fill="#E0E0E0"/>
<path d="M350.656 213.128C350.656 213.128 355.835 209.429 357.778 206.377C357.778 206.377 356.608 216.169 352.939 220.798C352.937 220.797 351.951 215.624 350.656 213.128Z" fill="#EE8780"/>
<path d="M365.844 311.238C365.844 311.238 363.835 332.374 369.291 333.334L370.658 310.373L365.844 311.238Z" stroke="#9B1E45" stroke-width="1.03306" stroke-miterlimit="10"/>
<path d="M336.968 130.4C301.28 135.588 292.147 167.892 292.147 167.892C292.145 167.891 292.144 167.887 292.142 167.885C289.615 162.131 290.671 153.353 304.779 141.17C304.779 141.17 318.612 131.701 336.968 130.4Z" fill="#3A3A3A"/>
<path d="M339.495 419.626C339.495 419.626 340.015 427.824 339.002 435.046C337.72 444.194 331.773 449.672 322.818 451.941C317.903 453.187 311.534 454.874 307.636 456.178" stroke="#A4A4A4" stroke-width="2.06612" stroke-miterlimit="10"/>
<path d="M342.646 419.396C342.646 419.396 343.166 427.594 342.154 434.816C340.871 443.964 336.488 451.829 327.533 454.099C322.617 455.345 310.079 458.458 306.181 459.762" stroke="#A4A4A4" stroke-width="2.06612" stroke-miterlimit="10"/>
<path d="M346.328 419.626C346.328 419.626 346.848 427.824 345.836 435.046C344.553 444.194 342.157 450.592 334.191 455.27C329.333 458.123 310.271 461.182 306.373 462.487" stroke="#A4A4A4" stroke-width="2.06612" stroke-miterlimit="10"/>
<path d="M350.393 419.626C350.393 419.626 350.54 433.6 348.25 443.678C347.059 448.922 345.059 451.885 342.947 454.345C336.966 461.313 318.098 462.762 318.098 462.762" stroke="#A4A4A4" stroke-width="2.06612" stroke-miterlimit="10"/>
<path d="M350.528 447.964C350.528 447.964 349.298 460.268 334.994 462.764" stroke="#A4A4A4" stroke-width="2.06612" stroke-miterlimit="10"/>
<path d="M411.93 419.396C411.93 419.396 416.108 445.921 400.569 450.914C385.03 455.908 381.245 459.764 381.245 459.764" stroke="#A4A4A4" stroke-width="2.06612" stroke-miterlimit="10"/>
<path d="M416.75 419.396C416.75 419.396 417.902 430.599 415.508 441.583C414.7 445.285 412.376 448.484 409.112 450.409C406.42 451.997 402.457 454.01 396.844 456.18C383.803 461.221 384.6 460.684 383.489 462.764" stroke="#A4A4A4" stroke-width="2.06612" stroke-miterlimit="10"/>
<path d="M420.95 419.396C420.95 419.396 420.611 429.628 419.414 439.396C418.287 448.585 412.335 456.533 403.773 460.052C400.393 461.442 396.305 462.467 391.397 462.762" stroke="#A4A4A4" stroke-width="2.06612" stroke-miterlimit="10"/>
<path d="M423.711 435.438C423.711 435.438 426.082 459.157 407.213 462.764" stroke="#A4A4A4" stroke-width="2.06612" stroke-miterlimit="10"/>
<path d="M424.42 455.363C424.42 455.363 424.694 461.099 417.479 462.764" stroke="#A4A4A4" stroke-width="2.06612" stroke-miterlimit="10"/>
<path d="M336.874 423.92H350.565" stroke="#CA2026" stroke-width="2.06612" stroke-miterlimit="10"/>
<path d="M336.874 425.257H350.565" stroke="#CA2026" stroke-width="2.06612" stroke-miterlimit="10"/>
<path d="M408.623 425.257H423.108" stroke="#CA2026" stroke-width="2.06612" stroke-miterlimit="10"/>
<path d="M408.438 423.92H423.003" stroke="#CA2026" stroke-width="2.06612" stroke-miterlimit="10"/>
<path d="M334.419 369.607C334.419 369.607 360.915 376.541 374.005 373.545" stroke="white" stroke-width="2.06612" stroke-miterlimit="10"/>
<path d="M383.856 373.476C383.856 373.476 418.729 367.033 427.608 360.373" stroke="white" stroke-width="2.06612" stroke-miterlimit="10"/>
<path d="M412.106 362.914C412.106 362.914 407.214 355.241 406.52 349.415" stroke="#EE8780" stroke-width="2.06612" stroke-miterlimit="10"/>
<path d="M417.886 356.165L412.532 349.415C412.532 349.415 414.562 341.628 415.771 339.409C416.979 337.188 415.004 331.794 415.004 331.794L415.006 331.796C415.089 331.934 418.295 337.236 416.926 339.565C415.539 341.923 413.597 348.304 413.597 348.721C413.597 349.138 416.649 353.16 417.758 354.965C418.098 355.517 418.078 355.901 417.886 356.165Z" fill="#EE8780"/>
<path d="M403.947 364.704C403.947 364.704 404.177 356.551 402.821 353.468L404.44 357.049C404.44 357.049 405.936 362.746 403.947 364.704Z" fill="#EE8780"/>
<path d="M410.451 349.974C410.451 349.974 413.376 359.641 413.124 361.548C413.124 361.548 414.696 360.402 412.829 356.689L410.451 349.974Z" fill="#EE8780"/>
<path d="M152.277 418.425C152.944 425.605 153.304 432.118 153.016 436.311C153.016 436.311 152.279 450.249 152.92 458.107C153.08 460.061 154.714 461.563 156.673 461.563H196.765C199.724 450.463 180.208 448.15 180.208 448.15C173.651 447.907 171.819 443.812 169.387 440.566C166.864 437.201 165.788 435.339 166.114 431.146C166.378 427.726 166.395 423.295 166.25 418.425C165.71 399.997 162.911 375.287 162.911 375.287L146.968 377.836C146.968 377.836 150.596 400.267 152.277 418.425Z" fill="url(#paint5_linear_1_9011)"/>
<path d="M78.7915 461.563H122.632C122.215 455.18 116.251 452.267 111.949 449.492C107.649 446.717 95.2091 445.562 93.9448 436.311C93.5608 433.508 94.1984 426.639 95.2743 418.425C97.7449 399.546 102.525 373.565 102.525 373.565L88.1903 369.837C84.1602 384.362 81.8544 402.286 80.5376 418.425C78.6212 441.879 78.7915 461.563 78.7915 461.563Z" fill="url(#paint6_linear_1_9011)"/>
<path d="M153.017 436.311C153.017 436.311 152.274 450.334 152.926 458.177C153.086 460.09 154.681 461.563 156.601 461.563H196.763C199.723 450.463 180.206 448.15 180.206 448.15C173.649 447.907 171.818 443.812 169.385 440.566C166.862 437.201 165.786 435.339 166.112 431.146C166.377 427.726 166.393 423.295 166.248 418.425H152.276C152.944 425.605 153.305 432.118 153.017 436.311Z" fill="white"/>
<path d="M78.7915 461.563H122.632C122.215 455.18 116.251 452.267 111.949 449.492C107.649 446.717 95.2091 445.562 93.9448 436.311C93.5608 433.507 94.1984 426.639 95.2743 418.425H80.5376C78.6212 441.879 78.7915 461.563 78.7915 461.563Z" fill="white"/>
<path d="M163.715 418.425C163.715 418.425 163.195 426.623 164.207 433.844C165.49 442.993 171.436 448.471 180.391 450.74C185.307 451.986 191.676 453.673 195.573 454.977" stroke="#A4A4A4" stroke-width="1.03306" stroke-miterlimit="10"/>
<path d="M160.563 418.195C160.563 418.195 160.043 426.393 161.056 433.614C162.338 442.763 166.721 450.628 175.676 452.897C180.592 454.144 193.13 457.257 197.028 458.561" stroke="#A4A4A4" stroke-width="1.03306" stroke-miterlimit="10"/>
<path d="M156.881 418.425C156.881 418.425 156.361 426.623 157.373 433.844C158.656 442.993 161.052 449.391 169.018 454.069C173.876 456.922 192.938 459.981 196.836 461.286" stroke="#A4A4A4" stroke-width="1.03306" stroke-miterlimit="10"/>
<path d="M152.816 418.425C152.816 418.425 152.669 432.399 154.958 442.477C156.15 447.721 158.15 450.684 160.262 453.144C166.243 460.112 185.111 461.561 185.111 461.561" stroke="#A4A4A4" stroke-width="1.03306" stroke-miterlimit="10"/>
<path d="M152.682 446.761C152.682 446.761 153.911 459.065 168.215 461.561" stroke="#A4A4A4" stroke-width="1.03306" stroke-miterlimit="10"/>
<path d="M91.279 418.195C91.279 418.195 87.1003 444.719 102.639 449.713C118.178 454.707 121.962 458.561 121.962 458.561" stroke="#A4A4A4" stroke-width="1.03306" stroke-miterlimit="10"/>
<path d="M86.4586 418.195C86.4586 418.195 85.3067 429.398 87.7012 440.381C88.509 444.084 90.8329 447.282 94.0969 449.208C96.7885 450.796 100.752 452.809 106.365 454.979C119.406 460.019 118.609 459.483 119.719 461.563" stroke="#A4A4A4" stroke-width="1.03306" stroke-miterlimit="10"/>
<path d="M82.2572 418.195C82.2572 418.195 82.5959 428.427 83.7932 438.195C84.9198 447.384 90.8717 455.332 99.4337 458.851C102.814 460.24 106.902 461.266 111.81 461.561" stroke="#A4A4A4" stroke-width="1.03306" stroke-miterlimit="10"/>
<path d="M79.4978 434.237C79.4978 434.237 77.1268 457.956 95.9951 461.563" stroke="#A4A4A4" stroke-width="1.03306" stroke-miterlimit="10"/>
<path d="M78.7882 454.162C78.7882 454.162 78.5147 459.898 85.729 461.563" stroke="#A4A4A4" stroke-width="2.06612" stroke-miterlimit="10"/>
<path d="M166.335 422.72H152.643" stroke="#CA2026" stroke-width="2.06612" stroke-miterlimit="10"/>
<path d="M166.335 424.056H152.643" stroke="#CA2026" stroke-width="1.03306" stroke-miterlimit="10"/>
<path d="M94.5843 424.056H80.1011" stroke="#CA2026" stroke-width="1.03306" stroke-miterlimit="10"/>
<path d="M94.7707 422.72H80.2061" stroke="#CA2026" stroke-width="1.03306" stroke-miterlimit="10"/>
<path d="M129.156 200.059C129.156 200.059 119.804 197.96 120.527 186.049C120.714 182.984 122.032 180.071 124.342 178.048C126.906 175.802 130.935 174.335 136.385 178.427L136.62 159.446C136.62 159.446 172.089 136.229 183.303 160.863C183.303 160.863 189.036 174.194 188.284 183.821L187.652 193.991C187.652 193.991 187.543 211.809 172.334 215.864C157.124 219.924 145.132 214.385 145.132 214.385L140.861 212.389C140.861 212.389 139.547 217.679 140.364 218.826C141.181 219.972 146.441 225.457 141.815 235.548C141.815 235.548 135.836 241.578 124.977 224.247C124.977 224.247 121.252 215.799 123.896 212.282C123.896 212.282 130.02 208.954 129.819 206.339" fill="url(#paint7_linear_1_9011)"/>
<path d="M192.724 157.762C191.461 163.982 185.978 167.966 185.872 168.042C185.87 168.044 185.87 168.044 185.87 168.044C185.863 168.017 185.853 167.986 185.846 167.959C185.319 166.059 184.729 164.367 184.1 162.857C182.017 157.867 179.492 154.894 177.324 153.126C174.604 150.904 172.446 150.592 172.446 150.592C168.407 158.658 152.808 168.613 152.808 168.613L150.611 159.939C151.318 173.871 139.2 186.239 139.01 186.433C140.117 182.531 136.387 178.421 136.387 178.421C133.837 176.637 131.915 176.094 130.962 175.929C130.95 175.927 130.935 175.923 130.924 175.922C130.553 175.86 130.337 175.856 130.296 175.856C130.29 175.856 130.288 175.856 130.288 175.856C128.517 175.88 127.066 176.289 125.878 176.93C125.869 176.934 125.862 176.938 125.854 176.943C124.539 177.655 123.547 178.651 122.797 179.718C122.773 179.747 122.753 179.778 122.734 179.809C120.977 182.364 120.6 185.291 120.553 185.713C120.549 185.748 120.547 185.766 120.547 185.766C120.067 198.168 131.022 199.501 131.022 199.501C130.533 203.173 130.902 205.774 130.977 206.228C130.984 206.275 129.821 206.337 129.821 206.337C119.194 207.049 111.156 197.192 107.897 192.403C107.897 192.403 107.897 192.403 107.897 192.401C106.863 190.881 106.312 189.87 106.312 189.87C102.538 183.384 101.014 177.278 100.793 171.824C100.793 171.824 100.793 171.824 100.793 171.823C100.208 157.205 108.993 147.269 108.993 147.269C115.456 140.362 122.61 136.028 129.749 133.427C133.523 132.052 137.298 131.163 140.961 130.634C140.962 130.634 140.966 130.632 140.968 130.634C141.43 130.567 141.89 130.507 142.346 130.453C159.957 128.328 174.709 134.332 174.709 134.332C191.081 143.249 193.974 151.603 192.724 157.762Z" fill="#231F20"/>
<path d="M182.662 157.465C182.662 157.465 186.471 161.412 183.658 165.621C180.846 169.831 160.052 165.681 160.052 165.681C160.052 165.681 157.313 158.144 182.662 157.465Z" fill="#231F20"/>
<path d="M189.746 191.022C192.001 190.631 192.847 189.649 192.847 189.649C195.01 184.889 188.462 181.019 188.319 180.933C188.317 180.932 188.317 180.932 188.317 180.932C188.317 180.932 183.995 182.136 184.289 187.367C184.577 192.602 189.746 191.022 189.746 191.022Z" fill="#EE8780"/>
<path d="M177.679 175.376C177.835 173.386 176.969 171.694 175.745 171.598C174.52 171.502 173.401 173.038 173.244 175.028C173.088 177.019 173.954 178.71 175.179 178.806C176.403 178.903 177.523 177.367 177.679 175.376Z" fill="#231F20"/>
<path d="M140.865 212.389C140.865 212.389 137.631 212.124 134.328 205.815C134.328 205.815 136.244 217.261 140.368 218.828L140.865 212.389Z" fill="#EE8780"/>
<path d="M129.751 133.429C104.059 156.99 107.867 192.104 107.899 192.404C106.865 190.885 106.314 189.874 106.314 189.874C102.54 183.388 101.016 177.282 100.795 171.828C100.795 171.828 100.795 171.828 100.795 171.826C100.21 157.209 108.995 147.272 108.995 147.272C115.458 140.362 122.611 136.028 129.751 133.429Z" fill="#3A3A3A"/>
<path d="M89.6351 267.886C89.6351 267.886 89.6351 267.888 89.6351 267.89V267.901C89.6369 267.905 89.6333 267.91 89.6333 267.915C89.5083 268.814 86.786 288.84 87.4272 300.276C88.081 311.977 93.6308 316.232 93.6308 316.232C98.8836 317.802 103.794 318.845 108.369 319.456C108.82 319.519 109.268 319.574 109.712 319.626C110.173 319.68 110.633 319.731 111.088 319.775C113.541 320.019 115.89 320.14 118.141 320.15C120.087 320.16 121.965 320.088 123.765 319.945C124.039 319.921 124.311 319.9 124.579 319.874C150.754 317.443 161.457 299.91 161.457 299.91C161.457 299.91 163.018 297.021 162.811 291.022C162.661 286.662 160.814 280.142 160.469 274.42V274.418C159.779 262.885 158.624 250.13 156.716 242.38C154.202 232.16 149.131 225.221 145.519 221.338C145.519 221.336 145.519 221.336 145.519 221.336C143.208 218.851 140.368 218.972 140.302 218.925C142.657 222.91 143.99 224.406 143.744 227.076C143.271 232.197 138.415 235.068 134.115 232.246C132.909 231.454 132.126 230.788 132.126 230.788C120.847 218.916 124.588 211.963 124.657 211.838L124.658 211.836L114.584 215.339C114.586 215.341 92.2217 229.179 89.6351 267.886Z" fill="#BD2043"/>
<path d="M117.597 316.721L107.89 315.846C103.327 315.147 98.4385 314.009 93.2147 312.339C93.2147 312.339 87.7482 307.979 87.3172 296.268C86.8969 284.822 90.0015 264.851 90.1428 263.956C90.1428 263.951 90.1446 263.943 90.1446 263.941V263.931L95.2542 260.513C95.2542 260.513 89.8928 297.44 98.0328 306.425C105.858 315.058 116.756 316.612 117.597 316.721Z" fill="#DB1C50"/>
<path d="M161.805 283.732C161.805 283.732 145.664 294.953 131.237 294.911C131.237 294.911 113.745 299.141 118.016 302.207C122.289 305.274 162.736 289.847 162.736 289.847L161.805 283.732Z" fill="#9B1E45"/>
<path d="M175.348 378.032L132.078 385.098L122.442 345.751L114.117 384.413L79.1771 376.514H79.1753L68.7042 374.146L87.8496 303.021C89.9109 304.296 91.9468 305.444 93.9537 306.475C130.649 325.325 157.588 304.87 157.588 304.87L175.348 378.032Z" fill="#CEAA86"/>
<path d="M122.441 345.751V334.651L136.966 384.299L132.077 385.098L122.441 345.751Z" fill="#F1CAAA"/>
<path d="M93.9537 306.473V306.475L79.1771 376.514H79.1753L68.7042 374.146L87.8496 303.021L93.9537 306.473Z" fill="#F1CAAA"/>
<path d="M122.441 334.651C122.441 334.651 129.101 337.301 128.268 315.72L122.025 315.439L122.441 334.651Z" stroke="#614C3B" stroke-width="1.03306" stroke-miterlimit="10"/>
<path d="M164.68 203.468C165.696 206.357 170.677 207.346 175.183 205.826C176.986 205.219 177.784 204.79 178.753 203.475C178.753 203.475 179.617 201.968 179.663 201.854C180.027 200.927 179.811 200.74 178.712 200.494C175.815 199.849 167.681 198.043 166.295 198.244C164.944 198.44 163.812 199.079 164.138 201.397C164.223 201.977 164.397 202.66 164.68 203.468Z" fill="#231F20"/>
<path d="M164.681 203.446C165.681 206.339 170.624 207.608 175.52 205.708C174.313 201.858 166.174 201.358 164.152 201.374C164.232 201.954 164.402 202.636 164.681 203.446Z" fill="#B62325"/>
<path d="M114.586 215.341C114.586 215.341 94.3267 225.067 90.1462 263.929H119.712C119.712 263.929 128.355 228.601 114.586 215.341Z" fill="#BD2043"/>
<path d="M90.1462 263.929L120.433 260.511L119.712 263.929H90.1462Z" fill="#9B1E45"/>
<path d="M204.241 255.516H178.883V280.874H204.241V255.516Z" fill="#262626"/>
<path d="M202.068 255.516H176.71V280.874H202.068V255.516Z" fill="#4F4F4F"/>
<path d="M185.042 256.783H177.978V263.847H185.042V256.783Z" fill="#C90000"/>
<path d="M193.373 256.783H186.309V263.847H193.373V256.783Z" fill="#FF7D06"/>
<path d="M201.705 256.783H194.641V263.847H201.705V256.783Z" fill="#59FF29"/>
<path d="M201.705 265.115H194.641V272.179H201.705V265.115Z" fill="#59FF29"/>
<path d="M193.373 265.115H186.309V272.179H193.373V265.115Z" fill="#2650FF"/>
<path d="M185.042 265.115H177.978V272.179H185.042V265.115Z" fill="white"/>
<path d="M185.042 273.447H177.978V280.511H185.042V273.447Z" fill="white"/>
<path d="M193.373 273.447H186.309V280.511H193.373V273.447Z" fill="white"/>
<path d="M201.525 273.447H194.461V280.511H201.525V273.447Z" fill="#C90000"/>
<path d="M114.039 263.847L114.86 280.538C114.86 280.538 141.545 281.75 168.872 281.75C170.345 281.75 180.697 273.268 185.044 272.905C190.313 272.467 181.602 280.694 181.602 280.694C181.602 280.694 196.784 279.377 202.432 275.985C208.08 272.592 205.989 295.838 182.146 293.011C180.537 292.821 168.079 292.188 168.079 292.188L106.147 295.49C106.147 295.49 100.375 296.773 97.9204 287.081V263.93L114.039 263.847Z" fill="url(#paint8_linear_1_9011)"/>
<path d="M160.342 272.322C160.59 274.534 168.871 281.75 168.871 281.75H161.448L160.342 272.322Z" fill="url(#paint9_linear_1_9011)"/>
<path d="M333.508 87.8106C333.508 67.8985 312.695 51.7573 287.02 51.7573C261.345 51.7573 240.533 67.8985 240.533 87.8106C240.533 107.723 261.345 123.864 287.02 123.864C297.402 123.864 306.988 121.222 314.725 116.761L314.727 116.764L330.098 126.137L322.42 111.18C329.335 104.887 333.508 96.726 333.508 87.8106Z" fill="white"/>
<path d="M253.07 93.3804V79.5271H257.96C258.877 79.5271 259.683 79.7006 260.377 80.0477C261.072 80.3948 261.611 80.8907 261.995 81.5353C262.392 82.18 262.59 82.9362 262.59 83.8039C262.59 84.6717 262.392 85.4279 261.995 86.0725C261.611 86.7048 261.072 87.2006 260.377 87.5601C259.696 87.9072 258.89 88.0808 257.96 88.0808H254.892V93.3804H253.07ZM254.892 86.4072H258.016C258.574 86.4072 259.057 86.3019 259.466 86.0911C259.875 85.8804 260.192 85.5767 260.415 85.18C260.638 84.7833 260.749 84.3246 260.749 83.8039C260.749 83.2709 260.638 82.8122 260.415 82.4279C260.192 82.0312 259.875 81.7275 259.466 81.5167C259.057 81.306 258.574 81.2006 258.016 81.2006H254.892V86.4072ZM264.85 93.3804V79.3039H266.58V93.3804H264.85ZM273.874 93.6035C272.907 93.6035 272.046 93.3742 271.29 92.9155C270.534 92.4568 269.938 91.8308 269.505 91.0374C269.071 90.2316 268.854 89.3329 268.854 88.3411C268.854 87.337 269.065 86.4444 269.486 85.6634C269.92 84.8824 270.503 84.2688 271.234 83.8225C271.978 83.3638 272.808 83.1345 273.726 83.1345C274.469 83.1345 275.126 83.2709 275.697 83.5436C276.279 83.8039 276.769 84.1634 277.166 84.6221C277.575 85.0684 277.885 85.5828 278.096 86.1655C278.319 86.7357 278.43 87.3308 278.43 87.9506C278.43 88.087 278.418 88.2419 278.393 88.4155C278.381 88.5767 278.362 88.7316 278.337 88.8804H270.118V87.3928H277.333L276.515 88.0622C276.626 87.4176 276.565 86.8411 276.329 86.3329C276.093 85.8246 275.746 85.4217 275.288 85.1242C274.829 84.8267 274.308 84.6779 273.726 84.6779C273.143 84.6779 272.61 84.8267 272.126 85.1242C271.643 85.4217 271.265 85.8494 270.992 86.4072C270.732 86.9527 270.626 87.6035 270.676 88.3597C270.626 89.0911 270.738 89.7357 271.011 90.2936C271.296 90.839 271.693 91.2667 272.201 91.5767C272.722 91.8742 273.286 92.0229 273.893 92.0229C274.562 92.0229 275.126 91.868 275.585 91.5581C276.044 91.2481 276.416 90.8514 276.701 90.368L278.151 91.1118C277.953 91.5705 277.643 91.9919 277.222 92.3762C276.812 92.7481 276.323 93.0457 275.753 93.2688C275.195 93.4919 274.569 93.6035 273.874 93.6035ZM283.496 93.6035C282.839 93.6035 282.256 93.4857 281.748 93.2502C281.252 93.0023 280.862 92.6676 280.576 92.2461C280.291 91.8122 280.149 91.3163 280.149 90.7585C280.149 90.2254 280.26 89.7481 280.484 89.3267C280.719 88.8928 281.079 88.5271 281.562 88.2295C282.058 87.932 282.678 87.7213 283.422 87.5973L287.141 86.9837V88.4341L283.812 88.9919C283.167 89.1035 282.696 89.3081 282.399 89.6056C282.114 89.9031 281.971 90.2688 281.971 90.7027C281.971 91.1118 282.132 91.4527 282.455 91.7254C282.789 91.9981 283.205 92.1345 283.7 92.1345C284.333 92.1345 284.878 92.0043 285.337 91.744C285.808 91.4713 286.174 91.1056 286.434 90.6469C286.707 90.1882 286.843 89.68 286.843 89.1221V86.5746C286.843 86.0291 286.638 85.589 286.229 85.2543C285.833 84.9072 285.306 84.7337 284.649 84.7337C284.079 84.7337 283.57 84.8824 283.124 85.18C282.69 85.4651 282.368 85.8494 282.157 86.3329L280.651 85.5519C280.837 85.0932 281.134 84.6841 281.543 84.3246C281.953 83.9527 282.43 83.6614 282.975 83.4506C283.521 83.2399 284.091 83.1345 284.686 83.1345C285.455 83.1345 286.13 83.2833 286.713 83.5808C287.295 83.8659 287.748 84.2688 288.07 84.7895C288.405 85.2977 288.572 85.8928 288.572 86.5746V93.3804H286.88V91.4837L287.196 91.5952C286.986 91.9919 286.7 92.339 286.341 92.6366C285.981 92.9341 285.56 93.1696 285.076 93.3432C284.593 93.5167 284.066 93.6035 283.496 93.6035ZM294.843 93.6035C293.838 93.6035 292.964 93.3556 292.221 92.8597C291.477 92.3638 290.95 91.6944 290.64 90.8514L292.016 90.182C292.301 90.7771 292.692 91.2481 293.188 91.5952C293.683 91.9424 294.235 92.1159 294.843 92.1159C295.388 92.1159 295.84 91.9857 296.2 91.7254C296.559 91.4651 296.739 91.1242 296.739 90.7027C296.739 90.4052 296.652 90.1696 296.479 89.9961C296.318 89.8101 296.119 89.6676 295.884 89.5684C295.648 89.4568 295.431 89.3762 295.233 89.3267L293.727 88.899C292.822 88.6386 292.159 88.2667 291.737 87.7833C291.328 87.2998 291.124 86.7357 291.124 86.0911C291.124 85.4961 291.272 84.9816 291.57 84.5477C291.88 84.1014 292.295 83.7543 292.816 83.5064C293.349 83.2585 293.944 83.1345 294.601 83.1345C295.481 83.1345 296.268 83.3576 296.962 83.8039C297.669 84.2502 298.171 84.8762 298.469 85.682L297.055 86.3329C296.832 85.8122 296.497 85.4031 296.051 85.1056C295.605 84.7957 295.103 84.6407 294.545 84.6407C294.037 84.6407 293.634 84.7709 293.336 85.0312C293.039 85.2791 292.89 85.5952 292.89 85.9795C292.89 86.2647 292.964 86.5002 293.113 86.6862C293.262 86.8597 293.442 86.9961 293.652 87.0952C293.863 87.182 294.068 87.2564 294.266 87.3184L295.902 87.8019C296.721 88.0374 297.353 88.4031 297.799 88.899C298.258 89.3948 298.487 89.9899 298.487 90.6841C298.487 91.2419 298.332 91.744 298.022 92.1903C297.712 92.6366 297.285 92.9837 296.739 93.2316C296.194 93.4795 295.562 93.6035 294.843 93.6035ZM305.363 93.6035C304.396 93.6035 303.534 93.3742 302.778 92.9155C302.022 92.4568 301.427 91.8308 300.993 91.0374C300.559 90.2316 300.342 89.3329 300.342 88.3411C300.342 87.337 300.553 86.4444 300.974 85.6634C301.408 84.8824 301.991 84.2688 302.722 83.8225C303.466 83.3638 304.296 83.1345 305.214 83.1345C305.958 83.1345 306.615 83.2709 307.185 83.5436C307.767 83.8039 308.257 84.1634 308.654 84.6221C309.063 85.0684 309.373 85.5828 309.584 86.1655C309.807 86.7357 309.918 87.3308 309.918 87.9506C309.918 88.087 309.906 88.2419 309.881 88.4155C309.869 88.5767 309.85 88.7316 309.825 88.8804H301.606V87.3928H308.821L308.003 88.0622C308.115 87.4176 308.053 86.8411 307.817 86.3329C307.582 85.8246 307.234 85.4217 306.776 85.1242C306.317 84.8267 305.796 84.6779 305.214 84.6779C304.631 84.6779 304.098 84.8267 303.615 85.1242C303.131 85.4217 302.753 85.8494 302.48 86.4072C302.22 86.9527 302.115 87.6035 302.164 88.3597C302.115 89.0911 302.226 89.7357 302.499 90.2936C302.784 90.839 303.181 91.2667 303.689 91.5767C304.21 91.8742 304.774 92.0229 305.381 92.0229C306.051 92.0229 306.615 91.868 307.073 91.5581C307.532 91.2481 307.904 90.8514 308.189 90.368L309.639 91.1118C309.441 91.5705 309.131 91.9919 308.71 92.3762C308.301 92.7481 307.811 93.0457 307.241 93.2688C306.683 93.4919 306.057 93.6035 305.363 93.6035ZM312.88 93.3804V91.149H314.683V93.3804H312.88ZM318.781 93.3804V91.149H320.585V93.3804H318.781ZM324.683 93.3804V91.149H326.487V93.3804H324.683Z" fill="black"/>
</g>
</g>
<defs>
<linearGradient id="paint0_linear_1_9011" x1="326.737" y1="236.706" x2="344.125" y2="157.163" gradientUnits="userSpaceOnUse">
<stop offset="0.6129" stop-color="#F8BBA7"/>
<stop offset="0.9088" stop-color="#EE8780"/>
</linearGradient>
<linearGradient id="paint1_linear_1_9011" x1="306.138" y1="419.626" x2="356.24" y2="419.626" gradientUnits="userSpaceOnUse">
<stop offset="0.6129" stop-color="#F8BBA7"/>
<stop offset="1" stop-color="#EE8780"/>
</linearGradient>
<linearGradient id="paint2_linear_1_9011" x1="380.577" y1="416.901" x2="424.421" y2="416.901" gradientUnits="userSpaceOnUse">
<stop offset="0.6129" stop-color="#F8BBA7"/>
<stop offset="1" stop-color="#EE8780"/>
</linearGradient>
<linearGradient id="paint3_linear_1_9011" x1="210.888" y1="265.413" x2="314.092" y2="265.413" gradientUnits="userSpaceOnUse">
<stop offset="0.6129" stop-color="#F8BBA7"/>
<stop offset="1" stop-color="#EE8780"/>
</linearGradient>
<linearGradient id="paint4_linear_1_9011" x1="398.103" y1="322.915" x2="439.909" y2="281.109" gradientUnits="userSpaceOnUse">
<stop offset="0.6129" stop-color="#F8BBA7"/>
<stop offset="1" stop-color="#EE8780"/>
</linearGradient>
<linearGradient id="paint5_linear_1_9011" x1="124.657" y1="412.322" x2="166.001" y2="419.536" gradientUnits="userSpaceOnUse">
<stop offset="0.6129" stop-color="#F8BBA7"/>
<stop offset="1" stop-color="#EE8780"/>
</linearGradient>
<linearGradient id="paint6_linear_1_9011" x1="67.5506" y1="414.518" x2="97.5179" y2="416.738" gradientUnits="userSpaceOnUse">
<stop offset="0.6129" stop-color="#F8BBA7"/>
<stop offset="1" stop-color="#EE8780"/>
</linearGradient>
<linearGradient id="paint7_linear_1_9011" x1="169.955" y1="227.159" x2="138.652" y2="158.709" gradientUnits="userSpaceOnUse">
<stop offset="0.6129" stop-color="#F8BBA7"/>
<stop offset="0.9088" stop-color="#EE8780"/>
</linearGradient>
<linearGradient id="paint8_linear_1_9011" x1="97.9186" y1="279.696" x2="205.049" y2="279.696" gradientUnits="userSpaceOnUse">
<stop offset="0.6129" stop-color="#F8BBA7"/>
<stop offset="1" stop-color="#EE8780"/>
</linearGradient>
<linearGradient id="paint9_linear_1_9011" x1="160.342" y1="277.036" x2="168.872" y2="277.036" gradientUnits="userSpaceOnUse">
<stop offset="0.6129" stop-color="#F8BBA7"/>
<stop offset="1" stop-color="#EE8780"/>
</linearGradient>
<clipPath id="clip0_1_9011">
<rect width="500" height="500" rx="250" fill="white"/>
</clipPath>
<clipPath id="clip1_1_9011">
<rect width="543.388" height="543.388" fill="white" transform="translate(-29.9587 -37.1899)"/>
</clipPath>
</defs>
</svg>
