<svg width="500" height="500" viewBox="0 0 500 500" fill="none" xmlns="http://www.w3.org/2000/svg">
<g clip-path="url(#clip0_1_11327)">
<rect width="500" height="500" rx="250" fill="white"/>
<path d="M142.59 332.806L142.354 333.042C139.164 326.073 137.156 318.158 136.329 309.417C137.156 318.04 139.401 325.837 142.59 332.806Z" fill="#DFDFDF"/>
<path d="M218.427 230.863C233.954 230.863 246.541 218.276 246.541 202.749C246.541 187.222 233.954 174.635 218.427 174.635C202.9 174.635 190.313 187.222 190.313 202.749C190.313 218.276 202.9 230.863 218.427 230.863Z" fill="#DFDFDF"/>
<path d="M303.361 131.876H204.37C161.372 131.876 135.738 157.51 135.738 200.508V299.498C135.738 312.374 137.983 323.596 142.353 333.047C152.512 355.491 174.248 368.13 204.37 368.13H303.361C346.359 368.13 371.992 342.497 371.992 299.498V272.447V200.508C371.992 157.51 346.359 131.876 303.361 131.876ZM352.738 255.909C343.524 247.995 328.64 247.995 319.426 255.909L270.285 298.081C261.071 305.995 246.187 305.995 236.973 298.081L232.957 294.773C224.57 287.449 211.221 286.741 201.771 293.12L157.592 322.769C154.993 316.154 153.457 308.476 153.457 299.498V200.508C153.457 167.196 171.058 149.595 204.37 149.595H303.361C336.672 149.595 354.273 167.196 354.273 200.508V257.209L352.738 255.909Z" fill="#DFDFDF"/>
<g clip-path="url(#clip1_1_11327)">
<path d="M866.087 333.479L1315.23 669.492H-799.127L-349.989 333.479H866.087Z" fill="#A2BD30"/>
<path d="M799.797 355.643L1148.27 647.335H-637.775L-289.299 355.643H799.797ZM1137.63 643.404L797.904 357.121H-287.41L-627.128 643.397L1137.63 643.404Z" fill="white"/>
<path d="M272.9 356.13L284.117 646.037H278.15L269.255 356.13H272.9Z" fill="white"/>
<path d="M371.209 433.971C377.006 460.675 334.325 484.453 275.527 484.451C216.719 484.451 172.39 460.673 176.338 433.971C179.924 409.695 222.844 391.517 272.301 391.517C321.757 391.517 365.942 409.696 371.209 433.971ZM180.602 433.971C177.043 459.447 219.442 482.045 275.445 482.045C331.441 482.048 372.274 459.456 366.948 433.971C362.083 410.712 319.821 393.234 272.366 393.234C224.908 393.232 183.854 410.706 180.602 433.971Z" fill="white"/>
<path d="M546.616 -65.4189H-20.8408V334.376H546.616V-65.4189Z" fill="url(#paint0_linear_1_11327)"/>
<path d="M263.849 227.741L316.577 175.049H312.738L263.849 223.891V227.741Z" fill="#606060"/>
<path d="M263.849 256.746L345.579 175.049H341.735L263.849 252.901V256.746Z" fill="#606060"/>
<path d="M263.849 285.763L374.584 175.049H370.766L263.849 281.924V285.763Z" fill="#606060"/>
<path d="M263.849 314.753L403.587 175.049H399.731L263.849 310.909V314.753Z" fill="#606060"/>
<path d="M272.66 334.972L432.586 175.049H428.747L268.837 334.972H272.66Z" fill="#606060"/>
<path d="M301.665 334.972L461.576 175.049H457.744L297.834 334.972H301.665Z" fill="#606060"/>
<path d="M330.668 334.972L490.593 175.049H486.762L326.824 334.972H330.668Z" fill="#606060"/>
<path d="M359.678 334.972L519.629 175.049H515.74L355.841 334.972H359.678Z" fill="#606060"/>
<path d="M388.656 334.972L548.582 175.049H544.769L384.825 334.972H388.656Z" fill="#606060"/>
<path d="M417.7 334.972L577.624 175.049H573.742L413.83 334.972H417.7Z" fill="#606060"/>
<path d="M446.677 334.972L606.628 175.049H602.745L442.822 334.972H446.677Z" fill="#606060"/>
<path d="M475.676 334.972L635.625 175.049H631.788L471.85 334.972H475.676Z" fill="#606060"/>
<path d="M661.643 334.972L501.705 175.049H497.861L657.804 334.972H661.643Z" fill="#606060"/>
<path d="M634.51 334.972L474.584 175.049H470.727L630.684 334.972H634.51Z" fill="#606060"/>
<path d="M607.402 334.972L447.464 175.049H443.607L603.532 334.972H607.402Z" fill="#606060"/>
<path d="M580.269 334.972L420.331 175.049H416.499L576.425 334.972H580.269Z" fill="#606060"/>
<path d="M553.148 334.972L393.223 175.049H389.366L549.278 334.972H553.148Z" fill="#606060"/>
<path d="M526.002 334.972L366.09 175.049H362.246L522.184 334.972H526.002Z" fill="#606060"/>
<path d="M498.887 334.972L338.962 175.049H335.099L495.05 334.972H498.887Z" fill="#606060"/>
<path d="M471.74 334.972L311.841 175.049H307.991L467.915 334.972H471.74Z" fill="#606060"/>
<path d="M444.646 334.972L284.708 175.049H280.851L440.795 334.972H444.646Z" fill="#606060"/>
<path d="M413.674 334.972H417.511L261.85 179.317C262.773 180.911 263.392 182.813 263.67 184.981L413.674 334.972Z" fill="#606060"/>
<path d="M390.379 334.972L263.849 208.457V212.32L386.554 334.972H390.379Z" fill="#606060"/>
<path d="M363.27 334.973L263.849 235.591V239.435L359.415 334.973H363.27Z" fill="#606060"/>
<path d="M336.137 334.972L263.849 262.724V266.581L332.307 334.972H336.137Z" fill="#606060"/>
<path d="M309.016 334.972L263.849 289.831V293.675L305.148 334.972H309.016Z" fill="#606060"/>
<path d="M696.663 172.397H268.042V183.808H696.663V172.397Z" fill="url(#paint1_linear_1_11327)"/>
<path d="M-133.988 334.972L25.9484 175.049H22.0728L-137.84 334.972H-133.988Z" fill="#606060"/>
<path d="M-104.972 334.972L54.9406 175.049H51.102L-108.847 334.972H-104.972Z" fill="#606060"/>
<path d="M-75.98 334.972L83.9583 175.049H80.1141L-79.8501 334.972H-75.98Z" fill="#606060"/>
<path d="M-46.9832 334.972L112.935 175.049H109.116L-50.807 334.972H-46.9832Z" fill="#606060"/>
<path d="M-17.9527 334.972L141.958 175.049H138.121L-21.8173 334.972H-17.9527Z" fill="#606060"/>
<path d="M11.0241 334.972L170.949 175.049H167.105L7.17993 334.972H11.0241Z" fill="#606060"/>
<path d="M40.0289 334.972L199.967 175.049H196.123L36.1848 334.972H40.0289Z" fill="#606060"/>
<path d="M69.0129 334.972L228.951 175.049H225.113L65.1891 334.972H69.0129Z" fill="#606060"/>
<path d="M98.0433 334.973L255.994 177.028L254.065 175.094L94.1732 334.973H98.0433Z" fill="#606060"/>
<path d="M127.059 334.972L265.494 196.539V192.708L123.178 334.972H127.059Z" fill="#606060"/>
<path d="M156.058 334.972L265.494 225.541V221.697L152.181 334.972H156.058Z" fill="#606060"/>
<path d="M185.048 334.973L265.494 254.547V250.695L181.178 334.973H185.048Z" fill="#606060"/>
<path d="M214.065 334.972L265.494 283.544V279.707L210.221 334.972H214.065Z" fill="#606060"/>
<path d="M265.494 211.721L228.795 175.049H224.946L265.494 215.571V211.721Z" fill="#606060"/>
<path d="M265.494 238.855L201.688 175.049H197.831L265.494 242.686V238.855Z" fill="#606060"/>
<path d="M265.494 265.981L174.567 175.049H170.723L265.494 269.832V265.981Z" fill="#606060"/>
<path d="M265.494 293.101L147.402 175.049H143.577L265.494 296.94V293.101Z" fill="#606060"/>
<path d="M265.494 320.209L120.293 175.049H116.456L265.494 324.079V320.209Z" fill="#606060"/>
<path d="M253.13 334.972L93.1859 175.049H89.3362L249.249 334.972H253.13Z" fill="#606060"/>
<path d="M225.978 334.972L66.0393 175.049H62.2285L222.139 334.972H225.978Z" fill="#606060"/>
<path d="M198.87 334.972L38.9187 175.049H35.082L195.031 334.972H198.87Z" fill="#606060"/>
<path d="M171.711 334.972L11.7986 175.049H7.97479L167.898 334.972H171.711Z" fill="#606060"/>
<path d="M144.603 334.972L-15.322 175.049H-19.1661L140.791 334.972H144.603Z" fill="#606060"/>
<path d="M117.496 334.972L-42.4553 175.049H-46.2994L113.644 334.972H117.496Z" fill="#606060"/>
<path d="M90.3601 334.972L-69.5634 175.049H-73.4205L86.5178 334.972H90.3601Z" fill="#606060"/>
<path d="M63.2269 334.972L-96.6836 175.049H-100.541L59.3846 334.972H63.2269Z" fill="#606060"/>
<path d="M36.1069 334.972L-123.83 175.049H-127.674L32.2757 334.972H36.1069Z" fill="#606060"/>
<path d="M8.99918 334.972L-150.937 175.049H-154.807L5.12906 334.972H8.99918Z" fill="#606060"/>
<path d="M271.267 171.72H259.877V336.384H271.267V171.72Z" fill="url(#paint2_linear_1_11327)"/>
<path d="M260.981 172.397H-167.577V183.808H260.981V172.397Z" fill="url(#paint3_linear_1_11327)"/>
<path d="M124.498 351.884L61.5809 318.67L61.4753 318.614C61.4753 318.614 57.2476 318.166 47.5695 325.754C37.8896 333.343 30.1994 323.909 30.1994 323.909L55.2097 301.678L66.2995 306.5L110.575 325.754C110.575 325.754 151.175 338.36 151.194 338.447C155.568 359.457 124.498 351.884 124.498 351.884Z" fill="url(#paint4_linear_1_11327)"/>
<path opacity="0.25" d="M176.478 425.539C245.987 425.539 302.335 415.845 302.335 403.886C302.335 391.928 245.987 382.233 176.478 382.233C106.969 382.233 50.6205 391.928 50.6205 403.886C50.6205 415.845 106.969 425.539 176.478 425.539Z" fill="#231F20"/>
<path opacity="0.25" d="M319.116 412.728C335.061 412.728 347.987 407.194 347.987 400.368C347.987 393.542 335.061 388.008 319.116 388.008C303.171 388.008 290.245 393.542 290.245 400.368C290.245 407.194 303.171 412.728 319.116 412.728Z" fill="#231F20"/>
<path d="M153.811 207.67L131.678 210.588L110.844 250.327C110.844 250.327 116.985 257.976 117.339 257.3C117.695 256.624 109.901 272.043 105.855 269.894C101.808 267.745 93.5736 265.34 98.0162 256.694C102.459 248.048 110.029 216.514 122.524 198.614L157.396 189.87L153.811 207.67Z" fill="url(#paint5_linear_1_11327)"/>
<path d="M291.233 391.715L258.012 407.108L251.218 395.674L227.173 355.203C227.173 355.203 201.609 321.238 201.644 321.158C210.381 301.553 231.158 325.865 231.158 325.865L262.162 388.356L262.831 389.705C262.831 389.705 265.235 384.801 277.524 384.304C289.812 383.808 291.233 391.715 291.233 391.715Z" fill="url(#paint6_linear_1_11327)"/>
<path d="M237.414 332.154C237.414 332.154 218.577 341.596 203.547 344.018C199.291 344.701 195.342 344.824 192.211 344.01L192.068 343.264L184.092 301.574L184.059 301.4L156.64 344.937C156.64 344.937 132.701 340.526 123.051 334.566L143.201 258.412L207.958 265.274L237.414 332.154Z" fill="#BD2043"/>
<path d="M186.053 190.799C186.053 190.799 194.328 195.395 193.091 200.321C193 200.682 180.441 212.313 163.986 218.477C147.533 224.64 142.188 222.801 142.188 222.801L142.505 192.325C142.507 192.325 163.206 181.619 186.053 190.799Z" fill="white"/>
<path d="M200.918 188.225L200.911 188.219L183.313 184.433C158.667 191.406 149.84 232.08 149.84 232.08L143.202 258.411C150.392 269.764 168.744 274.494 168.744 274.494C204.125 284.9 207.341 276.574 207.341 276.574C211.504 270.709 207.53 261.816 207.53 261.816C206.963 251.41 211.126 237.788 211.126 237.788C211.126 237.788 211.141 237.825 211.145 237.808C217.666 208.489 200.918 188.225 200.918 188.225Z" fill="#145677"/>
<path d="M203.547 344.018C199.291 344.701 195.341 344.824 192.21 344.01L192.068 343.264C191.897 343.273 191.727 343.284 191.556 343.293L184.059 301.585L184.092 301.574L184.244 301.585L203.219 341.996L203.547 344.018Z" fill="#9B1E45"/>
<path d="M152.933 267.571L132.669 338.617C132.669 338.617 109.339 330.703 107.731 329.189L143.201 258.412L152.933 267.571Z" fill="#9B1E45"/>
<path d="M179.427 187.774C184.014 201.685 205.54 208.021 204.076 198.658C202.611 189.295 197.426 187.716 197.426 187.716C196.201 185.66 197.583 177.805 197.583 177.805C197.583 177.805 209.857 183.453 225.407 179.281C240.956 175.111 241.044 156.889 241.044 156.889C243.383 156.957 244.432 156.149 244.432 156.149C247.574 151.822 241.805 146.603 241.679 146.488C241.677 146.486 241.677 146.486 241.677 146.486C242.431 136.639 236.551 123.012 236.551 123.012C225.048 97.8308 188.802 121.626 188.802 121.626L188.587 141.039C183.007 136.864 178.888 138.37 176.267 140.669C173.907 142.742 172.563 145.721 172.376 148.857C171.652 161.04 181.221 163.174 181.221 163.174C187.144 176.988 179.427 187.774 179.427 187.774Z" fill="url(#paint7_linear_1_11327)"/>
<path d="M157.843 152.787C157.843 152.787 168.785 170.537 183.105 169.558C183.105 169.558 183.1 169.532 183.092 169.486C183.016 169.021 182.635 166.363 183.129 162.606C183.129 162.606 171.923 161.257 172.397 148.572C172.397 148.572 172.399 148.553 172.403 148.518C172.451 148.085 172.832 145.091 174.626 142.475C174.648 142.443 174.667 142.412 174.691 142.382C175.456 141.289 176.469 140.27 177.814 139.54C177.82 139.535 177.829 139.531 177.838 139.527C179.052 138.87 180.536 138.449 182.348 138.423C182.348 138.423 182.349 138.423 182.355 138.423C182.398 138.423 182.618 138.427 182.998 138.49C183.009 138.492 183.024 138.494 183.037 138.497C184.013 138.666 185.979 139.218 188.589 141.039C188.589 141.039 192.409 145.237 191.283 149.23C191.477 149.031 203.855 136.365 203.112 122.117L205.37 130.985C205.37 130.985 221.31 120.781 225.43 112.526C225.43 112.526 227.637 112.841 230.423 115.11C232.642 116.914 235.229 119.953 237.367 125.053C238.013 126.596 238.617 128.327 239.16 130.268C239.167 130.296 239.177 130.327 239.184 130.355C239.184 130.355 239.184 130.355 239.186 130.353C239.295 130.274 244.899 126.19 246.181 119.829C247.45 113.528 244.479 104.987 227.724 95.8909C227.724 95.8909 211.834 89.4475 193.209 92.1542C193.208 92.1523 193.204 92.1542 193.202 92.1542C182.375 93.7289 170.622 98.3938 160.527 109.211C160.527 109.209 143.607 128.397 157.843 152.787Z" fill="#231F20"/>
<path d="M235.892 138.01C236.01 136.054 235.344 134.423 234.405 134.366C233.467 134.31 232.611 135.849 232.493 137.805C232.376 139.761 233.041 141.392 233.98 141.449C234.918 141.505 235.775 139.965 235.892 138.01Z" fill="#231F20"/>
<path d="M237.579 122.539C237.579 122.539 240.521 127.315 236.788 130.907C233.057 134.498 213.19 125.8 213.19 125.8C213.19 125.8 212.104 117.67 237.579 122.539Z" fill="#231F20"/>
<path d="M217.623 167.522C218.371 170.992 223.349 172.58 228.094 171.19C229.991 170.636 230.847 170.201 231.966 168.747C231.966 168.747 232.996 167.057 233.053 166.927C233.516 165.873 233.316 165.636 232.22 165.252C229.331 164.247 221.221 161.431 219.79 161.545C218.393 161.657 217.176 162.307 217.278 165.051C217.306 165.736 217.415 166.551 217.623 167.522Z" fill="#231F20"/>
<path d="M217.626 167.496C218.358 170.969 223.27 172.883 228.449 171.082C227.603 166.471 219.357 165.18 217.295 165.024C217.317 165.708 217.423 166.523 217.626 167.496Z" fill="#B62325"/>
<path d="M241.046 156.888C243.385 156.956 244.434 156.149 244.434 156.149C247.576 151.821 241.807 146.602 241.681 146.487C241.679 146.485 241.679 146.485 241.679 146.485C241.679 146.485 237.101 146.808 236.323 152.11C235.543 157.41 241.046 156.888 241.046 156.888Z" fill="#EE8780"/>
<path opacity="0.46" d="M239.963 148.592C242.132 148.442 243.516 142.898 243.054 136.208C242.592 129.518 240.459 124.217 238.29 124.366C236.121 124.516 234.737 130.061 235.199 136.751C235.661 143.44 237.794 148.742 239.963 148.592Z" fill="#62C7D1"/>
<path d="M239.963 148.592C242.132 148.442 243.516 142.898 243.054 136.208C242.592 129.518 240.459 124.217 238.29 124.366C236.121 124.516 234.737 130.061 235.199 136.751C235.661 143.44 237.794 148.742 239.963 148.592Z" stroke="#9C7A2C" stroke-width="1.03306" stroke-miterlimit="10"/>
<path d="M235.16 135.74L190.01 143.238" stroke="#9C7A2C" stroke-width="1.03306" stroke-miterlimit="10"/>
<path d="M197.585 177.804C197.585 177.804 191.603 175.238 188.996 172.611C188.996 172.611 192.301 182.141 196.981 185.965C196.979 185.967 196.835 180.583 197.585 177.804Z" fill="#EE8780"/>
<path d="M195.249 279.959C195.249 279.959 192.184 303.308 184.658 301.757L190.493 278.928L195.249 279.959Z" stroke="#9B1E45" stroke-width="1.03306" stroke-miterlimit="10"/>
<path d="M193.207 92.1522C230 89.5475 246.177 119.836 246.177 119.836C246.179 119.834 246.179 119.83 246.181 119.827C247.45 113.526 244.478 104.985 227.723 95.889C227.723 95.889 211.833 89.4456 193.207 92.1522Z" fill="#3A3A3A"/>
<path d="M190.949 338.471C194.875 338.734 199.656 338.065 204.601 336.924C204.788 336.881 204.973 336.837 205.158 336.794C209.21 335.831 213.354 334.562 217.21 333.239C226.927 329.904 234.821 326.227 234.821 326.227" stroke="white" stroke-width="2.06612" stroke-miterlimit="10"/>
<path d="M160.901 338.267C160.901 338.267 120.789 331.244 110.575 323.987" stroke="white" stroke-width="2.06612" stroke-miterlimit="10"/>
<path d="M52.036 308.753C52.036 308.753 47.5897 305.915 50.1445 299.199" stroke="#EE8780" stroke-width="2.06612" stroke-miterlimit="10"/>
<path d="M57.7127 308.847C57.7127 308.847 53.7388 305.307 55.7267 299.888" stroke="#EE8780" stroke-width="2.06612" stroke-miterlimit="10"/>
<path d="M177.502 203.146C177.502 203.146 177.929 193.689 182.892 192.601C183.255 192.522 199.263 198.583 212.113 210.566C224.963 222.549 225.698 228.153 225.698 228.153L198.274 241.449C198.274 241.451 179.464 227.69 177.502 203.146Z" fill="white"/>
<path d="M224.498 228.262L232.505 238.342L272.661 228.262C272.661 228.262 274.28 218.588 273.539 218.773C272.798 218.958 289.492 214.508 290.583 218.958C291.674 223.408 295.361 231.154 285.951 233.594C276.542 236.034 247.973 251.379 226.297 253.973L208.867 235.841L224.498 228.262Z" fill="url(#paint8_linear_1_11327)"/>
<path d="M66.2995 306.5L61.5809 318.67L61.4753 318.614C61.4753 318.614 57.2476 318.166 47.5695 325.754C37.8896 333.343 30.1994 323.909 30.1994 323.909L55.2097 301.678L66.2995 306.5Z" fill="black"/>
<path d="M30.1992 323.91L28.0687 322.52L53.8201 300.659L55.2096 301.678L30.1992 323.91Z" fill="#515151"/>
<path d="M291.233 391.715L258.012 407.109L251.218 395.674C254.405 393.546 258.636 390.715 262.162 388.356L262.831 389.705C262.831 389.705 265.235 384.801 277.524 384.305C289.812 383.808 291.233 391.715 291.233 391.715Z" fill="black"/>
<path d="M258.012 407.108L259.461 409.222L291.881 393.475L291.233 391.715L258.012 407.108Z" fill="#515151"/>
<path d="M340.37 403.879C359.97 403.879 375.859 387.99 375.859 368.39C375.859 348.79 359.97 332.901 340.37 332.901C320.77 332.901 304.881 348.79 304.881 368.39C304.881 387.99 320.77 403.879 340.37 403.879Z" fill="#CBC8BD"/>
<path d="M368.28 390.322C370.912 386.974 372.984 383.093 374.305 378.774C380.04 360.033 369.495 340.19 350.754 334.456C342.76 332.011 334.568 332.528 327.352 335.377C324.719 338.726 322.648 342.606 321.327 346.924C315.591 365.665 326.137 385.509 344.878 391.243C352.872 393.69 361.066 393.173 368.28 390.322Z" fill="#E3E5D7"/>
<path d="M352.147 349.109C352.147 349.109 343.21 349.003 338.484 350.804L336.291 366.06C336.291 366.06 347.488 372.424 350.585 372.909C350.585 372.909 359.919 362.622 360.364 361.675C360.364 361.675 356.338 352.091 352.147 349.109Z" fill="#2E2E2E"/>
<path d="M346.85 333.57C346.85 333.57 354.25 337.691 355.654 339.667C355.654 339.667 363.092 341.635 365.237 343.219C365.237 343.219 357.745 335.358 346.85 333.57Z" fill="#2E2E2E"/>
<path d="M331.294 334.378C331.294 334.378 328.282 341.188 327.917 343.395C327.917 343.395 317.273 349.879 315.732 351.881C315.732 351.881 312.696 350.179 311.705 347.865C311.705 347.867 318.079 337.136 331.294 334.378Z" fill="#2E2E2E"/>
<path d="M324.169 373.329L313.244 366.584C313.244 366.584 308.261 371.245 308.475 376.105C308.69 380.964 315.541 389.401 315.541 389.401C315.541 389.401 321.814 389.619 325.169 387.244C325.169 387.244 323.521 375.451 324.169 373.329Z" fill="#2E2E2E"/>
<path d="M351.912 386.769C351.912 386.769 341.963 393.003 338.899 393.92C338.899 393.92 341.194 401.58 341.956 402.123C342.717 402.666 352.782 401.106 356.475 399.144C360.169 397.182 362.288 390.253 362.288 390.253L351.912 386.769Z" fill="#2E2E2E"/>
<path d="M373.237 356.491C373.237 356.491 371.922 363.82 370.936 365.528C370.936 365.528 372.28 376.299 371.566 379.638C371.566 379.638 373.632 379.96 374.304 378.774C374.977 377.589 376.444 363.194 373.237 356.491Z" fill="#2E2E2E"/>
<path d="M336.199 365.941L324.078 373.21L324.23 373.464L336.351 366.195L336.199 365.941Z" fill="#2E2E2E"/>
<path d="M350.74 372.936L350.445 372.964L351.77 386.824L352.065 386.795L350.74 372.936Z" fill="#2E2E2E"/>
<path d="M325.058 387.343L325.277 387.145C329.806 392.173 338.83 393.758 338.921 393.773L338.871 394.064C338.782 394.049 329.658 392.447 325.058 387.343Z" fill="#2E2E2E"/>
<path d="M315.393 389.42L315.686 389.379C315.691 389.42 316.277 393.558 318.29 395.83L318.068 396.026C315.995 393.688 315.417 389.594 315.393 389.42Z" fill="#2E2E2E"/>
<path d="M313.096 366.58C313.259 360.039 315.567 351.922 315.589 351.841L315.873 351.922C315.849 352.004 313.552 360.083 313.39 366.588L313.096 366.58Z" fill="#2E2E2E"/>
<path d="M305.608 373.476L305.876 373.352C306.684 375.086 308.52 375.964 308.538 375.971L308.412 376.238C308.333 376.201 306.462 375.306 305.608 373.476Z" fill="#2E2E2E"/>
<path d="M327.846 343.525L327.987 343.264C328.061 343.303 335.345 347.251 338.591 350.702L338.376 350.904C335.164 347.489 327.92 343.566 327.846 343.525Z" fill="#2E2E2E"/>
<path d="M352.012 349.049C353.016 346.763 355.491 339.689 355.515 339.617L355.795 339.715C355.771 339.786 353.292 346.872 352.282 349.167L352.012 349.049Z" fill="#2E2E2E"/>
<path d="M360.351 361.821L360.377 361.526C363.23 361.782 370.683 365.246 370.999 365.393L370.873 365.661C370.797 365.626 363.152 362.073 360.351 361.821Z" fill="#2E2E2E"/>
<path d="M362.221 390.12C366.156 388.145 371.388 379.647 371.44 379.562L371.692 379.715C371.477 380.067 366.364 388.371 362.353 390.385L362.221 390.12Z" fill="#2E2E2E"/>
<g opacity="0.56">
<path d="M362.305 368.999C367.592 366.246 369.033 358.552 365.525 351.816C362.016 345.08 354.885 341.852 349.599 344.606C344.312 347.36 342.87 355.053 346.379 361.789C349.888 368.525 357.019 371.753 362.305 368.999Z" fill="white"/>
</g>
</g>
</g>
<defs>
<linearGradient id="paint0_linear_1_11327" x1="259.415" y1="-93.6911" x2="267.573" y2="442.386" gradientUnits="userSpaceOnUse">
<stop stop-color="#F6DB98"/>
<stop offset="1" stop-color="white"/>
</linearGradient>
<linearGradient id="paint1_linear_1_11327" x1="482.353" y1="183.806" x2="482.353" y2="172.397" gradientUnits="userSpaceOnUse">
<stop stop-color="#414141"/>
<stop offset="0.2143" stop-color="#696969"/>
<stop offset="0.4381" stop-color="#8C8C8C"/>
<stop offset="0.65" stop-color="#A5A5A5"/>
<stop offset="0.843" stop-color="#B4B4B4"/>
<stop offset="1" stop-color="#B9B9B9"/>
</linearGradient>
<linearGradient id="paint2_linear_1_11327" x1="259.877" y1="254.053" x2="271.267" y2="254.053" gradientUnits="userSpaceOnUse">
<stop stop-color="#414141"/>
<stop offset="0.2143" stop-color="#696969"/>
<stop offset="0.4381" stop-color="#8C8C8C"/>
<stop offset="0.65" stop-color="#A5A5A5"/>
<stop offset="0.843" stop-color="#B4B4B4"/>
<stop offset="1" stop-color="#B9B9B9"/>
</linearGradient>
<linearGradient id="paint3_linear_1_11327" x1="46.7009" y1="183.806" x2="46.7009" y2="172.397" gradientUnits="userSpaceOnUse">
<stop stop-color="#414141"/>
<stop offset="0.2143" stop-color="#696969"/>
<stop offset="0.4381" stop-color="#8C8C8C"/>
<stop offset="0.65" stop-color="#A5A5A5"/>
<stop offset="0.843" stop-color="#B4B4B4"/>
<stop offset="1" stop-color="#B9B9B9"/>
</linearGradient>
<linearGradient id="paint4_linear_1_11327" x1="30.1994" y1="327.445" x2="151.616" y2="327.445" gradientUnits="userSpaceOnUse">
<stop offset="0.6129" stop-color="#F8BBA7"/>
<stop offset="0.9088" stop-color="#EE8780"/>
</linearGradient>
<linearGradient id="paint5_linear_1_11327" x1="156.089" y1="188.72" x2="92.4097" y2="260.099" gradientUnits="userSpaceOnUse">
<stop offset="0.6129" stop-color="#F8BBA7"/>
<stop offset="0.9088" stop-color="#EE8780"/>
</linearGradient>
<linearGradient id="paint6_linear_1_11327" x1="305.301" y1="436.344" x2="208.808" y2="318.281" gradientUnits="userSpaceOnUse">
<stop offset="0.6129" stop-color="#F8BBA7"/>
<stop offset="0.9088" stop-color="#EE8780"/>
</linearGradient>
<linearGradient id="paint7_linear_1_11327" x1="226.679" y1="196.12" x2="191.941" y2="120.429" gradientUnits="userSpaceOnUse">
<stop offset="0.6129" stop-color="#F8BBA7"/>
<stop offset="0.9088" stop-color="#EE8780"/>
</linearGradient>
<linearGradient id="paint8_linear_1_11327" x1="208.87" y1="235.473" x2="292.215" y2="235.473" gradientUnits="userSpaceOnUse">
<stop offset="0.6129" stop-color="#F8BBA7"/>
<stop offset="0.9088" stop-color="#EE8780"/>
</linearGradient>
<clipPath id="clip0_1_11327">
<rect width="500" height="500" rx="250" fill="white"/>
</clipPath>
<clipPath id="clip1_1_11327">
<rect width="555.785" height="555.785" fill="white" transform="translate(-13.4298 -55.7852)"/>
</clipPath>
</defs>
</svg>
