<svg width="500" height="500" viewBox="0 0 500 500" fill="none" xmlns="http://www.w3.org/2000/svg">
<g clip-path="url(#clip0_1_9172)">
<rect width="500" height="500" rx="250" fill="white"/>
<path d="M142.59 332.807L142.354 333.043C139.165 326.073 137.156 318.159 136.33 309.417C137.156 318.041 139.401 325.837 142.59 332.807Z" fill="#DFDFDF"/>
<path d="M218.427 230.864C233.954 230.864 246.541 218.277 246.541 202.75C246.541 187.223 233.954 174.636 218.427 174.636C202.9 174.636 190.313 187.223 190.313 202.75C190.313 218.277 202.9 230.864 218.427 230.864Z" fill="#DFDFDF"/>
<path d="M303.361 131.873H204.37C161.372 131.873 135.738 157.507 135.738 200.505V299.495C135.738 312.371 137.983 323.593 142.353 333.044C152.512 355.488 174.248 368.127 204.37 368.127H303.361C346.359 368.127 371.993 342.494 371.993 299.495V272.444V200.505C371.993 157.507 346.359 131.873 303.361 131.873ZM352.738 255.907C343.524 247.992 328.64 247.992 319.426 255.907L270.285 298.078C261.071 305.992 246.187 305.992 236.973 298.078L232.957 294.77C224.57 287.447 211.222 286.738 201.771 293.117L157.592 322.767C154.993 316.151 153.457 308.473 153.457 299.495V200.505C153.457 167.193 171.058 149.592 204.37 149.592H303.361C336.673 149.592 354.274 167.193 354.274 200.505V257.206L352.738 255.907Z" fill="#DFDFDF"/>
<g clip-path="url(#clip1_1_9172)">
<path d="M567.528 -68.1816H-71.2814V562.854H567.528V-68.1816Z" fill="#F5DB97"/>
<path d="M563.016 347.351H-71.2814V566.116H563.016V347.351Z" fill="url(#paint0_linear_1_9172)"/>
<path d="M563.016 343.272H-71.2814V377.992H563.016V343.272Z" fill="#6D6D6D"/>
<path d="M573.046 160.912C573.046 160.912 535.667 147.841 510.619 176.824C510.619 176.824 491.63 77.1127 353.427 87.4771C353.427 87.4771 253.936 100.434 237.602 204.08C237.602 204.08 169.726 180.86 137.629 264.159C137.629 264.159 115.031 159.165 20.0214 167.802C-74.9879 176.439 -94.8541 274.199 -94.8541 274.199V343.634H573.044V160.912H573.046Z" fill="white"/>
<path d="M409.34 355.062C409.34 356.301 370.333 357.305 322.213 357.305L409.34 355.062Z" fill="#575757"/>
<path d="M383.334 355.043C377.498 355.043 371.709 353.646 366.377 350.889C357.602 346.349 351.12 338.661 348.126 329.246C345.132 319.831 345.984 309.814 350.524 301.037C359.896 282.921 382.26 275.811 400.373 285.184C409.148 289.723 415.63 297.411 418.624 306.826C421.618 316.241 420.766 326.259 416.226 335.035C411.687 343.81 403.999 350.292 394.584 353.286C390.89 354.46 387.104 355.043 383.334 355.043ZM383.425 288.626C372.773 288.626 362.476 294.423 357.251 304.519C349.798 318.924 355.452 336.708 369.859 344.161C376.836 347.772 384.803 348.449 392.29 346.068C399.777 343.687 405.889 338.532 409.501 331.555C413.112 324.578 413.788 316.611 411.408 309.124C409.027 301.637 403.872 295.525 396.895 291.914C392.584 289.683 387.971 288.626 383.425 288.626Z" fill="#4C4C4C"/>
<path d="M389.442 321.176C387.708 324.527 383.585 325.838 380.236 324.104C376.885 322.37 375.574 318.247 377.307 314.898C379.041 311.547 383.164 310.236 386.513 311.97C389.867 313.702 391.175 317.825 389.442 321.176Z" fill="#353535"/>
<path d="M383.325 348.943C378.546 348.943 373.7 347.833 369.169 345.489C354.031 337.655 348.088 318.966 355.921 303.83C363.755 288.691 382.443 282.748 397.582 290.582C404.914 294.377 410.331 300.798 412.834 308.668C415.336 316.537 414.625 324.908 410.83 332.242C405.339 342.85 394.518 348.943 383.325 348.943ZM383.424 288.725C372.808 288.725 362.545 294.504 357.34 304.566C349.912 318.922 355.547 336.644 369.903 344.074C384.259 351.502 401.982 345.867 409.411 331.511C413.01 324.557 413.684 316.617 411.312 309.154C408.94 301.692 403.802 295.601 396.848 292.002C392.554 289.778 387.955 288.725 383.424 288.725Z" fill="#353535"/>
<path d="M387.873 288.768C388.245 288.839 391.74 290.258 391.413 294.032C391.21 296.362 382.266 317.463 382.266 317.463L385.017 318.886C385.017 318.886 396.517 298.868 397.976 297.751C401.737 294.874 404.615 297.383 404.615 297.383L397.214 291.292L387.873 288.768Z" fill="#353535"/>
<path d="M355.216 329.887C355.091 329.527 354.573 325.791 358.004 324.191C360.123 323.201 382.869 320.398 382.869 320.398L382.725 317.302C382.725 317.302 359.639 317.351 357.943 316.647C353.571 314.829 354.304 311.082 354.304 311.082L352.729 320.537L355.216 329.887Z" fill="#353535"/>
<path d="M390.507 347.315C390.873 347.21 394.22 345.476 393.545 341.748C393.129 339.448 382.28 319.258 382.28 319.258L384.889 317.588C384.889 317.588 398.184 336.462 399.738 337.439C403.749 339.957 406.384 337.196 406.384 337.196L399.576 343.943L390.507 347.315Z" fill="#353535"/>
<path d="M378.149 222.889C378.086 222.627 376.492 216.43 369.094 214.155C361.125 211.704 343.147 214.182 342.967 214.208L342.54 211.167C343.305 211.059 361.377 208.569 369.997 211.22C379.126 214.03 381.059 221.851 381.137 222.183L378.149 222.889Z" fill="#7C7C7C"/>
<path d="M364.078 233.791L362.765 226.243L381.08 220.917L381.777 223.337L369.705 228.987L370.383 233.791H364.078Z" fill="#7C7C7C"/>
<path d="M372.785 278.917L380.213 317.068C380.213 317.068 381.004 319.677 383.687 319.118C385.805 318.679 385.323 316.112 385.323 316.112L378.669 277.428L372.785 278.917Z" fill="#7C7C7C"/>
<path d="M361.889 233.791C362.081 234.368 370.999 280.593 370.999 280.593L380.258 277.864L371.192 233.791H361.889Z" fill="#EAC924"/>
<path d="M291.879 262.404L288.651 251.479H291.879L295.37 262.404H290.856H291.879Z" fill="#7C7C7C"/>
<path d="M273.918 248.523C273.353 250.739 274.309 253.809 276.254 254.606C276.975 254.902 277.728 254.86 278.455 254.815C287.864 254.232 297.273 253.65 306.681 253.067C307.571 253.012 308.656 252.764 308.806 251.716C308.997 250.388 307.548 249.445 306.419 249.052C302.207 247.58 297.998 246.109 293.786 244.639C290.989 243.662 288.168 242.679 285.331 242.413C281.333 242.036 275.214 243.436 273.918 248.523Z" fill="#4C4C4C"/>
<path d="M339.278 209.675C338.189 209.785 336.878 210.083 336.544 211.125C336.381 211.633 336.51 212.182 336.641 212.698C337.054 214.341 337.62 216.18 339.138 216.931C339.823 217.269 340.608 217.329 341.373 217.36C345.097 217.515 348.841 217.176 352.476 216.358C353.824 216.054 355.351 215.514 355.803 214.21C356.721 211.567 353.438 209.241 351.201 209.083C347.289 208.806 343.17 209.281 339.278 209.675Z" fill="#4C4C4C"/>
<path d="M360.299 232.913L360.745 235.512H372.775L372.272 232.541L360.299 232.913Z" fill="#4C4C4C"/>
<path d="M258.498 355.026C238.101 355.026 221.508 338.433 221.508 318.036C221.508 297.639 238.101 281.048 258.498 281.048C278.895 281.048 295.488 297.641 295.488 318.036C295.488 338.431 278.893 355.026 258.498 355.026ZM258.498 288.621C242.279 288.621 229.083 301.817 229.083 318.036C229.083 334.255 242.279 347.45 258.498 347.45C274.717 347.45 287.912 334.255 287.912 318.036C287.912 301.817 274.717 288.621 258.498 288.621Z" fill="#4C4C4C"/>
<path d="M258.498 324.867C262.27 324.867 265.329 321.809 265.329 318.036C265.329 314.263 262.27 311.205 258.498 311.205C254.725 311.205 251.666 314.263 251.666 318.036C251.666 321.809 254.725 324.867 258.498 324.867Z" fill="#353535"/>
<path d="M258.497 348.947C241.452 348.947 227.586 335.082 227.586 318.036C227.586 300.992 241.452 287.125 258.497 287.125C275.543 287.125 289.409 300.99 289.409 318.036C289.409 335.08 275.541 348.947 258.497 348.947ZM258.497 288.721C242.333 288.721 229.182 301.872 229.182 318.036C229.182 334.2 242.333 347.351 258.497 347.351C274.661 347.351 287.813 334.2 287.813 318.036C287.813 301.872 274.661 288.721 258.497 288.721Z" fill="#353535"/>
<path d="M249.042 289.973C249.406 289.865 253.163 289.52 254.605 293.021C255.495 295.184 257.25 318.036 257.25 318.036H260.347C260.347 318.036 261.362 294.971 262.145 293.311C264.164 289.028 267.87 289.932 267.87 289.932L258.497 287.924L249.042 289.973Z" fill="#353535"/>
<path d="M238.934 341.503C238.659 341.24 236.481 338.162 238.792 335.162C240.219 333.31 259.132 320.366 259.132 320.366L257.582 317.683C257.582 317.683 237.101 328.337 235.272 328.489C230.552 328.882 229.483 325.218 229.483 325.218L232.428 334.339L238.934 341.503Z" fill="#353535"/>
<path d="M278.288 340.763C278.562 340.501 280.74 337.422 278.429 334.422C277.002 332.57 258.089 319.626 258.089 319.626L259.639 316.943C259.639 316.943 280.121 327.597 281.952 327.749C286.671 328.142 287.741 324.478 287.741 324.478L284.795 333.6L278.288 340.763Z" fill="#353535"/>
<path d="M289.907 261.188L305.565 322.271H312.568L296.095 261.188H289.907Z" fill="#EAC924"/>
<path d="M294.447 271.916C295.373 271.271 364.901 247.384 364.901 247.384L368.599 259.972L301.659 287.924L294.447 271.916Z" fill="#EAC924"/>
<path d="M318.076 318.635C318.657 324.65 314.251 329.997 308.235 330.579C302.22 331.16 296.873 326.754 296.292 320.739C295.71 314.723 300.116 309.376 306.132 308.795C312.149 308.213 317.496 312.62 318.076 318.635Z" fill="#353535"/>
<path d="M308.802 312.954C308.942 314.395 307.885 315.679 306.443 315.818C305.001 315.958 303.717 314.901 303.578 313.459C303.438 312.015 304.495 310.733 305.937 310.594C307.381 310.454 308.663 311.512 308.802 312.954Z" fill="#353535"/>
<path d="M310.669 326.654C310.808 328.096 309.751 329.38 308.309 329.519C306.867 329.659 305.584 328.601 305.444 327.159C305.304 325.718 306.362 324.434 307.804 324.295C309.248 324.155 310.529 325.212 310.669 326.654Z" fill="#353535"/>
<path d="M302.661 320.123C302.801 321.567 301.744 322.848 300.302 322.988C298.86 323.127 297.576 322.07 297.437 320.628C297.297 319.186 298.354 317.903 299.796 317.763C301.24 317.622 302.524 318.679 302.661 320.123Z" fill="#353535"/>
<path d="M316.897 318.305C317.037 319.747 315.98 321.03 314.538 321.169C313.096 321.309 311.812 320.252 311.673 318.81C311.533 317.368 312.59 316.085 314.032 315.945C315.476 315.805 316.76 316.863 316.897 318.305Z" fill="#353535"/>
<path d="M313.737 312.869C313.844 313.987 313.026 314.981 311.906 315.091C310.787 315.199 309.793 314.38 309.683 313.26C309.576 312.141 310.394 311.148 311.514 311.04C312.635 310.932 313.629 311.75 313.737 312.869Z" fill="#353535"/>
<path d="M315.45 324.187C315.557 325.305 314.739 326.299 313.619 326.407C312.5 326.514 311.506 325.696 311.396 324.576C311.289 323.457 312.107 322.463 313.227 322.353C314.346 322.248 315.342 323.066 315.45 324.187Z" fill="#353535"/>
<path d="M304.651 325.692C304.759 326.811 303.94 327.804 302.82 327.914C301.701 328.022 300.708 327.204 300.598 326.083C300.49 324.965 301.308 323.971 302.429 323.861C303.549 323.753 304.543 324.574 304.651 325.692Z" fill="#353535"/>
<path d="M302.972 314.89C303.08 316.008 302.262 317.002 301.141 317.112C300.023 317.22 299.029 316.399 298.919 315.281C298.811 314.163 299.629 313.169 300.75 313.059C301.868 312.951 302.864 313.771 302.972 314.89Z" fill="#353535"/>
<path d="M310.271 319.387C310.426 320.996 309.248 322.426 307.641 322.58C306.032 322.734 304.603 321.557 304.449 319.95C304.294 318.341 305.472 316.911 307.079 316.757C308.686 316.601 310.115 317.778 310.271 319.387Z" fill="#4C4C4C"/>
<path d="M263.403 317.728C263.639 320.176 261.846 322.352 259.398 322.586C256.95 322.823 254.774 321.03 254.537 318.582C254.3 316.133 256.093 313.958 258.542 313.721C260.99 313.488 263.166 315.281 263.403 317.728Z" fill="#353535"/>
<path d="M307.262 331.35C300.949 331.35 275.825 326.593 263.504 324.261C260.802 323.749 258.853 323.379 257.975 323.227C254.861 322.686 253.256 319.992 253.328 317.732C253.394 315.71 254.776 313.41 258.466 313.01C259.73 312.873 263.103 312.471 267.371 311.962C280.514 310.395 302.512 307.773 307.36 307.566C310.328 307.437 313.392 308.64 315.553 310.778C317.914 313.116 319.094 316.461 318.965 320.449C318.771 326.426 314.335 330.796 307.928 331.325C307.738 331.342 307.516 331.35 307.262 331.35ZM307.421 309C302.628 309.205 280.664 311.822 267.543 313.387C263.27 313.896 259.893 314.298 258.62 314.435C256.263 314.691 254.819 315.941 254.76 317.778C254.707 319.434 255.901 321.413 258.219 321.814C259.107 321.969 261.062 322.339 263.769 322.85C275.524 325.077 303.055 330.289 307.808 329.895C313.453 329.43 317.36 325.616 317.53 320.402C317.646 316.823 316.612 313.846 314.542 311.795C312.328 309.606 309.411 308.915 307.421 309Z" fill="#353535"/>
<path d="M307.836 318.426L305.873 319.422L313.995 335.414L315.957 334.417L307.836 318.426Z" fill="#4C4C4C"/>
<path d="M320.837 332.184L308.485 334.002L309.022 337.65L321.374 335.832L320.837 332.184Z" fill="#4C4C4C"/>
<path d="M259.637 318.374C259.236 318.374 258.84 318.207 258.561 317.888C258.115 317.383 258.083 316.634 258.483 316.091L293.293 268.817C293.763 268.18 294.659 268.043 295.298 268.512C295.936 268.982 296.071 269.878 295.602 270.517L264.703 312.478L299.894 292.871C300.586 292.487 301.459 292.734 301.844 293.425C302.228 294.117 301.981 294.99 301.29 295.375L260.333 318.193C260.115 318.315 259.874 318.374 259.637 318.374Z" fill="#EAC924"/>
<path d="M367.793 275.001C367.922 275.959 369.413 281.566 369.413 281.566L382.281 278.714L380.824 272.016L367.793 275.001Z" fill="#353535"/>
<path d="M312.567 283.368L336.286 266.051L332.949 262.404L350.166 257.194L342.618 270.819L340.358 268.208L326.786 277.431L312.567 283.368Z" fill="#396FAA"/>
<path d="M310.584 284.196L331.956 266.491L328.177 262.404C328.177 262.404 334.472 257.869 334.222 257.955C333.973 258.042 328.103 260.072 328.103 260.072L320.773 265.207L325.761 267.654L303.981 286.953L310.584 284.196Z" fill="#396FAA"/>
<path d="M318.207 163.656C318.207 163.656 312.048 160.798 314.337 152.662C314.927 150.569 316.276 148.75 318.179 147.697C320.291 146.528 323.3 146.118 326.459 149.767L329.472 136.665C329.472 136.665 357.512 125.922 361.573 144.657C361.573 144.657 363.54 154.746 361.573 161.297L359.607 168.242C359.607 168.242 356.854 180.558 345.718 181.083C334.58 181.607 327.112 175.972 327.112 175.972L324.454 173.949C324.454 173.949 322.75 177.414 323.144 178.33C323.537 179.247 326.353 183.833 321.636 190.121C321.636 190.121 316.591 193.396 311.678 179.77C311.678 179.77 310.367 173.363 312.726 171.325C312.726 171.325 317.464 169.942 317.718 168.101" fill="url(#paint1_linear_1_9172)"/>
<path d="M368.562 143.927C366.754 148.044 362.361 149.978 362.274 150.014C362.272 150.017 362.272 150.017 362.272 150.017C362.27 149.995 362.27 149.974 362.267 149.953C362.187 148.558 362.035 147.3 361.826 146.16C361.132 142.392 359.832 139.957 358.597 138.407C357.047 136.459 355.601 135.92 355.601 135.92C351.592 140.897 339.302 145.445 339.302 145.445L339.084 139.111C337.481 148.862 327.235 155.603 327.075 155.708C328.428 153.175 326.463 149.769 326.463 149.769C324.967 148.152 323.717 147.488 323.083 147.23C323.074 147.226 323.066 147.221 323.057 147.219C322.81 147.12 322.66 147.086 322.632 147.08C322.628 147.078 322.628 147.078 322.628 147.078C321.4 146.828 320.332 146.894 319.414 147.158C319.408 147.16 319.402 147.16 319.397 147.162C318.38 147.458 317.543 147.997 316.864 148.623C316.843 148.64 316.826 148.657 316.807 148.676C315.207 150.181 314.507 152.15 314.412 152.437C314.403 152.461 314.401 152.473 314.401 152.473C312.207 160.986 319.588 163.555 319.588 163.555C318.698 166.022 318.562 167.878 318.545 168.204C318.543 168.238 317.729 168.105 317.729 168.105C310.266 167.001 306.183 158.971 304.646 155.165C304.646 155.165 304.646 155.165 304.646 155.163C304.157 153.955 303.929 153.173 303.929 153.173C302.29 148.118 302.153 143.661 302.819 139.853C302.819 139.853 302.819 139.853 302.819 139.851C304.61 129.645 312.183 124.086 312.183 124.086C317.695 120.276 323.298 118.35 328.631 117.623C331.451 117.238 334.196 117.19 336.811 117.373C336.813 117.373 336.815 117.373 336.815 117.376C337.145 117.399 337.473 117.426 337.796 117.458C350.307 118.634 359.614 125.004 359.614 125.004C369.604 133.633 370.351 139.851 368.562 143.927Z" fill="#231F20"/>
<path d="M361.393 141.36C361.393 141.36 363.804 144.407 361.531 147.179C359.256 149.951 344.887 145.585 344.887 145.585C344.887 145.585 343.476 140.081 361.393 141.36Z" fill="#231F20"/>
<path d="M361.504 166.502C363.123 166.569 363.857 166.018 363.857 166.018C366.069 163.047 362.117 159.385 362.032 159.305C362.03 159.305 362.03 159.305 362.03 159.305C362.03 159.305 358.859 159.491 358.275 163.155C357.687 166.819 361.504 166.502 361.504 166.502Z" fill="#EE8780"/>
<path d="M355.75 155.165C356.62 155.165 357.326 154.018 357.326 152.604C357.326 151.19 356.62 150.044 355.75 150.044C354.88 150.044 354.175 151.19 354.175 152.604C354.175 154.018 354.88 155.165 355.75 155.165Z" fill="#231F20"/>
<path d="M324.459 173.949C324.459 173.949 322.26 173.281 320.921 168.416C320.921 168.416 320.528 176.625 323.15 178.33L324.459 173.949Z" fill="#EE8780"/>
<path d="M328.626 117.623C307.303 130.072 304.664 154.951 304.643 155.165C304.154 153.958 303.926 153.175 303.926 153.175C302.287 148.12 302.15 143.663 302.816 139.855C302.816 139.855 302.816 139.855 302.816 139.853C304.607 129.647 312.18 124.089 312.18 124.089C317.69 120.277 323.293 118.35 328.626 117.623Z" fill="#3A3A3A"/>
<path d="M307.345 202.331C307.345 202.331 271.211 221.151 283.117 242.63C295.025 264.107 299.96 271.237 299.96 271.237L337.789 256.724L307.345 202.331Z" fill="#A38061"/>
<path d="M298.911 209C298.911 209 262.777 227.82 274.683 249.299C286.591 270.776 291.526 277.906 291.526 277.906L328.501 263.053L298.911 209Z" fill="#CEAA86"/>
<path d="M278.815 200.405C278.815 200.405 289.983 173.989 305.337 171.929L312.811 171.437L312.809 171.439C312.739 171.504 308.933 175.198 314.42 184.45C314.42 184.45 314.828 184.994 315.502 185.687C317.904 188.157 322.321 187.412 323.575 184.313C324.228 182.697 324.474 180.564 323.144 177.796C323.18 177.837 324.116 178.89 325.23 180.818C325.23 180.818 325.23 180.818 325.23 180.82C326.973 183.835 329.148 188.988 328.99 195.751C328.869 200.881 327.328 208.993 325.691 216.269V216.271C324.882 219.88 324.945 224.238 324.252 226.969C323.298 230.729 321.71 232.261 321.71 232.261C321.71 232.261 311.251 241.359 293.046 238.501C292.86 238.471 292.67 238.439 292.482 238.408C291.232 238.196 289.947 237.928 288.627 237.596C287.101 237.213 285.528 236.748 283.91 236.186C283.61 236.082 283.308 235.974 283.003 235.862C282.711 235.756 282.417 235.646 282.124 235.532C279.13 234.388 275.99 232.921 272.711 231.071C272.711 231.071 269.721 227.504 271.41 220.129C273.066 212.92 278.565 200.942 278.815 200.405C278.817 200.401 278.819 200.399 278.819 200.396L278.821 200.39C278.823 200.388 278.823 200.388 278.823 200.388" fill="#BD2043"/>
<path d="M288.596 237.579L282.126 235.528C279.132 234.384 275.992 232.917 272.713 231.067C272.713 231.067 269.723 227.5 271.412 220.125C273.064 212.92 278.565 200.94 278.813 200.405C278.815 200.401 278.817 200.399 278.817 200.397L278.819 200.39L282.883 199.05C282.883 199.05 272.971 221.257 277.001 228.124C280.874 234.723 288.042 237.38 288.596 237.579Z" fill="#DB1C50"/>
<path d="M324.901 222.267C324.901 222.267 311.902 226.54 302.121 224.107C302.121 224.107 289.48 223.813 291.82 226.43C294.161 229.046 324.419 226.221 324.419 226.221L324.901 222.267Z" fill="#9B1E45"/>
<path d="M302.059 172.746C302.059 172.746 313.396 174.359 306.616 207.56C306.616 207.56 288.496 215.907 281.512 202.34C281.512 202.34 285.024 180.397 302.059 172.746Z" fill="#9B1E45"/>
<path d="M324.9 264.497L328.503 270.279L316.91 332.779L308.504 334.018L313.747 272.453L310.921 270.112L324.9 264.497Z" fill="url(#paint2_linear_1_9172)"/>
<path d="M320.708 320.347L333.742 323.11C336.979 323.797 339.295 326.654 339.295 329.963L308.506 334.018L308.804 318.657L320.708 320.347Z" fill="#A38061"/>
<path d="M325.653 215.176H334.231L338.426 216.444C338.426 216.444 341.727 217.586 342.236 217.385L344.431 218.876L324.546 225.177L325.653 215.176Z" fill="#DB8D7D"/>
<path d="M303.983 221.95C282.271 227.636 281.512 217.394 281.512 217.394L284.846 206.683L295.143 210.099L294.446 214.017L327.56 210C327.56 210 349.511 206.558 352.894 210.18C356.279 213.802 353.759 217.356 352.103 218.314C350.448 219.271 345.553 219.802 343.107 218.314C340.66 216.825 342.043 210.922 337.787 210.706C337.787 210.706 335.383 209.97 336.941 213.793C336.941 213.793 337.227 215.766 338.423 216.442C338.423 216.442 334.899 218.982 331.806 216.967C328.71 214.952 328.71 214.952 328.71 214.952L303.983 221.95Z" fill="url(#paint3_linear_1_9172)"/>
<path d="M336.468 273.387L323.898 321.023L319.255 320.139L327.209 277.254L336.468 273.387Z" fill="#DB8D7D"/>
<path d="M341.361 170.488C341.355 172.944 344.486 174.752 347.898 174.515C349.262 174.42 349.907 174.253 350.878 173.435C350.878 173.435 351.823 172.445 351.882 172.365C352.351 171.722 352.25 171.53 351.565 171.111C349.761 170.006 344.693 166.904 343.708 166.768C342.748 166.637 341.828 166.897 341.492 168.767C341.41 169.234 341.363 169.8 341.361 170.488Z" fill="#231F20"/>
<path d="M341.367 170.47C341.348 172.927 344.386 174.946 348.154 174.494C348.262 171.251 342.879 169.162 341.507 168.751C341.422 169.217 341.371 169.783 341.367 170.47Z" fill="#B62325"/>
<path d="M274.276 231.925L297.425 275.533L291.526 277.903C291.526 277.903 261.609 239.051 274.276 231.925Z" fill="#F1CAAA"/>
<path d="M141.572 245.115L151.742 290.932C151.742 290.932 133.28 296.038 123.459 293.486L120.708 276.398L114.773 293.29C114.773 293.29 90.657 288.577 83.98 284.452L97.924 231.75L141.572 245.115Z" fill="#BD2043"/>
<path d="M126.406 261.139L120.71 276.398L123.461 293.486C123.461 293.486 127.112 294.571 131.774 294.173L126.406 261.139Z" fill="#9B1E45"/>
<path d="M104.66 238.087L90.6359 287.253C90.6359 287.253 85.0921 285.496 83.98 284.45L97.924 231.748L104.66 238.087Z" fill="#9B1E45"/>
<path d="M102.52 213.527L97.9257 231.75C102.901 239.607 115.601 242.88 115.601 242.88C140.087 250.081 142.312 244.32 142.312 244.32C145.194 240.26 142.443 234.107 142.443 234.107C142.05 226.906 144.931 217.478 144.931 217.478C144.931 217.478 144.936 217.483 144.944 217.493C149.617 222.394 158.374 226.618 159.846 227.31C159.916 227.344 159.988 227.378 160.059 227.409C160.554 226.42 169.646 211.759 170.639 210.158C170.654 210.133 170.669 210.11 170.682 210.091L170.726 210.017C163.144 205.175 162.298 204.175 154.881 197.447C147.219 190.493 138.149 183.4 137.867 183.18L137.863 183.175L137.861 183.173L125.685 180.554C100.939 186.84 93.0818 207.135 93.0818 207.135L102.52 213.527Z" fill="#145677"/>
<path d="M104.66 238.087L111.644 215.791L102.521 213.524L97.9263 231.748C97.9263 231.748 100 235.437 104.66 238.087Z" fill="#17485B"/>
<path d="M125.685 180.551C126.731 190.635 140.35 198.096 140.743 191.55C141.136 185.004 137.861 183.171 137.861 183.171C137.337 181.6 139.432 176.492 139.432 176.492C139.432 176.492 146.896 182.122 158.025 181.598C169.153 181.076 171.904 168.766 171.904 168.766C173.475 169.159 174.304 168.766 174.304 168.766C177.067 166.305 173.938 161.924 173.868 161.827C173.866 161.825 173.866 161.825 173.866 161.825C175.83 155.279 173.866 145.196 173.866 145.196C169.806 126.471 141.787 137.208 141.787 137.208L138.777 150.302C135.62 146.655 132.613 147.065 130.501 148.232C128.6 149.285 127.251 151.101 126.661 153.194C124.374 161.324 130.526 164.18 130.526 164.18C132.495 174.397 125.685 180.551 125.685 180.551Z" fill="url(#paint4_linear_1_9172)"/>
<path d="M116.257 153.71C116.257 153.71 121.033 167.327 130.861 168.779C130.861 168.779 130.861 168.762 130.863 168.728C130.88 168.403 131.015 166.549 131.903 164.081C131.903 164.081 124.526 161.514 126.719 153.008C126.719 153.008 126.723 152.996 126.729 152.972C126.824 152.687 127.526 150.719 129.125 149.215C129.144 149.198 129.163 149.179 129.182 149.162C129.861 148.537 130.696 147.997 131.713 147.701C131.717 147.699 131.723 147.697 131.73 147.697C132.647 147.431 133.713 147.367 134.941 147.617C134.941 147.617 134.943 147.617 134.945 147.619C134.973 147.625 135.123 147.659 135.37 147.759C135.379 147.761 135.387 147.765 135.396 147.769C136.03 148.027 137.278 148.691 138.774 150.308C138.774 150.308 140.737 153.71 139.386 156.243C139.546 156.138 149.784 149.401 151.386 139.659L151.604 145.989C151.604 145.989 163.888 141.443 167.893 136.47C167.893 136.47 169.337 137.009 170.887 138.954C172.122 140.502 173.422 142.938 174.113 146.701C174.323 147.839 174.477 149.099 174.555 150.492C174.557 150.513 174.557 150.535 174.559 150.556C174.559 150.556 174.559 150.556 174.562 150.554C174.648 150.516 179.04 148.583 180.845 144.471C182.634 140.399 181.886 134.185 171.9 125.56C171.9 125.56 162.108 118.858 149.116 117.936C149.114 117.934 149.111 117.934 149.111 117.934C141.559 117.399 132.924 118.818 124.501 124.643C124.507 124.643 110.233 135.117 116.257 153.71Z" fill="#231F20"/>
<path d="M139.238 322.66C139.709 327.743 139.965 332.352 139.76 335.32C139.76 335.32 139.238 345.186 139.692 350.746C139.804 352.129 140.961 353.193 142.35 353.193H170.729C172.824 345.336 159.009 343.699 159.009 343.699C154.368 343.528 153.072 340.629 151.349 338.331C149.562 335.948 148.801 334.631 149.031 331.663C149.22 329.242 149.23 326.106 149.126 322.658C148.744 309.614 146.763 292.123 146.763 292.123L135.479 293.926C135.481 293.928 138.047 309.807 139.238 322.66Z" fill="url(#paint5_linear_1_9172)"/>
<path d="M87.2211 353.195H118.253C117.959 348.676 112.426 347.949 109.381 345.985C106.337 344.021 98.8436 341.868 97.9471 335.32C97.6744 333.335 98.1268 328.474 98.888 322.66C100.637 309.297 104.019 290.907 104.019 290.907L93.8728 288.268C91.0206 298.55 89.3883 311.236 88.4559 322.66C87.1006 339.261 87.2211 353.195 87.2211 353.195Z" fill="url(#paint6_linear_1_9172)"/>
<path d="M170.361 210.602C170.361 210.602 178.452 214.072 180.023 214.072C180.023 214.072 202.676 213.285 211.055 207.526C211.055 207.526 214.722 203.729 217.732 197.183C220.743 190.637 226.767 188.41 226.767 188.41C226.767 188.41 228.338 189.066 226.767 191.161C226.767 191.161 230.302 188.804 231.48 188.41C232.657 188.017 232.526 191.03 229.515 192.994C229.515 192.994 223.098 198.494 221.136 204.517C221.136 204.517 220.974 205.545 220.997 206.524C221.016 207.313 222.401 207.272 223.166 207.071C224.331 206.765 225.441 206.71 226.777 205.346C227.49 204.619 228.763 205.084 228.801 206.101C228.835 207.006 228.059 208.437 225.196 210.672C225.196 210.672 220.612 215.125 214.328 214.076C214.328 214.076 197.044 222.98 178.19 223.373C178.19 223.373 170.904 222.827 165.185 218.975L170.361 210.602Z" fill="url(#paint7_linear_1_9172)"/>
<path d="M91.936 276.889C91.6949 277.28 91.7097 277.553 91.8451 277.739C92.1538 278.164 93.0819 278.164 93.0819 278.164C94.6888 277.489 97.0252 273.497 97.1097 273.356C97.0484 273.523 95.0779 278.868 94.8833 279.931C94.6867 281.012 95.8644 283.663 97.928 282.877C99.9577 282.103 101.321 278.475 101.364 278.363C100.283 283.467 102.017 283.989 102.017 283.989C103.224 283.333 103.427 280.716 104.474 274.954C105.521 269.195 100.283 258.325 100.283 258.325C97.4015 246.673 99.4968 225.984 99.63 225.067C99.7611 224.149 105.26 215.377 105.26 215.377L97.1118 209.858C97.1118 209.858 90.8577 218.455 90.661 221.597C90.4644 224.739 91.6125 254.593 93.8875 260.486L93.8854 260.488C93.8262 260.585 91.5575 264.338 92.5259 265.987C93.509 267.658 94.8833 272.174 94.8833 272.468C94.8812 272.766 92.7204 275.614 91.936 276.889Z" fill="url(#paint8_linear_1_9172)"/>
<path d="M170.104 155.412C170.755 155.412 171.282 154.313 171.282 152.958C171.282 151.602 170.755 150.503 170.104 150.503C169.454 150.503 168.927 151.602 168.927 152.958C168.927 154.313 169.454 155.412 170.104 155.412Z" fill="#231F20"/>
<path d="M168.337 140.976C168.337 140.976 171.741 142.84 170.726 146.278C169.711 149.716 154.784 151.287 154.784 151.287C154.784 151.287 151.348 146.769 168.337 140.976Z" fill="#231F20"/>
<path d="M154.501 172.498C154.495 174.955 157.626 176.763 161.039 176.526C162.403 176.431 163.047 176.264 164.018 175.446C164.018 175.446 164.963 174.456 165.022 174.376C165.492 173.733 165.39 173.541 164.705 173.122C162.902 172.016 157.833 168.915 156.848 168.779C155.888 168.648 154.969 168.908 154.632 170.777C154.55 171.245 154.503 171.811 154.501 172.498Z" fill="#231F20"/>
<path d="M154.505 172.481C154.486 174.938 157.525 176.957 161.292 176.505C161.4 173.261 156.017 171.172 154.645 170.762C154.56 171.227 154.512 171.794 154.505 172.481Z" fill="#B62325"/>
<path d="M171.907 168.769C173.478 169.162 174.306 168.769 174.306 168.769C177.07 166.308 173.941 161.927 173.871 161.83C173.869 161.827 173.869 161.827 173.869 161.827C173.869 161.827 170.727 161.371 169.418 164.838C168.109 168.31 171.907 168.769 171.907 168.769Z" fill="#EE8780"/>
<path opacity="0.46" d="M176.34 155.069C177.015 150.477 176.355 146.576 174.866 146.357C173.377 146.138 171.622 149.684 170.947 154.276C170.271 158.868 170.931 162.769 172.42 162.988C173.909 163.207 175.664 159.661 176.34 155.069Z" fill="#62C7D1"/>
<path d="M176.34 155.069C177.015 150.477 176.355 146.576 174.866 146.357C173.377 146.138 171.622 149.684 170.947 154.276C170.271 158.868 170.931 162.769 172.42 162.988C173.909 163.207 175.664 159.661 176.34 155.069Z" stroke="#9C7A2C" stroke-width="1.03306" stroke-miterlimit="10"/>
<path d="M171.05 153.6L139.415 152.004" stroke="#9C7A2C" stroke-width="1.03306" stroke-miterlimit="10"/>
<path d="M144.934 217.476C144.934 217.476 144.938 217.48 144.947 217.491C145.217 217.791 149.664 222.622 159.848 227.308C159.918 227.342 159.99 227.375 160.062 227.407L170.642 210.156L170.684 210.089L170.729 210.015C163.147 205.173 162.301 204.173 154.884 197.445C147.222 190.491 142.357 186.755 142.073 186.535C142.073 186.533 148.469 204.513 144.934 217.476Z" fill="white"/>
<path d="M120.046 182.319C120.046 182.319 125.619 199.014 110.299 217.476L109.643 218.394L93.0798 207.133C93.0819 207.133 99.4967 189.39 120.046 182.319Z" fill="white"/>
<path d="M107.242 229.845C107.242 229.845 108.138 241.666 115.602 242.878C115.602 242.878 111.394 242.986 104.66 238.087L107.242 229.845Z" fill="#17485B"/>
<path d="M145.365 200.356C145.365 200.356 147.04 219.309 162.485 223.369L160.062 227.405C160.062 227.405 150.858 224.481 144.947 217.491C144.947 217.491 146.327 203.465 145.365 200.356Z" fill="#E0E0E0"/>
<path d="M120.515 184.265C120.515 184.265 102.88 193.817 100.142 211.933L93.0818 207.133C93.0818 207.133 98.8264 189.717 120.046 182.319L120.515 184.265Z" fill="#E0E0E0"/>
<path d="M139.433 176.492C139.433 176.492 135.766 173.875 134.392 171.714C134.392 171.714 135.221 178.645 137.819 181.922C137.819 181.922 138.517 178.26 139.433 176.492Z" fill="#EE8780"/>
<path d="M128.681 245.939C128.681 245.939 130.104 260.9 126.241 261.579L125.273 245.326L128.681 245.939Z" stroke="#9B1E45" stroke-width="2.06612" stroke-miterlimit="10"/>
<path d="M149.122 117.936C174.384 121.609 180.848 144.475 180.848 144.475C180.85 144.473 180.85 144.471 180.852 144.471C182.641 140.399 181.892 134.185 171.906 125.56C171.906 125.558 162.115 118.856 149.122 117.936Z" fill="#3A3A3A"/>
<path d="M150.925 287.255C150.925 287.255 132.171 292.163 122.904 290.042" stroke="white" stroke-width="1.03306" stroke-miterlimit="10"/>
<path d="M115.932 289.993C115.932 289.993 91.2474 285.433 84.9636 280.72" stroke="white" stroke-width="1.03306" stroke-miterlimit="10"/>
<path d="M95.9368 282.517C95.9368 282.517 99.4001 277.085 99.8906 272.96" stroke="#EE8780" stroke-width="2.06612" stroke-miterlimit="10"/>
<path d="M91.8454 277.741L95.6343 272.963C95.6343 272.963 94.1987 267.451 93.3424 265.882C92.4882 264.311 93.8836 260.49 93.8836 260.49L93.8815 260.492C93.8223 260.59 91.5536 264.343 92.522 265.992C93.5052 267.662 94.8795 272.178 94.8795 272.472C94.8795 272.766 92.7186 275.614 91.9342 276.891C91.6953 277.28 91.7101 277.553 91.8454 277.741Z" fill="#EE8780"/>
<path d="M101.711 283.784C101.711 283.784 101.548 278.012 102.508 275.83L101.362 278.365C101.362 278.365 100.303 282.397 101.711 283.784Z" fill="#EE8780"/>
<path d="M97.1075 273.358C97.1075 273.358 95.0376 280.2 95.2152 281.551C95.2152 281.551 94.101 280.739 95.4246 278.111L97.1075 273.358Z" fill="#EE8780"/>
<path d="M139.498 333.35H149.503L156.286 342.686L170.881 346.537C170.881 346.537 174.689 348.093 173.137 353.193H139.498V333.35Z" fill="#B2AA93"/>
<path d="M87.2194 333.35H98.5331L102.906 341.828L118.602 346.539C118.602 346.539 122.41 348.095 120.858 353.195H87.2194V333.35Z" fill="#B2AA93"/>
<path d="M306.772 330.943L337.472 327.087L337.561 328.197L306.772 332.252V330.943Z" fill="#B2AA93"/>
<path d="M87.2194 352.157H121.11L120.856 353.195H87.2194V352.157Z" fill="#6D6552"/>
<path d="M139.557 352.157H173.448L173.194 353.195H139.557V352.157Z" fill="#6D6552"/>
</g>
</g>
<defs>
<linearGradient id="paint0_linear_1_9172" x1="-71.2814" y1="456.734" x2="563.016" y2="456.734" gradientUnits="userSpaceOnUse">
<stop stop-color="#FFF8AA"/>
<stop offset="1" stop-color="#869013"/>
</linearGradient>
<linearGradient id="paint1_linear_1_9172" x1="342.381" y1="188.528" x2="330.996" y2="136.447" gradientUnits="userSpaceOnUse">
<stop offset="0.6129" stop-color="#F8BBA7"/>
<stop offset="0.9088" stop-color="#EE8780"/>
</linearGradient>
<linearGradient id="paint2_linear_1_9172" x1="308.505" y1="299.257" x2="328.502" y2="299.257" gradientUnits="userSpaceOnUse">
<stop offset="0.6129" stop-color="#F8BBA7"/>
<stop offset="1" stop-color="#EE8780"/>
</linearGradient>
<linearGradient id="paint3_linear_1_9172" x1="281.512" y1="215.177" x2="354.571" y2="215.177" gradientUnits="userSpaceOnUse">
<stop offset="0.6129" stop-color="#F8BBA7"/>
<stop offset="1" stop-color="#EE8780"/>
</linearGradient>
<linearGradient id="paint4_linear_1_9172" x1="156.363" y1="193.182" x2="144.055" y2="136.879" gradientUnits="userSpaceOnUse">
<stop offset="0.6129" stop-color="#F8BBA7"/>
<stop offset="0.9088" stop-color="#EE8780"/>
</linearGradient>
<linearGradient id="paint5_linear_1_9172" x1="170.944" y1="322.66" x2="135.48" y2="322.66" gradientUnits="userSpaceOnUse">
<stop offset="0.6129" stop-color="#F8BBA7"/>
<stop offset="1" stop-color="#EE8780"/>
</linearGradient>
<linearGradient id="paint6_linear_1_9172" x1="118.254" y1="320.731" x2="87.2193" y2="320.731" gradientUnits="userSpaceOnUse">
<stop offset="0.6129" stop-color="#F8BBA7"/>
<stop offset="1" stop-color="#EE8780"/>
</linearGradient>
<linearGradient id="paint7_linear_1_9172" x1="232.174" y1="205.871" x2="165.186" y2="205.871" gradientUnits="userSpaceOnUse">
<stop offset="0.6129" stop-color="#F8BBA7"/>
<stop offset="1" stop-color="#EE8780"/>
</linearGradient>
<linearGradient id="paint8_linear_1_9172" x1="105.848" y1="254.204" x2="76.2557" y2="224.612" gradientUnits="userSpaceOnUse">
<stop offset="0.6129" stop-color="#F8BBA7"/>
<stop offset="1" stop-color="#EE8780"/>
</linearGradient>
<clipPath id="clip0_1_9172">
<rect width="500" height="500" rx="250" fill="white"/>
</clipPath>
<clipPath id="clip1_1_9172">
<rect width="634.298" height="634.298" fill="white" transform="translate(-71.281 -68.1816)"/>
</clipPath>
</defs>
</svg>
