<svg width="500" height="500" viewBox="0 0 500 500" fill="none" xmlns="http://www.w3.org/2000/svg">
<g clip-path="url(#clip0_1_9492)">
<rect width="500" height="500" rx="250" fill="white"/>
<path d="M142.59 332.807L142.354 333.043C139.165 326.073 137.156 318.159 136.33 309.417C137.156 318.041 139.401 325.837 142.59 332.807Z" fill="#DFDFDF"/>
<path d="M218.427 230.864C233.954 230.864 246.541 218.277 246.541 202.75C246.541 187.223 233.954 174.636 218.427 174.636C202.9 174.636 190.313 187.223 190.313 202.75C190.313 218.277 202.9 230.864 218.427 230.864Z" fill="#DFDFDF"/>
<path d="M303.361 131.873H204.37C161.372 131.873 135.738 157.507 135.738 200.505V299.495C135.738 312.371 137.983 323.593 142.354 333.044C152.512 355.488 174.248 368.127 204.37 368.127H303.361C346.359 368.127 371.993 342.494 371.993 299.495V272.444V200.505C371.993 157.507 346.359 131.873 303.361 131.873ZM352.738 255.907C343.524 247.992 328.64 247.992 319.426 255.907L270.285 298.078C261.071 305.992 246.187 305.992 236.973 298.078L232.957 294.77C224.57 287.447 211.222 286.738 201.771 293.117L157.592 322.767C154.993 316.151 153.457 308.473 153.457 299.495V200.505C153.457 167.193 171.058 149.592 204.37 149.592H303.361C336.673 149.592 354.274 167.193 354.274 200.505V257.206L352.738 255.907Z" fill="#DFDFDF"/>
<g clip-path="url(#clip1_1_9492)">
<path d="M538.224 -227.273H-189.049V500H538.224V-227.273Z" fill="url(#paint0_linear_1_9492)"/>
<path d="M538.085 316.145H-188.914V352.989H538.085V316.145Z" fill="#C6B69D"/>
<path d="M537.95 321.466H-189.049V355.667H537.95V321.466Z" fill="#FAEDCC"/>
<path d="M538.224 356.128H-189.049V500H538.224V356.128Z" fill="#BF7051"/>
<path d="M538.224 374.189H-189.049V399.088H538.224V374.189Z" fill="#AB614A"/>
<path d="M539.714 419.653H-187.559V444.553H539.714V419.653Z" fill="#AB614A"/>
<path d="M536.157 465.876H-191.115V490.775H536.157V465.876Z" fill="#AB614A"/>
<path d="M483.225 413.563C483.225 431.944 346.803 447.968 178.805 448.972C8.54832 449.988 -134.409 433.939 -125.158 411.391C-118.181 394.385 11.0332 378.109 179.033 378.109C347.033 378.109 483.225 395.183 483.225 413.563Z" fill="#8E6350"/>
<path d="M178.805 444.759C346.805 444.759 482.996 429.858 482.996 411.476C482.996 393.095 346.805 378.194 178.805 378.194C10.8042 378.194 -125.387 393.095 -125.387 411.476C-125.387 429.858 10.8042 444.759 178.805 444.759Z" fill="#C49075"/>
<path d="M160.995 236.984H78.6481C48.4881 236.984 24.0372 212.535 24.0372 182.373V26.8917C24.0372 -3.26831 48.4857 -27.7192 78.6481 -27.7192H160.995C191.155 -27.7192 215.606 -3.27073 215.606 26.8917V182.373C215.603 212.533 191.155 236.984 160.995 236.984Z" fill="#69705A"/>
<path d="M229.869 236.984H92.9142C62.7542 236.984 38.3033 212.535 38.3033 182.373V26.8917C38.3033 -3.26831 62.7518 -27.7192 92.9142 -27.7192H175.261C205.421 -27.7192 229.872 -3.27073 229.872 26.8917V236.984H229.869Z" fill="#87936C"/>
<path d="M217.77 265.803H50.4055C35.3025 265.803 23.0576 253.558 23.0576 238.455V223.718C23.0576 208.615 35.3025 196.371 50.4055 196.371H217.773C232.876 196.371 245.121 208.615 245.121 223.718V238.455C245.118 253.558 232.876 265.803 217.77 265.803Z" fill="#69705A"/>
<path d="M215.989 374.05H50.4055C35.3025 374.05 23.0576 361.805 23.0576 346.702V238.984C23.0576 223.881 35.3025 211.636 50.4055 211.636H215.989C231.092 211.636 243.336 223.881 243.336 238.984V346.702C243.336 361.808 231.092 374.05 215.989 374.05Z" fill="#69705A"/>
<path d="M328.854 230.235H257.218C242.115 230.235 229.87 217.99 229.87 202.887V159.791H301.506C316.609 159.791 328.854 172.036 328.854 187.139V230.235Z" fill="#96A57A"/>
<path d="M306.845 226.652H229.87V166.089H279.497C294.6 166.089 306.845 178.334 306.845 193.437V226.652Z" fill="#69705A"/>
<path d="M279.724 265.803H128.442C113.339 265.803 101.094 253.558 101.094 238.455V223.718C101.094 208.615 113.339 196.371 128.442 196.371H279.724C294.827 196.371 307.072 208.615 307.072 223.718V238.455C307.072 253.558 294.827 265.803 279.724 265.803Z" fill="#747C5C"/>
<path d="M328.764 374.305H100.376C99.9156 374.305 99.5422 373.932 99.5422 373.471V227.556C99.5422 227.096 99.9156 226.722 100.376 226.722H329.598V373.469C329.596 373.932 329.222 374.305 328.764 374.305Z" fill="#96A57A"/>
<path d="M137.705 229.597H50.4055C35.3025 229.597 23.0576 217.352 23.0576 202.249V160.165H110.359C125.462 160.165 137.707 172.409 137.707 187.512V229.597H137.705Z" fill="#96A57A"/>
<path d="M98.8006 233.866H23.0576V165.5H71.4528C86.5558 165.5 98.8006 177.745 98.8006 192.848V233.866Z" fill="#69705A"/>
<path d="M72.9415 374.05H57.2737V389.718H72.9415V374.05Z" fill="#96834D"/>
<path d="M76.5707 374.05H63.2592V389.718H76.5707V374.05Z" fill="#C6B375"/>
<path d="M144.626 374.05H128.958V389.718H144.626V374.05Z" fill="#96834D"/>
<path d="M148.255 374.05H134.944V389.718H148.255V374.05Z" fill="#C6B375"/>
<path d="M265.957 374.05H250.289V389.718H265.957V374.05Z" fill="#96834D"/>
<path d="M269.589 374.05H256.278V389.718H269.589V374.05Z" fill="#C6B375"/>
<path d="M314.682 374.05H299.014V389.718H314.682V374.05Z" fill="#96834D"/>
<path d="M318.313 374.05H305.002V389.718H318.313V374.05Z" fill="#C6B375"/>
<path d="M50.1479 -262.665H-192.621V142.438H50.1479V-262.665Z" fill="#9B8870"/>
<path d="M50.1481 -257.239H-192.62V147.864H50.1481V-257.239Z" fill="#C6B69D"/>
<path d="M28.9044 -41.2754H-68.3781V126.974H28.9044V-41.2754Z" fill="#AEDFE6"/>
<path d="M-68.3778 119.9H21.4501V-41.2754H28.9046V126.977H-68.3778V119.9Z" fill="#9B8870"/>
<path d="M89.2321 -227.273L539.715 22.2058L-188.891 478.327L-189.049 -227.273H89.2321Z" fill="url(#paint1_linear_1_9492)"/>
<path d="M131.319 351.706C131.319 351.706 127.149 394.715 128.635 398.404C128.635 398.404 129.421 405.013 121.566 400.829C121.566 400.829 119.232 399.844 119.232 394.678L117.072 349.912L118.807 344.492L128.786 346.952L131.319 351.706Z" fill="url(#paint2_linear_1_9492)"/>
<path d="M165.35 341.057C165.619 341.248 162.339 393.854 163.665 397.888C163.665 397.888 163.452 405.357 155.598 400.654C155.598 400.654 153.263 399.549 153.263 393.738L151.103 343.403L152.839 337.309L162.817 340.075L165.35 341.057Z" fill="url(#paint3_linear_1_9492)"/>
<path d="M177.469 350.434C177.469 350.434 175.986 350.858 173.59 351.469C168.073 352.882 157.716 355.297 149.493 355.849C146.723 356.039 144.192 356.012 142.172 355.668L141.634 321.466L141.6 319.229L140.691 355.668C140.691 355.668 114.422 358.029 106.875 353.983L107.748 282.102L171.811 283.144L172.116 286.783L177.469 350.434Z" fill="#BD2143"/>
<path d="M173.583 281.064C173.993 287.871 169.236 289.033 168.928 289.103C168.924 289.103 168.916 289.105 168.911 289.105C166.347 289.559 163.876 289.963 161.503 290.32C161.464 290.327 161.425 290.332 161.389 290.337C157.207 290.965 153.321 291.452 149.726 291.82C149.011 291.896 148.308 291.963 147.617 292.026C147.564 292.034 147.51 292.039 147.457 292.043C147.408 292.046 147.372 292.051 147.348 292.053C147.336 292.053 147.326 292.056 147.314 292.056C124.007 294.191 113.709 291.316 113.709 291.316C106.065 290.914 106.914 284.08 106.914 284.08L106.492 252.982L106.49 252.722H104.187C104.313 248.153 104.366 240.528 104.366 240.528C102.456 215.171 124.303 198.068 124.303 198.068C126.655 192.868 144.196 195.304 144.196 195.304C157.91 207.435 162.967 207.496 169.549 232.62C171.762 241.071 172.943 249.316 173.535 256.538L173.537 256.543C174.705 270.795 173.583 281.064 173.583 281.064Z" fill="#155677"/>
<path d="M125.067 170.024C116.226 169.456 107.333 162.489 108.89 147.864C110.446 133.238 130.429 139.372 130.429 139.372C131.561 157.718 128.429 162.087 128.429 162.087L128.943 118.993C152.722 119.524 160.563 115.02 160.563 115.02C164.524 116.879 168.912 120.205 168.912 120.205C168.912 120.205 178.538 127.653 179.67 142.542C180.027 147.229 180.16 151.231 180.172 154.513C180.179 156.3 180.153 157.873 180.107 159.229C179.971 163.301 179.67 165.41 179.67 165.41C179.67 165.41 178.255 183.934 154.851 185.265L144.938 185.42L144.196 195.352C144.196 195.352 149.37 199.905 148.07 202.319C146.771 204.734 129.316 210.118 129.687 198.048L129.501 195.631C129.501 195.631 134.352 190.433 125.067 170.024Z" fill="url(#paint4_linear_1_9492)"/>
<path d="M155.433 146.278C156.328 146.278 157.054 145.139 157.054 143.733C157.054 142.327 156.328 141.188 155.433 141.188C154.537 141.188 153.811 142.327 153.811 143.733C153.811 145.139 154.537 146.278 155.433 146.278Z" fill="black"/>
<path d="M175.331 146.278C176.227 146.278 176.953 145.139 176.953 143.733C176.953 142.327 176.227 141.188 175.331 141.188C174.435 141.188 173.709 142.327 173.709 143.733C173.709 145.139 174.435 146.278 175.331 146.278Z" fill="black"/>
<path d="M141.736 165.268C141.736 165.268 149.212 171.874 167.838 169.515" stroke="#F58F87" stroke-width="1.03306" stroke-miterlimit="10" stroke-linecap="round"/>
<path d="M152.65 171.852C152.65 171.852 154.725 172.608 159.891 172.339" stroke="#F58F87" stroke-width="1.03306" stroke-miterlimit="10" stroke-linecap="round"/>
<path d="M114.958 300.795C114.958 300.795 110.391 318.417 114.958 329.558C114.958 329.558 115.324 330.431 116.51 330.543C117.695 330.652 115.862 322.458 116.51 319.946C116.51 319.946 118.449 330.543 119.85 332.4C119.85 332.4 120.91 333.745 122.594 333.447C124.168 333.168 125.203 331.619 124.965 330.017C124.553 327.255 123.85 321.854 124.161 318.853C124.161 318.853 126.1 330.213 126.747 330.213C126.747 330.213 128.039 331.086 128.687 329.777C129.334 328.468 127.608 317.432 126.747 313.173C126.747 313.173 128.517 314.691 129.809 315.711C129.809 315.711 133.651 317.631 133.15 314.572L129.586 310.404L125.741 305.961L125.378 300.991C125.378 300.994 118.832 299.124 114.958 300.795Z" fill="url(#paint5_linear_1_9492)"/>
<path d="M114.958 300.795C114.958 300.795 110.646 265.083 110.847 253.398C110.847 253.398 118.11 252.904 122.806 252.368C122.806 252.368 123.358 296.788 125.378 300.994" fill="url(#paint6_linear_1_9492)"/>
<path d="M144.325 194.882C144.325 194.882 139.838 195.054 136.124 184.938L144.938 185.418L144.325 194.882Z" fill="#F58F87"/>
<path d="M100.793 146.734C100.793 146.734 108.485 168.07 121.702 170.024C121.702 170.024 126.737 171.561 124.425 168.771C124.146 168.434 123.867 166.914 123.002 165.166C123.002 165.166 111.915 157.234 114.866 145.791C114.866 145.791 114.871 145.774 114.88 145.743C115.009 145.357 115.952 142.71 118.102 140.688C118.129 140.664 118.153 140.64 118.18 140.618C119.091 139.777 120.216 139.049 121.583 138.654C121.591 138.652 121.598 138.649 121.608 138.647C122.842 138.291 124.274 138.201 125.928 138.538C125.928 138.538 125.93 138.538 125.935 138.54C125.974 138.55 126.172 138.596 126.505 138.729C126.514 138.732 126.526 138.739 126.539 138.744C127.392 139.091 129.069 139.983 131.082 142.157C131.082 142.157 133.722 146.734 131.903 150.14C132.119 150 145.891 140.938 148.046 127.832L148.34 136.346C148.34 136.346 164.861 130.232 170.248 123.544C170.248 123.544 172.192 124.269 174.274 126.887C175.935 128.969 177.683 132.245 178.614 137.309C178.895 138.841 179.101 140.533 179.208 142.407C179.21 142.434 179.21 142.463 179.212 142.492C179.212 142.492 179.212 142.492 179.215 142.489C179.331 142.438 185.237 139.84 187.666 134.308C190.071 128.829 189.067 120.472 175.634 108.875C175.634 108.875 162.466 99.8591 144.989 98.6203C144.987 98.6178 144.985 98.6178 144.982 98.6178C134.825 97.8978 123.21 99.8081 111.882 107.641C111.889 107.638 92.6912 121.728 100.793 146.734Z" fill="black"/>
<path d="M168.383 160.875C166.172 161.427 165.006 160.875 165.006 160.875C161.12 157.413 165.522 151.248 165.617 151.115C165.619 151.112 165.619 151.112 165.619 151.112C165.619 151.112 170.039 150.467 171.881 155.35C173.726 160.23 168.383 160.875 168.383 160.875Z" fill="#EF8981"/>
<path d="M169.433 131.995C169.433 131.995 166.989 134.186 168.485 136.824C169.983 139.459 182.579 137.878 182.579 137.878C182.579 137.878 184.541 133.495 169.433 131.995Z" fill="black"/>
<path d="M159.331 131.391C159.331 131.391 162.233 133.844 160.587 136.945C158.943 140.043 144.32 138.635 144.32 138.635C144.32 138.635 141.906 133.629 159.331 131.391Z" fill="black"/>
<path opacity="0.46" d="M152.65 153.915C156.774 153.915 160.116 149.87 160.116 144.88C160.116 139.89 156.774 135.845 152.65 135.845C148.526 135.845 145.183 139.89 145.183 144.88C145.183 149.87 148.526 153.915 152.65 153.915Z" fill="#63C8D2"/>
<path d="M152.65 153.915C156.774 153.915 160.116 149.87 160.116 144.88C160.116 139.89 156.774 135.845 152.65 135.845C148.526 135.845 145.183 139.89 145.183 144.88C145.183 149.87 148.526 153.915 152.65 153.915Z" stroke="#9E7A2C" stroke-width="1.03306" stroke-miterlimit="10"/>
<path opacity="0.46" d="M175.332 153.915C179.455 153.915 182.798 149.87 182.798 144.88C182.798 139.89 179.455 135.845 175.332 135.845C171.208 135.845 167.865 139.89 167.865 144.88C167.865 149.87 171.208 153.915 175.332 153.915Z" fill="#63C8D2"/>
<path d="M175.332 153.915C179.455 153.915 182.798 149.87 182.798 144.88C182.798 139.89 179.455 135.845 175.332 135.845C171.208 135.845 167.865 139.89 167.865 144.88C167.865 149.87 171.208 153.915 175.332 153.915Z" stroke="#9E7A2C" stroke-width="1.03306" stroke-miterlimit="10"/>
<path d="M167.927 143.733H160.114" stroke="#9E7A2C" stroke-width="1.03306" stroke-miterlimit="10"/>
<path d="M145.183 143.733L131.634 143.304" stroke="#9E7A2C" stroke-width="1.03306" stroke-miterlimit="10"/>
<path d="M129.44 251.153C129.44 251.153 116.996 253.871 106.492 252.981C105.711 252.916 104.941 252.831 104.187 252.722C104.313 248.152 104.366 240.528 104.366 240.528C102.456 215.17 124.303 198.067 124.303 198.067C124.303 198.067 130.182 248.184 129.44 251.153Z" fill="white"/>
<path d="M149.493 355.849C146.722 356.038 144.192 356.012 142.172 355.667L141.634 321.466L146.771 319.733L149.493 355.849Z" fill="#9C1E45"/>
<path d="M147.617 292.026C148.046 291.983 148.912 291.896 150.097 291.765C149.976 291.784 149.852 291.803 149.726 291.82C148.96 291.929 148.167 292.007 147.348 292.053C147.372 292.051 147.409 292.046 147.457 292.043C147.501 292.036 147.554 292.031 147.617 292.026Z" fill="#9C1E45"/>
<path d="M173.584 281.064C173.993 287.871 169.237 289.032 168.929 289.102C168.924 289.102 168.917 289.105 168.912 289.105C166.51 289.553 163.967 289.961 161.504 290.319C161.465 290.327 161.426 290.332 161.39 290.336C156.936 290.984 152.75 291.473 150.119 291.762C173.373 288.128 173.535 256.538 173.535 256.538L173.538 256.542C174.706 270.795 173.584 281.064 173.584 281.064Z" fill="#164354"/>
<path d="M142.173 352.043C142.173 352.043 171.787 350.31 177.106 346.102" stroke="white" stroke-width="2.06612" stroke-miterlimit="10"/>
<path d="M106.91 350.938C106.91 350.938 125.261 355.272 140.781 351.808" stroke="white" stroke-width="2.06612" stroke-miterlimit="10"/>
<path d="M147.617 292.026C147.617 292.026 150.364 317.629 141.634 321.466L140.781 292.55L147.617 292.026Z" stroke="#9C1E45" stroke-width="2.06612" stroke-miterlimit="10"/>
<path d="M151.105 423.371H187.212C186.867 418.113 181.956 415.716 178.414 413.43C174.872 411.144 164.627 410.193 163.585 402.574C163.27 400.264 163.793 394.608 164.681 387.842H152.542C150.964 407.161 151.105 423.371 151.105 423.371Z" fill="white"/>
<path d="M161.388 387.655C161.388 387.655 157.946 409.5 170.744 413.614C183.541 417.728 186.659 420.901 186.659 420.901" stroke="#A5A4A4" stroke-width="1.03306" stroke-miterlimit="10"/>
<path d="M157.42 387.655C157.42 387.655 156.472 396.882 158.443 405.927C159.107 408.976 161.022 411.612 163.711 413.197C165.929 414.506 169.192 416.162 173.815 417.951C184.557 422.101 183.9 421.66 184.814 423.374" stroke="#A5A4A4" stroke-width="1.03306" stroke-miterlimit="10"/>
<path d="M153.959 387.655C153.959 387.655 154.238 396.082 155.224 404.128C156.153 411.696 161.054 418.242 168.104 421.141C170.887 422.286 174.255 423.129 178.298 423.374" stroke="#A5A4A4" stroke-width="1.03306" stroke-miterlimit="10"/>
<path d="M151.687 400.867C151.687 400.867 149.735 420.402 165.275 423.371" stroke="#A5A4A4" stroke-width="1.03306" stroke-miterlimit="10"/>
<path d="M151.103 417.277C151.103 417.277 150.877 422.002 156.819 423.371" stroke="#A5A4A4" stroke-width="1.03306" stroke-miterlimit="10"/>
<path d="M164.111 392.482H152.184" stroke="#CB2027" stroke-width="2.06612" stroke-miterlimit="10"/>
<path d="M164.264 391.381H152.269" stroke="#CB2027" stroke-width="2.06612" stroke-miterlimit="10"/>
<path d="M116.892 423.371H152.999C152.655 418.113 147.743 415.716 144.202 413.43C140.66 411.144 130.415 410.193 129.372 402.574C129.057 400.264 129.581 394.608 130.468 387.842H118.33C116.752 407.161 116.892 423.371 116.892 423.371Z" fill="white"/>
<path d="M127.176 387.655C127.176 387.655 123.734 409.5 136.531 413.614C149.329 417.728 152.446 420.901 152.446 420.901" stroke="#A5A4A4" stroke-width="1.03306" stroke-miterlimit="10"/>
<path d="M123.207 387.655C123.207 387.655 122.26 396.882 124.23 405.927C124.895 408.976 126.81 411.612 129.498 413.197C131.717 414.506 134.98 416.162 139.603 417.951C150.344 422.101 149.687 421.66 150.601 423.374" stroke="#A5A4A4" stroke-width="1.03306" stroke-miterlimit="10"/>
<path d="M119.748 387.655C119.748 387.655 120.027 396.082 121.014 404.128C121.942 411.696 126.844 418.242 133.894 421.141C136.677 422.286 140.044 423.129 144.088 423.374" stroke="#A5A4A4" stroke-width="1.03306" stroke-miterlimit="10"/>
<path d="M117.474 400.867C117.474 400.867 115.523 420.402 131.062 423.371" stroke="#A5A4A4" stroke-width="1.03306" stroke-miterlimit="10"/>
<path d="M116.89 417.277C116.89 417.277 116.665 422.002 122.607 423.371" stroke="#A5A4A4" stroke-width="1.03306" stroke-miterlimit="10"/>
<path d="M129.901 392.482H117.972" stroke="#CB2027" stroke-width="2.06612" stroke-miterlimit="10"/>
<path d="M130.054 391.381H118.058" stroke="#CB2027" stroke-width="2.06612" stroke-miterlimit="10"/>
<path d="M260.354 105.818L318.955 99.3066L330.279 151.396L336.773 165.464C325.277 162.531 314.143 173.195 314.143 173.195C313.575 168.099 307.915 163.004 307.915 163.004C307.915 163.004 305.651 166.4 294.327 172.628C283.003 178.856 276.492 172.628 276.492 172.628L260.072 152.245C260.072 152.245 252.145 154.509 249.881 149.697C247.617 144.885 257.808 141.486 256.392 140.354C255.35 139.52 253.847 128.55 253.127 122.601C252.679 118.887 253.12 115.103 254.531 111.639C255.682 108.802 257.515 106.133 260.354 105.818Z" fill="url(#paint7_linear_1_9492)"/>
<path d="M356.819 123.086C348.749 140.073 330.276 151.396 330.276 151.396C330.276 151.396 323.481 150.688 318.599 132.64C318.599 132.64 323.765 122.378 317.253 115.302C310.742 108.223 302.817 116.715 303.947 119.263C305.081 121.813 304.087 132.426 304.087 132.426L297.576 118.414C297.576 118.414 277.144 133.137 255.656 109.355C255.656 109.355 239.401 104.402 240.463 90.812C241.232 80.9962 277.556 67.3453 297.668 60.5186C297.67 60.5186 297.67 60.5186 297.67 60.5186C305.404 57.8932 310.739 56.2811 310.739 56.2811C310.739 56.2811 319.447 53.8665 325.178 62.3611C330.912 70.8556 349.384 80.8338 353.84 85.7162C358.305 90.601 364.887 106.099 356.819 123.086Z" fill="black"/>
<path d="M275.295 236.325L242.235 254.727C214.773 259.256 152.715 227.821 152.715 227.821C143.779 229.571 141.716 222.075 141.258 220.325C140.8 218.577 137.593 217.828 137.593 217.828C137.593 217.828 128.657 220.325 125.886 218.577C123.152 216.851 136.073 213.67 136.439 213.581C136.245 213.593 132.807 213.823 125.886 213.578C118.759 213.328 118.805 208.332 118.805 205.333C118.805 202.335 133.149 203.29 133.149 203.29C127.038 201.474 124.977 199.549 124.356 198.187C124.337 198.148 124.318 198.107 124.303 198.068C124.095 197.544 124.095 197.113 124.146 196.81C124.153 196.766 124.163 196.727 124.17 196.691C124.182 196.647 124.194 196.606 124.206 196.572C124.226 196.511 124.245 196.461 124.259 196.424C124.269 196.405 124.279 196.385 124.286 196.373C124.296 196.351 124.303 196.339 124.303 196.339C124.303 196.339 135.302 197.966 143.636 200.286C151.971 202.608 163.942 217.828 163.942 217.828C188.916 237.316 239.096 236.318 239.096 236.318L263.571 220.172L273.234 224.153L275.295 236.325Z" fill="url(#paint8_linear_1_9492)"/>
<path d="M411.889 299.881C409.624 292.521 403.954 292.308 403.954 292.308C403.717 292.269 403.474 292.235 403.227 292.199C381.508 289.268 328.012 306.533 328.012 304.834C328.012 304.795 327.961 304.739 327.942 304.645L327.94 304.633C327.828 304.01 327.915 302.179 327.974 301.21V301.207C327.995 300.834 328.012 300.587 328.012 300.587C328.012 300.587 328.007 300.002 327.978 298.955V298.916C327.765 290.315 326.286 251.328 316.97 249.064C306.495 246.516 302.247 232.077 302.247 232.077L301.552 232.805L283.283 251.896C272.243 227.549 261.767 217.641 261.767 217.641L314.141 173.195C325.278 163.743 332.824 165.168 332.824 165.168C337.554 165.093 341.404 166.599 343.515 167.658C344.65 168.225 345.28 168.667 345.28 168.667C365.38 177.241 379.452 194.15 389.287 213.052C409.666 252.189 411.889 299.881 411.889 299.881Z" fill="#DB5A27"/>
<path d="M380.43 368.177L372.866 372.065L365.865 377.75C365.865 377.75 366.289 386.506 365.865 388.497C365.44 390.49 367.564 395.585 367.564 395.585H370.832L379.736 388.497C379.736 388.497 390.495 399.037 394.74 404.531C398.987 410.022 413.276 417.905 426.589 408.967L415.974 396.009L380.43 368.177Z" fill="url(#paint9_linear_1_9492)"/>
<path d="M380.127 368.327C380.127 368.327 375.639 373.954 389.477 384.223C403.809 394.856 415.598 406.196 415.598 406.196C415.598 406.196 424.236 412.283 429.836 406.897C435.729 401.224 412.255 386.337 412.255 386.337L397.21 377.864C397.21 377.859 387.205 366.776 380.127 368.327Z" fill="#6B696A"/>
<path d="M380.885 366.628C380.885 366.628 376.398 372.257 390.236 382.524C404.568 393.156 416.357 404.497 416.357 404.497C416.357 404.497 424.994 410.584 430.594 405.198C436.488 399.525 413.014 384.638 413.014 384.638L397.969 376.165C397.969 376.162 387.964 365.079 380.885 366.628Z" fill="#968F91"/>
<path d="M359.707 381.888L352.143 385.777L345.142 391.462C345.142 391.462 345.566 400.218 345.142 402.208C344.718 404.201 346.841 409.297 346.841 409.297H350.109L359.013 402.208C359.013 402.208 369.772 412.749 374.017 418.242C378.264 423.733 392.553 431.617 405.867 422.678L395.251 409.721L359.707 381.888Z" fill="url(#paint10_linear_1_9492)"/>
<path d="M381.26 407.42L373.132 417.139C373.132 417.139 374.931 421.001 380.191 423.28L390.407 415.35L381.26 407.42Z" fill="#6B696A"/>
<path d="M359.707 381.888C359.707 381.888 355.219 387.517 369.057 397.784C383.389 408.417 395.178 419.757 395.178 419.757C395.178 419.757 403.816 425.845 409.416 420.458C415.309 414.785 391.835 399.898 391.835 399.898L376.79 391.425C376.79 391.423 366.785 380.339 359.707 381.888Z" fill="#6B696A"/>
<path d="M401.515 393.212L393.384 402.931C393.384 402.931 395.183 406.793 400.444 409.071L410.66 401.142L401.515 393.212Z" fill="#6B696A"/>
<path d="M361.263 380.819C361.263 380.819 356.776 386.448 370.614 396.715C384.946 407.348 396.735 418.689 396.735 418.689C396.735 418.689 405.372 424.776 410.972 419.389C416.866 413.716 393.392 398.829 393.392 398.829L378.347 390.356C378.347 390.354 368.344 379.27 361.263 380.819Z" fill="#968F91"/>
<path d="M413.901 352.397C413.59 353.275 413.251 354.138 412.878 354.979L412.866 355.006C410.742 359.796 407.586 363.922 403.033 366.834C392.963 373.273 387.244 376.373 384.003 377.791H384C383.203 378.141 382.555 378.388 382.029 378.558C378.706 379.636 375.501 381.047 372.516 382.863L368.713 385.178C353.99 399.617 350.66 415.743 350.66 415.743C343.3 413.971 338.487 415.743 338.487 415.743C292.133 424.482 265.161 424.599 249.479 421.614C226.177 417.183 227.796 405.905 227.796 405.905C228.919 358.155 324.798 306.781 326.296 305.981L326.308 305.976C326.31 305.976 326.313 305.973 326.313 305.973C417.755 274.264 411.809 300.875 411.809 300.875C411.809 300.875 421.28 331.517 413.901 352.397Z" fill="#AB213E"/>
<path d="M118.999 208.456H135.508" stroke="#F58F87" stroke-width="10.3306" stroke-miterlimit="10"/>
<path d="M413.901 352.397L412.878 354.979L412.866 355.006C410.742 359.796 407.586 363.922 403.033 366.834C392.963 373.273 387.244 376.373 384.003 377.791H384.001L311.128 381.997C300.679 369.84 337.637 363.791 337.637 363.791C384.493 352.681 413.901 352.397 413.901 352.397Z" fill="#8C203B"/>
<path d="M296.943 385.517C296.943 385.517 305.648 381.483 329.852 379.997C354.056 378.511 382.034 379.592 393.384 372.647" stroke="#771F38" stroke-width="10.3306" stroke-miterlimit="10"/>
<path opacity="0.44" d="M255.019 143.74C256.717 143.46 257.04 136.854 255.742 128.986C254.444 121.118 252.015 114.966 250.318 115.246C248.62 115.526 248.297 122.132 249.595 130C250.893 137.868 253.322 144.02 255.019 143.74Z" fill="#80B9C6"/>
<path d="M261.825 135.507C262.442 135.405 262.619 133.359 262.219 130.938C261.819 128.516 260.995 126.636 260.379 126.738C259.762 126.839 259.585 128.885 259.985 131.306C260.384 133.728 261.208 135.608 261.825 135.507Z" fill="black"/>
<path d="M255.966 119.728C255.966 119.728 260.638 114.948 269.343 117.282C269.343 117.282 274.298 119.263 272.599 122.732C272.599 122.732 266.228 119.406 256.887 121.884C256.885 121.884 254.296 122.402 255.966 119.728Z" fill="black"/>
<path d="M255.736 128.95L303.949 119.265" stroke="black" stroke-width="1.03306" stroke-miterlimit="10"/>
<path d="M271.04 159.394C271.04 159.394 279.108 159.394 283.566 152.812" stroke="#F58F87" stroke-width="1.03306" stroke-miterlimit="10"/>
<path d="M302.252 232.08C302.252 232.08 317.54 216.637 320.301 202.667" stroke="#A04827" stroke-width="10.3306" stroke-miterlimit="10"/>
<path d="M393.763 248.145C393.125 256.424 383.147 251.331 383.147 251.331C381.661 241.566 376.989 237.53 376.989 237.53C357.074 216.562 348.533 192.509 344.88 175.164C344.318 172.492 343.869 169.978 343.515 167.66C343.127 165.137 342.851 162.848 342.652 160.834C342.07 154.928 342.165 151.401 342.165 151.401L352.572 144.536C366.007 146.07 375.641 164.053 382.196 184.657C385.171 194.014 387.513 203.91 389.29 213.057C392.153 227.789 393.547 240.57 393.758 245.983C393.76 245.985 393.76 245.985 393.76 245.988C393.799 246.948 393.799 247.68 393.763 248.145Z" fill="black"/>
<path d="M337.639 144.531L342.167 151.396C342.167 151.396 350.448 149.202 352.572 144.531L345.105 137.35L337.639 144.531Z" fill="#EC3D53"/>
<path d="M256.328 141.011C256.328 141.011 262.429 139.316 265.072 144.373C267.714 149.43 260.071 152.245 260.071 152.245C260.071 152.245 250.929 155.074 249.603 148.846C249.6 148.848 248.017 146.092 256.328 141.011Z" fill="#F58F87"/>
<path d="M311.549 175.396L265.181 221.462L261.767 217.641L311.549 175.396Z" fill="#EA997D"/>
<path d="M327.974 301.212C327.974 303.113 327.986 304.458 328.013 304.834L327.942 304.645L327.94 304.633C327.831 304.012 327.916 302.182 327.974 301.212Z" fill="#EA997D"/>
<path d="M316.973 249.066C306.5 246.506 302.25 232.08 302.25 232.08L301.554 232.807L303.348 230.926C303.348 230.926 308.48 246.662 320.299 248.645C320.299 248.645 325.04 263.365 328.277 280.203L329.603 304.843L328.015 305.386C328.012 305.382 323.341 250.623 316.973 249.066Z" fill="#EA997D"/>
<path d="M255.658 109.357C255.658 109.357 239.403 104.405 240.465 90.8143C241.233 80.9986 277.558 67.3477 297.67 60.521C297.18 60.7925 245.357 89.4034 247.047 95.721C247.049 95.721 245.796 103.908 255.658 109.357Z" fill="#3A3A3A"/>
<path d="M246.48 383.643C246.48 383.643 233.796 411.275 249.479 421.612C226.177 417.18 227.796 405.903 227.796 405.903C228.919 358.153 324.798 306.778 326.296 305.978L326.308 305.973C325.542 306.555 247.045 366 246.48 383.643Z" fill="#C24866"/>
<path d="M307.913 163.003L312.946 156.104L313.162 169.927C313.162 169.927 310.311 165.942 307.913 163.003Z" fill="#F58F87"/>
<path d="M265.18 221.462L240.356 238.652C219.682 239.518 197.049 233.576 197.049 233.576C175.779 229.244 162.863 219.464 162.863 219.464C162.863 219.464 152.96 208.446 147.883 204.361C142.807 200.276 124.356 198.187 124.356 198.187C124.337 198.148 124.317 198.107 124.303 198.068C124.08 197.564 124.087 197.12 124.145 196.81C124.152 196.766 124.162 196.727 124.169 196.691C124.182 196.647 124.194 196.606 124.206 196.572C124.225 196.511 124.245 196.461 124.259 196.424C124.271 196.405 124.278 196.388 124.286 196.373C124.295 196.351 124.303 196.339 124.303 196.339C124.303 196.339 135.302 197.966 143.636 200.286C151.971 202.608 163.942 217.828 163.942 217.828C188.916 237.316 239.095 236.318 239.095 236.318L263.571 220.172L265.18 221.462Z" fill="#F6CEC4"/>
</g>
</g>
<defs>
<linearGradient id="paint0_linear_1_9492" x1="-218.979" y1="-408.251" x2="477.718" y2="555.834" gradientUnits="userSpaceOnUse">
<stop offset="0.4238" stop-color="#F5DB96"/>
<stop offset="1" stop-color="#F9A466"/>
</linearGradient>
<linearGradient id="paint1_linear_1_9492" x1="-212.071" y1="-220.632" x2="52.1774" y2="100.503" gradientUnits="userSpaceOnUse">
<stop stop-color="#AEDFE6" stop-opacity="0.6"/>
<stop offset="1" stop-color="white" stop-opacity="0"/>
</linearGradient>
<linearGradient id="paint2_linear_1_9492" x1="124.193" y1="423.714" x2="124.193" y2="347.937" gradientUnits="userSpaceOnUse">
<stop offset="0.6882" stop-color="#FABCA8"/>
<stop offset="1" stop-color="#F58F87"/>
</linearGradient>
<linearGradient id="paint3_linear_1_9492" x1="170.815" y1="411.81" x2="152.19" y2="341.692" gradientUnits="userSpaceOnUse">
<stop offset="0.6882" stop-color="#FABCA8"/>
<stop offset="1" stop-color="#F58F87"/>
</linearGradient>
<linearGradient id="paint4_linear_1_9492" x1="179.105" y1="214.646" x2="132.79" y2="127.092" gradientUnits="userSpaceOnUse">
<stop offset="0.6882" stop-color="#FABCA8"/>
<stop offset="1" stop-color="#F58F87"/>
</linearGradient>
<linearGradient id="paint5_linear_1_9492" x1="112.929" y1="316.796" x2="133.196" y2="316.796" gradientUnits="userSpaceOnUse">
<stop offset="0.6882" stop-color="#FABCA8"/>
<stop offset="1" stop-color="#F58F87"/>
</linearGradient>
<linearGradient id="paint6_linear_1_9492" x1="124.656" y1="313.967" x2="115.739" y2="256.215" gradientUnits="userSpaceOnUse">
<stop offset="0.6882" stop-color="#FABCA8"/>
<stop offset="1" stop-color="#F58F87"/>
</linearGradient>
<linearGradient id="paint7_linear_1_9492" x1="277.685" y1="199.275" x2="300.899" y2="120.574" gradientUnits="userSpaceOnUse">
<stop offset="0.733" stop-color="#FABCA8"/>
<stop offset="1" stop-color="#F58F87"/>
</linearGradient>
<linearGradient id="paint8_linear_1_9492" x1="118.805" y1="225.756" x2="275.295" y2="225.756" gradientUnits="userSpaceOnUse">
<stop offset="0.733" stop-color="#FABCA8"/>
<stop offset="1" stop-color="#F58F87"/>
</linearGradient>
<linearGradient id="paint9_linear_1_9492" x1="429.246" y1="361.931" x2="394.001" y2="395.478" gradientUnits="userSpaceOnUse">
<stop offset="0.733" stop-color="#FABCA8"/>
<stop offset="1" stop-color="#F58F87"/>
</linearGradient>
<linearGradient id="paint10_linear_1_9492" x1="345.085" y1="404.307" x2="405.866" y2="404.307" gradientUnits="userSpaceOnUse">
<stop offset="0.733" stop-color="#FABCA8"/>
<stop offset="1" stop-color="#F58F87"/>
</linearGradient>
<clipPath id="clip0_1_9492">
<rect width="500" height="500" rx="250" fill="white"/>
</clipPath>
<clipPath id="clip1_1_9492">
<rect width="727.273" height="727.273" fill="white" transform="translate(-189.05 -227.273)"/>
</clipPath>
</defs>
</svg>
