<svg width="500" height="500" viewBox="0 0 500 500" fill="none" xmlns="http://www.w3.org/2000/svg">
<g clip-path="url(#clip0_1_7369)">
<rect width="500" height="500" rx="250" fill="white"/>
<path d="M142.588 332.806L142.352 333.042C139.162 326.073 137.154 318.158 136.327 309.417C137.154 318.04 139.399 325.837 142.588 332.806Z" fill="#DFDFDF"/>
<path d="M218.423 230.864C233.95 230.864 246.537 218.276 246.537 202.749C246.537 187.222 233.95 174.635 218.423 174.635C202.896 174.635 190.309 187.222 190.309 202.749C190.309 218.276 202.896 230.864 218.423 230.864Z" fill="#DFDFDF"/>
<path d="M303.357 131.876H204.366C161.368 131.876 135.734 157.51 135.734 200.508V299.499C135.734 312.375 137.979 323.597 142.349 333.047C152.508 355.491 174.244 368.131 204.366 368.131H303.357C346.355 368.131 371.988 342.497 371.988 299.499V272.448V200.508C371.988 157.51 346.355 131.876 303.357 131.876ZM352.734 255.91C343.52 247.995 328.636 247.995 319.422 255.91L270.281 298.081C261.067 305.996 246.183 305.996 236.969 298.081L232.953 294.774C224.566 287.45 211.217 286.741 201.767 293.12L157.588 322.77C154.989 316.155 153.453 308.476 153.453 299.499V200.508C153.453 167.196 171.054 149.595 204.366 149.595H303.357C336.668 149.595 354.269 167.196 354.269 200.508V257.209L352.734 255.91Z" fill="#DFDFDF"/>
<g clip-path="url(#clip1_1_7369)">
<path d="M501.759 -101.423H-195.943V285.092H501.759V-101.423Z" fill="#FCF6B0" stroke="#4C6FB6" stroke-miterlimit="10"/>
<path d="M281.419 28.1733H258.799V50.795H281.419V28.1733Z" fill="#EEF1BB" stroke="#F9B39C" stroke-miterlimit="10"/>
<path d="M213.487 50.77H190.867V73.39H213.487V50.77Z" fill="#EEF1BB" stroke="#F9B39C" stroke-miterlimit="10"/>
<path d="M213.362 28.1733H190.74V50.795H213.362V28.1733Z" fill="#EEF1BB" stroke="#F9B39C" stroke-miterlimit="10"/>
<path d="M258.73 28.1882H236.11V50.8082H258.73V28.1882Z" fill="#EEF1BB" stroke="#F9B39C" stroke-miterlimit="10"/>
<path d="M258.73 50.7817H236.11V73.4017H258.73V50.7817Z" fill="#EEF1BB" stroke="#F9B39C" stroke-miterlimit="10"/>
<path d="M281.419 73.6416H258.799V96.2616H281.419V73.6416Z" fill="#EEF1BB" stroke="#F9B39C" stroke-miterlimit="10"/>
<path d="M236.11 5.56665H213.489V28.1883H236.11V5.56665Z" fill="#EEF1BB" stroke="#F9B39C" stroke-miterlimit="10"/>
<path d="M213.487 73.2883H190.867V95.9083H213.487V73.2883Z" fill="#EEF1BB" stroke="#F9B39C" stroke-miterlimit="10"/>
<path d="M236.11 95.8833H213.489V118.505H236.11V95.8833Z" fill="#EEF1BB" stroke="#F9B39C" stroke-miterlimit="10"/>
<path d="M190.867 73.2883H168.245V95.9083H190.867V73.2883Z" fill="#EEF1BB" stroke="#F9B39C" stroke-miterlimit="10"/>
<path d="M236.11 50.7817H213.489V73.4017H236.11V50.7817Z" fill="#EEF1BB" stroke="#F9B39C" stroke-miterlimit="10"/>
<path d="M419.735 24.7151H397.115V47.3368H419.735V24.7151Z" fill="#EEF1BB" stroke="#F9B39C" stroke-miterlimit="10"/>
<path d="M351.807 47.3118H329.185V69.9318H351.807V47.3118Z" fill="#EEF1BB" stroke="#F9B39C" stroke-miterlimit="10"/>
<path d="M351.679 24.7151H329.059V47.3368H351.679V24.7151Z" fill="#EEF1BB" stroke="#F9B39C" stroke-miterlimit="10"/>
<path d="M397.049 24.7285H374.427V47.3485H397.049V24.7285Z" fill="#EEF1BB" stroke="#F9B39C" stroke-miterlimit="10"/>
<path d="M397.049 47.3235H374.427V69.9452H397.049V47.3235Z" fill="#EEF1BB" stroke="#F9B39C" stroke-miterlimit="10"/>
<path d="M419.735 70.1833H397.115V92.8034H419.735V70.1833Z" fill="#EEF1BB" stroke="#F9B39C" stroke-miterlimit="10"/>
<path d="M374.427 2.1084H351.807V24.7301H374.427V2.1084Z" fill="#EEF1BB" stroke="#F9B39C" stroke-miterlimit="10"/>
<path d="M351.807 69.8301H329.185V92.4501H351.807V69.8301Z" fill="#EEF1BB" stroke="#F9B39C" stroke-miterlimit="10"/>
<path d="M374.427 92.425H351.807V115.047H374.427V92.425Z" fill="#EEF1BB" stroke="#F9B39C" stroke-miterlimit="10"/>
<path d="M329.184 69.8301H306.564V92.4501H329.184V69.8301Z" fill="#EEF1BB" stroke="#F9B39C" stroke-miterlimit="10"/>
<path d="M374.427 47.3235H351.807V69.9435H374.427V47.3235Z" fill="#EEF1BB" stroke="#F9B39C" stroke-miterlimit="10"/>
<path d="M71.1152 24.7151H48.4952V47.3368H71.1152V24.7151Z" fill="#EEF1BB" stroke="#F9B39C" stroke-miterlimit="10"/>
<path d="M3.18526 47.3118H-19.4364V69.9318H3.18526V47.3118Z" fill="#EEF1BB" stroke="#F9B39C" stroke-miterlimit="10"/>
<path d="M3.05689 24.7151H-19.5631V47.3368H3.05689V24.7151Z" fill="#EEF1BB" stroke="#F9B39C" stroke-miterlimit="10"/>
<path d="M48.4286 24.7285H25.8069V47.3485H48.4286V24.7285Z" fill="#EEF1BB" stroke="#F9B39C" stroke-miterlimit="10"/>
<path d="M48.4286 47.3235H25.8069V69.9452H48.4286V47.3235Z" fill="#EEF1BB" stroke="#F9B39C" stroke-miterlimit="10"/>
<path d="M71.1152 70.1833H48.4952V92.8034H71.1152V70.1833Z" fill="#EEF1BB" stroke="#F9B39C" stroke-miterlimit="10"/>
<path d="M25.8069 2.1084H3.18689V24.7301H25.8069V2.1084Z" fill="#EEF1BB" stroke="#F9B39C" stroke-miterlimit="10"/>
<path d="M3.18526 69.8301H-19.4364V92.4501H3.18526V69.8301Z" fill="#EEF1BB" stroke="#F9B39C" stroke-miterlimit="10"/>
<path d="M25.8069 92.425H3.18689V115.047H25.8069V92.425Z" fill="#EEF1BB" stroke="#F9B39C" stroke-miterlimit="10"/>
<path d="M25.8069 47.3235H3.18689V69.9435H25.8069V47.3235Z" fill="#EEF1BB" stroke="#F9B39C" stroke-miterlimit="10"/>
<path d="M4.49863 -51.8049H-115.01V171.573H4.49863V-51.8049Z" fill="#71BAE0"/>
<path d="M-68.878 52.4617V100.692H2.15029V171.573H-50.273H-64.633H-117.058V52.4617H-68.878Z" fill="#1B64B0"/>
<path d="M8.21861 175.295H-118.731V-55.5266H8.21861V175.295ZM-111.29 167.852H0.776939V-48.0833H-111.288V167.852H-111.29Z" fill="#4C6FB6"/>
<path d="M4.49863 11.7134H-115.01V19.155H4.49863V11.7134Z" fill="#4C6FB6"/>
<path d="M501.759 259.435H-195.943V363.71H501.759V259.435Z" fill="#6BBE9D"/>
<path d="M-195.943 300.29H172.025" stroke="#4C6FB6" stroke-width="0.75" stroke-miterlimit="10" stroke-linecap="round" stroke-linejoin="round"/>
<path d="M193.515 327.177H356.974" stroke="#4C6FB6" stroke-width="0.75" stroke-miterlimit="10" stroke-linecap="round" stroke-linejoin="round"/>
<path d="M307.68 304.472H414.712" stroke="#4C6FB6" stroke-width="0.75" stroke-miterlimit="10" stroke-linecap="round" stroke-linejoin="round"/>
<path d="M403.712 351.077H462.14" stroke="#4C6FB6" stroke-width="0.75" stroke-miterlimit="10" stroke-linecap="round" stroke-linejoin="round"/>
<path d="M102.857 345.102H129.752" stroke="#4C6FB6" stroke-width="0.75" stroke-miterlimit="10" stroke-linecap="round" stroke-linejoin="round"/>
<path d="M429.23 321.8H478.944" stroke="#4C6FB6" stroke-width="0.75" stroke-miterlimit="10" stroke-linecap="round" stroke-linejoin="round"/>
<path d="M227.765 290.132H253.284" stroke="#4C6FB6" stroke-width="0.75" stroke-miterlimit="10" stroke-linecap="round" stroke-linejoin="round"/>
<path d="M458.779 288.338H501.759" stroke="#4C6FB6" stroke-width="0.75" stroke-miterlimit="10" stroke-linecap="round" stroke-linejoin="round"/>
<path d="M24.9552 282.962H-23.4148" stroke="#4C6FB6" stroke-width="0.75" stroke-miterlimit="10" stroke-linecap="round" stroke-linejoin="round"/>
<path d="M501.759 251.057H-195.943V259.437H501.759V251.057Z" fill="#F5F5F5"/>
<path d="M99.3169 27.8718C99.3169 26.9834 98.6169 26.2718 97.7403 26.2201V21.5468C98.6169 21.4984 99.3169 20.7851 99.3169 19.8968C99.3169 19.0101 98.6169 18.2968 97.7403 18.2468V7.93843C97.7403 1.53843 92.5536 -3.6499 86.1536 -3.6499H51.8536C45.4536 -3.6499 40.2636 1.53843 40.2636 7.93843V18.2468C39.3886 18.2968 38.6886 19.0101 38.6886 19.8968C38.6886 20.7851 39.3886 21.4968 40.2636 21.5468V26.2201C39.3886 26.2701 38.6886 26.9834 38.6886 27.8718C38.6886 28.7601 39.3886 29.4701 40.2636 29.5201V34.1934C39.3886 34.2434 38.6886 34.9551 38.6886 35.8451C38.6886 36.7351 39.3886 37.4434 40.2636 37.4934V46.7968C39.3886 46.8468 38.6886 47.5584 38.6886 48.4468C38.6886 49.3334 39.3886 50.0451 40.2636 50.0968V54.7701C39.3886 54.8201 38.6886 55.5318 38.6886 56.4218C38.6886 57.3101 39.3886 58.0201 40.2636 58.0701V62.7418C39.3886 62.7934 38.6886 63.5051 38.6886 64.3918C38.6886 65.2818 39.3886 65.9918 40.2636 66.0434V70.9834C40.2636 77.3834 45.4519 82.5701 51.8536 82.5701H86.1553C92.5553 82.5701 97.7419 77.3834 97.7419 70.9834V66.0434C98.6186 65.9934 99.3186 65.2818 99.3186 64.3918C99.3186 63.5051 98.6186 62.7934 97.7419 62.7418V58.0701C98.6186 58.0201 99.3186 57.3084 99.3186 56.4218C99.3186 55.5318 98.6186 54.8218 97.7419 54.7701V50.0968C98.6186 50.0468 99.3186 49.3334 99.3186 48.4468C99.3186 47.5584 98.6186 46.8468 97.7419 46.7968V37.4934C98.6186 37.4434 99.3186 36.7351 99.3186 35.8451C99.3186 34.9551 98.6186 34.2451 97.7419 34.1934V29.5201C98.6169 29.4701 99.3169 28.7601 99.3169 27.8718Z" fill="#6BBE9D"/>
<path d="M40.2635 18.2485H97.7419" stroke="#010101" stroke-width="0.5" stroke-miterlimit="10" stroke-linecap="round" stroke-linejoin="round"/>
<path d="M40.2635 26.365H97.7419" stroke="#010101" stroke-width="0.5" stroke-miterlimit="10" stroke-linecap="round" stroke-linejoin="round"/>
<path d="M40.2635 34.1519H97.7419" stroke="#010101" stroke-width="0.5" stroke-miterlimit="10" stroke-linecap="round" stroke-linejoin="round"/>
<path d="M40.2635 46.7751H97.7419" stroke="#010101" stroke-width="0.5" stroke-miterlimit="10" stroke-linecap="round" stroke-linejoin="round"/>
<path d="M40.2635 54.8167H97.7419" stroke="#010101" stroke-width="0.5" stroke-miterlimit="10" stroke-linecap="round" stroke-linejoin="round"/>
<path d="M40.2635 62.74H97.7419" stroke="#010101" stroke-width="0.5" stroke-miterlimit="10" stroke-linecap="round" stroke-linejoin="round"/>
<path d="M86.557 82.5684H51.8536V87.7617H86.557V82.5684Z" fill="#6BBE9D"/>
<path d="M86.557 82.5684H51.8536V85.1667H86.557V82.5684Z" fill="#010101" stroke="#010101" stroke-width="0.5" stroke-miterlimit="10" stroke-linecap="round" stroke-linejoin="round"/>
<path d="M99.3186 87.76H38.6886V273.633H99.3186V87.76Z" fill="#F5F5F5"/>
<path d="M91.6235 116.624H46.3835V164.834H91.6235V116.624Z" fill="#ECB526"/>
<path d="M61.5868 121.567H54.4152V140.725H61.5868V121.567Z" fill="#F5F5F5"/>
<path d="M83.5885 121.567H76.4202V140.725H83.5885V121.567Z" fill="#F5F5F5"/>
<path d="M54.4152 139.614H61.5868" stroke="#010101" stroke-width="0.5" stroke-miterlimit="10" stroke-linecap="round" stroke-linejoin="round"/>
<path d="M76.4202 139.614H83.5885" stroke="#010101" stroke-width="0.5" stroke-miterlimit="10" stroke-linecap="round" stroke-linejoin="round"/>
<path d="M61.5868 140.725H54.4152V142.087H61.5868V140.725Z" fill="#010101" stroke="#010101" stroke-width="0.5" stroke-miterlimit="10" stroke-linecap="round" stroke-linejoin="round"/>
<path d="M83.5885 140.725H76.4202V142.087H83.5885V140.725Z" fill="#010101" stroke="#010101" stroke-width="0.5" stroke-miterlimit="10" stroke-linecap="round" stroke-linejoin="round"/>
<path d="M46.3835 121.567C46.3835 121.567 69.2035 115.14 91.6235 121.567V116.624H46.3835V121.567Z" fill="#7F662C"/>
<path d="M38.6886 91.7434H99.3169" stroke="#010101" stroke-width="0.5" stroke-miterlimit="10" stroke-linecap="round" stroke-linejoin="round"/>
<path d="M38.6886 269.844H99.3169" stroke="#010101" stroke-width="0.5" stroke-miterlimit="10" stroke-linecap="round" stroke-linejoin="round"/>
<path d="M32.4135 139.05H17.1135V273.633H32.4135V139.05Z" fill="#F5F5F5"/>
<path d="M17.1135 141.405H32.4135" stroke="#010101" stroke-width="0.5" stroke-miterlimit="10" stroke-linecap="round" stroke-linejoin="round"/>
<path d="M17.1135 271.385H32.4135" stroke="#010101" stroke-width="0.5" stroke-miterlimit="10" stroke-linecap="round" stroke-linejoin="round"/>
<path d="M355.359 93.9782C354.519 95.0416 355.174 96.7299 356.325 97.4449C357.477 98.1599 358.914 98.1732 360.269 98.1649C366.73 98.1249 373.19 98.0849 379.652 98.0449C382.25 98.0282 384.857 98.0116 387.43 97.6566C388.744 97.4749 389.617 95.2232 389.314 93.9332C389.012 92.6416 387.904 91.6599 386.677 91.1582C385.45 90.6566 384.102 90.5566 382.779 90.4616C373.549 89.8032 361.095 86.7149 355.359 93.9782Z" fill="#AE5F53"/>
<path d="M360.712 94.1182C361.709 94.3365 362.365 95.5548 363.384 95.4915C364.65 95.4115 365.174 93.4198 366.444 93.4332C367.587 93.4465 368.28 95.1398 369.407 94.9398C370.317 94.7782 370.595 93.5032 371.449 93.1448C372.92 92.5282 374.36 95.0698 375.827 94.4398C376.624 94.0982 376.994 92.9098 377.862 92.9315C378.869 92.9565 379.027 94.5032 379.895 95.0115C380.867 95.5815 381.977 94.5948 383.05 94.2532C383.882 93.9898 384.779 94.1298 385.649 94.1982C386.519 94.2665 387.465 94.2365 388.157 93.7065C388.85 93.1765 389.064 91.9782 388.364 91.4582C389.052 91.9882 390.177 91.4032 390.35 90.5498C390.524 89.6982 389.959 88.8315 389.212 88.3848C388.465 87.9382 387.574 87.8248 386.709 87.7365C383.457 87.4082 380.185 87.3282 376.917 87.2482C373.212 87.1582 369.47 87.0698 365.839 87.8065C362.349 88.5132 358.314 90.0415 356.475 93.3132C356.112 93.9598 355.282 95.3482 356.18 95.8748C357.467 96.6332 359.215 93.7898 360.712 94.1182Z" fill="#6BBE9D"/>
<path d="M395.125 89.6984C381.714 83.325 365.174 77.1584 356.21 86.11C353.824 88.495 352.377 91.77 352.245 95.0934C352.239 95.2584 352.322 95.415 352.462 95.505C352.537 95.5517 352.624 95.5767 352.71 95.5767C352.785 95.5767 352.859 95.5584 352.927 95.5234C362.3 90.595 374.26 90.1134 383.395 94.2934C383.54 94.36 383.707 94.3467 383.842 94.26C387.229 92.0667 391.275 90.7267 394.945 90.5817C395.16 90.5734 395.34 90.42 395.384 90.21C395.424 90.0017 395.319 89.79 395.125 89.6984Z" fill="#ECB526"/>
<path d="M361.704 86.9099C361.28 86.8582 360.865 86.8049 360.42 86.7549C357.762 88.2249 355.732 90.7932 354.919 93.7215C355.857 93.6132 356.807 93.5532 357.755 93.5565C358.339 90.9999 359.74 88.6432 361.704 86.9099Z" fill="#D43E47"/>
<path d="M361.704 86.9099C359.739 88.6449 358.339 91.0016 357.755 93.5566C358.544 93.5599 359.33 93.6049 360.109 93.7132C360.642 91.2282 361.95 88.9216 363.8 87.1782C363.119 87.0866 362.417 86.9966 361.704 86.9099Z" fill="#F5F5F5"/>
<path d="M363.8 87.1782C361.95 88.9199 360.642 91.2282 360.109 93.7132C360.677 93.7932 361.24 93.9032 361.795 94.0516C363.185 91.3066 365.532 89.0416 368.327 87.7532C366.715 87.5732 365.269 87.3749 363.8 87.1782Z" fill="#D43E47"/>
<path d="M377.862 87.7398C378.227 87.6948 378.585 87.6498 378.97 87.6064C381.267 88.8764 383.019 91.0948 383.722 93.6231C382.912 93.5298 382.092 93.4781 381.272 93.4798C380.769 91.2731 379.559 89.2381 377.862 87.7398Z" fill="#D43E47"/>
<path d="M377.862 87.7397C379.559 89.2381 380.769 91.2731 381.272 93.4797C380.59 93.4814 379.91 93.5214 379.238 93.6147C378.778 91.4681 377.647 89.4764 376.05 87.9714C376.64 87.8931 377.245 87.8164 377.862 87.7397Z" fill="#F5F5F5"/>
<path d="M376.052 87.9731C377.649 89.4781 378.78 91.4698 379.24 93.6165C378.75 93.6848 378.264 93.7815 377.784 93.9098C376.584 91.5398 374.555 89.5831 372.144 88.4698C373.534 88.3148 374.784 88.1415 376.052 87.9731Z" fill="#D43E47"/>
<path d="M385.859 87.2932C386.224 87.2482 386.582 87.2032 386.967 87.1599C389.264 88.4299 391.015 90.6482 391.719 93.1766C390.909 93.0832 390.089 93.0316 389.269 93.0332C388.764 90.8266 387.554 88.7916 385.859 87.2932Z" fill="#D43E47"/>
<path d="M385.859 87.2932C387.555 88.7915 388.765 90.8265 389.269 93.0332C388.587 93.0349 387.909 93.0749 387.235 93.1682C386.775 91.0215 385.644 89.0299 384.047 87.5249C384.637 87.4465 385.242 87.3699 385.859 87.2932Z" fill="#F5F5F5"/>
<path d="M384.047 87.5249C385.644 89.0299 386.775 91.0216 387.235 93.1682C386.745 93.2366 386.259 93.3332 385.779 93.4616C384.579 91.0916 382.55 89.1349 380.139 88.0216C381.53 87.8666 382.78 87.6949 384.047 87.5249Z" fill="#D43E47"/>
<path d="M358.022 89.7665C366.669 90.6565 375.365 91.0415 384.054 90.9182C385.614 90.8965 387.232 90.8432 388.627 90.1182C389.115 89.8649 389.62 89.2532 389.287 88.8049C389.13 88.5932 388.85 88.5382 388.597 88.4982C379.087 87.0048 369.389 86.8049 359.827 87.8949C359.31 87.9532 356.199 88.0032 355.995 88.4499C355.604 89.3099 357.569 89.7198 358.022 89.7665Z" fill="#010101"/>
<path d="M389.774 86.8782C388.065 79.1665 380.599 73.1365 372.699 73.0899C364.799 73.0432 357.262 78.9865 355.465 86.6782C355.259 87.5599 355.302 88.3999 356.07 88.8782C356.839 89.3582 357.795 89.3899 358.7 89.4082C367.529 89.5849 376.355 89.7615 385.184 89.9382C386.285 89.9599 387.425 89.9749 388.44 89.5465C389.454 89.1165 390.012 87.9532 389.774 86.8782Z" fill="#AE5F53"/>
<path d="M364.445 75.0332C365.772 77.3866 367.097 79.7416 368.424 82.0949C369.13 79.2682 368.884 76.2132 367.735 73.5349" stroke="#010101" stroke-width="0.5" stroke-miterlimit="10" stroke-linecap="round" stroke-linejoin="round"/>
<path d="M370.14 73.0349C370.954 75.6483 372.079 78.1633 373.487 80.5099C373.985 77.9366 373.919 75.2549 373.295 72.7083" stroke="#010101" stroke-width="0.5" stroke-miterlimit="10" stroke-linecap="round" stroke-linejoin="round"/>
<path d="M376.56 73.6482C377.312 76.0599 378.39 78.3699 379.755 80.4965C380.549 78.8699 380.747 76.9599 380.304 75.2049" stroke="#010101" stroke-width="0.5" stroke-miterlimit="10" stroke-linecap="round" stroke-linejoin="round"/>
<path d="M358.78 85.9515C358.935 84.8599 359.09 83.7682 359.245 82.6765" stroke="#010101" stroke-width="0.5" stroke-miterlimit="10" stroke-linecap="round" stroke-linejoin="round"/>
<path d="M361.144 85.6448C361.147 84.3448 361.48 83.0482 362.102 81.9065" stroke="#010101" stroke-width="0.5" stroke-miterlimit="10" stroke-linecap="round" stroke-linejoin="round"/>
<path d="M396.119 84.3965C399.987 78.8248 407.492 75.7148 414.465 76.7965C421.439 77.8781 427.49 83.0881 429.26 89.5348C429.507 90.4315 429.67 91.4048 429.309 92.2648C428.654 93.8181 426.634 94.3548 424.872 94.5531C417.827 95.3481 410.694 93.9931 403.61 94.3715C401.082 94.5065 397.715 94.7948 396.084 92.5715C394.079 89.8465 394.214 87.1398 396.119 84.3965Z" fill="#ECB526"/>
<path d="M395.284 88.5999C395.804 87.7265 396.412 86.8565 396.54 85.8632C396.697 84.6582 396.155 83.3015 396.872 82.2915C397.477 81.4382 398.729 81.2482 399.814 81.3382C400.899 81.4282 401.995 81.7149 403.062 81.5065C405.572 81.0132 406.982 77.9932 409.54 77.8382C412.072 77.6849 413.829 80.4399 416.339 80.7865C417.629 80.9649 418.904 80.4732 420.195 80.3082C421.487 80.1432 423.07 80.4799 423.527 81.6299C424.032 82.8999 422.87 84.4482 423.597 85.6182C424.564 87.1749 427.682 86.2765 428.59 87.8649C429.029 88.6315 428.677 89.5665 428.369 90.3865C428.06 91.2065 427.84 92.2199 428.457 92.8682C428.849 93.2799 429.569 93.5732 429.492 94.1199C429.46 94.3449 429.287 94.5299 429.105 94.6782C427.599 95.9165 425.297 95.6549 423.392 95.0849C421.487 94.5149 419.532 93.6949 417.569 94.0482C416.084 94.3149 414.795 95.2332 413.307 95.4815C410.704 95.9165 408.2 94.2382 405.555 94.1932C402.579 94.1432 400.085 95.3832 397.129 94.2049C394.595 93.1982 393.987 90.7749 395.284 88.5999Z" fill="#6BBE9D"/>
<path d="M424.087 98.0948C426.88 98.0381 428.66 95.2248 427.357 92.8964C425.534 89.6431 422.934 86.7931 419.65 84.8231C414.744 81.8798 408.27 81.1131 402.987 83.4031C398.969 85.1448 395.87 88.7531 394.925 92.7764C394.44 94.8431 395.917 96.8531 398.145 97.1264C406.717 98.1764 415.42 98.2698 424.087 98.0948Z" fill="#ECB526"/>
<path d="M399.657 91.5964C399.25 91.9864 399.064 92.5681 399.174 93.1048C399.284 93.6414 399.687 94.1164 400.219 94.3364" stroke="#010101" stroke-width="0.5" stroke-miterlimit="10" stroke-linecap="round" stroke-linejoin="round"/>
<path d="M401.512 93.0315C401.71 93.4682 402.215 93.7648 402.719 93.7398C403.222 93.7148 403.692 93.3715 403.84 92.9165" stroke="#010101" stroke-width="0.5" stroke-miterlimit="10" stroke-linecap="round" stroke-linejoin="round"/>
<path d="M401.624 90.6733C402.202 90.9983 403.024 90.865 403.45 90.3733" stroke="#010101" stroke-width="0.5" stroke-miterlimit="10" stroke-linecap="round" stroke-linejoin="round"/>
<path d="M416.54 89.3832C416.384 88.7466 417.127 88.1716 417.822 88.1866C418.515 88.2016 419.124 88.6032 419.685 88.9882" stroke="#010101" stroke-width="0.5" stroke-miterlimit="10" stroke-linecap="round" stroke-linejoin="round"/>
<path d="M419.825 90.7481C420.024 90.2715 420.525 89.9181 421.067 89.8731C421.609 89.8281 422.167 90.0915 422.452 90.5298" stroke="#010101" stroke-width="0.5" stroke-miterlimit="10" stroke-linecap="round" stroke-linejoin="round"/>
<path d="M417.779 93.0398C417.977 92.6281 418.42 92.3298 418.899 92.2881C419.377 92.2465 419.872 92.4598 420.149 92.8298" stroke="#010101" stroke-width="0.5" stroke-miterlimit="10" stroke-linecap="round" stroke-linejoin="round"/>
<path d="M422.119 95.1467C422.882 95.5683 424.01 95.16 424.28 94.365" stroke="#010101" stroke-width="0.5" stroke-miterlimit="10" stroke-linecap="round" stroke-linejoin="round"/>
<path d="M404.104 86.0866C404.895 85.3916 406.294 85.4482 407.02 86.2049" stroke="#010101" stroke-width="0.5" stroke-miterlimit="10" stroke-linecap="round" stroke-linejoin="round"/>
<path d="M447.542 70.6682H439.08H436.042L432.985 75.6099V98.1649H444.485H450.599V75.6099L447.542 70.6682Z" fill="#ECB526"/>
<path d="M447.542 70.6682L444.02 75.6099V98.1649" stroke="#010101" stroke-width="0.5" stroke-miterlimit="10" stroke-linecap="round" stroke-linejoin="round"/>
<path d="M432.985 75.6099H440.804" stroke="#010101" stroke-width="0.5" stroke-miterlimit="10" stroke-linecap="round" stroke-linejoin="round"/>
<path d="M450.599 75.6099H448.982L446.828 72.2849" stroke="#010101" stroke-width="0.5" stroke-miterlimit="10" stroke-linecap="round" stroke-linejoin="round"/>
<path d="M448.982 75.6099V96.4615" stroke="#010101" stroke-width="0.5" stroke-miterlimit="10" stroke-linecap="round" stroke-linejoin="round"/>
<path d="M447.542 68.5999H436.042V70.6665H447.542V68.5999Z" fill="#ECB526"/>
<path d="M447.542 70.6682H437.299" stroke="#010101" stroke-width="0.5" stroke-miterlimit="10" stroke-linecap="round" stroke-linejoin="round"/>
<path d="M461.385 70.6682H452.924H449.885L446.828 75.6099V98.1649H458.328H464.442V75.6099L461.385 70.6682Z" fill="#C4559F"/>
<path d="M461.385 70.6682L457.862 75.6099V98.1649" stroke="#010101" stroke-width="0.5" stroke-miterlimit="10" stroke-linecap="round" stroke-linejoin="round"/>
<path d="M446.828 75.6099H454.647" stroke="#010101" stroke-width="0.5" stroke-miterlimit="10" stroke-linecap="round" stroke-linejoin="round"/>
<path d="M464.442 75.6099H462.823L460.67 72.2849" stroke="#010101" stroke-width="0.5" stroke-miterlimit="10" stroke-linecap="round" stroke-linejoin="round"/>
<path d="M462.823 75.6099V96.4615" stroke="#010101" stroke-width="0.5" stroke-miterlimit="10" stroke-linecap="round" stroke-linejoin="round"/>
<path d="M461.385 68.5999H449.885V70.6665H461.385V68.5999Z" fill="#C4559F"/>
<path d="M461.385 70.6682H451.142" stroke="#010101" stroke-width="0.5" stroke-miterlimit="10" stroke-linecap="round" stroke-linejoin="round"/>
<path d="M367.902 133.743C367.194 132.638 365.914 131.807 364.51 131.787C363.109 131.767 361.674 132.688 361.415 133.962C360.137 133.723 358.992 132.49 359.409 131.342C359.812 130.232 361.089 129.603 362.302 129.252C363.75 128.832 365.275 128.642 366.785 128.693C368.26 128.743 369.88 129.12 370.654 130.267C371.22 131.105 371.18 132.262 370.555 133.083C369.932 133.905 368.957 133.937 367.902 133.743Z" fill="#1D1D1B"/>
<path d="M377.045 132.962C376.332 133.505 376.814 134.698 376.175 135.315C375.717 135.758 374.924 135.663 374.324 135.417C373.725 135.17 373.15 134.802 372.49 134.798C371.735 134.793 371.069 135.273 370.579 135.81C370.089 136.347 369.7 136.968 369.127 137.428C367.847 138.457 365.714 138.39 364.549 137.286C363.932 136.701 363.399 135.806 362.507 135.87C361.472 135.943 361.015 137.278 360.002 137.49C359.197 137.658 358.475 137.038 358 136.427C357.525 135.815 357.037 135.1 356.234 134.945C355.377 134.78 354.544 135.332 353.669 135.417C353.032 135.478 352.38 135.267 351.914 134.873C351.98 135.805 352.254 136.703 352.84 137.452C353.87 138.768 355.644 139.393 357.359 139.79C360.617 140.542 364.02 140.707 367.389 140.512C369.567 140.387 371.769 140.103 373.787 139.313C375.805 138.523 377.64 137.175 378.595 135.357C378.989 134.608 379.199 133.775 379.23 132.947C378.962 132.922 378.694 132.86 378.43 132.807C377.962 132.713 377.419 132.677 377.045 132.962Z" fill="#AE5F53"/>
<path d="M378.15 129.663C376.67 127.94 374.085 127.452 371.704 127.192C365.655 126.53 353.85 125.178 352.102 132.652C351.932 133.377 351.86 134.135 351.914 134.875C352.38 135.268 353.03 135.48 353.669 135.418C354.544 135.333 355.377 134.782 356.234 134.947C357.037 135.102 357.525 135.817 358 136.428C358.477 137.04 359.197 137.66 360.002 137.492C361.017 137.28 361.474 135.945 362.507 135.872C363.399 135.808 363.932 136.703 364.549 137.288C365.714 138.392 367.847 138.458 369.127 137.43C369.7 136.968 370.089 136.348 370.579 135.812C371.069 135.275 371.735 134.795 372.49 134.8C373.15 134.803 373.724 135.172 374.324 135.418C374.922 135.665 375.715 135.76 376.175 135.317C376.814 134.698 376.332 133.507 377.045 132.963C377.419 132.678 377.962 132.715 378.43 132.81C378.694 132.863 378.964 132.925 379.23 132.95C379.274 131.762 378.94 130.583 378.15 129.663ZM369.862 131.825C369.599 132.548 368.609 132.757 367.785 132.82C366.007 132.957 364.219 132.972 362.44 132.865C361.752 132.823 360.952 132.7 360.635 132.138C360.322 131.583 360.687 130.862 361.255 130.503C363.13 129.327 365.997 129.348 368.055 129.888C368.555 130.018 369.057 130.193 369.432 130.523C369.807 130.853 370.029 131.368 369.862 131.825Z" fill="#C4559F"/>
<path d="M353.61 134.055C353.459 134.887 353.827 135.773 354.54 136.288" stroke="#010101" stroke-width="0.5" stroke-miterlimit="10" stroke-linecap="round" stroke-linejoin="round"/>
<path d="M355.06 134.382C355.222 134.977 355.559 135.528 356.022 135.963" stroke="#010101" stroke-width="0.5" stroke-miterlimit="10" stroke-linecap="round" stroke-linejoin="round"/>
<path d="M375.907 130.078C376.367 129.932 376.924 130.16 377.107 130.57" stroke="#010101" stroke-width="0.5" stroke-miterlimit="10" stroke-linecap="round" stroke-linejoin="round"/>
<path d="M374.694 131.308C375.369 131.417 375.987 131.783 376.37 132.303" stroke="#010101" stroke-width="0.5" stroke-miterlimit="10" stroke-linecap="round" stroke-linejoin="round"/>
<path d="M370.565 136.8C370.847 137.293 370.792 137.938 370.429 138.393" stroke="#010101" stroke-width="0.5" stroke-miterlimit="10" stroke-linecap="round" stroke-linejoin="round"/>
<path d="M358.374 129.965C358.864 129.32 359.649 128.868 360.489 128.747" stroke="#010101" stroke-width="0.5" stroke-miterlimit="10" stroke-linecap="round" stroke-linejoin="round"/>
<path d="M392.475 120.185C390.969 119.831 389.44 119.475 387.894 119.535C386.347 119.595 384.754 120.123 383.729 121.281C382.58 122.58 382.319 124.431 382.304 126.166C382.274 129.631 383.03 133.103 384.502 136.24C385.23 137.795 386.294 139.395 387.954 139.833C389.062 140.125 390.259 139.831 391.262 139.275C392.264 138.72 393.105 137.92 393.935 137.13C394.575 137.853 395.349 138.508 396.164 139.026C396.979 139.545 397.995 139.826 398.924 139.56C400.424 139.13 401.19 137.51 401.772 136.061C402.634 133.918 403.502 131.75 403.829 129.463C404.155 127.176 403.889 124.725 402.622 122.793C400.53 119.606 396.06 118.895 392.475 120.185Z" fill="#D43E47"/>
<path d="M392.357 121.4C391.729 119.691 390.887 118.06 389.859 116.558C390.879 116.431 391.93 115.993 392.949 115.866C393.339 117.815 392.969 119.511 392.357 121.4Z" fill="#1D1D1B"/>
<path d="M385.175 131.111C385.445 132.418 386.1 133.641 387.039 134.59" stroke="#010101" stroke-width="0.5" stroke-miterlimit="10" stroke-linecap="round" stroke-linejoin="round"/>
<path d="M387.214 132.01C387.595 133.003 388.204 133.908 388.977 134.638" stroke="#010101" stroke-width="0.5" stroke-miterlimit="10" stroke-linecap="round" stroke-linejoin="round"/>
<path d="M393.944 137.253C393.639 136.66 393.009 136.245 392.342 136.201" stroke="#010101" stroke-width="0.5" stroke-miterlimit="10" stroke-linecap="round" stroke-linejoin="round"/>
<path d="M400.505 122.556C401.207 123.088 401.765 123.806 402.112 124.615" stroke="#010101" stroke-width="0.5" stroke-miterlimit="10" stroke-linecap="round" stroke-linejoin="round"/>
<path d="M399.76 123.717C400.404 124.1 400.869 124.768 401.002 125.505" stroke="#010101" stroke-width="0.5" stroke-miterlimit="10" stroke-linecap="round" stroke-linejoin="round"/>
<path d="M390.719 116.825C391.222 117.045 391.782 117.135 392.33 117.083" stroke="#010101" stroke-width="0.5" stroke-miterlimit="10" stroke-linecap="round" stroke-linejoin="round"/>
<path d="M408.687 135.317L405.434 133.382L411.562 127.172L414.569 130.032L416.024 127.172L423.365 129.063L422.499 131.245L425.932 128.63L427.74 131L430.519 129.063L435.62 130.032L436.037 132.65L438.525 131.772V135.57L408.687 135.317Z" fill="#ECB526"/>
<path d="M438.869 134.643H405.362C404.809 134.643 404.359 135.092 404.359 135.647C404.359 136.2 404.807 136.65 405.362 136.65H406.579L407.984 139.74H436.664L438.069 136.65H438.869C439.422 136.65 439.872 136.202 439.872 135.647C439.872 135.093 439.422 134.643 438.869 134.643Z" fill="#F1CCBB"/>
<path d="M406.579 136.65H433.485" stroke="#010101" stroke-width="0.5" stroke-miterlimit="10" stroke-linecap="round" stroke-linejoin="round"/>
<path d="M407.555 134.643L411.205 131L416.024 134.643" stroke="#010101" stroke-width="0.5" stroke-miterlimit="10" stroke-linecap="round" stroke-linejoin="round"/>
<path d="M414.569 130.032L413.212 132.517" stroke="#010101" stroke-width="0.5" stroke-miterlimit="10" stroke-linecap="round" stroke-linejoin="round"/>
<path d="M422.499 131.245L417.94 133.382L419.105 134.643" stroke="#010101" stroke-width="0.5" stroke-miterlimit="10" stroke-linecap="round" stroke-linejoin="round"/>
<path d="M427.74 131L425.28 132.517L426.659 134.137L431.889 131L435.154 134.643L436.037 132.65" stroke="#010101" stroke-width="0.5" stroke-miterlimit="10" stroke-linecap="round" stroke-linejoin="round"/>
<path d="M413.054 128.31C413.307 127.532 414.342 127.39 414.967 126.863C415.62 126.312 415.794 125.355 416.407 124.76C417.295 123.9 418.77 124.098 419.885 124.635C421 125.17 422.005 125.985 423.215 126.238C424.549 126.518 425.91 126.077 427.255 125.857C428.6 125.637 430.17 125.72 431.055 126.753C431.669 127.468 431.792 128.565 431.355 129.398C430.917 130.233 429.945 130.753 429.009 130.657C428.184 130.572 427.434 130.058 426.604 130.057C425.465 130.057 424.557 130.998 423.467 131.328C421.474 131.933 419.56 130.527 417.644 130.228C416.564 130.062 412.352 130.458 413.054 128.31Z" fill="#6BBE9D"/>
<path d="M440.509 128.318C439.534 127.88 438.857 126.607 439.434 125.707C439.974 124.862 441.265 124.777 441.83 123.948C442.195 123.415 442.16 122.718 442.22 122.075C442.279 121.432 442.532 120.7 443.145 120.5C444.28 120.132 445.257 121.9 446.412 121.602C447.407 121.345 447.597 119.767 448.602 119.557C449.342 119.402 449.964 120.105 450.34 120.76C450.717 121.415 451.142 122.185 451.889 122.3C452.694 122.423 453.594 121.71 454.262 122.175C454.777 122.533 454.782 123.408 455.355 123.665C455.914 123.917 456.5 123.375 456.819 122.852C457.139 122.33 457.499 121.695 458.11 121.655C458.899 121.603 459.37 122.578 460.129 122.8C461.254 123.128 462.279 121.687 463.434 121.885C464.214 122.018 464.66 122.828 464.994 123.545C465.732 125.133 466.489 126.845 466.202 128.573C463.135 128.175 460.027 128.278 456.937 128.382C453.88 128.485 450.824 128.588 447.767 128.692C445.72 128.762 442.434 129.183 440.509 128.318Z" fill="#6BBE9D"/>
<path d="M447.865 124.272C449.145 124.45 450.319 125.277 450.917 126.422C451.282 127.118 451.434 127.972 451.125 128.697C450.747 129.585 449.774 130.08 448.824 130.252C447.195 130.547 443.95 129.957 443.52 127.975C443.01 125.623 445.88 123.995 447.865 124.272Z" fill="#D43E47"/>
<path d="M467.287 123.365C465.882 122.933 464.287 123.172 463.069 123.995C461.85 124.818 461.033 126.21 460.91 127.673C463.108 126.57 465.383 124.923 467.287 123.365Z" fill="#D43E47"/>
<path d="M455.425 125.237C456.815 124.847 458.434 125.623 459 126.952C459.277 127.6 459.257 128.472 458.682 128.878C458.369 129.098 457.965 129.132 457.584 129.147C456.515 129.188 453.744 129.523 453.254 128.352C452.739 127.125 454.414 125.52 455.425 125.237Z" fill="#D43E47"/>
<path d="M445.792 127.808C445.72 126.887 446.303 125.95 447.163 125.608C448.023 125.267 449.09 125.547 449.67 126.265C449.95 126.612 450.124 127.067 450.054 127.508C449.925 128.313 449.027 128.808 448.212 128.777C447.397 128.745 446.653 128.325 445.948 127.917" stroke="#010101" stroke-width="0.5" stroke-miterlimit="10" stroke-linecap="round" stroke-linejoin="round"/>
<path d="M454.34 127.682C454.457 127.013 455.024 126.447 455.694 126.332C456.364 126.217 457.087 126.562 457.42 127.153" stroke="#010101" stroke-width="0.5" stroke-miterlimit="10" stroke-linecap="round" stroke-linejoin="round"/>
<path d="M462.557 126.393C462.717 125.092 464.04 124.05 465.342 124.2" stroke="#010101" stroke-width="0.5" stroke-miterlimit="10" stroke-linecap="round" stroke-linejoin="round"/>
<path d="M445.982 122.437C446.685 121.922 447.685 122.303 448.394 122.81C449.102 123.317 449.805 123.968 450.675 123.985C451.79 124.005 452.839 122.955 453.89 123.325C454.262 123.457 454.552 123.747 454.832 124.025C455.112 124.303 455.414 124.587 455.794 124.692C456.174 124.798 456.652 124.662 456.799 124.295" stroke="#010101" stroke-width="0.5" stroke-miterlimit="10" stroke-linecap="round" stroke-linejoin="round"/>
<path d="M465.052 127.588H440.997C440.598 127.588 440.277 128.037 440.277 128.592C440.277 129.145 440.598 129.595 440.997 129.595H441.87L442.878 139.553H463.47L464.479 129.595H465.052C465.45 129.595 465.772 129.147 465.772 128.592C465.772 128.038 465.45 127.588 465.052 127.588Z" fill="#F1CCBB"/>
<path d="M441.87 129.595H461.189" stroke="#010101" stroke-width="0.5" stroke-miterlimit="10" stroke-linecap="round" stroke-linejoin="round"/>
<path d="M471.482 97.9597H346.602V105.426H471.482V97.9597Z" fill="#1D1D1B"/>
<path d="M471.924 139.716H347.044V147.183H471.924V139.716Z" fill="#1D1D1B"/>
<path d="M374.427 62.8765L407.229 95.6781" stroke="#71BAE0" stroke-miterlimit="10" stroke-linecap="round" stroke-linejoin="round"/>
<path d="M394.912 62.8765L427.714 95.6781" stroke="#71BAE0" stroke-miterlimit="10" stroke-linecap="round" stroke-linejoin="round"/>
<path d="M412.472 109.822L448.6 145.95" stroke="#71BAE0" stroke-miterlimit="10" stroke-linecap="round" stroke-linejoin="round"/>
<path d="M389.942 109.822L426.07 145.95" stroke="#71BAE0" stroke-miterlimit="10" stroke-linecap="round" stroke-linejoin="round"/>
<path d="M345.285 61.0149V151.272H473.68V61.0149H345.285ZM468.595 143.487H350.372V106.143H468.595V143.487ZM468.595 101.537H350.372V64.1932H468.595V101.537Z" fill="#D43E47"/>
<path d="M216.94 135.258C216.94 140.24 192.799 143.863 176.872 143.863C160.945 143.863 144.002 141.792 144.002 136.808C144.002 135.092 146.638 130.607 149.583 132.002C152.39 133.332 153.68 127.845 157.103 127.118C161.715 126.14 164.002 128.183 172.454 125.258C178.545 123.15 188.345 129.987 194.074 127.602C197.754 126.07 203.81 131.512 207.958 131.77C212.167 132.032 216.94 133.922 216.94 135.258Z" fill="#D43E47"/>
<path d="M219.187 135.892H141.755V175.629H219.187V135.892Z" fill="#AE5F53"/>
<path d="M222.81 134.355H138.134V137.429H222.81V134.355Z" fill="#AE5F53"/>
<path d="M141.755 137.428H219.187" stroke="#010101" stroke-miterlimit="10" stroke-linecap="round" stroke-linejoin="round"/>
<path d="M307.075 137.522C307.075 142.504 282.934 146.127 267.007 146.127C251.08 146.127 234.137 144.055 234.137 139.072C234.137 137.355 236.772 132.87 239.719 134.265C242.525 135.595 243.815 130.109 247.239 129.382C251.85 128.404 254.139 130.447 262.589 127.522C268.682 125.414 278.482 132.25 284.208 129.865C287.888 128.334 293.945 133.775 298.094 134.034C302.304 134.295 307.075 136.185 307.075 137.522Z" fill="#F5F5F5"/>
<path d="M309.868 135.892H232.437V175.629H309.868V135.892Z" fill="#AE5F53"/>
<path d="M313.49 134.355H228.813V137.43H313.49V134.355Z" fill="#AE5F53"/>
<path d="M232.437 137.428H309.868" stroke="#010101" stroke-miterlimit="10" stroke-linecap="round" stroke-linejoin="round"/>
<path d="M161.347 64.04L207.414 110.47" stroke="#71BAE0" stroke-miterlimit="10" stroke-linecap="round" stroke-linejoin="round"/>
<path d="M196.154 64.04L242.22 110.47" stroke="#71BAE0" stroke-miterlimit="10" stroke-linecap="round" stroke-linejoin="round"/>
<path d="M271.199 64.04L303.454 96.5484" stroke="#71BAE0" stroke-miterlimit="10" stroke-linecap="round" stroke-linejoin="round"/>
<path d="M135.564 111.01H333.782" stroke="#F5F5F5" stroke-miterlimit="10" stroke-linecap="round" stroke-linejoin="round"/>
<path d="M333.782 61.1167H134.845H132.464H130.082V150.238H134.845V65.7367H333.782V150.238H338.545V65.7367V61.1167H333.782Z" fill="#D43E47"/>
<path d="M486.679 162.453H123.155V273.257H486.679V162.453Z" fill="#F5F5F5"/>
<path d="M215.834 201.557H198.992V218.398H215.834V201.557Z" fill="#E4E4E3" stroke="#F5F5F5" stroke-miterlimit="10"/>
<path d="M336.432 201.557H319.59V218.398H336.432V201.557Z" fill="#E4E4E3" stroke="#F5F5F5" stroke-miterlimit="10"/>
<path d="M165.259 218.378H148.417V235.22H165.259V218.378Z" fill="#E4E4E3" stroke="#F5F5F5" stroke-miterlimit="10"/>
<path d="M165.164 201.557H148.322V218.398H165.164V201.557Z" fill="#E4E4E3" stroke="#F5F5F5" stroke-miterlimit="10"/>
<path d="M198.942 201.567H182.1V218.408H198.942V201.567Z" fill="#E4E4E3" stroke="#F5F5F5" stroke-miterlimit="10"/>
<path d="M198.942 218.388H182.1V235.23H198.942V218.388Z" fill="#E4E4E3" stroke="#F5F5F5" stroke-miterlimit="10"/>
<path d="M215.834 235.407H198.992V252.248H215.834V235.407Z" fill="#E4E4E3" stroke="#F5F5F5" stroke-miterlimit="10"/>
<path d="M182.1 184.723H165.259V201.565H182.1V184.723Z" fill="#E4E4E3" stroke="#F5F5F5" stroke-miterlimit="10"/>
<path d="M165.259 235.143H148.417V251.985H165.259V235.143Z" fill="#E4E4E3" stroke="#F5F5F5" stroke-miterlimit="10"/>
<path d="M182.1 251.967H165.259V268.808H182.1V251.967Z" fill="#E4E4E3" stroke="#F5F5F5" stroke-miterlimit="10"/>
<path d="M148.419 235.143H131.575V251.985H148.419V235.143Z" fill="#E4E4E3" stroke="#F5F5F5" stroke-miterlimit="10"/>
<path d="M182.1 218.388H165.259V235.23H182.1V218.388Z" fill="#E4E4E3" stroke="#F5F5F5" stroke-miterlimit="10"/>
<path d="M316.009 218.388H299.167V235.23H316.009V218.388Z" fill="#E4E4E3" stroke="#F5F5F5" stroke-miterlimit="10"/>
<path d="M299.167 218.388H282.325V235.23H299.167V218.388Z" fill="#E4E4E3" stroke="#F5F5F5" stroke-miterlimit="10"/>
<path d="M472.785 201.557H455.944V218.398H472.785V201.557Z" fill="#E4E4E3" stroke="#F5F5F5" stroke-miterlimit="10"/>
<path d="M422.21 218.378H405.369V235.22H422.21V218.378Z" fill="#E4E4E3" stroke="#F5F5F5" stroke-miterlimit="10"/>
<path d="M422.115 201.557H405.274V218.398H422.115V201.557Z" fill="#E4E4E3" stroke="#F5F5F5" stroke-miterlimit="10"/>
<path d="M455.894 201.567H439.052V218.408H455.894V201.567Z" fill="#E4E4E3" stroke="#F5F5F5" stroke-miterlimit="10"/>
<path d="M455.894 218.388H439.052V235.23H455.894V218.388Z" fill="#E4E4E3" stroke="#F5F5F5" stroke-miterlimit="10"/>
<path d="M472.785 235.407H455.944V252.248H472.785V235.407Z" fill="#E4E4E3" stroke="#F5F5F5" stroke-miterlimit="10"/>
<path d="M439.052 184.725H422.21V201.567H439.052V184.725Z" fill="#E4E4E3" stroke="#F5F5F5" stroke-miterlimit="10"/>
<path d="M422.21 235.145H405.369V251.987H422.21V235.145Z" fill="#E4E4E3" stroke="#F5F5F5" stroke-miterlimit="10"/>
<path d="M439.052 251.967H422.21V268.808H439.052V251.967Z" fill="#E4E4E3" stroke="#F5F5F5" stroke-miterlimit="10"/>
<path d="M405.369 235.145H388.527V251.987H405.369V235.145Z" fill="#E4E4E3" stroke="#F5F5F5" stroke-miterlimit="10"/>
<path d="M439.052 218.388H422.21V235.23H439.052V218.388Z" fill="#E4E4E3" stroke="#F5F5F5" stroke-miterlimit="10"/>
<path d="M490.764 150.238H117.602V179.505H490.764V150.238Z" fill="#D43E47"/>
<path d="M117.602 171.15H490.764" stroke="#010101" stroke-miterlimit="10"/>
<path d="M486.679 179.503H123.155V187.267H486.679V179.503Z" fill="#933842"/>
<path d="M164.974 42.994C173.289 34.6785 173.289 21.1965 164.973 12.881C156.658 4.56551 143.176 4.5655 134.86 12.881C126.545 21.1965 126.545 34.6785 134.86 42.994C143.176 51.3095 156.658 51.3095 164.974 42.994Z" fill="#E7BB97"/>
<path d="M147.475 46.0884C159.235 46.0884 168.769 36.555 168.769 24.795C168.769 13.0351 159.235 3.50171 147.475 3.50171C135.715 3.50171 126.182 13.0351 126.182 24.795C126.182 36.555 135.715 46.0884 147.475 46.0884Z" fill="#932A8E"/>
<path d="M168.772 24.7952C168.772 36.5569 159.239 46.0919 147.475 46.0919C147.08 46.0919 146.687 46.0819 146.302 46.0519C157.522 45.4502 166.425 36.1635 166.425 24.7952C166.425 13.4269 157.524 4.1402 146.302 3.53854C146.687 3.50854 147.08 3.49854 147.475 3.49854C159.239 3.5002 168.772 13.0335 168.772 24.7952Z" fill="#5D1E59"/>
<path d="M146.46 42.6853C156.341 42.6853 164.35 34.6756 164.35 24.7953C164.35 14.9149 156.341 6.90527 146.46 6.90527C136.58 6.90527 128.57 14.9149 128.57 24.7953C128.57 34.6756 136.58 42.6853 146.46 42.6853Z" fill="#F1F0F8"/>
<path d="M148.117 42.6018C147.575 42.6518 147.022 42.6802 146.46 42.6802C136.58 42.6802 128.575 34.6735 128.575 24.7952C128.575 14.9168 136.582 6.91016 146.46 6.91016C147.022 6.91016 147.574 6.94016 148.117 6.98849C139.017 7.82682 131.899 15.4768 131.899 24.7952C131.899 34.1135 139.017 41.7635 148.117 42.6018Z" fill="#D1CEE7"/>
<path d="M148.697 15.0735L145.032 25.2535L149.919 34.5185" stroke="#5D1E59" stroke-width="1.6521" stroke-miterlimit="10"/>
<path d="M146.302 8.69189V12.4719" stroke="#5D1E59" stroke-miterlimit="10"/>
<path d="M146.302 36.312V40.092" stroke="#5D1E59" stroke-miterlimit="10"/>
<path d="M162.002 24.3918H158.224" stroke="#5D1E59" stroke-miterlimit="10"/>
<path d="M134.382 24.3918H130.604" stroke="#5D1E59" stroke-miterlimit="10"/>
<path d="M498.099 334.365H-1.03308V499.812H498.099V334.365Z" fill="#D3D3D3"/>
<path d="M211.365 410.455C211.365 410.455 221.822 419.94 232.277 420.582C242.732 421.223 283.019 420.582 283.019 420.582C283.019 420.582 299.717 417.683 305.919 410.282L211.365 410.455Z" fill="#CCBFBA"/>
<path d="M257.149 416.073C296.396 416.073 328.212 408.135 328.212 398.342C328.212 388.549 296.396 380.61 257.149 380.61C217.901 380.61 186.085 388.549 186.085 398.342C186.085 408.135 217.901 416.073 257.149 416.073Z" fill="white"/>
<path d="M257.605 412.647C288.47 412.647 313.49 407.531 313.49 401.22C313.49 394.909 288.47 389.793 257.605 389.793C226.741 389.793 201.72 394.909 201.72 401.22C201.72 407.531 226.741 412.647 257.605 412.647Z" fill="#E5E5E5"/>
<path d="M170.189 343.27L156.942 355.997C156.942 355.997 181.35 375.375 187.1 381.528C187.1 381.528 190.119 379.229 194.829 381.222C199.539 383.215 205.119 385.247 205.105 386.903C205.094 388.56 199.947 392.237 196.379 389.299L197.05 389.929C197.05 389.929 190.547 393.26 190.309 397.937C190.309 397.937 188.979 403.129 199.709 408.142C199.709 408.142 203.444 409.877 206.669 410.82L206.37 413.73C205.35 416.072 201.722 415.573 201.722 415.573C202.7 419.717 200.009 418.945 200.009 418.945C200.009 418.945 194.259 416.032 189.059 411.278C183.859 406.525 184.594 395.943 184.594 395.943C173.95 391.705 154.742 381.988 154.742 381.988C119.994 360.367 124.184 349.019 124.184 349.019L155.122 324.073C155.122 324.073 167.624 339.629 170.189 343.27Z" fill="url(#paint0_linear_1_7369)"/>
<path d="M201.72 415.573C201.72 415.573 191.357 407.955 190.832 403.61" stroke="black" stroke-width="0.5" stroke-miterlimit="10"/>
<path d="M188.045 393.772C190.927 394.087 194.3 390.725 194.3 390.725C194.3 390.725 198.484 394.068 203.182 388.673" stroke="black" stroke-width="0.5" stroke-miterlimit="10"/>
<path d="M345.022 343.27L361.847 354.693C361.847 354.693 333.859 375.375 328.11 381.528C328.11 381.528 325.092 379.228 320.382 381.222C315.672 383.215 310.092 385.247 310.105 386.903C310.119 388.56 315.264 392.237 318.832 389.298L318.16 389.928C318.16 389.928 324.664 393.26 324.902 397.937C324.902 397.937 326.232 403.128 315.502 408.142C315.502 408.142 311.767 409.877 308.542 410.82L308.84 413.73C309.86 416.072 313.489 415.573 313.489 415.573C312.51 419.717 315.202 418.945 315.202 418.945C315.202 418.945 320.952 416.032 326.152 411.278C331.352 406.525 330.617 395.943 330.617 395.943C341.26 391.705 360.469 381.988 360.469 381.988C395.214 360.367 392.597 346.053 392.597 346.053L360.085 324.072C360.089 324.073 347.087 339.512 345.022 343.27Z" fill="url(#paint1_linear_1_7369)"/>
<path d="M313.49 415.573C313.49 415.573 323.854 407.955 324.379 403.61" stroke="black" stroke-width="0.5" stroke-miterlimit="10"/>
<path d="M326.412 393.772C323.53 394.087 320.157 390.725 320.157 390.725" stroke="black" stroke-width="0.5" stroke-miterlimit="10"/>
<path d="M289.254 406.21C297.889 406.21 304.889 401.454 304.889 395.587C304.889 389.72 297.889 384.963 289.254 384.963C280.619 384.963 273.619 389.72 273.619 395.587C273.619 401.454 280.619 406.21 289.254 406.21Z" fill="#F58F87"/>
<path d="M272.557 406.21C276.875 406.21 280.375 403.832 280.375 400.898C280.375 397.965 276.875 395.587 272.557 395.587C268.239 395.587 264.739 397.965 264.739 400.898C264.739 403.832 268.239 406.21 272.557 406.21Z" fill="#83A068"/>
<path d="M267.704 406.21C272.022 406.21 275.522 403.832 275.522 400.898C275.522 397.965 272.022 395.587 267.704 395.587C263.386 395.587 259.885 397.965 259.885 400.898C259.885 403.832 263.386 406.21 267.704 406.21Z" fill="#F9A029"/>
<path d="M264.062 406.532C268.38 406.532 271.88 404.154 271.88 401.22C271.88 398.287 268.38 395.908 264.062 395.908C259.744 395.908 256.244 398.287 256.244 401.22C256.244 404.154 259.744 406.532 264.062 406.532Z" fill="#83A068"/>
<path d="M215.792 398.342C215.792 398.342 216.164 392.079 219.12 392.935C222.075 393.792 219.384 384.515 225.367 385.713C231.352 386.91 228.21 382.422 234.942 383.17C241.675 383.918 249.005 382.86 251.699 386.905C254.392 390.95 259.959 393.343 261.439 393.195C262.919 393.047 264.415 399.03 263.517 400.9C262.619 402.77 265.562 405.208 259.527 406.533C253.492 407.858 253.344 408.007 249.304 408.307C245.264 408.607 241.075 409.504 236.287 408.307C231.499 407.11 230.602 408.007 219.08 406.212C207.559 404.417 209.654 404.162 212.199 401.222C214.744 398.28 212.35 396.905 215.792 398.342Z" fill="url(#paint2_linear_1_7369)"/>
<path d="M226.947 282.137C226.947 282.137 226.52 317.677 252.919 317.133C293.73 316.293 270.847 281.35 270.847 281.35L226.947 282.137Z" fill="url(#paint3_linear_1_7369)"/>
<path d="M268.629 280.37C268.629 280.37 267.674 281.393 278.332 280.37C288.99 279.347 307.995 276.12 315.517 285.488C322.722 294.465 365.584 319.738 365.584 319.738C365.584 319.738 341.667 344.237 339.535 355.338L304.924 335.487C269.145 333.4 202.94 336.233 202.94 336.233L175.232 362.965C173.1 351.863 148.232 323.282 148.232 323.282C148.232 323.282 186.127 295.645 194.115 286.67C202.102 277.693 217.155 279.348 227.814 280.372C238.472 281.395 237.517 280.372 237.517 280.372C237.517 280.372 228.592 299.597 239.454 310.732C239.454 310.732 248.527 319.403 259.882 316.423C271.237 313.442 274.56 302.385 274.887 300.123C275.214 297.862 276.524 288.638 268.629 280.37Z" fill="#BD2143"/>
<path d="M196.164 236.995C196.164 236.995 196.187 254.063 208.639 256.962C208.639 256.962 205.722 245.778 205.722 239.793C205.722 239.793 204.019 240.705 201.997 240.88L200.007 228.935L196.164 236.995Z" fill="url(#paint4_linear_1_7369)"/>
<path d="M295.884 252.215C295.884 252.215 311.945 243.884 305.102 222.874C305.102 222.874 301.342 228.42 297.564 230.624C297.562 230.624 298.029 243.835 295.884 252.215Z" fill="url(#paint5_linear_1_7369)"/>
<path d="M297.56 231.56C297.56 231.56 301.309 290.412 254.077 291.537C206.845 292.662 205.722 240.182 205.722 240.182V203.447H297.63L297.56 231.56Z" fill="url(#paint6_linear_1_7369)"/>
<path d="M309.279 214.233V214.235C305.505 225.857 297.562 230.623 297.562 230.623L297.575 225.843C292.29 224.73 280.734 203.777 280.554 203.45C285.33 220.128 285.189 227.81 285.189 227.81C266.635 229.498 240.769 203.447 240.769 203.447H238.802C219.404 239.243 201.995 240.882 201.995 240.882L200.004 228.937L196.162 236.997C190.259 229.687 185.29 213.568 187.072 203.447C189.199 191.353 209.562 156.403 251.675 155.84C257.194 155.767 262.257 156.247 266.889 157.142C291.465 161.877 303.909 178.183 307.9 184.51C308.875 186.055 309.565 187.762 309.939 189.55C312.115 199.925 311.289 208.05 309.279 214.233Z" fill="black"/>
<path d="M240.499 221.913C240.499 221.913 245.882 226.448 242.849 232.195C239.815 237.942 212.72 235.395 212.72 235.395C212.72 235.395 208.227 226.135 240.499 221.913Z" fill="black"/>
<path d="M267.892 221.913C267.892 221.913 262.509 226.448 265.542 232.195C268.575 237.942 295.67 235.395 295.67 235.395C295.67 235.395 300.164 226.135 267.892 221.913Z" fill="black"/>
<path d="M232.337 252.215C233.811 252.215 235.007 250.141 235.007 247.582C235.007 245.023 233.811 242.948 232.337 242.948C230.862 242.948 229.667 245.023 229.667 247.582C229.667 250.141 230.862 252.215 232.337 252.215Z" fill="black"/>
<path d="M274.085 252.215C275.56 252.215 276.755 250.141 276.755 247.582C276.755 245.023 275.56 242.948 274.085 242.948C272.611 242.948 271.415 245.023 271.415 247.582C271.415 250.141 272.611 252.215 274.085 252.215Z" fill="black"/>
<path d="M252.812 249.655C251.175 252.067 248.51 256.995 249.065 262.895C249.132 263.61 249.62 264.214 250.3 264.444C251.982 265.012 255.422 265.71 259.347 263.882C260.034 263.562 260.45 262.85 260.395 262.095C260.205 259.482 259.36 253.24 255.6 249.4C254.804 248.587 253.452 248.714 252.812 249.655Z" fill="#EF8981"/>
<path d="M309.279 214.233C309.187 175.638 266.889 157.14 266.889 157.14H266.89C291.467 161.875 303.91 178.182 307.902 184.508C308.877 186.053 309.567 187.76 309.94 189.548C312.115 199.925 311.289 208.05 309.279 214.233Z" fill="#EFF3C3"/>
</g>
</g>
<defs>
<linearGradient id="paint0_linear_1_7369" x1="241.134" y1="499.092" x2="129.737" y2="311.282" gradientUnits="userSpaceOnUse">
<stop offset="0.6882" stop-color="#FABCA8"/>
<stop offset="1" stop-color="#F58F87"/>
</linearGradient>
<linearGradient id="paint1_linear_1_7369" x1="371.754" y1="409.987" x2="326.722" y2="345.656" gradientUnits="userSpaceOnUse">
<stop offset="0.6882" stop-color="#FABCA8"/>
<stop offset="1" stop-color="#F58F87"/>
</linearGradient>
<linearGradient id="paint2_linear_1_7369" x1="238.878" y1="418.546" x2="236.41" y2="395.879" gradientUnits="userSpaceOnUse">
<stop stop-color="#FBB040"/>
<stop offset="1" stop-color="#F9F8D5"/>
</linearGradient>
<linearGradient id="paint3_linear_1_7369" x1="252.391" y1="323.59" x2="252.051" y2="286.369" gradientUnits="userSpaceOnUse">
<stop offset="0.6129" stop-color="#F8BBA8"/>
<stop offset="0.9071" stop-color="#EF8981"/>
</linearGradient>
<linearGradient id="paint4_linear_1_7369" x1="196.163" y1="242.949" x2="208.639" y2="242.949" gradientUnits="userSpaceOnUse">
<stop offset="0.6129" stop-color="#F8BBA8"/>
<stop offset="0.9088" stop-color="#EF8981"/>
</linearGradient>
<linearGradient id="paint5_linear_1_7369" x1="326.29" y1="233.968" x2="288.43" y2="239.216" gradientUnits="userSpaceOnUse">
<stop offset="0.6129" stop-color="#F8BBA8"/>
<stop offset="0.9088" stop-color="#EF8981"/>
</linearGradient>
<linearGradient id="paint6_linear_1_7369" x1="259.752" y1="328.636" x2="250.381" y2="204.935" gradientUnits="userSpaceOnUse">
<stop offset="0.6129" stop-color="#F8BBA8"/>
<stop offset="0.9071" stop-color="#EF8981"/>
</linearGradient>
<clipPath id="clip0_1_7369">
<rect width="500" height="500" rx="250" fill="white"/>
</clipPath>
<clipPath id="clip1_1_7369">
<rect width="500" height="500" fill="white" transform="translate(-1.03308)"/>
</clipPath>
</defs>
</svg>
