<svg width="500" height="500" viewBox="0 0 500 500" fill="none" xmlns="http://www.w3.org/2000/svg">
<g clip-path="url(#clip0_1_6891)">
<rect width="500" height="500" rx="250" fill="white"/>
<path d="M142.588 332.806L142.352 333.042C139.162 326.073 137.154 318.158 136.327 309.417C137.154 318.04 139.399 325.837 142.588 332.806Z" fill="#DFDFDF"/>
<path d="M218.423 230.864C233.95 230.864 246.537 218.276 246.537 202.749C246.537 187.222 233.95 174.635 218.423 174.635C202.896 174.635 190.309 187.222 190.309 202.749C190.309 218.276 202.896 230.864 218.423 230.864Z" fill="#DFDFDF"/>
<path d="M303.357 131.876H204.366C161.368 131.876 135.734 157.51 135.734 200.508V299.499C135.734 312.375 137.979 323.597 142.349 333.047C152.508 355.491 174.244 368.131 204.366 368.131H303.357C346.355 368.131 371.988 342.497 371.988 299.499V272.448V200.508C371.988 157.51 346.355 131.876 303.357 131.876ZM352.734 255.91C343.52 247.995 328.636 247.995 319.422 255.91L270.281 298.081C261.067 305.996 246.183 305.996 236.969 298.081L232.953 294.774C224.566 287.45 211.217 286.741 201.767 293.12L157.588 322.77C154.989 316.155 153.453 308.476 153.453 299.499V200.508C153.453 167.196 171.054 149.595 204.366 149.595H303.357C336.668 149.595 354.269 167.196 354.269 200.508V257.209L352.734 255.91Z" fill="#DFDFDF"/>
<g clip-path="url(#clip1_1_6891)">
<path d="M839.068 339.879L1276.52 667.148H-782.813L-345.363 339.879H839.068Z" fill="#A2BD30"/>
<path d="M774.503 361.465L1113.9 645.567H-625.66L-286.253 361.465H774.503ZM1103.54 641.738L772.658 362.905H-284.412L-615.29 641.731L1103.54 641.738Z" fill="white"/>
<path d="M261.317 361.94L272.242 644.302H266.43L257.767 361.94H261.317Z" fill="white"/>
<path d="M357.067 437.755C362.713 463.764 321.143 486.924 263.875 486.922C206.598 486.922 163.422 463.762 167.267 437.755C170.76 414.11 212.563 396.406 260.734 396.406C308.902 396.406 351.937 414.112 357.067 437.755ZM171.421 437.755C167.955 462.568 209.25 484.578 263.796 484.578C318.334 484.582 358.105 462.577 352.917 437.755C348.179 415.101 307.017 398.078 260.797 398.078C214.573 398.076 174.588 415.096 171.421 437.755Z" fill="white"/>
<path d="M527.91 -48.6389H-24.7796V340.752H527.91V-48.6389Z" fill="url(#paint0_linear_1_6891)"/>
<path d="M252.502 236.892L303.857 185.571H300.118L252.502 233.143V236.892Z" fill="#606060"/>
<path d="M252.502 265.142L332.105 185.571H328.361L252.502 261.398V265.142Z" fill="#606060"/>
<path d="M252.502 293.405L360.355 185.571H356.636L252.502 289.666V293.405Z" fill="#606060"/>
<path d="M252.502 321.64L388.603 185.571H384.848L252.502 317.896V321.64Z" fill="#606060"/>
<path d="M261.084 341.333L416.847 185.571H413.109L257.359 341.333H261.084Z" fill="#606060"/>
<path d="M289.334 341.333L445.083 185.571H441.351L285.602 341.333H289.334Z" fill="#606060"/>
<path d="M317.582 341.333L473.345 185.571H469.614L313.837 341.333H317.582Z" fill="#606060"/>
<path d="M345.837 341.333L501.626 185.571H497.838L342.1 341.333H345.837Z" fill="#606060"/>
<path d="M374.061 341.333L529.825 185.571H526.111L370.33 341.333H374.061Z" fill="#606060"/>
<path d="M402.349 341.333L558.111 185.571H554.331L398.58 341.333H402.349Z" fill="#606060"/>
<path d="M430.572 341.333L586.361 185.571H582.579L426.817 341.333H430.572Z" fill="#606060"/>
<path d="M458.816 341.333L614.603 185.571H610.866L455.09 341.333H458.816Z" fill="#606060"/>
<path d="M487.077 341.333L642.84 185.571H639.096L483.333 341.333H487.077Z" fill="#606060"/>
<path d="M639.944 341.333L484.168 185.571H480.424L636.206 341.333H639.944Z" fill="#606060"/>
<path d="M613.517 341.333L457.753 185.571H453.997L609.791 341.333H613.517Z" fill="#606060"/>
<path d="M587.115 341.333L431.339 185.571H427.582L583.345 341.333H587.115Z" fill="#606060"/>
<path d="M560.688 341.333L404.911 185.571H401.18L556.943 341.333H560.688Z" fill="#606060"/>
<path d="M534.273 341.333L378.509 185.571H374.752L530.503 341.333H534.273Z" fill="#606060"/>
<path d="M507.833 341.333L352.082 185.571H348.338L504.114 341.333H507.833Z" fill="#606060"/>
<path d="M481.424 341.333L325.66 185.571H321.898L477.687 341.333H481.424Z" fill="#606060"/>
<path d="M454.984 341.333L299.245 185.571H295.496L451.257 341.333H454.984Z" fill="#606060"/>
<path d="M428.594 341.333L272.818 185.571H269.061L424.843 341.333H428.594Z" fill="#606060"/>
<path d="M398.428 341.333H402.165L250.555 189.729C251.454 191.281 252.056 193.134 252.327 195.245L398.428 341.333Z" fill="#606060"/>
<path d="M375.739 341.333L252.502 218.11V221.872L372.013 341.333H375.739Z" fill="#606060"/>
<path d="M349.335 341.333L252.502 244.538V248.282L345.581 341.333H349.335Z" fill="#606060"/>
<path d="M322.908 341.333L252.502 270.965V274.722L319.178 341.333H322.908Z" fill="#606060"/>
<path d="M296.493 341.333L252.502 297.367V301.111L292.726 341.333H296.493Z" fill="#606060"/>
<path d="M674.053 182.989H256.585V194.103H674.053V182.989Z" fill="url(#paint1_linear_1_6891)"/>
<path d="M-134.982 341.333L20.7925 185.571H17.0177L-138.733 341.333H-134.982Z" fill="#606060"/>
<path d="M-106.721 341.333L49.0297 185.571H45.291L-110.496 341.333H-106.721Z" fill="#606060"/>
<path d="M-78.4842 341.333L77.2921 185.571H73.548L-82.2536 341.333H-78.4842Z" fill="#606060"/>
<path d="M-50.2416 341.333L105.515 185.571H101.796L-53.9659 341.333H-50.2416Z" fill="#606060"/>
<path d="M-21.9665 341.333L133.783 185.571H130.046L-25.7305 341.333H-21.9665Z" fill="#606060"/>
<path d="M6.25622 341.333L162.02 185.571H158.276L2.51207 341.333H6.25622Z" fill="#606060"/>
<path d="M34.506 341.333L190.282 185.571H186.538L30.7619 341.333H34.506Z" fill="#606060"/>
<path d="M62.736 341.333L218.512 185.571H214.774L59.0117 341.333H62.736Z" fill="#606060"/>
<path d="M91.011 341.333L244.851 187.498L242.973 185.615L87.2416 341.333H91.011Z" fill="#606060"/>
<path d="M119.272 341.333L254.104 206.502V202.771L115.491 341.333H119.272Z" fill="#606060"/>
<path d="M147.516 341.333L254.104 234.75V231.006L143.739 341.333H147.516Z" fill="#606060"/>
<path d="M175.751 341.333L254.104 263V259.249L171.982 341.333H175.751Z" fill="#606060"/>
<path d="M204.014 341.333L254.104 291.243V287.506L200.27 341.333H204.014Z" fill="#606060"/>
<path d="M254.104 221.29L218.361 185.571H214.611L254.104 225.039V221.29Z" fill="#606060"/>
<path d="M254.104 247.717L191.959 185.571H188.202L254.104 251.448V247.717Z" fill="#606060"/>
<path d="M254.104 274.137L165.544 185.571H161.8L254.104 277.888V274.137Z" fill="#606060"/>
<path d="M254.104 300.552L139.086 185.571H135.36L254.104 304.29V300.552Z" fill="#606060"/>
<path d="M254.104 326.954L112.682 185.571H108.945L254.104 330.723V326.954Z" fill="#606060"/>
<path d="M242.062 341.333L86.2799 185.571H82.5303L238.281 341.333H242.062Z" fill="#606060"/>
<path d="M215.616 341.333L59.8399 185.571H56.1282L211.878 341.333H215.616Z" fill="#606060"/>
<path d="M189.214 341.333L33.4252 185.571H29.6882L185.475 341.333H189.214Z" fill="#606060"/>
<path d="M162.762 341.333L7.01046 185.571H3.28616L159.048 341.333H162.762Z" fill="#606060"/>
<path d="M136.359 341.333L-19.4043 185.571H-23.1484L132.646 341.333H136.359Z" fill="#606060"/>
<path d="M109.957 341.333L-45.8316 185.571H-49.5758L106.206 341.333H109.957Z" fill="#606060"/>
<path d="M83.5282 341.333L-72.2337 185.571H-75.9905L79.7858 341.333H83.5282Z" fill="#606060"/>
<path d="M57.1008 341.333L-98.6484 185.571H-102.405L53.3585 341.333H57.1008Z" fill="#606060"/>
<path d="M30.6861 341.333L-125.088 185.571H-128.833L26.9546 341.333H30.6861Z" fill="#606060"/>
<path d="M4.284 341.333L-151.491 185.571H-155.26L0.514587 341.333H4.284Z" fill="#606060"/>
<path d="M259.727 182.329H248.633V342.708H259.727V182.329Z" fill="url(#paint2_linear_1_6891)"/>
<path d="M249.709 182.989H-167.698V194.103H249.709V182.989Z" fill="url(#paint3_linear_1_6891)"/>
<path opacity="0.25" d="M343.833 401.205C413.342 401.205 469.69 391.511 469.69 379.553C469.69 367.594 413.342 357.9 343.833 357.9C274.323 357.9 217.975 367.594 217.975 379.553C217.975 391.511 274.323 401.205 343.833 401.205Z" fill="#231F20"/>
<path d="M304.06 339.695L250.716 311.535L250.608 311.478L250.518 311.431C250.518 311.431 246.927 311.05 238.704 317.497C230.48 323.942 223.948 315.929 223.948 315.929L245.195 297.041L254.377 301.034L254.617 301.138L292.232 317.497L326.741 328.28C330.457 346.129 304.06 339.695 304.06 339.695Z" fill="url(#paint4_linear_1_6891)"/>
<path d="M445.715 373.535L417.492 386.613L412.712 378.569L411.72 376.898L391.292 342.515C391.292 342.515 369.573 313.659 369.603 313.591C377.025 296.936 394.677 317.591 394.677 317.591L421.016 370.682L421.585 371.828L421.586 371.824L421.599 371.801L421.624 371.756C421.954 371.2 424.445 367.629 434.067 367.239C444.508 366.817 445.715 373.535 445.715 373.535Z" fill="url(#paint5_linear_1_6891)"/>
<path d="M399.993 322.932C399.993 322.932 383.99 330.954 371.22 333.012C367.604 333.593 364.249 333.695 361.59 333.006L361.469 332.371L354.693 296.952L354.664 296.804L331.37 333.791C331.37 333.791 311.03 330.043 302.833 324.98L319.953 260.281L374.97 266.111L399.993 322.932Z" fill="#F1CAAA"/>
<path d="M356.287 200.676C356.287 200.676 363.318 204.581 362.266 208.767C362.189 209.074 351.519 218.955 337.541 224.191C323.562 229.428 319.022 227.865 319.022 227.865L319.291 201.973C319.291 201.973 336.877 192.876 356.287 200.676Z" fill="#9B1E45"/>
<path d="M369.347 200.835L369.342 200.83L354.39 197.612C333.452 203.536 325.953 238.092 325.953 238.092L320.314 260.463C326.422 270.108 342.014 274.126 342.014 274.126C372.073 282.968 374.805 275.895 374.805 275.895C378.342 270.911 374.966 263.356 374.966 263.356C374.484 254.514 378.021 242.943 378.021 242.943C378.021 242.943 378.033 242.973 378.037 242.961C383.575 218.051 369.347 200.835 369.347 200.835Z" fill="#BD2043"/>
<path d="M371.22 333.011C367.604 333.592 364.249 333.695 361.59 333.006L361.469 332.371C361.325 332.378 361.18 332.389 361.034 332.396L354.665 296.961L354.693 296.952L354.823 296.961L370.944 331.294L371.22 333.011Z" fill="#CEAA86"/>
<path d="M328.219 268.065L311.003 328.425C311.003 328.425 291.182 321.7 289.816 320.415L319.951 260.283L328.219 268.065Z" fill="#CEAA86"/>
<path d="M359.957 186.618C359.957 186.618 351.869 184.801 352.496 174.503C352.658 171.853 353.797 169.334 355.794 167.585C358.013 165.644 361.496 164.375 366.209 167.912L366.413 151.497C366.413 151.497 397.086 131.42 406.783 152.722C406.783 152.722 411.74 164.251 411.092 172.576L410.545 181.371C410.545 181.371 410.451 196.779 397.299 200.287C384.147 203.796 373.775 199.007 373.775 199.007L370.081 197.282C370.081 197.282 368.946 201.856 369.652 202.849C370.359 203.841 374.906 208.583 370.908 217.309C370.908 217.309 365.736 222.524 356.346 207.537C356.346 207.537 353.123 200.231 355.41 197.19C355.41 197.19 360.706 194.314 360.532 192.051L359.957 186.618Z" fill="url(#paint6_linear_1_6891)"/>
<path d="M414.93 150.041C413.838 155.42 409.096 158.866 409.004 158.933C409.002 158.935 409.002 158.935 409.002 158.935C408.995 158.911 408.988 158.884 408.981 158.861C408.524 157.217 408.015 155.754 407.47 154.449C405.668 150.135 403.485 147.562 401.61 146.035C399.257 144.113 397.391 143.845 397.391 143.845C393.898 150.82 380.408 159.429 380.408 159.429L378.508 151.928C379.12 163.976 368.64 174.673 368.475 174.839C369.434 171.466 366.207 167.912 366.207 167.912C364.002 166.369 362.34 165.9 361.516 165.756C361.505 165.754 361.492 165.75 361.483 165.75C361.162 165.696 360.976 165.694 360.94 165.692C360.935 165.692 360.933 165.692 360.933 165.692C359.401 165.712 358.147 166.066 357.118 166.622C357.111 166.625 357.104 166.629 357.099 166.632C355.962 167.248 355.103 168.108 354.455 169.032C354.435 169.058 354.419 169.083 354.399 169.11C352.88 171.32 352.553 173.85 352.514 174.216C352.51 174.245 352.51 174.262 352.51 174.262C352.095 184.987 361.568 186.14 361.568 186.14C361.144 189.316 361.465 191.564 361.528 191.957C361.534 191.997 360.529 192.051 360.529 192.051C351.339 192.666 344.387 184.142 341.57 180.001C341.57 180.001 341.57 180.001 341.57 180C340.675 178.686 340.199 177.811 340.199 177.811C336.934 172.203 335.617 166.921 335.426 162.204C335.426 162.204 335.426 162.204 335.426 162.203C334.921 149.561 342.517 140.968 342.517 140.968C348.107 134.996 354.293 131.246 360.466 128.998C363.73 127.809 366.994 127.04 370.161 126.584C370.163 126.584 370.166 126.582 370.168 126.584C370.567 126.526 370.966 126.474 371.361 126.427C386.592 124.59 399.347 129.781 399.347 129.781C413.508 137.489 416.009 144.714 414.93 150.041Z" fill="#231F20"/>
<path d="M406.227 149.783C406.227 149.783 409.52 153.197 407.088 156.836C404.656 160.478 386.673 156.889 386.673 156.889C386.673 156.889 384.306 150.371 406.227 149.783Z" fill="#231F20"/>
<path d="M412.353 178.805C414.304 178.466 415.035 177.618 415.035 177.618C416.904 173.502 411.242 170.155 411.119 170.081C411.117 170.081 411.117 170.081 411.117 170.081C411.117 170.081 407.38 171.124 407.633 175.645C407.884 180.169 412.353 178.805 412.353 178.805Z" fill="#EE8780"/>
<path d="M397.039 169.611C397.175 167.89 396.426 166.428 395.367 166.345C394.308 166.261 393.34 167.589 393.204 169.309C393.069 171.03 393.818 172.492 394.877 172.576C395.936 172.659 396.904 171.331 397.039 169.611Z" fill="#231F20"/>
<path d="M370.081 197.282C370.081 197.282 367.285 197.053 364.428 191.596C364.428 191.596 366.085 201.495 369.652 202.849L370.081 197.282Z" fill="#EE8780"/>
<path d="M360.471 128.998C338.253 149.373 341.545 179.74 341.575 179.999C340.68 178.686 340.204 177.811 340.204 177.811C336.94 172.203 335.623 166.921 335.431 162.204C335.431 162.204 335.431 162.204 335.431 162.203C334.926 149.561 342.523 140.968 342.523 140.968C348.111 134.994 354.296 131.246 360.471 128.998Z" fill="#3A3A3A"/>
<path d="M390.677 189.566C391.556 192.064 395.863 192.919 399.76 191.605C401.319 191.08 402.009 190.709 402.848 189.572C402.848 189.572 403.595 188.269 403.634 188.17C403.95 187.369 403.762 187.206 402.811 186.993C400.307 186.436 393.272 184.875 392.075 185.048C390.908 185.216 389.928 185.77 390.209 187.775C390.282 188.278 390.431 188.868 390.677 189.566Z" fill="#231F20"/>
<path d="M390.679 189.548C391.543 192.051 395.818 193.148 400.053 191.504C399.01 188.175 391.971 187.742 390.222 187.757C390.289 188.257 390.437 188.848 390.679 189.548Z" fill="#B62325"/>
<path d="M391.662 231.329L371.523 241.093L368.364 242.625C368.364 242.625 352.384 230.936 350.716 210.083C350.716 210.083 350.895 206.124 352.461 203.444C353.125 202.307 354.038 201.4 355.294 201.124C355.605 201.057 369.204 206.207 380.121 216.387C391.038 226.568 391.662 231.329 391.662 231.329Z" fill="#BD2043"/>
<path d="M389.381 231.602L396.184 240.166L430.298 231.602C430.298 231.602 431.675 223.383 431.045 223.54C430.415 223.697 444.598 219.917 445.525 223.697C446.453 227.477 449.584 234.058 441.59 236.131C433.596 238.204 409.324 251.241 390.91 253.444L376.103 238.04L389.381 231.602Z" fill="url(#paint7_linear_1_6891)"/>
<path d="M319.381 220.521L308.65 222.634L300.599 256.875C300.599 256.875 307.27 261.871 307.42 261.239C307.569 260.608 304.417 274.942 300.633 274.033C296.849 273.121 289.565 272.883 291.393 264.83C293.221 256.777 292.779 229.229 299.275 211.856L319.756 205.772L319.381 220.521Z" fill="url(#paint8_linear_1_6891)"/>
<path d="M254.377 301.034L250.716 311.535L250.608 311.478L250.518 311.431C250.518 311.431 246.927 311.05 238.704 317.497C230.48 323.942 223.948 315.929 223.948 315.929L245.195 297.041L254.377 301.034Z" fill="white"/>
<path d="M245.195 297.041L243.417 295.467L221.945 314.414L223.948 315.929L245.195 297.041Z" fill="black"/>
<path d="M445.715 373.535L417.492 386.613L412.712 378.569C413.351 378.136 413.934 377.748 413.934 377.748L421.585 371.828L421.586 371.824L421.599 371.801L421.624 371.756C421.954 371.2 424.445 367.629 434.067 367.239C444.508 366.817 445.715 373.535 445.715 373.535Z" fill="white"/>
<path d="M417.492 386.613L445.715 373.535L446.594 375.222L418.445 388.575L417.492 386.613Z" fill="black"/>
<path d="M353.759 296.606C353.759 296.606 358.838 300.283 362.165 278.715L356.992 277.456L353.759 296.606Z" stroke="#CEAA86" stroke-width="0.5" stroke-miterlimit="10"/>
<path d="M371.523 241.093L368.364 242.625C368.364 242.625 352.384 230.936 350.716 210.083C350.716 210.083 350.895 206.124 352.461 203.444C352.461 203.444 359.354 231.627 371.523 241.093Z" fill="#9B1E45"/>
<path opacity="0.25" d="M126.7 464.354C196.21 464.354 252.558 454.66 252.558 442.701C252.558 430.743 196.21 421.048 126.7 421.048C57.1913 421.048 0.842979 430.743 0.842979 442.701C0.842979 454.66 57.1913 464.354 126.7 464.354Z" fill="#231F20"/>
<path opacity="0.25" d="M269.339 451.543C285.284 451.543 298.209 446.009 298.209 439.182C298.209 432.356 285.284 426.822 269.339 426.822C253.394 426.822 240.468 432.356 240.468 439.182C240.468 446.009 253.394 451.543 269.339 451.543Z" fill="#231F20"/>
<path d="M98.8061 401.927L45.3541 373.71L45.2639 373.663C45.2639 373.663 41.6713 373.282 33.4504 379.729C25.2259 386.176 18.694 378.161 18.694 378.161L39.9427 359.274L49.3635 363.372L86.98 379.731C86.98 379.731 121.473 390.44 121.489 390.514C125.203 408.362 98.8061 401.927 98.8061 401.927Z" fill="url(#paint9_linear_1_6891)"/>
<path d="M123.711 279.408L104.907 281.887L87.2055 315.647C87.2055 315.647 92.4221 322.147 92.7252 321.571C93.0284 320.996 86.4062 334.096 82.967 332.271C79.5278 330.447 72.5339 328.403 76.3087 321.057C80.0835 313.713 86.5145 286.921 97.1298 271.714L126.756 264.285L123.711 279.408Z" fill="url(#paint10_linear_1_6891)"/>
<path d="M240.461 435.767L212.237 448.845L206.464 439.13L186.037 404.747C186.037 404.747 164.317 375.891 164.348 375.823C171.771 359.168 189.422 379.821 189.422 379.821L215.762 432.912L216.331 434.058C216.331 434.058 218.373 429.892 228.814 429.469C239.254 429.049 240.461 435.767 240.461 435.767Z" fill="url(#paint11_linear_1_6891)"/>
<path d="M194.737 385.164C194.737 385.164 178.734 393.186 165.964 395.243C162.348 395.824 158.994 395.927 156.334 395.238L156.213 394.603L149.438 359.184L149.409 359.036L126.114 396.023C126.114 396.023 105.775 392.275 97.5773 387.212L114.698 322.513L169.714 328.343L194.737 385.164Z" fill="#BD2043"/>
<path d="M151.103 265.073C151.103 265.073 158.135 268.978 157.083 273.164C157.005 273.471 146.336 283.352 132.357 288.588C118.378 293.825 113.839 292.262 113.839 292.262L114.107 266.371C114.106 266.371 131.693 257.273 151.103 265.073Z" fill="white"/>
<path d="M163.73 262.886L163.725 262.881L148.774 259.664C127.835 265.588 120.336 300.144 120.336 300.144L114.697 322.515C120.805 332.16 136.397 336.178 136.397 336.178C166.457 345.019 169.189 337.946 169.189 337.946C172.725 332.962 169.349 325.407 169.349 325.407C168.868 316.566 172.404 304.994 172.404 304.994C172.404 304.994 172.417 305.025 172.421 305.012C177.96 280.102 163.73 262.886 163.73 262.886Z" fill="#145677"/>
<path d="M165.964 395.243C162.348 395.824 158.994 395.927 156.334 395.238L156.213 394.603C156.069 394.61 155.925 394.621 155.778 394.628L149.409 359.193L149.438 359.184L149.568 359.193L165.688 393.526L165.964 395.243Z" fill="#9B1E45"/>
<path d="M122.963 330.297L105.748 390.657C105.748 390.657 85.9262 383.931 84.5603 382.647L114.696 322.515L122.963 330.297Z" fill="#9B1E45"/>
<path d="M145.473 262.504C149.371 274.323 167.657 279.705 166.415 271.751C165.17 263.798 160.766 262.455 160.766 262.455C159.725 260.707 160.899 254.034 160.899 254.034C160.899 254.034 171.327 258.832 184.539 255.288C197.749 251.746 197.823 236.264 197.823 236.264C199.811 236.324 200.701 235.636 200.701 235.636C203.37 231.961 198.469 227.525 198.362 227.428C198.361 227.426 198.361 227.426 198.361 227.426C199.001 219.061 194.005 207.482 194.005 207.482C184.232 186.089 153.438 206.306 153.438 206.306L153.256 222.8C148.514 219.252 145.017 220.532 142.79 222.486C140.786 224.247 139.643 226.778 139.485 229.442C138.869 239.792 146.998 241.605 146.998 241.605C152.029 253.339 145.473 262.504 145.473 262.504Z" fill="url(#paint12_linear_1_6891)"/>
<path d="M127.135 232.78C127.135 232.78 136.432 247.861 148.597 247.029C148.597 247.029 148.591 247.008 148.586 246.968C148.521 246.573 148.196 244.314 148.617 241.124C148.617 241.124 139.097 239.978 139.499 229.2C139.499 229.2 139.501 229.184 139.503 229.153C139.542 228.785 139.867 226.241 141.39 224.02C141.408 223.993 141.426 223.967 141.446 223.942C142.096 223.015 142.956 222.148 144.099 221.528C144.104 221.524 144.111 221.521 144.118 221.517C145.15 220.958 146.41 220.6 147.949 220.579C147.949 220.579 147.951 220.579 147.956 220.579C147.992 220.579 148.18 220.582 148.501 220.635C148.51 220.636 148.523 220.638 148.536 220.64C149.364 220.783 151.035 221.254 153.252 222.8C153.252 222.8 156.498 226.367 155.54 229.758C155.704 229.59 166.221 218.828 165.591 206.723L167.511 214.258C167.511 214.258 181.053 205.589 184.553 198.576C184.553 198.576 186.428 198.843 188.796 200.772C190.681 202.304 192.879 204.886 194.696 209.218C195.244 210.528 195.759 211.999 196.219 213.65C196.226 213.673 196.233 213.7 196.24 213.724C196.24 213.724 196.24 213.724 196.242 213.722C196.336 213.655 201.096 210.185 202.184 204.779C203.263 199.426 200.739 192.17 186.502 184.444C186.502 184.444 173.003 178.969 157.179 181.268C157.177 181.266 157.173 181.268 157.171 181.268C147.973 182.605 137.989 186.569 129.412 195.759C129.416 195.757 115.042 212.058 127.135 232.78Z" fill="#231F20"/>
<path d="M193.446 220.228C193.546 218.567 192.98 217.181 192.182 217.133C191.384 217.085 190.657 218.393 190.557 220.055C190.457 221.716 191.023 223.101 191.82 223.149C192.618 223.197 193.346 221.889 193.446 220.228Z" fill="#231F20"/>
<path d="M194.878 207.081C194.878 207.081 197.377 211.14 194.207 214.191C191.037 217.242 174.158 209.851 174.158 209.851C174.158 209.851 173.234 202.944 194.878 207.081Z" fill="#231F20"/>
<path d="M177.924 245.297C178.559 248.246 182.789 249.594 186.82 248.413C188.431 247.942 189.158 247.573 190.109 246.338C190.109 246.338 190.984 244.904 191.033 244.794C191.426 243.899 191.257 243.697 190.326 243.372C187.872 242.517 180.981 240.124 179.764 240.223C178.579 240.317 177.543 240.871 177.632 243.2C177.653 243.782 177.747 244.473 177.924 245.297Z" fill="#231F20"/>
<path d="M177.928 245.276C178.548 248.226 182.722 249.853 187.121 248.323C186.401 244.406 179.396 243.309 177.644 243.177C177.664 243.758 177.754 244.449 177.928 245.276Z" fill="#B62325"/>
<path d="M197.823 236.264C199.811 236.324 200.701 235.636 200.701 235.636C203.37 231.961 198.469 227.526 198.362 227.428C198.361 227.426 198.361 227.426 198.361 227.426C198.361 227.426 194.472 227.701 193.81 232.204C193.148 236.708 197.823 236.264 197.823 236.264Z" fill="#EE8780"/>
<path opacity="0.46" d="M196.898 229.213C198.74 229.086 199.916 224.375 199.523 218.691C199.131 213.008 197.319 208.503 195.477 208.631C193.635 208.758 192.459 213.469 192.852 219.152C193.245 224.836 195.056 229.34 196.898 229.213Z" fill="#62C7D1"/>
<path d="M196.898 229.213C198.74 229.086 199.916 224.375 199.523 218.691C199.131 213.008 197.319 208.503 195.477 208.631C193.635 208.758 192.459 213.469 192.852 219.152C193.245 224.836 195.056 229.34 196.898 229.213Z" stroke="#9C7A2C" stroke-width="0.5" stroke-miterlimit="10"/>
<path d="M192.821 218.298L154.463 224.667" stroke="#9C7A2C" stroke-width="0.5" stroke-miterlimit="10"/>
<path d="M160.899 254.034C160.899 254.034 155.816 251.854 153.602 249.622C153.602 249.622 156.41 257.719 160.385 260.968C160.385 260.968 160.262 256.394 160.899 254.034Z" fill="#EE8780"/>
<path d="M152.453 339.936C152.453 339.936 154.2 358.303 149.458 359.135L148.269 339.182L152.453 339.936Z" stroke="#9B1E45" stroke-width="0.5" stroke-miterlimit="10"/>
<path d="M157.18 181.266C188.44 179.054 202.182 204.785 202.182 204.785C202.184 204.783 202.184 204.779 202.186 204.777C203.265 199.424 200.741 192.168 186.504 184.442C186.504 184.44 173.005 178.965 157.18 181.266Z" fill="#3A3A3A"/>
<path d="M155.261 390.532C158.597 390.756 162.659 390.188 166.859 389.217C167.018 389.181 167.175 389.143 167.334 389.107C170.777 388.287 174.297 387.21 177.572 386.086C185.827 383.253 192.534 380.128 192.534 380.128" stroke="white" stroke-miterlimit="10"/>
<path d="M129.734 390.359C129.734 390.359 95.6556 384.394 86.9782 378.226" stroke="white" stroke-miterlimit="10"/>
<path d="M37.2451 365.285C37.2451 365.285 33.4685 362.874 35.6374 357.167" stroke="#EE8780" stroke-miterlimit="10"/>
<path d="M42.0665 365.364C42.0665 365.364 38.6904 362.356 40.3794 357.751" stroke="#EE8780" stroke-miterlimit="10"/>
<path d="M143.839 275.562C143.839 275.562 144.201 267.527 148.416 266.603C148.725 266.535 162.325 271.685 173.243 281.867C184.16 292.047 184.784 296.809 184.784 296.809L161.486 308.107C161.486 308.105 145.504 296.416 143.839 275.562Z" fill="white"/>
<path d="M183.765 296.901L190.567 305.465L224.682 296.901C224.682 296.901 226.058 288.682 225.429 288.839C224.799 288.996 238.981 285.216 239.909 288.996C240.836 292.777 243.967 299.357 235.974 301.43C227.98 303.504 203.707 316.541 185.293 318.744L170.486 303.34L183.765 296.901Z" fill="url(#paint13_linear_1_6891)"/>
<path d="M49.3617 363.37L45.3523 373.71L45.2621 373.663C45.2621 373.663 41.6695 373.282 33.4486 379.729C25.2241 386.176 18.6922 378.161 18.6922 378.161L39.9409 359.274L49.3617 363.37Z" fill="black"/>
<path d="M18.6922 378.161L16.8824 376.981L38.7608 358.408L39.9409 359.272L18.6922 378.161Z" fill="#515151"/>
<path d="M240.461 435.767L212.237 448.845L206.464 439.13C209.171 437.322 212.767 434.917 215.762 432.914L216.331 434.06C216.331 434.06 218.373 429.893 228.814 429.471C239.254 429.049 240.461 435.767 240.461 435.767Z" fill="black"/>
<path d="M212.237 448.845L213.467 450.641L241.011 437.263L240.461 435.767L212.237 448.845Z" fill="#515151"/>
<path d="M282.206 446.1C298.857 446.1 312.356 432.601 312.356 415.95C312.356 399.299 298.857 385.8 282.206 385.8C265.555 385.8 252.056 399.299 252.056 415.95C252.056 432.601 265.555 446.1 282.206 446.1Z" fill="#CBC8BD"/>
<path d="M305.918 434.583C308.155 431.738 309.915 428.441 311.037 424.773C315.909 408.85 306.952 391.992 291.03 387.12C284.238 385.041 277.278 385.482 271.149 387.903C268.911 390.749 267.152 394.045 266.03 397.714C261.158 413.636 270.115 430.494 286.037 435.366C292.829 437.445 299.788 437.005 305.918 434.583Z" fill="#E3E5D7"/>
<path d="M292.212 399.57C292.212 399.57 284.619 399.48 280.604 401.01L278.74 413.971C278.74 413.971 288.253 419.379 290.885 419.791C290.885 419.791 298.816 411.05 299.193 410.247C299.193 410.245 295.772 402.104 292.212 399.57Z" fill="#2E2E2E"/>
<path d="M287.711 386.369C287.711 386.369 293.998 389.87 295.191 391.548C295.191 391.548 301.511 393.219 303.332 394.565C303.334 394.565 296.97 387.889 287.711 386.369Z" fill="#2E2E2E"/>
<path d="M274.496 387.055C274.496 387.055 271.937 392.84 271.627 394.716C271.627 394.716 262.583 400.225 261.275 401.927C261.275 401.927 258.696 400.482 257.852 398.515C257.852 398.515 263.269 389.399 274.496 387.055Z" fill="#2E2E2E"/>
<path d="M268.442 420.148L259.16 414.417C259.16 414.417 254.927 418.376 255.109 422.504C255.292 426.633 261.111 433.8 261.111 433.8C261.111 433.8 266.441 433.986 269.292 431.968C269.292 431.968 267.892 421.949 268.442 420.148Z" fill="#2E2E2E"/>
<path d="M292.011 431.564C292.011 431.564 283.559 436.86 280.956 437.64C280.956 437.64 282.904 444.148 283.552 444.609C284.2 445.069 292.749 443.744 295.887 442.077C299.025 440.41 300.826 434.524 300.826 434.524L292.011 431.564Z" fill="#2E2E2E"/>
<path d="M310.131 405.841C310.131 405.841 309.014 412.068 308.175 413.519C308.175 413.519 309.316 422.671 308.711 425.505C308.711 425.505 310.467 425.78 311.037 424.773C311.607 423.766 312.854 411.536 310.131 405.841Z" fill="#2E2E2E"/>
<path d="M278.662 413.87L268.363 420.046L268.492 420.261L278.791 414.085L278.662 413.87Z" fill="#2E2E2E"/>
<path d="M291.012 419.815L290.762 419.839L291.888 431.613L292.138 431.589L291.012 419.815Z" fill="#2E2E2E"/>
<path d="M269.198 432.052L269.384 431.884C273.233 436.155 280.9 437.503 280.975 437.515L280.934 437.763C280.858 437.75 273.105 436.388 269.198 432.052Z" fill="#2E2E2E"/>
<path d="M260.986 433.818L261.235 433.784C261.241 433.82 261.737 437.333 263.449 439.265L263.262 439.431C261.499 437.443 261.008 433.964 260.986 433.818Z" fill="#2E2E2E"/>
<path d="M259.036 414.413C259.175 408.856 261.134 401.961 261.154 401.891L261.396 401.959C261.376 402.028 259.424 408.892 259.287 414.419L259.036 414.413Z" fill="#2E2E2E"/>
<path d="M252.673 420.27L252.901 420.164C253.586 421.638 255.147 422.383 255.162 422.391L255.055 422.618C254.988 422.587 253.399 421.826 252.673 420.27Z" fill="#2E2E2E"/>
<path d="M271.567 394.827L271.686 394.605C271.748 394.639 277.939 397.992 280.696 400.924L280.514 401.095C277.784 398.194 271.629 394.859 271.567 394.827Z" fill="#2E2E2E"/>
<path d="M292.096 399.52C292.95 397.578 295.052 391.568 295.073 391.508L295.31 391.591C295.288 391.653 293.184 397.672 292.325 399.623L292.096 399.52Z" fill="#2E2E2E"/>
<path d="M299.182 410.37L299.204 410.119C301.627 410.335 307.96 413.278 308.227 413.405L308.121 413.632C308.056 413.603 301.56 410.584 299.182 410.37Z" fill="#2E2E2E"/>
<path d="M300.772 434.412C304.115 432.734 308.559 425.514 308.605 425.442L308.819 425.574C308.635 425.873 304.294 432.927 300.885 434.637L300.772 434.412Z" fill="#2E2E2E"/>
<g opacity="0.56">
<path d="M300.841 416.469C305.333 414.129 306.558 407.594 303.577 401.872C300.597 396.15 294.539 393.408 290.047 395.748C285.556 398.088 284.331 404.623 287.312 410.345C290.292 416.067 296.35 418.809 300.841 416.469Z" fill="white"/>
</g>
</g>
</g>
<defs>
<linearGradient id="paint0_linear_1_6891" x1="248.184" y1="-76.1754" x2="256.129" y2="445.952" gradientUnits="userSpaceOnUse">
<stop stop-color="#F6DB98"/>
<stop offset="1" stop-color="white"/>
</linearGradient>
<linearGradient id="paint1_linear_1_6891" x1="465.32" y1="194.101" x2="465.32" y2="182.989" gradientUnits="userSpaceOnUse">
<stop stop-color="#414141"/>
<stop offset="0.2143" stop-color="#696969"/>
<stop offset="0.4381" stop-color="#8C8C8C"/>
<stop offset="0.65" stop-color="#A5A5A5"/>
<stop offset="0.843" stop-color="#B4B4B4"/>
<stop offset="1" stop-color="#B9B9B9"/>
</linearGradient>
<linearGradient id="paint2_linear_1_6891" x1="248.633" y1="262.519" x2="259.727" y2="262.519" gradientUnits="userSpaceOnUse">
<stop stop-color="#414141"/>
<stop offset="0.2143" stop-color="#696969"/>
<stop offset="0.4381" stop-color="#8C8C8C"/>
<stop offset="0.65" stop-color="#A5A5A5"/>
<stop offset="0.843" stop-color="#B4B4B4"/>
<stop offset="1" stop-color="#B9B9B9"/>
</linearGradient>
<linearGradient id="paint3_linear_1_6891" x1="41.0046" y1="194.101" x2="41.0046" y2="182.989" gradientUnits="userSpaceOnUse">
<stop stop-color="#414141"/>
<stop offset="0.2143" stop-color="#696969"/>
<stop offset="0.4381" stop-color="#8C8C8C"/>
<stop offset="0.65" stop-color="#A5A5A5"/>
<stop offset="0.843" stop-color="#B4B4B4"/>
<stop offset="1" stop-color="#B9B9B9"/>
</linearGradient>
<linearGradient id="paint4_linear_1_6891" x1="223.948" y1="318.932" x2="327.1" y2="318.932" gradientUnits="userSpaceOnUse">
<stop offset="0.6129" stop-color="#F8BBA7"/>
<stop offset="0.9088" stop-color="#EE8780"/>
</linearGradient>
<linearGradient id="paint5_linear_1_6891" x1="457.667" y1="411.45" x2="375.688" y2="311.147" gradientUnits="userSpaceOnUse">
<stop offset="0.6129" stop-color="#F8BBA7"/>
<stop offset="0.9088" stop-color="#EE8780"/>
</linearGradient>
<linearGradient id="paint6_linear_1_6891" x1="395.252" y1="210.048" x2="368.181" y2="150.855" gradientUnits="userSpaceOnUse">
<stop offset="0.6129" stop-color="#F8BBA7"/>
<stop offset="0.9088" stop-color="#EE8780"/>
</linearGradient>
<linearGradient id="paint7_linear_1_6891" x1="376.102" y1="237.728" x2="446.91" y2="237.728" gradientUnits="userSpaceOnUse">
<stop offset="0.6129" stop-color="#F8BBA7"/>
<stop offset="0.9088" stop-color="#EE8780"/>
</linearGradient>
<linearGradient id="paint8_linear_1_6891" x1="320.055" y1="205.885" x2="287.554" y2="268.791" gradientUnits="userSpaceOnUse">
<stop offset="0.6129" stop-color="#F8BBA7"/>
<stop offset="0.9088" stop-color="#EE8780"/>
</linearGradient>
<linearGradient id="paint9_linear_1_6891" x1="18.6927" y1="381.165" x2="121.845" y2="381.165" gradientUnits="userSpaceOnUse">
<stop offset="0.6129" stop-color="#F8BBA7"/>
<stop offset="0.9088" stop-color="#EE8780"/>
</linearGradient>
<linearGradient id="paint10_linear_1_6891" x1="125.643" y1="263.304" x2="71.5428" y2="323.947" gradientUnits="userSpaceOnUse">
<stop offset="0.6129" stop-color="#F8BBA7"/>
<stop offset="0.9088" stop-color="#EE8780"/>
</linearGradient>
<linearGradient id="paint11_linear_1_6891" x1="252.413" y1="473.683" x2="170.434" y2="373.379" gradientUnits="userSpaceOnUse">
<stop offset="0.6129" stop-color="#F8BBA7"/>
<stop offset="0.9088" stop-color="#EE8780"/>
</linearGradient>
<linearGradient id="paint12_linear_1_6891" x1="185.624" y1="269.593" x2="156.111" y2="205.288" gradientUnits="userSpaceOnUse">
<stop offset="0.6129" stop-color="#F8BBA7"/>
<stop offset="0.9088" stop-color="#EE8780"/>
</linearGradient>
<linearGradient id="paint13_linear_1_6891" x1="170.487" y1="303.028" x2="241.295" y2="303.028" gradientUnits="userSpaceOnUse">
<stop offset="0.6129" stop-color="#F8BBA7"/>
<stop offset="0.9088" stop-color="#EE8780"/>
</linearGradient>
<clipPath id="clip0_1_6891">
<rect width="500" height="500" rx="250" fill="white"/>
</clipPath>
<clipPath id="clip1_1_6891">
<rect width="541.322" height="541.322" fill="white" transform="translate(-17.562 -39.2561)"/>
</clipPath>
</defs>
</svg>
