<svg width="500" height="500" viewBox="0 0 500 500" fill="none" xmlns="http://www.w3.org/2000/svg">
<g clip-path="url(#clip0_1_5027)">
<rect width="500" height="500" rx="250" fill="white"/>
<path d="M142.592 332.806L142.356 333.042C139.167 326.073 137.158 318.158 136.332 309.417C137.158 318.04 139.403 325.837 142.592 332.806Z" fill="#DFDFDF"/>
<path d="M218.431 230.864C233.958 230.864 246.545 218.276 246.545 202.749C246.545 187.222 233.958 174.635 218.431 174.635C202.904 174.635 190.317 187.222 190.317 202.749C190.317 218.276 202.904 230.864 218.431 230.864Z" fill="#DFDFDF"/>
<path d="M303.365 131.872H204.374C161.376 131.872 135.742 157.506 135.742 200.504V299.495C135.742 312.37 137.987 323.593 142.357 333.043C152.516 355.487 174.252 368.126 204.374 368.126H303.365C346.363 368.126 371.996 342.493 371.996 299.495V272.443V200.504C371.996 157.506 346.363 131.872 303.365 131.872ZM352.742 255.906C343.528 247.991 328.644 247.991 319.43 255.906L270.289 298.077C261.075 305.992 246.191 305.992 236.977 298.077L232.961 294.77C224.574 287.446 211.225 286.737 201.775 293.116L157.596 322.766C154.997 316.151 153.461 308.472 153.461 299.495V200.504C153.461 167.192 171.062 149.591 204.374 149.591H303.365C336.676 149.591 354.277 167.192 354.277 200.504V257.205L352.742 255.906Z" fill="#DFDFDF"/>
<g clip-path="url(#clip1_1_5027)">
<path d="M669.723 304.314H-25.0037V570.281H669.723V304.314Z" fill="#B16598"/>
<path d="M667.329 -45.8105H-27.3967V315.429H667.329V-45.8105Z" fill="url(#paint0_linear_1_5027)"/>
<path d="M669.723 277.916H-25.0037V315.43H669.723V277.916Z" fill="url(#paint1_linear_1_5027)"/>
<path d="M669.723 306.63H-25.0037V315.43H669.723V306.63Z" fill="#6F401E"/>
<path d="M669.723 306.63H-25.0037V308.83H669.723V306.63Z" fill="#BB6D33"/>
<path d="M106.232 72.6504H3.65625V320.512H106.232V72.6504Z" fill="#E1BC8A"/>
<g style="mix-blend-mode:multiply" opacity="0.45">
<path d="M387.708 345.986C387.708 345.986 572.064 342.68 575.964 342.68C579.864 342.68 622.173 356.563 620.783 355.88C619.393 355.196 430.428 361.106 430.428 361.106L387.708 345.986Z" fill="#B16598"/>
</g>
<path d="M71.3859 40.6643C79.1986 32.8516 79.1986 20.1847 71.3859 12.3721C63.5732 4.55937 50.9063 4.55937 43.0936 12.3721C35.2809 20.1847 35.2809 32.8516 43.0936 40.6643C50.9063 48.477 63.5732 48.477 71.3859 40.6643Z" fill="#E7BB97"/>
<path d="M54.9449 43.5742C65.9937 43.5742 74.9505 34.6173 74.9505 23.5685C74.9505 12.5197 65.9937 3.56287 54.9449 3.56287C43.896 3.56287 34.9392 12.5197 34.9392 23.5685C34.9392 34.6173 43.896 43.5742 54.9449 43.5742Z" fill="#932A8E"/>
<path d="M74.9539 23.5681C74.9539 34.6187 65.9972 43.5754 54.9466 43.5754C54.5769 43.5754 54.2055 43.5654 53.8442 43.5385C64.3856 42.9738 72.7509 34.2473 72.7509 23.5681C72.7509 12.8889 64.3856 4.16239 53.8442 3.59776C54.2055 3.56919 54.5752 3.56079 54.9466 3.56079C65.9972 3.56079 74.9539 12.5175 74.9539 23.5681Z" fill="#5D1E59"/>
<path d="M53.9904 40.3759C63.2731 40.3759 70.7982 32.8508 70.7982 23.5681C70.7982 14.2855 63.2731 6.76038 53.9904 6.76038C44.7077 6.76038 37.1826 14.2855 37.1826 23.5681C37.1826 32.8508 44.7077 40.3759 53.9904 40.3759Z" fill="#F1F0F8"/>
<path d="M55.5466 40.2969C55.0374 40.3439 54.5181 40.3708 53.9905 40.3708C44.7094 40.3708 37.1877 32.8492 37.1877 23.5681C37.1877 14.287 44.7094 6.76538 53.9905 6.76538C54.5181 6.76538 55.0374 6.79395 55.5466 6.83932C46.9965 7.62745 40.3083 14.8147 40.3083 23.5681C40.3083 32.3215 46.9965 39.5105 55.5466 40.2969Z" fill="#D1CEE7"/>
<path d="M56.0926 14.4332L52.6494 23.9983L57.2404 32.703" stroke="#5D1E59" stroke-width="1.65" stroke-miterlimit="10"/>
<path d="M53.8425 8.43909V11.9899" stroke="#5D1E59" stroke-miterlimit="10"/>
<path d="M53.8425 34.3884V37.9392" stroke="#5D1E59" stroke-miterlimit="10"/>
<path d="M68.5935 23.1884H65.0427" stroke="#5D1E59" stroke-miterlimit="10"/>
<path d="M42.644 23.1884H39.0933" stroke="#5D1E59" stroke-miterlimit="10"/>
<g style="mix-blend-mode:multiply">
<path d="M106.232 72.6504L137.236 320.512H99.584V81.4626L106.232 72.6504Z" fill="#F3D8C3"/>
</g>
<path d="M106.232 72.6504H74.4194V320.512H106.232V72.6504Z" fill="#9C5C28"/>
<path d="M99.5841 320.512V131.947L93.5631 148.156V311.029V320.512H88.0042V196.581L84.3005 212.072V320.512H99.5841Z" fill="#BD7D4E"/>
<path d="M67.1633 81.4626H10.6584V145.378H67.1633V81.4626Z" fill="#79382F"/>
<path d="M34.2787 81.4626H10.6584V145.378H34.2787V81.4626Z" fill="#9C5C28"/>
<path d="M10.6584 154.177L67.1633 151.243V218.091H10.6584V154.177Z" fill="#79382F"/>
<path d="M10.6584 154.177L34.2787 152.95V218.091H10.6584V154.177Z" fill="#9C5C28"/>
<path d="M10.6584 224.267L67.1633 226.891V290.807H10.6584V224.267Z" fill="#79382F"/>
<path d="M10.6584 224.267L34.2787 225.364V290.807H10.6584V224.267Z" fill="#9C5C28"/>
<path d="M22.5461 101.841H15.5991V145.378H22.5461V101.841Z" fill="#2E3690"/>
<path d="M41.3805 101.841H22.5461V145.378H41.3805V101.841Z" fill="#282865"/>
<path d="M33.4553 104.579H26.9453V145.378H33.4553V104.579Z" fill="#93306F"/>
<path d="M51.1084 104.579H33.457V145.378H51.1084V104.579Z" fill="#67204F"/>
<path d="M21.3765 250.008H14.8665V290.807H21.3765V250.008Z" fill="#93306F"/>
<path d="M39.0278 250.008H21.3765V290.807H39.0278V250.008Z" fill="#67204F"/>
<path d="M40.7971 250.008H34.2871V290.807H40.7971V250.008Z" fill="#2E9280"/>
<path d="M58.4485 250.008H40.7971V290.807H58.4485V250.008Z" fill="#236758"/>
<path d="M45.1831 111.875H39.8376V145.377H45.1831V111.875Z" fill="#359344"/>
<path d="M59.6769 111.875H45.1831V145.377H59.6769V111.875Z" fill="#2A6733"/>
<path d="M40.8394 203.157V206.217H38.312V203.128L40.8394 203.157Z" fill="#333333"/>
<path d="M50.3102 216.703L41.8777 214.097V204.696H39.5991H37.3187V214.097L28.8879 216.703L28.4712 217.121H50.7269L50.3102 216.703Z" fill="#1A1A1A"/>
<path d="M28.4713 217.121L27.5 218.091H39.5992H51.6983L50.7271 217.121H28.4713Z" fill="#333333"/>
<path d="M61.87 180.743C61.87 193.123 51.8361 203.157 39.4563 203.157C36.2853 203.157 33.2656 202.498 30.5315 201.307L48.7744 160.354C56.5027 163.89 61.87 171.689 61.87 180.745V180.743Z" stroke="#1A1A1A" stroke-width="1.1" stroke-miterlimit="10"/>
<path d="M39.4563 200.475C50.3539 200.475 59.1881 191.641 59.1881 180.743C59.1881 169.846 50.3539 161.011 39.4563 161.011C28.5588 161.011 19.7246 169.846 19.7246 180.743C19.7246 191.641 28.5588 200.475 39.4563 200.475Z" fill="#2BAAE2"/>
<path d="M46.2001 184.072L45.4909 184.885L43.5097 185.85L43.0526 186.917L40.2597 188.314H38.6347L37.0601 190.219L32.4372 191.337L30.9635 192.962L30.5299 194.536L29.846 194.892L29.0848 192.861L29.6427 189.355L31.3181 185.445C31.3181 185.445 31.7752 183.21 31.7752 183.007C31.7752 182.803 29.3872 178.69 29.3872 178.69L30.5283 176.608L32.2306 175.643L32.891 174.576L31.0626 173.154L30.5283 171.58L28.4731 169.447L27.6598 168.177L28.4731 167.212L29.5402 164.954L28.4731 166.552L27.8127 167.212H27.406L28.4227 165.638L29.5385 163.687C32.039 162.228 34.8873 161.305 37.9306 161.072L37.1593 162.946L39.1909 164.164H42.1368V165.028L40.8378 165.841L39.5741 165.587L38.3104 166.552L36.193 167.162L35.4318 169.193H34.3647L34.721 168.026L34.8218 166.958L33.7547 166.602L32.1801 166.501L30.9618 167.162L29.7939 168.94L30.5299 169.447L31.7752 168.94L32.7901 169.143L31.2156 169.904L32.0793 170.818L32.0289 171.479L31.5718 172.037L31.7752 173.205L32.8422 173.966L35.178 173.559L37.566 174.93L39.4548 177.723L41.1722 178.79L41.1218 180.745L42.6963 181.076L42.9501 182.143L46.1984 184.074L46.2001 184.072Z" fill="#A77D52"/>
<path d="M33.9109 169.951L35.1796 171.069L36.3996 171.729L37.6179 172.593H38.312L36.8046 171.475L35.0788 169.951H33.9109Z" fill="#A77D52"/>
<path d="M45.7447 163.703V165.431L45.3885 165.787L44.5247 164.517L42.6964 163.959L39.8514 163.655L39.5758 162.791L38.9373 161.978V161.018C39.1103 161.015 39.2817 161.011 39.4548 161.011C40.6816 161.011 41.8814 161.122 43.0443 161.339L42.6443 161.621L41.0697 161.571L41.5772 162.384L41.2731 162.967H42.3401L43.5585 162.131L44.3197 162.181L44.7264 162.967L45.743 163.705L45.7447 163.703Z" fill="#A77D52"/>
<path d="M57.5833 172.939L56.817 173.811V174.675H56.4373L55.4458 172.593L55.9029 172.136L56.1566 171.272L56.607 170.983C56.9683 171.615 57.2943 172.267 57.5816 172.939H57.5833Z" fill="#A77D52"/>
<path d="M56.7633 190.226L57.4271 186.611L57.1229 185.341L55.4475 184.884L54.0259 184.173L53.6192 181.755L53.1621 178.636L54.2292 177.518V177.061L55.4475 176.147L56.8188 175.08H57.4288L58.5059 175.576C58.9529 177.224 59.1899 178.955 59.1899 180.743C59.1899 186.028 57.1128 190.826 53.7301 194.37L54.1771 192.757L56.7633 190.226Z" fill="#A77D52"/>
<g style="mix-blend-mode:multiply" opacity="0.3">
<path d="M57.2909 189.196C54.1249 195.864 47.3292 200.475 39.4563 200.475C28.5587 200.475 19.7246 191.641 19.7246 180.743C19.7246 174.999 22.1781 169.827 26.0952 166.221C24.8785 168.783 24.1979 171.65 24.1979 174.675C24.1979 185.573 33.0337 194.407 43.9297 194.407C49.0836 194.407 53.7754 192.432 57.2909 189.196Z" fill="#2BAAE2"/>
</g>
<g style="mix-blend-mode:multiply">
<path d="M129.642 324.77H169.057L143.596 318.124L129.642 324.77Z" fill="#F3D8C3"/>
</g>
<path d="M147.878 269.502V267.126L146.314 266.17L144.865 265.619L142.923 264.402H140.763H138.953L137.794 264.953L137.07 266.256L133.042 266.951L132.58 269.502L133.216 271.386L132.317 273.762L132.985 274.66L132.781 275.528L132.317 276.399L134.057 278.919L135.448 278.572L136.809 279.064L138.085 280.512L144.343 280.716L146.082 278.775L146.458 277.355L148.545 275.964L149.502 272.804L148.863 272.11L149.211 271.24L147.878 269.502Z" fill="#E8E7F4"/>
<path d="M135.273 267.502C135.361 267.474 137.881 266.662 137.881 266.662L139.33 268.517L138.17 267.85C138.17 267.85 138.721 270.023 138.779 270.11C138.837 270.198 140.604 271.356 140.604 271.356L140.908 271.791L138.836 271.675L134.924 272.559L133.562 270.574L134.055 269.299L134.924 268.864L137.234 270.4L137.88 271.124L137.619 268.864L136.228 268.4L134.372 268.459L135.272 267.502H135.273Z" fill="#DAD8EC"/>
<path d="M139.853 276.891L144.749 275.211L144.343 275.036H142.301L141.59 274.224L141.765 273.036L138.026 273.646L136.404 275.152L139.069 274.108L140.91 274.167V274.964L140.316 276.311L139.474 276.891H139.853Z" fill="#DAD8EC"/>
<path d="M138.75 266.054L139.765 266.662L142.314 267.676L142.489 267.242L141.533 265.619L140.43 265.039L140.229 265.474L141.85 266.951L139.33 265.155L138.75 266.054Z" fill="#DAD8EC"/>
<path d="M133.332 274.964C133.448 275.036 134.433 275.644 134.433 275.644L134.665 276.195L132.869 276.311L133.768 275.79L133.332 274.965V274.964Z" fill="#DAD8EC"/>
<path d="M138.113 278.716L140.345 277.904H143.01L145.59 276.543L145.329 276.891L142.489 279.007L141.041 279.585L138.113 278.716Z" fill="#DAD8EC"/>
<path d="M143.533 268.17L144.111 267.676L146.371 269.01L144.111 268.748L143.533 268.17Z" fill="#DAD8EC"/>
<path d="M144.75 269.327L144.951 269.936L147.299 270.66L147.618 271.27L148.371 271.848L148.863 271.183L147.502 269.82L144.75 269.327Z" fill="#DAD8EC"/>
<path d="M141.446 269.61L143.242 272.719V273.646L145.763 274.964L146.806 273.53L146.487 271.848L145.907 272.559L144.257 271.183L142.837 270.588L142.662 268.023H142.199L141.446 269.61Z" fill="#DAD8EC"/>
<path d="M133.988 270.211V267.835L132.423 266.879L130.975 266.33L129.032 265.111H126.873H125.063L123.903 265.662L123.179 266.966L119.153 267.662L118.689 270.211L119.326 272.095L118.427 274.471L119.094 275.37L118.891 276.239L118.427 277.108L120.166 279.629L121.557 279.281L122.919 279.775L124.194 281.223L130.452 281.425L132.191 279.484L132.568 278.064L134.655 276.673L135.611 273.515L134.972 272.819L135.32 271.951L133.988 270.211Z" fill="#F1F0F8"/>
<path d="M121.383 268.212C121.47 268.183 123.991 267.371 123.991 267.371L125.439 269.227L124.28 268.559C124.28 268.559 124.831 270.732 124.888 270.82C124.947 270.907 126.713 272.065 126.713 272.065L127.017 272.5L124.945 272.384L121.033 273.268L119.672 271.283L120.164 270.008L121.033 269.573L123.344 271.109L123.989 271.833L123.728 269.573L122.337 269.109L120.482 269.166L121.381 268.21L121.383 268.212Z" fill="#DAD8EC"/>
<path d="M125.962 277.6L130.859 275.92L130.452 275.747H128.41L127.7 274.935L127.874 273.747L124.135 274.355L122.514 275.863L125.179 274.819L127.019 274.876V275.674L126.426 277.02L125.586 277.6H125.962Z" fill="#DAD8EC"/>
<path d="M124.859 266.763L125.874 267.371L128.424 268.386L128.598 267.951L127.642 266.329L126.541 265.75L126.338 266.183L127.96 267.662L125.439 265.866L124.859 266.763Z" fill="#DAD8EC"/>
<path d="M119.442 275.674C119.558 275.747 120.543 276.355 120.543 276.355L120.774 276.906L118.978 277.022L119.877 276.501L119.442 275.676V275.674Z" fill="#DAD8EC"/>
<path d="M124.223 279.427L126.454 278.615H129.119L131.699 277.252L131.438 277.6L128.599 279.716L127.15 280.296L124.223 279.427Z" fill="#DAD8EC"/>
<path d="M129.642 268.879L130.22 268.386L132.48 269.719L130.22 269.458L129.642 268.879Z" fill="#DAD8EC"/>
<path d="M130.859 270.038L131.061 270.647L133.408 271.371L133.727 271.979L134.48 272.559L134.973 271.892L133.611 270.531L130.859 270.038Z" fill="#DAD8EC"/>
<path d="M127.555 270.321L129.352 273.428V274.355L131.872 275.674L132.916 274.239L132.596 272.559L132.018 273.268L130.367 271.892L128.947 271.299L128.772 268.734H128.308L127.555 270.321Z" fill="#DAD8EC"/>
<path d="M114.559 274.441L121.043 324.77H146.363L155.634 274.441H114.559Z" fill="#544842"/>
<path d="M145.205 274.441L143.351 324.77H146.362L155.633 274.441H145.205Z" fill="#3C332F"/>
<path d="M229.653 -1.90576L239.376 1.49209H411.359L415.065 -1.90576H229.653Z" fill="white"/>
<path d="M415.065 -2.21326H229.653L217.687 19.0914H427.031L415.065 -2.21326Z" fill="url(#paint2_linear_1_5027)"/>
<path d="M503.834 310.066H-2.52441V502.02H503.834V310.066Z" fill="url(#paint3_linear_1_5027)"/>
<path d="M325.857 422.444L168.61 420.786L197.199 332.504H291.714L325.857 422.444Z" fill="white"/>
<path d="M207.319 402.091H293.9" stroke="#231F20" stroke-miterlimit="10"/>
<path d="M205.774 395.891H292.356" stroke="#231F20" stroke-miterlimit="10"/>
<path d="M213.325 389.692H292.356" stroke="#231F20" stroke-miterlimit="10"/>
<path d="M213.325 383.493H292.574" stroke="#231F20" stroke-miterlimit="10"/>
<path d="M213.325 376.24H292.356" stroke="#231F20" stroke-miterlimit="10"/>
<path d="M213.325 370.041H290.812" stroke="#231F20" stroke-miterlimit="10"/>
<path d="M213.325 363.842H290.812" stroke="#231F20" stroke-miterlimit="10"/>
<path d="M213.325 357.643H291.028" stroke="#231F20" stroke-miterlimit="10"/>
<path d="M215.98 262.367C215.98 262.367 215.6 293.976 239.079 293.492C275.377 292.744 255.023 261.668 255.023 261.668L215.98 262.367Z" fill="url(#paint4_linear_1_5027)"/>
<path d="M225.3 260.971C225.352 260.856 225.379 260.796 225.379 260.796C225.379 260.796 225.458 260.88 225.3 260.971Z" fill="#165778"/>
<path d="M253.05 260.796C253.126 260.875 253.2 260.954 253.272 261.033C252.933 260.922 253.05 260.796 253.05 260.796Z" fill="#165778"/>
<path d="M339.279 295.81C339.279 295.81 318.008 317.597 316.112 327.471L285.33 309.814C253.509 307.958 194.628 310.478 194.628 310.478L169.985 334.253C168.089 324.379 145.971 298.96 145.971 298.96C145.971 298.96 179.676 274.381 186.779 266.399C190.179 262.579 195.017 260.922 200.177 260.334C205.802 259.694 211.806 260.32 216.748 260.796C223.344 261.43 224.94 261.181 225.3 260.971C224.502 262.792 218.012 278.479 227.1 287.797C227.1 287.797 235.169 295.511 245.268 292.859C255.366 290.207 258.324 280.373 258.613 278.362C258.9 276.372 260.046 268.324 253.272 261.033C253.845 261.221 255.724 261.369 261.68 260.796C266.383 260.344 272.915 259.41 279.119 259.603C285.418 259.796 291.38 261.151 294.751 265.348C301.158 273.33 339.279 295.81 339.279 295.81Z" fill="#165778"/>
<path d="M146.921 352.377C115.187 332.63 119.014 322.265 119.014 322.265L147.27 299.481C147.27 299.481 158.687 313.688 161.031 317.013L148.934 328.637C148.934 328.637 175.174 349.318 180.424 354.938C180.424 354.938 187.34 355.043 191.641 356.865C191.641 356.865 206.961 363.262 204.647 373.999C201.866 386.905 187.174 371.715 187.174 371.715C187.174 371.715 181.118 373.204 178.736 368.339L146.922 352.375L146.921 352.377Z" fill="url(#paint5_linear_1_5027)"/>
<path d="M335.728 352.377C367.462 332.63 363.635 322.265 363.635 322.265L335.379 299.481C335.379 299.481 323.962 313.688 321.618 317.013L333.715 328.637C333.715 328.637 307.475 349.318 302.225 354.938C302.225 354.938 295.309 355.043 291.008 356.865C291.008 356.865 275.688 363.262 278.002 373.999C280.783 386.905 295.475 371.715 295.475 371.715C295.475 371.715 301.531 373.204 303.912 368.339L335.727 352.375L335.728 352.377Z" fill="url(#paint6_linear_1_5027)"/>
<path d="M181.996 216.753C181.996 216.753 182.02 233.963 194.574 236.885C194.574 236.885 191.633 225.609 191.633 219.575C191.633 219.575 189.916 220.494 187.878 220.67L185.871 208.627L181.998 216.753H181.996Z" fill="url(#paint7_linear_1_5027)"/>
<path d="M282.542 232.099C282.542 232.099 298.736 223.699 291.836 202.515C291.836 202.515 288.045 208.107 284.236 210.329C284.236 210.329 284.706 223.651 282.544 232.099H282.542Z" fill="url(#paint8_linear_1_5027)"/>
<path d="M284.233 211.273C284.233 211.273 288.012 270.611 240.39 271.746C192.768 272.88 191.635 219.966 191.635 219.966V182.928H284.303L284.233 211.273Z" fill="url(#paint9_linear_1_5027)"/>
<path d="M296.048 193.803C292.243 205.523 284.234 210.329 284.234 210.329L284.248 205.509C278.919 204.387 267.267 183.26 267.086 182.931C271.902 199.747 271.759 207.492 271.759 207.492C253.052 209.195 226.972 182.928 226.972 182.928H224.989C205.43 219.02 187.878 220.672 187.878 220.672L185.87 208.628L181.996 216.755C176.044 209.385 171.035 193.133 172.831 182.928C174.976 170.734 195.507 135.496 237.969 134.928C243.533 134.854 248.638 135.338 253.308 136.24C278.087 141.014 290.634 157.456 294.658 163.834C295.641 165.392 296.337 167.113 296.713 168.916C298.906 179.38 298.071 187.572 296.045 193.805L296.048 193.803Z" fill="#231F20"/>
<path d="M226.699 201.547C226.699 201.547 232.127 206.119 229.069 211.914C226.01 217.708 198.692 215.14 198.692 215.14C198.692 215.14 194.161 205.804 226.699 201.549V201.547Z" fill="#231F20"/>
<path d="M254.319 201.547C254.319 201.547 248.891 206.119 251.95 211.914C255.008 217.708 282.327 215.14 282.327 215.14C282.327 215.14 286.857 205.804 254.319 201.549V201.547Z" fill="#231F20"/>
<path d="M218.924 238.844C220.411 238.844 221.616 236.753 221.616 234.173C221.616 231.593 220.411 229.501 218.924 229.501C217.437 229.501 216.232 231.593 216.232 234.173C216.232 236.753 217.437 238.844 218.924 238.844Z" fill="#231F20"/>
<path d="M259.482 238.844C260.968 238.844 262.174 236.753 262.174 234.173C262.174 231.593 260.968 229.501 259.482 229.501C257.995 229.501 256.79 231.593 256.79 234.173C256.79 236.753 257.995 238.844 259.482 238.844Z" fill="#231F20"/>
<path d="M236.66 229.52C235.009 231.951 232.322 236.92 232.882 242.869C232.949 243.59 233.442 244.198 234.127 244.43C235.823 245.003 239.291 245.707 243.249 243.864C243.941 243.541 244.361 242.824 244.306 242.062C244.114 239.427 243.262 233.134 239.471 229.263C238.668 228.442 237.305 228.568 236.66 229.52Z" fill="#EF8981"/>
<path d="M296.048 193.803C295.956 154.889 253.308 136.238 253.308 136.238H253.309C278.089 141.012 290.635 157.454 294.66 163.833C295.643 165.391 296.339 167.111 296.715 168.914C298.908 179.379 298.073 187.571 296.046 193.803H296.048Z" fill="#EFF3C3"/>
<path opacity="0.93" d="M490.47 388.867H348.553V411.533H490.47V388.867Z" fill="#CCE0F4"/>
<path opacity="0.11" d="M490.47 406.677H348.553V411.533H490.47V406.677Z" fill="#2B3448" stroke="#6ECEEE" stroke-miterlimit="10"/>
<path opacity="0.11" d="M490.47 388.867H348.553V397.229H490.47V388.867Z" fill="white" stroke="#6ECEEE" stroke-miterlimit="10"/>
<path opacity="0.26" d="M368.722 388.867H356.246V411.532H368.722V388.867Z" fill="#74481D" stroke="#6ECEEE" stroke-miterlimit="10"/>
<path opacity="0.26" d="M379.744 388.867H377.628V411.532H379.744V388.867Z" fill="#74481D" stroke="#6ECEEE" stroke-miterlimit="10"/>
<path opacity="0.26" d="M459.659 388.867H388.652V411.532H459.659V388.867Z" fill="#74481D" stroke="#6ECEEE" stroke-miterlimit="10"/>
<path opacity="0.26" d="M477.374 388.867H468.567V411.532H477.374V388.867Z" fill="#74481D" stroke="#6ECEEE" stroke-miterlimit="10"/>
<path opacity="0.93" d="M348.553 388.867L347.508 371.083L477.918 370.038L490.471 388.867H348.553Z" fill="#CCE0F4"/>
<path d="M349.542 359.66V379.884L439.504 389.647L473.676 378.837L469.142 377.094L469.491 360.705L472.978 359.31L388.943 351.639L349.542 359.66Z" fill="#DE6C6B"/>
<path d="M471.229 359.917L439.154 368.726V385.463V387.555L470.784 377.533L471.229 359.917Z" fill="white"/>
<path d="M353.04 363.415L352.956 364.153L432.476 373.213L432.56 372.475L353.04 363.415Z" fill="#ECB750"/>
<path d="M352.648 368.142L352.563 368.88L432.083 377.94L432.167 377.202L352.648 368.142Z" fill="#ECB750"/>
<path d="M352.646 372.866L352.562 373.604L432.081 382.664L432.165 381.926L352.646 372.866Z" fill="#ECB750"/>
<path d="M352.647 377.196L352.562 377.934L432.082 386.994L432.166 386.256L352.647 377.196Z" fill="#ECB750"/>
<mask id="mask0_1_5027" style="mask-type:luminance" maskUnits="userSpaceOnUse" x="439" y="359" width="33" height="29">
<path d="M471.229 359.917L439.154 368.726V385.463V387.555L470.784 377.533L471.229 359.917Z" fill="white"/>
</mask>
<g mask="url(#mask0_1_5027)">
<g opacity="0.37">
<path d="M437.329 371.663L437.233 371.305L475.685 360.972L475.781 361.33L437.329 371.663Z" fill="#74481D"/>
</g>
<g opacity="0.37">
<path d="M437.722 376.387L437.626 376.029L476.078 365.696L476.174 366.055L437.722 376.387Z" fill="#74481D"/>
</g>
<g opacity="0.37">
<path d="M437.786 380.569L437.692 380.21L476.143 369.878L476.238 370.236L437.786 380.569Z" fill="#74481D"/>
</g>
<g opacity="0.37">
<path d="M438.181 384.898L438.085 384.54L476.536 374.209L476.631 374.567L438.181 384.898Z" fill="#74481D"/>
</g>
</g>
<path opacity="0.1" d="M349.542 379.884L439.504 389.647L439.185 381.473L349.822 372.419L349.542 379.884Z" fill="#2B3448"/>
<path opacity="0.11" d="M349.542 359.66L439.154 368.726L439.185 373.6L349.822 365.728L349.542 359.66Z" fill="white"/>
<path opacity="0.1" d="M439.154 368.726V387.555L467.529 378.324C467.529 378.324 439.517 386.683 439.154 368.726Z" fill="#74481D"/>
<path d="M25.6733 392.329C25.6733 392.329 23.6232 409.901 25.381 414.588L90.6946 441.24L169.48 427.474L161.572 425.716L160.645 406.777L167.563 406.01L88.9369 382.956L25.6733 392.327V392.329Z" fill="#2B3448"/>
<path d="M162.743 406.68L92.7447 415.759C92.7447 415.759 84.5441 431.282 94.7948 437.726L163.33 426.597C163.33 426.597 162.743 405.801 162.743 406.68Z" fill="white"/>
<path opacity="0.1" d="M135.228 430.24C126.643 430.203 117.933 429.462 109.376 428.719C104.281 428.277 99.0212 427.692 94.4034 425.33C92.9061 424.563 91.5601 423.597 90.2846 422.542C89.1016 427.543 88.9991 434.085 94.7932 437.726L141.56 430.132C139.446 430.208 137.334 430.248 135.228 430.24Z" fill="#74481D"/>
<g opacity="0.54">
<path d="M30.9701 405.872C30.9617 406.063 30.7163 406.125 30.4256 406.013C30.1349 405.9 29.9064 405.655 29.9148 405.465C29.9232 405.275 30.1668 405.21 30.4576 405.322C30.75 405.435 30.9802 405.68 30.9701 405.872Z" fill="#ECB750"/>
<path d="M39.3958 403.554C39.3857 403.754 39.1202 403.822 38.8076 403.707C38.4951 403.593 38.2497 403.339 38.2598 403.141C38.2699 402.943 38.5321 402.874 38.8463 402.986C39.1605 403.101 39.4076 403.354 39.3958 403.553V403.554Z" fill="#ECB750"/>
<path d="M38.7958 414.459C38.7857 414.654 38.5253 414.709 38.2144 414.581C37.9052 414.455 37.6632 414.195 37.675 414.002C37.6851 413.807 37.9438 413.751 38.253 413.877C38.5639 414.003 38.8059 414.264 38.7958 414.459Z" fill="#ECB750"/>
<path d="M47.7325 412.402C47.7191 412.605 47.4368 412.664 47.1041 412.535C46.7713 412.405 46.5125 412.138 46.5243 411.935C46.5378 411.731 46.8167 411.671 47.1511 411.8C47.4855 411.928 47.746 412.199 47.7342 412.402H47.7325Z" fill="#ECB750"/>
<path d="M28.1806 395.881L27.7974 404.692L27.7168 404.724L27.7924 404.816L27.4277 413.178L49.9036 422.668L51.1572 403.874L28.1823 395.881H28.1806ZM39.7101 400.63L44.0507 406.297L38.9455 408.33L39.127 405.026L38.4632 404.781L38.2901 407.986L34.1192 402.825L39.7101 400.63ZM33.7311 402.344L29.1015 396.616L39.2496 400.163L33.7311 402.344ZM40.2125 400.499L50.0078 403.924L44.5195 406.11L40.2142 400.501L40.2125 400.499ZM39.2311 408.875L44.4472 406.813L49.5356 413.456L44.128 415.208L39.4093 409.37L45.153 411.59L45.1799 411.163L39.2328 408.875H39.2311ZM38.0683 408.428L32.1414 406.147L32.1212 406.554L37.8465 408.767L33.0908 410.661L28.5032 405.028L33.6857 402.995L38.0683 408.428ZM38.2195 409.275L38.0179 412.995L38.6749 413.261L38.885 409.441L43.6608 415.361L38.3288 417.089L33.4891 411.147L38.2229 409.276L38.2195 409.275ZM37.8145 417.144L28.3637 413.17L33.0707 411.31L37.8145 417.144ZM44.0742 415.874L48.8382 421.779L38.8127 417.563L44.0742 415.872V415.874ZM44.543 415.722L49.7356 414.055L49.2415 421.537L44.543 415.722ZM44.9161 406.628L50.3674 404.474L49.8062 412.998L44.9178 406.628H44.9161ZM28.757 396.883L33.2992 402.514L28.4242 404.442L28.7586 396.883H28.757ZM32.6774 410.824L28.0596 412.662L28.3738 405.532L32.6758 410.824H32.6774Z" fill="#ECB750"/>
</g>
<g opacity="0.54">
<path d="M64.6075 418.105C64.5991 418.297 64.3538 418.359 64.0631 418.246C63.7724 418.134 63.5438 417.889 63.5522 417.699C63.5606 417.509 63.8043 417.443 64.095 417.556C64.3874 417.668 64.6176 417.914 64.6075 418.105Z" fill="#ECB750"/>
<path d="M73.0332 415.788C73.0215 415.988 72.7577 416.055 72.4451 415.941C72.1325 415.827 71.8872 415.573 71.8973 415.375C71.9074 415.176 72.1695 415.107 72.4837 415.22C72.798 415.334 73.045 415.588 73.0332 415.786V415.788Z" fill="#ECB750"/>
<path d="M72.4333 426.694C72.4232 426.889 72.1627 426.944 71.8518 426.817C71.5426 426.691 71.3007 426.43 71.3124 426.237C71.3225 426.042 71.5813 425.987 71.8905 426.113C72.2014 426.239 72.4434 426.499 72.4333 426.694Z" fill="#ECB750"/>
<path d="M81.37 424.636C81.3566 424.839 81.0742 424.898 80.7415 424.77C80.4088 424.641 80.15 424.373 80.1618 424.17C80.1752 423.967 80.4542 423.906 80.7886 424.036C81.123 424.163 81.3834 424.434 81.3717 424.637L81.37 424.636Z" fill="#ECB750"/>
<path d="M61.818 408.115L61.4349 416.926L61.3542 416.958L61.4298 417.05L61.0652 425.412L83.5411 434.901L84.7947 416.107L61.8197 408.115H61.818ZM73.3475 412.864L77.6881 418.53L72.5829 420.564L72.7644 417.26L72.1006 417.015L71.9276 420.219L67.7567 415.059L73.3475 412.864ZM67.3685 414.578L62.7389 408.849L72.8871 412.397L67.3685 414.578ZM73.85 412.733L83.6453 416.158L78.157 418.344L73.8517 412.735L73.85 412.733ZM72.8686 421.108L78.0847 419.046L83.1731 425.689L77.7654 427.442L73.0467 421.604L78.7905 423.824L78.8174 423.397L72.8703 421.108H72.8686ZM71.7057 420.661L65.7788 418.381L65.7587 418.788L71.4839 421.001L66.7283 422.895L62.1407 417.262L67.3232 415.228L71.7057 420.661ZM71.857 421.508L71.6553 425.229L72.3124 425.494L72.5224 421.675L77.2982 427.595L71.9662 429.322L67.1265 423.38L71.8603 421.51L71.857 421.508ZM71.452 429.378L62.0012 425.404L66.7081 423.543L71.452 429.378ZM77.7116 428.107L82.474 434.012L72.4485 429.796L77.71 428.106L77.7116 428.107ZM78.1805 427.956L83.373 426.289L82.879 433.77L78.1805 427.956ZM78.5535 418.862L84.0049 416.707L83.4436 425.232L78.5552 418.862H78.5535ZM62.3944 409.117L66.9366 414.748L62.0617 416.675L62.3961 409.117H62.3944ZM66.3149 423.058L61.697 424.896L62.0113 417.766L66.3132 423.058H66.3149Z" fill="#ECB750"/>
</g>
<mask id="mask1_1_5027" style="mask-type:luminance" maskUnits="userSpaceOnUse" x="89" y="406" width="75" height="32">
<path d="M162.743 406.68L92.7447 415.759C92.7447 415.759 84.5441 431.282 94.7948 437.726L163.33 426.597C163.33 426.597 162.743 405.801 162.743 406.68Z" fill="white"/>
</mask>
<g mask="url(#mask1_1_5027)">
<g opacity="0.31">
<path d="M167.888 414.11L88.5352 424.74L88.5767 425.05L167.929 414.42L167.888 414.11Z" fill="#74481D"/>
</g>
<g opacity="0.31">
<path d="M167.888 419.071L88.5352 429.701L88.5767 430.011L167.929 419.38L167.888 419.071Z" fill="#74481D"/>
</g>
<g opacity="0.31">
<path d="M88.636 435.38L88.5906 435.073L167.828 423.617L167.874 423.926L88.636 435.38Z" fill="#74481D"/>
</g>
<g opacity="0.31">
<path d="M167.96 409.777L88.4507 419.16L88.4871 419.468L167.997 410.086L167.96 409.777Z" fill="#74481D"/>
</g>
</g>
<path d="M107.731 416.934C107.731 416.934 116.659 430.161 114.675 446.695L118.973 443.057L122.28 446.364C122.28 446.364 122.611 423.878 116.659 416.274L107.731 416.936V416.934Z" fill="#ECB750"/>
<path opacity="0.11" d="M25.6733 392.329C25.6733 392.329 91.1987 413.296 91.1987 414.289C91.1987 415.282 86.9001 422.226 87.8916 428.838L25.0649 404.038L25.6733 392.329Z" fill="white"/>
<path d="M36.8249 374.308C36.8249 374.308 31.6155 384.727 36.5879 396.565L106.674 418.349L159.712 403.798L155.239 402.679L154.244 382.794L159.238 381.411L92.9415 361.521L36.8249 374.308Z" fill="#5BA28B"/>
<path d="M155.113 382.546L105.489 393.013C105.489 393.013 97.9123 407.219 107.62 415.98L155.686 402.721L155.113 382.546Z" fill="white"/>
<path opacity="0.1" d="M134.462 387.051C136.27 387.047 138.08 386.987 139.883 386.842C140.693 386.777 141.5 386.689 142.306 386.599C142.451 386.582 142.557 386.568 142.634 386.56C142.817 386.532 143 386.505 143.183 386.476C146.23 385.953 149.245 385.317 152.236 384.532C153.209 384.276 154.179 384.006 155.147 383.729L155.113 382.546L133.792 387.042C134.015 387.042 134.238 387.051 134.462 387.049V387.051Z" fill="#74481D"/>
<path opacity="0.1" d="M133.474 404.687C126.37 404.621 119.267 403.874 112.184 403.385C109.025 403.166 105.864 402.845 102.792 402.203C102.332 406.656 103.106 411.906 107.62 415.98L155.686 402.721L155.657 401.723C148.431 403.527 141.094 404.759 133.472 404.689L133.474 404.687Z" fill="#74481D"/>
<path opacity="0.38" d="M37.5223 395.487C36.7863 393.932 36.3561 392.245 36.0587 390.549C35.7646 388.849 35.652 387.12 35.6806 385.394C35.689 384.962 35.7259 384.532 35.7478 384.102L35.7864 383.456L35.8621 382.814L36.0217 381.53L36.2637 380.26C36.4065 379.41 36.6653 378.585 36.8703 377.751C37.119 376.928 37.4114 376.118 37.7005 375.313C37.2971 376.982 36.8871 378.638 36.6468 380.327L36.4603 381.591L36.3376 382.861L36.2721 383.495L36.2402 384.132C36.2233 384.557 36.1897 384.98 36.1847 385.406C36.1427 387.105 36.2418 388.805 36.4401 390.494C36.5309 391.341 36.6871 392.179 36.8619 393.013C37.0333 393.848 37.2484 394.675 37.5223 395.488V395.487Z" fill="#2B3448"/>
<path opacity="0.38" d="M101.411 414.954C100.675 413.4 100.245 411.713 99.9473 410.017C99.6533 408.317 99.5407 406.588 99.5692 404.862C99.5776 404.43 99.6146 404 99.6364 403.569L99.6751 402.924L99.7507 402.282L99.9104 400.998L100.152 399.728C100.295 398.878 100.554 398.053 100.759 397.219C101.008 396.396 101.3 395.586 101.589 394.781C101.186 396.449 100.776 398.106 100.535 399.795L100.349 401.059L100.226 402.329L100.161 402.963L100.129 403.6C100.112 404.025 100.078 404.448 100.073 404.873C100.031 406.572 100.13 408.273 100.329 409.962C100.42 410.809 100.576 411.647 100.751 412.481C100.922 413.316 101.137 414.143 101.411 414.956V414.954Z" fill="#2B3448"/>
<g opacity="0.23">
<path d="M43.3803 390.702L53.3016 392.376L44.6255 385.577L39.8816 386.209L43.3803 390.702Z" fill="#2B3448"/>
<path d="M44.7516 385.259L54.157 392.603L48.1192 381.391L43.1064 379.282L44.7516 385.259Z" fill="#2B3448"/>
<path d="M43.3434 391.227L53.9352 392.835L44.5584 396.359L40.0901 394.31L43.3434 391.227Z" fill="#2B3448"/>
</g>
<path opacity="0.23" d="M58.5748 382.382C58.5748 382.382 54.2124 392.625 57.0573 402.489L68.0592 406.283C68.0592 406.283 65.594 389.781 70.5244 385.987L58.5748 382.382Z" fill="#2B3448"/>
<path opacity="0.23" d="M83.0436 389.78C83.0436 389.78 78.4913 400.972 81.5261 410.264L84.9408 411.592C84.9408 411.592 83.993 396.038 87.406 390.917L83.0436 389.78Z" fill="#2B3448"/>
<mask id="mask2_1_5027" style="mask-type:luminance" maskUnits="userSpaceOnUse" x="102" y="382" width="54" height="34">
<path d="M155.113 382.546L105.489 393.013C105.489 393.013 97.9123 407.219 107.62 415.98L155.686 402.721L155.113 382.546Z" fill="white"/>
</mask>
<g mask="url(#mask2_1_5027)">
<g opacity="0.27">
<path d="M160.226 382.688L103.25 395.007L103.303 395.254L160.279 382.935L160.226 382.688Z" fill="#74481D"/>
<path d="M159.269 385.442L102.385 398.178L102.44 398.424L159.324 385.688L159.269 385.442Z" fill="#74481D"/>
<path d="M158.555 387.947L101.885 401.605L101.944 401.85L158.614 388.193L158.555 387.947Z" fill="#74481D"/>
<path d="M158.31 390.718L101.642 404.375L101.701 404.62L158.369 390.963L158.31 390.718Z" fill="#74481D"/>
<path d="M158.383 393.486L101.715 407.143L101.774 407.388L158.443 393.731L158.383 393.486Z" fill="#74481D"/>
<path d="M158.778 396.082L102.107 409.74L102.166 409.985L158.837 396.327L158.778 396.082Z" fill="#74481D"/>
<path d="M104.666 414.882L104.604 414.639L161.075 400.182L161.137 400.427L104.666 414.882Z" fill="#74481D"/>
<path d="M159.992 398.322L103.324 411.979L103.383 412.224L160.051 398.567L159.992 398.322Z" fill="#74481D"/>
</g>
</g>
<path opacity="0.11" d="M36.8248 374.308L105.489 393.013C105.489 393.013 102.769 399.642 102.391 402.867L34.4856 382.003C34.4856 382.003 35.5611 375.528 36.8248 374.308Z" fill="white"/>
<path opacity="0.1" d="M36.003 396.418L106.674 418.347C106.674 418.347 102.725 416.808 101.443 409.885L34.4856 389.588C34.4856 389.588 35.4334 395.278 36.003 396.418Z" fill="#2B3448"/>
<path d="M469.456 361.752L466.011 360.142C461.592 357.73 464.403 343.265 464.403 343.265L424.877 354.702L357.915 338.042C355.705 346.414 357.514 357.44 357.514 357.44L419.416 374.34L419.397 374.409L424.822 375.815C471.034 362.353 469.456 361.753 469.456 361.753V361.752Z" fill="#DE6C6B"/>
<path d="M425.751 354.991L470.155 341.731L403.248 327.466L357.915 338.041L425.751 354.991Z" fill="#DE6C6B"/>
<path opacity="0.37" d="M358.866 356.855C358.535 355.521 358.337 354.155 358.198 352.785C358.056 351.415 358.014 350.034 358.038 348.656C358.077 347.276 358.211 345.899 358.455 344.539C358.712 343.181 359.097 341.849 359.641 340.587C359.478 341.257 359.253 341.902 359.142 342.58C358.977 343.242 358.886 343.921 358.779 344.593C358.614 345.946 358.495 347.303 358.465 348.668C358.429 350.031 358.461 351.397 358.524 352.761C358.555 353.444 358.603 354.128 358.665 354.808C358.71 355.492 358.789 356.173 358.866 356.855Z" fill="#2B3448"/>
<path opacity="0.37" d="M421.387 373.654C421.056 372.32 420.858 370.954 420.718 369.584C420.577 368.215 420.535 366.833 420.558 365.455C420.597 364.076 420.731 362.698 420.975 361.338C421.232 359.982 421.617 358.648 422.162 357.386C421.999 358.056 421.773 358.702 421.662 359.379C421.498 360.041 421.407 360.72 421.299 361.392C421.135 362.745 421.015 364.103 420.985 365.467C420.95 366.83 420.98 368.196 421.044 369.561C421.076 370.243 421.123 370.927 421.185 371.608C421.231 372.291 421.31 372.972 421.387 373.654Z" fill="#2B3448"/>
<path opacity="0.37" d="M361.637 340.232C366.468 341.422 371.288 342.659 376.106 343.9L390.544 347.678L404.957 351.552L412.155 353.523L419.34 355.538L412.101 353.726L404.873 351.871L390.435 348.091L376.022 344.216C371.222 342.907 366.423 341.592 361.637 340.232Z" fill="#2B3448"/>
<g opacity="0.41">
<path d="M374.066 360.775L360.797 356.892L361.555 341.711L374.608 345.162L374.066 360.775ZM361.247 356.751L373.617 360.365L374.148 345.312L361.973 342.086L361.249 356.751H361.247Z" fill="white"/>
<path d="M367.68 351.367L361.499 345.759L368.007 343.635L374.338 349.249L367.68 351.367ZM362.111 345.925L367.695 350.987L373.697 349.076L367.991 344.01L362.111 345.925Z" fill="white"/>
<path d="M367.289 355.39L361.089 349.695L367.621 347.591L373.973 353.294L367.289 355.391V355.39ZM361.703 349.866L367.305 355.006L373.331 353.114L367.606 347.967L361.704 349.866H361.703Z" fill="white"/>
<path d="M367.147 358.71L360.926 352.94L367.482 350.851L373.856 356.628L367.147 358.708V358.71ZM361.543 353.116L367.164 358.324L373.212 356.445L367.467 351.23L361.543 353.116Z" fill="white"/>
</g>
<g opacity="0.41">
<path d="M388.702 365.003L375.434 361.12L376.191 345.939L389.245 349.39L388.702 365.003ZM375.884 360.979L388.254 364.593L388.785 349.54L376.61 346.314L375.886 360.979H375.884Z" fill="white"/>
<path d="M382.317 355.596L376.136 349.989L382.645 347.865L388.975 353.479L382.317 355.596ZM376.748 350.155L382.332 355.217L388.335 353.306L382.628 348.239L376.748 350.155Z" fill="white"/>
<path d="M381.925 359.618L375.726 353.923L382.258 351.819L388.61 357.522L381.925 359.619V359.618ZM376.339 354.094L381.942 359.235L387.968 357.342L382.243 352.195L376.341 354.094H376.339Z" fill="white"/>
<path d="M381.784 362.94L375.565 357.169L382.12 355.08L388.494 360.858L381.786 362.938L381.784 362.94ZM376.18 357.346L381.801 362.553L387.849 360.675L382.104 355.46L376.18 357.346Z" fill="white"/>
</g>
<g opacity="0.41">
<path d="M403.758 369.233L390.489 365.35L391.247 350.168L404.3 353.62L403.758 369.233ZM390.939 365.208L403.309 368.823L403.84 353.77L391.665 350.543L390.941 365.208H390.939Z" fill="white"/>
<path d="M397.372 359.824L391.191 354.217L397.7 352.093L404.03 357.707L397.372 359.824ZM391.803 354.383L397.387 359.444L403.39 357.534L397.683 352.467L391.803 354.383Z" fill="white"/>
<path d="M396.98 363.847L390.781 358.152L397.313 356.048L403.665 361.752L396.98 363.849V363.847ZM391.395 358.324L396.997 363.464L403.023 361.572L397.298 356.425L391.396 358.324H391.395Z" fill="white"/>
<path d="M396.839 367.169L390.618 361.399L397.174 359.31L403.547 365.087L396.839 367.168V367.169ZM391.235 361.575L396.856 366.783L402.904 364.904L397.158 359.69L391.235 361.575Z" fill="white"/>
</g>
<g opacity="0.41">
<path d="M418.828 373.244L405.559 369.361L406.317 354.18L419.371 357.631L418.828 373.244ZM406.009 369.22L418.379 372.834L418.91 357.781L406.735 354.554L406.011 369.22H406.009Z" fill="white"/>
<path d="M412.442 363.837L406.262 358.23L412.77 356.105L419.1 361.72L412.442 363.837ZM406.873 358.396L412.457 363.457L418.46 361.547L412.753 356.48L406.873 358.396Z" fill="white"/>
<path d="M412.051 367.86L405.852 362.165L412.383 360.061L418.735 365.765L412.051 367.862V367.86ZM406.465 362.337L412.066 367.477L418.092 365.585L412.367 360.438L406.465 362.337Z" fill="white"/>
<path d="M411.909 371.181L405.688 365.41L412.244 363.321L418.618 369.099L411.909 371.179V371.181ZM406.305 365.587L411.926 370.794L417.974 368.915L412.229 363.701L406.305 365.587Z" fill="white"/>
</g>
<mask id="mask3_1_5027" style="mask-type:luminance" maskUnits="userSpaceOnUse" x="423" y="345" width="45" height="30">
<path d="M426.121 354.292C426.121 354.292 420.868 364.83 424.471 374.755L467.579 360.817C467.579 360.817 463.941 354.032 467.339 345.665L426.121 354.292Z" fill="white"/>
</mask>
<g mask="url(#mask3_1_5027)">
<path d="M426.121 354.292C426.121 354.292 420.868 364.83 424.471 374.755L467.579 360.817C467.579 360.817 464.771 351.311 468.167 342.944L426.119 354.292H426.121Z" fill="white"/>
<path opacity="0.1" d="M459.014 361.953C453.067 364.23 447.133 366.035 440.749 366.511C434.427 366.981 427.961 365.415 424.078 360.241C423.13 364.175 422.582 369.549 424.473 374.757L467.581 360.819C467.581 360.819 467.366 360.09 467.127 358.86C464.4 359.829 461.713 360.922 459.016 361.953H459.014Z" fill="#74481D"/>
<g opacity="0.22">
<path d="M468.901 347.839L422.122 358.184L422.191 358.497L468.971 348.152L468.901 347.839Z" fill="#74481D"/>
<path d="M468.879 350.415L422.276 361.526L422.35 361.839L468.953 350.728L468.879 350.415Z" fill="#74481D"/>
<path d="M468.508 353.846L421.905 364.957L421.98 365.269L468.583 354.158L468.508 353.846Z" fill="#74481D"/>
<path d="M468.203 356.163L421.782 368.013L421.862 368.324L468.282 356.474L468.203 356.163Z" fill="#74481D"/>
<path d="M468.345 358.698L422.338 372.064L422.428 372.372L468.435 359.006L468.345 358.698Z" fill="#74481D"/>
</g>
</g>
<path opacity="0.11" d="M423.528 356.248L357.705 339.104C357.705 339.104 356.646 343.549 357.282 346.088L423.104 363.656L425.01 356.46L423.528 356.248Z" fill="white"/>
<path opacity="0.1" d="M357.513 357.436L424.822 375.812C424.822 375.812 423.316 369.581 423.316 368.946L357.281 352.225C357.281 352.225 356.897 356.295 357.512 357.435L357.513 357.436Z" fill="#2B3448"/>
<path d="M36.487 356.842C36.487 356.842 35.0922 365.447 36.2551 371.028C36.2551 371.028 84.63 397.308 88.1185 398.239C91.6071 399.17 158.356 386.379 158.356 386.379L149.518 384.285L149.1 368.549L157.193 367.074L100.91 344.514L36.487 356.84V356.842Z" fill="#ECB750"/>
<path d="M151.844 368.005L89.0494 378.005C89.0494 378.005 85.4045 389.556 89.0494 395.913L153.609 384.975C153.609 384.975 152.076 376.842 151.844 368.005Z" fill="white"/>
<path opacity="0.1" d="M120.089 388.827C109.232 389.237 97.3559 388.857 87.7623 383.977C87.233 387.763 87.1271 392.561 89.0495 395.915L153.609 384.977C153.609 384.977 153.585 384.853 153.543 384.618C142.499 386.814 131.333 388.404 120.087 388.827H120.089Z" fill="#74481D"/>
<g opacity="0.35">
<path d="M41.6259 359.92L38.8733 358.839L37.5088 364.528L38.749 371.243L41.4225 372.636L42.9366 367.011L41.6259 359.92Z" stroke="#2B3448" stroke-miterlimit="10"/>
<path d="M40.7956 363.187L39.5807 362.666L38.9556 365.19L39.5152 368.221L40.715 368.805L41.3687 366.294L40.7956 363.187Z" fill="#2B3448"/>
<path d="M42.9568 373.436L37.45 370.567L37.5407 358.203L43.2088 360.422L42.9568 373.436Z" stroke="#2B3448" stroke-miterlimit="10"/>
<path d="M58.5882 366.585L54.8425 365.113L52.7705 371.513L54.214 379.302L57.8236 381.183L60.1292 374.883L58.5882 366.585Z" stroke="#2B3448" stroke-miterlimit="10"/>
<path d="M57.3179 370.278L55.6694 369.571L54.72 372.406L55.3737 375.931L56.9953 376.719L57.9918 373.903L57.3179 370.278Z" fill="#2B3448"/>
<path d="M59.9091 382.268L52.4731 378.395L53.0445 364.276L60.7644 367.299L59.9091 382.268Z" stroke="#2B3448" stroke-miterlimit="10"/>
<path d="M82.4806 375.972L77.0831 373.851L73.8096 381.144L75.5354 390.412L80.6725 393.087L84.3476 385.968L82.4806 375.972Z" stroke="#2B3448" stroke-miterlimit="10"/>
<path d="M80.4457 380.201L78.078 379.186L76.5757 382.411L77.3588 386.619L79.6744 387.745L81.2574 384.555L80.4457 380.201Z" fill="#2B3448"/>
<path d="M83.6688 394.648L73.0803 389.131L74.5221 372.688L85.6534 377.049L83.6688 394.648Z" stroke="#2B3448" stroke-miterlimit="10"/>
<path d="M48.052 376.145L46.842 375.515L47.2185 361.994L48.4687 362.483L48.052 376.145Z" fill="#2B3448"/>
<path d="M66.4879 385.76L64.9016 384.933L65.9721 369.339L67.6273 369.988L66.4879 385.76Z" fill="#2B3448"/>
</g>
<path opacity="0.11" d="M36.487 356.842L89.0478 378.005C89.0478 378.005 87.3623 384.413 87.4884 385.918L35.9072 361.947C35.9072 361.947 36.1879 357.383 36.487 356.842Z" fill="white"/>
<path opacity="0.26" d="M36.2551 371.028L88.1185 398.239C88.1185 398.239 85.9827 395.08 86.1087 389.432L35.9072 366.465C35.9072 366.465 35.9744 370.446 36.2551 371.028Z" fill="#DC903C"/>
<mask id="mask4_1_5027" style="mask-type:luminance" maskUnits="userSpaceOnUse" x="87" y="368" width="67" height="28">
<path d="M151.844 368.005L89.0494 378.005C89.0494 378.005 85.4045 389.556 89.0494 395.913L153.609 384.975C153.609 384.975 152.076 376.842 151.844 368.005Z" fill="white"/>
</mask>
<g mask="url(#mask4_1_5027)">
<g opacity="0.44">
<path d="M153.474 369.995L86.2793 381.143L86.32 381.389L153.515 370.241L153.474 369.995Z" fill="#74481D"/>
</g>
<g opacity="0.44">
<path d="M153.698 372.791L86.5034 383.939L86.5441 384.184L153.739 373.036L153.698 372.791Z" fill="#74481D"/>
</g>
<g opacity="0.44">
<path d="M153.439 375.879L86.2444 387.027L86.2851 387.272L153.48 376.124L153.439 375.879Z" fill="#74481D"/>
</g>
<g opacity="0.44">
<path d="M153.566 378.96L86.3733 390.12L86.414 390.365L153.607 379.206L153.566 378.96Z" fill="#74481D"/>
</g>
<g opacity="0.44">
<path d="M153.689 382.341L86.4958 393.501L86.5366 393.746L153.729 382.586L153.689 382.341Z" fill="#74481D"/>
</g>
</g>
<path d="M293.806 414.543C294.762 410.58 295.525 406.572 296.092 402.536C296.253 401.388 296.399 400.239 296.53 399.086C296.555 398.861 296.318 398.666 296.11 398.666C295.861 398.666 295.715 398.859 295.69 399.086C295.238 403.072 294.593 407.035 293.759 410.958C293.52 412.083 293.265 413.203 292.996 414.319C292.87 414.845 293.68 415.069 293.806 414.543Z" fill="#DE6C6B"/>
<path d="M293.509 413.924C290.694 412.972 287.824 412.182 284.915 411.567C284.086 411.392 283.255 411.231 282.419 411.083C282.196 411.042 281.967 411.143 281.902 411.377C281.846 411.58 281.971 411.854 282.196 411.894C285.123 412.414 288.019 413.103 290.864 413.961C291.675 414.207 292.482 414.465 293.283 414.738C293.796 414.911 294.018 414.101 293.507 413.928L293.509 413.924Z" fill="#DE6C6B"/>
<path d="M295.05 407.408C292.556 406.199 289.882 405.437 287.128 405.141C286.903 405.117 286.708 405.351 286.708 405.561C286.708 405.808 286.901 405.957 287.128 405.981C289.724 406.26 292.277 406.994 294.626 408.134C294.83 408.233 295.08 408.189 295.201 407.982C295.309 407.798 295.255 407.507 295.05 407.408Z" fill="#DE6C6B"/>
<path d="M285.666 398.819C285.307 400.439 284.947 402.061 284.587 403.68C284.47 404.208 285.28 404.432 285.397 403.904C285.757 402.284 286.117 400.662 286.476 399.042C286.594 398.515 285.784 398.291 285.666 398.819Z" fill="#DE6C6B"/>
<path d="M282.897 400.837C284.743 401.198 286.599 401.513 288.461 401.776C288.686 401.808 288.913 401.721 288.978 401.482C289.032 401.286 288.911 400.998 288.684 400.965C286.822 400.699 284.965 400.387 283.12 400.025C282.898 399.982 282.666 400.089 282.603 400.32C282.545 400.526 282.671 400.792 282.897 400.837Z" fill="#DE6C6B"/>
<path d="M288.063 394.937C285.021 394.715 281.897 395.083 279.096 396.33C276.479 397.496 274.273 399.503 273.048 402.113C272.456 403.375 272.09 404.741 272.05 406.139C272.008 407.554 272.324 408.947 272.939 410.217C274.251 412.935 276.78 414.864 279.494 416.049C280.993 416.704 282.559 417.176 284.147 417.561C285.871 417.978 287.617 418.299 289.375 418.531C291.133 418.762 292.872 418.907 294.628 418.941C296.371 418.974 298.138 418.868 299.827 418.411C302.645 417.648 305.19 415.82 306.336 413.076C306.942 411.621 307.141 410.024 307.152 408.458C307.166 406.803 307.016 405.124 306.692 403.501C306.095 400.506 304.627 397.752 302.363 395.687C300.1 393.621 297.085 392.331 293.979 392.106C293.21 392.05 292.437 392.062 291.669 392.138C291.444 392.159 291.249 392.314 291.249 392.558C291.249 392.768 291.442 393 291.669 392.978C294.655 392.68 297.7 393.41 300.207 395.063C302.486 396.566 304.287 398.824 305.232 401.387C305.798 402.924 306.08 404.549 306.216 406.178C306.341 407.68 306.388 409.218 306.134 410.708C305.897 412.101 305.396 413.461 304.496 414.565C303.649 415.602 302.555 416.398 301.348 416.968C298.431 418.346 295.023 418.211 291.887 417.958C288.597 417.692 285.285 417.124 282.132 416.136C279.326 415.257 276.612 413.871 274.752 411.528C273.927 410.49 273.318 409.266 273.044 407.966C272.784 406.722 272.855 405.423 273.176 404.198C273.841 401.654 275.53 399.437 277.731 398.019C280.163 396.453 283.07 395.786 285.937 395.72C286.646 395.703 287.357 395.725 288.064 395.776C288.291 395.793 288.484 395.571 288.484 395.356C288.484 395.115 288.291 394.952 288.064 394.935L288.063 394.937Z" fill="#DE6C6B"/>
<path d="M194.628 310.478L169.985 334.253C168.089 324.379 145.971 298.96 145.971 298.96C145.971 298.96 179.676 274.381 186.779 266.399C190.179 262.579 195.017 260.922 200.177 260.334H200.179C200.179 260.334 208.312 295.339 194.628 310.478Z" fill="white"/>
<path d="M339.279 295.81C339.279 295.81 318.008 317.596 316.112 327.471L285.33 309.814C268.275 301.595 279.033 259.929 279.119 259.603C285.417 259.796 291.379 261.15 294.75 265.348C301.158 273.33 339.279 295.81 339.279 295.81Z" fill="white"/>
<path d="M250.807 261.991C249.409 266.548 242.566 268.106 236.375 265.705C233.9 264.745 232.803 264.068 231.474 261.992C231.474 261.992 230.287 259.615 230.227 259.435C229.726 257.973 230.023 257.677 231.534 257.289C235.513 256.272 246.69 253.429 248.592 253.747C250.447 254.056 252.002 255.066 251.553 258.724C251.437 259.638 251.197 260.715 250.807 261.991Z" fill="#010101"/>
<path d="M250.805 261.957C249.431 266.523 242.638 268.523 235.913 265.521C237.573 259.445 248.755 258.662 251.531 258.689C251.424 259.601 251.188 260.68 250.805 261.957Z" fill="#B82626"/>
<path opacity="0.46" d="M262.174 244.652C271.093 244.652 278.324 236.61 278.324 226.69C278.324 216.769 271.093 208.727 262.174 208.727C253.254 208.727 246.023 216.769 246.023 226.69C246.023 236.61 253.254 244.652 262.174 244.652Z" fill="#63C8D2"/>
<path d="M262.174 244.652C271.093 244.652 278.324 236.61 278.324 226.69C278.324 216.769 271.093 208.727 262.174 208.727C253.254 208.727 246.023 216.769 246.023 226.69C246.023 236.61 253.254 244.652 262.174 244.652Z" stroke="#9E7A2C" stroke-width="0.5" stroke-miterlimit="10"/>
<path opacity="0.46" d="M213.105 244.652C222.025 244.652 229.256 236.61 229.256 226.69C229.256 216.769 222.025 208.727 213.105 208.727C204.185 208.727 196.954 216.769 196.954 226.69C196.954 236.61 204.185 244.652 213.105 244.652Z" fill="#63C8D2"/>
<path d="M213.105 244.652C222.025 244.652 229.256 236.61 229.256 226.69C229.256 216.769 222.025 208.727 213.105 208.727C204.185 208.727 196.954 216.769 196.954 226.69C196.954 236.61 204.185 244.652 213.105 244.652Z" stroke="#9E7A2C" stroke-width="0.5" stroke-miterlimit="10"/>
<path d="M229.121 224.411H246.025" stroke="#9E7A2C" stroke-width="0.5" stroke-miterlimit="10"/>
<path d="M277.395 220.67L284.234 210.329" stroke="#9E7A2C" stroke-width="0.5" stroke-miterlimit="10"/>
<path d="M197.885 220.67L194.576 218.185" stroke="#9E7A2C" stroke-width="0.5" stroke-miterlimit="10"/>
</g>
</g>
<defs>
<linearGradient id="paint0_linear_1_5027" x1="319.967" y1="-52.7575" x2="319.967" y2="429.361" gradientUnits="userSpaceOnUse">
<stop stop-color="#F3D8C3"/>
<stop offset="1" stop-color="#F3E7DC"/>
</linearGradient>
<linearGradient id="paint1_linear_1_5027" x1="322.359" y1="277.195" x2="322.359" y2="327.261" gradientUnits="userSpaceOnUse">
<stop stop-color="#F3D8C3"/>
<stop offset="1" stop-color="#F3E7DC"/>
</linearGradient>
<linearGradient id="paint2_linear_1_5027" x1="322.358" y1="-7.46295" x2="322.358" y2="15.6986" gradientUnits="userSpaceOnUse">
<stop stop-color="#F3D8C3"/>
<stop offset="1" stop-color="#F3E7DC" stop-opacity="0"/>
</linearGradient>
<linearGradient id="paint3_linear_1_5027" x1="-2.52441" y1="406.043" x2="503.834" y2="406.043" gradientUnits="userSpaceOnUse">
<stop stop-color="#D1573C"/>
<stop offset="1" stop-color="#F8A37C"/>
</linearGradient>
<linearGradient id="paint4_linear_1_5027" x1="238.585" y1="299.24" x2="238.286" y2="266.138" gradientUnits="userSpaceOnUse">
<stop offset="0.61" stop-color="#F8BBA8"/>
<stop offset="0.91" stop-color="#EF8981"/>
</linearGradient>
<linearGradient id="paint5_linear_1_5027" x1="227.6" y1="458.382" x2="125.808" y2="286.765" gradientUnits="userSpaceOnUse">
<stop offset="0.69" stop-color="#FABCA8"/>
<stop offset="1" stop-color="#F58F87"/>
</linearGradient>
<linearGradient id="paint6_linear_1_5027" x1="255.05" y1="458.382" x2="356.841" y2="286.765" gradientUnits="userSpaceOnUse">
<stop offset="0.69" stop-color="#FABCA8"/>
<stop offset="1" stop-color="#F58F87"/>
</linearGradient>
<linearGradient id="paint7_linear_1_5027" x1="181.996" y1="222.756" x2="194.576" y2="222.756" gradientUnits="userSpaceOnUse">
<stop offset="0.61" stop-color="#F8BBA8"/>
<stop offset="0.91" stop-color="#EF8981"/>
</linearGradient>
<linearGradient id="paint8_linear_1_5027" x1="313.198" y1="213.702" x2="275.025" y2="218.993" gradientUnits="userSpaceOnUse">
<stop offset="0.61" stop-color="#F8BBA8"/>
<stop offset="0.91" stop-color="#EF8981"/>
</linearGradient>
<linearGradient id="paint9_linear_1_5027" x1="246.112" y1="309.152" x2="236.663" y2="184.428" gradientUnits="userSpaceOnUse">
<stop offset="0.61" stop-color="#F8BBA8"/>
<stop offset="0.91" stop-color="#EF8981"/>
</linearGradient>
<clipPath id="clip0_1_5027">
<rect width="500" height="500" rx="250" fill="white"/>
</clipPath>
<clipPath id="clip1_1_5027">
<rect width="504.132" height="504.132" fill="white" transform="translate(-3.09912 -4.1322)"/>
</clipPath>
</defs>
</svg>
