<svg width="500" height="500" viewBox="0 0 500 500" fill="none" xmlns="http://www.w3.org/2000/svg">
<g clip-path="url(#clip0_1_4694)">
<rect width="500" height="500" rx="250" fill="white"/>
<path d="M142.592 332.806L142.356 333.042C139.166 326.073 137.158 318.158 136.331 309.417C137.158 318.04 139.403 325.837 142.592 332.806Z" fill="#DFDFDF"/>
<path d="M218.431 230.864C233.958 230.864 246.545 218.276 246.545 202.749C246.545 187.222 233.958 174.635 218.431 174.635C202.904 174.635 190.317 187.222 190.317 202.749C190.317 218.276 202.904 230.864 218.431 230.864Z" fill="#DFDFDF"/>
<path d="M303.365 131.872H204.374C161.376 131.872 135.742 157.506 135.742 200.504V299.495C135.742 312.37 137.987 323.593 142.357 333.043C152.516 355.487 174.252 368.126 204.374 368.126H303.365C346.363 368.126 371.996 342.493 371.996 299.495V272.443V200.504C371.996 157.506 346.363 131.872 303.365 131.872ZM352.742 255.906C343.528 247.991 328.644 247.991 319.43 255.906L270.289 298.077C261.075 305.992 246.191 305.992 236.977 298.077L232.961 294.77C224.574 287.446 211.225 286.737 201.775 293.116L157.596 322.766C154.997 316.151 153.461 308.472 153.461 299.495V200.504C153.461 167.192 171.062 149.591 204.374 149.591H303.365C336.676 149.591 354.277 167.192 354.277 200.504V257.205L352.742 255.906Z" fill="#DFDFDF"/>
<g clip-path="url(#clip1_1_4694)">
<path d="M592.823 282.344H-67.4585V535.124H592.823V282.344Z" fill="#B16598"/>
<path d="M590.55 -50.4225H-69.7319V292.907H590.55V-50.4225Z" fill="url(#paint0_linear_1_4694)"/>
<path d="M592.823 257.253H-67.4585V292.907H592.823V257.253Z" fill="url(#paint1_linear_1_4694)"/>
<path d="M592.823 284.545H-67.4585V292.909H592.823V284.545Z" fill="#6F401E"/>
<path d="M592.823 284.545H-67.4585V286.635H592.823V284.545Z" fill="#BB6D33"/>
<path d="M57.2724 62.165H-40.2178V297.738H57.2724V62.165Z" fill="#E1BC8A"/>
<path d="M18.1112 35.8423C27.7851 31.7552 32.3141 20.5996 28.2269 10.9257C24.1398 1.25181 12.9842 -3.27714 3.31034 0.810007C-6.36356 4.89716 -10.8925 16.0527 -6.80537 25.7266C-2.71822 35.4005 8.43732 39.9295 18.1112 35.8423Z" fill="#E7BB97"/>
<path d="M8.52646 34.5322C19.0279 34.5322 27.541 26.0191 27.541 15.5177C27.541 5.01625 19.0279 -3.49683 8.52646 -3.49683C-1.97496 -3.49683 -10.488 5.01625 -10.488 15.5177C-10.488 26.0191 -1.97496 34.5322 8.52646 34.5322Z" fill="#932A8E"/>
<path d="M27.5429 15.5177C27.5429 26.0215 19.0302 34.5342 8.52638 34.5342C8.17489 34.5342 7.82138 34.5261 7.47803 34.4997C17.4962 33.9633 25.4462 25.67 25.4462 15.5197C25.4462 5.36947 17.4962 -2.92384 7.47803 -3.46021C7.82138 -3.48662 8.17286 -3.49475 8.52638 -3.49475C19.0302 -3.49881 27.5429 5.01393 27.5429 15.5177Z" fill="#5D1E59"/>
<path d="M7.62029 31.4907C16.442 31.4907 23.5934 24.3393 23.5934 15.5176C23.5934 6.69595 16.442 -0.455444 7.62029 -0.455444C-1.20139 -0.455444 -8.35278 6.69595 -8.35278 15.5176C-8.35278 24.3393 -1.20139 31.4907 7.62029 31.4907Z" fill="#F1F0F8"/>
<path d="M9.09944 31.4156C8.6159 31.4603 8.1222 31.4867 7.62038 31.4867C-1.20118 31.4867 -8.34863 24.3372 -8.34863 15.5177C-8.34863 6.69819 -1.19915 -0.451294 7.62038 -0.451294C8.1222 -0.451294 8.6159 -0.424881 9.09944 -0.380184C0.972717 0.367475 -5.38238 7.20001 -5.38238 15.5197C-5.38238 23.8395 0.972717 30.668 9.09944 31.4156Z" fill="#D1CEE7"/>
<path d="M9.61752 6.8363L6.34448 15.926L10.7085 24.199" stroke="#5D1E59" stroke-width="1.6521" stroke-miterlimit="10"/>
<path d="M7.48022 1.13745V4.51207" stroke="#5D1E59" stroke-miterlimit="10"/>
<path d="M7.48022 25.8V29.1747" stroke="#5D1E59" stroke-miterlimit="10"/>
<path d="M21.4989 15.156H18.1243" stroke="#5D1E59" stroke-miterlimit="10"/>
<path d="M57.2704 62.165L86.7379 297.738H50.9519V70.5396L57.2704 62.165Z" fill="#F3D8C3"/>
<path d="M57.2704 62.165H27.0349V297.738H57.2704V62.165Z" fill="#9C5C28"/>
<path d="M50.9518 297.738V118.52L45.2306 133.928V288.726V297.738H39.9482V179.952L36.4253 194.673V297.738H50.9518Z" fill="#BD7D4E"/>
<path d="M20.1395 70.5397H-33.564V131.285H20.1395V70.5397Z" fill="#79382F"/>
<path d="M-33.564 139.649L20.1395 136.862V200.397H-33.564V139.649Z" fill="#79382F"/>
<path d="M-33.564 206.264L20.1395 208.759V269.504H-33.564V206.264Z" fill="#79382F"/>
<path d="M4.87959 92.5103H-11.896V131.287H4.87959V92.5103Z" fill="#67204F"/>
<path d="M11.8564 230.729H-4.91919V269.506H11.8564V230.729Z" fill="#236758"/>
<path d="M13.0246 99.4464H-0.750244V131.287H13.0246V99.4464Z" fill="#2A6733"/>
<path d="M4.12162 199.076L-3.89133 196.597V187.664H-6.05914H-8.22491V196.597L-16.2379 199.076L-16.634 199.472H4.5178L4.12162 199.076Z" fill="#1A1A1A"/>
<path d="M-16.6339 199.472L-17.5583 200.396H-6.05904H5.44231L4.51789 199.472H-16.6339Z" fill="#333333"/>
<path d="M15.1091 164.899C15.1091 176.664 5.57243 186.201 -6.19303 186.201C-9.20804 186.201 -12.0768 185.575 -14.6753 184.442L2.66307 145.519C10.0076 148.879 15.1091 156.293 15.1091 164.899Z" stroke="#1A1A1A" stroke-width="1.0967" stroke-miterlimit="10"/>
<path d="M-6.19315 183.651C4.16353 183.651 12.5593 175.256 12.5593 164.899C12.5593 154.542 4.16353 146.147 -6.19315 146.147C-16.5498 146.147 -24.9456 154.542 -24.9456 164.899C-24.9456 175.256 -16.5498 183.651 -6.19315 183.651Z" fill="#2BAAE2"/>
<path d="M0.214752 168.063L-0.459768 168.835L-2.34314 169.751L-2.77792 170.765L-5.43332 172.091H-6.9774L-8.47475 173.902L-12.8672 174.964L-14.2671 176.508L-14.6775 178.006L-15.3276 178.343L-16.0509 176.413L-15.5206 173.083L-13.9278 169.365C-13.9278 169.365 -13.493 167.242 -13.493 167.047C-13.493 166.854 -15.7624 162.943 -15.7624 162.943L-14.6775 160.964L-13.0603 160.048L-12.4325 159.034L-14.1695 157.683L-14.6775 156.185L-16.6319 154.158L-17.404 152.951L-16.6319 152.035L-15.6181 149.887L-16.6319 151.407L-17.2597 152.035H-17.6458L-16.6807 150.537L-15.6202 148.684C-13.2431 147.299 -10.5369 146.421 -7.64379 146.2L-8.37723 147.979L-6.44713 149.138H-3.64747V149.958L-4.8807 150.73L-6.08143 150.489L-7.28215 151.405L-9.29351 151.984L-10.0168 153.914H-11.0306L-10.6933 152.803L-10.5958 151.789L-11.6096 151.452L-13.107 151.354L-14.265 151.982L-15.3743 153.672L-14.6754 154.156L-13.491 153.672L-12.5259 153.865L-14.0233 154.589L-13.2025 155.458L-13.2512 156.086L-13.686 156.616L-13.493 157.725L-12.4792 158.449L-10.2586 158.063L-7.98917 159.367L-6.19317 162.022L-4.56173 163.036L-4.61049 164.893L-3.11314 165.208L-2.87137 166.222L0.214752 168.063Z" fill="#A77D52"/>
<path d="M11.0356 157.483L10.3082 158.312V159.133H9.9466L9.00391 157.154L9.43868 156.719L9.68045 155.899L10.1091 155.624C10.4525 156.224 10.7613 156.843 11.0356 157.483Z" fill="#A77D52"/>
<path d="M10.2554 173.912L10.8873 170.476L10.5967 169.269L9.0039 168.834L7.65283 168.158L7.26681 165.86L6.83203 162.896L7.84584 161.833V161.398L9.0039 160.529L10.3082 159.515H10.8873L11.9112 159.986V159.988C12.3359 161.553 12.5614 163.198 12.5614 164.897C12.5614 169.919 10.5886 174.48 7.37246 177.847L7.79708 176.313L10.2554 173.912Z" fill="#A77D52"/>
<path opacity="0.3" d="M10.7572 172.932C7.74832 179.269 1.28961 183.654 -6.19307 183.654C-16.5506 183.654 -24.9475 175.259 -24.9475 164.899C-24.9475 159.44 -22.6151 154.523 -18.8911 151.096C-20.0471 153.53 -20.6952 156.256 -20.6952 159.131C-20.6952 169.489 -12.2983 177.886 -1.94076 177.886C2.95762 177.886 7.41716 176.008 10.7572 172.932Z" fill="#2BAAE2"/>
<path d="M79.5193 301.785H116.981L92.7821 295.469L79.5193 301.785Z" fill="#F3D8C3"/>
<path d="M96.8536 249.256V246.999L95.3644 246.089L93.989 245.567L92.1442 244.411H90.0902H88.3693L87.2682 244.933L86.5794 246.172L82.7517 246.833L82.3108 249.256L82.9183 251.046L82.063 253.306L82.6969 254.159L82.5039 254.986L82.063 255.811L83.7168 258.208L85.0374 257.877L86.3316 258.344L87.5445 259.722L93.4932 259.915L95.145 258.07L95.5025 256.721L97.4855 255.398L98.3957 252.397L97.7882 251.735L98.1194 250.91L96.8536 249.256Z" fill="#E8E7F4"/>
<path d="M84.8728 247.357C84.9561 247.328 87.3515 246.558 87.3515 246.558L88.729 248.322L87.6278 247.688C87.6278 247.688 88.152 249.754 88.2068 249.836C88.2617 249.919 89.9419 251.02 89.9419 251.02L90.2304 251.432L88.2617 251.323L84.5437 252.162L83.2495 250.274L83.7168 249.064L84.5437 248.651L86.7399 250.11L87.3535 250.799L87.1056 248.651L85.783 248.21L84.0195 248.265L84.8728 247.357Z" fill="#DAD8EC"/>
<path d="M89.2246 256.28L93.8792 254.683L93.4932 254.516H91.5509L90.8764 253.746L91.0409 252.617L87.4896 253.196L85.9475 254.626L88.481 253.637L90.2283 253.692V254.447L89.6655 255.729L88.865 256.28H89.2246Z" fill="#DAD8EC"/>
<path d="M88.1782 245.979L89.1412 246.558L91.565 247.521L91.7296 247.109L90.8214 245.567L89.7751 245.016L89.5821 245.429L91.1242 246.833L88.7288 245.126L88.1782 245.979Z" fill="#DAD8EC"/>
<path d="M83.028 254.447C83.1377 254.516 84.0743 255.095 84.0743 255.095L84.2938 255.62L82.5872 255.729L83.4405 255.234L83.028 254.447Z" fill="#DAD8EC"/>
<path d="M87.5708 258.015L89.6919 257.243H92.2254L94.6776 255.949L94.4298 256.28L91.7297 258.289L90.3522 258.84L87.5708 258.015Z" fill="#DAD8EC"/>
<path d="M92.7212 247.991L93.2718 247.521L95.4213 248.789L93.2718 248.541L92.7212 247.991Z" fill="#DAD8EC"/>
<path d="M93.8792 249.092L94.0701 249.671L96.3009 250.358L96.6036 250.937L97.3208 251.487L97.7881 250.853L96.4939 249.559L93.8792 249.092Z" fill="#DAD8EC"/>
<path d="M90.7383 249.36L92.4469 252.314V253.196L94.8423 254.447L95.8337 253.084L95.531 251.487L94.9804 252.162L93.4099 250.853L92.0609 250.291L91.8963 247.853H91.4555L90.7383 249.36Z" fill="#DAD8EC"/>
<path d="M83.6517 249.931V247.674L82.1645 246.764L80.787 246.241L78.9423 245.085H76.8882H75.1694L74.0662 245.608L73.3795 246.847L69.5498 247.509L69.1089 249.931L69.7164 251.721L68.8611 253.98L69.495 254.833L69.302 255.66L68.8611 256.485L70.5149 258.883L71.8355 258.551L73.1296 259.021L74.3426 260.396L80.2913 260.589L81.9431 258.744L82.3006 257.395L84.2836 256.073L85.1938 253.072L84.5863 252.41L84.9174 251.585L83.6517 249.931Z" fill="#F1F0F8"/>
<path d="M71.6709 248.031C71.7542 248.003 74.1496 247.233 74.1496 247.233L75.5271 248.996L74.4259 248.363C74.4259 248.363 74.9501 250.429 75.0049 250.51C75.0598 250.593 76.74 251.694 76.74 251.694L77.0285 252.107L75.0598 251.997L71.3418 252.836L70.0476 250.949L70.5149 249.738L71.3418 249.326L73.538 250.784L74.1516 251.473L73.9037 249.326L72.5811 248.885L70.8176 248.94L71.6709 248.031Z" fill="#DAD8EC"/>
<path d="M76.0227 256.954L80.6773 255.358L80.2913 255.191H78.349L77.6745 254.421L77.839 253.291L74.2876 253.87L72.7456 255.303L75.2791 254.311L77.0284 254.366V255.122L76.4636 256.404L75.6651 256.954H76.0227Z" fill="#DAD8EC"/>
<path d="M74.9766 246.654L75.9396 247.233L78.3634 248.196L78.5279 247.784L77.6198 246.241L76.5735 245.691L76.3804 246.103L77.9225 247.509L75.5272 245.801L74.9766 246.654Z" fill="#DAD8EC"/>
<path d="M69.8261 255.122C69.9358 255.191 70.8724 255.77 70.8724 255.77L71.0919 256.294L69.3853 256.404L70.2386 255.908L69.8261 255.122Z" fill="#DAD8EC"/>
<path d="M74.3689 258.69L76.49 257.918H79.0235L81.4757 256.623L81.2279 256.955L78.5277 258.964L77.1523 259.517L74.3689 258.69Z" fill="#DAD8EC"/>
<path d="M79.5193 248.665L80.0699 248.196L82.2194 249.464L80.0699 249.216L79.5193 248.665Z" fill="#DAD8EC"/>
<path d="M80.6772 249.766L80.8682 250.346L83.099 251.034L83.4038 251.611L84.1189 252.162L84.5862 251.53L83.292 250.234L80.6772 249.766Z" fill="#DAD8EC"/>
<path d="M77.5364 250.035L79.245 252.989V253.87L81.6404 255.122L82.6318 253.761L82.3291 252.162L81.7785 252.836L80.208 251.53L78.859 250.965L78.6944 248.527H78.2536L77.5364 250.035Z" fill="#DAD8EC"/>
<path d="M65.1858 253.952L71.3479 301.786H95.4111L104.223 253.952H65.1858Z" fill="#544842"/>
<path d="M94.31 253.952L92.5505 301.786H95.4111L104.223 253.952H94.31Z" fill="#3C332F"/>
<path d="M350.791 -8.98633H174.574L163.2 11.2614H362.165L350.791 -8.98633Z" fill="url(#paint2_linear_1_4694)"/>
<path opacity="0.45" d="M325.816 395.775L335.277 396.956L410.425 395.645L381.09 393.221L325.816 395.775Z" fill="#B16598"/>
<path d="M319.305 260.547L323.291 308.37H327.889L329.73 260.547H319.305Z" fill="#D1CEE7"/>
<path d="M324.437 308.445H323.214L319.231 260.622H322.376L324.437 308.445Z" fill="#F1F0F8"/>
<path d="M320.326 273.763H329.219L329.134 275.985L320.692 278.157L320.326 273.763Z" fill="#D1CEE7"/>
<path d="M385.201 260.547L389.187 308.37H393.785L395.625 260.547H385.201Z" fill="#D1CEE7"/>
<path d="M390.332 308.445H389.109L385.127 260.622H388.272L390.332 308.445Z" fill="#F1F0F8"/>
<path d="M386.23 273.763H395.125L395.04 275.985L386.596 278.157L386.23 273.763Z" fill="#D1CEE7"/>
<path d="M377.308 314.557L381.292 395.645H385.891L387.73 314.557H377.308Z" fill="#908EAB"/>
<path d="M382.439 395.775H381.216L377.234 314.687H380.379L382.439 395.775Z" fill="#A8A9B4"/>
<path d="M377.492 320.664H387.545L387.5 322.716L377.699 325.099L377.492 320.664Z" fill="#D1CEE7"/>
<path d="M321.908 314.557L325.894 395.645H330.492L332.332 314.557H321.908Z" fill="#908EAB"/>
<path d="M327.039 395.775H325.816L321.834 314.687H324.979L327.039 395.775Z" fill="#A8A9B4"/>
<path d="M322.035 318.571L332.185 320.664L332.145 322.73L322.34 325.099L322.035 318.571Z" fill="#D1CEE7"/>
<path d="M338.08 314.557L342.064 395.645H346.664L348.502 314.557H338.08Z" fill="#D1CEE7"/>
<path d="M343.211 395.775H341.988L338.006 314.687H341.151L343.211 395.775Z" fill="#F1F0F8"/>
<path d="M338.309 320.664H348.362L348.317 322.716L338.516 325.099L338.309 320.664Z" fill="#D1CEE7"/>
<path d="M401.842 314.557L405.828 395.645H410.426L412.267 314.557H401.842Z" fill="#D1CEE7"/>
<path d="M406.973 395.775H405.75L401.768 314.687H404.913L406.973 395.775Z" fill="#F1F0F8"/>
<path d="M401.949 320.664H412L411.957 322.716L402.156 325.099L401.949 320.664Z" fill="#D1CEE7"/>
<path d="M307.691 223.515V268.832C307.691 271.556 309.9 273.765 312.624 273.765H402.085C404.81 273.765 407.018 271.556 407.018 268.832V223.515C407.018 220.791 404.81 218.582 402.085 218.582H312.624C309.9 218.582 307.691 220.791 307.691 223.515Z" fill="#A77D52"/>
<path d="M318.143 273.761H312.625C309.902 273.761 307.696 271.554 307.696 268.832V223.519C307.696 220.789 309.902 218.58 312.625 218.58H318.143C315.42 218.58 313.214 220.786 313.214 223.519V268.832C313.212 271.552 315.42 273.761 318.143 273.761Z" fill="#D7AA77"/>
<path d="M313.012 316.375C313.474 318.819 315.617 320.668 318.195 320.668H412.163C414.741 320.668 416.882 318.819 417.345 316.375H313.012Z" fill="#8D633A"/>
<path d="M417.441 315.39V313.724C417.441 310.808 415.078 308.445 412.163 308.445H318.195C315.28 308.445 312.917 310.808 312.917 313.724V315.39C312.917 315.727 312.952 316.056 313.013 316.375H417.345C417.406 316.056 417.441 315.727 417.441 315.39Z" fill="#A77D52"/>
<path d="M322.106 320.664H318.197C315.623 320.664 313.48 318.815 313.01 316.379C312.956 316.058 312.919 315.727 312.919 315.386V313.722C312.919 310.806 315.282 308.452 318.197 308.452H322.106C319.191 308.452 316.828 310.806 316.828 313.722V315.386C316.828 315.725 316.864 316.056 316.919 316.379C317.387 318.815 319.53 320.664 322.106 320.664Z" fill="#D7AA77"/>
<path d="M352.498 338.228C351.11 338.071 349.556 355.438 367.764 351.491L378.792 345.509L381.061 338.673L352.498 338.228Z" fill="url(#paint3_linear_1_4694)"/>
<path d="M434.584 318.825C434.584 318.825 439.316 315.156 445.074 318.825C445.074 318.825 446.473 322.891 449.742 323.679C453.009 324.467 464.214 329.762 464.37 331.783C464.527 333.805 459.234 336.787 455.657 336.019C452.077 335.251 443.519 330.253 440.561 330.65C437.603 331.046 435.978 330.308 435.978 330.308L434.584 318.825Z" fill="url(#paint4_linear_1_4694)"/>
<path d="M391.374 331.44L360.844 341.143L357.21 341.529L324.39 337.84L332.683 284.279H390.233L390.176 314.313L391.374 331.44Z" fill="#BD2143"/>
<path d="M407.981 250.465L390.952 261.524C390.494 261.82 390.178 262.278 390.054 262.796C390.017 262.94 389.997 263.09 389.995 263.243C389.932 266.386 389.792 275.199 390.173 276.603C390.367 277.302 390.635 278.265 390.887 279.155C391.62 281.755 390.677 284.565 388.473 286.129C386.009 287.879 383.016 288.429 383.016 288.429C341.466 296.365 338.51 288.118 332.37 284.693C326.232 281.27 331.196 274.579 332.37 269.754C332.38 269.711 332.39 269.667 332.403 269.616C333.392 265.443 335.871 249.766 336.74 244.194C336.996 238.718 338.136 234.196 339.737 230.482C344.765 218.806 354.343 215.104 355.332 214.748L355.342 214.734C355.361 214.732 355.381 214.728 355.399 214.726C355.407 214.724 355.413 214.72 355.418 214.72C355.452 214.716 355.487 214.712 355.521 214.708L368.085 213.422C368.42 213.387 368.76 213.434 369.074 213.558C395.799 224.151 406.102 242.227 408.737 247.808C409.188 248.757 408.863 249.892 407.981 250.465Z" fill="#155677"/>
<path d="M378.792 340.389L375.157 340.775L374.477 305.158L378.792 340.389Z" fill="#9C1E45"/>
<path d="M400.964 295.642C411.917 274.628 410.405 266.999 410.405 266.999L403.942 253.011L393.727 259.626C393.727 259.626 399.304 266.881 399.304 270.433C399.304 273.984 391.064 302.432 391.064 302.432C391.064 302.432 379.836 309.061 380.147 311.377C380.147 311.377 379.111 318.384 379.526 318.848C379.526 318.848 380.117 319.908 380.84 319.965C380.84 319.965 381.913 314.498 382.224 313.313C382.224 313.313 381.846 319.804 382.155 319.965C382.463 320.126 386.446 320.975 386.858 319.124C387.27 317.271 386.789 313.661 386.789 313.661C386.789 313.661 388.607 318.917 389.07 318.917C389.07 318.917 390.178 318.77 390.385 317.844C390.592 316.917 388.678 313.577 389.503 312.033C389.503 312.033 396.71 311.32 395.935 306.639C395.933 306.637 400.287 296.94 400.964 295.642Z" fill="url(#paint5_linear_1_4694)"/>
<path d="M332.372 284.693L339.715 235.061L339.739 230.482C338.138 234.196 336.998 238.718 336.742 244.193C335.873 249.766 333.394 265.443 332.405 269.616C332.393 269.667 332.382 269.711 332.372 269.754C331.198 274.579 326.235 281.27 332.372 284.693Z" fill="#155677"/>
<path d="M389.995 263.36L375.556 239.852C375.556 239.852 387.063 261.199 385.818 276.42C384.572 291.641 361.104 291.517 361.104 291.517C361.104 291.517 391.913 290.672 391.368 281.893C391.368 281.893 391.263 279.289 390.174 276.786L389.995 263.36Z" fill="#10493E"/>
<path d="M370.932 198.749C377.455 198.33 384.018 193.188 382.87 182.396C381.722 171.602 366.974 176.128 366.974 176.128C366.139 189.667 368.451 192.889 368.451 192.889L368.071 161.09C350.523 161.482 344.737 158.156 344.737 158.156C341.814 159.529 338.575 161.982 338.575 161.982C338.575 161.982 331.47 167.477 330.635 178.465C330.373 181.922 330.274 184.877 330.265 187.298C330.259 188.617 330.28 189.779 330.314 190.779C330.414 193.785 330.635 195.342 330.635 195.342C330.635 195.342 331.68 209.013 348.951 209.994L356.265 210.108L356.813 217.438C356.813 217.438 352.996 220.799 353.955 222.58C354.914 224.362 367.795 228.336 367.52 219.429L367.657 217.646C367.661 217.646 364.081 213.812 370.932 198.749Z" fill="url(#paint6_linear_1_4694)"/>
<path d="M348.524 182.073C349.185 182.073 349.721 181.232 349.721 180.196C349.721 179.159 349.185 178.318 348.524 178.318C347.863 178.318 347.327 179.159 347.327 180.196C347.327 181.232 347.863 182.073 348.524 182.073Z" fill="black"/>
<path d="M333.839 182.53C334.5 182.53 335.036 181.689 335.036 180.653C335.036 179.616 334.5 178.775 333.839 178.775C333.178 178.775 332.643 179.616 332.643 180.653C332.643 181.689 333.178 182.53 333.839 182.53Z" fill="black"/>
<path d="M356.72 217.093C356.72 217.093 360.032 217.221 362.77 209.755L356.267 210.11L356.72 217.093Z" fill="#F58F87"/>
<path d="M388.845 181.563C388.845 181.563 383.168 197.306 373.414 198.749C373.414 198.749 369.698 199.883 371.405 197.824C371.612 197.575 371.815 196.455 372.455 195.165C372.455 195.165 380.637 189.312 378.459 180.868C378.459 180.868 378.455 180.856 378.447 180.831C378.351 180.547 377.656 178.595 376.07 177.101C376.051 177.083 376.033 177.065 376.013 177.049C375.34 176.427 374.509 175.892 373.502 175.6C373.498 175.598 373.489 175.596 373.483 175.594C372.573 175.33 371.515 175.265 370.296 175.515C370.296 175.515 370.294 175.515 370.29 175.517C370.261 175.523 370.115 175.557 369.869 175.655C369.861 175.657 369.853 175.661 369.843 175.665C369.213 175.921 367.975 176.579 366.49 178.184C366.49 178.184 364.542 181.561 365.883 184.074C365.724 183.97 355.562 177.284 353.971 167.611L353.756 173.893C353.756 173.893 341.564 169.383 337.588 164.446C337.588 164.446 336.153 164.98 334.615 166.912C333.39 168.448 332.1 170.866 331.411 174.602C331.204 175.732 331.052 176.981 330.972 178.365C330.97 178.385 330.97 178.408 330.968 178.428C330.968 178.428 330.968 178.428 330.966 178.426C330.881 178.389 326.523 176.469 324.729 172.388C322.953 168.345 323.695 162.179 333.608 153.619C333.608 153.619 343.325 146.965 356.222 146.053C356.224 146.051 356.226 146.051 356.226 146.051C363.723 145.521 372.293 146.929 380.653 152.709C380.657 152.713 394.824 163.109 388.845 181.563Z" fill="black"/>
<path d="M338.967 191.998C340.599 192.404 341.458 191.998 341.458 191.998C344.327 189.442 341.078 184.895 341.007 184.795C341.005 184.793 341.005 184.793 341.005 184.793C341.005 184.793 337.742 184.318 336.385 187.92C335.024 191.522 338.967 191.998 338.967 191.998Z" fill="#EF8981"/>
<path d="M338.193 170.687C338.193 170.687 339.997 172.304 338.892 174.251C337.787 176.197 328.492 175.029 328.492 175.029C328.492 175.029 327.043 171.792 338.193 170.687Z" fill="black"/>
<path d="M345.647 170.24C345.647 170.24 343.506 172.053 344.721 174.338C345.934 176.624 356.726 175.586 356.726 175.586C356.726 175.586 358.506 171.892 345.647 170.24Z" fill="black"/>
<path opacity="0.46" d="M350.698 187.321C353.741 187.321 356.208 184.335 356.208 180.653C356.208 176.97 353.741 173.985 350.698 173.985C347.655 173.985 345.188 176.97 345.188 180.653C345.188 184.335 347.655 187.321 350.698 187.321Z" fill="#63C8D2"/>
<path d="M350.698 187.321C353.741 187.321 356.208 184.335 356.208 180.653C356.208 176.97 353.741 173.985 350.698 173.985C347.655 173.985 345.188 176.97 345.188 180.653C345.188 184.335 347.655 187.321 350.698 187.321Z" stroke="#9E7A2C" stroke-width="0.5" stroke-miterlimit="10"/>
<path opacity="0.46" d="M333.959 187.321C337.002 187.321 339.469 184.335 339.469 180.653C339.469 176.97 337.002 173.985 333.959 173.985C330.916 173.985 328.449 176.97 328.449 180.653C328.449 184.335 330.916 187.321 333.959 187.321Z" fill="#63C8D2"/>
<path d="M333.959 187.321C337.002 187.321 339.469 184.335 339.469 180.653C339.469 176.97 337.002 173.985 333.959 173.985C330.916 173.985 328.449 176.97 328.449 180.653C328.449 184.335 330.916 187.321 333.959 187.321Z" stroke="#9E7A2C" stroke-width="0.5" stroke-miterlimit="10"/>
<path d="M339.422 179.806H345.188" stroke="#9E7A2C" stroke-width="0.5" stroke-miterlimit="10"/>
<path d="M356.206 179.805L366.206 179.489" stroke="#9E7A2C" stroke-width="0.5" stroke-miterlimit="10"/>
<path d="M407.981 250.465L390.952 261.524C390.495 261.82 390.178 262.278 390.054 262.796L375.556 239.852C366.435 229.909 369.075 213.558 369.075 213.558C395.799 224.151 406.102 242.227 408.737 247.808C409.188 248.757 408.863 249.892 407.981 250.465Z" fill="white"/>
<path d="M434.584 319.126L409.322 330.688L378.792 340.392C378.792 340.392 377.256 353.616 388.306 353.149C399.355 352.681 436.175 330.727 436.175 330.727L434.584 319.126Z" fill="url(#paint7_linear_1_4694)"/>
<path d="M353.165 195.189C353.165 195.189 345.684 196.437 339.376 197.024C339.376 197.024 338.902 202.743 345.962 202.745C355.247 202.747 353.165 195.189 353.165 195.189Z" fill="black"/>
<path d="M353.045 198.968C353.045 198.968 344.113 196.697 341.657 201.67C341.657 201.67 345.55 204.33 350.336 201.933C350.336 201.93 352.734 200.679 353.045 198.968Z" fill="#861827"/>
<path d="M447.237 270.685L457.707 402.955H462.422V270.685H447.237Z" fill="url(#paint8_linear_1_4694)"/>
<path d="M232.117 268.998V369.217L300.119 384.065V268.998H232.117Z" fill="#DB694B"/>
<path d="M300.119 273.385V384.064L506.965 375.292V273.385H300.119Z" fill="url(#paint9_linear_1_4694)"/>
<path d="M300.119 273.385V422.498H304.837L315.973 273.385H300.119Z" fill="url(#paint10_linear_1_4694)"/>
<path d="M506.965 273.385V418.063H502.247L490.799 273.385H506.965Z" fill="url(#paint11_linear_1_4694)"/>
<path d="M232.117 265.961V406.673H236.834L247.97 265.961H232.117Z" fill="url(#paint12_linear_1_4694)"/>
<path d="M226.887 261.863V268.661L300.119 273.385V264.61L226.887 261.863Z" fill="#D1573C"/>
<path d="M515.738 264.61H300.119V273.383H515.738V264.61Z" fill="#F8A37C"/>
<path d="M300.119 273.385V283.966L506.965 326.531V273.385H300.119Z" fill="#D1573C"/>
<path d="M239.667 370.867L234.817 406.673H236.835L239.667 370.867Z" fill="#F3D8C3"/>
<path d="M307.212 392.466L303.149 422.498H304.837L307.212 392.466Z" fill="#F3D8C3"/>
<path d="M498.881 375.635L503.927 418.063H502.247L498.881 375.635Z" fill="#F3D8C3"/>
<path d="M232.117 268.998V271.444L300.119 283.966V273.385L232.117 268.998Z" fill="#D1573C"/>
<path d="M266.119 263.334L300.119 264.61H329.396V253.356H300.119H266.119V263.334Z" fill="#292864"/>
<path d="M300.119 264.61V253.356L266.119 252.702V263.334L300.119 264.61Z" fill="#2E3690"/>
<path d="M329.396 254.569H302.893V263.062L329.396 263.527V254.569Z" fill="#D1CEE7"/>
<path d="M329.396 256.723L306.157 256.621L329.396 256.52V256.723Z" fill="#7E7CB1"/>
<path d="M329.394 260.457L313.531 259.888L329.4 260.254L329.394 260.457Z" fill="#7E7CB1"/>
<path d="M261.546 252.078L295.548 253.356H324.825V242.101H295.548H261.546V252.078Z" fill="#672144"/>
<path d="M295.548 253.356V242.101H261.546V252.702L295.548 253.356Z" fill="#932F61"/>
<path d="M324.825 243.314H298.319V251.806L324.825 252.273V243.314Z" fill="#D1CEE7"/>
<path d="M324.825 245.467L301.586 245.366L324.825 245.264V245.467Z" fill="#7E7CB1"/>
<path d="M324.821 249.202L308.959 248.633L324.827 248.998L324.821 249.202Z" fill="#7E7CB1"/>
<path opacity="0.45" d="M94.6797 396.592L104.141 397.774L179.291 396.462L149.954 394.038L94.6797 396.592Z" fill="#B16598"/>
<path d="M88.1689 261.363L92.1551 309.187H96.7528L98.5935 261.363H88.1689Z" fill="#D1CEE7"/>
<path d="M93.3004 309.264H92.0773L88.0952 261.44H91.2403L93.3004 309.264Z" fill="#F1F0F8"/>
<path d="M89.1902 274.581H98.0828L97.9975 276.802L89.5559 278.974L89.1902 274.581Z" fill="#D1CEE7"/>
<path d="M154.064 261.363L158.051 309.187H162.648L164.489 261.363H154.064Z" fill="#D1CEE7"/>
<path d="M159.196 309.264H157.973L153.991 261.44H157.136L159.196 309.264Z" fill="#F1F0F8"/>
<path d="M155.094 274.581H163.989L163.903 276.802L155.46 278.974L155.094 274.581Z" fill="#D1CEE7"/>
<path d="M146.171 315.375L150.156 396.462H154.755L156.594 315.375H146.171Z" fill="#908EAB"/>
<path d="M151.303 396.592H150.08L146.098 315.505H149.243L151.303 396.592Z" fill="#A8A9B4"/>
<path d="M146.356 321.483H156.408L156.364 323.535L146.563 325.916L146.356 321.483Z" fill="#D1CEE7"/>
<path d="M90.7715 315.375L94.7576 396.462H99.3553L101.196 315.375H90.7715Z" fill="#908EAB"/>
<path d="M95.9029 396.592H94.6798L90.6978 315.505H93.8428L95.9029 396.592Z" fill="#A8A9B4"/>
<path d="M90.8989 319.388L101.049 321.483L101.009 323.549L91.2057 325.916L90.8989 319.388Z" fill="#D1CEE7"/>
<path d="M106.944 315.375L110.93 396.462H115.527L117.366 315.375H106.944Z" fill="#D1CEE7"/>
<path d="M112.075 396.592H110.852L106.87 315.505H110.015L112.075 396.592Z" fill="#F1F0F8"/>
<path d="M107.173 321.483H117.225L117.181 323.535L107.38 325.916L107.173 321.483Z" fill="#D1CEE7"/>
<path d="M170.707 315.375L174.691 396.462H179.291L181.13 315.375H170.707Z" fill="#D1CEE7"/>
<path d="M175.837 396.592H174.614L170.632 315.505H173.777L175.837 396.592Z" fill="#F1F0F8"/>
<path d="M170.813 321.483H180.864L180.821 323.535L171.02 325.916L170.813 321.483Z" fill="#D1CEE7"/>
<path d="M76.5552 224.332V269.648C76.5552 272.373 78.7636 274.581 81.4881 274.581H170.949C173.674 274.581 175.882 272.373 175.882 269.648V224.332C175.882 221.607 173.674 219.399 170.949 219.399H81.4881C78.7636 219.399 76.5552 221.607 76.5552 224.332Z" fill="#A77D52"/>
<path d="M87.0065 274.577H81.4884C78.766 274.577 76.5596 272.371 76.5596 269.648V224.336C76.5596 221.605 78.766 219.397 81.4884 219.397H87.0065C84.284 219.397 82.0776 221.603 82.0776 224.336V269.648C82.0756 272.371 84.284 274.577 87.0065 274.577Z" fill="#D7AA77"/>
<path d="M81.8762 317.194C82.3374 319.636 84.4808 321.487 87.059 321.487H181.026C183.604 321.487 185.746 319.638 186.209 317.194H81.8762Z" fill="#8D633A"/>
<path d="M186.305 316.206V314.54C186.305 311.625 183.942 309.262 181.026 309.262H87.0591C84.1436 309.262 81.7808 311.625 81.7808 314.54V316.206C81.7808 316.544 81.8153 316.873 81.8763 317.192H186.209C186.27 316.873 186.305 316.544 186.305 316.206Z" fill="#A77D52"/>
<path d="M90.9702 321.483H87.0613C84.4871 321.483 82.3437 319.634 81.8744 317.198C81.8195 316.877 81.783 316.546 81.783 316.205V314.541C81.783 311.625 84.1458 309.271 87.0613 309.271H90.9702C88.0548 309.271 85.6919 311.625 85.6919 314.541V316.205C85.6919 316.544 85.7285 316.875 85.7833 317.198C86.2506 319.634 88.394 321.483 90.9702 321.483Z" fill="#D7AA77"/>
<path d="M111.539 179.799L109.86 168.217L120.884 165.71L120.533 175.555L111.539 179.799Z" fill="url(#paint13_linear_1_4694)"/>
<path d="M82.3799 297.082C82.3799 297.082 77.6482 292.738 71.8904 297.082C71.8904 297.082 70.4906 301.893 67.2216 302.826C63.9526 303.76 52.7499 310.026 52.5935 312.417C52.437 314.809 57.7296 318.34 61.3074 317.431C64.8872 316.521 73.4446 310.609 76.4027 311.074C79.3588 311.542 80.4011 311.515 80.4011 311.515L82.3799 297.082Z" fill="url(#paint14_linear_1_4694)"/>
<path d="M79.5845 327.62L114.537 345.05C137.975 349.406 136.939 340.692 136.939 340.692L153.007 346.606C170.722 352.832 175.756 337.58 175.756 337.58L166.333 276.733H108.784L108.841 306.767L83.0078 294.63C82.2317 296.253 81.6304 298.842 81.1671 301.871C80.3179 307.403 79.9258 314.408 79.7429 319.715C79.7328 319.998 79.7226 320.274 79.7145 320.544C79.5845 324.697 79.5845 327.62 79.5845 327.62Z" fill="#861827"/>
<path d="M81.167 301.871L112.085 317.43V278.673L109.665 276.733H108.784L108.841 306.767L83.0077 294.63C82.2316 296.253 81.6302 298.842 81.167 301.871Z" fill="#681825"/>
<path d="M205.16 260.412C181.583 262.789 175.059 258.555 175.059 258.555L164.466 247.367L174.397 240.335C174.397 240.335 179.065 248.204 182.363 249.521C185.66 250.837 215.138 253.736 215.138 253.736C215.138 253.736 225.459 245.77 227.495 246.916C227.495 246.916 234.386 248.553 234.662 249.108C234.662 249.108 235.428 250.051 235.213 250.744C235.213 250.744 229.738 249.714 228.523 249.561C228.523 249.561 234.691 251.617 234.725 251.965C234.76 252.312 234.073 256.325 232.2 256.02C230.327 255.717 227.151 253.929 227.151 253.929C227.151 253.929 231.359 257.568 231.186 257.999C231.186 257.999 230.64 258.974 229.703 258.822C228.766 258.669 226.375 255.654 224.634 255.847C224.634 255.847 221.3 262.275 217.239 259.819C217.239 259.817 206.617 260.264 205.16 260.412Z" fill="url(#paint15_linear_1_4694)"/>
<path d="M154.47 215.134L181.014 245.045L165.181 254.52L148.058 252.056L154.47 215.134Z" fill="#1F9C86"/>
<path d="M166.644 277.147C160.504 280.573 157.548 288.819 115.998 280.884C115.998 280.884 113.005 280.333 110.541 278.584C108.337 277.019 107.394 274.209 108.127 271.609C108.379 270.719 108.647 269.756 108.841 269.057C109.222 267.653 109.082 258.84 109.019 255.697C109.005 255 108.647 254.358 108.062 253.978L91.0328 242.92C90.1511 242.347 89.826 241.211 90.277 240.262C92.9121 234.681 103.215 216.605 129.94 206.012C130.254 205.888 130.594 205.841 130.929 205.876L143.493 207.162C143.527 207.166 143.562 207.17 143.596 207.174C143.601 207.174 143.607 207.178 143.615 207.18C143.633 207.182 143.653 207.186 143.672 207.188L143.682 207.203C144.671 207.558 154.249 211.26 159.277 222.936C160.878 226.65 162.018 231.172 162.274 236.648C163.143 242.221 165.622 257.897 166.611 262.07C166.624 262.121 166.634 262.166 166.644 262.208C167.818 267.034 172.782 273.724 166.644 277.147Z" fill="#1F9C86"/>
<path d="M142.487 202.26C142.487 202.26 141.937 206.169 143.596 207.172C143.596 207.172 146.744 209.005 148.454 212.463C148.454 212.463 151.88 220.451 140.748 219.933C129.616 219.415 126.583 213.605 126.894 210.596C126.894 210.596 127.619 207.379 130.421 205.823L129.812 196.776L142.487 202.26Z" fill="url(#paint16_linear_1_4694)"/>
<path d="M164.722 168.989C164.722 168.989 170.833 199.46 147.989 204.147C147.989 204.147 128.28 207.418 122.534 190.328C122.534 190.328 117.648 193.462 113.763 186.987C109.877 180.512 114.314 172.731 119.044 173.747C119.044 173.747 120.831 174.568 121.297 175.287L121.325 162.957L164.137 161.524L164.722 168.989Z" fill="url(#paint17_linear_1_4694)"/>
<path d="M146.841 183.79C146.841 183.79 152.195 181.691 156.743 184.17C156.743 184.17 157.507 187.717 152.05 187.774C146.774 187.833 146.622 185.478 146.841 183.79Z" fill="#F3766B"/>
<path d="M146.431 179.076C146.431 180.322 145.888 181.331 145.22 181.331C144.551 181.331 144.009 180.322 144.009 179.076C144.009 177.831 144.551 176.821 145.22 176.821C145.89 176.821 146.431 177.831 146.431 179.076Z" fill="black"/>
<path d="M162.908 178.521C162.908 179.767 162.365 180.777 161.697 180.777C161.028 180.777 160.486 179.767 160.486 178.521C160.486 177.276 161.028 176.266 161.697 176.266C162.365 176.266 162.908 177.276 162.908 178.521Z" fill="black"/>
<path d="M139.986 190.827C139.986 190.827 147.467 192.075 153.775 192.662C153.775 192.662 154.249 198.381 147.189 198.383C137.904 198.383 139.986 190.827 139.986 190.827Z" fill="black"/>
<path d="M163.806 140.629C161.605 143.855 163.072 150.017 163.072 150.017C158.084 140.629 139.895 139.454 139.895 139.454C101.021 138.514 101.021 161.018 101.021 161.018C107.621 160.726 110.116 161.459 110.116 161.459C104.836 163.806 106.008 171.727 106.008 171.727C106.888 170.553 116.644 168.794 116.644 168.794C117.662 168.511 118.7 168.247 119.755 168.003L119.432 168.66L120.533 175.555L121.193 181.222H123.028L124.787 175.336L129.994 174.312L130.793 166.106H130.791C147.394 164.086 163.806 165.273 163.806 165.273L164.982 172.382C175.882 160.939 163.806 140.629 163.806 140.629Z" fill="url(#paint18_linear_1_4694)"/>
<path d="M134.468 175.082C134.468 175.082 140.704 172.55 146.717 173.505C146.717 173.505 148.477 173.359 147.965 171.965C147.451 170.571 142.463 170.131 139.751 170.62C136.553 171.195 130.728 174.679 134.468 175.082Z" fill="black"/>
<path d="M168.06 175.082C168.06 175.082 161.825 172.55 155.811 173.505C155.811 173.505 154.052 173.359 154.564 171.965C155.078 170.571 160.065 170.131 162.778 170.62C165.976 171.195 171.8 174.679 168.06 175.082Z" fill="black"/>
<path d="M138.871 139.436C138.871 139.436 164.889 142.778 162.258 165.181L163.808 165.273C163.808 165.273 166.227 156.311 163.074 150.017C163.072 150.017 159.848 140.943 138.871 139.436Z" fill="#FFE9C2"/>
<path d="M140.106 194.604C140.106 194.604 149.037 192.333 151.494 197.306C151.494 197.306 147.601 199.966 142.814 197.568C142.814 197.568 140.417 196.317 140.106 194.604Z" fill="#861827"/>
<path d="M137.251 341.107L142.487 298.364L141.64 342.722L137.251 341.107Z" fill="#681825"/>
<path d="M98.0522 288.094C87.0994 267.08 88.611 259.451 88.611 259.451L95.0738 245.463L105.289 252.078C105.289 252.078 99.7121 259.334 99.7121 262.885C99.7121 266.436 107.953 294.884 107.953 294.884C107.953 294.884 119.18 301.513 118.869 303.829C118.869 303.829 119.905 310.837 119.491 311.3C119.491 311.3 118.899 312.36 118.176 312.417C118.176 312.417 117.103 306.95 116.792 305.766C116.792 305.766 117.17 312.257 116.862 312.417C116.553 312.578 112.571 313.427 112.158 311.576C111.746 309.723 112.227 306.113 112.227 306.113C112.227 306.113 110.409 311.369 109.946 311.369C109.946 311.369 108.838 311.223 108.631 310.296C108.424 309.37 110.338 306.03 109.513 304.486C109.513 304.486 102.307 303.772 103.081 299.091C103.083 299.091 98.7288 289.392 98.0522 288.094Z" fill="url(#paint19_linear_1_4694)"/>
<path d="M166.644 277.147L159.301 227.515L159.277 222.936C160.878 226.65 162.018 231.172 162.274 236.648C163.143 242.221 165.622 257.897 166.611 262.07C166.624 262.121 166.634 262.166 166.644 262.208C167.818 267.034 172.782 273.724 166.644 277.147Z" fill="#10493E"/>
<path d="M109.021 255.813L123.461 232.304C123.461 232.304 111.953 253.651 113.199 268.872C114.444 284.094 137.912 283.97 137.912 283.97C137.912 283.97 107.105 283.125 107.648 274.346C107.648 274.346 107.754 271.741 108.843 269.238L109.021 255.813Z" fill="#10493E"/>
<path d="M221.276 270.382L231.743 402.65H236.459V270.382H221.276Z" fill="url(#paint20_linear_1_4694)"/>
<path d="M6.15552 268.693V368.914L74.1579 383.762V268.693H6.15552Z" fill="url(#paint21_linear_1_4694)"/>
<path d="M74.1577 273.08V383.762L281.001 374.989V273.08H74.1577Z" fill="url(#paint22_linear_1_4694)"/>
<path d="M74.1577 273.08V422.193H78.8732L90.0089 273.08H74.1577Z" fill="url(#paint23_linear_1_4694)"/>
<path d="M281.001 273.08V417.758H276.286L264.837 273.08H281.001Z" fill="url(#paint24_linear_1_4694)"/>
<path d="M6.15552 265.656V406.37H10.871L22.0067 265.656H6.15552Z" fill="url(#paint25_linear_1_4694)"/>
<path d="M0.923828 261.558V268.356L74.1578 273.08V264.307L0.923828 261.558Z" fill="#D1573C"/>
<path d="M289.776 264.307H74.1577V273.08H289.776V264.307Z" fill="#F8A37C"/>
<path d="M74.1577 273.08V283.663L281.001 326.227V273.08H74.1577Z" fill="#D1573C"/>
<path d="M13.7052 370.562L8.85352 406.37H10.871L13.7052 370.562Z" fill="#F3D8C3"/>
<path d="M81.2504 392.161L77.187 422.193H78.8733L81.2504 392.161Z" fill="#F3D8C3"/>
<path d="M272.919 375.33L277.964 417.758H276.286L272.919 375.33Z" fill="#F3D8C3"/>
<path d="M6.15552 268.693V271.14L74.1579 283.663V273.08L6.15552 268.693Z" fill="#D1573C"/>
<path d="M40.1575 263.031L74.1576 264.307H103.434V253.052H74.1576H40.1575V263.031Z" fill="#292864"/>
<path d="M74.1576 264.307V253.052L40.1575 252.397V263.031L74.1576 264.307Z" fill="#2E3690"/>
<path d="M103.434 254.264H76.929V262.757L103.434 263.224V254.264Z" fill="#D1CEE7"/>
<path d="M103.434 256.42L80.1958 256.318L103.434 256.217V256.42Z" fill="#7E7CB1"/>
<path d="M103.432 260.152L87.5688 259.583L103.438 259.949L103.432 260.152Z" fill="#7E7CB1"/>
<path d="M35.5842 251.776L69.5844 253.052H98.8609V241.796H69.5844H35.5842V251.776Z" fill="#672144"/>
<path d="M69.5844 253.052V241.796H35.5842V252.397L69.5844 253.052Z" fill="#932F61"/>
<path d="M98.8609 243.009H72.3577V251.501L98.8609 251.969V243.009Z" fill="#D1CEE7"/>
<path d="M98.8609 245.165L75.6226 245.063L98.8609 244.961V245.165Z" fill="#7E7CB1"/>
<path d="M98.859 248.897L82.9956 248.33L98.8651 248.694L98.859 248.897Z" fill="#7E7CB1"/>
</g>
</g>
<defs>
<linearGradient id="paint0_linear_1_4694" x1="260.409" y1="-57.0243" x2="260.409" y2="401.19" gradientUnits="userSpaceOnUse">
<stop stop-color="#F3D8C3"/>
<stop offset="1" stop-color="#F3E7DC"/>
</linearGradient>
<linearGradient id="paint1_linear_1_4694" x1="262.683" y1="256.568" x2="262.683" y2="304.152" gradientUnits="userSpaceOnUse">
<stop stop-color="#F3D8C3"/>
<stop offset="1" stop-color="#F3E7DC"/>
</linearGradient>
<linearGradient id="paint2_linear_1_4694" x1="262.683" y1="-13.9756" x2="262.683" y2="8.03808" gradientUnits="userSpaceOnUse">
<stop stop-color="#F3D8C3"/>
<stop offset="1" stop-color="#F3E7DC" stop-opacity="0"/>
</linearGradient>
<linearGradient id="paint3_linear_1_4694" x1="381.667" y1="340.457" x2="353.054" y2="346.303" gradientUnits="userSpaceOnUse">
<stop offset="0.6882" stop-color="#FABCA8"/>
<stop offset="1" stop-color="#F58F87"/>
</linearGradient>
<linearGradient id="paint4_linear_1_4694" x1="434.584" y1="326.669" x2="464.374" y2="326.669" gradientUnits="userSpaceOnUse">
<stop offset="0.6882" stop-color="#FABCA8"/>
<stop offset="1" stop-color="#F58F87"/>
</linearGradient>
<linearGradient id="paint5_linear_1_4694" x1="379.427" y1="286.654" x2="410.476" y2="286.654" gradientUnits="userSpaceOnUse">
<stop offset="0.6882" stop-color="#FABCA8"/>
<stop offset="1" stop-color="#F58F87"/>
</linearGradient>
<linearGradient id="paint6_linear_1_4694" x1="331.055" y1="231.679" x2="365.233" y2="167.068" gradientUnits="userSpaceOnUse">
<stop offset="0.6882" stop-color="#FABCA8"/>
<stop offset="1" stop-color="#F58F87"/>
</linearGradient>
<linearGradient id="paint7_linear_1_4694" x1="437.478" y1="330.895" x2="379.588" y2="342.722" gradientUnits="userSpaceOnUse">
<stop offset="0.6882" stop-color="#FABCA8"/>
<stop offset="1" stop-color="#F58F87"/>
</linearGradient>
<linearGradient id="paint8_linear_1_4694" x1="483.011" y1="238.187" x2="430.575" y2="421.712" gradientUnits="userSpaceOnUse">
<stop stop-color="#99221F"/>
<stop offset="1" stop-color="#C15B2B"/>
</linearGradient>
<linearGradient id="paint9_linear_1_4694" x1="372.52" y1="220.148" x2="431.528" y2="426.676" gradientUnits="userSpaceOnUse">
<stop stop-color="#D1573C"/>
<stop offset="1" stop-color="#F8A37C"/>
</linearGradient>
<linearGradient id="paint10_linear_1_4694" x1="282.808" y1="343.645" x2="332.76" y2="352.147" gradientUnits="userSpaceOnUse">
<stop stop-color="#D1573C"/>
<stop offset="1" stop-color="#F8A37C"/>
</linearGradient>
<linearGradient id="paint11_linear_1_4694" x1="526.398" y1="249.415" x2="472.88" y2="436.727" gradientUnits="userSpaceOnUse">
<stop stop-color="#D1573C"/>
<stop offset="1" stop-color="#F8A37C"/>
</linearGradient>
<linearGradient id="paint12_linear_1_4694" x1="213.274" y1="242.624" x2="265.339" y2="424.851" gradientUnits="userSpaceOnUse">
<stop stop-color="#D1573C"/>
<stop offset="1" stop-color="#F8A37C"/>
</linearGradient>
<linearGradient id="paint13_linear_1_4694" x1="118.365" y1="180.123" x2="115.578" y2="170.588" gradientUnits="userSpaceOnUse">
<stop stop-color="#F27858"/>
<stop offset="0.9129"/>
</linearGradient>
<linearGradient id="paint14_linear_1_4694" x1="82.3803" y1="306.363" x2="52.5905" y2="306.363" gradientUnits="userSpaceOnUse">
<stop offset="0.644" stop-color="#FCC195"/>
<stop offset="0.9882" stop-color="#F3766B"/>
</linearGradient>
<linearGradient id="paint15_linear_1_4694" x1="204.811" y1="237.077" x2="193.295" y2="265.913" gradientUnits="userSpaceOnUse">
<stop offset="0.644" stop-color="#FCC195"/>
<stop offset="0.9882" stop-color="#F3766B"/>
</linearGradient>
<linearGradient id="paint16_linear_1_4694" x1="137.911" y1="225.328" x2="137.911" y2="203.541" gradientUnits="userSpaceOnUse">
<stop offset="0.644" stop-color="#FCC195"/>
<stop offset="0.9882" stop-color="#F3766B"/>
</linearGradient>
<linearGradient id="paint17_linear_1_4694" x1="144.033" y1="214.865" x2="137.622" y2="167.966" gradientUnits="userSpaceOnUse">
<stop offset="0.644" stop-color="#FCC195"/>
<stop offset="0.9882" stop-color="#F3766B"/>
</linearGradient>
<linearGradient id="paint18_linear_1_4694" x1="137.222" y1="182.715" x2="135.888" y2="167.084" gradientUnits="userSpaceOnUse">
<stop stop-color="#EA725B"/>
<stop offset="0.9129"/>
</linearGradient>
<linearGradient id="paint19_linear_1_4694" x1="119.589" y1="279.107" x2="88.5399" y2="279.107" gradientUnits="userSpaceOnUse">
<stop offset="0.644" stop-color="#FCC195"/>
<stop offset="0.9882" stop-color="#F3766B"/>
</linearGradient>
<linearGradient id="paint20_linear_1_4694" x1="257.049" y1="237.883" x2="204.613" y2="421.409" gradientUnits="userSpaceOnUse">
<stop stop-color="#99221F"/>
<stop offset="1" stop-color="#C15B2B"/>
</linearGradient>
<linearGradient id="paint21_linear_1_4694" x1="48.0134" y1="247.661" x2="33.2654" y2="395.141" gradientUnits="userSpaceOnUse">
<stop stop-color="#D1573C"/>
<stop offset="1" stop-color="#F8A37C"/>
</linearGradient>
<linearGradient id="paint22_linear_1_4694" x1="146.558" y1="219.844" x2="205.566" y2="426.372" gradientUnits="userSpaceOnUse">
<stop stop-color="#D1573C"/>
<stop offset="1" stop-color="#F8A37C"/>
</linearGradient>
<linearGradient id="paint23_linear_1_4694" x1="56.8456" y1="343.341" x2="106.798" y2="351.843" gradientUnits="userSpaceOnUse">
<stop stop-color="#D1573C"/>
<stop offset="1" stop-color="#F8A37C"/>
</linearGradient>
<linearGradient id="paint24_linear_1_4694" x1="300.436" y1="249.111" x2="246.918" y2="436.423" gradientUnits="userSpaceOnUse">
<stop stop-color="#D1573C"/>
<stop offset="1" stop-color="#F8A37C"/>
</linearGradient>
<linearGradient id="paint25_linear_1_4694" x1="-12.6881" y1="242.32" x2="39.3767" y2="424.547" gradientUnits="userSpaceOnUse">
<stop stop-color="#D1573C"/>
<stop offset="1" stop-color="#F8A37C"/>
</linearGradient>
<clipPath id="clip0_1_4694">
<rect width="500" height="500" rx="250" fill="white"/>
</clipPath>
<clipPath id="clip1_1_4694">
<rect width="609.504" height="609.504" fill="white" transform="translate(-50.6199 -74.3801)"/>
</clipPath>
</defs>
</svg>
