<svg width="500" height="500" viewBox="0 0 500 500" fill="none" xmlns="http://www.w3.org/2000/svg">
<g clip-path="url(#clip0_1_6134)">
<rect width="500" height="500" rx="250" fill="white"/>
<path d="M142.592 332.806L142.356 333.042C139.166 326.073 137.158 318.158 136.331 309.417C137.158 318.04 139.403 325.837 142.592 332.806Z" fill="#DFDFDF"/>
<path d="M218.431 230.864C233.958 230.864 246.545 218.277 246.545 202.75C246.545 187.222 233.958 174.635 218.431 174.635C202.904 174.635 190.317 187.222 190.317 202.75C190.317 218.277 202.904 230.864 218.431 230.864Z" fill="#DFDFDF"/>
<path d="M303.365 131.872H204.374C161.376 131.872 135.742 157.506 135.742 200.504V299.495C135.742 312.371 137.987 323.593 142.357 333.043C152.516 355.487 174.252 368.127 204.374 368.127H303.365C346.363 368.127 371.996 342.493 371.996 299.495V272.444V200.504C371.996 157.506 346.363 131.872 303.365 131.872ZM352.742 255.906C343.528 247.991 328.644 247.991 319.43 255.906L270.289 298.077C261.075 305.992 246.191 305.992 236.977 298.077L232.961 294.77C224.574 287.446 211.225 286.737 201.775 293.116L157.596 322.766C154.997 316.151 153.461 308.472 153.461 299.495V200.504C153.461 167.192 171.062 149.591 204.374 149.591H303.365C336.676 149.591 354.277 167.192 354.277 200.504V257.205L352.742 255.906Z" fill="#DFDFDF"/>
<g clip-path="url(#clip1_1_6134)">
<path d="M610.537 -12.9856H-34.0909V632.429H610.537V-12.9856Z" fill="url(#paint0_linear_1_6134)"/>
<path d="M196.998 143.242C196.998 143.242 197.028 165.248 213.081 168.984C213.081 168.984 209.321 154.566 209.321 146.85C209.321 146.85 207.125 148.025 204.518 148.251L201.953 132.851L196.998 143.242Z" fill="url(#paint1_linear_1_6134)"/>
<path d="M325.562 162.865C325.562 162.865 346.27 152.123 337.447 125.036C337.447 125.036 332.599 132.187 327.728 135.028C327.728 135.028 328.328 152.063 325.562 162.865Z" fill="url(#paint2_linear_1_6134)"/>
<path d="M362.521 430.067L357.806 430.183L235.924 433.149L213.672 433.692L218.156 387.43L218.212 386.834L219.914 386.701L351.337 376.439L357.201 375.979L357.688 375.94L362.521 430.067Z" fill="#CEAA87"/>
<path d="M235.924 396.166V433.149L213.672 433.692L218.212 386.834L219.914 386.701L235.924 396.166Z" fill="#A58972"/>
<path d="M348.204 308.102C348.483 310.483 349.708 318.646 351.107 327.771C353.333 342.276 355.995 359.21 355.995 359.21C360.701 366.269 357.667 374.78 357.203 375.981C357.166 376.076 357.147 376.125 357.147 376.125C354.134 379.578 351.096 382.612 348.04 385.279C348.038 385.281 348.038 385.281 348.036 385.283C329.69 401.278 310.592 403.954 291.599 403.479C291.586 403.477 291.575 403.477 291.558 403.479C282.495 403.247 273.455 402.299 264.533 401.738C242.188 400.333 226.199 394.082 218.159 387.434C215.133 384.931 213.229 382.371 212.542 379.993C210.019 371.292 218.204 361.144 218.204 361.144C216.087 350.144 215.864 337.123 216.324 325.687V325.685C216.964 309.735 215.183 316.886 215.183 316.886L175.527 299.092C198.242 220.802 244.144 208.389 244.144 208.389C281.543 222.796 304.289 202.164 304.289 202.164C304.289 202.164 304.289 202.164 304.292 202.166" fill="#BD2143"/>
<path d="M247.077 208.605C247.077 208.605 251.692 246.357 277.645 245.934C302.959 245.521 302.959 203.457 302.959 203.457L247.077 208.605Z" fill="url(#paint3_linear_1_6134)"/>
<path d="M327.724 136.235C327.724 136.235 332.556 212.11 271.663 213.561C210.769 215.011 209.321 147.351 209.321 147.351V99.99H327.814L327.724 136.235Z" fill="url(#paint4_linear_1_6134)"/>
<path d="M342.832 113.897V113.899C337.967 128.882 327.726 135.028 327.726 135.028L327.743 128.865C320.929 127.43 306.03 100.415 305.798 99.9942C311.956 121.497 311.774 131.4 311.774 131.4C287.854 133.577 254.505 99.9899 254.505 99.9899H251.969C226.96 146.141 204.516 148.253 204.516 148.253L201.948 132.853L196.995 143.244C189.384 133.82 182.979 113.039 185.276 99.9899C188.018 84.3985 214.271 39.339 268.566 38.6127C275.681 38.5182 282.209 39.137 288.18 40.2909C319.866 46.3955 335.908 67.419 341.055 75.5757C342.312 77.5676 343.201 79.7679 343.683 82.0735C346.489 95.4517 345.423 105.925 342.832 113.897Z" fill="black"/>
<path d="M254.157 123.798C254.157 123.798 261.097 129.645 257.187 137.054C253.276 144.463 218.343 141.179 218.343 141.179C218.343 141.179 212.55 129.241 254.157 123.798Z" fill="black"/>
<path d="M289.474 123.798C289.474 123.798 282.533 129.645 286.444 137.054C290.355 144.463 325.287 141.179 325.287 141.179C325.287 141.179 331.082 129.241 289.474 123.798Z" fill="black"/>
<path d="M239.094 162.76C240.995 162.76 242.536 160.085 242.536 156.786C242.536 153.487 240.995 150.812 239.094 150.812C237.193 150.812 235.652 153.487 235.652 156.786C235.652 160.085 237.193 162.76 239.094 162.76Z" fill="black"/>
<path d="M294.016 162.865C295.917 162.865 297.459 160.19 297.459 156.891C297.459 153.592 295.917 150.918 294.016 150.918C292.115 150.918 290.574 153.592 290.574 156.891C290.574 160.19 292.115 162.865 294.016 162.865Z" fill="black"/>
<path d="M288.548 192.862C288.174 193.755 287.604 194.658 286.867 195.524C286.867 195.524 286.867 195.526 286.865 195.528C282.035 201.227 270.075 205.533 259.872 197.776C259.872 197.776 259.434 197.458 258.82 196.753C257.915 195.719 256.626 193.85 255.764 190.928C255.764 190.928 254.857 188.358 257.453 188.029C257.453 188.029 271.469 190.444 286.053 186.98C286.057 186.983 291.367 186.097 288.548 192.862Z" fill="black"/>
<path d="M336.02 278.56L336.504 269.136" stroke="#EF8981" stroke-miterlimit="10"/>
<path d="M329.658 283.393V275.337" stroke="#EF8981" stroke-miterlimit="10"/>
<path d="M321.845 289.111V280.009" stroke="#EF8981" stroke-miterlimit="10"/>
<path d="M409.471 279.376L409.48 279.371V279.379" fill="url(#paint5_linear_1_6134)"/>
<path d="M270.032 159.567C267.922 162.676 264.486 169.03 265.201 176.636C265.287 177.558 265.917 178.336 266.794 178.633C268.962 179.365 273.397 180.266 278.457 177.908C279.342 177.496 279.88 176.578 279.809 175.605C279.564 172.236 278.474 164.189 273.627 159.238C272.6 158.189 270.857 158.35 270.032 159.567Z" fill="#EF8981"/>
<path d="M216.863 325.502L221.208 255.614L224.699 322.584L216.863 325.502Z" fill="#9C1E45"/>
<path d="M292.185 403.292C292.185 403.292 292.17 403.292 292.14 403.294C292.127 403.292 292.117 403.292 292.1 403.294C283.036 403.062 273.996 402.114 265.075 401.553C234.322 399.62 215.606 388.504 213.083 379.808C210.561 371.108 218.745 360.959 218.745 360.959C216.629 349.96 216.405 336.938 216.865 325.502L224.702 321.617C224.702 321.617 224.304 370.263 277.647 364.827C277.647 364.827 268.283 378.961 235.662 372.438C235.66 372.438 242.506 399.353 292.185 403.292Z" fill="#9C1E45"/>
<path d="M283.977 402.924L285.675 429.896H296.795V403.294L283.977 402.924Z" stroke="#A58972" stroke-miterlimit="10"/>
<path d="M342.832 113.897C342.714 64.1379 288.18 40.2888 288.18 40.2888H288.182C319.868 46.3934 335.911 67.4169 341.057 75.5736C342.314 77.5655 343.203 79.7658 343.685 82.0715C346.489 95.4518 345.423 105.925 342.832 113.897Z" fill="#EFF3C3"/>
<path d="M362.521 430.067L357.809 430.183L354.091 389.611C353.608 387.322 343.064 388.459 343.064 388.459C343.066 388.457 348.036 385.281 348.038 385.279C349.658 383.216 350.707 380.126 351.337 376.439C354.265 359.236 345.094 307.092 345.094 307.092L348.008 306.711C350.234 321.216 355.995 359.21 355.995 359.21C360.701 366.269 357.667 374.78 357.203 375.981L357.69 375.942L362.521 430.067Z" fill="#EFF3C3"/>
<path d="M286.867 195.524C286.867 195.524 286.867 195.526 286.865 195.528C282.035 201.227 270.075 205.533 259.872 197.776C259.872 197.776 259.434 197.458 258.82 196.753C258.82 196.751 258.82 196.751 258.82 196.751C258.82 196.751 271.506 189.933 286.867 195.524Z" fill="#BD2143"/>
<path d="M186.673 304.09C186.673 304.09 176.666 347.422 137.604 387.223H161.779C161.779 387.223 197.5 355.493 209.321 314.253L186.673 304.09Z" fill="url(#paint6_linear_1_6134)"/>
<path d="M297.188 297.506C297.188 297.506 287.181 343.999 248.119 386.701H272.294C272.294 386.701 308.015 352.656 319.836 308.409L297.188 297.506Z" fill="url(#paint7_linear_1_6134)"/>
<path d="M312.285 234.35L293.851 313.789L348.767 306.61C374.827 213.582 304.289 202.161 304.289 202.161" fill="#BD2143"/>
<path d="M313.875 230.398L283.354 308.961L294.102 313.789L313.875 230.398Z" fill="#9C1E45"/>
<path d="M133.216 316.881L122.537 386.701L166.333 387.223L146.951 316.881H133.216Z" fill="#B1E3F9"/>
<path d="M624.992 434.857H-79.1418V632.231H624.992V434.857Z" fill="#CD9B8E"/>
<path d="M624.992 487.665H-79.1418V491.479H624.992V487.665Z" fill="#C3C6C7"/>
<path d="M624.992 434.857H-79.1418V440.261H624.992V434.857Z" fill="#D2D3D3"/>
<path d="M-105.679 387.052C-118.881 387.052 -129.584 397.753 -129.584 410.955C-129.584 424.157 -118.881 434.86 -105.679 434.86H624.99V387.054H-105.679V387.052Z" fill="#D0B5A8"/>
<path d="M299.3 387.052H-54.2269V413.856H299.3V387.052Z" fill="#535A63"/>
<path opacity="0.2" d="M-105.679 387.052C-118.881 387.052 -129.584 397.753 -129.584 410.955C-129.584 413.106 -129.272 415.179 -128.742 417.158C-126.006 406.971 -116.732 399.463 -105.681 399.463H624.988V387.05H-105.679V387.052Z" fill="white"/>
<path d="M-14.4082 387.225V371.674C-14.4082 367.347 -10.8649 363.803 -6.53729 363.803H13.4655C17.7953 363.803 21.3364 367.347 21.3364 371.674V387.225H-14.4082Z" fill="#9AA1A5"/>
<path d="M12.6124 369.487C15.1501 369.487 17.2086 371.543 17.2086 374.083V387.225H8.01624V374.083C8.01624 371.545 10.0747 369.487 12.6124 369.487Z" fill="#ABB1B5"/>
<path d="M-6.53729 363.803C-10.867 363.803 -14.4082 367.347 -14.4082 371.674V387.225H3.46519V363.803H-6.53729Z" fill="#D2D3D3"/>
<path d="M143.908 387.225V371.674C143.908 367.347 147.452 363.803 151.779 363.803H171.782C176.11 363.803 179.653 367.347 179.653 371.674V387.225H143.908Z" fill="#9AA1A5"/>
<path d="M152.632 369.487C150.094 369.487 148.036 371.543 148.036 374.083V387.225H157.228V374.083C157.228 371.545 155.17 369.487 152.632 369.487Z" fill="#ABB1B5"/>
<path d="M170.929 369.487C173.467 369.487 175.525 371.543 175.525 374.083V387.225H166.333V374.083C166.333 371.545 168.389 369.487 170.929 369.487Z" fill="#ABB1B5"/>
<path d="M151.779 363.803C147.452 363.803 143.908 367.347 143.908 371.674V387.225H161.782V363.803H151.779Z" fill="#D2D3D3"/>
<path d="M127.82 368.919H37.4242V387.225H127.82V368.919Z" fill="#9AA1A5"/>
<path opacity="0.7" d="M82.6234 368.919H37.4242V387.225H82.6234V368.919Z" fill="#D2D3D3"/>
<path d="M89.8368 368.919H75.4057V304.089C75.4057 284.366 91.4526 268.317 111.178 268.317C130.904 268.317 146.951 284.364 146.951 304.089H132.52C132.52 292.32 122.945 282.748 111.178 282.748C99.4095 282.748 89.8368 292.32 89.8368 304.089V368.919Z" fill="#9AA1A5"/>
<path d="M149.903 304.091H129.567L127.517 316.883H151.953L149.903 304.091Z" fill="#535A63"/>
<path d="M101.122 359.484H64.1247V368.922H101.122V359.484Z" fill="#535A63"/>
<path d="M180.785 287.19L219.009 304.752M289.256 297.521L352.273 291.322" stroke="white"/>
</g>
</g>
<defs>
<linearGradient id="paint0_linear_1_6134" x1="303.635" y1="-233.897" x2="274.668" y2="787.852" gradientUnits="userSpaceOnUse">
<stop offset="0.1126" stop-color="#F9EBC3"/>
<stop offset="1" stop-color="#CD755C"/>
</linearGradient>
<linearGradient id="paint1_linear_1_6134" x1="196.998" y1="150.918" x2="213.082" y2="150.918" gradientUnits="userSpaceOnUse">
<stop offset="0.6129" stop-color="#F8BBA8"/>
<stop offset="0.9088" stop-color="#EF8981"/>
</linearGradient>
<linearGradient id="paint2_linear_1_6134" x1="364.764" y1="139.34" x2="315.953" y2="146.106" gradientUnits="userSpaceOnUse">
<stop offset="0.6129" stop-color="#F8BBA8"/>
<stop offset="0.9088" stop-color="#EF8981"/>
</linearGradient>
<linearGradient id="paint3_linear_1_6134" x1="282.129" y1="253.076" x2="275.617" y2="210.017" gradientUnits="userSpaceOnUse">
<stop offset="0.6129" stop-color="#F8BBA8"/>
<stop offset="0.9071" stop-color="#EF8981"/>
</linearGradient>
<linearGradient id="paint4_linear_1_6134" x1="278.98" y1="261.391" x2="266.898" y2="101.91" gradientUnits="userSpaceOnUse">
<stop offset="0.6129" stop-color="#F8BBA8"/>
<stop offset="0.9071" stop-color="#EF8981"/>
</linearGradient>
<linearGradient id="paint5_linear_1_6134" x1="409.479" y1="279.362" x2="409.476" y2="279.383" gradientUnits="userSpaceOnUse">
<stop offset="0.6129" stop-color="#F8BBA8"/>
<stop offset="0.9071" stop-color="#EF8981"/>
</linearGradient>
<linearGradient id="paint6_linear_1_6134" x1="137.604" y1="345.657" x2="209.321" y2="345.657" gradientUnits="userSpaceOnUse">
<stop offset="0.6129" stop-color="#F8BBA8"/>
<stop offset="0.9071" stop-color="#EF8981"/>
</linearGradient>
<linearGradient id="paint7_linear_1_6134" x1="248.119" y1="342.104" x2="319.836" y2="342.104" gradientUnits="userSpaceOnUse">
<stop offset="0.6129" stop-color="#F8BBA8"/>
<stop offset="0.9071" stop-color="#EF8981"/>
</linearGradient>
<clipPath id="clip0_1_6134">
<rect width="500" height="500" rx="250" fill="white"/>
</clipPath>
<clipPath id="clip1_1_6134">
<rect width="644.628" height="644.628" fill="white" transform="translate(-34.0909 -12.3967)"/>
</clipPath>
</defs>
</svg>
