<svg width="500" height="500" viewBox="0 0 500 500" fill="none" xmlns="http://www.w3.org/2000/svg">
<g clip-path="url(#clip0_1_3603)">
<rect width="500" height="500" rx="250" fill="white"/>
<path d="M142.592 332.806L142.356 333.042C139.166 326.073 137.158 318.158 136.331 309.417C137.158 318.04 139.403 325.837 142.592 332.806Z" fill="#DFDFDF"/>
<path d="M218.431 230.864C233.958 230.864 246.545 218.276 246.545 202.749C246.545 187.222 233.958 174.635 218.431 174.635C202.904 174.635 190.317 187.222 190.317 202.749C190.317 218.276 202.904 230.864 218.431 230.864Z" fill="#DFDFDF"/>
<path d="M303.365 131.872H204.374C161.376 131.872 135.742 157.506 135.742 200.504V299.495C135.742 312.37 137.987 323.593 142.357 333.043C152.516 355.487 174.252 368.126 204.374 368.126H303.365C346.363 368.126 371.996 342.493 371.996 299.495V272.443V200.504C371.996 157.506 346.363 131.872 303.365 131.872ZM352.742 255.906C343.528 247.991 328.644 247.991 319.43 255.906L270.289 298.077C261.075 305.992 246.191 305.992 236.977 298.077L232.961 294.77C224.574 287.446 211.225 286.737 201.775 293.116L157.596 322.766C154.997 316.151 153.461 308.472 153.461 299.495V200.504C153.461 167.192 171.062 149.591 204.374 149.591H303.365C336.676 149.591 354.277 167.192 354.277 200.504V257.205L352.742 255.906Z" fill="#DFDFDF"/>
<g clip-path="url(#clip1_1_3603)">
<path d="M692.917 455.351H-184.415V791.227H692.917V455.351Z" fill="#B16598"/>
<path d="M692.917 13.1979H-184.415V469.387H692.917V13.1979Z" fill="url(#paint0_linear_1_3603)"/>
<path d="M692.917 422.014H-184.415V469.387H692.917V422.014Z" fill="url(#paint1_linear_1_3603)"/>
<path d="M692.917 458.275H-184.415V469.387H692.917V458.275Z" fill="#6F401E"/>
<path d="M692.917 458.275H-184.415V461.053H692.917V458.275Z" fill="#BB6D33"/>
<path d="M692.917 -17.9198H-184.415V35.1549H692.917V-17.9198Z" fill="#A38E8E"/>
<path d="M692.526 12.0272H664.219L692.526 -9.59271V-12.539L660.363 12.0272H409.721L449.44 -18.3094H445.584L405.865 12.0272H102.636L62.9151 -18.3094H59.0607L98.7816 12.0272H-151.864L-184.415 -12.8354V-9.89089L-155.718 12.0272H-184.415V14.3669H-152.655L-125.499 35.1091H-121.644L-148.801 14.3669H101.845L129.001 35.1091H132.856L105.699 14.3669H402.802L375.645 35.1091H379.501L406.658 14.3669H657.3L630.143 35.1091H633.999L661.156 14.3669H692.526V12.0272Z" fill="#F1F0F8"/>
<path d="M43.7009 310.299L464.8 328.334V302.988H43.7009V310.299Z" fill="#E7BB97"/>
<path d="M464.8 313.126L43.7009 307.966V116.718H464.8V313.126Z" fill="#5C3618"/>
<path d="M455.441 300.798L458.18 302.598V122.453L455.441 126.077V300.798Z" fill="#A77D52"/>
<path d="M50.3202 126.077V124.264L458.181 122.453L455.441 126.077H50.3202Z" fill="#866543"/>
<path d="M53.0598 126.077L50.3202 124.264V302.988L53.0598 298.609V126.077Z" fill="#A77D52"/>
<path d="M50.3202 302.988L458.181 302.599L455.441 295.969L54.0001 297.042L50.3202 302.988Z" fill="#866543"/>
<path d="M53.0598 298.609V126.077H455.441V300.798L53.0598 298.609Z" fill="url(#paint2_linear_1_3603)"/>
<path d="M-18.6851 162.795L20.4682 475.807H-27.08V173.923L-18.6851 162.795Z" fill="#F3D8C3"/>
<path opacity="0.45" d="M426.414 494.379L436.296 495.612L514.791 494.243L484.148 491.71L426.414 494.379Z" fill="#B16598"/>
<path d="M419.613 353.129L423.776 403.081H428.579L430.5 353.129H419.613Z" fill="#D1CEE7"/>
<path d="M424.974 403.16H423.695L419.535 353.208H422.82L424.974 403.16Z" fill="#F1F0F8"/>
<path d="M420.679 366.933H429.968L429.88 369.254L421.06 371.523L420.679 366.933Z" fill="#D1CEE7"/>
<path d="M488.443 353.129L492.605 403.081H497.408L499.33 353.129H488.443Z" fill="#D1CEE7"/>
<path d="M493.803 403.16H492.526L488.365 353.208H491.651L493.803 403.16Z" fill="#F1F0F8"/>
<path d="M489.518 366.933H498.808L498.718 369.254L489.9 371.523L489.518 366.933Z" fill="#D1CEE7"/>
<path d="M480.197 409.544L484.359 494.243H489.163L491.084 409.544H480.197Z" fill="#908EAB"/>
<path d="M485.557 494.379H484.28L480.121 409.68H483.406L485.557 494.379Z" fill="#A8A9B4"/>
<path d="M480.39 415.923H490.891L490.845 418.066L480.607 420.555L480.39 415.923Z" fill="#D1CEE7"/>
<path d="M422.331 409.544L426.494 494.243H431.297L433.218 409.544H422.331Z" fill="#908EAB"/>
<path d="M427.691 494.379H426.414L422.255 409.68H425.54L427.691 494.379Z" fill="#A8A9B4"/>
<path d="M422.465 413.736L433.065 415.923L433.025 418.082L422.783 420.555L422.465 413.736Z" fill="#D1CEE7"/>
<path d="M439.222 409.544L443.385 494.243H448.188L450.109 409.544H439.222Z" fill="#D1CEE7"/>
<path d="M444.583 494.379H443.305L439.146 409.68H442.431L444.583 494.379Z" fill="#F1F0F8"/>
<path d="M439.463 415.923H449.962L449.916 418.066L439.68 420.555L439.463 415.923Z" fill="#D1CEE7"/>
<path d="M407.481 314.448V361.781C407.481 364.628 409.787 366.933 412.633 366.933H506.078C508.924 366.933 511.23 364.626 511.23 361.781V314.448C511.23 311.602 508.924 309.296 506.078 309.296H412.633C409.789 309.296 407.481 311.602 407.481 314.448Z" fill="#A77D52"/>
<path d="M418.397 366.931H412.634C409.791 366.931 407.485 364.626 407.485 361.783V314.451C407.485 311.598 409.791 309.292 412.634 309.292H418.397C415.554 309.292 413.249 311.598 413.249 314.451V361.783C413.249 364.626 415.554 366.931 418.397 366.931Z" fill="#D7AA77"/>
<path d="M413.04 411.443C413.523 413.995 415.761 415.926 418.453 415.926H516.604C519.296 415.926 521.534 413.995 522.017 411.443H413.04Z" fill="#8D633A"/>
<path d="M522.117 410.413V408.673C522.117 405.629 519.648 403.16 516.604 403.16H418.453C415.408 403.16 412.94 405.629 412.94 408.673V410.413C412.94 410.766 412.977 411.11 413.04 411.443H522.017C522.081 411.11 522.117 410.766 522.117 410.413Z" fill="#A77D52"/>
<path d="M422.538 415.923H418.455C415.764 415.923 413.526 413.992 413.036 411.447C412.979 411.112 412.94 410.764 412.94 410.41V408.672C412.94 405.627 415.408 403.167 418.455 403.167H422.538C419.493 403.167 417.023 405.627 417.023 408.672V410.41C417.023 410.766 417.062 411.112 417.119 411.447C417.609 413.992 419.847 415.923 422.538 415.923Z" fill="#D7AA77"/>
<path d="M333.956 364.168V468.85L404.986 484.359V364.168H333.956Z" fill="url(#paint3_linear_1_3603)"/>
<path d="M404.985 368.751V484.359L621.039 475.195V368.751H404.985Z" fill="url(#paint4_linear_1_3603)"/>
<path d="M404.985 368.751V524.502H409.911L421.543 368.751H404.985Z" fill="url(#paint5_linear_1_3603)"/>
<path d="M333.956 360.996V507.975H338.881L350.513 360.996H333.956Z" fill="url(#paint6_linear_1_3603)"/>
<path d="M328.492 356.715V363.816L404.985 368.751V359.587L328.492 356.715Z" fill="#D1573C"/>
<path d="M630.203 359.587H404.985V368.751H630.203V359.587Z" fill="#F8A37C"/>
<path d="M404.985 368.751V379.804L621.039 424.264V368.751H404.985Z" fill="#F3D8C3"/>
<path d="M341.842 470.573L336.775 507.975H338.881L341.842 470.573Z" fill="#F3D8C3"/>
<path d="M412.394 493.132L408.149 524.502H409.911L412.394 493.132Z" fill="#F3D8C3"/>
<path d="M333.956 364.168V366.723L404.986 379.804V368.751L333.956 364.168Z" fill="#F3D8C3"/>
<path d="M369.47 358.253L404.985 359.587H435.566V347.829H404.985H369.47V358.253Z" fill="#292864"/>
<path d="M404.985 359.587V347.829L369.47 347.148V358.254L404.985 359.587Z" fill="#2E3690"/>
<path d="M435.566 349.096H407.881V357.967L435.566 358.455V349.096Z" fill="#D1CEE7"/>
<path d="M435.566 351.326L411.293 351.241L435.566 351.156V351.326Z" fill="#7E7CB1"/>
<path d="M435.563 355.226L418.993 354.653L435.568 355.057L435.563 355.226Z" fill="#7E7CB1"/>
<path d="M364.694 346.497L400.209 347.829H430.788V336.073H400.209H364.694V346.497Z" fill="#672144"/>
<path d="M400.209 347.829V336.073H364.694V347.148L400.209 347.829Z" fill="#932F61"/>
<path d="M430.788 337.34H403.105V346.211L430.788 346.699V337.34Z" fill="#D1CEE7"/>
<path d="M430.788 339.57L406.515 339.485L430.788 339.4V339.57Z" fill="#7E7CB1"/>
<path d="M430.787 343.47L414.217 342.897L430.792 343.3L430.787 343.47Z" fill="#7E7CB1"/>
<path d="M10.8772 481.184H60.6533L28.5005 472.791L10.8772 481.184Z" fill="#F3D8C3"/>
<path d="M33.9084 411.387V408.387L31.9313 407.179L30.1015 406.484L27.65 404.948H24.9223H22.6368L21.173 405.642L20.2581 407.289L15.1721 408.168L14.5876 411.387L15.3923 413.766L14.2572 416.767L15.0992 417.902L14.8434 419L14.2572 420.097L16.4529 423.281L18.2098 422.842L19.9294 423.464L21.5389 425.294L29.4441 425.549L31.6398 423.098L32.1142 421.305L34.7487 419.548L35.9567 415.56L35.152 414.681L35.5908 413.583L33.9084 411.387Z" fill="#E8E7F4"/>
<path d="M17.9896 408.863C18.0997 408.826 21.2831 407.802 21.2831 407.802L23.1129 410.144L21.6491 409.302C21.6491 409.302 22.3437 412.047 22.4182 412.157C22.4911 412.267 24.7241 413.731 24.7241 413.731L25.1087 414.279L22.4928 414.134L17.5525 415.25L15.8328 412.743L16.4546 411.133L17.5525 410.584L20.4716 412.524L21.2865 413.439L20.9578 410.584L19.2009 409.998L16.8595 410.071L17.9896 408.863Z" fill="#DAD8EC"/>
<path d="M23.7719 420.719L29.9558 418.596L29.4441 418.378H26.8639L25.9676 417.353L26.1862 415.852L21.4661 416.621L19.4178 418.524L22.7842 417.207L25.107 417.28V418.286L24.3564 419.987L23.2958 420.719H23.7719Z" fill="#DAD8EC"/>
<path d="M22.381 407.033L23.6618 407.803L26.8825 409.083L27.101 408.534L25.8948 406.484L24.5038 405.753L24.248 406.301L26.2963 408.169L23.1129 405.9L22.381 407.033Z" fill="#DAD8EC"/>
<path d="M15.538 418.286C15.6837 418.378 16.929 419.147 16.929 419.147L17.2221 419.842L14.9535 419.987L16.0886 419.328L15.538 418.286Z" fill="#DAD8EC"/>
<path d="M21.5762 423.025L24.3937 422H27.7601L31.0164 420.28L30.6877 420.719L27.101 423.391L25.2713 424.123L21.5762 423.025Z" fill="#DAD8EC"/>
<path d="M28.4191 409.705L29.151 409.083L32.0058 410.766L29.151 410.437L28.4191 409.705Z" fill="#DAD8EC"/>
<path d="M29.9558 411.169L30.2116 411.936L33.1765 412.851L33.578 413.62L34.5302 414.352L35.152 413.51L33.4323 411.791L29.9558 411.169Z" fill="#DAD8EC"/>
<path d="M25.7846 411.525L28.0532 415.45V416.621L31.2366 418.286L32.5547 416.474L32.1515 414.352L31.4196 415.249L29.334 413.51L27.5415 412.76L27.3213 409.522H26.7351L25.7846 411.525Z" fill="#DAD8EC"/>
<path d="M16.3665 412.285V409.283L14.391 408.077L12.5613 407.381L10.1098 405.844H7.38038H5.09658L3.63278 406.539L2.7179 408.185L-2.36982 409.065L-2.95433 412.285L-2.14957 414.662L-3.2847 417.663L-2.44267 418.798L-2.6985 419.896L-3.2847 420.994L-1.089 424.177L0.667905 423.738L2.38753 424.36L3.99873 426.19L11.9022 426.446L14.0979 423.994L14.574 422.202L17.2085 420.445L18.4165 416.457L17.6101 415.577L18.0505 414.479L16.3665 412.285Z" fill="#F1F0F8"/>
<path d="M0.449338 409.759C0.559462 409.722 3.74289 408.699 3.74289 408.699L5.57264 411.04L4.10884 410.198C4.10884 410.198 4.80347 412.943 4.87802 413.053C4.95087 413.163 7.18384 414.627 7.18384 414.627L7.56843 415.176L4.95256 415.03L0.0122306 416.146L-1.7074 413.641L-1.08562 412.031L0.0122306 411.482L2.92967 413.422L3.74459 414.337L3.41591 411.482L1.65901 410.896L-0.682398 410.969L0.449338 409.759Z" fill="#DAD8EC"/>
<path d="M6.23002 421.615L12.4139 419.493L11.9022 419.274H9.32196L8.42572 418.249L8.64597 416.75L3.92419 417.517L1.87589 419.42L5.24229 418.103L7.56675 418.176V419.183L6.81622 420.884L5.75394 421.615H6.23002Z" fill="#DAD8EC"/>
<path d="M4.83905 407.93L6.11988 408.699L9.34058 409.98L9.56083 409.431L8.35285 407.381L6.9619 406.649L6.70608 407.198L8.75438 409.065L5.57095 406.796L4.83905 407.93Z" fill="#DAD8EC"/>
<path d="M4.0343 423.921L6.85178 422.896H10.2182L13.4762 421.177L13.1458 421.615L9.56083 424.287L7.73108 425.019L4.0343 423.921Z" fill="#DAD8EC"/>
<path d="M10.8772 410.601L11.6091 409.98L14.4639 411.662L11.6091 411.333L10.8772 410.601Z" fill="#DAD8EC"/>
<path d="M12.4139 412.065L12.6714 412.833L15.6346 413.748L16.0378 414.517L16.9883 415.249L17.6101 414.407L15.8904 412.687L12.4139 412.065Z" fill="#DAD8EC"/>
<path d="M8.24274 412.421L10.5113 416.347V417.517L13.6947 419.183L15.0128 417.371L14.6096 415.249L13.8777 416.145L11.7921 414.407L9.99964 413.656L9.77939 410.418H9.19489L8.24274 412.421Z" fill="#DAD8EC"/>
<path d="M-8.16913 417.626L0.0190125 481.184H31.9922L43.701 417.626H-8.16913Z" fill="#544842"/>
<path d="M30.5301 417.626L28.1904 481.184H31.9922L43.701 417.626H30.5301Z" fill="#3C332F"/>
<path d="M160.707 58.5045L117.035 4.69458" stroke="#083340" stroke-miterlimit="10"/>
<path d="M112.503 5.37732L109.189 2.94104H124.883L122.348 5.47559L112.503 5.37732Z" fill="#083340"/>
<path d="M347.794 58.5045L391.464 4.69458" stroke="#083340" stroke-miterlimit="10"/>
<path d="M395.998 5.37732L399.312 2.94104H383.618L386.153 5.47559L395.998 5.37732Z" fill="#083340"/>
<path d="M371.323 54.6061H137.178V68.6426H371.323V54.6061Z" fill="#7C7991"/>
<path d="M137.178 68.6427L149.456 72.9325H366.644L371.323 68.6427H137.178Z" fill="white"/>
<path d="M371.323 68.2531H137.178L122.065 95.1572H386.435L371.323 68.2531Z" fill="url(#paint7_linear_1_3603)"/>
<path d="M442.326 412.814C443.468 419.096 450.79 460.65 444.833 460.65C444.058 460.65 441.821 460.715 438.477 460.828C438.397 460.833 438.314 460.833 438.234 460.838C413.565 461.699 330.975 465.325 325.85 467.724C320.958 470.014 313.617 470.04 313.596 462.836C313.571 455.639 319.765 413.158 319.765 413.158L282.277 411.367C282.277 411.367 282.277 382.843 299.705 345.33C309.935 323.312 326.657 312.003 339.809 306.265C350.896 301.426 359.443 300.547 359.443 300.547H392.018C398.973 301.284 405.38 303.193 411.281 306.013H411.286C459.277 328.917 473.627 411.738 473.627 411.738L442.174 412.02C442.174 412.02 442.204 412.187 442.263 412.499C442.28 412.596 442.301 412.701 442.326 412.814Z" fill="#155677"/>
<path d="M293.51 516.849C295.141 498.577 314.706 412.269 314.706 412.269L291.182 411.145C291.182 411.145 282.314 501.134 279.869 511.797C279.869 511.797 262.187 528.722 252.335 530.237C242.483 531.753 229.367 535.448 229.348 538.572C229.326 542.108 253.599 541.603 253.599 541.603C253.599 541.603 265.724 541.603 277.218 533.015C277.218 533.015 265.092 543.247 269.365 545.141C276.737 548.411 292.247 530.996 293.51 516.849Z" fill="url(#paint8_linear_1_3603)"/>
<path d="M444.993 461.108C444.217 461.108 441.98 461.172 438.636 461.286L438.023 461.108C444.335 454.771 426.175 343.663 426.175 343.663C434.788 357.302 442.109 412.53 442.109 412.53C442.218 412.674 442.326 412.816 442.426 412.96C443.351 418.005 451.058 461.108 444.993 461.108Z" fill="#154356"/>
<path d="M461.598 411.85L523.489 398.647C523.489 398.647 526.671 398.095 531.589 390.061C533.216 387.406 544.416 382.698 543.659 385.664L539.277 392.079C539.277 392.079 568.896 376.299 565.927 384.09C557.28 406.788 484.644 425.389 463.368 431.34C446.516 436.055 446.253 432.306 445.21 430.861C443.697 428.767 442.177 412.023 442.177 412.023L461.598 411.85Z" fill="url(#paint9_linear_1_3603)"/>
<path d="M357.527 288.123C357.527 288.123 344.261 287.508 337.569 285.968C299.793 279.373 301.488 247.211 301.488 247.211C301.488 247.211 301.413 243.518 301.991 236.463C302.182 234.117 302.447 231.396 302.809 228.314C303.473 222.654 304.475 215.77 305.974 207.75C310.735 182.264 327.841 171.183 327.841 171.183C327.841 171.183 335.624 166.253 342.428 163.771C342.428 163.771 356.756 196.564 395.508 200.019L390.219 211.326C390.219 211.326 393.824 217.097 404.643 210.604C404.643 210.604 424.144 221.808 423.803 247.333C423.463 272.858 400.247 275.844 392.36 269.314C392.36 269.314 389.302 295.556 389.96 302.783C389.96 302.783 402.634 330.297 380.48 339.251C357.985 348.342 340.172 320.525 357.525 302.783V288.123" fill="url(#paint10_linear_1_3603)"/>
<path d="M357.527 288.123C357.527 288.123 371.533 288.362 378.285 282.741C378.285 282.741 367.401 297.88 357.527 302.782V288.123Z" fill="#F58F87"/>
<path d="M312.182 216.021C312.552 212.771 311.672 210.002 310.217 209.836C308.762 209.671 307.283 212.171 306.913 215.421C306.543 218.672 307.422 221.441 308.877 221.606C310.332 221.772 311.812 219.271 312.182 216.021Z" fill="black"/>
<path d="M347.882 219.296C348.252 216.045 347.372 213.276 345.917 213.111C344.462 212.945 342.983 215.446 342.613 218.696C342.243 221.946 343.123 224.715 344.578 224.881C346.033 225.047 347.512 222.546 347.882 219.296Z" fill="black"/>
<path d="M363.281 252.96C363.281 252.96 349.913 262.293 320.075 255.045" stroke="#F58F87" stroke-width="0.5" stroke-miterlimit="10" stroke-linecap="round"/>
<path d="M344.329 261.626C344.329 261.626 340.819 262.469 332.47 261.084" stroke="#F58F87" stroke-width="0.5" stroke-miterlimit="10" stroke-linecap="round"/>
<path d="M297.982 181.73C299.329 192.31 308.148 199.768 308.32 199.912C308.324 199.916 308.324 199.916 308.324 199.916C308.339 199.872 308.358 199.821 308.375 199.777C309.516 196.676 310.738 193.933 312.004 191.5C316.19 183.46 320.868 178.851 324.785 176.212C329.7 172.891 333.41 172.685 333.41 172.685C339.248 186.755 364.511 205.662 364.511 205.662L369.363 191.478C366.371 214.671 385.402 237.105 385.7 237.456C384.316 230.774 391.189 224.443 391.189 224.443C395.759 221.829 399.098 221.197 400.74 221.059C400.765 221.056 400.787 221.056 400.809 221.056C401.446 221.005 401.814 221.031 401.885 221.034C401.895 221.034 401.897 221.037 401.897 221.037C404.908 221.332 407.323 222.227 409.263 223.47C409.275 223.48 409.289 223.486 409.301 223.496C411.447 224.877 413.008 226.684 414.144 228.577C414.182 228.631 414.21 228.683 414.241 228.736C416.903 233.261 417.169 238.212 417.194 238.927C417.194 238.983 417.194 239.015 417.194 239.015C416.418 259.821 393.321 267.401 393.321 267.401C390.939 269.893 389.687 272.308 389.033 272.731C383.637 276.228 393.072 276.262 393.072 276.262C416.776 279.859 440.889 247.938 440.889 247.938C451.182 233.331 453.674 219.345 452.847 207.668C451.537 189.056 441.802 176.317 441.802 176.317C426.341 157.225 407.362 147.956 389.541 143.873C389.541 143.869 389.534 143.869 389.529 143.873C372.982 140.081 357.434 140.759 346.627 142.187C346.623 142.187 346.623 142.187 346.62 142.187C337.408 143.405 331.641 145.165 331.641 145.165C302.645 157.701 296.649 171.25 297.982 181.73Z" fill="black"/>
<path d="M322.713 240.079C326.567 241.521 328.771 240.768 328.771 240.768C336.453 235.349 329.811 223.392 329.667 223.13C329.664 223.126 329.664 223.126 329.664 223.126C329.664 223.126 321.864 221.068 317.562 229.449C313.259 237.829 322.713 240.079 322.713 240.079Z" fill="#ED8780"/>
<path d="M346.579 187.846C346.579 187.846 339.309 193.064 342.591 200.646C345.871 208.227 380.462 207.66 380.462 207.66C380.462 207.66 387.067 196.366 346.579 187.846Z" fill="black"/>
<path d="M326.891 184.659C326.891 184.659 332.775 191.4 327.848 198.032C322.921 204.663 289.376 196.204 289.376 196.204C289.376 196.204 285.528 183.699 326.891 184.659Z" fill="black"/>
<path opacity="0.46" d="M367.534 221.736C369.012 213.307 364.065 205.396 356.486 204.067C348.906 202.738 341.563 208.494 340.085 216.924C338.607 225.353 343.554 233.264 351.133 234.593C358.713 235.922 366.056 230.166 367.534 221.736Z" fill="#63C8D2"/>
<path d="M367.534 221.736C369.012 213.307 364.065 205.396 356.486 204.067C348.906 202.738 341.563 208.494 340.085 216.924C338.607 225.353 343.554 233.264 351.133 234.593C358.713 235.922 366.056 230.166 367.534 221.736Z" stroke="#9E7A2C" stroke-width="0.5" stroke-miterlimit="10"/>
<path opacity="0.46" d="M325.836 214.428C327.314 205.998 322.368 198.088 314.788 196.759C307.209 195.43 299.866 201.186 298.388 209.615C296.91 218.045 301.856 225.955 309.436 227.284C317.016 228.613 324.358 222.857 325.836 214.428Z" fill="#63C8D2"/>
<path d="M325.836 214.428C327.314 205.998 322.368 198.088 314.788 196.759C307.209 195.43 299.866 201.186 298.388 209.615C296.91 218.045 301.856 225.955 309.436 227.284C317.016 228.613 324.358 222.857 325.836 214.428Z" stroke="#9E7A2C" stroke-width="0.5" stroke-miterlimit="10"/>
<path d="M326.05 212.473L340.414 214.991" stroke="#9E7A2C" stroke-width="0.5" stroke-miterlimit="10"/>
<path d="M367.862 219.802L392.896 223.443" stroke="#9E7A2C" stroke-width="0.5" stroke-miterlimit="10"/>
<path d="M346.63 142.189C416.745 140.134 452.852 207.67 452.852 207.67C451.543 189.057 441.808 176.319 441.808 176.319C426.346 157.227 407.368 147.957 389.546 143.874C389.546 143.871 389.539 143.871 389.534 143.874C372.985 140.083 357.436 140.76 346.63 142.189Z" fill="#3A3A3A"/>
<path d="M319.439 415.023L281.337 413.197C281.337 413.197 281.337 384.109 299.051 345.854C309.449 323.399 326.445 311.866 339.814 306.014C339.812 306.016 317.518 382.167 319.439 415.023Z" fill="white"/>
<path d="M473.63 411.74L442.177 412.021C438.987 358.753 411.283 306.014 411.283 306.014H411.288C459.278 328.92 473.63 411.74 473.63 411.74Z" fill="white"/>
<path d="M317.232 467.29C317.232 467.29 298.287 530.269 322.159 536.199C346.03 542.128 366.876 536.199 366.876 536.199H445.909C445.909 536.199 457.689 481.13 447.519 461.613C447.519 461.613 412.716 458.383 317.232 467.29Z" fill="#AB213E"/>
<path d="M392.63 461.896L396.426 485.479C396.426 485.479 407.035 491.294 402.236 461.896H392.63Z" stroke="#8E203B" stroke-miterlimit="10"/>
<path d="M204.26 415.586C205.402 421.868 214.627 464.667 208.67 464.667C207.894 464.667 203.689 465.735 200.882 464.667C200.807 464.638 199.247 464.662 199.169 464.667C174.499 465.528 92.9111 468.098 87.7861 470.497C82.8932 472.788 75.5522 472.813 75.5319 465.609C75.5065 458.412 81.7005 415.931 81.7005 415.931L44.2126 414.141C44.2126 414.141 44.2126 385.617 61.641 348.104C71.8707 326.086 88.5926 314.777 101.745 309.038C112.832 304.2 121.379 303.32 121.379 303.32H153.955C160.91 304.057 167.318 305.967 173.219 308.786H173.224C221.214 331.69 235.564 414.512 235.564 414.512L204.111 414.793C204.111 414.793 204.141 414.961 204.201 415.272C204.216 415.367 204.236 415.471 204.26 415.586Z" fill="#1F9C86"/>
<path d="M225.587 519.621C223.955 501.349 204.391 415.04 204.391 415.04L227.915 413.917C227.915 413.917 236.782 503.905 239.227 514.569C239.227 514.569 256.909 531.494 266.761 533.008C276.613 534.525 289.73 538.22 289.748 541.344C289.77 544.88 265.497 544.375 265.497 544.375C265.497 544.375 253.372 544.375 241.878 535.787C241.878 535.787 254.004 546.018 249.731 547.912C242.361 551.182 226.851 533.766 225.587 519.621Z" fill="url(#paint11_linear_1_3603)"/>
<path d="M56.372 520.082C58.0035 501.81 77.5683 415.501 77.5683 415.501L54.0441 414.378C54.0441 414.378 45.1766 504.366 42.7319 515.03C42.7319 515.03 25.0493 531.955 15.1975 533.469C5.34562 534.984 -7.77099 538.681 -7.78963 541.805C-7.81165 545.341 16.4614 544.836 16.4614 544.836C16.4614 544.836 28.5869 544.836 40.0804 536.248C40.0804 536.248 27.9549 546.479 32.2277 548.373C39.5993 551.645 55.1098 534.228 56.372 520.082Z" fill="url(#paint12_linear_1_3603)"/>
<path d="M77.2413 469.074C78.0173 469.074 80.2536 469.138 83.598 469.252L84.2113 469.074C77.8987 462.738 96.0589 351.629 96.0589 351.629C87.4456 365.268 80.1249 420.496 80.1249 420.496C80.0164 420.64 79.908 420.782 79.808 420.926C78.8847 425.971 71.1777 469.074 77.2413 469.074Z" fill="#10493E"/>
<path d="M79.1659 470.062C79.1659 470.062 60.2212 533.041 84.0927 538.97C107.964 544.9 128.81 538.97 128.81 538.97H207.843C207.843 538.97 219.623 483.902 209.453 464.384C209.454 464.384 174.652 461.153 79.1659 470.062Z" fill="#861827"/>
<path d="M154.565 464.667L158.362 488.251C158.362 488.251 168.971 494.065 164.172 464.667H154.565Z" stroke="#8E203B" stroke-miterlimit="10"/>
<path d="M71.1777 237.764L67.1421 209.92L93.643 203.892L92.7976 227.56L71.1777 237.764Z" fill="url(#paint13_linear_1_3603)"/>
<path d="M123.295 287.686V312.474C123.295 312.474 113.37 335.397 144.651 332.605C167.928 330.528 156.668 312.093 156.668 312.093V296.899L123.295 287.686Z" fill="url(#paint14_linear_1_3603)"/>
<path d="M199.037 211.777C199.037 211.777 213.731 285.035 158.808 296.3C158.808 296.3 111.422 304.161 97.6092 263.073C97.6092 263.073 85.8632 270.612 76.5213 255.045C67.1794 239.479 77.8445 220.773 89.2177 223.215C89.2177 223.215 93.5176 225.188 94.6341 226.915L94.7002 197.271L197.622 193.827L199.037 211.777Z" fill="url(#paint15_linear_1_3603)"/>
<path d="M156.049 247.359C156.049 247.359 168.922 242.312 179.855 248.274C179.855 248.274 181.693 256.799 168.57 256.94C155.887 257.075 155.521 251.415 156.049 247.359Z" fill="#F3766B"/>
<path d="M155.612 230.628C155.612 233.623 154.309 236.05 152.703 236.05C151.097 236.05 149.794 233.622 149.794 230.628C149.794 227.634 151.097 225.207 152.703 225.207C154.309 225.207 155.612 227.634 155.612 230.628Z" fill="black"/>
<path d="M189.893 236.05C191.5 236.05 192.802 233.622 192.802 230.628C192.802 227.634 191.5 225.207 189.893 225.207C188.287 225.207 186.984 227.634 186.984 230.628C186.984 233.622 188.287 236.05 189.893 236.05Z" fill="black"/>
<path d="M173.957 278.883C173.957 278.883 172.721 278.966 170.625 279.127C165.122 279.545 153.693 280.499 143.177 281.88C142.336 281.99 141.505 282.102 140.681 282.217C140.681 282.217 136.413 269.097 152.925 265.19C174.649 260.052 173.957 278.883 173.957 278.883Z" fill="black"/>
<path d="M196.836 143.593C191.547 151.353 195.072 166.164 195.072 166.164C183.082 143.593 139.351 140.771 139.351 140.771C45.8932 138.509 45.8932 192.614 45.8932 192.614C61.763 191.909 67.7588 193.671 67.7588 193.671C55.0623 199.314 57.8832 218.357 57.8832 218.357C59.9993 215.536 83.4523 211.304 83.4523 211.304C85.9004 210.625 88.3977 209.993 90.9306 209.405L90.1546 210.984L92.7993 227.56L94.3868 241.182H98.7951L103.027 227.032L115.548 224.57L117.469 204.844H117.465C157.379 199.987 196.838 202.843 196.838 202.843L199.664 219.933C225.868 192.424 196.836 143.593 196.836 143.593Z" fill="url(#paint16_linear_1_3603)"/>
<path d="M124.468 216.47C124.468 216.47 140.622 215.626 153.535 222.523C153.535 222.523 157.65 223.575 157.579 220.006C157.51 216.436 146.525 211.513 139.975 210.488C132.261 209.278 116.286 212.61 124.468 216.47Z" fill="black"/>
<path d="M211.398 215.525C211.398 215.525 195.221 215.418 182.637 222.898C182.637 222.898 178.574 224.136 178.481 220.567C178.388 216.997 189.136 211.577 195.631 210.254C203.284 208.695 219.394 211.296 211.398 215.525Z" fill="black"/>
<path d="M136.884 140.725C136.884 140.725 199.433 148.761 193.109 202.62L196.836 202.842C196.836 202.842 202.656 181.298 195.072 166.163C195.072 166.163 187.32 144.35 136.884 140.725Z" fill="#FFE9C2"/>
<path d="M170.625 279.127C165.122 279.546 153.693 280.499 143.177 281.88C143.116 281.819 143.056 281.758 142.997 281.697C142.997 281.697 150.059 272.828 162.753 274.952C162.753 274.951 168.314 275.976 170.625 279.127Z" fill="#861827"/>
</g>
</g>
<defs>
<linearGradient id="paint0_linear_1_3603" x1="254.25" y1="4.42467" x2="254.25" y2="613.265" gradientUnits="userSpaceOnUse">
<stop stop-color="#F3D8C3"/>
<stop offset="1" stop-color="#F3E7DC"/>
</linearGradient>
<linearGradient id="paint1_linear_1_3603" x1="254.25" y1="421.103" x2="254.25" y2="484.329" gradientUnits="userSpaceOnUse">
<stop stop-color="#F3D8C3"/>
<stop offset="1" stop-color="#F3E7DC"/>
</linearGradient>
<linearGradient id="paint2_linear_1_3603" x1="254.25" y1="111.33" x2="254.25" y2="329.296" gradientUnits="userSpaceOnUse">
<stop stop-color="#31552A"/>
<stop offset="1" stop-color="#7B9E3E"/>
</linearGradient>
<linearGradient id="paint3_linear_1_3603" x1="377.677" y1="342.2" x2="362.272" y2="496.245" gradientUnits="userSpaceOnUse">
<stop stop-color="#D1573C"/>
<stop offset="1" stop-color="#F8A37C"/>
</linearGradient>
<linearGradient id="paint4_linear_1_3603" x1="480.609" y1="313.144" x2="542.244" y2="528.867" gradientUnits="userSpaceOnUse">
<stop stop-color="#D1573C"/>
<stop offset="1" stop-color="#F8A37C"/>
</linearGradient>
<linearGradient id="paint5_linear_1_3603" x1="386.902" y1="442.139" x2="439.079" y2="451.02" gradientUnits="userSpaceOnUse">
<stop stop-color="#D1573C"/>
<stop offset="1" stop-color="#F8A37C"/>
</linearGradient>
<linearGradient id="paint6_linear_1_3603" x1="314.273" y1="336.62" x2="368.656" y2="526.96" gradientUnits="userSpaceOnUse">
<stop stop-color="#D1573C"/>
<stop offset="1" stop-color="#F8A37C"/>
</linearGradient>
<linearGradient id="paint7_linear_1_3603" x1="254.25" y1="61.6245" x2="254.25" y2="90.8746" gradientUnits="userSpaceOnUse">
<stop stop-color="#F3D8C3"/>
<stop offset="1" stop-color="#F3E7DC" stop-opacity="0"/>
</linearGradient>
<linearGradient id="paint8_linear_1_3603" x1="229.347" y1="478.344" x2="314.706" y2="478.344" gradientUnits="userSpaceOnUse">
<stop offset="0.6882" stop-color="#FABCA8"/>
<stop offset="1" stop-color="#F58F87"/>
</linearGradient>
<linearGradient id="paint9_linear_1_3603" x1="442.176" y1="407.787" x2="566.135" y2="407.787" gradientUnits="userSpaceOnUse">
<stop offset="0.6882" stop-color="#FABCA8"/>
<stop offset="1" stop-color="#F58F87"/>
</linearGradient>
<linearGradient id="paint10_linear_1_3603" x1="295.405" y1="341.981" x2="385.285" y2="210.464" gradientUnits="userSpaceOnUse">
<stop offset="0.6882" stop-color="#FABCA8"/>
<stop offset="1" stop-color="#F58F87"/>
</linearGradient>
<linearGradient id="paint11_linear_1_3603" x1="289.75" y1="481.115" x2="204.391" y2="481.115" gradientUnits="userSpaceOnUse">
<stop offset="0.6882" stop-color="#FABCA8"/>
<stop offset="1" stop-color="#F58F87"/>
</linearGradient>
<linearGradient id="paint12_linear_1_3603" x1="-7.79025" y1="481.577" x2="77.568" y2="481.577" gradientUnits="userSpaceOnUse">
<stop offset="0.6882" stop-color="#FABCA8"/>
<stop offset="1" stop-color="#F58F87"/>
</linearGradient>
<linearGradient id="paint13_linear_1_3603" x1="87.5885" y1="238.542" x2="80.8878" y2="215.619" gradientUnits="userSpaceOnUse">
<stop stop-color="#F27858"/>
<stop offset="0.9129"/>
</linearGradient>
<linearGradient id="paint14_linear_1_3603" x1="126.869" y1="358.617" x2="145.155" y2="291.207" gradientUnits="userSpaceOnUse">
<stop offset="0.644" stop-color="#FCC195"/>
<stop offset="0.9882" stop-color="#F3766B"/>
</linearGradient>
<linearGradient id="paint15_linear_1_3603" x1="149.354" y1="322.034" x2="133.942" y2="209.283" gradientUnits="userSpaceOnUse">
<stop offset="0.644" stop-color="#FCC195"/>
<stop offset="0.9882" stop-color="#F3766B"/>
</linearGradient>
<linearGradient id="paint16_linear_1_3603" x1="132.922" y1="244.773" x2="129.716" y2="207.194" gradientUnits="userSpaceOnUse">
<stop stop-color="#EA725B"/>
<stop offset="0.9129"/>
</linearGradient>
<clipPath id="clip0_1_3603">
<rect width="500" height="500" rx="250" fill="white"/>
</clipPath>
<clipPath id="clip1_1_3603">
<rect width="508.264" height="508.264" fill="white" transform="translate(-5.16528 -4.1322)"/>
</clipPath>
</defs>
</svg>
