<svg width="500" height="500" viewBox="0 0 500 500" fill="none" xmlns="http://www.w3.org/2000/svg">
<g clip-path="url(#clip0_1_1899)">
<rect width="500" height="500" rx="250" fill="white"/>
<path d="M142.592 332.806L142.356 333.042C139.166 326.073 137.158 318.158 136.331 309.417C137.158 318.04 139.403 325.837 142.592 332.806Z" fill="#DFDFDF"/>
<path d="M218.431 230.864C233.958 230.864 246.545 218.277 246.545 202.749C246.545 187.222 233.958 174.635 218.431 174.635C202.904 174.635 190.317 187.222 190.317 202.749C190.317 218.277 202.904 230.864 218.431 230.864Z" fill="#DFDFDF"/>
<path d="M303.365 131.872H204.374C161.376 131.872 135.742 157.506 135.742 200.504V299.495C135.742 312.371 137.987 323.593 142.357 333.043C152.516 355.487 174.252 368.127 204.374 368.127H303.365C346.363 368.127 371.996 342.493 371.996 299.495V272.444V200.504C371.996 157.506 346.363 131.872 303.365 131.872ZM352.742 255.906C343.528 247.991 328.644 247.991 319.43 255.906L270.289 298.077C261.075 305.992 246.191 305.992 236.977 298.077L232.961 294.77C224.574 287.446 211.225 286.737 201.775 293.116L157.596 322.766C154.997 316.151 153.461 308.472 153.461 299.495V200.504C153.461 167.192 171.062 149.591 204.374 149.591H303.365C336.676 149.591 354.277 167.192 354.277 200.504V257.205L352.742 255.906Z" fill="#DFDFDF"/>
<g clip-path="url(#clip1_1_1899)">
<path d="M515.784 -34.6543H-27.604V508.734H515.784V-34.6543Z" fill="#F5D995"/>
<path d="M418.098 -34.6977L398.655 394.411H422.669L431.077 -34.6977H418.098Z" fill="#FAEBC3"/>
<path d="M516.014 -35.6305L496.574 404.288H520.588L528.996 -35.6305H516.014Z" fill="#FAEBC3"/>
<path d="M36.5013 -39.6281L17.0589 400.29H41.0748L49.4829 -39.6281H36.5013Z" fill="#FAEBC3"/>
<path d="M316.83 -34.6977L338.971 396.919H305.555V-34.6977H316.83Z" fill="#FAEBC3"/>
<path d="M204.89 -35.953L227.031 395.666H193.617V-35.953H204.89Z" fill="#FAEBC3"/>
<path d="M513.785 421.915H-29.6037V508.692H513.785V421.915Z" fill="#D29779"/>
<path d="M513.785 394.411H-29.6037V419.405H513.785V394.411Z" fill="#BC7B5B"/>
<path d="M513.785 396.919H-29.6037V421.913H513.785V396.919Z" fill="#FABB98"/>
<path d="M510.222 486.772L-19.7538 496.033L39.461 446.782L476.097 445.705L510.222 486.772Z" fill="#A4926A"/>
<path d="M511.34 483.7L-18.6381 492.961L40.5786 443.709L477.215 442.633L511.34 483.7Z" fill="#F5DA96"/>
<path d="M73.6582 -120.854H-113.168V190.899H73.6582V-120.854Z" fill="#9B8770"/>
<path d="M73.6582 -116.679H-113.168V195.074H73.6582V-116.679Z" fill="#C5B69D"/>
<path d="M57.3095 49.5203H-17.5549V179.001H57.3095V49.5203Z" fill="#ADDEE5"/>
<path d="M57.3095 -99.0838H-17.5549V30.3966H57.3095V-99.0838Z" fill="#ADDEE5"/>
<path d="M-17.5549 24.95H51.5713V-99.0839H57.3095V30.3965H-17.5549V24.95Z" fill="#9B8770"/>
<path d="M-17.5549 173.554H51.5713V49.5202H57.3095V178.999H-17.5549V173.554Z" fill="#9B8770"/>
<path d="M431.527 282.264C431.527 282.264 433.894 247.227 431.527 220.711C429.159 194.196 406.433 196.563 406.433 196.563C406.433 196.563 131.835 197.119 90.1483 196.563C42.801 195.931 57.9634 282.795 57.9634 282.795H71.6839C71.6839 282.795 58.3148 234.261 72.1567 215.502C72.1567 215.502 78.3115 204.138 87.7809 204.138C97.2504 204.138 130.393 205.085 130.393 205.085L124.711 282.263L136.075 282.795L136.548 204.612L189.577 205.085L195.26 282.795H209.938L197.154 205.085L260.127 206.505L253.498 282.793H261.547L263.442 206.505L314.579 205.558L323.101 282.793H332.097L319.313 205.083L373.763 204.136L382.759 282.791H392.703L378.025 203.661C378.025 203.661 412.115 200.347 415.902 206.502C419.69 212.656 422.057 282.79 422.057 282.79L431.527 282.264Z" fill="#B2B2B2"/>
<path d="M435.789 282.264C435.789 282.264 438.156 247.227 435.789 220.711C433.421 194.196 410.695 196.563 410.695 196.563C410.695 196.563 136.097 197.119 94.4103 196.563C47.063 195.931 62.2254 282.795 62.2254 282.795H75.9459C75.9459 282.795 62.5768 234.261 76.4187 215.502C76.4187 215.502 82.5734 204.138 92.0429 204.138C101.512 204.138 134.655 205.085 134.655 205.085L128.973 282.263L140.337 282.795L140.81 204.612L193.839 205.085L199.521 282.795H214.2L201.416 205.085L264.389 206.505L257.76 282.793H265.809L267.704 206.505L318.841 205.558L327.363 282.793H336.359L323.575 205.083L378.025 204.136L387.021 282.791H396.965L382.287 203.661C382.287 203.661 416.377 200.347 420.164 206.502C423.952 212.656 426.319 282.79 426.319 282.79L435.789 282.264Z" fill="white"/>
<path d="M131.107 392.695L137.923 436.741H142.643V392.695H131.107Z" fill="#B2B2B2"/>
<path d="M135.001 392.695L141.819 436.741H146.537V392.695H135.001Z" fill="white"/>
<path d="M385.397 392.695L378.579 436.741H373.86V392.695H385.397Z" fill="#B2B2B2"/>
<path d="M381.5 392.695L374.685 436.741H369.964V392.695H381.5Z" fill="white"/>
<path d="M57.478 392.695L66.7102 452.354H73.1022V392.695H57.478Z" fill="#B2B2B2"/>
<path d="M62.7543 392.695L71.9864 452.354H78.3785V392.695H62.7543Z" fill="white"/>
<path d="M436.841 392.695L427.607 452.354H421.217V392.695H436.841Z" fill="#B2B2B2"/>
<path d="M440.391 392.695L431.159 452.354H424.767V392.695H440.391Z" fill="white"/>
<path d="M451.359 392.695H52.1999C41.7795 392.695 33.3316 384.248 33.3316 373.827V303.538C33.3316 290.46 43.9331 279.861 57.0088 279.861H443.22C457.421 279.861 468.934 291.373 468.934 305.574V375.124C468.932 384.827 461.063 392.695 451.359 392.695Z" fill="#88C3AA"/>
<path d="M463.856 393.853H30.727V338.454H468.932V388.776C468.932 391.58 466.659 393.853 463.856 393.853Z" fill="#598672"/>
<path d="M347.635 310.073L333.267 374.802C333.267 374.802 359.35 382.016 373.225 378.41L377.11 354.269L385.494 378.131C385.494 378.131 419.563 371.471 428.998 365.644L409.297 291.189L347.635 310.073Z" fill="#BD2043"/>
<path d="M369.06 332.712L377.108 354.269L373.223 378.41C373.223 378.41 368.064 379.94 361.477 379.38L369.06 332.712Z" fill="#9B1E45"/>
<path d="M399.78 300.145L419.592 369.607C419.592 369.607 427.424 367.125 428.996 365.646L409.295 291.189L399.78 300.145Z" fill="#9B1E45"/>
<path d="M402.805 265.447L409.295 291.19C402.265 302.29 384.322 306.914 384.322 306.914C349.73 317.088 346.586 308.948 346.586 308.948C342.516 303.214 346.401 294.52 346.401 294.52C346.955 284.346 342.885 271.027 342.885 271.027C342.885 271.027 342.88 271.034 342.867 271.047C336.267 277.972 323.894 283.94 321.815 284.914C321.715 284.961 321.615 285.009 321.514 285.054C320.815 283.656 307.971 262.945 306.567 260.683C306.545 260.647 306.526 260.614 306.507 260.587L306.444 260.484C317.154 253.644 318.351 252.231 328.828 242.726C339.652 232.901 352.467 222.881 352.866 222.57L352.873 222.564L352.875 222.562L370.078 218.862C405.04 227.741 416.14 256.414 416.14 256.414L402.805 265.447Z" fill="#145677"/>
<path d="M399.78 300.146L389.916 268.647L402.805 265.445L409.295 291.189C409.295 291.19 406.366 296.402 399.78 300.146Z" fill="#17485B"/>
<path d="M370.078 218.862C368.599 233.106 349.361 243.649 348.805 234.401C348.251 225.152 352.875 222.562 352.875 222.562C353.616 220.342 350.656 213.127 350.656 213.127C350.656 213.127 340.111 221.082 324.387 220.342C308.665 219.603 304.779 202.214 304.779 202.214C302.559 202.768 301.389 202.214 301.389 202.214C297.485 198.737 301.907 192.547 302.003 192.411C302.005 192.41 302.005 192.41 302.005 192.41C299.23 183.161 302.005 168.917 302.005 168.917C307.739 142.465 347.325 157.633 347.325 157.633L351.58 176.132C356.039 170.978 360.287 171.558 363.27 173.208C365.956 174.695 367.861 177.262 368.695 180.218C371.928 191.703 363.234 195.739 363.234 195.739C360.459 210.168 370.078 218.862 370.078 218.862Z" fill="url(#paint0_linear_1_1899)"/>
<path d="M383.397 180.941C383.397 180.941 376.648 200.178 362.766 202.231C362.766 202.231 362.766 202.205 362.763 202.158C362.739 201.698 362.549 199.079 361.292 195.594C361.292 195.594 371.714 191.968 368.615 179.95C368.615 179.95 368.609 179.932 368.599 179.899C368.463 179.495 367.474 176.715 365.215 174.59C365.188 174.565 365.163 174.539 365.134 174.516C364.175 173.632 362.994 172.869 361.558 172.453C361.551 172.449 361.542 172.447 361.533 172.446C360.236 172.071 358.731 171.978 356.995 172.332C356.995 172.332 356.994 172.332 356.988 172.333C356.948 172.342 356.738 172.391 356.389 172.531C356.378 172.534 356.365 172.54 356.352 172.545C355.456 172.909 353.693 173.848 351.58 176.132C351.58 176.132 348.807 180.939 350.716 184.516C350.489 184.368 336.024 174.851 333.76 161.085L333.452 170.028C333.452 170.028 316.098 163.607 310.44 156.58C310.44 156.58 308.398 157.341 306.21 160.091C304.466 162.277 302.629 165.718 301.651 171.036C301.356 172.645 301.139 174.424 301.026 176.392C301.025 176.421 301.023 176.452 301.021 176.481C301.021 176.481 301.021 176.481 301.019 176.479C300.898 176.427 294.694 173.695 292.142 167.885C289.615 162.13 290.671 153.353 304.779 141.17C304.779 141.17 318.612 131.701 336.968 130.4C336.97 130.398 336.973 130.398 336.975 130.398C347.646 129.643 359.845 131.648 371.743 139.875C371.743 139.875 391.906 154.673 383.397 180.941Z" fill="black"/>
<path d="M350.931 419.626C350.265 426.806 349.904 433.319 350.192 437.512C350.192 437.512 350.929 451.45 350.288 459.307C350.129 461.262 348.495 462.763 346.535 462.763H306.444C303.484 451.664 323.001 449.351 323.001 449.351C329.558 449.108 331.389 445.013 333.822 441.767C336.345 438.401 337.421 436.539 337.095 432.346C336.83 428.927 336.814 424.496 336.959 419.626C337.499 401.198 340.297 376.488 340.297 376.488L356.24 379.036C356.24 379.036 352.612 401.467 350.931 419.626Z" fill="url(#paint1_linear_1_1899)"/>
<path d="M424.417 462.763H380.577C380.993 456.38 386.958 453.468 391.26 450.693C395.56 447.918 408 446.762 409.264 437.512C409.648 434.708 409.01 427.84 407.935 419.626C405.464 400.747 400.684 374.765 400.684 374.765L415.018 371.038C419.049 385.562 421.354 403.487 422.671 419.626C424.588 443.08 424.417 462.763 424.417 462.763Z" fill="url(#paint2_linear_1_1899)"/>
<path d="M314.091 272.777L306.779 260.955C306.779 260.955 295.348 265.856 293.129 265.856C293.129 265.856 262.549 265.124 250.366 257.283C250.011 257.055 249.635 256.861 249.243 256.7L249.223 256.68C246.555 256.477 240.709 255.763 233.741 253.26C224.159 249.821 215.955 253.693 215.955 253.693C215.955 253.693 215.061 255.925 218.727 256.412C218.727 256.412 212.853 257.645 211.291 258.446C209.728 259.245 212.896 262.092 217.855 260.998C217.855 260.998 229.748 259.969 237.767 263.947C237.767 263.947 238.964 264.802 239.928 265.793C240.707 266.591 239.292 267.948 238.336 268.52C236.876 269.392 235.72 270.457 233.021 270.455C231.585 270.457 230.794 272.197 231.781 273.242C232.659 274.173 234.871 274.807 239.957 274.128C239.957 274.128 246.746 273.965 251.915 269.109C261.109 272.876 277.918 278.616 295.721 278.988C295.719 278.99 306.011 278.22 314.091 272.777Z" fill="url(#paint3_linear_1_1899)"/>
<path d="M417.757 354.964C418.098 355.517 418.078 355.901 417.886 356.165C417.451 356.767 416.14 356.767 416.14 356.767C413.868 355.814 410.568 350.175 410.45 349.974C410.537 350.21 413.321 357.763 413.597 359.264C413.874 360.791 412.209 364.537 409.295 363.427C406.428 362.335 404.5 357.209 404.441 357.049C405.966 364.26 403.519 364.999 403.519 364.999C401.812 364.073 401.526 360.375 400.046 352.235C398.566 344.097 405.966 328.742 405.966 328.742C410.036 312.279 407.076 283.052 406.889 281.757C406.705 280.462 398.936 268.067 398.936 268.067L410.449 260.27C410.449 260.27 419.284 272.415 419.561 276.854C419.838 281.294 418.217 323.47 415.004 331.794L415.006 331.796C415.089 331.934 418.295 337.235 416.926 339.565C415.538 341.923 413.597 348.304 413.597 348.721C413.597 349.137 416.649 353.16 417.757 354.964Z" fill="url(#paint4_linear_1_1899)"/>
<path d="M307.323 183.346C308.242 183.346 308.987 181.793 308.987 179.877C308.987 177.962 308.242 176.409 307.323 176.409C306.403 176.409 305.658 177.962 305.658 179.877C305.658 181.793 306.403 183.346 307.323 183.346Z" fill="#231F20"/>
<path d="M309.82 162.951C309.82 162.951 305.011 165.586 306.444 170.442C307.877 175.298 328.966 177.517 328.966 177.517C328.966 177.517 333.822 171.136 309.82 162.951Z" fill="black"/>
<path d="M329.37 207.485C329.379 210.956 324.955 213.511 320.134 213.174C318.207 213.04 317.297 212.805 315.926 211.647C315.926 211.647 314.589 210.249 314.508 210.137C313.845 209.228 313.988 208.958 314.955 208.364C317.504 206.8 324.664 202.417 326.055 202.229C327.412 202.044 328.71 202.412 329.185 205.053C329.301 205.714 329.366 206.514 329.37 207.485Z" fill="#231F20"/>
<path d="M329.361 207.462C329.388 210.932 325.095 213.785 319.772 213.145C319.618 208.563 327.225 205.61 329.161 205.033C329.283 205.69 329.353 206.491 329.361 207.462Z" fill="#B62325"/>
<path d="M350.192 437.512C350.192 437.512 350.935 451.535 350.283 459.378C350.123 461.291 348.528 462.763 346.608 462.763H306.446C303.486 451.664 323.003 449.351 323.003 449.351C329.56 449.108 331.391 445.013 333.824 441.767C336.347 438.401 337.423 436.539 337.097 432.346C336.832 428.927 336.816 424.496 336.961 419.626H350.933C350.265 426.806 349.904 433.319 350.192 437.512Z" fill="white"/>
<path d="M424.417 462.763H380.577C380.993 456.38 386.958 453.468 391.26 450.693C395.56 447.918 408 446.762 409.264 437.512C409.648 434.708 409.01 427.84 407.935 419.626H422.671C424.588 443.08 424.417 462.763 424.417 462.763Z" fill="white"/>
<path d="M304.779 202.214C302.559 202.769 301.389 202.214 301.389 202.214C297.485 198.737 301.907 192.547 302.003 192.412C302.005 192.41 302.005 192.41 302.005 192.41C302.005 192.41 306.444 191.763 308.293 196.664C310.144 201.566 304.779 202.214 304.779 202.214Z" fill="#EE8780"/>
<path opacity="0.46" d="M304.079 194.07C306.182 193.761 307.114 188.252 306.16 181.765C305.206 175.278 302.728 170.27 300.624 170.579C298.521 170.889 297.59 176.398 298.544 182.885C299.497 189.372 301.976 194.38 304.079 194.07Z" fill="#62C7D1"/>
<path d="M304.079 194.07C306.182 193.761 307.114 188.252 306.16 181.765C305.206 175.278 302.728 170.27 300.624 170.579C298.521 170.889 297.59 176.398 298.544 182.885C299.497 189.372 301.976 194.38 304.079 194.07Z" stroke="#9C7A2C" stroke-width="1.03306" stroke-miterlimit="10"/>
<path d="M305.989 180.787L350.679 178.53" stroke="#9C7A2C" stroke-width="1.03306" stroke-miterlimit="10"/>
<path d="M342.885 271.027C342.885 271.027 342.88 271.034 342.867 271.047C342.485 271.471 336.202 278.298 321.815 284.914C321.715 284.961 321.615 285.009 321.514 285.054L306.567 260.683L306.507 260.587L306.444 260.484C317.154 253.644 318.351 252.231 328.828 242.726C339.652 232.901 346.528 227.625 346.926 227.313C346.925 227.313 337.89 252.713 342.885 271.027Z" fill="white"/>
<path d="M378.045 221.358C378.045 221.358 370.171 244.945 391.814 271.027L392.74 272.322L416.14 256.414C416.14 256.414 407.074 231.349 378.045 221.358Z" fill="white"/>
<path d="M396.134 288.503C396.134 288.503 394.868 305.203 384.323 306.914C384.323 306.914 390.265 307.067 399.78 300.146L396.134 288.503Z" fill="#17485B"/>
<path d="M342.275 246.839C342.275 246.839 339.911 273.615 318.091 279.35L321.514 285.052C321.514 285.052 334.515 280.922 342.867 271.045C342.867 271.047 340.915 251.233 342.275 246.839Z" fill="#E0E0E0"/>
<path d="M377.383 224.107C377.383 224.107 402.298 237.603 406.167 263.195L416.14 256.414C416.14 256.414 408.025 231.809 378.045 221.358L377.383 224.107Z" fill="#E0E0E0"/>
<path d="M350.656 213.127C350.656 213.127 355.834 209.429 357.778 206.377C357.778 206.377 356.608 216.168 352.938 220.798C352.936 220.796 351.951 215.623 350.656 213.127Z" fill="#EE8780"/>
<path d="M365.844 311.238C365.844 311.238 363.835 332.374 369.29 333.334L370.658 310.372L365.844 311.238Z" stroke="#9B1E45" stroke-width="1.03306" stroke-miterlimit="10"/>
<path d="M336.968 130.4C301.28 135.588 292.147 167.892 292.147 167.892C292.146 167.89 292.144 167.887 292.142 167.885C289.615 162.13 290.671 153.353 304.779 141.17C304.779 141.17 318.612 131.701 336.968 130.4Z" fill="#3A3A3A"/>
<path d="M339.495 419.626C339.495 419.626 340.015 427.824 339.002 435.045C337.72 444.194 331.773 449.671 322.818 451.941C317.902 453.187 311.534 454.873 307.636 456.178" stroke="#A4A4A4" stroke-width="2.06612" stroke-miterlimit="10"/>
<path d="M342.646 419.396C342.646 419.396 343.166 427.594 342.154 434.815C340.871 443.964 336.488 451.829 327.533 454.098C322.617 455.344 310.079 458.458 306.181 459.762" stroke="#A4A4A4" stroke-width="2.06612" stroke-miterlimit="10"/>
<path d="M346.329 419.626C346.329 419.626 346.849 427.824 345.836 435.045C344.554 444.194 342.157 450.592 334.191 455.27C329.333 458.123 310.271 461.182 306.373 462.486" stroke="#A4A4A4" stroke-width="2.06612" stroke-miterlimit="10"/>
<path d="M350.393 419.626C350.393 419.626 350.54 433.6 348.251 443.678C347.059 448.922 345.059 451.885 342.947 454.345C336.966 461.313 318.098 462.762 318.098 462.762" stroke="#A4A4A4" stroke-width="2.06612" stroke-miterlimit="10"/>
<path d="M350.527 447.963C350.527 447.963 349.297 460.267 334.994 462.763" stroke="#A4A4A4" stroke-width="2.06612" stroke-miterlimit="10"/>
<path d="M411.93 419.396C411.93 419.396 416.109 445.92 400.57 450.914C385.031 455.908 381.245 459.764 381.245 459.764" stroke="#A4A4A4" stroke-width="2.06612" stroke-miterlimit="10"/>
<path d="M416.75 419.396C416.75 419.396 417.902 430.598 415.507 441.582C414.7 445.284 412.376 448.483 409.112 450.409C406.42 451.997 402.457 454.009 396.844 456.179C383.803 461.22 384.6 460.684 383.489 462.763" stroke="#A4A4A4" stroke-width="2.06612" stroke-miterlimit="10"/>
<path d="M420.95 419.396C420.95 419.396 420.612 429.628 419.414 439.396C418.288 448.585 412.336 456.533 403.774 460.052C400.394 461.441 396.306 462.466 391.397 462.762" stroke="#A4A4A4" stroke-width="2.06612" stroke-miterlimit="10"/>
<path d="M423.711 435.438C423.711 435.438 426.082 459.157 407.214 462.763" stroke="#A4A4A4" stroke-width="2.06612" stroke-miterlimit="10"/>
<path d="M424.421 455.362C424.421 455.362 424.694 461.099 417.48 462.763" stroke="#A4A4A4" stroke-width="2.06612" stroke-miterlimit="10"/>
<path d="M336.874 423.92H350.565" stroke="#CA2026" stroke-width="2.06612" stroke-miterlimit="10"/>
<path d="M336.874 425.257H350.565" stroke="#CA2026" stroke-width="2.06612" stroke-miterlimit="10"/>
<path d="M408.623 425.257H423.108" stroke="#CA2026" stroke-width="2.06612" stroke-miterlimit="10"/>
<path d="M408.438 423.92H423.003" stroke="#CA2026" stroke-width="2.06612" stroke-miterlimit="10"/>
<path d="M334.419 369.607C334.419 369.607 360.915 376.54 374.005 373.544" stroke="white" stroke-width="2.06612" stroke-miterlimit="10"/>
<path d="M383.857 373.476C383.857 373.476 418.73 367.033 427.609 360.373" stroke="white" stroke-width="2.06612" stroke-miterlimit="10"/>
<path d="M412.106 362.914C412.106 362.914 407.214 355.241 406.52 349.414" stroke="#EE8780" stroke-width="2.06612" stroke-miterlimit="10"/>
<path d="M417.886 356.165L412.532 349.414C412.532 349.414 414.562 341.628 415.77 339.409C416.978 337.188 415.004 331.794 415.004 331.794L415.006 331.796C415.089 331.934 418.295 337.235 416.926 339.565C415.538 341.923 413.597 348.304 413.597 348.721C413.597 349.137 416.649 353.16 417.757 354.964C418.098 355.517 418.078 355.901 417.886 356.165Z" fill="#EE8780"/>
<path d="M403.948 364.704C403.948 364.704 404.178 356.551 402.821 353.468L404.44 357.049C404.44 357.049 405.937 362.746 403.948 364.704Z" fill="#EE8780"/>
<path d="M410.45 349.974C410.45 349.974 413.376 359.641 413.124 361.548C413.124 361.548 414.696 360.402 412.829 356.689L410.45 349.974Z" fill="#EE8780"/>
<path d="M152.277 418.425C152.944 425.605 153.304 432.118 153.016 436.311C153.016 436.311 152.279 450.249 152.92 458.107C153.08 460.061 154.714 461.563 156.673 461.563H196.765C199.724 450.463 180.208 448.15 180.208 448.15C173.651 447.907 171.82 443.812 169.387 440.566C166.864 437.201 165.788 435.339 166.114 431.145C166.378 427.726 166.395 423.295 166.25 418.425C165.71 399.997 162.912 375.287 162.912 375.287L146.969 377.835C146.969 377.835 150.597 400.266 152.277 418.425Z" fill="url(#paint5_linear_1_1899)"/>
<path d="M78.7914 461.562H122.632C122.215 455.179 116.251 452.267 111.949 449.492C107.649 446.717 95.209 445.561 93.9447 436.311C93.5607 433.507 94.1983 426.639 95.2742 418.425C97.7448 399.546 102.525 373.564 102.525 373.564L88.1902 369.837C84.1601 384.361 81.8543 402.286 80.5375 418.425C78.6212 441.879 78.7914 461.562 78.7914 461.562Z" fill="url(#paint6_linear_1_1899)"/>
<path d="M153.017 436.311C153.017 436.311 152.274 450.334 152.926 458.177C153.085 460.09 154.681 461.563 156.601 461.563H196.763C199.723 450.463 180.206 448.15 180.206 448.15C173.649 447.907 171.818 443.812 169.385 440.566C166.862 437.201 165.786 435.339 166.112 431.145C166.377 427.726 166.393 423.295 166.248 418.425H152.276C152.944 425.605 153.305 432.118 153.017 436.311Z" fill="white"/>
<path d="M78.7914 461.563H122.632C122.215 455.18 116.251 452.267 111.949 449.492C107.649 446.717 95.209 445.561 93.9447 436.311C93.5607 433.507 94.1983 426.639 95.2742 418.425H80.5375C78.6212 441.879 78.7914 461.563 78.7914 461.563Z" fill="white"/>
<path d="M163.714 418.425C163.714 418.425 163.194 426.623 164.207 433.844C165.489 442.993 171.436 448.471 180.391 450.74C185.306 451.986 191.675 453.673 195.573 454.977" stroke="#A4A4A4" stroke-width="1.03306" stroke-miterlimit="10"/>
<path d="M160.562 418.195C160.562 418.195 160.042 426.393 161.055 433.614C162.337 442.763 166.721 450.628 175.676 452.897C180.592 454.143 193.129 457.257 197.027 458.561" stroke="#A4A4A4" stroke-width="1.03306" stroke-miterlimit="10"/>
<path d="M156.88 418.425C156.88 418.425 156.36 426.623 157.373 433.844C158.655 442.993 161.051 449.391 169.017 454.069C173.875 456.922 192.937 459.981 196.835 461.285" stroke="#A4A4A4" stroke-width="1.03306" stroke-miterlimit="10"/>
<path d="M152.815 418.425C152.815 418.425 152.669 432.399 154.958 442.477C156.15 447.721 158.15 450.684 160.262 453.144C166.243 460.112 185.111 461.561 185.111 461.561" stroke="#A4A4A4" stroke-width="1.03306" stroke-miterlimit="10"/>
<path d="M152.681 446.761C152.681 446.761 153.911 459.065 168.215 461.561" stroke="#A4A4A4" stroke-width="1.03306" stroke-miterlimit="10"/>
<path d="M91.2785 418.195C91.2785 418.195 87.0998 444.719 102.639 449.713C118.178 454.707 121.962 458.561 121.962 458.561" stroke="#A4A4A4" stroke-width="1.03306" stroke-miterlimit="10"/>
<path d="M86.4586 418.195C86.4586 418.195 85.3067 429.398 87.7012 440.381C88.509 444.084 90.8329 447.282 94.0969 449.208C96.7885 450.796 100.752 452.809 106.365 454.978C119.406 460.019 118.609 459.483 119.719 461.563" stroke="#A4A4A4" stroke-width="1.03306" stroke-miterlimit="10"/>
<path d="M82.2564 418.195C82.2564 418.195 82.5951 428.427 83.7924 438.195C84.919 447.384 90.8709 455.332 99.4329 458.851C102.813 460.24 106.901 461.266 111.81 461.561" stroke="#A4A4A4" stroke-width="1.03306" stroke-miterlimit="10"/>
<path d="M79.4978 434.237C79.4978 434.237 77.1268 457.956 95.9951 461.563" stroke="#A4A4A4" stroke-width="1.03306" stroke-miterlimit="10"/>
<path d="M78.7878 454.162C78.7878 454.162 78.5143 459.898 85.7287 461.563" stroke="#A4A4A4" stroke-width="2.06612" stroke-miterlimit="10"/>
<path d="M166.335 422.719H152.643" stroke="#CA2026" stroke-width="2.06612" stroke-miterlimit="10"/>
<path d="M166.335 424.056H152.643" stroke="#CA2026" stroke-width="1.03306" stroke-miterlimit="10"/>
<path d="M94.5841 424.056H80.101" stroke="#CA2026" stroke-width="1.03306" stroke-miterlimit="10"/>
<path d="M94.7707 422.719H80.2061" stroke="#CA2026" stroke-width="1.03306" stroke-miterlimit="10"/>
<path d="M129.156 200.059C129.156 200.059 119.805 197.959 120.527 186.048C120.714 182.984 122.032 180.071 124.342 178.048C126.907 175.802 130.935 174.335 136.385 178.427L136.621 159.446C136.621 159.446 172.089 136.229 183.303 160.862C183.303 160.862 189.036 174.194 188.284 183.821L187.652 193.991C187.652 193.991 187.543 211.809 172.334 215.864C157.124 219.923 145.132 214.384 145.132 214.384L140.861 212.388C140.861 212.388 139.548 217.679 140.365 218.826C141.181 219.972 146.441 225.457 141.815 235.547C141.815 235.547 135.836 241.577 124.978 224.247C124.978 224.247 121.252 215.799 123.896 212.281C123.896 212.281 130.02 208.954 129.819 206.339" fill="url(#paint7_linear_1_1899)"/>
<path d="M192.724 157.761C191.461 163.981 185.978 167.966 185.872 168.042C185.87 168.044 185.87 168.044 185.87 168.044C185.862 168.017 185.853 167.986 185.846 167.959C185.319 166.059 184.729 164.367 184.1 162.857C182.017 157.867 179.492 154.894 177.324 153.126C174.604 150.904 172.446 150.592 172.446 150.592C168.407 158.658 152.808 168.613 152.808 168.613L150.611 159.939C151.317 173.871 139.2 186.239 139.01 186.432C140.116 182.531 136.387 178.421 136.387 178.421C133.837 176.637 131.915 176.094 130.962 175.929C130.949 175.927 130.935 175.923 130.924 175.922C130.553 175.86 130.337 175.856 130.296 175.856C130.29 175.856 130.288 175.856 130.288 175.856C128.517 175.88 127.066 176.289 125.878 176.93C125.869 176.934 125.862 176.938 125.854 176.943C124.539 177.655 123.547 178.651 122.797 179.718C122.773 179.747 122.753 179.778 122.733 179.809C120.976 182.364 120.6 185.291 120.553 185.713C120.549 185.748 120.547 185.766 120.547 185.766C120.067 198.168 131.022 199.501 131.022 199.501C130.533 203.172 130.902 205.773 130.977 206.228C130.984 206.275 129.821 206.337 129.821 206.337C119.194 207.049 111.156 197.192 107.897 192.403C107.897 192.403 107.897 192.403 107.897 192.401C106.863 190.881 106.312 189.87 106.312 189.87C102.538 183.384 101.014 177.278 100.793 171.824C100.793 171.824 100.793 171.824 100.793 171.823C100.208 157.205 108.993 147.269 108.993 147.269C115.456 140.362 122.61 136.028 129.749 133.427C133.523 132.052 137.298 131.163 140.961 130.634C140.962 130.634 140.966 130.632 140.968 130.634C141.43 130.567 141.89 130.507 142.346 130.453C159.957 128.328 174.709 134.332 174.709 134.332C191.081 143.249 193.973 151.603 192.724 157.761Z" fill="black"/>
<path d="M182.662 157.464C182.662 157.464 186.471 161.411 183.658 165.621C180.845 169.83 160.052 165.68 160.052 165.68C160.052 165.68 157.313 158.144 182.662 157.464Z" fill="black"/>
<path d="M189.746 191.022C192.001 190.631 192.847 189.649 192.847 189.649C195.01 184.889 188.462 181.018 188.319 180.933C188.317 180.932 188.317 180.932 188.317 180.932C188.317 180.932 183.995 182.136 184.289 187.367C184.577 192.602 189.746 191.022 189.746 191.022Z" fill="#EE8780"/>
<path d="M177.679 175.376C177.835 173.386 176.969 171.694 175.745 171.598C174.52 171.502 173.401 173.037 173.244 175.028C173.088 177.018 173.954 178.71 175.179 178.806C176.403 178.902 177.523 177.367 177.679 175.376Z" fill="#231F20"/>
<path d="M140.864 212.388C140.864 212.388 137.631 212.124 134.328 205.815C134.328 205.815 136.244 217.261 140.368 218.827L140.864 212.388Z" fill="#EE8780"/>
<path d="M129.75 133.428C104.059 156.99 107.866 192.104 107.899 192.404C106.865 190.885 106.314 189.874 106.314 189.874C102.539 183.388 101.016 177.282 100.795 171.828C100.795 171.828 100.795 171.828 100.795 171.826C100.21 157.209 108.995 147.272 108.995 147.272C115.457 140.362 122.61 136.028 129.75 133.428Z" fill="#3A3A3A"/>
<path d="M89.6356 267.886C89.6356 267.886 89.6356 267.888 89.6356 267.89V267.901C89.6375 267.904 89.6338 267.91 89.6338 267.915C89.5089 268.814 86.7865 288.839 87.4277 300.276C88.0816 311.977 93.6314 316.232 93.6314 316.232C98.8841 317.802 103.795 318.845 108.37 319.456C108.821 319.519 109.268 319.573 109.712 319.626C110.174 319.68 110.634 319.731 111.089 319.774C113.541 320.019 115.89 320.14 118.142 320.149C120.087 320.16 121.965 320.088 123.766 319.945C124.039 319.921 124.311 319.899 124.579 319.874C150.754 317.443 161.457 299.91 161.457 299.91C161.457 299.91 163.018 297.021 162.812 291.022C162.662 286.662 160.814 280.142 160.47 274.42V274.418C159.78 262.885 158.624 250.13 156.717 242.38C154.203 232.16 149.131 225.221 145.52 221.338C145.52 221.336 145.52 221.336 145.52 221.336C143.208 218.851 140.368 218.972 140.303 218.925C142.658 222.91 143.991 224.406 143.744 227.076C143.272 232.197 138.416 235.067 134.116 232.245C132.909 231.454 132.127 230.787 132.127 230.787C120.848 218.916 124.588 211.963 124.657 211.838L124.659 211.836L114.584 215.339C114.586 215.341 92.2222 229.179 89.6356 267.886Z" fill="#BD2043"/>
<path d="M117.597 316.721L107.89 315.846C103.327 315.147 98.4385 314.009 93.2148 312.339C93.2148 312.339 87.7483 307.979 87.3172 296.268C86.897 284.822 90.0015 264.851 90.1428 263.956C90.1428 263.95 90.1446 263.943 90.1446 263.941V263.93L95.2543 260.513C95.2543 260.513 89.8928 297.439 98.0328 306.425C105.858 315.058 116.756 316.612 117.597 316.721Z" fill="#DB1C50"/>
<path d="M161.805 283.732C161.805 283.732 145.664 294.953 131.237 294.911C131.237 294.911 113.746 299.14 118.017 302.207C122.29 305.273 162.736 289.846 162.736 289.846L161.805 283.732Z" fill="#9B1E45"/>
<path d="M175.348 378.031L132.078 385.097L122.442 345.75L114.117 384.412L79.1773 376.513H79.1754L68.7043 374.146L87.8497 303.02C89.911 304.295 91.9469 305.444 93.9538 306.474C130.649 325.324 157.588 304.869 157.588 304.869L175.348 378.031Z" fill="#CEAA86"/>
<path d="M122.442 345.75V334.651L136.967 384.298L132.078 385.097L122.442 345.75Z" fill="#F1CAAA"/>
<path d="M93.9538 306.472V306.474L79.1773 376.513H79.1754L68.7043 374.146L87.8497 303.02L93.9538 306.472Z" fill="#F1CAAA"/>
<path d="M122.442 334.651C122.442 334.651 129.102 337.301 128.269 315.719L122.025 315.438L122.442 334.651Z" stroke="#614C3B" stroke-width="1.03306" stroke-miterlimit="10"/>
<path d="M164.679 203.468C165.696 206.357 170.677 207.346 175.183 205.826C176.985 205.219 177.784 204.79 178.753 203.475C178.753 203.475 179.617 201.968 179.662 201.854C180.027 200.926 179.811 200.74 178.712 200.493C175.815 199.849 167.681 198.043 166.295 198.244C164.944 198.439 163.812 199.079 164.138 201.397C164.223 201.977 164.397 202.66 164.679 203.468Z" fill="#231F20"/>
<path d="M164.681 203.446C165.681 206.339 170.624 207.608 175.52 205.708C174.314 201.857 166.174 201.357 164.152 201.374C164.232 201.953 164.402 202.636 164.681 203.446Z" fill="#B62325"/>
<path d="M114.586 215.341C114.586 215.341 94.3269 225.067 90.1464 263.929H119.712C119.712 263.929 128.356 228.601 114.586 215.341Z" fill="#BD2043"/>
<path d="M90.1464 263.929L120.433 260.511L119.712 263.929H90.1464Z" fill="#9B1E45"/>
<path d="M204.242 255.515H178.884V280.873H204.242V255.515Z" fill="#262626"/>
<path d="M202.068 255.515H176.71V280.873H202.068V255.515Z" fill="#4F4F4F"/>
<path d="M185.042 256.783H177.978V263.847H185.042V256.783Z" fill="#C90000"/>
<path d="M193.374 256.783H186.31V263.847H193.374V256.783Z" fill="#FF7D06"/>
<path d="M201.706 256.783H194.642V263.847H201.706V256.783Z" fill="#59FF29"/>
<path d="M201.706 265.115H194.642V272.179H201.706V265.115Z" fill="#59FF29"/>
<path d="M193.374 265.115H186.31V272.179H193.374V265.115Z" fill="#2650FF"/>
<path d="M185.042 265.115H177.978V272.179H185.042V265.115Z" fill="white"/>
<path d="M185.042 273.447H177.978V280.511H185.042V273.447Z" fill="white"/>
<path d="M193.374 273.447H186.31V280.511H193.374V273.447Z" fill="white"/>
<path d="M201.525 273.447H194.461V280.511H201.525V273.447Z" fill="#C90000"/>
<path d="M114.039 263.847L114.86 280.538C114.86 280.538 141.546 281.75 168.873 281.75C170.345 281.75 180.697 273.268 185.044 272.905C190.313 272.467 181.602 280.694 181.602 280.694C181.602 280.694 196.785 279.377 202.432 275.985C208.08 272.592 205.99 295.838 182.146 293.011C180.537 292.821 168.079 292.188 168.079 292.188L106.147 295.49C106.147 295.49 100.375 296.773 97.9205 287.081V263.93L114.039 263.847Z" fill="url(#paint8_linear_1_1899)"/>
<path d="M160.341 272.322C160.589 274.534 168.871 281.75 168.871 281.75H161.448L160.341 272.322Z" fill="url(#paint9_linear_1_1899)"/>
<path d="M333.508 87.8104C333.508 67.8982 312.695 51.7571 287.02 51.7571C261.346 51.7571 240.533 67.8982 240.533 87.8104C240.533 107.723 261.346 123.864 287.02 123.864C297.402 123.864 306.988 121.222 314.725 116.761L314.727 116.764L330.098 126.137L322.42 111.18C329.335 104.887 333.508 96.7258 333.508 87.8104Z" fill="white"/>
<path d="M253.07 93.38V79.5267H257.96C258.878 79.5267 259.683 79.7003 260.378 80.0474C261.072 80.3945 261.611 80.8903 261.995 81.535C262.392 82.1796 262.59 82.9358 262.59 83.8036C262.59 84.6713 262.392 85.4275 261.995 86.0722C261.611 86.7044 261.072 87.2003 260.378 87.5598C259.696 87.9069 258.89 88.0804 257.96 88.0804H254.892V93.38H253.07ZM254.892 86.4069H258.016C258.574 86.4069 259.057 86.3015 259.466 86.0907C259.875 85.88 260.192 85.5763 260.415 85.1796C260.638 84.7829 260.749 84.3242 260.749 83.8036C260.749 83.2705 260.638 82.8118 260.415 82.4275C260.192 82.0308 259.875 81.7271 259.466 81.5164C259.057 81.3056 258.574 81.2003 258.016 81.2003H254.892V86.4069ZM264.85 93.38V79.3036H266.58V93.38H264.85ZM273.874 93.6031C272.908 93.6031 272.046 93.3738 271.29 92.9151C270.534 92.4565 269.939 91.8304 269.505 91.037C269.071 90.2312 268.854 89.3325 268.854 88.3407C268.854 87.3366 269.065 86.4441 269.486 85.6631C269.92 84.8821 270.503 84.2684 271.234 83.8222C271.978 83.3635 272.808 83.1341 273.726 83.1341C274.47 83.1341 275.127 83.2705 275.697 83.5432C276.279 83.8036 276.769 84.1631 277.166 84.6217C277.575 85.068 277.885 85.5825 278.096 86.1651C278.319 86.7354 278.43 87.3304 278.43 87.9503C278.43 88.0866 278.418 88.2416 278.393 88.4151C278.381 88.5763 278.362 88.7312 278.337 88.88H270.118V87.3924H277.333L276.515 88.0618C276.627 87.4172 276.565 86.8407 276.329 86.3325C276.093 85.8242 275.746 85.4213 275.288 85.1238C274.829 84.8263 274.308 84.6775 273.726 84.6775C273.143 84.6775 272.61 84.8263 272.127 85.1238C271.643 85.4213 271.265 85.849 270.992 86.4069C270.732 86.9523 270.627 87.6031 270.676 88.3593C270.627 89.0907 270.738 89.7354 271.011 90.2932C271.296 90.8387 271.693 91.2664 272.201 91.5763C272.722 91.8738 273.286 92.0226 273.893 92.0226C274.563 92.0226 275.127 91.8676 275.585 91.5577C276.044 91.2478 276.416 90.8511 276.701 90.3676L278.151 91.1114C277.953 91.5701 277.643 91.9916 277.222 92.3759C276.813 92.7478 276.323 93.0453 275.753 93.2684C275.195 93.4916 274.569 93.6031 273.874 93.6031ZM283.496 93.6031C282.839 93.6031 282.256 93.4854 281.748 93.2498C281.252 93.0019 280.862 92.6672 280.577 92.2457C280.291 91.8118 280.149 91.316 280.149 90.7581C280.149 90.225 280.26 89.7478 280.484 89.3263C280.719 88.8924 281.079 88.5267 281.562 88.2292C282.058 87.9317 282.678 87.7209 283.422 87.5969L287.141 86.9833V88.4337L283.812 88.9916C283.167 89.1031 282.696 89.3077 282.399 89.6052C282.114 89.9027 281.971 90.2684 281.971 90.7023C281.971 91.1114 282.132 91.4523 282.455 91.725C282.789 91.9978 283.205 92.1341 283.701 92.1341C284.333 92.1341 284.878 92.004 285.337 91.7436C285.808 91.4709 286.174 91.1052 286.434 90.6465C286.707 90.1879 286.843 89.6796 286.843 89.1217V86.5742C286.843 86.0288 286.639 85.5887 286.229 85.254C285.833 84.9069 285.306 84.7333 284.649 84.7333C284.079 84.7333 283.57 84.8821 283.124 85.1796C282.69 85.4647 282.368 85.849 282.157 86.3325L280.651 85.5515C280.837 85.0928 281.134 84.6837 281.543 84.3242C281.953 83.9523 282.43 83.661 282.975 83.4503C283.521 83.2395 284.091 83.1341 284.686 83.1341C285.455 83.1341 286.13 83.2829 286.713 83.5804C287.296 83.8655 287.748 84.2684 288.07 84.7891C288.405 85.2974 288.572 85.8924 288.572 86.5742V93.38H286.88V91.4833L287.196 91.5949C286.986 91.9916 286.701 92.3387 286.341 92.6362C285.982 92.9337 285.56 93.1693 285.077 93.3428C284.593 93.5164 284.066 93.6031 283.496 93.6031ZM294.843 93.6031C293.838 93.6031 292.964 93.3552 292.221 92.8593C291.477 92.3635 290.95 91.6941 290.64 90.8511L292.016 90.1817C292.301 90.7767 292.692 91.2478 293.188 91.5949C293.683 91.942 294.235 92.1155 294.843 92.1155C295.388 92.1155 295.841 91.9854 296.2 91.725C296.56 91.4647 296.739 91.1238 296.739 90.7023C296.739 90.4048 296.652 90.1693 296.479 89.9957C296.318 89.8098 296.119 89.6672 295.884 89.568C295.648 89.4565 295.431 89.3759 295.233 89.3263L293.727 88.8986C292.822 88.6383 292.159 88.2664 291.737 87.7829C291.328 87.2994 291.124 86.7354 291.124 86.0907C291.124 85.4957 291.272 84.9812 291.57 84.5474C291.88 84.1011 292.295 83.754 292.816 83.506C293.349 83.2581 293.944 83.1341 294.601 83.1341C295.481 83.1341 296.268 83.3573 296.962 83.8036C297.669 84.2498 298.171 84.8759 298.469 85.6817L297.055 86.3325C296.832 85.8118 296.498 85.4027 296.051 85.1052C295.605 84.7953 295.103 84.6403 294.545 84.6403C294.037 84.6403 293.634 84.7705 293.336 85.0308C293.039 85.2788 292.89 85.5949 292.89 85.9792C292.89 86.2643 292.964 86.4998 293.113 86.6858C293.262 86.8593 293.442 86.9957 293.652 87.0949C293.863 87.1817 294.068 87.256 294.266 87.318L295.902 87.8015C296.721 88.037 297.353 88.4027 297.799 88.8986C298.258 89.3945 298.487 89.9895 298.487 90.6837C298.487 91.2416 298.332 91.7436 298.022 92.1899C297.712 92.6362 297.285 92.9833 296.739 93.2312C296.194 93.4792 295.562 93.6031 294.843 93.6031ZM305.363 93.6031C304.396 93.6031 303.534 93.3738 302.778 92.9151C302.022 92.4565 301.427 91.8304 300.993 91.037C300.559 90.2312 300.342 89.3325 300.342 88.3407C300.342 87.3366 300.553 86.4441 300.974 85.6631C301.408 84.8821 301.991 84.2684 302.722 83.8222C303.466 83.3635 304.296 83.1341 305.214 83.1341C305.958 83.1341 306.615 83.2705 307.185 83.5432C307.768 83.8036 308.257 84.1631 308.654 84.6217C309.063 85.068 309.373 85.5825 309.584 86.1651C309.807 86.7354 309.918 87.3304 309.918 87.9503C309.918 88.0866 309.906 88.2416 309.881 88.4151C309.869 88.5763 309.85 88.7312 309.825 88.88H301.606V87.3924H308.821L308.003 88.0618C308.115 87.4172 308.053 86.8407 307.817 86.3325C307.582 85.8242 307.234 85.4213 306.776 85.1238C306.317 84.8263 305.796 84.6775 305.214 84.6775C304.631 84.6775 304.098 84.8263 303.615 85.1238C303.131 85.4213 302.753 85.849 302.48 86.4069C302.22 86.9523 302.115 87.6031 302.164 88.3593C302.115 89.0907 302.226 89.7354 302.499 90.2932C302.784 90.8387 303.181 91.2664 303.689 91.5763C304.21 91.8738 304.774 92.0226 305.381 92.0226C306.051 92.0226 306.615 91.8676 307.073 91.5577C307.532 91.2478 307.904 90.8511 308.189 90.3676L309.639 91.1114C309.441 91.5701 309.131 91.9916 308.71 92.3759C308.301 92.7478 307.811 93.0453 307.241 93.2684C306.683 93.4916 306.057 93.6031 305.363 93.6031ZM312.88 93.38V91.1486H314.683V93.38H312.88ZM318.782 93.38V91.1486H320.585V93.38H318.782ZM324.683 93.38V91.1486H326.487V93.38H324.683Z" fill="black"/>
<path d="M90.9091 257.231H119.835" stroke="white" stroke-width="2.06612"/>
</g>
</g>
<defs>
<linearGradient id="paint0_linear_1_1899" x1="326.737" y1="236.705" x2="344.125" y2="157.163" gradientUnits="userSpaceOnUse">
<stop offset="0.6129" stop-color="#F8BBA7"/>
<stop offset="0.9088" stop-color="#EE8780"/>
</linearGradient>
<linearGradient id="paint1_linear_1_1899" x1="306.138" y1="419.625" x2="356.24" y2="419.625" gradientUnits="userSpaceOnUse">
<stop offset="0.6129" stop-color="#F8BBA7"/>
<stop offset="1" stop-color="#EE8780"/>
</linearGradient>
<linearGradient id="paint2_linear_1_1899" x1="380.577" y1="416.9" x2="424.421" y2="416.9" gradientUnits="userSpaceOnUse">
<stop offset="0.6129" stop-color="#F8BBA7"/>
<stop offset="1" stop-color="#EE8780"/>
</linearGradient>
<linearGradient id="paint3_linear_1_1899" x1="210.888" y1="265.413" x2="314.091" y2="265.413" gradientUnits="userSpaceOnUse">
<stop offset="0.6129" stop-color="#F8BBA7"/>
<stop offset="1" stop-color="#EE8780"/>
</linearGradient>
<linearGradient id="paint4_linear_1_1899" x1="398.103" y1="322.915" x2="439.91" y2="281.108" gradientUnits="userSpaceOnUse">
<stop offset="0.6129" stop-color="#F8BBA7"/>
<stop offset="1" stop-color="#EE8780"/>
</linearGradient>
<linearGradient id="paint5_linear_1_1899" x1="124.657" y1="412.322" x2="166.001" y2="419.536" gradientUnits="userSpaceOnUse">
<stop offset="0.6129" stop-color="#F8BBA7"/>
<stop offset="1" stop-color="#EE8780"/>
</linearGradient>
<linearGradient id="paint6_linear_1_1899" x1="67.5505" y1="414.518" x2="97.5178" y2="416.738" gradientUnits="userSpaceOnUse">
<stop offset="0.6129" stop-color="#F8BBA7"/>
<stop offset="1" stop-color="#EE8780"/>
</linearGradient>
<linearGradient id="paint7_linear_1_1899" x1="169.956" y1="227.158" x2="138.652" y2="158.709" gradientUnits="userSpaceOnUse">
<stop offset="0.6129" stop-color="#F8BBA7"/>
<stop offset="0.9088" stop-color="#EE8780"/>
</linearGradient>
<linearGradient id="paint8_linear_1_1899" x1="97.9187" y1="279.696" x2="205.049" y2="279.696" gradientUnits="userSpaceOnUse">
<stop offset="0.6129" stop-color="#F8BBA7"/>
<stop offset="1" stop-color="#EE8780"/>
</linearGradient>
<linearGradient id="paint9_linear_1_1899" x1="160.341" y1="277.036" x2="168.871" y2="277.036" gradientUnits="userSpaceOnUse">
<stop offset="0.6129" stop-color="#F8BBA7"/>
<stop offset="1" stop-color="#EE8780"/>
</linearGradient>
<clipPath id="clip0_1_1899">
<rect width="500" height="500" rx="250" fill="white"/>
</clipPath>
<clipPath id="clip1_1_1899">
<rect width="543.388" height="543.388" fill="white" transform="translate(-29.9587 -37.1901)"/>
</clipPath>
</defs>
</svg>
