<svg width="500" height="500" viewBox="0 0 500 500" fill="none" xmlns="http://www.w3.org/2000/svg">
<g clip-path="url(#clip0_1_3)">
<rect width="500" height="500" rx="250" fill="white"/>
<path d="M142.591 332.807L142.354 333.043C139.165 326.074 137.157 318.159 136.33 309.418C137.157 318.041 139.401 325.838 142.591 332.807Z" fill="#DFDFDF"/>
<path d="M218.428 230.863C233.955 230.863 246.542 218.276 246.542 202.749C246.542 187.222 233.955 174.635 218.428 174.635C202.901 174.635 190.314 187.222 190.314 202.749C190.314 218.276 202.901 230.863 218.428 230.863Z" fill="#DFDFDF"/>
<path d="M303.362 131.873H204.371C161.373 131.873 135.739 157.506 135.739 200.505V299.495C135.739 312.371 137.984 323.593 142.354 333.043C152.513 355.487 174.249 368.127 204.371 368.127H303.362C346.36 368.127 371.993 342.493 371.993 299.495V272.444V200.505C371.993 157.506 346.36 131.873 303.362 131.873ZM352.739 255.906C343.525 247.992 328.641 247.992 319.427 255.906L270.286 298.078C261.072 305.992 246.188 305.992 236.974 298.078L232.958 294.77C224.571 287.446 211.222 286.737 201.772 293.116L157.593 322.766C154.994 316.151 153.458 308.473 153.458 299.495V200.505C153.458 167.193 171.059 149.592 204.371 149.592H303.362C336.673 149.592 354.274 167.193 354.274 200.505V257.206L352.739 255.906Z" fill="#DFDFDF"/>
<g clip-path="url(#clip1_1_3)">
<path d="M511.364 -6.19836H-1.03284V506.198H511.364V-6.19836Z" fill="url(#paint0_linear_1_3)"/>
<path d="M511.266 376.665H-0.937256V402.623H511.266V376.665Z" fill="#C6B69D"/>
<path d="M511.171 380.413H-1.03284V404.51H511.171V380.413Z" fill="#FAEDCC"/>
<path d="M511.364 404.834H-1.03284V506.198H511.364V404.834Z" fill="#BF7051"/>
<path d="M511.364 417.559H-1.03284V435.102H511.364V417.559Z" fill="#AB614A"/>
<path d="M512.414 449.591H0.0175781V467.133H512.414V449.591Z" fill="#AB614A"/>
<path d="M509.909 482.157H-2.48804V499.7H509.909V482.157Z" fill="#AB614A"/>
<path d="M472.615 445.3C472.615 458.25 376.5 469.54 258.138 470.247C138.184 470.963 37.4637 459.656 43.9814 443.77C48.897 431.788 139.935 420.321 258.298 420.321C376.662 420.321 472.615 432.35 472.615 445.3Z" fill="#8E6350"/>
<path d="M258.137 467.278C376.501 467.278 472.454 456.78 472.454 443.829C472.454 430.879 376.501 420.38 258.137 420.38C139.774 420.38 43.8207 430.879 43.8207 443.829C43.8207 456.78 139.774 467.278 258.137 467.278Z" fill="#C49075"/>
<path d="M245.589 320.892H187.572C166.323 320.892 149.096 303.667 149.096 282.416V172.872C149.096 151.623 166.321 134.396 187.572 134.396H245.589C266.838 134.396 284.065 151.621 284.065 172.872V282.416C284.063 303.665 266.838 320.892 245.589 320.892Z" fill="#69705A"/>
<path d="M294.114 320.892H197.623C176.374 320.892 159.147 303.667 159.147 282.416V172.872C159.147 151.623 176.373 134.396 197.623 134.396H255.64C276.889 134.396 294.116 151.621 294.116 172.872V320.892H294.114Z" fill="#87936C"/>
<path d="M285.59 341.196H167.674C157.033 341.196 148.406 332.569 148.406 321.929V311.546C148.406 300.905 157.033 292.278 167.674 292.278H285.592C296.232 292.278 304.86 300.905 304.86 311.546V321.929C304.858 332.569 296.232 341.196 285.59 341.196Z" fill="#69705A"/>
<path d="M284.335 417.461H167.674C157.033 417.461 148.406 408.834 148.406 398.194V322.301C148.406 311.66 157.033 303.033 167.674 303.033H284.335C294.975 303.033 303.602 311.66 303.602 322.301V398.194C303.602 408.836 294.975 417.461 284.335 417.461Z" fill="#69705A"/>
<path d="M363.854 316.137H313.382C302.742 316.137 294.115 307.51 294.115 296.869V266.506H344.586C355.226 266.506 363.854 275.133 363.854 285.774V316.137Z" fill="#96A57A"/>
<path d="M348.347 313.612H294.115V270.943H329.079C339.72 270.943 348.347 279.57 348.347 290.211V313.612Z" fill="#69705A"/>
<path d="M329.239 341.196H222.654C212.013 341.196 203.386 332.569 203.386 321.929V311.546C203.386 300.905 212.013 292.278 222.654 292.278H329.239C339.88 292.278 348.507 300.905 348.507 311.546V321.929C348.507 332.569 339.88 341.196 329.239 341.196Z" fill="#747C5C"/>
<path d="M363.79 417.641H202.881C202.556 417.641 202.293 417.378 202.293 417.053V314.249C202.293 313.925 202.556 313.662 202.881 313.662H364.378V417.052C364.376 417.378 364.113 417.641 363.79 417.641Z" fill="#96A57A"/>
<path d="M229.18 315.688H167.674C157.033 315.688 148.406 307.06 148.406 296.42V266.769H209.914C220.555 266.769 229.182 275.396 229.182 286.037V315.688H229.18Z" fill="#96A57A"/>
<path d="M201.77 318.695H148.406V270.528H182.503C193.143 270.528 201.77 279.155 201.77 289.796V318.695Z" fill="#69705A"/>
<path d="M183.551 417.461H172.513V428.5H183.551V417.461Z" fill="#96834D"/>
<path d="M186.108 417.461H176.73V428.5H186.108V417.461Z" fill="#C6B375"/>
<path d="M234.057 417.461H223.018V428.5H234.057V417.461Z" fill="#96834D"/>
<path d="M236.614 417.461H227.235V428.5H236.614V417.461Z" fill="#C6B375"/>
<path d="M319.54 417.461H308.501V428.5H319.54V417.461Z" fill="#96834D"/>
<path d="M322.098 417.461H312.72V428.5H322.098V417.461Z" fill="#C6B375"/>
<path d="M353.869 417.461H342.83V428.5H353.869V417.461Z" fill="#96834D"/>
<path d="M356.427 417.461H347.048V428.5H356.427V417.461Z" fill="#C6B375"/>
<path d="M167.493 -31.1332H-3.54871V254.28H167.493V-31.1332Z" fill="#9B8870"/>
<path d="M167.493 -27.3107H-3.54858V258.103H167.493V-27.3107Z" fill="#C6B69D"/>
<path d="M64.9913 -11.2028H-3.54858V107.337H64.9913V-11.2028Z" fill="#AEDFE6"/>
<path d="M64.9913 124.099H-3.54858V242.639H64.9913V124.099Z" fill="#AEDFE6"/>
<path d="M152.526 124.845H83.9858V243.385H152.526V124.845Z" fill="#AEDFE6"/>
<path d="M152.526 -11.2028H83.9858V107.337H152.526V-11.2028Z" fill="#AEDFE6"/>
<path d="M-3.54846 237.653H59.7394V124.099H64.9914V242.639H-3.54846V237.653Z" fill="#9B8870"/>
<path d="M-3.54858 102.353H59.7392V-11.2028H64.9913V107.339H-3.54858V102.353Z" fill="#9B8870"/>
<path d="M83.986 102.353H147.274V-11.2028H152.526V107.339H83.986V102.353Z" fill="#9B8870"/>
<path d="M83.986 238.401H147.274V124.845H152.526V243.387H83.986V238.401Z" fill="#9B8870"/>
<path d="M195.029 -6.19836L512.414 169.571L-0.921818 490.929L-1.03284 -6.19836H195.029Z" fill="url(#paint1_linear_1_3)"/>
<path d="M223.144 292.505C223.144 292.505 209.981 306.167 205.692 325.216C205.692 325.216 204.794 330.851 204.944 334.291H207.188L207.487 357.627C207.487 357.627 206.889 362.714 212.275 363.012C212.275 363.012 223.944 366.452 251.169 361.368C251.169 361.368 254.759 360.62 254.46 355.385C254.46 355.385 256.255 338.031 251.618 319.332C246.981 300.633 243.418 300.589 233.756 291.56C233.754 291.559 227.898 289.678 223.144 292.505Z" fill="url(#paint2_linear_1_3)"/>
<path d="M267.595 289.712C261.938 301.081 218.48 298.201 218.48 298.201C205.275 298.215 194.899 295.105 190.554 293.557C189.116 293.045 188.339 292.703 188.339 292.703C194.025 287.355 198.213 275.651 196.119 263.683C194.025 251.715 197.314 241.843 197.314 241.843C198.609 238.379 200.114 235.438 201.77 232.947C216.579 210.697 243.638 224.489 243.638 224.489C243.638 224.489 260.742 223.294 261.639 242.739C261.639 242.739 262.547 249.621 259.102 256.801L245.285 230.973L258.149 271.597C258.46 288.756 267.595 289.712 267.595 289.712Z" fill="black"/>
<path d="M259.055 264.132C258.959 267.187 258.747 268.769 258.747 268.769C258.747 268.769 257.75 282.663 241.261 283.661L234.277 283.777L233.754 291.559L233.978 291.767L234.489 292.329C237.252 296.271 231.356 296.638 231.356 296.638C223.41 297.335 223.144 292.947 223.144 292.947V292.505C224.541 284.226 220.519 272.759 220.519 272.759C216.729 276.448 205.294 273.855 206.39 262.885C207.487 251.915 217.26 254.608 217.26 254.608C218.058 268.369 222.645 266.275 222.645 266.275L223.643 254.608C240.396 255.006 245.285 230.973 245.285 230.973C248.076 232.368 251.167 234.862 251.167 234.862C251.167 234.862 257.949 240.447 258.747 251.616C258.998 255.131 259.092 258.133 259.101 260.595C259.106 261.935 259.087 263.116 259.055 264.132Z" fill="url(#paint3_linear_1_3)"/>
<path d="M240.333 432.721L239.917 436.61L238.812 446.931L237.343 452.467H266.812C266.812 452.467 267.511 443.641 255.393 443.79L247.401 432.721H240.333Z" fill="#B277B3"/>
<path opacity="0.47" d="M239.917 436.611C239.917 436.611 243.09 442.945 244.984 444.914C246.878 446.883 248.658 452.468 248.658 452.468H237.343L238.812 446.933L239.917 436.611Z" fill="#895097"/>
<path d="M216.164 432.721L214.642 446.931L213.173 452.467H242.643C242.643 452.467 243.341 443.641 231.223 443.79L223.231 432.721H216.164Z" fill="#B277B3"/>
<path opacity="0.47" d="M215.747 436.611C215.747 436.611 218.92 442.945 220.815 444.914C222.709 446.883 224.489 452.468 224.489 452.468H213.173L214.642 446.933L215.747 436.611Z" fill="#895097"/>
<path d="M221.184 438.839L225.505 438.572" stroke="white" stroke-width="6.19835" stroke-miterlimit="10" stroke-linecap="round"/>
<path d="M223.055 440.68L227.377 440.413" stroke="white" stroke-width="6.19835" stroke-miterlimit="10" stroke-linecap="round"/>
<path d="M225.216 442.367L229.537 442.103" stroke="white" stroke-width="6.19835" stroke-miterlimit="10" stroke-linecap="round"/>
<path d="M245.828 438.705L250.149 438.439" stroke="white" stroke-width="6.19835" stroke-miterlimit="10" stroke-linecap="round"/>
<path d="M247.217 440.811L251.538 440.547" stroke="white" stroke-width="6.19835" stroke-miterlimit="10" stroke-linecap="round"/>
<path d="M248.658 442.728L252.979 442.461" stroke="white" stroke-width="6.19835" stroke-miterlimit="10" stroke-linecap="round"/>
<path d="M224.681 406.59C224.681 406.59 222.447 432.721 223.494 434.965C223.494 434.965 223.344 439.004 217.81 436.461C217.81 436.461 216.165 435.863 216.165 432.721L214.643 405.5L215.866 402.204L222.896 403.7L224.681 406.59Z" fill="url(#paint4_linear_1_3)"/>
<path d="M248.658 404.23C248.658 404.23 246.424 432.721 247.471 434.965C247.471 434.965 247.321 439.004 241.787 436.461C241.787 436.461 240.142 435.863 240.142 432.721L238.62 405.5L239.843 402.204L246.873 403.7L248.658 404.23Z" fill="url(#paint5_linear_1_3)"/>
<path d="M231.671 444.28C231.671 444.28 227.715 443.79 223.776 446.034" stroke="#895097" stroke-width="10.3306" stroke-miterlimit="10" stroke-linecap="round"/>
<path d="M256.354 444.34C256.354 444.34 251.507 443.792 247.568 446.036" stroke="#895097" stroke-width="10.3306" stroke-miterlimit="10" stroke-linecap="round"/>
<path d="M208.09 360.696L204.927 403.201C204.927 403.201 231.221 412.377 258.148 401.007L254.32 357.624L208.09 360.696Z" fill="#AB213E"/>
<path d="M212.874 405.184L213.919 368.698L214.642 405.5L212.874 405.184Z" fill="#8C203B"/>
<path d="M222.888 406.482L221.817 368.698L224.681 406.59L222.888 406.482Z" fill="#8C203B"/>
<path d="M239.011 406.206L233.211 406.592C233.211 406.592 233.216 381.961 232.019 374.78C230.821 367.6 231.537 359.14 231.537 359.14L233.92 358.982V367.13C233.92 369.822 234.125 372.509 234.535 375.168C235.822 383.539 238.711 402.506 239.011 406.206Z" fill="#8C203B"/>
<path d="M248.658 404.23L246.513 404.757C246.513 404.757 241.131 365.024 239.917 358.582L240.81 358.522C240.81 358.524 248.342 399.075 248.658 404.23Z" fill="#8C203B"/>
<path d="M255.275 401.579L249.377 368.698L258.15 401.037L255.275 401.579Z" fill="#8C203B"/>
<path d="M253.71 255.804C254.341 255.804 254.853 254.658 254.853 253.245C254.853 251.832 254.341 250.687 253.71 250.687C253.079 250.687 252.568 251.832 252.568 253.245C252.568 254.658 253.079 255.804 253.71 255.804Z" fill="black"/>
<path d="M238 255.406C238.631 255.406 239.143 254.26 239.143 252.847C239.143 251.434 238.631 250.289 238 250.289C237.369 250.289 236.858 251.434 236.858 252.847C236.858 254.26 237.369 255.406 238 255.406Z" fill="black"/>
<path d="M250.863 247.197C250.385 247.137 250.241 246.504 250.656 246.258C251.41 245.812 252.923 245.445 255.951 245.909C259.171 246.405 260.974 248.401 261.933 250.039C262.264 250.604 261.603 251.231 261.06 250.866C259.152 249.578 255.76 247.815 250.863 247.197Z" fill="black"/>
<path d="M242.082 247.67C242.562 247.617 242.716 246.987 242.304 246.734C241.56 246.276 240.052 245.882 237.016 246.295C233.788 246.734 231.951 248.702 230.965 250.323C230.625 250.883 231.274 251.522 231.824 251.163C233.754 249.909 237.175 248.206 242.082 247.67Z" fill="black"/>
<path d="M249.522 253.245C249.522 253.245 252.474 259.793 252.569 263.085C252.569 263.085 250.27 264.73 247.727 263.908C247.727 263.908 248.026 255.672 249.522 253.245Z" fill="#F58F87"/>
<path d="M232.021 268.238C232.021 268.238 237.288 272.892 250.411 271.23" stroke="#F58F87" stroke-width="2.06612" stroke-miterlimit="10" stroke-linecap="round"/>
<path d="M240.466 275.2C240.466 275.2 241.928 275.733 245.567 275.543" stroke="#F58F87" stroke-width="2.06612" stroke-miterlimit="10" stroke-linecap="round"/>
<path d="M214.131 367.539C214.131 367.539 210.913 379.954 214.131 387.804C214.131 387.804 214.389 388.419 215.224 388.497C216.059 388.574 214.768 382.801 215.224 381.032C215.224 381.032 216.591 388.497 217.578 389.806C217.578 389.806 218.324 390.754 219.511 390.544C220.62 390.347 221.349 389.256 221.182 388.127C220.891 386.181 220.396 382.376 220.615 380.261C220.615 380.261 221.981 388.265 222.437 388.265C222.437 388.265 223.347 388.88 223.803 387.958C224.259 387.035 223.043 379.261 222.437 376.26C222.437 376.26 223.684 377.329 224.594 378.048C224.594 378.048 227.301 379.401 226.948 377.245L224.437 374.309L221.728 371.178L221.472 367.677C221.472 367.677 216.86 366.36 214.131 367.539Z" fill="url(#paint6_linear_1_3)"/>
<path d="M214.131 367.539C214.131 367.539 211.093 342.378 211.234 334.146C211.234 334.146 216.351 333.797 219.66 333.42C219.66 333.42 220.049 364.715 221.472 367.679" fill="url(#paint7_linear_1_3)"/>
<path d="M222.446 310.804C222.446 310.804 225.269 329.387 224.68 331.69C224.091 333.992 207.187 334.291 207.187 334.291" stroke="#D8A13E" stroke-width="2.06612" stroke-miterlimit="10"/>
<path d="M213.451 451.413H242.649L242.641 452.467H213.171L213.451 451.413Z" fill="#895097"/>
<path d="M237.503 451.413H266.7L266.691 452.467H237.223L237.503 451.413Z" fill="#895097"/>
<path d="M234.314 283.796C234.314 283.796 231.153 283.835 228.536 281.482C228.536 281.482 229.98 286.723 233.968 288.944L234.314 283.796Z" fill="#F58F87"/>
<path opacity="0.6" d="M235.942 263.361C239.121 263.361 241.698 262.568 241.698 261.589C241.698 260.609 239.121 259.816 235.942 259.816C232.763 259.816 230.186 260.609 230.186 261.589C230.186 262.568 232.763 263.361 235.942 263.361Z" fill="#F58F87"/>
<path opacity="0.6" d="M259.055 263.356C256.067 263.291 253.71 262.526 253.71 261.589C253.71 260.647 256.093 259.877 259.101 259.819C259.106 261.16 259.087 262.34 259.055 263.356Z" fill="#F58F87"/>
<path d="M205.318 401.36C205.318 401.36 228.053 409.456 258.138 399.688" stroke="url(#paint8_linear_1_3)" stroke-width="2.06612" stroke-miterlimit="10"/>
<path d="M199.369 265.722C200.312 270.27 200.372 274.969 199.359 279.502C198.245 284.481 195.803 290.091 190.554 293.557C189.116 293.045 188.339 292.703 188.339 292.703C194.025 287.355 198.213 275.65 196.119 263.683C194.025 251.715 197.314 241.843 197.314 241.843C198.609 238.379 200.114 235.438 201.77 232.947L204.927 232.095C204.927 232.095 195.251 245.89 199.369 265.722Z" fill="#3A3A3A"/>
<path d="M160.816 422.848L129.51 425.439L129.495 425.441L126.101 425.723C126.101 425.723 110.292 395.242 105.58 306.978C104.975 295.634 104.553 283.333 104.371 270.023L114.345 238.652L174.779 237.655C174.776 237.653 181.758 366.901 160.816 422.848Z" fill="#CEAA87"/>
<path d="M235.609 227.881C235.609 227.881 216.861 228.479 201.755 232.971C186.648 237.463 176.571 232.867 176.571 232.867C176.571 237.853 174.825 238.652 174.825 238.652C148.498 249.82 115.005 238.652 115.005 238.652C114.839 246.83 110.152 261.788 110.152 261.788C111.748 267.172 109.554 268.769 109.554 268.769C104.144 270.574 99.7523 270.528 96.8112 269.894C94.5498 269.413 93.1475 268.578 92.7991 267.973C91.9998 266.576 92.5993 261.889 92.5993 261.889C92.5993 261.889 75.545 236.457 81.2309 192.179C85.2242 161.082 105.255 136.519 116.829 124.65C116.832 124.645 116.834 124.642 116.834 124.642C121.738 119.615 125.121 116.867 125.121 116.867L145.897 119.187C188.821 166.467 186.545 205.541 186.545 205.541C205.692 205.541 223.045 211.324 223.045 211.324L235.609 227.881Z" fill="#7E92A5"/>
<path d="M95.1271 261.189L95.8598 269.656L96.8112 269.893C94.5498 269.411 93.1475 268.576 92.7991 267.971C91.9998 266.574 92.5993 261.888 92.5993 261.888C92.5993 261.888 75.545 236.456 81.2309 192.178C85.2242 161.082 105.255 136.52 116.829 124.651C116.243 125.423 61.6351 186.494 95.1271 261.189Z" fill="#9AB2C6"/>
<path d="M186.094 60.5378C186.094 60.5378 185.179 68.2357 179.802 68.3519L179.363 65.0264C154.633 77.0917 133.739 65.0264 133.739 65.0264L128.802 87.9135L112.425 88.3746C112.425 88.3746 97.4088 88.1219 98.1876 67.3391C98.3601 62.7258 100.154 58.2867 103.376 54.9818C105.19 53.1183 107.503 51.506 110.251 51.1132C110.251 51.1132 114.654 43.1744 124.875 37.0991C124.878 37.0974 124.88 37.0957 124.883 37.094C124.885 37.0923 124.885 37.0923 124.885 37.0923C132.129 32.7881 142.293 29.4166 155.877 30.4721C155.878 30.4704 187.442 31.2185 186.094 60.5378Z" fill="black"/>
<path d="M179.363 65.0248C179.363 65.0248 186.544 109.006 165.6 114.989C165.6 114.989 156.924 117.831 147.649 114.989C147.649 114.989 144.508 120.224 146.005 123.216L149.894 126.058L144.358 134.735L137.477 127.404C137.477 127.404 127.604 126.058 124.462 119.325C124.462 119.325 128.052 108.105 125.509 98.6807C125.509 98.6807 113.093 100.925 112.045 85.3669C112.045 85.3669 111.447 73.698 124.161 74.446C124.161 74.446 124.61 85.6658 128.798 87.9101L133.734 65.0231C133.74 65.0248 154.533 76.2446 179.363 65.0248Z" fill="url(#paint9_linear_1_3)"/>
<path d="M110.154 261.788C124.315 220.264 114.193 152.687 114.193 152.687C114.193 152.687 122.221 227.651 127.157 241.629L116.829 239.207" fill="#626E78"/>
<path d="M137.478 127.406C137.478 127.406 131.693 143.013 132.093 148.398C132.093 148.398 121.123 139.823 116.834 122.171L125.119 116.869L124.463 119.328C124.463 119.327 126.31 125.361 137.478 127.406Z" fill="white"/>
<path d="M149.895 126.058L155.165 143.046L155.962 125.759L145.897 119.187C145.897 119.187 145.091 122.002 146.006 123.216L149.895 126.058Z" fill="white"/>
<path d="M133.225 140.902C133.225 140.902 147.135 150.742 153.675 138.251L149.894 126.06L144.358 134.736L137.477 127.406C137.478 127.406 133.212 139.739 133.225 140.902Z" fill="#D8D8D8"/>
<path d="M132.421 144.585C132.421 144.585 149.614 153.896 154.591 141.199" stroke="#4E6072" stroke-width="2.06612" stroke-miterlimit="10"/>
<path d="M94.7461 268.532C94.7461 268.532 87.313 293.578 93.308 309.788C93.308 309.788 93.788 311.061 95.4823 311.276C97.1766 311.491 94.9596 299.648 96.0118 296.076C96.0118 296.076 98.2646 311.373 100.181 314.106C100.181 314.106 101.634 316.089 104.067 315.747C106.338 315.428 107.901 313.255 107.638 310.946C107.184 306.967 106.446 299.183 107.044 294.893C107.044 294.893 109.259 311.286 110.186 311.319C110.186 311.319 111.999 312.637 112.991 310.789C113.983 308.941 112.062 293.029 111.039 286.875C111.039 286.875 113.5 289.14 115.303 290.669C115.303 290.669 120.72 293.615 120.151 289.203L115.249 283.05L109.957 276.486L109.684 269.34C109.681 269.336 100.386 266.328 94.7461 268.532Z" fill="url(#paint10_linear_1_3)"/>
<path d="M103.688 313.537C103.688 313.537 100.579 299.95 100.846 293.434L103.688 313.537Z" fill="#C72E28"/>
<path d="M204.201 229.729C204.201 229.729 198.66 218.655 207.636 213.568C216.611 208.482 233.964 209.828 240.545 215.961C240.545 215.961 245.1 225.818 246.579 227.878C247.247 228.809 244.135 231.369 242.34 228.676C242.34 228.676 243.686 235.706 235.609 234.959C235.609 234.959 236.656 237.901 235.609 238.051C235.609 238.051 233.066 239.597 230.972 236.157C230.972 236.157 224.241 228.11 221.248 226.973C218.256 225.835 213.17 226.973 213.17 226.973C213.17 226.973 217.508 232.865 220.948 233.164C220.948 233.164 224.837 236.652 220.35 238.199C215.861 239.747 207.186 230.969 207.186 230.969L204.201 229.729Z" fill="url(#paint11_linear_1_3)"/>
<path d="M242.342 228.679C242.342 228.679 238.801 218.573 235.942 217.111L242.342 228.679Z" fill="#C72E28"/>
<path d="M235.611 234.961C235.611 234.961 227.045 222.39 225.107 221.365L235.611 234.961Z" fill="#C72E28"/>
<path d="M240.6 233.953C240.6 233.953 233.804 221.275 230.957 219.635L240.6 233.953Z" fill="#C72E28"/>
<path d="M146.753 424.013C149.936 418.139 150.765 267.725 150.765 267.725L150.934 423.667L146.753 424.013Z" fill="#8E7057"/>
<path d="M129.509 425.441C129.509 425.441 124.515 435.115 124.115 438.306C124.115 438.306 103.571 432.406 99.3834 451.413H144.261V424.22L129.509 425.441Z" fill="black"/>
<path d="M156.828 423.178L169.192 436.61C169.192 436.61 196.24 429.95 195.343 451.411H146.753L147.146 424.018" fill="black"/>
<path d="M176.573 232.867C176.573 232.867 175.894 179.911 166.799 153.883C166.799 153.883 176.156 183.402 180.554 217.111C180.554 217.111 181.396 233.359 190.556 234.898C190.554 234.898 182.755 236.457 176.573 232.867Z" fill="#626E78"/>
<path d="M168.258 83.8433C168.395 83.5205 168.834 83.4744 169.028 83.7681C170.224 85.5701 173.449 90.706 173.081 93.1501C172.728 95.5037 169.045 95.1724 167.488 94.9247C167.083 94.8598 166.782 94.5182 166.772 94.1083C166.728 92.3098 166.76 87.3686 168.258 83.8433Z" fill="#C72E28"/>
<path d="M169.192 436.611C169.192 436.611 162.61 438.731 161.414 440.813" stroke="black" stroke-width="6.19835" stroke-miterlimit="10"/>
<path d="M124.115 438.306C124.115 438.306 130.896 440.799 132.542 443.79" stroke="black" stroke-width="6.19835" stroke-miterlimit="10"/>
<path d="M100.068 448.923H144.261V451.413H99.3834L100.068 448.923Z" fill="#968F91"/>
<path d="M146.789 448.923H195.342V451.413H146.753L146.789 448.923Z" fill="#968F91"/>
<path d="M155.177 87.15C155.588 85.2902 155.13 83.6079 154.154 83.3924C153.179 83.177 152.055 84.5099 151.644 86.3697C151.234 88.2294 151.691 89.9117 152.667 90.1272C153.642 90.3427 154.766 89.0097 155.177 87.15Z" fill="black"/>
<path d="M176.801 88.0463C177.212 86.1866 176.754 84.5043 175.779 84.2888C174.803 84.0733 173.68 85.4063 173.269 87.266C172.858 89.1258 173.316 90.8081 174.291 91.0236C175.267 91.239 176.39 89.9061 176.801 88.0463Z" fill="black"/>
<path d="M148.049 78.289L162.01 76.294C162.01 76.294 162.21 74.9977 160.914 74.2C160.914 74.2 157.269 73.3016 150.765 74.9977C144.261 76.6937 148.049 78.289 148.049 78.289Z" fill="black"/>
<path d="M183.363 78.289L169.402 76.294C169.402 76.294 169.202 74.9977 170.499 74.2C170.499 74.2 174.144 73.3016 180.648 74.9977C187.152 76.6937 183.363 78.289 183.363 78.289Z" fill="black"/>
<path d="M146.952 97.6371C146.952 97.6371 149.069 102.823 162.022 102.823" stroke="#C72E28" stroke-width="2.06612" stroke-miterlimit="10"/>
<path d="M161.565 95.5193C161.565 95.5193 156.844 96.9625 156.91 98.0591C156.977 99.1556 174.079 99.8798 174.079 99.8798C174.079 99.8798 173.334 97.381 170.885 96.363L161.565 95.5193Z" fill="black"/>
<path d="M147.651 114.989C147.651 114.989 137.945 112.396 133.755 103.753C133.755 103.753 134.454 116.685 146.005 123.218C146.005 123.216 145.257 119.51 147.651 114.989Z" fill="#C72E28"/>
<path d="M112.043 54.3548C112.043 54.3548 102.772 56.5479 102.174 65.923C102.174 65.923 99.139 82.704 112.425 88.3745C112.425 88.3745 97.4088 88.1217 98.1876 67.3389C98.3601 62.7257 100.154 58.2866 103.376 54.9816C105.19 53.1182 107.503 51.5059 110.251 51.113C110.251 51.113 114.654 43.1743 124.875 37.099C124.48 37.4543 111.547 49.0498 112.043 54.3548Z" fill="#3A3A3A"/>
<path d="M129.509 425.441L129.493 425.443L126.1 425.725C126.1 425.725 110.29 395.244 105.578 306.98L107.045 294.893C107.044 294.893 118.248 404.1 129.509 425.441Z" fill="#E0BB9D"/>
<path d="M315.592 228.48L356.879 223.892L364.857 260.591L369.433 270.503C361.334 268.436 353.489 275.95 353.489 275.95C353.089 272.359 349.101 268.769 349.101 268.769C349.101 268.769 347.506 271.162 339.528 275.55C331.55 279.938 326.962 275.55 326.962 275.55L315.394 261.189C315.394 261.189 309.809 262.784 308.214 259.394C306.618 256.004 313.799 253.609 312.801 252.812C312.067 252.224 311.008 244.495 310.501 240.304C310.185 237.687 310.496 235.021 311.49 232.58C312.301 230.582 313.592 228.702 315.592 228.48Z" fill="url(#paint12_linear_1_3)"/>
<path d="M383.556 240.645C377.871 252.613 364.856 260.591 364.856 260.591C364.856 260.591 360.068 260.093 356.628 247.377C356.628 247.377 360.268 240.147 355.68 235.161C351.093 230.174 345.509 236.157 346.305 237.952C347.105 239.749 346.404 247.226 346.404 247.226L341.817 237.354C341.817 237.354 327.422 247.727 312.282 230.971C312.282 230.971 300.83 227.482 301.578 217.907C302.12 210.991 327.712 201.374 341.882 196.564C341.883 196.564 341.883 196.564 341.883 196.564C347.332 194.714 351.091 193.578 351.091 193.578C351.091 193.578 357.226 191.877 361.264 197.862C365.303 203.847 378.318 210.877 381.457 214.317C384.603 217.758 389.241 228.678 383.556 240.645Z" fill="black"/>
<path d="M326.119 320.427L302.827 333.393C283.479 336.583 239.756 314.436 239.756 314.436C233.46 315.669 232.007 310.388 231.684 309.155C231.361 307.923 229.101 307.395 229.101 307.395C229.101 307.395 222.806 309.155 220.854 307.923C218.927 306.707 228.031 304.466 228.288 304.403C228.152 304.411 225.73 304.574 220.854 304.401C215.832 304.225 215.865 300.705 215.865 298.592C215.865 296.48 225.971 297.153 225.971 297.153C221.665 295.873 220.213 294.517 219.776 293.557C219.762 293.53 219.748 293.501 219.738 293.474C219.591 293.105 219.591 292.801 219.627 292.587C219.632 292.556 219.639 292.529 219.644 292.503C219.653 292.473 219.661 292.444 219.67 292.42C219.684 292.377 219.697 292.341 219.707 292.316C219.714 292.302 219.721 292.288 219.726 292.28C219.733 292.264 219.738 292.256 219.738 292.256C219.738 292.256 227.487 293.402 233.359 295.036C239.231 296.673 247.666 307.395 247.666 307.395C265.261 321.126 300.615 320.422 300.615 320.422L317.859 309.047L324.667 311.851L326.119 320.427Z" fill="url(#paint13_linear_1_3)"/>
<path d="M422.355 365.206C420.76 360.02 416.765 359.87 416.765 359.87C416.597 359.843 416.427 359.819 416.252 359.793C400.951 357.728 363.26 369.892 363.26 368.695C363.26 368.668 363.225 368.628 363.211 368.562L363.209 368.553C363.131 368.114 363.192 366.825 363.233 366.142V366.14C363.248 365.877 363.26 365.703 363.26 365.703C363.26 365.703 363.257 365.291 363.236 364.553V364.526C363.086 358.466 362.044 330.998 355.481 329.403C348.1 327.608 345.108 317.435 345.108 317.435L344.618 317.947L331.746 331.398C323.968 314.244 316.588 307.264 316.588 307.264L353.487 275.95C361.334 269.29 366.651 270.294 366.651 270.294C369.983 270.241 372.695 271.302 374.183 272.049C374.982 272.448 375.426 272.759 375.426 272.759C389.587 278.8 399.502 290.713 406.432 304.031C420.789 331.604 422.355 365.206 422.355 365.206Z" fill="#DB5A27"/>
<path d="M400.191 413.323L394.862 416.063L389.929 420.068C389.929 420.068 390.228 426.237 389.929 427.639C389.63 429.043 391.126 432.634 391.126 432.634H393.429L399.702 427.639C399.702 427.639 407.282 435.066 410.273 438.936C413.265 442.805 423.332 448.359 432.713 442.062L425.233 432.932L400.191 413.323Z" fill="url(#paint14_linear_1_3)"/>
<path d="M399.977 413.429C399.977 413.429 396.816 417.393 406.565 424.628C416.662 432.119 424.968 440.109 424.968 440.109C424.968 440.109 431.054 444.398 434.999 440.603C439.152 436.606 422.613 426.118 422.613 426.118L412.013 420.148C412.013 420.145 404.964 412.336 399.977 413.429Z" fill="#6B696A"/>
<path d="M400.512 412.232C400.512 412.232 397.35 416.198 407.099 423.431C417.197 430.922 425.503 438.912 425.503 438.912C425.503 438.912 431.589 443.201 435.534 439.406C439.686 435.409 423.148 424.92 423.148 424.92L412.548 418.951C412.548 418.949 405.499 411.14 400.512 412.232Z" fill="#968F91"/>
<path d="M385.591 422.983L380.262 425.723L375.329 429.728C375.329 429.728 375.628 435.898 375.329 437.3C375.03 438.704 376.526 442.294 376.526 442.294H378.829L385.102 437.3C385.102 437.3 392.682 444.726 395.673 448.596C398.665 452.465 408.732 458.019 418.113 451.722L410.633 442.593L385.591 422.983Z" fill="url(#paint15_linear_1_3)"/>
<path d="M400.777 440.972L395.05 447.819C395.05 447.819 396.317 450.54 400.023 452.146L407.221 446.559L400.777 440.972Z" fill="#6B696A"/>
<path d="M385.591 422.983C385.591 422.983 382.429 426.949 392.178 434.183C402.276 441.674 410.582 449.664 410.582 449.664C410.582 449.664 416.668 453.953 420.613 450.157C424.765 446.161 408.227 435.672 408.227 435.672L397.627 429.703C397.627 429.701 390.578 421.892 385.591 422.983Z" fill="#6B696A"/>
<path d="M415.047 430.962L409.318 437.809C409.318 437.809 410.586 440.53 414.292 442.135L421.489 436.548L415.047 430.962Z" fill="#6B696A"/>
<path d="M386.687 422.23C386.687 422.23 383.526 426.196 393.275 433.429C403.373 440.921 411.679 448.911 411.679 448.911C411.679 448.911 417.764 453.199 421.71 449.404C425.862 445.408 409.323 434.919 409.323 434.919L398.723 428.949C398.723 428.948 391.676 421.139 386.687 422.23Z" fill="#968F91"/>
<path d="M423.773 402.206C423.554 402.824 423.315 403.432 423.052 404.025L423.044 404.043C421.547 407.418 419.324 410.325 416.116 412.377C409.021 416.913 404.992 419.098 402.708 420.097H402.707C402.145 420.343 401.689 420.517 401.318 420.637C398.976 421.397 396.718 422.391 394.616 423.67L391.936 425.301C381.563 435.474 379.217 446.835 379.217 446.835C374.031 445.587 370.641 446.835 370.641 446.835C337.982 452.993 318.979 453.075 307.93 450.972C291.513 447.85 292.654 439.904 292.654 439.904C293.445 406.262 360.996 370.066 362.051 369.503L362.06 369.499C362.062 369.499 362.063 369.498 362.063 369.498C426.489 347.157 422.299 365.906 422.299 365.906C422.299 365.906 428.972 387.495 423.773 402.206Z" fill="#AB213E"/>
<path d="M216.001 300.792H227.633" stroke="#F58F87" stroke-width="2.06612" stroke-miterlimit="10"/>
<path d="M423.773 402.206L423.052 404.025L423.044 404.044C421.547 407.419 419.324 410.326 416.116 412.377C409.021 416.913 404.992 419.098 402.708 420.097H402.707L351.364 423.06C344.003 414.495 370.041 410.233 370.041 410.233C403.053 402.406 423.773 402.206 423.773 402.206Z" fill="#8C203B"/>
<path d="M341.371 425.54C341.371 425.54 347.504 422.698 364.557 421.651C381.609 420.604 401.321 421.366 409.318 416.473" stroke="#771F38" stroke-width="10.3306" stroke-miterlimit="10"/>
<path opacity="0.44" d="M311.833 255.197C313.029 255 313.257 250.346 312.343 244.802C311.428 239.259 309.717 234.925 308.521 235.122C307.325 235.319 307.097 239.973 308.012 245.517C308.926 251.06 310.637 255.394 311.833 255.197Z" fill="#80B9C6"/>
<path d="M316.629 249.396C317.064 249.325 317.188 247.883 316.906 246.177C316.625 244.471 316.044 243.146 315.61 243.218C315.175 243.29 315.051 244.731 315.332 246.437C315.614 248.143 316.194 249.468 316.629 249.396Z" fill="black"/>
<path d="M312.501 238.28C312.501 238.28 315.792 234.912 321.926 236.556C321.926 236.556 325.417 237.952 324.219 240.396C324.219 240.396 319.731 238.053 313.15 239.798C313.148 239.798 311.324 240.164 312.501 238.28Z" fill="black"/>
<path d="M312.339 244.777L346.307 237.954" stroke="black" stroke-width="2.06612" stroke-miterlimit="10"/>
<path d="M323.121 266.226C323.121 266.226 328.805 266.226 331.946 261.589" stroke="#F58F87" stroke-width="2.06612" stroke-miterlimit="10"/>
<path d="M345.112 317.437C345.112 317.437 355.882 306.557 357.828 296.714" stroke="#A04827" stroke-width="2.06612" stroke-miterlimit="10"/>
<path d="M409.585 328.756C409.135 334.588 402.105 331 402.105 331C401.058 324.12 397.767 321.276 397.767 321.276C383.736 306.504 377.719 289.557 375.145 277.337C374.748 275.454 374.433 273.683 374.183 272.05C373.91 270.272 373.715 268.66 373.575 267.241C373.165 263.08 373.232 260.595 373.232 260.595L380.564 255.758C390.03 256.839 396.817 269.509 401.436 284.025C403.531 290.618 405.181 297.59 406.433 304.034C408.451 314.414 409.433 323.418 409.581 327.232C409.583 327.234 409.583 327.234 409.583 327.235C409.61 327.912 409.61 328.428 409.585 328.756Z" fill="black"/>
<path d="M370.043 255.754L373.234 260.591C373.234 260.591 379.068 259.046 380.564 255.754L375.304 250.695L370.043 255.754Z" fill="#EC3D53"/>
<path d="M312.755 253.274C312.755 253.274 317.054 252.08 318.916 255.643C320.778 259.206 315.393 261.189 315.393 261.189C315.393 261.189 308.952 263.182 308.017 258.794C308.016 258.796 306.9 256.854 312.755 253.274Z" fill="#F58F87"/>
<path d="M351.661 277.5L318.993 309.956L316.588 307.264L351.661 277.5Z" fill="#EA997D"/>
<path d="M363.233 366.143C363.233 367.482 363.242 368.43 363.26 368.695L363.211 368.562L363.209 368.553C363.132 368.116 363.192 366.827 363.233 366.143Z" fill="#EA997D"/>
<path d="M355.482 329.404C348.104 327.601 345.11 317.437 345.11 317.437L344.62 317.949L345.883 316.624C345.883 316.624 349.499 327.71 357.826 329.107C357.826 329.107 361.166 339.478 363.447 351.342L364.381 368.702L363.262 369.084C363.26 369.081 359.969 330.501 355.482 329.404Z" fill="#EA997D"/>
<path d="M312.284 230.973C312.284 230.973 300.832 227.484 301.58 217.909C302.121 210.993 327.714 201.375 341.883 196.566C341.538 196.757 305.027 216.915 306.217 221.366C306.219 221.366 305.336 227.134 312.284 230.973Z" fill="#3A3A3A"/>
<path d="M305.817 424.22C305.817 424.22 296.881 443.688 307.93 450.971C291.513 447.848 292.654 439.903 292.654 439.903C293.445 406.261 360.996 370.065 362.051 369.501L362.06 369.498C361.52 369.908 306.215 411.789 305.817 424.22Z" fill="#C24866"/>
<path d="M349.099 268.769L352.645 263.908L352.797 273.647C352.797 273.647 350.789 270.839 349.099 268.769Z" fill="#F58F87"/>
<path d="M318.993 309.956L301.503 322.067C286.937 322.677 270.992 318.49 270.992 318.49C256.006 315.438 246.906 308.548 246.906 308.548C246.906 308.548 239.928 300.785 236.352 297.907C232.775 295.03 219.776 293.557 219.776 293.557C219.762 293.53 219.748 293.501 219.738 293.474C219.581 293.118 219.586 292.806 219.627 292.587C219.632 292.556 219.639 292.529 219.644 292.503C219.653 292.473 219.661 292.444 219.67 292.42C219.684 292.377 219.697 292.341 219.708 292.316C219.716 292.302 219.721 292.29 219.726 292.28C219.733 292.264 219.738 292.256 219.738 292.256C219.738 292.256 227.487 293.402 233.359 295.036C239.232 296.673 247.666 307.395 247.666 307.395C265.261 321.126 300.615 320.422 300.615 320.422L317.859 309.047L318.993 309.956Z" fill="#F6CEC4"/>
<g clip-path="url(#clip2_1_3)">
<rect x="5.16541" y="1.78162" width="500" height="500" rx="250" fill="white"/>
<path d="M147.756 334.589L147.52 334.825C144.33 327.856 142.322 319.941 141.495 311.2C142.322 319.823 144.567 327.619 147.756 334.589Z" fill="#DFDFDF"/>
<path d="M223.594 232.645C239.121 232.645 251.708 220.058 251.708 204.531C251.708 189.004 239.121 176.416 223.594 176.416C208.066 176.416 195.479 189.004 195.479 204.531C195.479 220.058 208.066 232.645 223.594 232.645Z" fill="#DFDFDF"/>
<path d="M308.527 133.654H209.536C166.538 133.654 140.905 159.288 140.905 202.286V301.277C140.905 314.153 143.149 325.375 147.52 334.825C157.679 357.269 179.414 369.909 209.536 369.909H308.527C351.525 369.909 377.159 344.275 377.159 301.277V274.226V202.286C377.159 159.288 351.525 133.654 308.527 133.654ZM357.904 257.688C348.69 249.773 333.806 249.773 324.592 257.688L275.451 299.859C266.237 307.774 251.353 307.774 242.14 299.859L238.123 296.552C229.736 289.228 216.388 288.519 206.938 294.898L162.758 324.548C160.159 317.933 158.624 310.254 158.624 301.277V202.286C158.624 168.974 176.225 151.373 209.536 151.373H308.527C341.839 151.373 359.44 168.974 359.44 202.286V258.987L357.904 257.688Z" fill="#DFDFDF"/>
<g clip-path="url(#clip3_1_3)">
<path d="M504.132 1.78162H4.13245V501.782H504.132V1.78162Z" fill="url(#paint16_linear_1_3)"/>
<path d="M504.037 375.382H4.22583V400.712H504.037V375.382Z" fill="#C6B69D"/>
<path d="M503.944 379.04H4.13245V402.553H503.944V379.04Z" fill="#FAEDCC"/>
<path d="M504.132 402.87H4.13245V501.782H504.132V402.87Z" fill="#BF7051"/>
<path d="M504.132 415.287H4.13245V432.405H504.132V415.287Z" fill="#AB614A"/>
<path d="M505.157 446.543H5.15747V463.662H505.157V446.543Z" fill="#AB614A"/>
<path d="M502.713 478.322H2.71252V495.44H502.713V478.322Z" fill="#AB614A"/>
<path d="M466.321 442.357C466.321 454.993 372.531 466.01 257.032 466.7C139.981 467.398 41.6974 456.365 48.0574 440.863C52.854 429.172 141.689 417.982 257.189 417.982C372.689 417.982 466.321 429.72 466.321 442.357Z" fill="#8E6350"/>
<path d="M257.032 463.803C372.533 463.803 466.164 453.559 466.164 440.922C466.164 428.285 372.533 418.04 257.032 418.04C141.532 418.04 47.9008 428.285 47.9008 440.922C47.9008 453.559 141.532 463.803 257.032 463.803Z" fill="#C49075"/>
<path d="M244.788 320.958H188.174C167.439 320.958 150.629 304.15 150.629 283.413V176.52C150.629 155.785 167.438 138.975 188.174 138.975H244.788C265.523 138.975 282.333 155.783 282.333 176.52V283.413C282.331 304.148 265.523 320.958 244.788 320.958Z" fill="#69705A"/>
<path d="M292.139 320.958H197.982C177.247 320.958 160.438 304.15 160.438 283.413V176.52C160.438 155.785 177.246 138.975 197.982 138.975H254.596C275.331 138.975 292.141 155.783 292.141 176.52V320.958H292.139Z" fill="#87936C"/>
<path d="M283.821 340.772H168.758C158.374 340.772 149.956 332.353 149.956 321.97V311.838C149.956 301.455 158.374 293.037 168.758 293.037H283.823C294.206 293.037 302.624 301.455 302.624 311.838V321.97C302.623 332.353 294.206 340.772 283.821 340.772Z" fill="#69705A"/>
<path d="M282.596 415.192H168.758C158.374 415.192 149.956 406.773 149.956 396.39V322.333C149.956 311.95 158.374 303.532 168.758 303.532H282.596C292.979 303.532 301.398 311.95 301.398 322.333V396.39C301.398 406.775 292.979 415.192 282.596 415.192Z" fill="#69705A"/>
<path d="M360.191 316.318H310.941C300.558 316.318 292.139 307.9 292.139 297.517V267.888H341.389C351.773 267.888 360.191 276.307 360.191 286.69V316.318Z" fill="#96A57A"/>
<path d="M345.059 313.855H292.139V272.218H326.258C336.641 272.218 345.059 280.637 345.059 291.02V313.855Z" fill="#69705A"/>
<path d="M326.414 340.772H222.408C212.024 340.772 203.606 332.353 203.606 321.97V311.838C203.606 301.455 212.024 293.037 222.408 293.037H326.414C336.798 293.037 345.216 301.455 345.216 311.838V321.97C345.216 332.353 336.798 340.772 326.414 340.772Z" fill="#747C5C"/>
<path d="M360.129 415.367H203.113C202.796 415.367 202.539 415.11 202.539 414.793V314.477C202.539 314.16 202.796 313.903 203.113 313.903H360.703V414.792C360.701 415.11 360.444 415.367 360.129 415.367Z" fill="#96A57A"/>
<path d="M228.776 315.88H168.758C158.374 315.88 149.956 307.462 149.956 297.078V268.145H209.976C220.359 268.145 228.778 276.563 228.778 286.947V315.88H228.776Z" fill="#96A57A"/>
<path d="M202.029 318.815H149.956V271.813H183.228C193.611 271.813 202.029 280.232 202.029 290.615V318.815Z" fill="#69705A"/>
<path d="M184.251 415.192H173.479V425.963H184.251V415.192Z" fill="#96834D"/>
<path d="M186.746 415.192H177.594V425.963H186.746V415.192Z" fill="#C6B375"/>
<path d="M233.534 415.192H222.763V425.963H233.534V415.192Z" fill="#96834D"/>
<path d="M236.029 415.192H226.878V425.963H236.029V415.192Z" fill="#C6B375"/>
<path d="M316.949 415.192H306.178V425.963H316.949V415.192Z" fill="#96834D"/>
<path d="M319.446 415.192H310.294V425.963H319.446V415.192Z" fill="#C6B375"/>
<path d="M350.448 415.192H339.676V425.963H350.448V415.192Z" fill="#96834D"/>
<path d="M352.944 415.192H343.792V425.963H352.944V415.192Z" fill="#C6B375"/>
<path d="M168.581 -22.5499H1.67737V255.958H168.581V-22.5499Z" fill="#9B8870"/>
<path d="M168.581 -18.8201H1.67737V259.688H168.581V-18.8201Z" fill="#C6B69D"/>
<path d="M68.559 -3.10168H1.67737V112.57H68.559V-3.10168Z" fill="#AEDFE6"/>
<path d="M68.559 128.927H1.67737V244.598H68.559V128.927Z" fill="#AEDFE6"/>
<path d="M153.976 129.655H87.0941V245.327H153.976V129.655Z" fill="#AEDFE6"/>
<path d="M153.976 -3.10168H87.0941V112.57H153.976V-3.10168Z" fill="#AEDFE6"/>
<path d="M1.67737 239.733H63.434V128.927H68.559V244.598H1.67737V239.733Z" fill="#9B8870"/>
<path d="M1.67737 107.707H63.434V-3.10168H68.559V112.572H1.67737V107.707Z" fill="#9B8870"/>
<path d="M87.0941 107.707H148.851V-3.10168H153.976V112.572H87.0941V107.707Z" fill="#9B8870"/>
<path d="M87.0941 240.463H148.851V129.655H153.976V245.328H87.0941V240.463Z" fill="#9B8870"/>
<path d="M195.451 1.78162L505.158 173.298L4.24078 486.882L4.13245 1.78162H195.451Z" fill="url(#paint17_linear_1_3)"/>
<path d="M224.386 399.83C224.386 399.83 221.519 429.398 222.541 431.935C222.541 431.935 223.081 436.478 217.681 433.602C217.681 433.602 216.076 432.925 216.076 429.373L214.591 398.597L215.784 394.87L222.644 396.562L224.386 399.83Z" fill="url(#paint18_linear_1_3)"/>
<path d="M247.782 392.508C247.967 392.64 245.712 428.807 246.624 431.58C246.624 431.58 246.477 436.715 241.077 433.482C241.077 433.482 239.472 432.722 239.472 428.727L237.987 394.122L239.181 389.932L246.041 391.833L247.782 392.508Z" fill="url(#paint19_linear_1_3)"/>
<path d="M256.114 398.955C256.114 398.955 255.094 399.247 253.447 399.667C249.654 400.638 242.534 402.298 236.881 402.678C234.976 402.808 233.236 402.79 231.847 402.553L231.477 379.04L231.454 377.502L230.829 402.553C230.829 402.553 212.769 404.177 207.581 401.395L208.181 351.977L252.224 352.693L252.434 355.195L256.114 398.955Z" fill="#BD2143"/>
<path d="M253.442 351.263C253.724 355.943 250.454 356.742 250.242 356.79C250.239 356.79 250.234 356.792 250.231 356.792C248.467 357.103 246.769 357.382 245.137 357.627C245.111 357.632 245.084 357.635 245.059 357.638C242.184 358.07 239.512 358.405 237.041 358.658C236.549 358.71 236.066 358.757 235.591 358.8C235.554 358.805 235.517 358.808 235.481 358.812C235.447 358.813 235.422 358.817 235.406 358.818C235.397 358.818 235.391 358.82 235.382 358.82C219.359 360.288 212.279 358.312 212.279 358.312C207.024 358.035 207.607 353.337 207.607 353.337L207.317 331.957L207.316 331.778H205.732C205.819 328.637 205.856 323.395 205.856 323.395C204.542 305.962 219.562 294.203 219.562 294.203C221.179 290.628 233.239 292.303 233.239 292.303C242.667 300.643 246.144 300.685 250.669 317.958C252.191 323.768 253.002 329.437 253.409 334.402L253.411 334.405C254.214 344.203 253.442 351.263 253.442 351.263Z" fill="#155677"/>
<path d="M220.087 274.923C214.009 274.533 207.896 269.743 208.966 259.688C210.036 249.633 223.774 253.85 223.774 253.85C224.552 266.463 222.399 269.467 222.399 269.467L222.752 239.84C239.101 240.205 244.491 237.108 244.491 237.108C247.214 238.387 250.231 240.673 250.231 240.673C250.231 240.673 256.849 245.793 257.627 256.03C257.872 259.252 257.964 262.003 257.972 264.26C257.977 265.488 257.959 266.57 257.927 267.502C257.834 270.302 257.627 271.752 257.627 271.752C257.627 271.752 256.654 284.487 240.564 285.402L233.749 285.508L233.239 292.337C233.239 292.337 236.796 295.467 235.902 297.127C235.009 298.787 223.009 302.488 223.264 294.19L223.136 292.528C223.136 292.528 226.471 288.955 220.087 274.923Z" fill="url(#paint20_linear_1_3)"/>
<path d="M240.964 258.598C241.58 258.598 242.079 257.815 242.079 256.848C242.079 255.882 241.58 255.098 240.964 255.098C240.348 255.098 239.849 255.882 239.849 256.848C239.849 257.815 240.348 258.598 240.964 258.598Z" fill="black"/>
<path d="M254.644 258.598C255.26 258.598 255.759 257.815 255.759 256.848C255.759 255.882 255.26 255.098 254.644 255.098C254.028 255.098 253.529 255.882 253.529 256.848C253.529 257.815 254.028 258.598 254.644 258.598Z" fill="black"/>
<path d="M231.547 271.653C231.547 271.653 236.687 276.195 249.492 274.573" stroke="#F58F87" stroke-width="1.03306" stroke-miterlimit="10" stroke-linecap="round"/>
<path d="M239.051 276.18C239.051 276.18 240.477 276.7 244.029 276.515" stroke="#F58F87" stroke-width="1.03306" stroke-miterlimit="10" stroke-linecap="round"/>
<path d="M213.137 364.828C213.137 364.828 209.997 376.943 213.137 384.603C213.137 384.603 213.389 385.203 214.204 385.28C215.019 385.355 213.759 379.722 214.204 377.995C214.204 377.995 215.537 385.28 216.501 386.557C216.501 386.557 217.229 387.482 218.387 387.277C219.469 387.085 220.181 386.02 220.017 384.918C219.734 383.02 219.251 379.307 219.464 377.243C219.464 377.243 220.797 385.053 221.242 385.053C221.242 385.053 222.131 385.653 222.576 384.753C223.021 383.853 221.834 376.267 221.242 373.338C221.242 373.338 222.459 374.382 223.347 375.083C223.347 375.083 225.989 376.403 225.644 374.3L223.194 371.435L220.551 368.38L220.301 364.963C220.301 364.965 215.801 363.68 213.137 364.828Z" fill="url(#paint21_linear_1_3)"/>
<path d="M213.137 364.828C213.137 364.828 210.172 340.277 210.311 332.243C210.311 332.243 215.304 331.903 218.532 331.535C218.532 331.535 218.912 362.073 220.301 364.965" fill="url(#paint22_linear_1_3)"/>
<path d="M233.327 292.013C233.327 292.013 230.242 292.132 227.689 285.177L233.749 285.507L233.327 292.013Z" fill="#F58F87"/>
<path d="M203.399 258.912C203.399 258.912 208.687 273.58 217.774 274.923C217.774 274.923 221.236 275.98 219.646 274.062C219.454 273.83 219.262 272.785 218.667 271.583C218.667 271.583 211.046 266.13 213.074 258.263C213.074 258.263 213.077 258.252 213.084 258.23C213.172 257.965 213.821 256.145 215.299 254.755C215.317 254.738 215.334 254.722 215.352 254.707C215.979 254.128 216.752 253.628 217.692 253.357C217.697 253.355 217.702 253.353 217.709 253.352C218.557 253.107 219.542 253.045 220.679 253.277C220.679 253.277 220.681 253.277 220.684 253.278C220.711 253.285 220.847 253.317 221.076 253.408C221.082 253.41 221.091 253.415 221.099 253.418C221.686 253.657 222.839 254.27 224.222 255.765C224.222 255.765 226.037 258.912 224.787 261.253C224.936 261.157 234.404 254.927 235.886 245.917L236.087 251.77C236.087 251.77 247.446 247.567 251.149 242.968C251.149 242.968 252.486 243.467 253.917 245.267C255.059 246.698 256.261 248.95 256.901 252.432C257.094 253.485 257.236 254.648 257.309 255.937C257.311 255.955 257.311 255.975 257.312 255.995C257.312 255.995 257.312 255.995 257.314 255.993C257.394 255.958 261.454 254.172 263.124 250.368C264.777 246.602 264.087 240.857 254.852 232.883C254.852 232.883 245.799 226.685 233.784 225.833C233.782 225.832 233.781 225.832 233.779 225.832C226.796 225.337 218.811 226.65 211.022 232.035C211.027 232.033 197.829 241.72 203.399 258.912Z" fill="black"/>
<path d="M249.867 268.633C248.347 269.013 247.546 268.633 247.546 268.633C244.874 266.253 247.901 262.015 247.966 261.923C247.967 261.922 247.967 261.922 247.967 261.922C247.967 261.922 251.006 261.478 252.272 264.835C253.541 268.19 249.867 268.633 249.867 268.633Z" fill="#EF8981"/>
<path d="M250.589 248.778C250.589 248.778 248.909 250.285 249.937 252.098C250.967 253.91 259.627 252.823 259.627 252.823C259.627 252.823 260.976 249.81 250.589 248.778Z" fill="black"/>
<path d="M243.644 248.363C243.644 248.363 245.639 250.05 244.507 252.182C243.377 254.312 233.324 253.343 233.324 253.343C233.324 253.343 231.664 249.902 243.644 248.363Z" fill="black"/>
<path opacity="0.46" d="M239.051 263.848C241.886 263.848 244.184 261.067 244.184 257.637C244.184 254.206 241.886 251.425 239.051 251.425C236.216 251.425 233.917 254.206 233.917 257.637C233.917 261.067 236.216 263.848 239.051 263.848Z" fill="#63C8D2"/>
<path d="M239.051 263.848C241.886 263.848 244.184 261.067 244.184 257.637C244.184 254.206 241.886 251.425 239.051 251.425C236.216 251.425 233.917 254.206 233.917 257.637C233.917 261.067 236.216 263.848 239.051 263.848Z" stroke="#9E7A2C" stroke-width="1.03306" stroke-miterlimit="10"/>
<path opacity="0.46" d="M254.644 263.848C257.479 263.848 259.778 261.067 259.778 257.637C259.778 254.206 257.479 251.425 254.644 251.425C251.809 251.425 249.511 254.206 249.511 257.637C249.511 261.067 251.809 263.848 254.644 263.848Z" fill="#63C8D2"/>
<path d="M254.644 263.848C257.479 263.848 259.778 261.067 259.778 257.637C259.778 254.206 257.479 251.425 254.644 251.425C251.809 251.425 249.511 254.206 249.511 257.637C249.511 261.067 251.809 263.848 254.644 263.848Z" stroke="#9E7A2C" stroke-width="1.03306" stroke-miterlimit="10"/>
<path d="M249.554 256.848H244.182" stroke="#9E7A2C" stroke-width="1.03306" stroke-miterlimit="10"/>
<path d="M233.917 256.848L224.602 256.553" stroke="#9E7A2C" stroke-width="1.03306" stroke-miterlimit="10"/>
<path d="M223.094 330.7C223.094 330.7 214.539 332.568 207.317 331.957C206.781 331.912 206.251 331.853 205.732 331.778C205.819 328.637 205.856 323.395 205.856 323.395C204.542 305.962 219.562 294.203 219.562 294.203C219.562 294.203 223.604 328.658 223.094 330.7Z" fill="white"/>
<path d="M236.881 402.678C234.976 402.808 233.236 402.79 231.847 402.553L231.477 379.04L235.009 377.848L236.881 402.678Z" fill="#9C1E45"/>
<path d="M235.591 358.8C235.886 358.77 236.481 358.71 237.296 358.62C237.212 358.633 237.127 358.647 237.041 358.658C236.514 358.733 235.969 358.787 235.406 358.818C235.422 358.817 235.447 358.813 235.481 358.812C235.511 358.807 235.547 358.803 235.591 358.8Z" fill="#9C1E45"/>
<path d="M253.442 351.263C253.724 355.943 250.454 356.742 250.242 356.79C250.239 356.79 250.234 356.792 250.231 356.792C248.579 357.1 246.831 357.38 245.137 357.627C245.111 357.632 245.084 357.635 245.059 357.638C241.997 358.083 239.119 358.42 237.311 358.618C253.297 356.12 253.409 334.402 253.409 334.402L253.411 334.405C254.214 344.203 253.442 351.263 253.442 351.263Z" fill="#164354"/>
<path d="M231.847 400.062C231.847 400.062 252.207 398.87 255.864 395.977" stroke="white" stroke-width="2.06612" stroke-miterlimit="10"/>
<path d="M207.604 399.302C207.604 399.302 220.221 402.282 230.891 399.9" stroke="white" stroke-width="2.06612" stroke-miterlimit="10"/>
<path d="M235.591 358.8C235.591 358.8 237.479 376.402 231.477 379.04L230.891 359.16L235.591 358.8Z" stroke="#9C1E45" stroke-width="2.06612" stroke-miterlimit="10"/>
<path d="M237.989 449.1H262.812C262.576 445.485 259.199 443.837 256.764 442.265C254.329 440.693 247.286 440.04 246.569 434.802C246.352 433.213 246.712 429.325 247.322 424.673H238.977C237.892 437.955 237.989 449.1 237.989 449.1Z" fill="white"/>
<path d="M245.059 424.545C245.059 424.545 242.692 439.563 251.491 442.392C260.289 445.22 262.432 447.402 262.432 447.402" stroke="#A5A4A4" stroke-width="1.03306" stroke-miterlimit="10"/>
<path d="M242.331 424.545C242.331 424.545 241.679 430.888 243.034 437.107C243.491 439.203 244.807 441.015 246.656 442.105C248.181 443.005 250.424 444.143 253.602 445.373C260.987 448.227 260.536 447.923 261.164 449.102" stroke="#A5A4A4" stroke-width="1.03306" stroke-miterlimit="10"/>
<path d="M239.951 424.545C239.951 424.545 240.142 430.338 240.821 435.87C241.459 441.073 244.829 445.573 249.676 447.567C251.589 448.353 253.904 448.933 256.684 449.102" stroke="#A5A4A4" stroke-width="1.03306" stroke-miterlimit="10"/>
<path d="M238.389 433.628C238.389 433.628 237.047 447.058 247.731 449.1" stroke="#A5A4A4" stroke-width="1.03306" stroke-miterlimit="10"/>
<path d="M237.987 444.91C237.987 444.91 237.832 448.158 241.917 449.1" stroke="#A5A4A4" stroke-width="2.06612" stroke-miterlimit="10"/>
<path d="M246.931 427.863H238.731" stroke="#CB2027" stroke-width="1.03306" stroke-miterlimit="10"/>
<path d="M247.036 427.107H238.789" stroke="#CB2027" stroke-width="1.03306" stroke-miterlimit="10"/>
<path d="M214.468 449.1H239.291C239.054 445.485 235.678 443.837 233.243 442.265C230.808 440.693 223.764 440.04 223.048 434.802C222.831 433.213 223.191 429.325 223.801 424.673H215.456C214.371 437.955 214.468 449.1 214.468 449.1Z" fill="white"/>
<path d="M221.538 424.545C221.538 424.545 219.171 439.563 227.969 442.392C236.768 445.22 238.911 447.402 238.911 447.402" stroke="#A5A4A4" stroke-width="1.03306" stroke-miterlimit="10"/>
<path d="M218.809 424.545C218.809 424.545 218.157 430.888 219.512 437.107C219.969 439.203 221.286 441.015 223.134 442.105C224.659 443.005 226.902 444.143 230.081 445.373C237.466 448.227 237.014 447.923 237.642 449.102" stroke="#A5A4A4" stroke-width="1.03306" stroke-miterlimit="10"/>
<path d="M216.431 424.545C216.431 424.545 216.622 430.338 217.301 435.87C217.939 441.073 221.309 445.573 226.156 447.567C228.069 448.353 230.384 448.933 233.164 449.102" stroke="#A5A4A4" stroke-width="1.03306" stroke-miterlimit="10"/>
<path d="M214.867 433.628C214.867 433.628 213.526 447.058 224.209 449.1" stroke="#A5A4A4" stroke-width="1.03306" stroke-miterlimit="10"/>
<path d="M214.466 444.91C214.466 444.91 214.311 448.158 218.396 449.1" stroke="#A5A4A4" stroke-width="1.03306" stroke-miterlimit="10"/>
<path d="M223.411 427.863H215.209" stroke="#CB2027" stroke-width="1.03306" stroke-miterlimit="10"/>
<path d="M223.516 427.107H215.269" stroke="#CB2027" stroke-width="1.03306" stroke-miterlimit="10"/>
<path d="M162.066 420.448L131.517 422.977L131.502 422.978L128.191 423.253C128.191 423.253 112.764 393.51 108.166 307.382C107.576 296.312 107.164 284.308 106.986 271.32L116.719 240.708L175.691 239.735C175.687 239.733 182.501 365.855 162.066 420.448Z" fill="#CEAA87"/>
<path d="M209.221 230.976C209.221 230.976 216.754 230.781 202.016 235.165C187.274 239.548 177.441 235.063 177.441 235.063C177.441 239.928 175.738 240.708 175.738 240.708C150.048 251.606 117.364 240.708 117.364 240.708C117.203 248.688 112.629 263.285 112.629 263.285C114.186 268.538 112.046 270.096 112.046 270.096C106.766 271.858 102.481 271.813 99.611 271.195C97.4043 270.725 96.036 269.91 95.696 269.32C94.916 267.956 95.501 263.383 95.501 263.383C95.501 263.383 78.8593 238.566 84.4076 195.36C88.3026 165.015 107.849 141.046 119.143 129.465C119.146 129.46 119.148 129.456 119.148 129.456C123.933 124.551 127.234 121.87 127.234 121.87L147.508 124.133C189.393 170.27 187.173 208.398 187.173 208.398C205.856 208.398 222.789 214.041 222.789 214.041L209.221 230.976Z" fill="#7E92A5"/>
<path d="M97.9658 262.7L98.6808 270.962L99.6091 271.193C97.4025 270.723 96.0341 269.908 95.6941 269.318C94.9141 267.955 95.4991 263.382 95.4991 263.382C95.4991 263.382 78.8575 238.565 84.4058 195.358C88.3025 165.015 107.849 141.047 119.142 129.465C118.571 130.218 65.2841 189.812 97.9658 262.7Z" fill="#9AB2C6"/>
<path d="M186.732 66.9031C186.732 66.9031 185.839 74.4148 180.592 74.5281L180.164 71.2831C156.032 83.0565 135.644 71.2831 135.644 71.2831L130.826 93.6165L114.846 94.0665C114.846 94.0665 100.192 93.8198 100.952 73.5398C101.121 69.0381 102.871 64.7065 106.016 61.4815C107.786 59.6631 110.042 58.0898 112.724 57.7065C112.724 57.7065 117.021 49.9598 126.994 44.0315C126.997 44.0298 126.999 44.0281 127.002 44.0265C127.004 44.0248 127.004 44.0248 127.004 44.0248C134.072 39.8248 143.991 36.5348 157.246 37.5648C157.247 37.5631 188.047 38.2931 186.732 66.9031Z" fill="black"/>
<path d="M180.164 71.2817C180.164 71.2817 187.171 114.198 166.734 120.037C166.734 120.037 158.267 122.81 149.217 120.037C149.217 120.037 146.152 125.145 147.612 128.065L151.408 130.838L146.006 139.305L139.291 132.152C139.291 132.152 129.657 130.838 126.591 124.268C126.591 124.268 130.094 113.32 127.612 104.123C127.612 104.123 115.497 106.313 114.474 91.1317C114.474 91.1317 113.891 79.745 126.297 80.475C126.297 80.475 126.736 91.4234 130.822 93.6134L135.639 71.28C135.644 71.2817 155.934 82.23 180.164 71.2817Z" fill="url(#paint23_linear_1_3)"/>
<path d="M112.629 263.285C126.448 222.765 116.571 156.823 116.571 156.823C116.571 156.823 124.404 229.973 129.221 243.613L119.143 241.25" fill="#626E78"/>
<path d="M139.292 132.153C139.292 132.153 133.647 147.383 134.037 152.638C134.037 152.638 123.332 144.27 119.147 127.045L127.232 121.872L126.592 124.272C126.592 124.27 128.394 130.158 139.292 132.153Z" fill="white"/>
<path d="M151.409 130.838L156.551 147.415L157.329 130.547L147.508 124.133C147.508 124.133 146.721 126.88 147.614 128.065L151.409 130.838Z" fill="white"/>
<path d="M135.142 145.323C135.142 145.323 148.716 154.925 155.097 142.737L151.407 130.84L146.006 139.307L139.291 132.153C139.292 132.153 135.129 144.188 135.142 145.323Z" fill="#D8D8D8"/>
<path d="M134.358 148.917C134.358 148.917 151.134 158.003 155.991 145.613" stroke="black" stroke-width="1.03306" stroke-miterlimit="10"/>
<path d="M97.5941 269.865C97.5941 269.865 90.3408 294.305 96.1908 310.123C96.1908 310.123 96.6591 311.365 98.3125 311.575C99.9658 311.785 97.8025 300.228 98.8291 296.743C98.8291 296.743 101.027 311.67 102.897 314.337C102.897 314.337 104.316 316.272 106.689 315.938C108.906 315.627 110.431 313.507 110.174 311.253C109.731 307.37 109.011 299.775 109.594 295.588C109.594 295.588 111.756 311.585 112.661 311.617C112.661 311.617 114.429 312.903 115.397 311.1C116.366 309.297 114.491 293.77 113.492 287.765C113.492 287.765 115.894 289.975 117.654 291.467C117.654 291.467 122.939 294.342 122.384 290.037L117.601 284.032L112.437 277.627L112.171 270.653C112.167 270.65 103.097 267.715 97.5941 269.865Z" fill="url(#paint24_linear_1_3)"/>
<path d="M106.319 313.782C106.319 313.782 103.286 300.523 103.546 294.165L106.319 313.782Z" fill="#C72E28"/>
<path d="M204.401 232.002C204.401 232.002 198.994 221.195 207.753 216.232C216.511 211.268 233.444 212.582 239.866 218.567C239.866 218.567 244.311 228.185 245.754 230.195C246.406 231.103 243.369 233.602 241.618 230.973C241.618 230.973 242.931 237.833 235.049 237.105C235.049 237.105 236.071 239.975 235.049 240.122C235.049 240.122 232.568 241.63 230.524 238.273C230.524 238.273 223.956 230.422 221.036 229.312C218.116 228.202 213.153 229.312 213.153 229.312C213.153 229.312 217.386 235.062 220.743 235.353C220.743 235.353 224.538 238.757 220.159 240.267C215.779 241.777 207.314 233.212 207.314 233.212L204.401 232.002Z" fill="url(#paint25_linear_1_3)"/>
<path d="M241.619 230.977C241.619 230.977 238.164 221.115 235.374 219.688L241.619 230.977Z" fill="#C72E28"/>
<path d="M235.051 237.107C235.051 237.107 226.692 224.84 224.801 223.84L235.051 237.107Z" fill="#C72E28"/>
<path d="M239.919 236.123C239.919 236.123 233.288 223.752 230.509 222.152L239.919 236.123Z" fill="#C72E28"/>
<path d="M148.343 421.585C151.449 415.853 152.258 269.078 152.258 269.078L152.423 421.246L148.343 421.585Z" fill="#8E7057"/>
<path d="M131.516 422.978C131.516 422.978 126.642 432.418 126.252 435.531C126.252 435.531 106.206 429.775 102.119 448.321H145.911V421.786L131.516 422.978Z" fill="black"/>
<path d="M158.174 420.77L170.239 433.876C170.239 433.876 196.633 427.378 195.758 448.32H148.343L148.726 421.59" fill="black"/>
<path d="M177.441 235.063C177.441 235.063 176.779 183.388 167.904 157.99C167.904 157.99 177.034 186.795 181.326 219.688C181.326 219.688 182.148 235.543 191.086 237.045C191.084 237.045 183.474 238.566 177.441 235.063Z" fill="#626E78"/>
<path d="M169.327 89.645C169.461 89.33 169.889 89.285 170.079 89.5716C171.246 91.33 174.392 96.3416 174.034 98.7266C173.689 101.023 170.096 100.7 168.576 100.458C168.181 100.395 167.887 100.062 167.877 99.6616C167.834 97.9066 167.866 93.085 169.327 89.645Z" fill="#C72E28"/>
<path d="M170.239 433.878C170.239 433.878 163.816 435.947 162.649 437.978" stroke="black" stroke-width="6.19835" stroke-miterlimit="10"/>
<path d="M126.252 435.531C126.252 435.531 132.869 437.965 134.476 440.883" stroke="black" stroke-width="6.19835" stroke-miterlimit="10"/>
<path d="M102.787 445.891H145.911V448.321H102.119L102.787 445.891Z" fill="#968F91"/>
<path d="M148.378 445.891H195.756V448.321H148.343L148.378 445.891Z" fill="#968F91"/>
<path d="M156.563 92.8714C156.964 91.0566 156.517 89.415 155.565 89.2047C154.613 88.9945 153.517 90.2952 153.116 92.11C152.715 93.9247 153.162 95.5663 154.114 95.7766C155.066 95.9868 156.162 94.6861 156.563 92.8714Z" fill="black"/>
<path d="M177.664 93.7461C178.065 91.9314 177.619 90.2898 176.667 90.0795C175.715 89.8692 174.618 91.1699 174.217 92.9847C173.816 94.7995 174.263 96.4411 175.215 96.6513C176.167 96.8616 177.263 95.5609 177.664 93.7461Z" fill="black"/>
<path d="M149.607 84.2249L163.231 82.2783C163.231 82.2783 163.426 81.0133 162.161 80.2349C162.161 80.2349 158.604 79.3583 152.257 81.0133C145.911 82.6683 149.607 84.2249 149.607 84.2249Z" fill="black"/>
<path d="M184.068 84.2249L170.444 82.2783C170.444 82.2783 170.249 81.0133 171.514 80.2349C171.514 80.2349 175.071 79.3583 181.418 81.0133C187.764 82.6683 184.068 84.2249 184.068 84.2249Z" fill="black"/>
<path d="M148.538 103.105C148.538 103.105 150.603 108.165 163.243 108.165" stroke="#C72E28" stroke-width="1.03306" stroke-miterlimit="10"/>
<path d="M162.796 101.038C162.796 101.038 158.189 102.447 158.254 103.517C158.319 104.587 175.008 105.293 175.008 105.293C175.008 105.293 174.281 102.855 171.891 101.862L162.796 101.038Z" fill="black"/>
<path d="M122.424 242.41C122.424 242.41 122.404 243.283 122.372 244.908" stroke="#8E7057" stroke-width="1.03306" stroke-miterlimit="10"/>
<path d="M149.219 120.036C149.219 120.036 139.748 117.506 135.659 109.073C135.659 109.073 136.341 121.691 147.613 128.066C147.613 128.065 146.883 124.448 149.219 120.036Z" fill="#C72E28"/>
<path d="M114.472 60.8699C114.472 60.8699 105.426 63.01 104.842 72.1583C104.842 72.1583 101.881 88.5333 114.846 94.0666C114.846 94.0666 100.192 93.8199 100.952 73.5399C101.121 69.0383 102.871 64.7066 106.016 61.4816C107.786 59.6633 110.042 58.0899 112.724 57.7066C112.724 57.7066 117.021 49.9599 126.994 44.0316C126.609 44.3783 113.989 55.6933 114.472 60.8699Z" fill="#3A3A3A"/>
<path d="M131.516 422.978L131.501 422.98L128.189 423.255C128.189 423.255 112.762 393.512 108.164 307.383L109.596 295.588C109.594 295.588 120.527 402.153 131.516 422.978Z" fill="#E0BB9D"/>
<path d="M313.098 230.782L353.386 226.305L361.171 262.117L365.636 271.788C357.733 269.772 350.078 277.103 350.078 277.103C349.688 273.6 345.796 270.097 345.796 270.097C345.796 270.097 344.239 272.432 336.454 276.713C328.669 280.995 324.193 276.713 324.193 276.713L312.904 262.7C312.904 262.7 307.454 264.257 305.898 260.948C304.341 257.64 311.348 255.303 310.374 254.525C309.658 253.952 308.624 246.41 308.129 242.32C307.821 239.767 308.124 237.165 309.094 234.783C309.886 232.833 311.146 230.998 313.098 230.782Z" fill="url(#paint26_linear_1_3)"/>
<path d="M379.418 242.653C373.869 254.332 361.169 262.117 361.169 262.117C361.169 262.117 356.498 261.63 353.141 249.222C353.141 249.222 356.693 242.167 352.216 237.302C347.739 232.435 342.291 238.273 343.068 240.025C343.848 241.778 343.164 249.075 343.164 249.075L338.688 239.442C338.688 239.442 324.641 249.563 309.868 233.213C309.868 233.213 298.693 229.808 299.423 220.465C299.951 213.717 324.924 204.332 338.751 199.638C338.753 199.638 338.753 199.638 338.753 199.638C344.069 197.833 347.738 196.725 347.738 196.725C347.738 196.725 353.724 195.065 357.664 200.905C361.606 206.745 374.306 213.605 377.369 216.962C380.439 220.32 384.964 230.975 379.418 242.653Z" fill="black"/>
<path d="M323.369 320.505L300.641 333.157C281.761 336.27 239.096 314.658 239.096 314.658C232.953 315.862 231.534 310.708 231.219 309.505C230.904 308.303 228.699 307.788 228.699 307.788C228.699 307.788 222.556 309.505 220.651 308.303C218.771 307.117 227.654 304.93 227.906 304.868C227.773 304.877 225.409 305.035 220.651 304.867C215.751 304.695 215.783 301.26 215.783 299.198C215.783 297.137 225.644 297.793 225.644 297.793C221.443 296.545 220.026 295.222 219.599 294.285C219.586 294.258 219.573 294.23 219.563 294.203C219.419 293.843 219.419 293.547 219.454 293.338C219.459 293.308 219.466 293.282 219.471 293.257C219.479 293.227 219.488 293.198 219.496 293.175C219.509 293.133 219.523 293.098 219.533 293.073C219.539 293.06 219.546 293.047 219.551 293.038C219.558 293.023 219.563 293.015 219.563 293.015C219.563 293.015 227.124 294.133 232.854 295.728C238.584 297.325 246.814 307.788 246.814 307.788C263.984 321.187 298.483 320.5 298.483 320.5L315.309 309.4L321.953 312.137L323.369 320.505Z" fill="url(#paint27_linear_1_3)"/>
<path d="M417.277 364.2C415.721 359.14 411.822 358.993 411.822 358.993C411.659 358.967 411.492 358.943 411.322 358.918C396.391 356.903 359.612 368.773 359.612 367.605C359.612 367.578 359.577 367.54 359.564 367.475L359.562 367.467C359.486 367.038 359.546 365.78 359.586 365.113V365.112C359.601 364.855 359.612 364.685 359.612 364.685C359.612 364.685 359.609 364.283 359.589 363.563V363.537C359.442 357.623 358.426 330.82 352.021 329.263C344.819 327.512 341.899 317.585 341.899 317.585L341.421 318.085L328.861 331.21C321.271 314.472 314.069 307.66 314.069 307.66L350.076 277.103C357.732 270.605 362.921 271.585 362.921 271.585C366.172 271.533 368.819 272.568 370.271 273.297C371.051 273.687 371.484 273.99 371.484 273.99C385.302 279.885 394.977 291.51 401.739 304.505C415.749 331.412 417.277 364.2 417.277 364.2Z" fill="#DB5A27"/>
<path d="M395.649 411.153L390.449 413.827L385.636 417.735C385.636 417.735 385.927 423.755 385.636 425.123C385.344 426.493 386.804 429.997 386.804 429.997H389.051L395.172 425.123C395.172 425.123 402.569 432.37 405.487 436.147C408.407 439.922 418.231 445.342 427.384 439.197L420.086 430.288L395.649 411.153Z" fill="url(#paint28_linear_1_3)"/>
<path d="M395.441 411.257C395.441 411.257 392.356 415.125 401.869 422.185C411.723 429.495 419.828 437.292 419.828 437.292C419.828 437.292 425.766 441.477 429.616 437.773C433.667 433.873 417.529 423.638 417.529 423.638L407.186 417.813C407.186 417.81 400.308 410.19 395.441 411.257Z" fill="#6B696A"/>
<path d="M395.963 410.088C395.963 410.088 392.878 413.958 402.391 421.017C412.244 428.327 420.349 436.123 420.349 436.123C420.349 436.123 426.288 440.308 430.138 436.605C434.189 432.705 418.051 422.47 418.051 422.47L407.708 416.645C407.708 416.643 400.829 409.023 395.963 410.088Z" fill="#968F91"/>
<path d="M381.402 420.58L376.202 423.253L371.389 427.162C371.389 427.162 371.681 433.182 371.389 434.55C371.097 435.92 372.557 439.423 372.557 439.423H374.804L380.926 434.55C380.926 434.55 388.322 441.797 391.241 445.573C394.161 449.348 403.984 454.768 413.137 448.623L405.839 439.715L381.402 420.58Z" fill="url(#paint29_linear_1_3)"/>
<path d="M396.221 438.133L390.633 444.815C390.633 444.815 391.869 447.47 395.486 449.037L402.509 443.585L396.221 438.133Z" fill="#6B696A"/>
<path d="M381.403 420.58C381.403 420.58 378.318 424.45 387.831 431.508C397.684 438.818 405.789 446.615 405.789 446.615C405.789 446.615 411.728 450.8 415.578 447.097C419.629 443.197 403.491 432.962 403.491 432.962L393.148 427.137C393.148 427.135 386.269 419.515 381.403 420.58Z" fill="#6B696A"/>
<path d="M410.146 428.365L404.556 435.047C404.556 435.047 405.793 437.702 409.409 439.268L416.433 433.817L410.146 428.365Z" fill="#6B696A"/>
<path d="M382.473 419.845C382.473 419.845 379.388 423.715 388.901 430.773C398.754 438.083 406.859 445.88 406.859 445.88C406.859 445.88 412.798 450.065 416.648 446.362C420.699 442.462 404.561 432.227 404.561 432.227L394.218 426.402C394.218 426.4 387.341 418.78 382.473 419.845Z" fill="#968F91"/>
<path d="M418.661 400.305C418.448 400.908 418.214 401.502 417.958 402.08L417.949 402.098C416.489 405.392 414.319 408.228 411.189 410.23C404.266 414.657 400.334 416.788 398.106 417.763H398.104C397.556 418.003 397.111 418.173 396.749 418.29C394.464 419.032 392.261 420.002 390.209 421.25L387.594 422.842C377.473 432.768 375.183 443.855 375.183 443.855C370.123 442.637 366.814 443.855 366.814 443.855C334.946 449.863 316.403 449.943 305.621 447.892C289.601 444.845 290.714 437.092 290.714 437.092C291.486 404.263 357.403 368.943 358.433 368.393L358.441 368.39C358.443 368.39 358.444 368.388 358.444 368.388C421.311 346.588 417.223 364.883 417.223 364.883C417.223 364.883 423.734 385.95 418.661 400.305Z" fill="#AB213E"/>
<path d="M215.916 301.345H227.266" stroke="#F58F87" stroke-width="1.03306" stroke-miterlimit="10"/>
<path d="M418.661 400.305L417.958 402.08L417.949 402.098C416.489 405.392 414.319 408.228 411.189 410.23C404.266 414.657 400.334 416.788 398.106 417.763H398.104L348.004 420.655C340.821 412.297 366.229 408.138 366.229 408.138C398.443 400.5 418.661 400.305 418.661 400.305Z" fill="#8C203B"/>
<path d="M338.253 423.075C338.253 423.075 344.238 420.302 360.878 419.28C377.518 418.258 396.753 419.002 404.556 414.227" stroke="#771F38" stroke-width="1.03306" stroke-miterlimit="10"/>
<path opacity="0.44" d="M309.43 256.853C310.597 256.66 310.819 252.119 309.927 246.709C309.034 241.3 307.365 237.071 306.198 237.263C305.03 237.456 304.808 241.997 305.7 247.407C306.593 252.816 308.263 257.045 309.43 256.853Z" fill="#80B9C6"/>
<path d="M314.109 251.193C314.534 251.123 314.655 249.716 314.38 248.052C314.105 246.387 313.539 245.094 313.115 245.164C312.691 245.234 312.569 246.64 312.844 248.305C313.119 249.97 313.685 251.263 314.109 251.193Z" fill="black"/>
<path d="M310.081 240.345C310.081 240.345 313.293 237.058 319.278 238.663C319.278 238.663 322.684 240.025 321.516 242.41C321.516 242.41 317.136 240.123 310.714 241.827C310.713 241.827 308.933 242.183 310.081 240.345Z" fill="black"/>
<path d="M309.922 246.685L343.069 240.027" stroke="black" stroke-width="1.03306" stroke-miterlimit="10"/>
<path d="M320.444 267.615C320.444 267.615 325.991 267.615 329.056 263.09" stroke="#F58F87" stroke-width="1.03306" stroke-miterlimit="10"/>
<path d="M341.903 317.587C341.903 317.587 352.413 306.97 354.311 297.365" stroke="#A04827" stroke-width="1.03306" stroke-miterlimit="10"/>
<path d="M404.816 328.632C404.378 334.323 397.518 330.822 397.518 330.822C396.496 324.108 393.284 321.333 393.284 321.333C379.593 306.918 373.721 290.382 371.209 278.457C370.823 276.62 370.514 274.892 370.271 273.298C370.004 271.563 369.814 269.99 369.678 268.605C369.278 264.545 369.343 262.12 369.343 262.12L376.498 257.4C385.734 258.455 392.358 270.818 396.864 284.983C398.909 291.417 400.519 298.22 401.741 304.508C403.709 314.637 404.668 323.423 404.813 327.145C404.814 327.147 404.814 327.147 404.814 327.148C404.841 327.808 404.841 328.312 404.816 328.632Z" fill="black"/>
<path d="M366.231 257.397L369.344 262.117C369.344 262.117 375.038 260.608 376.498 257.397L371.364 252.46L366.231 257.397Z" fill="#EC3D53"/>
<path d="M310.329 254.977C310.329 254.977 314.524 253.812 316.341 257.288C318.158 260.765 312.903 262.7 312.903 262.7C312.903 262.7 306.618 264.645 305.706 260.363C305.704 260.365 304.616 258.47 310.329 254.977Z" fill="#F58F87"/>
<path d="M348.294 278.617L316.416 310.287L314.069 307.66L348.294 278.617Z" fill="#EA997D"/>
<path d="M359.586 365.115C359.586 366.422 359.594 367.347 359.613 367.605L359.564 367.475L359.563 367.467C359.488 367.04 359.546 365.782 359.586 365.115Z" fill="#EA997D"/>
<path d="M352.023 329.265C344.823 327.505 341.901 317.587 341.901 317.587L341.422 318.087L342.656 316.793C342.656 316.793 346.184 327.612 354.309 328.975C354.309 328.975 357.569 339.095 359.794 350.672L360.706 367.612L359.614 367.985C359.612 367.982 356.401 330.335 352.023 329.265Z" fill="#EA997D"/>
<path d="M309.869 233.215C309.869 233.215 298.694 229.81 299.424 220.467C299.952 213.718 324.926 204.333 338.752 199.64C338.416 199.827 302.787 219.497 303.949 223.84C303.951 223.84 303.089 229.468 309.869 233.215Z" fill="#3A3A3A"/>
<path d="M303.559 421.787C303.559 421.787 294.839 440.783 305.621 447.89C289.601 444.843 290.714 437.09 290.714 437.09C291.486 404.262 357.403 368.942 358.433 368.392L358.441 368.388C357.914 368.788 303.948 409.657 303.559 421.787Z" fill="#C24866"/>
<path d="M345.794 270.097L349.254 265.353L349.403 274.857C349.403 274.857 347.443 272.117 345.794 270.097Z" fill="#F58F87"/>
<path d="M316.416 310.287L299.349 322.105C285.136 322.7 269.576 318.615 269.576 318.615C254.952 315.637 246.072 308.913 246.072 308.913C246.072 308.913 239.264 301.338 235.774 298.53C232.284 295.722 219.599 294.285 219.599 294.285C219.586 294.258 219.572 294.23 219.562 294.203C219.409 293.857 219.414 293.552 219.454 293.338C219.459 293.308 219.466 293.282 219.471 293.257C219.479 293.227 219.487 293.198 219.496 293.175C219.509 293.133 219.522 293.098 219.532 293.073C219.541 293.06 219.546 293.048 219.551 293.038C219.557 293.023 219.562 293.015 219.562 293.015C219.562 293.015 227.124 294.133 232.854 295.728C238.584 297.325 246.814 307.788 246.814 307.788C263.984 321.187 298.482 320.5 298.482 320.5L315.309 309.4L316.416 310.287Z" fill="#F6CEC4"/>
</g>
</g>
</g>
</g>
<defs>
<linearGradient id="paint0_linear_1_3" x1="-22.1195" y1="-133.706" x2="468.735" y2="545.536" gradientUnits="userSpaceOnUse">
<stop offset="0.4238" stop-color="#F5DB96"/>
<stop offset="1" stop-color="#F9A466"/>
</linearGradient>
<linearGradient id="paint1_linear_1_3" x1="-17.2528" y1="-1.5195" x2="168.922" y2="224.735" gradientUnits="userSpaceOnUse">
<stop stop-color="#AEDFE6" stop-opacity="0.6"/>
<stop offset="1" stop-color="white" stop-opacity="0"/>
</linearGradient>
<linearGradient id="paint2_linear_1_3" x1="199.831" y1="284.662" x2="245.396" y2="364.401" gradientUnits="userSpaceOnUse">
<stop offset="0.4048" stop-color="#FED776"/>
<stop offset="1" stop-color="#F58348"/>
</linearGradient>
<linearGradient id="paint3_linear_1_3" x1="256.37" y1="301.933" x2="227.25" y2="246.885" gradientUnits="userSpaceOnUse">
<stop offset="0.6882" stop-color="#FABCA8"/>
<stop offset="1" stop-color="#F58F87"/>
</linearGradient>
<linearGradient id="paint4_linear_1_3" x1="219.661" y1="450.373" x2="219.661" y2="404.299" gradientUnits="userSpaceOnUse">
<stop offset="0.6882" stop-color="#FABCA8"/>
<stop offset="1" stop-color="#F58F87"/>
</linearGradient>
<linearGradient id="paint5_linear_1_3" x1="250.686" y1="442.619" x2="240.513" y2="404.324" gradientUnits="userSpaceOnUse">
<stop offset="0.6882" stop-color="#FABCA8"/>
<stop offset="1" stop-color="#F58F87"/>
</linearGradient>
<linearGradient id="paint6_linear_1_3" x1="212.701" y1="378.811" x2="226.98" y2="378.811" gradientUnits="userSpaceOnUse">
<stop offset="0.6882" stop-color="#FABCA8"/>
<stop offset="1" stop-color="#F58F87"/>
</linearGradient>
<linearGradient id="paint7_linear_1_3" x1="220.963" y1="376.818" x2="214.68" y2="336.129" gradientUnits="userSpaceOnUse">
<stop offset="0.6882" stop-color="#FABCA8"/>
<stop offset="1" stop-color="#F58F87"/>
</linearGradient>
<linearGradient id="paint8_linear_1_3" x1="205.233" y1="402.106" x2="258.216" y2="402.106" gradientUnits="userSpaceOnUse">
<stop offset="0.4048" stop-color="#FED776"/>
<stop offset="1" stop-color="#F58348"/>
</linearGradient>
<linearGradient id="paint9_linear_1_3" x1="157.013" y1="139.266" x2="136.968" y2="26.4741" gradientUnits="userSpaceOnUse">
<stop offset="0.4944" stop-color="#EB7F6C"/>
<stop offset="0.5582" stop-color="#DE6853"/>
<stop offset="0.6259" stop-color="#D55540"/>
<stop offset="0.6988" stop-color="#CF4434"/>
<stop offset="0.7785" stop-color="#CA392C"/>
<stop offset="0.87" stop-color="#C83129"/>
<stop offset="1" stop-color="#C72E28"/>
</linearGradient>
<linearGradient id="paint10_linear_1_3" x1="108.343" y1="330.611" x2="100.564" y2="225.299" gradientUnits="userSpaceOnUse">
<stop offset="0.501" stop-color="#EB7F6C"/>
<stop offset="0.564" stop-color="#DE6853"/>
<stop offset="0.6308" stop-color="#D55540"/>
<stop offset="0.7028" stop-color="#CF4434"/>
<stop offset="0.7814" stop-color="#CA392C"/>
<stop offset="0.8717" stop-color="#C83129"/>
<stop offset="1" stop-color="#C72E28"/>
</linearGradient>
<linearGradient id="paint11_linear_1_3" x1="189.976" y1="212.728" x2="264.473" y2="238.757" gradientUnits="userSpaceOnUse">
<stop offset="0.0314" stop-color="#C72E28"/>
<stop offset="0.3837" stop-color="#EB7F6C"/>
</linearGradient>
<linearGradient id="paint12_linear_1_3" x1="327.803" y1="294.324" x2="344.158" y2="238.875" gradientUnits="userSpaceOnUse">
<stop offset="0.733" stop-color="#FABCA8"/>
<stop offset="1" stop-color="#F58F87"/>
</linearGradient>
<linearGradient id="paint13_linear_1_3" x1="215.865" y1="312.981" x2="326.119" y2="312.981" gradientUnits="userSpaceOnUse">
<stop offset="0.733" stop-color="#FABCA8"/>
<stop offset="1" stop-color="#F58F87"/>
</linearGradient>
<linearGradient id="paint14_linear_1_3" x1="434.584" y1="408.923" x2="409.752" y2="432.558" gradientUnits="userSpaceOnUse">
<stop offset="0.733" stop-color="#FABCA8"/>
<stop offset="1" stop-color="#F58F87"/>
</linearGradient>
<linearGradient id="paint15_linear_1_3" x1="375.289" y1="438.778" x2="418.112" y2="438.778" gradientUnits="userSpaceOnUse">
<stop offset="0.733" stop-color="#FABCA8"/>
<stop offset="1" stop-color="#F58F87"/>
</linearGradient>
<linearGradient id="paint16_linear_1_3" x1="-16.444" y1="-122.641" x2="462.535" y2="540.168" gradientUnits="userSpaceOnUse">
<stop offset="0.4238" stop-color="#F5DB96"/>
<stop offset="1" stop-color="#F9A466"/>
</linearGradient>
<linearGradient id="paint17_linear_1_3" x1="-11.6951" y1="6.34729" x2="169.976" y2="227.128" gradientUnits="userSpaceOnUse">
<stop stop-color="#AEDFE6" stop-opacity="0.6"/>
<stop offset="1" stop-color="white" stop-opacity="0"/>
</linearGradient>
<linearGradient id="paint18_linear_1_3" x1="219.487" y1="449.335" x2="219.487" y2="397.238" gradientUnits="userSpaceOnUse">
<stop offset="0.6882" stop-color="#FABCA8"/>
<stop offset="1" stop-color="#F58F87"/>
</linearGradient>
<linearGradient id="paint19_linear_1_3" x1="251.539" y1="441.151" x2="238.735" y2="392.945" gradientUnits="userSpaceOnUse">
<stop offset="0.6882" stop-color="#FABCA8"/>
<stop offset="1" stop-color="#F58F87"/>
</linearGradient>
<linearGradient id="paint20_linear_1_3" x1="257.239" y1="305.601" x2="225.397" y2="245.408" gradientUnits="userSpaceOnUse">
<stop offset="0.6882" stop-color="#FABCA8"/>
<stop offset="1" stop-color="#F58F87"/>
</linearGradient>
<linearGradient id="paint21_linear_1_3" x1="211.742" y1="375.829" x2="225.676" y2="375.829" gradientUnits="userSpaceOnUse">
<stop offset="0.6882" stop-color="#FABCA8"/>
<stop offset="1" stop-color="#F58F87"/>
</linearGradient>
<linearGradient id="paint22_linear_1_3" x1="219.805" y1="373.885" x2="213.674" y2="334.18" gradientUnits="userSpaceOnUse">
<stop offset="0.6882" stop-color="#FABCA8"/>
<stop offset="1" stop-color="#F58F87"/>
</linearGradient>
<linearGradient id="paint23_linear_1_3" x1="158.354" y1="143.727" x2="138.794" y2="33.6637" gradientUnits="userSpaceOnUse">
<stop offset="0.4944" stop-color="#EB7F6C"/>
<stop offset="0.5582" stop-color="#DE6853"/>
<stop offset="0.6259" stop-color="#D55540"/>
<stop offset="0.6988" stop-color="#CF4434"/>
<stop offset="0.7785" stop-color="#CA392C"/>
<stop offset="0.87" stop-color="#C83129"/>
<stop offset="1" stop-color="#C72E28"/>
</linearGradient>
<linearGradient id="paint24_linear_1_3" x1="110.862" y1="330.443" x2="103.271" y2="227.678" gradientUnits="userSpaceOnUse">
<stop offset="0.501" stop-color="#EB7F6C"/>
<stop offset="0.564" stop-color="#DE6853"/>
<stop offset="0.6308" stop-color="#D55540"/>
<stop offset="0.7028" stop-color="#CF4434"/>
<stop offset="0.7814" stop-color="#CA392C"/>
<stop offset="0.8717" stop-color="#C83129"/>
<stop offset="1" stop-color="#C72E28"/>
</linearGradient>
<linearGradient id="paint25_linear_1_3" x1="190.521" y1="215.411" x2="263.215" y2="240.81" gradientUnits="userSpaceOnUse">
<stop offset="0.0314" stop-color="#C72E28"/>
<stop offset="0.3837" stop-color="#EB7F6C"/>
</linearGradient>
<linearGradient id="paint26_linear_1_3" x1="325.013" y1="295.033" x2="340.972" y2="240.926" gradientUnits="userSpaceOnUse">
<stop offset="0.733" stop-color="#FABCA8"/>
<stop offset="1" stop-color="#F58F87"/>
</linearGradient>
<linearGradient id="paint27_linear_1_3" x1="215.783" y1="313.239" x2="323.369" y2="313.239" gradientUnits="userSpaceOnUse">
<stop offset="0.733" stop-color="#FABCA8"/>
<stop offset="1" stop-color="#F58F87"/>
</linearGradient>
<linearGradient id="paint28_linear_1_3" x1="429.211" y1="406.859" x2="404.979" y2="429.923" gradientUnits="userSpaceOnUse">
<stop offset="0.733" stop-color="#FABCA8"/>
<stop offset="1" stop-color="#F58F87"/>
</linearGradient>
<linearGradient id="paint29_linear_1_3" x1="371.35" y1="435.993" x2="413.137" y2="435.993" gradientUnits="userSpaceOnUse">
<stop offset="0.733" stop-color="#FABCA8"/>
<stop offset="1" stop-color="#F58F87"/>
</linearGradient>
<clipPath id="clip0_1_3">
<rect width="500" height="500" rx="250" fill="white"/>
</clipPath>
<clipPath id="clip1_1_3">
<rect width="512.397" height="512.397" fill="white" transform="translate(-1.03296 -6.19836)"/>
</clipPath>
<clipPath id="clip2_1_3">
<rect x="5.16541" y="1.78162" width="500" height="500" rx="250" fill="white"/>
</clipPath>
<clipPath id="clip3_1_3">
<rect width="500" height="500" fill="white" transform="translate(4.13245 1.78162)"/>
</clipPath>
</defs>
</svg>
