<svg width="24" height="24" viewBox="0 0 24 24" fill="none" xmlns="http://www.w3.org/2000/svg">
<g clip-path="url(#clip0_3_19)">
<path opacity="0.991" fill-rule="evenodd" clip-rule="evenodd" d="M11.2388 1.98047C11.6424 1.98047 12.0461 1.98047 12.4497 1.98047C14.4144 2.32382 15.749 3.43059 16.4536 5.30078C17.0692 7.77844 16.3075 9.69899 14.1684 11.0625C12.7781 11.7419 11.3588 11.807 9.91063 11.2578C7.83227 10.2184 6.87524 8.53215 7.03954 6.19922C7.2927 4.56611 8.13255 3.33564 9.55907 2.50781C10.0927 2.23221 10.6525 2.05643 11.2388 1.98047Z" fill="white"/>
<path opacity="0.994" fill-rule="evenodd" clip-rule="evenodd" d="M17.3709 21.9805C13.7642 21.9805 10.1574 21.9805 6.55061 21.9805C5.30268 21.8201 4.41076 21.1691 3.87483 20.0273C3.75674 19.7382 3.67861 19.4387 3.64046 19.1289C3.53555 17.6251 3.70482 16.1538 4.14827 14.7148C4.43945 13.7995 4.94075 13.0248 5.65218 12.3906C6.45343 11.785 7.35186 11.5507 8.34749 11.6875C8.77729 11.9283 9.19397 12.1888 9.59749 12.4687C11.0872 13.3332 12.5976 13.3723 14.1287 12.5859C14.6039 12.2767 15.0857 11.9772 15.5741 11.6875C17.1758 11.5281 18.3932 12.1335 19.2264 13.5039C19.8514 14.6887 20.203 15.9517 20.2811 17.293C20.3373 17.9186 20.3373 18.5436 20.2811 19.168C19.9678 20.786 18.9978 21.7235 17.3709 21.9805Z" fill="white"/>
</g>
<defs>
<clipPath id="clip0_3_19">
<rect width="20" height="20" fill="white" transform="translate(2 2)"/>
</clipPath>
</defs>
</svg>
