<?xml version="1.0" encoding="UTF-8" standalone="no"?>
<svg width="390" height="844" viewBox="0 0 390 844" fill="none" xmlns="http://www.w3.org/2000/svg">
    <!-- Background -->
    <rect width="390" height="844" fill="#FFFFFF"/>
    
    <!-- Status Bar -->
    <rect width="390" height="44" fill="#F8F8F8"/>
    <text x="20" y="27" font-family="SF Pro Text" font-size="14" fill="#000000">9:41</text>
    
    <!-- Header -->
    <rect y="44" width="390" height="60" fill="#2196F3"/>
    <text x="20" y="82" font-family="SF Pro Display" font-size="24" fill="#FFFFFF">Rapports</text>
    
    <!-- Period Selection -->
    <rect x="16" y="120" width="358" height="60" rx="8" fill="#F5F5F5"/>
    <text x="32" y="156" font-family="SF Pro Text" font-size="16" fill="#333333">20 janvier 2025</text>
    
    <!-- Report Type Tabs -->
    <rect x="16" y="196" width="116" height="40" rx="20" fill="#2196F3"/>
    <text x="41" y="221" font-family="SF Pro Text" font-size="14" fill="#FFFFFF">Quotidien</text>
    
    <rect x="137" y="196" width="116" height="40" rx="20" fill="#E0E0E0"/>
    <text x="152" y="221" font-family="SF Pro Text" font-size="14" fill="#333333">Hebdo</text>
    
    <rect x="258" y="196" width="116" height="40" rx="20" fill="#E0E0E0"/>
    <text x="273" y="221" font-family="SF Pro Text" font-size="14" fill="#333333">Mensuel</text>
    
    <!-- Statistics -->
    <rect x="16" y="252" width="358" height="200" rx="8" fill="#F5F5F5"/>
    <text x="32" y="280" font-family="SF Pro Text" font-size="18" fill="#333333">Statistiques</text>
    
    <!-- Chart Placeholder -->
    <rect x="32" y="300" width="326" height="136" rx="4" fill="#FFFFFF"/>
    
    <!-- Download Button -->
    <rect x="16" y="740" width="358" height="50" rx="25" fill="#4CAF50"/>
    <text x="120" y="772" font-family="SF Pro Text" font-size="18" fill="#FFFFFF">Télécharger PDF</text>
</svg>
