<svg width="500" height="500" viewBox="0 0 500 500" fill="none" xmlns="http://www.w3.org/2000/svg">
<g clip-path="url(#clip0_1_3903)">
<rect width="500" height="500" rx="250" fill="white"/>
<path d="M142.592 332.806L142.356 333.042C139.166 326.073 137.158 318.158 136.331 309.417C137.158 318.04 139.403 325.837 142.592 332.806Z" fill="#DFDFDF"/>
<path d="M218.431 230.864C233.958 230.864 246.545 218.276 246.545 202.749C246.545 187.222 233.958 174.635 218.431 174.635C202.904 174.635 190.317 187.222 190.317 202.749C190.317 218.276 202.904 230.864 218.431 230.864Z" fill="#DFDFDF"/>
<path d="M303.365 131.872H204.374C161.376 131.872 135.742 157.506 135.742 200.504V299.495C135.742 312.37 137.987 323.593 142.357 333.043C152.516 355.487 174.252 368.126 204.374 368.126H303.365C346.363 368.126 371.996 342.493 371.996 299.495V272.443V200.504C371.996 157.506 346.363 131.872 303.365 131.872ZM352.742 255.906C343.528 247.991 328.644 247.991 319.43 255.906L270.289 298.077C261.075 305.992 246.191 305.992 236.977 298.077L232.961 294.77C224.574 287.446 211.225 286.737 201.775 293.116L157.596 322.766C154.997 316.151 153.461 308.472 153.461 299.495V200.504C153.461 167.192 171.062 149.591 204.374 149.591H303.365C336.676 149.591 354.277 167.192 354.277 200.504V257.205L352.742 255.906Z" fill="#DFDFDF"/>
<g clip-path="url(#clip1_1_3903)">
<path d="M527.066 -2.89331H-6.58118V528.098H527.066V-2.89331Z" fill="url(#paint0_linear_1_3903)"/>
<path d="M528.482 -4.1322H451.488V526.86H528.482V-4.1322Z" fill="#D3C0B6"/>
<path d="M209.157 -79.1791H-24.8916V249.285H209.157V-79.1791Z" fill="#9B8770"/>
<path d="M210.628 -74.7806H-16.1586V253.684H210.628V-74.7806Z" fill="#C5B69D"/>
<path d="M85.9016 -56.2419H0.613647V80.1787H85.9016V-56.2419Z" fill="#ADDEE5"/>
<path d="M85.9016 99.4678H0.613647V235.888H85.9016V99.4678Z" fill="#ADDEE5"/>
<path d="M194.826 100.326H109.538V236.747H194.826V100.326Z" fill="#ADDEE5"/>
<path d="M194.826 -56.2419H109.538V80.1787H194.826V-56.2419Z" fill="#ADDEE5"/>
<path d="M0.613647 230.15H79.365V99.4679H85.9016V235.887H0.613647V230.15Z" fill="#9B8770"/>
<path d="M0.613647 74.4404H79.365V-56.2419H85.9016V80.1769H0.613647V74.4404Z" fill="#9B8770"/>
<path d="M109.538 74.4404H188.291V-56.2419H194.827V80.1769H109.538V74.4404Z" fill="#9B8770"/>
<path d="M109.538 231.01H188.291V100.326H194.827V236.747H109.538V231.01Z" fill="#9B8770"/>
<path d="M513.437 398.536L446.178 371.81V74.1005L514.676 49.3209L513.437 398.536Z" fill="#FFC08C"/>
<path d="M502.488 382.784L446.178 358.834V92.057L503.525 69.8527L502.488 382.784Z" fill="#4D7132"/>
<path d="M151.017 321.442C162.037 320.913 172.255 314.778 172.255 314.778C197.12 296.646 212.43 269.332 212.43 269.332C221.752 264.762 223.979 254.903 223.979 254.903C225.852 249.427 225.634 246.908 224.797 245.811C223.855 244.574 221.747 245.183 221.43 246.76C220.837 249.717 219.4 250.824 218.112 252.296C217.265 253.263 215.45 254.611 214.733 253.641C213.846 252.439 213.163 251 213.163 251C210.513 241.625 214.276 228.741 214.276 228.741C216.584 223.467 214.12 219.576 212.888 221.169C211.656 222.766 208.994 229.021 208.994 229.021C209.262 224.929 206.585 225.58 206.585 225.58C206.585 225.58 200.483 234.003 202.189 245.013C203.895 256.022 202.32 264.206 202.32 264.206C196.16 279.256 166.565 301.432 166.565 301.432C164.464 302.903 150.607 306.132 150.607 306.132L151.017 321.442Z" fill="url(#paint1_linear_1_3903)"/>
<path d="M304.058 314.029C304.058 314.029 310.909 338.841 304.697 354.696C304.697 354.696 304.199 355.94 302.527 356.121C300.852 356.301 303.261 344.676 302.291 341.14C302.291 341.14 299.783 356.165 297.845 358.822C297.845 358.822 296.376 360.748 293.987 360.365C291.755 360.008 290.257 357.838 290.56 355.569C291.082 351.657 291.957 344.004 291.449 339.766C291.449 339.766 288.958 355.873 288.043 355.887C288.043 355.887 286.234 357.151 285.291 355.312C284.347 353.473 286.54 337.835 287.664 331.793C287.664 331.793 285.197 333.979 283.392 335.448C283.392 335.448 278 338.248 278.645 333.913L283.59 327.943L288.926 321.576L289.332 314.543C289.332 314.539 298.544 311.751 304.058 314.029Z" fill="url(#paint2_linear_1_3903)"/>
<path d="M294.403 358.194C294.403 358.194 297.721 344.869 297.581 338.446L294.403 358.194Z" fill="url(#paint3_linear_1_3903)"/>
<path d="M303.298 499.057L334.144 501.611L334.16 501.613L337.503 501.891C337.503 501.891 353.079 471.859 357.722 384.899C358.318 373.722 359.054 326.215 359.233 313.1L349.086 317.58L289.544 316.596C289.544 316.594 282.666 443.935 303.298 499.057Z" fill="#444444"/>
<path d="M308.279 211.199C308.279 211.199 285.709 232.173 282.174 288.232C282.174 288.232 280.154 310.958 285.457 320.049H289.406L308.279 211.199Z" fill="#D7D7D7"/>
<path d="M310.828 211.199C310.828 211.199 288.257 232.173 284.723 288.232C284.723 288.232 282.703 310.958 288.006 320.049H291.955L310.828 211.199Z" fill="#AAAAAA"/>
<path d="M287.774 312.443C287.774 317.355 289.494 318.143 289.494 318.143C315.433 329.147 359.233 321.815 359.233 321.815C379.896 319.541 373.834 273.987 373.834 273.987C377.875 277.017 381.496 280.906 395.298 275.856C398.314 274.755 401.355 271.359 404.249 266.645C414.61 249.776 423.096 216.022 421.814 209.953C419.694 199.947 400.847 200.521 400.847 200.521C400.847 200.521 386.124 228.72 381.409 230.405C377.552 231.784 368.846 222.384 365.131 217.93C364.534 217.212 364.069 216.401 363.647 215.567C361.812 211.921 346.636 205.825 346.636 205.825C346.633 205.818 338.468 198.158 338.468 198.158L317.998 200.443C286.149 225.023 287.774 312.443 287.774 312.443Z" fill="#D7D7D7"/>
<path d="M278.391 142.657C278.391 142.657 279.294 150.241 284.592 150.356L285.025 147.08C309.391 158.967 329.975 147.08 329.975 147.08L334.839 169.63L350.974 170.084C350.974 170.084 365.77 169.837 365.001 149.36C364.832 144.815 363.063 140.441 359.89 137.186C358.102 135.351 355.824 133.761 353.116 133.373C353.116 133.373 348.778 125.552 338.709 119.566C338.705 119.564 338.703 119.562 338.701 119.561C338.7 119.559 338.7 119.559 338.7 119.559C331.563 115.318 321.549 111.997 308.164 113.036C308.162 113.033 277.064 113.769 278.391 142.657Z" fill="#231F20"/>
<path d="M285.024 147.078C285.024 147.078 277.949 190.409 298.583 196.305C298.583 196.305 307.132 199.105 316.269 196.305C316.269 196.305 319.365 201.463 317.89 204.411L314.058 207.211L319.511 215.76L326.29 208.539C326.29 208.539 336.018 207.213 339.112 200.579C339.112 200.579 335.576 189.526 338.08 180.241C338.08 180.241 350.312 182.451 351.344 167.123C351.344 167.123 351.934 155.627 339.406 156.364C339.406 156.364 338.963 167.417 334.838 169.628L329.974 147.078C329.976 147.078 309.49 158.132 285.024 147.078Z" fill="url(#paint4_linear_1_3903)"/>
<path d="M326.29 208.537C326.29 208.537 331.99 223.915 331.597 229.219C331.597 229.219 342.404 220.769 346.629 203.378L338.466 198.154L339.112 200.578C339.114 200.579 337.296 206.523 326.29 208.537Z" fill="white"/>
<path d="M314.058 207.211L308.867 223.948L308.081 206.918L317.998 200.443C317.998 200.443 318.791 203.217 317.89 204.413L314.058 207.211Z" fill="white"/>
<path d="M329.418 225.906C329.418 225.906 315.713 235.6 309.27 223.293L312.996 211.282L318.449 219.831L325.228 212.61C325.228 212.608 329.432 224.761 329.418 225.906Z" fill="#D7D7D7"/>
<path d="M317.154 500.767C314.017 494.981 313.202 346.786 313.202 346.786L313.035 500.427L317.154 500.767Z" fill="#353535"/>
<path d="M307.228 499.945L295.047 513.179C295.047 513.179 268.398 506.618 269.283 527.762H317.156L316.768 500.774" fill="#231F20"/>
<path d="M299.058 162.833C298.921 162.514 298.49 162.47 298.298 162.759C297.121 164.534 293.944 169.594 294.305 172.001C294.652 174.32 298.282 173.994 299.817 173.75C300.215 173.686 300.511 173.35 300.521 172.947C300.566 171.175 300.534 166.306 299.058 162.833Z" fill="#F48E86"/>
<path d="M310.886 168.688C311.871 168.688 312.669 167.166 312.669 165.29C312.669 163.413 311.871 161.891 310.886 161.891C309.902 161.891 309.104 163.413 309.104 165.29C309.104 167.166 309.902 168.688 310.886 168.688Z" fill="#231F20"/>
<path d="M290.926 168.608C291.911 168.608 292.709 167.087 292.709 165.21C292.709 163.333 291.911 161.812 290.926 161.812C289.942 161.812 289.144 163.333 289.144 165.21C289.144 167.087 289.942 168.608 290.926 168.608Z" fill="#231F20"/>
<path d="M318.582 156.314L304.707 155.571C304.707 155.571 304.399 154.316 305.601 153.42C305.601 153.42 309.1 152.222 315.632 153.321C322.161 154.42 318.582 156.314 318.582 156.314Z" fill="#231F20"/>
<path d="M281.646 155.831L295.541 155.659C295.541 155.659 295.9 154.418 294.735 153.473C294.735 153.473 291.289 152.132 284.717 152.96C278.145 153.788 281.646 155.831 281.646 155.831Z" fill="#231F20"/>
<path d="M316.269 196.305C316.269 196.305 325.832 193.751 329.96 185.235C329.96 185.235 329.271 197.976 317.89 204.411C317.89 204.411 318.626 200.76 316.269 196.305Z" fill="#F48E86"/>
<path d="M351.351 136.565C351.351 136.565 360.486 138.726 361.074 147.962C361.074 147.962 364.063 164.495 350.974 170.083C350.974 170.083 365.77 169.835 365.001 149.358C364.832 144.813 363.063 140.439 359.89 137.184C358.102 135.349 355.824 133.759 353.116 133.372C353.116 133.372 348.778 125.55 338.708 119.564C339.098 119.915 351.84 131.34 351.351 136.565Z" fill="#3A3A3A"/>
<path d="M334.144 502.174L334.16 502.176L337.503 502.453C337.503 502.453 353.079 472.422 357.722 385.462L356.277 373.553C356.277 373.552 345.238 481.148 334.144 502.174Z" fill="#353535"/>
<path d="M354.851 247.577C357.835 260.709 373.834 273.987 373.834 273.987C377.875 277.017 381.496 280.906 395.298 275.856C398.314 274.755 401.355 271.359 404.249 266.645C378.859 284.2 354.851 247.577 354.851 247.577Z" fill="#AAAAAA"/>
<path d="M322.356 215.759H316.269L319.313 220.456L322.356 215.759Z" fill="#AAAAAA"/>
<path d="M319.313 220.456L323.115 298.23L313.033 310.351L302.042 296.671L319.313 220.456Z" fill="#BC4040"/>
<path d="M404.249 200.615C404.249 200.615 421.752 165.077 433.965 163.484L447.898 161.847C447.898 161.847 450.603 167.378 441.576 167.732C432.781 168.077 432.549 171.449 432.549 171.449C432.549 171.449 441.271 177.603 434.432 185.235C427.593 192.866 422.637 190.742 422.637 190.742L419.249 205.516L404.249 200.615Z" fill="url(#paint5_linear_1_3903)"/>
<path d="M315.803 184.913C314.871 189.236 308.67 191.213 302.76 189.483C300.398 188.793 299.33 188.251 297.937 186.441C297.937 186.441 296.654 184.336 296.583 184.175C296.006 182.864 296.256 182.566 297.622 182.09C301.219 180.837 311.322 177.329 313.104 177.472C314.842 177.61 316.359 178.421 316.232 181.837C316.2 182.688 316.064 183.703 315.803 184.913Z" fill="#231F20"/>
<path d="M315.8 184.881C314.89 189.207 308.771 191.591 302.32 189.349C303.375 183.605 313.644 181.998 316.212 181.803C316.184 182.655 316.053 183.671 315.8 184.881Z" fill="#B62325"/>
<path d="M263.871 387.917H154.309V526.86H263.871V387.917Z" fill="#5E5148"/>
<path d="M269.18 379.067H146.521V388.625H269.18V379.067Z" fill="#756356"/>
<path d="M150.592 444.025H48.1108V453.583H150.592V444.025Z" fill="#756356"/>
<path d="M64.5715 372.695L64.5715 278.532H48.1108L48.1108 372.695H64.5715Z" fill="#756356"/>
<path d="M61.7396 444.025L61.7396 371.987H52.3588L52.3588 444.025H61.7396Z" fill="#5E5148"/>
<path d="M61.7396 526.86L61.7396 453.583H52.3588L52.3588 526.86H61.7396Z" fill="#5E5148"/>
<path d="M149.884 526.86V453.583H140.503V526.86H149.884Z" fill="#5E5148"/>
<path d="M154.177 402.914L150.254 436.945L150.24 437.056L149.821 440.687L149.608 442.535L149.295 445.237C149.295 445.237 149.003 445.175 148.415 445.051C145.008 444.322 128.857 446.657 105.272 440.85C93.6877 437.998 85.9777 438.074 81.9156 429.093C81.3457 427.833 80.8554 426.461 80.4377 425.005C75.8393 409.001 79.8642 382.851 79.8642 382.851L154.177 402.914Z" fill="#CEAA86"/>
<path d="M149.821 440.687L149.608 442.535L149.295 445.237C149.295 445.237 149.003 445.175 148.415 445.051C145.008 444.322 128.857 446.657 105.272 440.85C93.6876 437.998 85.9776 438.074 81.9155 429.093C81.3456 427.833 80.8553 426.461 80.4376 425.005L149.821 440.687Z" fill="#A38C78"/>
<path d="M131.275 306.091L131.268 306.086L114.437 302.464C90.8681 309.133 82.4253 348.032 82.4253 348.032L78.9349 385.515C85.8113 396.372 105.269 400.876 105.269 400.876C139.105 410.829 138.813 398.682 138.813 398.682C140.224 391.628 137.597 376.47 137.597 376.47C137.056 366.518 141.036 353.491 141.036 353.491C141.036 353.491 141.05 353.526 141.054 353.51C147.291 325.47 131.275 306.091 131.275 306.091Z" fill="#145677"/>
<path d="M110.722 305.659C115.11 318.962 135.694 325.023 134.296 316.068C132.896 307.114 127.937 305.604 127.937 305.604C126.765 303.636 128.087 296.124 128.087 296.124C128.087 296.124 139.826 301.526 154.697 297.537C169.568 293.549 169.651 276.12 169.651 276.12C171.889 276.186 172.892 275.412 172.892 275.412C175.896 271.274 170.379 266.283 170.26 266.173C170.258 266.171 170.258 266.171 170.258 266.171C170.981 256.753 165.356 243.721 165.356 243.721C154.355 219.638 119.69 242.395 119.69 242.395L119.485 260.962C114.149 256.969 110.21 258.408 107.702 260.608C105.446 262.59 104.161 265.44 103.982 268.438C103.29 280.09 112.441 282.131 112.441 282.131C118.101 295.342 110.722 305.659 110.722 305.659Z" fill="url(#paint6_linear_1_3903)"/>
<path d="M90.0805 272.199C90.0805 272.199 100.545 289.175 114.239 288.239C114.239 288.239 114.234 288.214 114.226 288.168C114.152 287.724 113.788 285.18 114.262 281.587C114.262 281.587 103.545 280.297 103.998 268.166C103.998 268.166 104 268.148 104.003 268.114C104.049 267.7 104.414 264.836 106.129 262.335C106.15 262.305 106.168 262.275 106.191 262.247C106.922 261.203 107.892 260.227 109.177 259.528C109.182 259.523 109.191 259.519 109.2 259.516C110.361 258.888 111.78 258.484 113.511 258.459C113.511 258.459 113.513 258.459 113.518 258.459C113.559 258.459 113.77 258.463 114.133 258.523C114.143 258.525 114.157 258.526 114.17 258.53C115.103 258.691 116.982 259.22 119.48 260.962C119.48 260.962 123.133 264.978 122.055 268.794C122.241 268.605 134.078 256.491 133.369 242.864L135.53 251.346C135.53 251.346 150.775 241.588 154.715 233.692C154.715 233.692 156.824 233.993 159.488 236.165C161.612 237.89 164.085 240.795 166.129 245.673C166.747 247.149 167.326 248.802 167.844 250.661C167.851 250.687 167.86 250.717 167.867 250.744C167.867 250.744 167.867 250.744 167.869 250.742C167.973 250.666 173.333 246.761 174.56 240.676C175.774 234.65 172.933 226.481 156.908 217.783C156.908 217.783 141.712 211.62 123.899 214.21C123.898 214.208 123.894 214.21 123.892 214.21C113.538 215.714 102.299 220.178 92.6434 230.522C92.647 230.522 76.4659 248.873 90.0805 272.199Z" fill="#010101"/>
<path d="M163.73 259.156C164.614 258.987 165.045 257.358 164.693 255.518C164.341 253.677 163.34 252.322 162.457 252.491C161.573 252.659 161.142 254.288 161.494 256.129C161.846 257.969 162.847 259.325 163.73 259.156Z" fill="#231F20"/>
<path d="M156.639 239.651C156.639 239.651 161.786 241.167 161.428 246.107C161.071 251.047 141.381 257.569 141.381 257.569C141.381 257.569 135.411 252.482 156.639 239.651Z" fill="#010101"/>
<path d="M147.252 286.29C147.967 289.609 152.729 291.128 157.267 289.798C159.081 289.267 159.901 288.853 160.97 287.462C160.97 287.462 161.955 285.846 162.01 285.722C162.455 284.715 162.262 284.487 161.214 284.122C158.453 283.161 150.695 280.467 149.327 280.577C147.992 280.683 146.828 281.306 146.925 283.929C146.948 284.582 147.052 285.361 147.252 286.29Z" fill="#231F20"/>
<path d="M147.254 286.265C147.953 289.588 152.651 291.418 157.605 289.696C156.794 285.285 148.909 284.051 146.937 283.902C146.958 284.557 147.059 285.336 147.254 286.265Z" fill="#B62325"/>
<path d="M169.651 276.12C171.889 276.186 172.892 275.412 172.892 275.412C175.896 271.274 170.379 266.283 170.26 266.173C170.259 266.171 170.259 266.171 170.259 266.171C170.259 266.171 165.881 266.479 165.136 271.55C164.389 276.621 169.651 276.12 169.651 276.12Z" fill="#EE8780"/>
<path opacity="0.46" d="M168.614 268.182C170.688 268.038 172.012 262.736 171.57 256.337C171.128 249.939 169.088 244.869 167.014 245.012C164.94 245.155 163.616 250.458 164.058 256.856C164.5 263.254 166.54 268.325 168.614 268.182Z" fill="#62C7D1"/>
<path d="M168.614 268.182C170.688 268.038 172.012 262.736 171.57 256.337C171.128 249.939 169.088 244.869 167.014 245.012C164.94 245.155 163.616 250.458 164.058 256.856C164.5 263.254 166.54 268.325 168.614 268.182Z" stroke="#9C7A2C" stroke-width="0.5" stroke-miterlimit="10"/>
<path d="M164.021 255.896L120.843 263.066" stroke="#9C7A2C" stroke-width="0.5" stroke-miterlimit="10"/>
<path d="M128.087 296.124C128.087 296.124 122.367 293.669 119.873 291.158C119.873 291.158 123.034 300.271 127.508 303.93C127.508 303.93 127.37 298.781 128.087 296.124Z" fill="#EE8780"/>
<path d="M123.901 214.21C159.09 211.72 174.559 240.685 174.559 240.685C174.561 240.683 174.561 240.68 174.563 240.676C175.777 234.65 172.936 226.481 156.911 217.783C156.911 217.783 141.714 211.62 123.901 214.21Z" fill="#3A3A3A"/>
<path d="M110.945 338.887C110.945 338.887 95.3691 333.579 103.865 322.428C104.081 322.145 110.271 315.051 129.707 309.684C142.259 306.218 150.991 305.829 150.991 305.829L152.429 334.941C152.431 334.941 133.282 346.345 110.945 338.887Z" fill="white"/>
<path d="M153.863 402.287L154.646 402.815V512.169L149.316 442.414L153.863 402.287Z" fill="url(#paint7_linear_1_3903)"/>
</g>
</g>
<defs>
<linearGradient id="paint0_linear_1_3903" x1="271.618" y1="512.877" x2="246.668" y2="-36.0396" gradientUnits="userSpaceOnUse">
<stop stop-color="#F2F2F2"/>
<stop offset="1" stop-color="#FFDE94"/>
</linearGradient>
<linearGradient id="paint1_linear_1_3903" x1="240.236" y1="208.984" x2="155.745" y2="329.543" gradientUnits="userSpaceOnUse">
<stop offset="0.6129" stop-color="#F8BBA8"/>
<stop offset="1" stop-color="#EF8981"/>
</linearGradient>
<linearGradient id="paint2_linear_1_3903" x1="289.509" y1="374.923" x2="299.154" y2="271.332" gradientUnits="userSpaceOnUse">
<stop offset="0.6882" stop-color="#F9BBA7"/>
<stop offset="1" stop-color="#F48E86"/>
</linearGradient>
<linearGradient id="paint3_linear_1_3903" x1="297.586" y1="348.319" x2="294.402" y2="348.319" gradientUnits="userSpaceOnUse">
<stop offset="0.6882" stop-color="#F9BBA7"/>
<stop offset="1" stop-color="#F48E86"/>
</linearGradient>
<linearGradient id="paint4_linear_1_3903" x1="318.259" y1="207.931" x2="317.249" y2="142.531" gradientUnits="userSpaceOnUse">
<stop offset="0.6882" stop-color="#F9BBA7"/>
<stop offset="1" stop-color="#F48E86"/>
</linearGradient>
<linearGradient id="paint5_linear_1_3903" x1="440.835" y1="159.596" x2="413.178" y2="200.946" gradientUnits="userSpaceOnUse">
<stop offset="0.6882" stop-color="#F9BBA7"/>
<stop offset="1" stop-color="#F48E86"/>
</linearGradient>
<linearGradient id="paint6_linear_1_3903" x1="155.911" y1="313.644" x2="122.69" y2="241.256" gradientUnits="userSpaceOnUse">
<stop offset="0.6129" stop-color="#F8BBA7"/>
<stop offset="0.9088" stop-color="#EE8780"/>
</linearGradient>
<linearGradient id="paint7_linear_1_3903" x1="149.317" y1="457.228" x2="154.646" y2="457.228" gradientUnits="userSpaceOnUse">
<stop offset="0.6129" stop-color="#F8BBA7"/>
<stop offset="0.9088" stop-color="#EE8780"/>
</linearGradient>
<clipPath id="clip0_1_3903">
<rect width="500" height="500" rx="250" fill="white"/>
</clipPath>
<clipPath id="clip1_1_3903">
<rect width="530.992" height="530.992" fill="white" transform="translate(-5.16528 -4.1322)"/>
</clipPath>
</defs>
</svg>
