<svg width="500" height="500" viewBox="0 0 500 500" fill="none" xmlns="http://www.w3.org/2000/svg">
<g clip-path="url(#clip0_1_6756)">
<rect width="500" height="500" rx="250" fill="white"/>
<path d="M142.588 332.806L142.352 333.042C139.162 326.073 137.154 318.158 136.327 309.417C137.154 318.04 139.399 325.837 142.588 332.806Z" fill="#DFDFDF"/>
<path d="M218.423 230.864C233.95 230.864 246.537 218.276 246.537 202.749C246.537 187.222 233.95 174.635 218.423 174.635C202.896 174.635 190.309 187.222 190.309 202.749C190.309 218.276 202.896 230.864 218.423 230.864Z" fill="#DFDFDF"/>
<path d="M303.357 131.876H204.366C161.368 131.876 135.734 157.51 135.734 200.508V299.499C135.734 312.375 137.978 323.597 142.349 333.047C152.508 355.491 174.244 368.131 204.366 368.131H303.357C346.355 368.131 371.988 342.497 371.988 299.499V272.448V200.508C371.988 157.51 346.355 131.876 303.357 131.876ZM352.734 255.91C343.52 247.995 328.636 247.995 319.422 255.91L270.281 298.081C261.067 305.996 246.183 305.996 236.969 298.081L232.953 294.774C224.566 287.45 211.217 286.741 201.767 293.12L157.588 322.77C154.989 316.155 153.453 308.476 153.453 299.499V200.508C153.453 167.196 171.054 149.595 204.366 149.595H303.357C336.668 149.595 354.269 167.196 354.269 200.508V257.209L352.734 255.91Z" fill="#DFDFDF"/>
<g clip-path="url(#clip1_1_6756)">
<path d="M516.735 -4.95923H-14.2569V526.033H516.735V-4.95923Z" fill="url(#paint0_linear_1_6756)"/>
<path d="M518.151 -6.19824H441.157V524.794H518.151V-6.19824Z" fill="#D3C0B6"/>
<path d="M198.827 -81.2451H-35.2222V247.219H198.827V-81.2451Z" fill="#9B8770"/>
<path d="M200.297 -76.8467H-26.4891V251.618H200.297V-76.8467Z" fill="#C5B69D"/>
<path d="M75.571 -58.3081H-9.71686V78.1125H75.571V-58.3081Z" fill="#ADDEE5"/>
<path d="M75.571 97.4019H-9.71686V233.822H75.571V97.4019Z" fill="#ADDEE5"/>
<path d="M184.495 98.2603H99.2073V234.681H184.495V98.2603Z" fill="#ADDEE5"/>
<path d="M184.495 -58.3081H99.2073V78.1125H184.495V-58.3081Z" fill="#ADDEE5"/>
<path d="M-9.71686 228.084H69.0345V97.4016H75.571V233.82H-9.71686V228.084Z" fill="#9B8770"/>
<path d="M-9.71686 72.3743H69.0345V-58.3081H75.571V78.1107H-9.71686V72.3743Z" fill="#9B8770"/>
<path d="M99.2073 72.3743H177.96V-58.3081H184.497V78.1107H99.2073V72.3743Z" fill="#9B8770"/>
<path d="M99.2073 228.944H177.96V98.26H184.497V234.681H99.2073V228.944Z" fill="#9B8770"/>
<path d="M503.106 396.47L435.847 369.744V72.0345L504.345 47.2549L503.106 396.47Z" fill="#FFC08C"/>
<path d="M492.157 380.718L435.847 356.768V89.9909L493.194 67.7866L492.157 380.718Z" fill="#4D7132"/>
<path d="M293.727 311.963C293.727 311.963 300.579 336.775 294.366 352.63C294.366 352.63 293.869 353.874 292.196 354.055C290.522 354.235 292.931 342.61 291.961 339.074C291.961 339.074 289.453 354.099 287.515 356.756C287.515 356.756 286.046 358.682 283.656 358.299C281.424 357.942 279.927 355.772 280.229 353.503C280.752 349.591 281.626 341.938 281.118 337.7C281.118 337.7 278.628 353.807 277.712 353.821C277.712 353.821 275.904 355.085 274.96 353.246C274.017 351.407 276.21 335.769 277.334 329.727C277.334 329.727 274.866 331.912 273.061 333.382C273.061 333.382 267.67 336.182 268.314 331.847L273.259 325.877L278.596 319.51L279.001 312.476C279.001 312.473 288.214 309.685 293.727 311.963Z" fill="url(#paint1_linear_1_6756)"/>
<path d="M284.072 356.127C284.072 356.127 287.391 342.803 287.251 336.38L284.072 356.127Z" fill="url(#paint2_linear_1_6756)"/>
<path d="M292.968 496.991L323.813 499.545L323.829 499.547L327.173 499.824C327.173 499.824 342.748 469.793 347.391 382.833C347.987 371.655 348.724 324.149 348.903 311.034L338.755 315.514L279.213 314.53C279.213 314.528 272.335 441.869 292.968 496.991Z" fill="#444444"/>
<path d="M297.949 209.133C297.949 209.133 275.378 230.107 271.843 286.166C271.843 286.166 269.824 308.892 275.127 317.983H279.075L297.949 209.133Z" fill="#D7D7D7"/>
<path d="M300.497 209.133C300.497 209.133 277.927 230.107 274.392 286.166C274.392 286.166 272.372 308.892 277.675 317.983H281.624L300.497 209.133Z" fill="#AAAAAA"/>
<path d="M277.443 310.377C277.443 315.289 279.164 316.076 279.164 316.076C305.103 327.08 348.903 319.749 348.903 319.749C369.565 317.475 363.503 271.921 363.503 271.921C367.544 274.951 371.165 278.84 384.968 273.79C387.984 272.689 391.024 269.293 393.918 264.579C404.28 247.709 412.765 213.956 411.483 207.887C409.363 197.881 390.516 198.455 390.516 198.455C390.516 198.455 375.794 226.654 371.079 228.339C367.222 229.718 358.515 220.317 354.8 215.864C354.204 215.146 353.738 214.335 353.317 213.501C351.481 209.855 336.306 203.759 336.306 203.759C336.302 203.752 328.137 196.092 328.137 196.092L307.668 198.377C275.819 222.956 277.443 310.377 277.443 310.377Z" fill="#D7D7D7"/>
<path d="M268.061 140.591C268.061 140.591 268.964 148.175 274.261 148.29L274.695 145.014C299.06 156.901 319.645 145.014 319.645 145.014L324.509 167.563L340.644 168.018C340.644 168.018 355.439 167.771 354.671 147.294C354.501 142.748 352.733 138.375 349.559 135.12C347.772 133.284 345.494 131.695 342.786 131.307C342.786 131.307 338.447 123.486 328.378 117.5C328.374 117.498 328.373 117.496 328.371 117.494C328.369 117.493 328.369 117.493 328.369 117.493C321.233 113.252 311.218 109.931 297.834 110.97C297.832 110.967 266.733 111.703 268.061 140.591Z" fill="#231F20"/>
<path d="M274.693 145.012C274.693 145.012 267.618 188.343 288.253 194.239C288.253 194.239 296.802 197.039 305.938 194.239C305.938 194.239 309.034 199.396 307.56 202.345L303.728 205.145L309.181 213.694L315.96 206.473C315.96 206.473 325.688 205.147 328.782 198.513C328.782 198.513 325.245 187.46 327.75 178.174C327.75 178.174 339.982 180.385 341.014 165.057C341.014 165.057 341.603 153.561 329.075 154.297C329.075 154.297 328.633 165.351 324.507 167.562L319.643 145.012C319.645 145.012 299.159 156.066 274.693 145.012Z" fill="url(#paint3_linear_1_6756)"/>
<path d="M315.96 206.471C315.96 206.471 321.659 221.849 321.266 227.153C321.266 227.153 332.074 218.703 336.299 201.312L328.135 196.088L328.782 198.511C328.783 198.513 326.966 204.457 315.96 206.471Z" fill="white"/>
<path d="M303.728 205.145L298.536 221.882L297.75 204.852L307.668 198.377C307.668 198.377 308.46 201.15 307.56 202.347L303.728 205.145Z" fill="white"/>
<path d="M319.087 223.84C319.087 223.84 305.382 233.534 298.94 221.227L302.666 209.216L308.119 217.765L314.898 210.544C314.898 210.542 319.102 222.694 319.087 223.84Z" fill="#D7D7D7"/>
<path d="M306.823 498.701C303.687 492.914 302.871 344.72 302.871 344.72L302.704 498.361L306.823 498.701Z" fill="#353535"/>
<path d="M323.813 500.108C323.813 500.108 328.734 509.639 329.127 512.782C329.127 512.782 349.368 506.97 353.494 525.696H309.278V498.904L323.813 500.108Z" fill="#231F20"/>
<path d="M296.897 497.879L284.716 511.113C284.716 511.113 258.068 504.552 258.953 525.696H306.825L306.437 498.708" fill="#231F20"/>
<path d="M288.727 160.767C288.591 160.448 288.159 160.404 287.968 160.692C286.791 162.468 283.614 167.528 283.975 169.935C284.322 172.254 287.952 171.928 289.486 171.684C289.885 171.62 290.18 171.284 290.191 170.88C290.235 169.109 290.203 164.239 288.727 160.767Z" fill="#F48E86"/>
<path d="M300.556 166.622C301.54 166.622 302.338 165.1 302.338 163.224C302.338 161.347 301.54 159.825 300.556 159.825C299.571 159.825 298.773 161.347 298.773 163.224C298.773 165.1 299.571 166.622 300.556 166.622Z" fill="#231F20"/>
<path d="M280.596 166.542C281.58 166.542 282.378 165.021 282.378 163.144C282.378 161.267 281.58 159.745 280.596 159.745C279.611 159.745 278.813 161.267 278.813 163.144C278.813 165.021 279.611 166.542 280.596 166.542Z" fill="#231F20"/>
<path d="M308.252 154.248L294.377 153.504C294.377 153.504 294.069 152.25 295.271 151.354C295.271 151.354 298.77 150.156 305.301 151.255C311.83 152.354 308.252 154.248 308.252 154.248Z" fill="#231F20"/>
<path d="M271.316 153.765L285.21 153.593C285.21 153.593 285.569 152.352 284.405 151.407C284.405 151.407 280.959 150.065 274.387 150.894C267.815 151.722 271.316 153.765 271.316 153.765Z" fill="#231F20"/>
<path d="M305.938 194.239C305.938 194.239 315.501 191.685 319.629 183.169C319.629 183.169 318.94 195.909 307.56 202.345C307.56 202.345 308.296 198.694 305.938 194.239Z" fill="#F48E86"/>
<path d="M341.021 134.499C341.021 134.499 350.156 136.66 350.743 145.895C350.743 145.895 353.733 162.429 340.644 168.017C340.644 168.017 355.439 167.769 354.671 147.292C354.501 142.747 352.733 138.373 349.559 135.118C347.772 133.283 345.494 131.693 342.786 131.306C342.786 131.306 338.447 123.484 328.378 117.498C328.767 117.849 341.509 129.274 341.021 134.499Z" fill="#3A3A3A"/>
<path d="M323.813 500.108L323.829 500.109L327.173 500.387C327.173 500.387 342.748 470.356 347.391 383.396L345.947 371.487C345.947 371.486 334.907 479.082 323.813 500.108Z" fill="#353535"/>
<path d="M344.52 245.511C347.504 258.643 363.503 271.921 363.503 271.921C367.544 274.951 371.165 278.84 384.968 273.79C387.984 272.689 391.024 269.293 393.918 264.579C368.528 282.134 344.52 245.511 344.52 245.511Z" fill="#AAAAAA"/>
<path d="M312.025 213.692H305.938L308.983 218.39L312.025 213.692Z" fill="#AAAAAA"/>
<path d="M308.983 218.39L312.784 296.164L302.703 308.285L291.711 294.605L308.983 218.39Z" fill="#BC4040"/>
<path d="M393.918 198.548C393.918 198.548 411.422 163.011 423.634 161.418L437.568 159.781C437.568 159.781 440.272 165.312 431.245 165.666C422.45 166.011 422.218 169.383 422.218 169.383C422.218 169.383 430.941 175.537 424.102 183.169C417.262 190.8 412.306 188.676 412.306 188.676L408.919 203.45L393.918 198.548Z" fill="url(#paint4_linear_1_6756)"/>
<path d="M305.473 182.847C304.54 187.169 298.34 189.146 292.43 187.417C290.067 186.727 289 186.185 287.607 184.375C287.607 184.375 286.323 182.27 286.253 182.109C285.676 180.797 285.925 180.5 287.292 180.024C290.888 178.771 300.991 175.263 302.774 175.406C304.512 175.544 306.028 176.355 305.901 179.771C305.869 180.622 305.733 181.636 305.473 182.847Z" fill="#231F20"/>
<path d="M305.469 182.815C304.559 187.141 298.441 189.525 291.989 187.283C293.044 181.539 303.313 179.932 305.882 179.737C305.853 180.589 305.722 181.605 305.469 182.815Z" fill="#B62325"/>
<path d="M253.54 385.851H143.979V524.793H253.54V385.851Z" fill="#5E5148"/>
<path d="M258.85 377.001H136.191V386.559H258.85V377.001Z" fill="#756356"/>
<path d="M140.262 441.959H37.7803V451.517H140.262V441.959Z" fill="#756356"/>
<path d="M54.2411 370.629L54.2411 276.466H37.7803L37.7803 370.629H54.2411Z" fill="#756356"/>
<path d="M51.4091 441.959L51.4091 369.921H42.0283L42.0283 441.959H51.4091Z" fill="#5E5148"/>
<path d="M51.4091 524.793L51.4091 451.517H42.0283L42.0283 524.793H51.4091Z" fill="#5E5148"/>
<path d="M139.554 524.793V451.517H130.173V524.793H139.554Z" fill="#5E5148"/>
<path d="M143.846 400.848L139.924 434.879L139.91 434.991L139.49 438.621L139.278 440.469L138.964 443.171C138.964 443.171 138.672 443.109 138.085 442.986C134.677 442.256 118.526 444.591 94.9416 438.784C83.3571 435.932 75.6471 436.008 71.585 427.027C71.0151 425.767 70.5248 424.396 70.1071 422.939C65.5087 406.935 69.5336 380.785 69.5336 380.785L143.846 400.848Z" fill="#CEAA86"/>
<path d="M139.49 438.621L139.278 440.469L138.964 443.171C138.964 443.171 138.672 443.109 138.085 442.985C134.677 442.256 118.526 444.591 94.9416 438.784C83.3571 435.932 75.6471 436.008 71.585 427.027C71.0151 425.767 70.5248 424.395 70.1071 422.939L139.49 438.621Z" fill="#A38C78"/>
<path d="M120.944 304.025L120.937 304.02L104.107 300.398C80.5376 307.067 72.0948 345.966 72.0948 345.966L68.6044 383.449C75.4808 394.306 94.9381 398.81 94.9381 398.81C128.775 408.763 128.483 396.616 128.483 396.616C129.893 389.562 127.267 374.404 127.267 374.404C126.725 364.452 130.706 351.425 130.706 351.425C130.706 351.425 130.72 351.46 130.723 351.444C136.961 323.404 120.944 304.025 120.944 304.025Z" fill="#145677"/>
<path d="M100.391 303.593C104.779 316.896 125.364 322.956 123.966 314.002C122.566 305.048 117.606 303.538 117.606 303.538C116.434 301.57 117.757 294.058 117.757 294.058C117.757 294.058 129.495 299.46 144.366 295.471C159.238 291.483 159.321 274.054 159.321 274.054C161.558 274.119 162.562 273.346 162.562 273.346C165.565 269.208 160.048 264.216 159.93 264.107C159.928 264.105 159.928 264.105 159.928 264.105C160.65 254.687 155.025 241.655 155.025 241.655C144.025 217.572 109.36 240.329 109.36 240.329L109.154 258.896C103.818 254.903 99.8798 256.342 97.3717 258.542C95.115 260.524 93.83 263.374 93.6513 266.372C92.9592 278.024 102.11 280.065 102.11 280.065C107.77 293.276 100.391 303.593 100.391 303.593Z" fill="url(#paint5_linear_1_6756)"/>
<path d="M79.7499 270.133C79.7499 270.133 90.214 287.109 103.908 286.173C103.908 286.173 103.903 286.148 103.896 286.102C103.822 285.658 103.457 283.114 103.931 279.521C103.931 279.521 93.2141 278.231 93.6672 266.1C93.6672 266.1 93.669 266.082 93.6725 266.048C93.7185 265.634 94.0831 262.77 95.7982 260.269C95.8195 260.239 95.8372 260.209 95.8602 260.181C96.5912 259.137 97.5611 258.161 98.8461 257.462C98.8514 257.457 98.8603 257.453 98.8691 257.45C100.03 256.822 101.45 256.418 103.181 256.393C103.181 256.393 103.183 256.393 103.188 256.393C103.229 256.393 103.439 256.397 103.802 256.457C103.813 256.459 103.827 256.46 103.839 256.464C104.772 256.625 106.652 257.154 109.149 258.896C109.149 258.896 112.802 262.912 111.724 266.728C111.91 266.539 123.748 254.425 123.038 240.798L125.199 249.28C125.199 249.28 140.444 239.522 144.384 231.626C144.384 231.626 146.494 231.927 149.158 234.099C151.282 235.824 153.754 238.729 155.799 243.607C156.416 245.083 156.995 246.736 157.514 248.595C157.521 248.621 157.53 248.651 157.537 248.678C157.537 248.678 157.537 248.678 157.538 248.676C157.643 248.6 163.002 244.695 164.229 238.61C165.443 232.583 162.602 224.415 146.577 215.717C146.577 215.717 131.382 209.554 113.569 212.144C113.567 212.142 113.563 212.144 113.562 212.144C103.207 213.648 91.968 218.112 82.3128 228.456C82.3164 228.456 66.1353 246.807 79.7499 270.133Z" fill="#231F20"/>
<path d="M154.39 256.004C154.503 254.133 153.866 252.573 152.968 252.519C152.071 252.465 151.252 253.938 151.139 255.808C151.027 257.679 151.663 259.239 152.561 259.293C153.459 259.347 154.278 257.874 154.39 256.004Z" fill="#231F20"/>
<path d="M146.308 237.585C146.308 237.585 151.455 239.101 151.098 244.041C150.74 248.981 131.051 255.503 131.051 255.503C131.051 255.503 125.081 250.416 146.308 237.585Z" fill="#231F20"/>
<path d="M136.922 284.224C137.637 287.543 142.398 289.062 146.936 287.732C148.751 287.201 149.57 286.787 150.639 285.396C150.639 285.396 151.625 283.78 151.68 283.656C152.124 282.649 151.931 282.421 150.883 282.056C148.122 281.095 140.364 278.401 138.996 278.511C137.662 278.617 136.497 279.24 136.594 281.863C136.617 282.516 136.722 283.295 136.922 284.224Z" fill="#231F20"/>
<path d="M136.924 284.2C137.623 287.522 142.32 289.352 147.274 287.63C146.464 283.219 138.579 281.985 136.607 281.837C136.628 282.492 136.729 283.27 136.924 284.2Z" fill="#B62325"/>
<path d="M159.321 274.054C161.558 274.119 162.562 273.346 162.562 273.346C165.565 269.208 160.048 264.216 159.93 264.107C159.928 264.105 159.928 264.105 159.928 264.105C159.928 264.105 155.551 264.413 154.806 269.484C154.059 274.555 159.321 274.054 159.321 274.054Z" fill="#EE8780"/>
<path opacity="0.46" d="M158.283 266.116C160.358 265.972 161.681 260.669 161.239 254.271C160.797 247.873 158.757 242.802 156.683 242.946C154.609 243.089 153.286 248.392 153.728 254.79C154.17 261.188 156.209 266.259 158.283 266.116Z" fill="#62C7D1"/>
<path d="M158.283 266.116C160.358 265.972 161.681 260.669 161.239 254.271C160.797 247.873 158.757 242.802 156.683 242.946C154.609 243.089 153.286 248.392 153.728 254.79C154.17 261.188 156.209 266.259 158.283 266.116Z" stroke="#9C7A2C" stroke-width="0.5" stroke-miterlimit="10"/>
<path d="M153.691 253.83L110.512 261" stroke="#9C7A2C" stroke-width="0.5" stroke-miterlimit="10"/>
<path d="M117.757 294.058C117.757 294.058 112.036 291.603 109.542 289.092C109.542 289.092 112.703 298.205 117.178 301.864C117.178 301.864 117.04 296.715 117.757 294.058Z" fill="#EE8780"/>
<path d="M113.571 212.144C148.759 209.654 164.229 238.619 164.229 238.619C164.231 238.617 164.231 238.614 164.232 238.61C165.447 232.583 162.606 224.415 146.581 215.717C146.581 215.717 131.384 209.554 113.571 212.144Z" fill="#3A3A3A"/>
<path d="M92.8689 314.985C92.8689 314.985 96.6231 306.745 101.413 307.551C101.765 307.609 113.804 318.7 120.93 333.918C128.056 349.136 126.707 354.37 126.707 354.37L97.6302 356.383C97.6302 356.384 85.851 337.463 92.8689 314.985Z" fill="white"/>
<path d="M125.605 354.042L129.113 365.845L168.339 371.229C168.339 371.229 173.229 363.223 172.505 363.122C171.781 363.022 188.182 365.032 187.562 369.369C186.943 373.707 187.449 381.895 178.229 380.702C169.01 379.509 138.186 382.93 118.027 377.496L109.034 355.189L125.605 354.042Z" fill="url(#paint6_linear_1_6756)"/>
<path d="M143.533 400.221L144.315 400.749V510.103L138.986 440.348L143.533 400.221Z" fill="url(#paint7_linear_1_6756)"/>
</g>
</g>
<defs>
<linearGradient id="paint0_linear_1_6756" x1="262.613" y1="510.756" x2="237.667" y2="-38.0406" gradientUnits="userSpaceOnUse">
<stop stop-color="#F2F2F2"/>
<stop offset="1" stop-color="#FFDE94"/>
</linearGradient>
<linearGradient id="paint1_linear_1_6756" x1="279.179" y1="372.856" x2="288.823" y2="269.266" gradientUnits="userSpaceOnUse">
<stop offset="0.6882" stop-color="#F9BBA7"/>
<stop offset="1" stop-color="#F48E86"/>
</linearGradient>
<linearGradient id="paint2_linear_1_6756" x1="287.255" y1="346.253" x2="284.072" y2="346.253" gradientUnits="userSpaceOnUse">
<stop offset="0.6882" stop-color="#F9BBA7"/>
<stop offset="1" stop-color="#F48E86"/>
</linearGradient>
<linearGradient id="paint3_linear_1_6756" x1="307.929" y1="205.865" x2="306.919" y2="140.465" gradientUnits="userSpaceOnUse">
<stop offset="0.6882" stop-color="#F9BBA7"/>
<stop offset="1" stop-color="#F48E86"/>
</linearGradient>
<linearGradient id="paint4_linear_1_6756" x1="430.505" y1="157.53" x2="402.848" y2="198.879" gradientUnits="userSpaceOnUse">
<stop offset="0.6882" stop-color="#F9BBA7"/>
<stop offset="1" stop-color="#F48E86"/>
</linearGradient>
<linearGradient id="paint5_linear_1_6756" x1="145.581" y1="311.578" x2="112.359" y2="239.19" gradientUnits="userSpaceOnUse">
<stop offset="0.6129" stop-color="#F8BBA7"/>
<stop offset="0.9088" stop-color="#EE8780"/>
</linearGradient>
<linearGradient id="paint6_linear_1_6756" x1="109.172" y1="354.862" x2="183.124" y2="384.601" gradientUnits="userSpaceOnUse">
<stop offset="0.6129" stop-color="#F8BBA7"/>
<stop offset="0.9088" stop-color="#EE8780"/>
</linearGradient>
<linearGradient id="paint7_linear_1_6756" x1="138.986" y1="455.162" x2="144.316" y2="455.162" gradientUnits="userSpaceOnUse">
<stop offset="0.6129" stop-color="#F8BBA7"/>
<stop offset="0.9088" stop-color="#EE8780"/>
</linearGradient>
<clipPath id="clip0_1_6756">
<rect width="500" height="500" rx="250" fill="white"/>
</clipPath>
<clipPath id="clip1_1_6756">
<rect width="530.992" height="530.992" fill="white" transform="translate(-15.4958 -6.19824)"/>
</clipPath>
</defs>
</svg>
