<svg width="500" height="500" viewBox="0 0 500 500" fill="none" xmlns="http://www.w3.org/2000/svg">
<g clip-path="url(#clip0_1_3238)">
<rect width="500" height="500" rx="250" fill="white"/>
<path d="M142.592 332.806L142.356 333.042C139.166 326.073 137.158 318.158 136.331 309.417C137.158 318.04 139.403 325.837 142.592 332.806Z" fill="#DFDFDF"/>
<path d="M218.431 230.864C233.958 230.864 246.545 218.276 246.545 202.749C246.545 187.222 233.958 174.635 218.431 174.635C202.904 174.635 190.317 187.222 190.317 202.749C190.317 218.276 202.904 230.864 218.431 230.864Z" fill="#DFDFDF"/>
<path d="M303.365 131.872H204.374C161.376 131.872 135.742 157.506 135.742 200.504V299.495C135.742 312.37 137.987 323.593 142.357 333.043C152.516 355.487 174.252 368.126 204.374 368.126H303.365C346.363 368.126 371.996 342.493 371.996 299.495V272.443V200.504C371.996 157.506 346.363 131.872 303.365 131.872ZM352.742 255.906C343.528 247.991 328.644 247.991 319.43 255.906L270.289 298.077C261.075 305.992 246.191 305.992 236.977 298.077L232.961 294.77C224.574 287.446 211.225 286.737 201.775 293.116L157.596 322.766C154.997 316.151 153.461 308.472 153.461 299.495V200.504C153.461 167.192 171.062 149.591 204.374 149.591H303.365C336.676 149.591 354.277 167.192 354.277 200.504V257.205L352.742 255.906Z" fill="#DFDFDF"/>
<g clip-path="url(#clip1_1_3238)">
<path d="M531.284 -37.1901H-39.7383V532.886H531.284V-37.1901Z" fill="url(#paint0_linear_1_3238)"/>
<path d="M532.8 -37.1901H450.413V530.992H532.8V-37.1901Z" fill="#D3C0B6"/>
<path d="M191.11 -117.493V233.977H-39.7383V-35.2961H-38.8803V-117.493H191.11Z" fill="#9B8770"/>
<path d="M192.684 -112.787V238.683H-39.7383V-35.2961H-38.8803V-112.787H192.684Z" fill="#C5B69D"/>
<path d="M59.2219 -92.9495H-32.0394V53.0259H59.2219V-92.9495Z" fill="#ADDEE5"/>
<path d="M59.2219 73.666H-32.0394V219.641H59.2219V73.666Z" fill="#ADDEE5"/>
<path d="M175.775 74.5846H84.5136V220.56H175.775V74.5846Z" fill="#ADDEE5"/>
<path d="M175.775 -92.9495H84.5136V53.0259H175.775V-92.9495Z" fill="#ADDEE5"/>
<path d="M-32.0394 213.501H52.2276V73.666H59.2219V219.64H-32.0394V213.501Z" fill="#9B8770"/>
<path d="M-32.0394 46.8858H52.2276V-92.9495H59.2219V53.024H-32.0394V46.8858Z" fill="#9B8770"/>
<path d="M84.5136 46.8858H168.783V-92.9495H175.777V53.024H84.5136V46.8858Z" fill="#9B8770"/>
<path d="M84.5136 214.422H168.783V74.5846H175.777V220.56H84.5136V214.422Z" fill="#9B8770"/>
<path d="M516.701 393.681L444.731 365.083V46.5221L518.027 20.007L516.701 393.681Z" fill="#5C3618"/>
<path d="M504.985 376.825L444.731 351.198V65.7362L506.095 41.9767L504.985 376.825Z" fill="#4D7132"/>
<path d="M128.898 311.187C140.69 310.621 151.623 304.056 151.623 304.056C178.23 284.655 194.612 255.427 194.612 255.427C204.587 250.537 206.97 239.988 206.97 239.988C208.974 234.128 208.741 231.433 207.845 230.259C206.837 228.935 204.582 229.587 204.243 231.274C203.608 234.439 202.07 235.622 200.692 237.198C199.786 238.232 197.843 239.676 197.076 238.638C196.127 237.352 195.396 235.812 195.396 235.812C192.561 225.78 196.587 211.994 196.587 211.994C199.057 206.35 196.421 202.187 195.103 203.891C193.784 205.6 190.936 212.293 190.936 212.293C191.222 207.914 188.358 208.611 188.358 208.611C188.358 208.611 181.828 217.624 183.654 229.405C185.48 241.185 183.794 249.943 183.794 249.943C177.203 266.047 145.534 289.776 145.534 289.776C143.286 291.35 128.459 294.804 128.459 294.804L128.898 311.187Z" fill="url(#paint1_linear_1_3238)"/>
<path d="M333.512 501.242L366.517 503.975L366.534 503.977L370.112 504.274C370.112 504.274 386.779 472.14 391.747 379.088C392.385 367.128 393.173 316.295 393.364 302.261L382.506 307.054L318.794 306.001C318.794 305.999 311.434 442.259 333.512 501.242Z" fill="#444444"/>
<path d="M407.421 270.954C407.421 270.954 415.474 311.236 393.364 313.67C393.364 313.67 346.497 321.515 318.741 309.74C318.741 309.74 316.9 308.897 316.9 303.641C316.9 303.641 315.161 210.098 349.241 183.795L371.144 181.35C371.144 181.35 379.883 189.549 379.885 189.554C379.885 189.554 383.487 191.861 385.451 195.763C385.451 195.764 403.443 242.924 407.421 270.954Z" fill="#D7D7D7"/>
<path d="M295.019 133.193C295.019 133.193 297.703 140.912 303.265 139.816L302.966 136.291C331.159 143.126 349.947 125.979 349.947 125.979L360.205 148.431L377.173 145.204C377.173 145.204 392.578 141.551 387.078 120.325C385.858 115.613 383.006 111.448 378.942 108.774C376.652 107.266 373.906 106.126 370.989 106.344C370.989 106.344 364.659 99.1642 352.762 95.2172C352.758 95.2153 352.754 95.2153 352.752 95.2134C352.75 95.2115 352.75 95.2115 352.75 95.2115C344.319 92.4161 333.091 91.2418 319.341 95.399C319.337 95.4009 287.004 103.306 295.019 133.193Z" fill="#231F20"/>
<path d="M302.964 136.293C302.964 136.293 305.51 183.204 328.428 184.632C328.428 184.632 338.004 185.598 346.913 180.575C346.913 180.575 349.762 184.393 348.898 187.812L346.436 189.327L350.603 198.039L360.193 191.062C360.193 191.062 370.101 189.583 371.815 181.941C371.815 181.941 365.536 169.06 366.025 158.782C366.025 158.782 379.317 158.285 376.879 142.03C376.879 142.03 374.858 129.88 361.934 133.524C361.934 133.524 364.008 145.179 360.201 148.435L349.945 125.982C349.945 125.98 331.07 142.232 302.964 136.293Z" fill="url(#paint2_linear_1_3238)"/>
<path d="M358.114 190.374C358.114 190.374 364.212 206.829 363.792 212.505C363.792 212.505 375.356 203.463 379.877 184.854L371.142 179.265L371.834 181.857C371.836 181.859 369.89 188.219 358.114 190.374Z" fill="white"/>
<path d="M345.025 188.956L339.47 206.865L338.629 188.641L349.241 181.713C349.241 181.713 350.089 184.681 349.125 185.961L345.025 188.956Z" fill="white"/>
<path d="M348.337 503.071C344.981 496.88 344.108 338.306 344.108 338.306L343.93 502.708L348.337 503.071Z" fill="#353535"/>
<path d="M321.247 149.539C321.033 149.238 320.57 149.289 320.436 149.636C319.612 151.761 317.453 157.78 318.383 160.212C319.279 162.554 322.997 161.382 324.544 160.774C324.945 160.617 325.178 160.196 325.095 159.772C324.735 157.912 323.586 152.831 321.247 149.539Z" fill="#F48E86"/>
<path d="M334.936 152.93C335.965 152.704 336.45 150.931 336.019 148.969C335.589 147.008 334.406 145.601 333.377 145.826C332.348 146.052 331.863 147.825 332.294 149.787C332.725 151.749 333.908 153.156 334.936 152.93Z" fill="#231F20"/>
<path d="M314.059 157.426C315.087 157.2 315.572 155.427 315.142 153.465C314.711 151.504 313.528 150.097 312.499 150.323C311.471 150.548 310.986 152.322 311.416 154.283C311.847 156.245 313.03 157.652 314.059 157.426Z" fill="#231F20"/>
<path d="M340.156 138.247L325.483 140.653C325.483 140.653 324.873 139.412 325.925 138.2C325.925 138.2 329.307 136.145 336.385 135.795C343.462 135.444 340.156 138.247 340.156 138.247Z" fill="#231F20"/>
<path d="M301.442 146.215L315.925 142.848C315.925 142.848 316.015 141.467 314.582 140.748C314.582 140.748 310.673 140.138 303.995 142.511C297.317 144.884 301.442 146.215 301.442 146.215Z" fill="#231F20"/>
<path d="M346.913 180.573C346.913 180.573 356.322 175.71 358.682 165.863C358.682 165.863 359.317 178.473 348.898 187.81C348.898 187.81 350.4 184.689 346.913 180.573Z" fill="#F48E86"/>
<path d="M369.875 110.088C369.875 110.088 379.917 110.251 382.652 119.77C382.652 119.77 389.57 136.363 377.171 145.206C377.171 145.206 392.576 141.552 387.076 120.327C385.856 115.615 383.004 111.45 378.94 108.776C376.65 107.268 373.904 106.128 370.987 106.346C370.987 106.346 364.657 99.1661 352.76 95.2191C353.248 95.4956 369.186 104.515 369.875 110.088Z" fill="#3A3A3A"/>
<path d="M366.517 504.577L366.534 504.579L370.112 504.876C370.112 504.876 386.779 472.742 391.747 379.691L390.201 366.948C390.201 366.946 378.389 482.079 366.517 504.577Z" fill="#353535"/>
<path d="M353.904 198.102H347.39L350.648 203.128L353.904 198.102Z" fill="#BC4040"/>
<path d="M350.648 203.128L354.716 286.35L343.928 299.319L332.167 284.681L350.648 203.128Z" fill="#BC4040"/>
<path d="M343.813 168.774C343.83 173.505 337.803 176.994 331.229 176.543C328.603 176.363 327.362 176.043 325.491 174.469C325.491 174.469 323.667 172.564 323.555 172.412C322.65 171.174 322.845 170.806 324.161 169.996C327.633 167.861 337.387 161.876 339.283 161.619C341.131 161.365 342.902 161.865 343.553 165.463C343.716 166.359 343.807 167.45 343.813 168.774Z" fill="#231F20"/>
<path d="M343.801 168.742C343.843 173.473 337.995 177.367 330.739 176.503C330.523 170.257 340.889 166.221 343.529 165.431C343.694 166.327 343.788 167.418 343.801 168.742Z" fill="#B62325"/>
<path d="M400.612 319.354C400.612 319.354 407.943 345.903 401.296 362.869C401.296 362.869 400.764 364.2 398.974 364.393C397.182 364.587 399.76 352.147 398.722 348.363C398.722 348.363 396.038 364.441 393.964 367.283C393.964 367.283 392.392 369.344 389.836 368.935C387.447 368.552 385.845 366.23 386.169 363.802C386.728 359.617 387.663 351.427 387.12 346.893C387.12 346.893 384.455 364.128 383.476 364.143C383.476 364.143 381.54 365.496 380.531 363.528C379.521 361.56 381.868 344.827 383.07 338.361C383.07 338.361 380.43 340.7 378.498 342.272C378.498 342.272 372.729 345.268 373.419 340.63L378.711 334.242L384.421 327.429L384.855 319.903C384.855 319.899 394.712 316.916 400.612 319.354Z" fill="url(#paint3_linear_1_3238)"/>
<path d="M390.281 366.611C390.281 366.611 393.832 352.354 393.682 345.48L390.281 366.611Z" fill="url(#paint4_linear_1_3238)"/>
<path d="M385.451 195.765C385.451 195.765 394.542 203.719 401.739 214.136C408.936 224.552 419.123 295.95 407.211 318.395C407.211 318.395 390.205 324.738 381.389 318.395C381.389 318.395 369.163 245.196 385.451 195.765Z" fill="#D7D7D7"/>
<path d="M338.629 194.287C338.629 194.287 317.334 236.096 309.347 248.789C309.347 248.789 295.678 245.194 290.375 253.338C285.072 261.482 286.515 286.297 306.817 282.033L317.616 282.522L338.629 194.287Z" fill="#D7D7D7"/>
<path d="M300.182 275.698C300.182 275.698 290.565 280.045 281.284 265.84C272.004 251.636 272.879 244.886 272.879 244.886C272.879 244.886 274.398 238.244 279.262 238.405C284.125 238.568 320.974 256.39 300.182 275.698Z" fill="url(#paint5_linear_1_3238)"/>
<path d="M294.506 249.427L300.792 265.272L251.928 200.689L264.828 198.227L294.506 249.427Z" fill="white"/>
<path d="M291.061 252.41L292.029 262.706C291.89 263.757 295.589 259.969 300.792 265.272" fill="#F48E86"/>
<path d="M286.419 246.276V260.42" stroke="#F48E86" stroke-miterlimit="10"/>
<path d="M282.82 241.73V255.874" stroke="#F48E86" stroke-miterlimit="10"/>
<path d="M281.758 239.988C281.758 239.988 277.591 246.806 279.675 251.92" stroke="#F48E86" stroke-miterlimit="10"/>
<path d="M325.034 235.727C325.034 235.727 316.116 272.319 317.413 282.524L325.034 235.727Z" fill="#AAAAAA"/>
<path d="M377.656 249.357C377.656 249.357 378.08 302.399 381.158 315.681C381.158 315.679 372.62 290.74 377.656 249.357Z" fill="#AAAAAA"/>
<path d="M249.656 382.318H132.421V530.992H249.656V382.318Z" fill="#5E5148"/>
<path d="M255.337 372.848H124.087V383.075H255.337V372.848Z" fill="#756356"/>
<path d="M128.444 442.355H18.7844V452.583H128.444V442.355Z" fill="#756356"/>
<path d="M36.3981 366.03L36.3981 265.272H18.7844L18.7844 366.03H36.3981Z" fill="#756356"/>
<path d="M33.3677 442.355L33.3677 365.272H23.3299L23.3299 442.355H33.3677Z" fill="#5E5148"/>
<path d="M33.3677 530.992L33.3677 452.583H23.3299L23.3299 530.992H33.3677Z" fill="#5E5148"/>
<path d="M127.686 530.992L127.686 452.583H117.648L117.648 530.992H127.686Z" fill="#5E5148"/>
<path d="M132.279 398.365L128.082 434.78L128.067 434.899L127.618 438.783L127.391 440.761L127.055 443.653C127.055 443.653 126.743 443.587 126.114 443.454C122.468 442.674 105.186 445.172 79.9492 438.958C67.5534 435.907 59.3034 435.988 54.9568 426.378C54.3469 425.03 53.8223 423.562 53.3754 422.003C48.4549 404.878 52.7617 376.897 52.7617 376.897L132.279 398.365Z" fill="#CEAA86"/>
<path d="M127.618 438.783L127.391 440.761L127.055 443.653C127.055 443.653 126.743 443.587 126.114 443.454C122.468 442.674 105.186 445.172 79.9492 438.958C67.5534 435.907 59.3034 435.988 54.9568 426.378C54.347 425.03 53.8223 423.562 53.3754 422.003L127.618 438.783Z" fill="#A38C78"/>
<path d="M107.773 294.761L107.765 294.755L89.756 290.88C64.5363 298.016 55.5022 339.639 55.5022 339.639L51.7674 379.747C59.1253 391.365 79.9454 396.185 79.9454 396.185C116.152 406.835 115.839 393.836 115.839 393.836C117.349 386.289 114.538 370.069 114.538 370.069C113.959 359.42 118.218 345.48 118.218 345.48C118.218 345.48 118.233 345.518 118.237 345.501C124.911 315.497 107.773 294.761 107.773 294.761Z" fill="#145677"/>
<path d="M85.7807 294.299C90.4757 308.533 112.502 315.018 111.006 305.437C109.508 295.855 104.201 294.24 104.201 294.24C102.947 292.134 104.362 284.096 104.362 284.096C104.362 284.096 116.923 289.876 132.836 285.607C148.748 281.34 148.837 262.691 148.837 262.691C151.231 262.761 152.305 261.933 152.305 261.933C155.519 257.505 149.616 252.164 149.489 252.047C149.487 252.045 149.487 252.045 149.487 252.045C150.26 241.967 144.241 228.022 144.241 228.022C132.47 202.253 95.3773 226.603 95.3773 226.603L95.1576 246.471C89.4473 242.198 85.2333 243.738 82.5496 246.092C80.1348 248.213 78.7598 251.263 78.5685 254.471C77.828 266.939 87.6197 269.122 87.6197 269.122C93.6765 283.259 85.7807 294.299 85.7807 294.299Z" fill="url(#paint6_linear_1_3238)"/>
<path d="M63.6935 258.496C63.6935 258.496 74.8905 276.66 89.5439 275.658C89.5439 275.658 89.5382 275.632 89.5307 275.583C89.4511 275.107 89.061 272.386 89.5685 268.541C89.5685 268.541 78.1007 267.16 78.5856 254.179C78.5856 254.179 78.5875 254.16 78.5913 254.124C78.6405 253.681 79.0307 250.617 80.8659 247.941C80.8886 247.908 80.9076 247.876 80.9322 247.846C81.7144 246.729 82.7522 245.685 84.1272 244.937C84.1329 244.931 84.1424 244.927 84.1519 244.924C85.3943 244.251 86.9132 243.819 88.7655 243.793C88.7655 243.793 88.7674 243.793 88.7731 243.793C88.8166 243.793 89.042 243.797 89.4303 243.861C89.4416 243.863 89.4568 243.865 89.47 243.869C90.4682 244.041 92.4795 244.607 95.1519 246.471C95.1519 246.471 99.061 250.768 97.9076 254.852C98.1064 254.649 110.773 241.687 110.014 227.105L112.326 236.181C112.326 236.181 128.639 225.74 132.855 217.291C132.855 217.291 135.112 217.613 137.962 219.937C140.235 221.783 142.881 224.891 145.069 230.111C145.73 231.691 146.349 233.46 146.904 235.448C146.911 235.477 146.921 235.509 146.928 235.537C146.928 235.537 146.928 235.537 146.93 235.535C147.042 235.454 152.777 231.276 154.089 224.765C155.389 218.316 152.349 209.575 135.201 200.268C135.201 200.268 118.942 193.674 99.881 196.444C99.8791 196.443 99.8754 196.444 99.8735 196.444C88.7939 198.054 76.7674 202.831 66.436 213.899C66.4397 213.899 49.1253 233.535 63.6935 258.496Z" fill="#231F20"/>
<path d="M145.066 243.683C145.978 243.376 146.2 241.586 145.561 239.686C144.922 237.785 143.664 236.493 142.752 236.8C141.84 237.106 141.619 238.896 142.258 240.796C142.897 242.697 144.154 243.989 145.066 243.683Z" fill="#231F20"/>
<path d="M134.913 223.668C134.913 223.668 140.421 225.289 140.038 230.575C139.656 235.861 118.587 242.84 118.587 242.84C118.587 242.84 112.199 237.397 134.913 223.668Z" fill="#231F20"/>
<path d="M124.87 273.573C125.635 277.124 130.73 278.749 135.586 277.327C137.527 276.759 138.404 276.316 139.548 274.827C139.548 274.827 140.603 273.098 140.661 272.965C141.137 271.888 140.93 271.643 139.809 271.253C136.855 270.225 128.553 267.342 127.089 267.46C125.661 267.573 124.415 268.24 124.519 271.047C124.544 271.746 124.656 272.579 124.87 273.573Z" fill="#231F20"/>
<path d="M124.872 273.547C125.62 277.102 130.646 279.06 135.947 277.217C135.08 272.497 126.642 271.177 124.533 271.018C124.555 271.719 124.663 272.552 124.872 273.547Z" fill="#B62325"/>
<path d="M148.837 262.691C151.231 262.761 152.305 261.933 152.305 261.933C155.519 257.505 149.616 252.164 149.489 252.047C149.487 252.045 149.487 252.045 149.487 252.045C149.487 252.045 144.803 252.374 144.006 257.8C143.207 263.227 148.837 262.691 148.837 262.691Z" fill="#EE8780"/>
<path opacity="0.46" d="M147.728 254.196C149.947 254.043 151.363 248.369 150.89 241.522C150.417 234.676 148.235 229.25 146.015 229.404C143.796 229.557 142.38 235.231 142.853 242.077C143.325 248.924 145.508 254.35 147.728 254.196Z" fill="#62C7D1"/>
<path d="M147.728 254.196C149.947 254.043 151.363 248.369 150.89 241.522C150.417 234.676 148.235 229.25 146.015 229.404C143.796 229.557 142.38 235.231 142.853 242.077C143.325 248.924 145.508 254.35 147.728 254.196Z" stroke="#9C7A2C" stroke-width="0.5" stroke-miterlimit="10"/>
<path d="M142.813 241.051L96.6102 248.723" stroke="#9C7A2C" stroke-width="0.5" stroke-miterlimit="10"/>
<path d="M104.362 284.096C104.362 284.096 98.2409 281.469 95.5723 278.781C95.5723 278.781 98.9549 288.533 103.743 292.448C103.743 292.448 103.595 286.939 104.362 284.096Z" fill="#EE8780"/>
<path d="M99.8829 196.444C137.536 193.78 154.089 224.774 154.089 224.774C154.091 224.772 154.091 224.768 154.093 224.765C155.392 218.316 152.353 209.575 135.205 200.268C135.205 200.268 118.944 193.674 99.8829 196.444Z" fill="#3A3A3A"/>
<path d="M86.0193 329.854C86.0193 329.854 69.3526 324.174 78.4435 312.242C78.6746 311.939 85.2977 304.348 106.095 298.605C119.527 294.897 128.87 294.48 128.87 294.48L130.409 325.632C130.411 325.632 109.921 337.835 86.0193 329.854Z" fill="white"/>
<path d="M131.944 397.694L132.781 398.259V515.272L127.078 440.632L131.944 397.694Z" fill="url(#paint7_linear_1_3238)"/>
</g>
</g>
<defs>
<linearGradient id="paint0_linear_1_3238" x1="257.985" y1="516.505" x2="231.201" y2="-72.7296" gradientUnits="userSpaceOnUse">
<stop stop-color="#F2F2F2"/>
<stop offset="1" stop-color="#FFDE94"/>
</linearGradient>
<linearGradient id="paint1_linear_1_3238" x1="224.365" y1="190.852" x2="133.957" y2="319.856" gradientUnits="userSpaceOnUse">
<stop offset="0.6129" stop-color="#F8BBA8"/>
<stop offset="1" stop-color="#EF8981"/>
</linearGradient>
<linearGradient id="paint2_linear_1_3238" x1="351.06" y1="189.651" x2="335.656" y2="124.314" gradientUnits="userSpaceOnUse">
<stop offset="0.6882" stop-color="#F9BBA7"/>
<stop offset="1" stop-color="#F48E86"/>
</linearGradient>
<linearGradient id="paint3_linear_1_3238" x1="385.043" y1="384.509" x2="395.363" y2="273.663" gradientUnits="userSpaceOnUse">
<stop offset="0.6882" stop-color="#F9BBA7"/>
<stop offset="1" stop-color="#F48E86"/>
</linearGradient>
<linearGradient id="paint4_linear_1_3238" x1="393.686" y1="356.045" x2="390.281" y2="356.045" gradientUnits="userSpaceOnUse">
<stop offset="0.6882" stop-color="#F9BBA7"/>
<stop offset="1" stop-color="#F48E86"/>
</linearGradient>
<linearGradient id="paint5_linear_1_3238" x1="289.404" y1="271.946" x2="289.953" y2="236.367" gradientUnits="userSpaceOnUse">
<stop offset="0.6882" stop-color="#F9BBA7"/>
<stop offset="1" stop-color="#F48E86"/>
</linearGradient>
<linearGradient id="paint6_linear_1_3238" x1="134.135" y1="302.843" x2="98.5867" y2="225.385" gradientUnits="userSpaceOnUse">
<stop offset="0.6129" stop-color="#F8BBA7"/>
<stop offset="0.9088" stop-color="#EE8780"/>
</linearGradient>
<linearGradient id="paint7_linear_1_3238" x1="127.079" y1="456.483" x2="132.781" y2="456.483" gradientUnits="userSpaceOnUse">
<stop offset="0.6129" stop-color="#F8BBA7"/>
<stop offset="0.9088" stop-color="#EE8780"/>
</linearGradient>
<clipPath id="clip0_1_3238">
<rect width="500" height="500" rx="250" fill="white"/>
</clipPath>
<clipPath id="clip1_1_3238">
<rect width="568.182" height="568.182" fill="white" transform="translate(-38.2231 -37.1901)"/>
</clipPath>
</defs>
</svg>
