<svg width="500" height="500" viewBox="0 0 500 500" fill="none" xmlns="http://www.w3.org/2000/svg">
<g clip-path="url(#clip0_1_2738)">
<rect width="500" height="500" rx="250" fill="white"/>
<path d="M142.592 332.807L142.356 333.043C139.166 326.074 137.158 318.159 136.331 309.418C137.158 318.041 139.402 325.837 142.592 332.807Z" fill="#DFDFDF"/>
<path d="M218.431 230.863C233.958 230.863 246.545 218.276 246.545 202.749C246.545 187.221 233.958 174.634 218.431 174.634C202.904 174.634 190.317 187.221 190.317 202.749C190.317 218.276 202.904 230.863 218.431 230.863Z" fill="#DFDFDF"/>
<path d="M303.365 131.872H204.374C161.376 131.872 135.742 157.506 135.742 200.504V299.495C135.742 312.371 137.987 323.593 142.357 333.043C152.516 355.487 174.252 368.127 204.374 368.127H303.365C346.363 368.127 371.996 342.493 371.996 299.495V272.444V200.504C371.996 157.506 346.363 131.872 303.365 131.872ZM352.742 255.906C343.528 247.991 328.644 247.991 319.43 255.906L270.289 298.077C261.075 305.992 246.191 305.992 236.977 298.077L232.961 294.77C224.574 287.446 211.225 286.737 201.775 293.116L157.596 322.766C154.997 316.151 153.461 308.472 153.461 299.495V200.504C153.461 167.192 171.062 149.591 204.374 149.591H303.365C336.676 149.591 354.277 167.192 354.277 200.504V257.205L352.742 255.906Z" fill="#DFDFDF"/>
<g clip-path="url(#clip1_1_2738)">
<path d="M550.607 323.72H-109.312V576.361H550.607V323.72Z" fill="#B06497"/>
<path d="M550.607 -8.86346H-109.312V334.277H550.607V-8.86346Z" fill="url(#paint0_linear_1_2738)"/>
<path d="M550.607 298.643H-109.312V334.277H550.607V298.643Z" fill="url(#paint1_linear_1_2738)"/>
<path d="M550.607 325.918H-109.312V334.277H550.607V325.918Z" fill="#6E3F1E"/>
<path d="M550.607 325.918H-109.312V328.008H550.607V325.918Z" fill="#BA6C34"/>
<path d="M550.607 -32.2702H-109.312V7.65311H550.607V-32.2702Z" fill="#A38E8E"/>
<path d="M550.314 -9.74319H529.021L550.314 -26.0059V-28.2221L526.121 -9.74319H337.591L367.468 -32.5646H364.568L334.691 -9.74319H106.606L76.7283 -32.5646H73.828L103.705 -9.74319H-84.8268L-109.312 -28.446V-26.2316L-87.727 -9.74319H-109.312V-7.98364H-85.4227L-64.9956 7.61791H-62.0953L-82.5224 -7.98364H106.01L126.437 7.61791H129.335L108.908 -7.98364H332.386L311.959 7.61791H314.859L335.286 -7.98364H523.817L503.39 7.61791H506.29L526.717 -7.98364H550.314V-9.74319Z" fill="#F0F0FF"/>
<path d="M62.2744 214.613L379.02 228.178V209.114H62.2744V214.613Z" fill="#E8BB97"/>
<path d="M379.02 216.739L62.2744 212.859V69.0033H379.02V216.739Z" fill="#5C3516"/>
<path d="M371.981 207.465L374.043 208.82V73.3176L371.981 76.0415V207.465Z" fill="#A67C52"/>
<path d="M67.2533 76.0415V74.6787L374.042 73.3176L371.981 76.0415H67.2533Z" fill="#856442"/>
<path d="M69.3143 76.0414L67.2533 74.6785V209.114L69.3143 205.819V76.0414Z" fill="#A67C52"/>
<path d="M67.2533 209.114L374.042 208.82L371.981 203.833L70.0213 204.641L67.2533 209.114Z" fill="#856442"/>
<path d="M69.3145 205.819V76.0415H371.982V207.465L69.3145 205.819Z" fill="url(#paint2_linear_1_2738)"/>
<path d="M15.35 103.662H-82.0869V339.106H15.35V103.662Z" fill="#E1BC8A"/>
<path opacity="0.45" d="M282.722 363.303C282.722 363.303 457.84 360.163 461.546 360.163C465.252 360.163 505.44 373.351 504.12 372.702C502.799 372.053 323.301 377.667 323.301 377.667L282.722 363.303Z" fill="#B06497"/>
<path d="M15.3482 103.662H-14.8711V339.106H15.3482V103.662Z" fill="#9C5B28"/>
<path d="M9.03287 339.106V159.985L3.31342 175.384V330.099V339.106H-1.96526V221.383L-5.48438 236.096V339.106H9.03287Z" fill="#BD7D4D"/>
<path opacity="0.45" d="M350.148 353.075L357.581 354.002L416.623 352.973L393.574 351.069L350.148 353.075Z" fill="#B06497"/>
<path d="M345.031 246.828L348.163 284.403H351.775L353.221 246.828H345.031Z" fill="#D0CEF8"/>
<path d="M349.063 284.463H348.102L344.973 246.888H347.445L349.063 284.463Z" fill="#F0F0FF"/>
<path d="M345.833 257.213H352.82L352.753 258.958L346.121 260.665L345.833 257.213Z" fill="#D0CEF8"/>
<path d="M396.804 246.828L399.936 284.403H403.548L404.994 246.828H396.804Z" fill="#D0CEF8"/>
<path d="M400.836 284.463H399.875L396.746 246.888H399.218L400.836 284.463Z" fill="#F0F0FF"/>
<path d="M397.613 257.213H404.6L404.534 258.958L397.901 260.665L397.613 257.213Z" fill="#D0CEF8"/>
<path d="M390.602 289.264L393.733 352.973H397.346L398.791 289.264H390.602Z" fill="#908EAB"/>
<path d="M394.634 353.075H393.673L390.543 289.366H393.015L394.634 353.075Z" fill="#A8A8B3"/>
<path d="M390.748 294.061H398.645L398.611 295.674L390.91 297.545L390.748 294.061Z" fill="#D0CEF8"/>
<path d="M347.077 289.264L350.208 352.973H353.82L355.266 289.264H347.077Z" fill="#908EAB"/>
<path d="M351.108 353.075H350.148L347.018 289.366H349.49L351.108 353.075Z" fill="#A8A8B3"/>
<path d="M347.177 292.416L355.151 294.061L355.119 295.685L347.417 297.545L347.177 292.416Z" fill="#D0CEF8"/>
<path d="M359.781 289.264L362.912 352.973H366.527L367.971 289.264H359.781Z" fill="#D0CEF8"/>
<path d="M363.813 353.075H362.852L359.725 289.366H362.195L363.813 353.075Z" fill="#F0F0FF"/>
<path d="M359.963 294.061H367.86L367.826 295.674L360.125 297.545L359.963 294.061Z" fill="#D0CEF8"/>
<path d="M409.879 289.264L413.011 352.973H416.623L418.069 289.264H409.879Z" fill="#D0CEF8"/>
<path d="M413.911 353.075H412.95L409.821 289.366H412.293L413.911 353.075Z" fill="#F0F0FF"/>
<path d="M409.962 294.061H417.861L417.825 295.674L410.126 297.545L409.962 294.061Z" fill="#D0CEF8"/>
<path d="M335.907 217.734V253.338C335.907 255.478 337.642 257.213 339.782 257.213H410.07C412.21 257.213 413.945 255.478 413.945 253.338V217.734C413.945 215.593 412.21 213.859 410.07 213.859H339.782C337.642 213.859 335.907 215.593 335.907 217.734Z" fill="#A67C52"/>
<path d="M344.118 257.211H339.782C337.644 257.211 335.909 255.476 335.909 253.337V217.735C335.909 215.59 337.644 213.855 339.782 213.855H344.118C341.979 213.855 340.244 215.59 340.244 217.735V253.337C340.244 255.476 341.979 257.211 344.118 257.211Z" fill="#D6A976"/>
<path d="M340.087 290.692C340.45 292.612 342.134 294.065 344.158 294.065H417.986C420.011 294.065 421.693 292.612 422.057 290.692H340.087Z" fill="#8C6239"/>
<path d="M422.134 289.918V288.61C422.134 286.319 420.278 284.463 417.988 284.463H344.16C341.87 284.463 340.013 286.319 340.013 288.61V289.918C340.013 290.182 340.042 290.442 340.087 290.692H422.058C422.106 290.442 422.134 290.182 422.134 289.918Z" fill="#A67C52"/>
<path d="M347.231 294.061H344.16C342.136 294.061 340.454 292.609 340.086 290.694C340.041 290.442 340.013 290.181 340.013 289.913V288.605C340.013 286.314 341.87 284.465 344.16 284.465H347.231C344.941 284.465 343.083 286.314 343.083 288.605V289.913C343.083 290.181 343.111 290.44 343.155 290.694C343.525 292.61 345.209 294.061 347.231 294.061Z" fill="#D6A976"/>
<path d="M449.617 256.458L457.84 360.38H461.546V256.458H449.617Z" fill="url(#paint3_linear_1_2738)"/>
<path d="M280.601 255.132V333.874L334.029 345.54V255.132H280.601Z" fill="url(#paint4_linear_1_2738)"/>
<path d="M334.03 258.579V345.54L496.542 338.646V258.579H334.03Z" fill="url(#paint5_linear_1_2738)"/>
<path d="M334.03 258.579V375.734H337.734L346.484 258.579H334.03Z" fill="url(#paint6_linear_1_2738)"/>
<path d="M496.542 258.579V372.249H492.836L483.841 258.579H496.542Z" fill="url(#paint7_linear_1_2738)"/>
<path d="M280.601 252.747V363.303H284.307L293.055 252.747H280.601Z" fill="url(#paint8_linear_1_2738)"/>
<path d="M276.491 249.526V254.868L334.029 258.579V251.686L276.491 249.526Z" fill="#D1563C"/>
<path d="M503.436 251.685H334.03V258.579H503.436V251.685Z" fill="#F8A27B"/>
<path d="M334.03 258.579V266.894L496.542 300.336V258.579H334.03Z" fill="#D1563C"/>
<path d="M286.532 335.169L282.722 363.303H284.307L286.532 335.169Z" fill="#F3D8C3"/>
<path d="M339.601 352.137L336.408 375.735H337.734L339.601 352.137Z" fill="#F3D8C3"/>
<path d="M490.191 338.916L494.157 372.249H492.836L490.191 338.916Z" fill="#F3D8C3"/>
<path d="M280.601 255.132V257.054L334.029 266.894V258.579L280.601 255.132Z" fill="#D1563C"/>
<path d="M307.315 250.684L334.029 251.685H357.031V242.843H334.029H307.315V250.684Z" fill="#202266"/>
<path d="M334.029 251.685V242.844L307.315 242.329V250.684L334.029 251.685Z" fill="#2E3192"/>
<path d="M357.031 243.796H336.207V250.469L357.031 250.836V243.796Z" fill="#D0CEF8"/>
<path d="M357.031 245.497L338.774 245.409L357.031 245.321V245.497Z" fill="#7D7BB0"/>
<path d="M357.029 248.431L344.566 247.976L357.034 248.255L357.029 248.431Z" fill="#7D7BB0"/>
<path d="M303.722 241.84L330.436 242.844H353.438V234H330.436H303.722V241.84Z" fill="#662043"/>
<path d="M330.436 242.844V234H303.722V242.329L330.436 242.844Z" fill="#922E60"/>
<path d="M353.438 234.954H332.614V241.625L353.438 241.992V234.954Z" fill="#D0CEF8"/>
<path d="M353.438 236.653L335.181 236.565L353.438 236.477V236.653Z" fill="#7D7BB0"/>
<path d="M353.436 239.587L340.973 239.132L353.441 239.411L353.436 239.587Z" fill="#7D7BB0"/>
<path d="M37.5841 343.151H75.025L50.8407 336.837L37.5841 343.151Z" fill="#B06497"/>
<path d="M54.9082 290.651V288.393L53.422 287.485L52.045 286.963L50.2008 285.806H48.1486H46.4313L45.3294 286.33L44.6418 287.568L40.8159 288.229L40.3751 290.651L40.9799 292.439L40.1283 294.698L40.7612 295.551L40.5673 296.376L40.1283 297.201L41.7785 299.596L43.1009 299.266L44.3932 299.735L45.6044 301.11L51.5496 301.302L53.2016 299.458L53.5595 298.109L55.5412 296.789L56.4492 293.788L55.8444 293.128L56.1741 292.302L54.9082 290.651Z" fill="#E8E8FF"/>
<path d="M42.935 288.751C43.0179 288.723 45.4122 287.952 45.4122 287.952L46.7891 289.714L45.689 289.081C45.689 289.081 46.2126 291.145 46.2673 291.228C46.3219 291.311 48.0021 292.411 48.0021 292.411L48.2913 292.824L46.3237 292.714L42.6071 293.554L41.313 291.669L41.7802 290.458L42.6053 290.045L44.8004 291.503L45.4122 292.191L45.1653 290.043L43.8448 289.603L42.0835 289.657L42.935 288.751Z" fill="#D9D8F8"/>
<path d="M47.2846 297.67L51.9356 296.073L51.5495 295.907H49.6101L48.9349 295.137L49.1006 294.008L45.5497 294.587L44.0088 296.018L46.5406 295.027L48.2878 295.082V295.838L47.7236 297.118L46.9267 297.67H47.2846Z" fill="#D9D8F8"/>
<path d="M46.2373 287.376L47.2017 287.954L49.6242 288.917L49.7882 288.504L48.8802 286.963L47.8347 286.411L47.6407 286.826L49.1834 288.229L46.7892 286.522L46.2373 287.376Z" fill="#D9D8F8"/>
<path d="M41.0909 295.838C41.2002 295.907 42.1364 296.485 42.1364 296.485L42.3568 297.009L40.6501 297.118L41.5035 296.623L41.0909 295.838Z" fill="#D9D8F8"/>
<path d="M45.6326 299.403L47.7518 298.633H50.2836L52.7343 297.339L52.4857 297.67L49.7882 299.678L48.413 300.23L45.6326 299.403Z" fill="#D9D8F8"/>
<path d="M50.7791 289.385L51.3291 288.916L53.4766 290.182L51.3291 289.936L50.7791 289.385Z" fill="#D9D8F8"/>
<path d="M51.9357 290.486L52.1278 291.064L54.3581 291.752L54.6596 292.33L55.3755 292.88L55.8444 292.247L54.5503 290.953L51.9357 290.486Z" fill="#D9D8F8"/>
<path d="M48.7974 290.754L50.504 293.707V294.587L52.8983 295.839L53.8892 294.477L53.5877 292.88L53.0358 293.555L51.4667 292.247L50.1197 291.683L49.9539 289.246H49.5132L48.7974 290.754Z" fill="#D9D8F8"/>
<path d="M41.7133 291.325V289.068L40.227 288.16L38.8518 287.636L37.0076 286.48H34.9554H33.2364L32.1345 287.003L31.4468 288.243L27.621 288.902L27.1802 291.325L27.7867 293.114L26.9333 295.371L27.5663 296.224L27.3741 297.049L26.9333 297.876L28.5836 300.271L29.9059 299.941L31.2 300.408L32.4095 301.785L38.3564 301.977L40.0066 300.133L40.3645 298.784L42.3462 297.464L43.2542 294.463L42.6495 293.802L42.9792 292.977L41.7133 291.325Z" fill="#F0F0FF"/>
<path d="M29.7402 289.426C29.8231 289.398 32.2173 288.627 32.2173 288.627L33.5943 290.389L32.4941 289.756C32.4941 289.756 33.0178 291.82 33.0724 291.903C33.1271 291.986 34.8073 293.086 34.8073 293.086L35.0965 293.499L33.1289 293.389L29.4123 294.229L28.1182 292.344L28.5854 291.133L29.4105 290.72L31.6055 292.178L32.2173 292.866L31.9705 290.718L30.65 290.278L28.8886 290.332L29.7402 289.426Z" fill="#D9D8F8"/>
<path d="M34.0897 298.344L38.7407 296.748L38.3563 296.582H36.4152L35.7399 295.812L35.9056 294.683L32.3548 295.262L30.8138 296.692L33.3456 295.701L35.0946 295.757V296.514L34.5304 297.794L33.7317 298.344H34.0897Z" fill="#D9D8F8"/>
<path d="M33.0442 288.049L34.0068 288.627L36.4293 289.592L36.5933 289.177L35.6853 287.636L34.6398 287.086L34.4476 287.499L35.9885 288.902L33.5943 287.196L33.0442 288.049Z" fill="#D9D8F8"/>
<path d="M27.896 296.513C28.0053 296.582 28.9415 297.161 28.9415 297.161L29.1619 297.684L27.4552 297.793L28.3085 297.298L27.896 296.513Z" fill="#D9D8F8"/>
<path d="M32.4376 300.079L34.5568 299.308H37.0886L39.5393 298.014L39.2907 298.344L36.5932 300.354L35.218 300.904L32.4376 300.079Z" fill="#D9D8F8"/>
<path d="M37.5841 290.059L38.136 289.592L40.2816 290.858L38.136 290.609L37.5841 290.059Z" fill="#D9D8F8"/>
<path d="M38.7407 291.159L38.9329 291.737L41.1632 292.427L41.4665 293.003L42.1823 293.555L42.6495 292.922L41.3554 291.628L38.7407 291.159Z" fill="#D9D8F8"/>
<path d="M35.6024 291.429L37.3091 294.38V295.262L39.7051 296.514L40.696 295.151L40.3927 293.555L39.8426 294.229L38.2735 292.922L36.9247 292.358L36.759 289.921H36.3182L35.6024 291.429Z" fill="#D9D8F8"/>
<path d="M23.2573 295.343L29.4175 343.151H53.4678L62.2744 295.343H23.2573Z" fill="#534741"/>
<path d="M52.3676 295.343L50.608 343.151H53.4678L62.2744 295.343H52.3676Z" fill="#3B322E"/>
<path d="M150.286 25.2154L117.436 -15.2598" stroke="#073340" stroke-width="2.06612" stroke-miterlimit="10"/>
<path d="M291.01 25.2153L323.858 -15.2598" stroke="#073340" stroke-width="2.06612" stroke-miterlimit="10"/>
<path d="M308.708 22.2833H132.586V32.8424H308.708V22.2833Z" fill="#7B7991"/>
<path d="M132.586 32.8425L141.823 36.0689H305.189L308.708 32.8425H132.586Z" fill="white"/>
<path d="M308.708 32.5481H132.586L121.22 52.7865H320.075L308.708 32.5481Z" fill="url(#paint9_linear_1_2738)"/>
<path d="M146.464 231.449C146.464 231.449 142.8 244.718 146.122 253.198C146.122 253.198 146.388 253.863 147.282 253.96C148.177 254.057 146.888 247.84 147.407 245.947C147.407 245.947 148.749 253.983 149.785 255.404C149.785 255.404 150.572 256.433 151.848 256.229C153.042 256.039 153.842 254.877 153.68 253.664C153.4 251.571 152.932 247.479 153.204 245.211C153.204 245.211 154.535 253.826 155.025 253.833C155.025 253.833 155.993 254.51 156.497 253.526C157.002 252.542 155.829 244.18 155.228 240.948C155.228 240.948 156.547 242.117 157.513 242.904C157.513 242.904 160.395 244.402 160.052 242.082L157.407 238.889L154.553 235.484L154.336 231.722C154.339 231.722 149.411 230.23 146.464 231.449Z" fill="url(#paint10_linear_1_2738)"/>
<path d="M151.628 255.069C151.628 255.069 149.854 247.943 149.928 244.508L151.628 255.069Z" fill="url(#paint11_linear_1_2738)"/>
<path d="M146.869 330.404L130.374 331.77L130.365 331.772L128.577 331.92C128.577 331.92 120.247 315.86 117.764 269.351C117.445 263.373 117.052 237.967 116.955 230.953L122.382 233.349L154.225 232.824C154.225 232.82 157.904 300.923 146.869 330.404Z" fill="#444444"/>
<path d="M144.205 176.455C144.205 176.455 156.275 187.671 158.167 217.653C158.167 217.653 159.248 229.807 156.411 234.668H154.299L144.205 176.455Z" fill="#D7D7D7"/>
<path d="M142.842 176.455C142.842 176.455 154.912 187.671 156.804 217.653C156.804 217.653 157.885 229.807 155.048 234.668H152.936L142.842 176.455Z" fill="#AAAAAA"/>
<path d="M155.171 230.601C155.171 233.228 154.251 233.649 154.251 233.649C140.379 239.534 116.955 235.613 116.955 235.613C105.904 234.396 109.146 210.034 109.146 210.034C106.985 211.654 105.049 213.735 97.6666 211.034C96.0534 210.445 94.4278 208.629 92.8798 206.108C87.3385 197.086 82.8003 179.034 83.4861 175.788C84.6198 170.437 94.6994 170.744 94.6994 170.744C94.6994 170.744 102.573 185.825 105.095 186.726C107.157 187.463 111.814 182.437 113.801 180.055C114.12 179.67 114.368 179.237 114.594 178.791C115.576 176.841 123.692 173.581 123.692 173.581C123.693 173.577 128.06 169.48 128.06 169.48L139.007 170.701C156.041 183.847 155.171 230.601 155.171 230.601Z" fill="#D7D7D7"/>
<path d="M160.189 139.798C160.189 139.798 159.706 143.855 156.873 143.915L156.642 142.163C143.611 148.52 132.602 142.163 132.602 142.163L130 154.222L121.371 154.465C121.371 154.465 113.459 154.333 113.869 143.381C113.959 140.95 114.906 138.612 116.604 136.87C117.559 135.888 118.778 135.038 120.227 134.832C120.227 134.832 122.547 130.648 127.933 127.448C127.935 127.446 127.937 127.446 127.937 127.444C127.939 127.443 127.939 127.443 127.939 127.443C131.756 125.175 137.11 123.398 144.268 123.953C144.268 123.955 160.9 124.348 160.189 139.798Z" fill="#231F20"/>
<path d="M156.642 142.162C156.642 142.162 160.425 165.336 149.39 168.489C149.39 168.489 144.819 169.986 139.931 168.489C139.931 168.489 138.276 171.248 139.064 172.824L141.113 174.321L138.196 178.893L134.57 175.03C134.57 175.03 129.367 174.321 127.713 170.774C127.713 170.774 129.605 164.862 128.265 159.896C128.265 159.896 121.722 161.079 121.17 152.88C121.17 152.88 120.855 146.732 127.554 147.125C127.554 147.125 127.791 153.037 129.998 154.22L132.599 142.161C132.602 142.162 143.558 148.074 156.642 142.162Z" fill="url(#paint12_linear_1_2738)"/>
<path d="M134.573 175.032C134.573 175.032 131.525 183.255 131.736 186.093C131.736 186.093 125.957 181.574 123.697 172.272L128.062 169.48L127.717 170.776C127.715 170.776 128.686 173.954 134.573 175.032Z" fill="white"/>
<path d="M141.114 174.321L143.891 183.272L144.311 174.164L139.007 170.702C139.007 170.702 138.583 172.184 139.066 172.824L141.114 174.321Z" fill="white"/>
<path d="M132.332 182.142C132.332 182.142 139.662 187.327 143.108 180.746L141.116 174.321L138.2 178.893L134.573 175.03C134.573 175.032 132.325 181.53 132.332 182.142Z" fill="#D7D7D7"/>
<path d="M85.5577 173.091C85.6424 173.625 80.2209 161.604 82.1215 151.613C82.1215 151.613 82.289 150.916 83.1617 150.694C84.0344 150.472 83.6448 156.808 84.4276 158.607C84.4276 158.607 84.611 150.463 85.4343 148.908C85.4343 148.908 86.0655 147.776 87.3596 147.797C88.5691 147.817 89.5265 148.852 89.5388 150.075C89.56 152.186 89.6816 156.304 90.2722 158.508C90.2722 158.508 90.3639 149.793 90.847 149.716C90.847 149.716 91.7092 148.908 92.3474 149.811C92.9874 150.712 93.0174 159.157 92.8834 162.442C92.8834 162.442 94.0223 161.096 94.8668 160.181C94.8668 160.181 97.5062 158.288 97.4974 160.633L95.3341 164.169L92.9944 167.946L93.3171 171.7C93.3136 171.698 88.6502 173.875 85.5577 173.091Z" fill="url(#paint13_linear_1_2738)"/>
<path d="M87.305 148.977C87.305 148.977 86.5645 156.283 87.1269 159.674L87.305 148.977Z" fill="#C72E28"/>
<path d="M139.459 331.319C141.137 328.224 141.573 248.968 141.573 248.968L141.663 331.137L139.459 331.319Z" fill="#353535"/>
<path d="M130.374 332.07C130.374 332.07 127.741 337.167 127.532 338.849C127.532 338.849 116.706 335.74 114.499 345.755H138.145V331.426L130.374 332.07Z" fill="#231F20"/>
<path d="M144.767 330.878L151.282 337.955C151.282 337.955 165.535 334.446 165.061 345.755H139.459L139.667 331.322" fill="#231F20"/>
<path d="M149.136 150.588C149.209 150.417 149.44 150.394 149.542 150.548C150.171 151.496 151.871 154.204 151.677 155.492C151.492 156.731 149.551 156.558 148.729 156.426C148.516 156.392 148.357 156.213 148.352 155.996C148.331 155.049 148.348 152.445 149.136 150.588Z" fill="#F48E86"/>
<path d="M151.282 337.957C151.282 337.957 147.814 339.074 147.183 340.171" stroke="#231F20" stroke-width="6.19835" stroke-miterlimit="10"/>
<path d="M127.531 338.849C127.531 338.849 131.105 340.162 131.971 341.738" stroke="#231F20" stroke-width="6.19835" stroke-miterlimit="10"/>
<path d="M114.86 344.443H138.145V345.755H114.499L114.86 344.443Z" fill="#958E90"/>
<path d="M139.478 344.443H165.062V345.755H139.459L139.478 344.443Z" fill="#958E90"/>
<path d="M143.48 150.292C143.48 151.295 143.054 152.11 142.527 152.11C141.999 152.11 141.573 151.297 141.573 150.292C141.573 149.289 141.999 148.474 142.527 148.474C143.054 148.474 143.48 149.289 143.48 150.292Z" fill="#231F20"/>
<path d="M153.486 151.879C154.013 151.879 154.44 151.065 154.44 150.061C154.44 149.057 154.013 148.243 153.486 148.243C152.959 148.243 152.532 149.057 152.532 150.061C152.532 151.065 152.959 151.879 153.486 151.879Z" fill="#231F20"/>
<path d="M138.695 147.103L146.116 146.704C146.116 146.704 146.282 146.032 145.638 145.555C145.638 145.555 143.768 144.915 140.275 145.502C136.782 146.089 138.695 147.103 138.695 147.103Z" fill="#231F20"/>
<path d="M158.449 146.843L151.018 146.752C151.018 146.752 150.825 146.087 151.448 145.583C151.448 145.583 153.29 144.865 156.806 145.31C160.32 145.752 158.449 146.843 158.449 146.843Z" fill="#231F20"/>
<path d="M140.561 160.038C140.561 160.038 141.677 162.771 148.502 162.771" stroke="#F48E86" stroke-width="2.06612" stroke-miterlimit="10"/>
<path d="M139.933 168.489C139.933 168.489 134.818 167.122 132.611 162.568C132.611 162.568 132.979 169.383 139.066 172.824C139.066 172.824 138.671 170.871 139.933 168.489Z" fill="#F48E86"/>
<path d="M121.17 136.54C121.17 136.54 116.285 137.695 115.971 142.635C115.971 142.635 114.372 151.477 121.373 154.465C121.373 154.465 113.46 154.333 113.871 143.381C113.961 140.95 114.908 138.612 116.606 136.87C117.561 135.888 118.78 135.038 120.229 134.832C120.229 134.832 122.549 130.648 127.935 127.448C127.724 127.635 120.909 133.746 121.17 136.54Z" fill="#3A3A3A"/>
<path d="M130.374 332.07L130.365 332.071L128.577 332.22C128.577 332.22 120.246 316.16 117.764 269.651L118.536 263.283C118.536 263.283 124.439 320.825 130.374 332.07Z" fill="#353535"/>
<path d="M119.298 195.91C117.702 202.933 109.146 210.034 109.146 210.034C106.985 211.655 105.049 213.735 97.6667 211.034C96.0534 210.445 94.4279 208.629 92.8799 206.108C106.459 215.496 119.298 195.91 119.298 195.91Z" fill="#AAAAAA"/>
<path d="M136.677 178.893H139.933L138.304 181.405L136.677 178.893Z" fill="#AAAAAA"/>
<path d="M138.304 181.405L136.271 223L141.663 229.481L147.541 222.166L138.304 181.405Z" fill="#BC4040"/>
<path d="M378.232 468.4L397.497 523.86L244.807 518.997L266.595 462.053L378.232 468.4Z" fill="#CEAA86"/>
<path d="M426.417 417.038C426.417 417.038 457.458 489.469 475.283 501.712L489.507 512.174L484.105 524.759L460.337 521.878L457.096 511.975C457.096 511.975 408.968 452.619 404.311 434.311L426.417 417.038Z" fill="url(#paint14_linear_1_2738)"/>
<path d="M428.108 414.328C412.984 440.203 388.135 435.989 388.135 435.989L378.232 468.4C353.057 480.796 333.367 486.125 318.029 487.274C275.886 490.437 266.595 462.053 266.595 462.053L289.409 391.426C269.01 390.345 229.322 366.307 229.322 366.307L248.035 319.243L251.469 310.602C308.729 334.303 349.497 327.884 349.497 327.884L381.768 330.372C425.639 319.014 419.195 351.181 419.195 351.181C414.604 373.329 428.108 414.328 428.108 414.328Z" fill="#BD2043"/>
<path d="M351.165 312.605L349.509 327.149C330.288 342.791 344.818 372.402 368.164 365.923C391.155 359.542 381.687 330.813 381.687 330.813C381.85 323.566 389.755 293.515 389.755 293.515C396.843 300.884 425.745 294.787 423.606 269.387C420.726 235.176 404.313 224.782 404.313 224.782C395.364 255.372 383.993 241.65 383.993 241.65L388.135 218.25C350.077 210.445 350.23 187.521 350.23 187.521C343.201 189.216 334.921 193.228 334.921 193.228C334.921 193.228 316.698 202.289 309.094 227.037C306.702 234.827 304.93 241.542 303.632 247.084C302.923 250.102 302.354 252.771 301.899 255.078C300.527 262.012 300.185 265.684 300.185 265.684C300.185 265.684 294.871 297.402 331.607 308.213C338.072 310.497 351.165 312.605 351.165 312.605Z" fill="url(#paint15_linear_1_2738)"/>
<path d="M346.818 292.683C341.415 299.758 328.423 298.047 319.138 289.831C315.424 286.549 313.944 284.647 312.958 280.154C312.958 280.154 312.423 275.22 312.432 274.866C312.505 271.982 313.214 271.654 316.112 271.958C323.739 272.757 345.153 275.023 348.277 276.812C351.326 278.553 353.395 281.33 350.235 287.445C349.447 288.969 348.33 290.7 346.818 292.683Z" fill="#231F20"/>
<path d="M346.837 292.623C341.472 299.725 328.28 298.825 318.448 289.21C325.292 279.649 345.38 285.522 350.226 287.368C349.445 288.895 348.335 290.634 346.837 292.623Z" fill="#B62325"/>
<path d="M318.303 232.511C319.065 229.208 318.484 226.254 317.006 225.913C315.528 225.572 313.712 227.973 312.95 231.276C312.188 234.579 312.769 237.533 314.247 237.874C315.725 238.215 317.541 235.814 318.303 232.511Z" fill="#231F20"/>
<path d="M356.805 240.864C357.567 237.561 356.986 234.607 355.508 234.266C354.03 233.925 352.214 236.326 351.452 239.629C350.69 242.932 351.27 245.885 352.749 246.226C354.227 246.567 356.043 244.167 356.805 240.864Z" fill="#202322"/>
<path d="M351.128 313.554C351.128 313.554 364.793 315.347 372.02 310.602C372.02 310.602 359.696 324.192 349.497 327.884L351.128 313.554Z" fill="#F48E86"/>
<path d="M251.469 310.603L232.023 298.425L290.723 197.144C290.723 197.144 295.945 176.164 286.581 160.86C286.581 160.86 280.28 156.359 280.46 180.487C280.46 180.487 272.549 137.092 262.099 129.17C262.099 129.17 257.593 128.811 259.752 138.534L265.694 157.452C265.694 157.452 253.629 132.772 245.887 132.772C245.887 132.772 232.924 140.514 234.544 148.437L245.528 169.334L230.222 162.121C230.222 162.121 226.261 164.464 233.463 171.574C240.665 178.685 253.991 200.653 253.991 200.653C253.991 200.653 256.512 208.215 251.29 214.878L201.953 291.477C201.953 291.477 194.391 299.686 203.933 309.589L239.093 341.73L251.469 310.603Z" fill="url(#paint16_linear_1_2738)"/>
<path d="M404.313 371.439L391.384 436.236L388.135 435.99L404.313 371.439Z" fill="#9B1E45"/>
<path d="M441.999 271.409C441.999 271.409 417.975 303.339 394.42 299.784C394.42 299.784 385.042 299.765 390.411 296.265C391.062 295.842 392.31 293.428 394.681 290.934C394.681 290.934 417.652 283.321 418.46 262.534C418.46 262.534 418.46 262.502 418.458 262.444C418.434 261.73 418.178 256.786 415.54 252.269C415.509 252.214 415.48 252.162 415.443 252.11C414.317 250.222 412.767 248.417 410.635 247.042C410.625 247.033 410.611 247.026 410.598 247.017C408.673 245.777 406.272 244.887 403.282 244.598C403.282 244.598 403.278 244.596 403.269 244.598C403.2 244.593 402.836 244.568 402.199 244.619C402.18 244.619 402.157 244.623 402.134 244.624C400.499 244.765 397.18 245.4 392.634 248.018C392.634 248.018 385.792 254.355 387.155 261.028C386.858 260.679 367.981 238.298 370.992 215.121L366.146 229.3C366.146 229.3 341.068 210.456 335.288 196.406C335.288 196.406 331.602 196.619 326.709 199.946C322.813 202.589 318.155 207.199 313.98 215.239C312.717 217.67 311.501 220.414 310.36 223.515C310.342 223.561 310.325 223.608 310.309 223.654C310.309 223.654 310.309 223.654 310.307 223.651C310.136 223.506 301.382 216.071 300.06 205.501C298.752 195.034 304.734 181.488 333.582 168.919C333.582 168.919 360.663 160.564 391.122 167.528C391.125 167.526 391.13 167.528 391.134 167.528C408.841 171.578 427.688 180.804 443.023 199.853C443.025 199.856 468.597 233.51 441.999 271.409Z" fill="#010101"/>
<path d="M324.881 265.808C329.345 265.993 331.365 264.473 331.365 264.473C337.46 256.287 326.57 246.192 326.333 245.97C326.33 245.966 326.33 245.966 326.33 245.966C326.33 245.966 317.587 246.477 315.979 256.576C314.367 266.679 324.881 265.808 324.881 265.808Z" fill="#EE8780"/>
<path d="M326.325 206.915C326.325 206.915 331.397 213.164 326.757 218.966C322.116 224.768 292.235 216.09 292.235 216.09C292.235 216.09 289.176 204.729 326.325 206.915Z" fill="#231F20"/>
<path d="M349.088 210.278C349.088 210.278 342.03 214.146 344.134 221.271C346.237 228.397 377.183 231.653 377.183 231.653C377.183 231.653 384.309 222.288 349.088 210.278Z" fill="#231F20"/>
<path d="M349.497 327.884C321.663 338.618 248.035 319.243 248.035 319.243L251.469 310.602C308.729 334.303 349.497 327.884 349.497 327.884Z" fill="#DB1C50"/>
<path d="M388.135 435.989L378.232 468.4C353.057 480.797 333.366 486.125 318.029 487.274C366.576 474.816 388.135 435.989 388.135 435.989Z" fill="#9B1E45"/>
<path d="M263.457 382.554L245.753 437.689C244.332 442.118 245.256 446.965 248.206 450.56L264.149 469.978L290.349 390.505L263.457 382.554Z" fill="#6C99AD"/>
<path d="M248.282 429.815L239.715 422.373L251.87 393.365C251.87 393.365 257.489 386.048 261.836 387.6L248.282 429.815Z" fill="#AB203E"/>
<path d="M260.512 408.6L277.797 419.944L263.457 453.975C263.457 453.975 253.269 453.827 250.775 441.82L260.512 408.6Z" fill="#AB203E"/>
<path d="M260.512 408.6C260.512 408.6 263.053 416.701 267.723 419.133C272.395 421.564 272.395 421.564 272.395 421.564L277.798 419.944L260.512 408.6Z" fill="#7C394B"/>
<path d="M320.02 326.964C320.02 326.964 322.756 464.645 295.416 484.428C295.416 484.428 317.772 491.661 329.655 484.971C341.538 478.282 333.976 326.962 333.976 326.962H320.02V326.964Z" fill="#7C394B"/>
<path d="M322.432 326.964C322.432 326.964 325.168 464.645 297.828 484.428C297.828 484.428 320.184 491.661 332.067 484.971C343.95 478.282 336.388 326.962 336.388 326.962H322.432V326.964Z" fill="#6C99AD"/>
<path d="M405.254 327.521C405.254 327.521 396.279 411.842 379.173 467.48L363.129 474.753L397.165 326.964L405.254 327.521Z" fill="#7C394B"/>
<path d="M407.092 327.517C407.092 327.517 398.116 411.421 381.01 466.783L364.966 474.021L399.003 326.964L407.092 327.517Z" fill="#6C99AD"/>
<path d="M261.364 315.083L237.603 369.835" stroke="white" stroke-width="2.06612"/>
<path d="M392.562 428.719L425.62 411.157" stroke="white" stroke-width="2.06612"/>
</g>
</g>
<defs>
<linearGradient id="paint0_linear_1_2738" x1="220.648" y1="-15.4629" x2="220.648" y2="442.5" gradientUnits="userSpaceOnUse">
<stop stop-color="#F3D8C3"/>
<stop offset="1" stop-color="#F3E7DD"/>
</linearGradient>
<linearGradient id="paint1_linear_1_2738" x1="220.647" y1="297.958" x2="220.647" y2="345.516" gradientUnits="userSpaceOnUse">
<stop stop-color="#F3D8C3"/>
<stop offset="1" stop-color="#F3E7DD"/>
</linearGradient>
<linearGradient id="paint2_linear_1_2738" x1="220.647" y1="64.9501" x2="220.647" y2="228.902" gradientUnits="userSpaceOnUse">
<stop stop-color="#30542A"/>
<stop offset="1" stop-color="#7A9E39"/>
</linearGradient>
<linearGradient id="paint3_linear_1_2738" x1="477.722" y1="230.925" x2="436.525" y2="375.118" gradientUnits="userSpaceOnUse">
<stop stop-color="#991D03"/>
<stop offset="1" stop-color="#C05A2C"/>
</linearGradient>
<linearGradient id="paint4_linear_1_2738" x1="313.488" y1="238.608" x2="301.901" y2="354.48" gradientUnits="userSpaceOnUse">
<stop stop-color="#D1563C"/>
<stop offset="1" stop-color="#F8A27B"/>
</linearGradient>
<linearGradient id="paint5_linear_1_2738" x1="390.912" y1="216.752" x2="437.274" y2="379.017" gradientUnits="userSpaceOnUse">
<stop stop-color="#D1563C"/>
<stop offset="1" stop-color="#F8A27B"/>
</linearGradient>
<linearGradient id="paint6_linear_1_2738" x1="320.427" y1="313.781" x2="359.674" y2="320.462" gradientUnits="userSpaceOnUse">
<stop stop-color="#D1563C"/>
<stop offset="1" stop-color="#F8A27B"/>
</linearGradient>
<linearGradient id="paint7_linear_1_2738" x1="511.811" y1="239.747" x2="469.763" y2="386.914" gradientUnits="userSpaceOnUse">
<stop stop-color="#D1563C"/>
<stop offset="1" stop-color="#F8A27B"/>
</linearGradient>
<linearGradient id="paint8_linear_1_2738" x1="265.796" y1="234.412" x2="306.702" y2="377.583" gradientUnits="userSpaceOnUse">
<stop stop-color="#D1563C"/>
<stop offset="1" stop-color="#F8A27B"/>
</linearGradient>
<linearGradient id="paint9_linear_1_2738" x1="220.647" y1="27.5624" x2="220.647" y2="49.5641" gradientUnits="userSpaceOnUse">
<stop stop-color="#F3D8C3"/>
<stop offset="1" stop-color="#F3E7DD" stop-opacity="0"/>
</linearGradient>
<linearGradient id="paint10_linear_1_2738" x1="154.241" y1="264.014" x2="149.083" y2="208.613" gradientUnits="userSpaceOnUse">
<stop offset="0.6882" stop-color="#F9BBA7"/>
<stop offset="1" stop-color="#F48E86"/>
</linearGradient>
<linearGradient id="paint11_linear_1_2738" x1="149.924" y1="249.787" x2="151.627" y2="249.787" gradientUnits="userSpaceOnUse">
<stop offset="0.6882" stop-color="#F9BBA7"/>
<stop offset="1" stop-color="#F48E86"/>
</linearGradient>
<linearGradient id="paint12_linear_1_2738" x1="138.868" y1="174.707" x2="139.408" y2="139.73" gradientUnits="userSpaceOnUse">
<stop offset="0.6882" stop-color="#F9BBA7"/>
<stop offset="1" stop-color="#F48E86"/>
</linearGradient>
<linearGradient id="paint13_linear_1_2738" x1="89.7438" y1="153.633" x2="89.2036" y2="171.459" gradientUnits="userSpaceOnUse">
<stop offset="0.6882" stop-color="#F9BBA7"/>
<stop offset="1" stop-color="#F48E86"/>
</linearGradient>
<linearGradient id="paint14_linear_1_2738" x1="404.313" y1="470.898" x2="489.508" y2="470.898" gradientUnits="userSpaceOnUse">
<stop offset="0.6882" stop-color="#F9BBA7"/>
<stop offset="1" stop-color="#F48E86"/>
</linearGradient>
<linearGradient id="paint15_linear_1_2738" x1="282.024" y1="360.711" x2="391.723" y2="233.804" gradientUnits="userSpaceOnUse">
<stop offset="0.6882" stop-color="#F9BBA7"/>
<stop offset="1" stop-color="#F48E86"/>
</linearGradient>
<linearGradient id="paint16_linear_1_2738" x1="199.11" y1="235.448" x2="292.174" y2="235.448" gradientUnits="userSpaceOnUse">
<stop offset="0.6882" stop-color="#F9BBA7"/>
<stop offset="1" stop-color="#F48E86"/>
</linearGradient>
<clipPath id="clip0_1_2738">
<rect width="500" height="500" rx="250" fill="white"/>
</clipPath>
<clipPath id="clip1_1_2738">
<rect width="528.926" height="528.926" fill="white" transform="translate(-21.6942 -14.4628)"/>
</clipPath>
</defs>
</svg>
