<svg width="500" height="500" viewBox="0 0 500 500" fill="none" xmlns="http://www.w3.org/2000/svg">
<g clip-path="url(#clip0_1_3107)">
<rect width="500" height="500" rx="250" fill="white"/>
<path d="M142.592 332.806L142.356 333.042C139.166 326.073 137.158 318.158 136.331 309.417C137.158 318.04 139.403 325.837 142.592 332.806Z" fill="#DFDFDF"/>
<path d="M218.431 230.864C233.958 230.864 246.545 218.277 246.545 202.75C246.545 187.222 233.958 174.635 218.431 174.635C202.904 174.635 190.317 187.222 190.317 202.75C190.317 218.277 202.904 230.864 218.431 230.864Z" fill="#DFDFDF"/>
<path d="M303.365 131.872H204.374C161.376 131.872 135.742 157.506 135.742 200.504V299.495C135.742 312.371 137.987 323.593 142.357 333.043C152.516 355.487 174.252 368.127 204.374 368.127H303.365C346.363 368.127 371.996 342.493 371.996 299.495V272.444V200.504C371.996 157.506 346.363 131.872 303.365 131.872ZM352.742 255.906C343.528 247.991 328.644 247.991 319.43 255.906L270.289 298.077C261.075 305.992 246.191 305.992 236.977 298.077L232.961 294.77C224.574 287.446 211.225 286.737 201.775 293.116L157.596 322.766C154.997 316.151 153.461 308.472 153.461 299.495V200.504C153.461 167.192 171.062 149.591 204.374 149.591H303.365C336.676 149.591 354.277 167.192 354.277 200.504V257.205L352.742 255.906Z" fill="#DFDFDF"/>
<g clip-path="url(#clip1_1_3107)">
<path d="M498.967 -22.5699H-21.6943V498.091H498.967V-22.5699Z" fill="url(#paint0_linear_1_3107)"/>
<path d="M412.339 26.1987H227.142V286.106H412.339V26.1987Z" fill="#474747"/>
<path d="M413.504 29.6785H234.053V289.586H413.504V29.6785Z" fill="#636261"/>
<path d="M314.809 44.3473H247.323V152.292H314.809V44.3473Z" fill="#ADDEE5"/>
<path d="M314.809 167.556H247.323V275.502H314.809V167.556Z" fill="#ADDEE5"/>
<path d="M400.999 168.237H333.513V276.182H400.999V168.237Z" fill="#ADDEE5"/>
<path d="M400.999 44.3473H333.513V152.292H400.999V44.3473Z" fill="#ADDEE5"/>
<path d="M247.323 270.963H309.639V167.557H314.811V275.504H247.323V270.963Z" fill="#474747"/>
<path d="M247.323 147.754H309.639V44.3473H314.811V152.294H247.323V147.754Z" fill="#474747"/>
<path d="M333.513 147.754H395.829V44.3474H401.001V152.294H333.513V147.754Z" fill="#474747"/>
<path d="M333.513 271.644H395.829V168.237H401.001V276.184H333.513V271.644Z" fill="#474747"/>
<path d="M242.264 26.1987H57.0662V286.106H242.264V26.1987Z" fill="#474747"/>
<path d="M243.428 29.6785H63.9771V289.586H243.428V29.6785Z" fill="#636261"/>
<path d="M144.735 44.3473H77.2485V152.292H144.735V44.3473Z" fill="#ADDEE5"/>
<path d="M144.735 167.556H77.2485V275.502H144.735V167.556Z" fill="#ADDEE5"/>
<path d="M230.925 168.237H163.439V276.182H230.925V168.237Z" fill="#ADDEE5"/>
<path d="M230.925 44.3473H163.439V152.292H230.925V44.3473Z" fill="#ADDEE5"/>
<path d="M77.2485 270.963H139.563V167.557H144.735V275.504H77.2485V270.963Z" fill="#474747"/>
<path d="M77.2485 147.754H139.563V44.3473H144.735V152.294H77.2485V147.754Z" fill="#474747"/>
<path d="M163.439 147.754H225.753V44.3474H230.925V152.294H163.439V147.754Z" fill="#474747"/>
<path d="M163.439 271.644H225.753V168.237H230.925V276.184H163.439V271.644Z" fill="#474747"/>
<path d="M315.496 319.871H139.548V500H315.496V319.871Z" fill="#5E5148"/>
<path d="M324.025 308.397H127.041V320.789H324.025V308.397Z" fill="#756356"/>
<path d="M131.033 418.777H30.5454V428.149H131.033V418.777Z" fill="#756356"/>
<path d="M46.6858 348.835L46.6858 256.505H30.5453L30.5453 348.835H46.6858Z" fill="#756356"/>
<path d="M43.9092 418.777L43.9092 348.141H34.7108L34.7108 418.777H43.9092Z" fill="#5E5148"/>
<path d="M43.9092 500L43.9092 428.149H34.7108L34.7108 500H43.9092Z" fill="#5E5148"/>
<path d="M130.339 500V428.149H121.141L121.141 500H130.339Z" fill="#5E5148"/>
<path d="M453.062 219.538C464.42 219.538 473.628 210.33 473.628 198.971C473.628 187.613 464.42 178.405 453.062 178.405C441.704 178.405 432.496 187.613 432.496 198.971C432.496 210.33 441.704 219.538 453.062 219.538Z" fill="#444444"/>
<path d="M459.94 380.248H448.614C439.999 380.248 433.017 373.264 433.017 364.651V233.92C433.017 225.305 440 218.323 448.614 218.323H459.94C468.555 218.323 475.537 225.306 475.537 233.92V364.651C475.537 373.264 468.553 380.248 459.94 380.248Z" fill="#444444"/>
<path d="M334.612 403.18V391.854C334.612 383.239 341.595 376.257 350.209 376.257H458.031C466.646 376.257 473.628 383.24 473.628 391.854V403.18C473.628 411.795 466.644 418.777 458.031 418.777H350.209C341.595 418.777 334.612 411.793 334.612 403.18Z" fill="#444444"/>
<path d="M416.008 418.257H399.868V486.29H416.008V418.257Z" fill="#BCBCBC"/>
<path d="M415.098 478.295L405.849 465.067L350.089 504.049L359.338 517.278L415.098 478.295Z" fill="#BCBCBC"/>
<path d="M461.715 518.67L470.781 505.315L414.49 467.101L405.424 480.455L461.715 518.67Z" fill="#BCBCBC"/>
<path d="M426.236 351.475H426.234C423.174 362.532 416.229 373.162 401.603 377.992C343.445 397.196 335.786 399.9 335.196 400.111C335.181 400.117 335.17 400.12 335.165 400.122L335.158 400.123L335.155 400.125L324.025 500H315.498V361.903L354.818 332.097L426.588 316.977C426.588 316.977 430.875 334.716 426.236 351.475Z" fill="#444444"/>
<path d="M360.471 230.818L362.727 228.215L384.036 221.613C412.287 229.27 422.405 273.936 422.405 273.936L428.331 327.314C420.088 339.781 395.026 334.617 395.026 334.617C346.934 335.471 354.82 332.097 354.82 332.097C353.13 323.998 354.398 313.777 354.398 313.777C359.605 300.76 360.82 297.463 360.82 297.463C360.82 297.463 360.823 281.515 360.82 281.496C353.343 249.298 360.471 230.818 360.471 230.818Z" fill="#D7D7D7"/>
<path d="M327.85 165.793C327.85 165.793 328.735 173.23 333.929 173.343L334.355 170.13C358.246 181.786 378.43 170.13 378.43 170.13L383.2 192.241L399.021 192.687C399.021 192.687 413.528 192.444 412.775 172.365C412.608 167.909 410.874 163.62 407.763 160.428C406.01 158.629 403.776 157.07 401.121 156.69C401.121 156.69 396.867 149.021 386.993 143.151C386.99 143.149 386.988 143.148 386.987 143.146C386.985 143.144 386.985 143.144 386.985 143.144C379.987 138.986 370.167 135.73 357.043 136.749C357.042 136.745 326.548 137.467 327.85 165.793Z" fill="#231F20"/>
<path d="M374.817 230.391C374.817 230.391 384.356 229.091 387.389 222.587C387.389 222.587 383.922 211.748 386.377 202.644C386.377 202.644 398.372 204.811 399.384 189.781C399.384 189.781 399.961 178.509 387.677 179.231C387.677 179.231 387.243 190.07 383.198 192.237L378.429 170.127C378.429 170.127 358.342 180.965 334.351 170.127C334.351 170.127 327.414 212.614 347.647 218.395C347.647 218.395 356.03 221.141 364.989 218.395C364.989 218.395 368.024 223.453 366.578 226.344L362.821 229.09C362.823 229.091 359.313 233.958 374.817 230.391Z" fill="url(#paint1_linear_1_3107)"/>
<path d="M333.709 188.18C333.575 187.867 333.152 187.824 332.964 188.107C331.81 189.847 328.695 194.809 329.049 197.17C329.389 199.443 332.949 199.124 334.454 198.884C334.844 198.822 335.134 198.492 335.144 198.096C335.188 196.359 335.156 191.585 333.709 188.18Z" fill="#F48E86"/>
<path d="M336.79 190.768C337.733 190.564 338.184 188.941 337.796 187.142C337.409 185.343 336.33 184.049 335.386 184.253C334.442 184.456 333.992 186.079 334.379 187.878C334.767 189.677 335.846 190.971 336.79 190.768Z" fill="#231F20"/>
<path d="M334.165 178.752L347.789 178.584C347.789 178.584 348.142 177.367 347 176.441C347 176.441 343.621 175.125 337.177 175.937C330.734 176.751 334.165 178.752 334.165 178.752Z" fill="#231F20"/>
<path d="M364.99 218.397C364.99 218.397 374.368 215.893 378.415 207.543C378.415 207.543 377.74 220.035 366.58 226.346C366.58 226.346 367.302 222.765 364.99 218.397Z" fill="#F48E86"/>
<path d="M399.391 159.819C399.391 159.819 408.348 161.938 408.924 170.994C408.924 170.994 411.855 187.206 399.021 192.685C399.021 192.685 413.528 192.442 412.775 172.364C412.608 167.907 410.875 163.618 407.763 160.427C406.01 158.627 403.776 157.068 401.121 156.688C401.121 156.688 396.867 149.019 386.994 143.149C387.375 143.493 399.87 154.696 399.391 159.819Z" fill="#3A3A3A"/>
<path d="M354.391 209.35C353.638 212.704 348.631 214.239 343.859 212.897C341.951 212.361 341.089 211.941 339.964 210.535C339.964 210.535 338.928 208.902 338.871 208.777C338.404 207.758 338.607 207.529 339.709 207.159C342.614 206.188 350.773 203.464 352.212 203.576C353.616 203.683 354.841 204.313 354.739 206.963C354.711 207.625 354.601 208.411 354.391 209.35Z" fill="#231F20"/>
<path d="M354.388 209.325C353.652 212.684 348.711 214.534 343.503 212.793C344.355 208.334 352.649 207.087 354.723 206.937C354.699 207.597 354.593 208.385 354.388 209.325Z" fill="#B62325"/>
<path d="M387.719 285.835C387.719 285.835 382.217 304.947 358.17 312.639H358.166C344.98 316.858 326.217 317.642 299.727 309.959C299.727 309.959 277.686 292.796 299.727 284.715C321.769 276.637 353.008 277.504 353.008 277.504C353.008 277.504 361.82 229.452 384.835 228.921C388.004 228.849 390.355 229.874 392.053 231.698C394.482 234.307 395.576 238.552 395.817 243.547C396.629 260.411 387.719 285.835 387.719 285.835Z" fill="#D7D7D7"/>
<path d="M426.234 351.475C423.174 362.532 416.229 373.162 401.603 377.992C343.445 397.196 335.787 399.9 335.196 400.111L335.165 400.122L335.158 400.123L426.234 351.475Z" fill="#353535"/>
<path d="M387.719 285.835C387.719 285.835 382.217 304.946 358.17 312.638H358.166C393.351 299.696 392.053 231.698 392.053 231.698L395.817 243.547C396.629 260.411 387.719 285.835 387.719 285.835Z" fill="#B5B5B5"/>
<path d="M292.681 293.501C292.681 293.501 268.758 291.388 261.023 302.669L258.942 308.397H297.921L292.681 293.501Z" fill="url(#paint2_linear_1_3107)"/>
<path d="M358.215 234.289L361.754 224.747L389.284 218.322L396.31 227.654L358.215 234.289Z" fill="white"/>
<path d="M134.547 378.466L130.701 411.835L130.688 411.944L130.276 415.504L130.068 417.316L129.761 419.966C129.761 419.966 129.474 419.905 128.898 419.784C125.557 419.069 109.721 421.358 86.5945 415.664C75.2354 412.868 67.6754 412.942 63.6924 404.136C63.1335 402.9 62.6528 401.555 62.2432 400.127C57.7343 384.434 61.6809 358.794 61.6809 358.794L134.547 378.466Z" fill="#CEAA86"/>
<path d="M130.276 415.504L130.068 417.316L129.761 419.966C129.761 419.966 129.474 419.905 128.898 419.784C125.557 419.069 109.721 421.358 86.5945 415.664C75.2354 412.868 67.6754 412.942 63.6923 404.136C63.1335 402.901 62.6528 401.556 62.2432 400.127L130.276 415.504Z" fill="#A38C78"/>
<path d="M112.091 283.527L112.084 283.522L95.5812 279.971C72.4708 286.51 64.1923 324.652 64.1923 324.652L60.7698 361.406C67.5123 372.051 86.5911 376.468 86.5911 376.468C119.769 386.227 119.483 374.316 119.483 374.316C120.866 367.4 118.291 352.537 118.291 352.537C117.76 342.778 121.663 330.004 121.663 330.004C121.663 330.004 121.677 330.039 121.68 330.024C127.796 302.529 112.091 283.527 112.091 283.527Z" fill="#145677"/>
<path d="M91.9383 283.103C96.2407 296.148 116.425 302.09 115.054 293.31C113.681 284.53 108.818 283.05 108.818 283.05C107.669 281.12 108.966 273.754 108.966 273.754C108.966 273.754 120.476 279.051 135.058 275.139C149.64 271.229 149.721 254.139 149.721 254.139C151.915 254.203 152.899 253.445 152.899 253.445C155.844 249.387 150.435 244.493 150.318 244.385C150.317 244.384 150.317 244.384 150.317 244.384C151.025 235.149 145.509 222.37 145.509 222.37C134.723 198.756 100.732 221.07 100.732 221.07L100.531 239.276C95.2983 235.36 91.4367 236.771 88.9775 238.929C86.7647 240.873 85.5047 243.667 85.3294 246.607C84.6508 258.032 93.6235 260.033 93.6235 260.033C99.1737 272.987 91.9383 283.103 91.9383 283.103Z" fill="url(#paint3_linear_1_3107)"/>
<path d="M71.6985 250.295C71.6985 250.295 81.959 266.94 95.3868 266.022C95.3868 266.022 95.3816 265.998 95.3747 265.953C95.3018 265.517 94.9443 263.023 95.4094 259.5C95.4094 259.5 84.9007 258.235 85.345 246.34C85.345 246.34 85.3468 246.322 85.3502 246.289C85.3953 245.883 85.7529 243.075 87.4346 240.623C87.4554 240.593 87.4728 240.564 87.4953 240.536C88.2121 239.512 89.1632 238.556 90.4232 237.87C90.4284 237.865 90.4371 237.861 90.4458 237.858C91.5843 237.242 92.9762 236.846 94.6735 236.822C94.6735 236.822 94.6753 236.822 94.6805 236.822C94.7204 236.822 94.9269 236.825 95.2827 236.884C95.2931 236.886 95.307 236.888 95.3191 236.891C96.2338 237.049 98.0769 237.568 100.526 239.276C100.526 239.276 104.108 243.214 103.051 246.956C103.233 246.77 114.84 234.892 114.145 221.53L116.264 229.847C116.264 229.847 131.212 220.279 135.075 212.536C135.075 212.536 137.144 212.831 139.756 214.961C141.838 216.653 144.263 219.501 146.268 224.284C146.873 225.732 147.441 227.353 147.949 229.175C147.956 229.201 147.965 229.231 147.972 229.257C147.972 229.257 147.972 229.257 147.974 229.255C148.076 229.18 153.331 225.352 154.534 219.385C155.725 213.475 152.939 205.466 137.225 196.937C137.225 196.937 122.326 190.894 104.859 193.433C104.858 193.432 104.854 193.433 104.852 193.433C94.6996 194.909 83.6789 199.286 74.2115 209.428C74.215 209.428 58.3487 227.422 71.6985 250.295Z" fill="#231F20"/>
<path d="M144.003 237.844C144.864 237.65 145.234 236.04 144.831 234.248C144.428 232.455 143.404 231.159 142.544 231.352C141.683 231.546 141.313 233.156 141.716 234.948C142.119 236.741 143.143 238.037 144.003 237.844Z" fill="#231F20"/>
<path d="M136.961 218.38C136.961 218.38 142.008 219.866 141.658 224.709C141.307 229.553 122.001 235.949 122.001 235.949C122.001 235.949 116.147 230.961 136.961 218.38Z" fill="#231F20"/>
<path d="M127.758 264.111C128.459 267.366 133.128 268.855 137.578 267.551C139.357 267.031 140.16 266.624 141.208 265.26C141.208 265.26 142.175 263.676 142.229 263.554C142.665 262.567 142.475 262.343 141.448 261.985C138.741 261.043 131.134 258.402 129.792 258.509C128.484 258.613 127.342 259.224 127.437 261.796C127.46 262.437 127.562 263.2 127.758 264.111Z" fill="#231F20"/>
<path d="M127.76 264.087C128.445 267.345 133.052 269.139 137.909 267.451C137.114 263.126 129.383 261.916 127.449 261.77C127.47 262.413 127.569 263.176 127.76 264.087Z" fill="#B62325"/>
<path d="M149.721 254.139C151.915 254.203 152.899 253.445 152.899 253.445C155.844 249.387 150.435 244.493 150.318 244.385C150.316 244.384 150.316 244.384 150.316 244.384C150.316 244.384 146.025 244.686 145.294 249.658C144.561 254.63 149.721 254.139 149.721 254.139Z" fill="#EE8780"/>
<path opacity="0.46" d="M148.704 246.355C150.738 246.215 152.035 241.015 151.602 234.741C151.169 228.467 149.169 223.496 147.135 223.636C145.101 223.776 143.804 228.976 144.237 235.25C144.67 241.524 146.67 246.496 148.704 246.355Z" fill="#62C7D1"/>
<path d="M148.704 246.355C150.738 246.215 152.035 241.015 151.602 234.741C151.169 228.467 149.169 223.496 147.135 223.636C145.101 223.776 143.804 228.976 144.237 235.25C144.67 241.524 146.67 246.496 148.704 246.355Z" stroke="#9C7A2C" stroke-width="1.03306" stroke-miterlimit="10"/>
<path d="M144.2 234.309L101.862 241.339" stroke="#9C7A2C" stroke-width="1.03306" stroke-miterlimit="10"/>
<path d="M108.966 273.754C108.966 273.754 103.356 271.347 100.911 268.884C100.911 268.884 104.011 277.82 108.398 281.408C108.398 281.408 108.263 276.359 108.966 273.754Z" fill="#EE8780"/>
<path d="M104.861 193.433C139.365 190.991 154.534 219.394 154.534 219.394C154.536 219.392 154.536 219.388 154.537 219.385C155.728 213.475 152.942 205.466 137.229 196.937C137.229 196.937 122.328 190.894 104.861 193.433Z" fill="#3A3A3A"/>
<path d="M88.8144 292.505C88.8144 292.505 95.9735 287.255 99.6858 290.24C99.9583 290.459 104.943 305.717 103.745 322.15C102.548 338.582 98.8857 342.414 98.8857 342.414L73.047 330.201C73.047 330.201 72.0387 308.369 88.8144 292.505Z" fill="white"/>
<path d="M92.5821 339.753L89.2256 351.35L118.745 376.569C118.745 376.569 127.02 372.551 126.477 372.086C125.932 371.621 138.402 381.963 135.594 385.216C132.786 388.468 128.867 395.492 121.89 389.626C114.913 383.759 87.6653 370.257 73.9077 355.097L78.3004 331.924L92.5821 339.753Z" fill="url(#paint4_linear_1_3107)"/>
<path d="M134.24 377.852L139.537 379.207V485.596L129.782 417.198L134.24 377.852Z" fill="url(#paint5_linear_1_3107)"/>
</g>
</g>
<defs>
<linearGradient id="paint0_linear_1_3107" x1="249.789" y1="483.112" x2="225.329" y2="-55.0077" gradientUnits="userSpaceOnUse">
<stop stop-color="#F9F0D2"/>
<stop offset="1" stop-color="#F6DB97"/>
</linearGradient>
<linearGradient id="paint1_linear_1_3107" x1="366.863" y1="224.65" x2="365.957" y2="166.009" gradientUnits="userSpaceOnUse">
<stop offset="0.6882" stop-color="#F9BBA7"/>
<stop offset="1" stop-color="#F48E86"/>
</linearGradient>
<linearGradient id="paint2_linear_1_3107" x1="258.942" y1="300.87" x2="297.92" y2="300.87" gradientUnits="userSpaceOnUse">
<stop offset="0.6882" stop-color="#F9BBA7"/>
<stop offset="1" stop-color="#F48E86"/>
</linearGradient>
<linearGradient id="paint3_linear_1_3107" x1="136.249" y1="290.933" x2="103.673" y2="219.954" gradientUnits="userSpaceOnUse">
<stop offset="0.6129" stop-color="#F8BBA7"/>
<stop offset="0.9088" stop-color="#EE8780"/>
</linearGradient>
<linearGradient id="paint4_linear_1_3107" x1="78.5875" y1="331.725" x2="123.864" y2="395.43" gradientUnits="userSpaceOnUse">
<stop offset="0.6129" stop-color="#F8BBA7"/>
<stop offset="0.9088" stop-color="#EE8780"/>
</linearGradient>
<linearGradient id="paint5_linear_1_3107" x1="129.782" y1="431.723" x2="139.537" y2="431.723" gradientUnits="userSpaceOnUse">
<stop offset="0.6129" stop-color="#F8BBA7"/>
<stop offset="0.9088" stop-color="#EE8780"/>
</linearGradient>
<clipPath id="clip0_1_3107">
<rect width="500" height="500" rx="250" fill="white"/>
</clipPath>
<clipPath id="clip1_1_3107">
<rect width="520.661" height="520.661" fill="white" transform="translate(-21.6943 -20.661)"/>
</clipPath>
</defs>
</svg>
