<svg width="24" height="24" viewBox="0 0 24 24" fill="none" xmlns="http://www.w3.org/2000/svg">
<g clip-path="url(#clip0_5_575)">
<path d="M4.51966 5.93401L1.39266 2.80801L2.80766 1.39301L22.6067 21.193L21.1917 22.607L17.8817 19.297C16.1229 20.4126 14.0824 21.0033 11.9997 21C6.60766 21 2.12166 17.12 1.18066 12C1.61069 9.67072 2.78229 7.5429 4.52066 5.93401H4.51966ZM14.7567 16.172L13.2927 14.708C12.7327 14.9759 12.1034 15.0635 11.4916 14.9588C10.8798 14.854 10.3155 14.5621 9.87653 14.1231C9.4376 13.6842 9.14563 13.1199 9.04088 12.5081C8.93613 11.8962 9.02375 11.267 9.29166 10.707L7.82766 9.24301C7.19138 10.2045 6.90693 11.3563 7.02249 12.5035C7.13805 13.6507 7.64652 14.7226 8.46178 15.5379C9.27705 16.3532 10.349 16.8616 11.4962 16.9772C12.6433 17.0927 13.7952 16.8083 14.7567 16.172V16.172ZM7.97366 3.76001C9.22066 3.27001 10.5797 3.00001 11.9997 3.00001C17.3917 3.00001 21.8777 6.88001 22.8187 12C22.5122 13.6657 21.8235 15.2376 20.8067 16.592L16.9467 12.732C17.0613 11.9596 16.9935 11.1711 16.7486 10.4297C16.5037 9.68821 16.0885 9.01442 15.5364 8.46227C14.9843 7.91013 14.3105 7.49498 13.569 7.25008C12.8276 7.00518 12.0391 6.93735 11.2667 7.05201L7.97366 3.76101V3.76001Z" fill="black"/>
</g>
<defs>
<clipPath id="clip0_5_575">
<rect width="24" height="24" fill="white"/>
</clipPath>
</defs>
</svg>
