<svg width="24" height="24" viewBox="0 0 24 24" fill="none" xmlns="http://www.w3.org/2000/svg">
<g clip-path="url(#clip0_4_346)">
<path opacity="0.99" fill-rule="evenodd" clip-rule="evenodd" d="M12.3047 -0.0234375C12.5391 -0.0234375 12.7735 -0.0234375 13.0078 -0.0234375C13.5214 0.138674 13.8574 0.482423 14.0156 1.00781C14.0313 4.03906 14.0469 7.0703 14.0625 10.1016C14.1555 10.5334 14.3977 10.6506 14.7891 10.4531C14.8224 10.3943 14.8615 10.3396 14.9063 10.2891C14.9219 7.57031 14.9375 4.85156 14.9531 2.13281C15.1729 1.16697 15.7745 0.76853 16.7578 0.9375C17.1989 1.08162 17.5036 1.37069 17.6719 1.80469C17.7338 4.89638 17.765 7.99013 17.7656 11.0859C17.8646 11.4203 18.0755 11.5375 18.3985 11.4375C18.5067 11.3608 18.5771 11.2592 18.6094 11.1328C18.625 9.00783 18.6407 6.8828 18.6563 4.75781C18.8576 4.0669 19.3186 3.6919 20.0391 3.63281C20.7887 3.69021 21.2496 4.08083 21.4219 4.80469C21.4532 9.19533 21.4532 13.5859 21.4219 17.9766C21.0458 21.589 19.0536 23.589 15.4453 23.9766C14.7266 23.9766 14.0078 23.9766 13.2891 23.9766C11.5536 23.8486 9.9911 23.2627 8.60159 22.2188C8.2969 21.9141 7.99221 21.6094 7.68752 21.3047C5.96909 18.8056 4.29719 16.2743 2.6719 13.7109C2.35255 12.8855 2.51661 12.1745 3.16409 11.5781C4.09887 11.0807 4.91918 11.2291 5.62502 12.0234C6.26566 12.8985 6.90626 13.7734 7.5469 14.6484C7.56251 10.7265 7.57816 6.8047 7.59377 2.88281C7.86387 2.08737 8.41859 1.7358 9.25784 1.82812C9.92632 2.00138 10.2935 2.43106 10.3594 3.11719C10.375 5.50781 10.3907 7.89844 10.4063 10.2891C10.6196 10.6158 10.8696 10.6471 11.1563 10.3828C11.2184 7.35539 11.2497 4.32416 11.25 1.28906C11.319 0.619045 11.6706 0.181544 12.3047 -0.0234375Z" fill="white"/>
</g>
<defs>
<clipPath id="clip0_4_346">
<rect width="24" height="24" fill="white"/>
</clipPath>
</defs>
</svg>
