<svg width="500" height="438" viewBox="0 0 500 438" fill="none" xmlns="http://www.w3.org/2000/svg">
<path d="M463.081 342.343C458.732 338.806 453.516 336.389 449.754 332.191C441.722 323.218 441.834 307.901 432.315 300.673C420.397 291.617 403.487 301.828 389.023 298.786C380.405 296.97 373.465 290.603 366.222 285.403C358.978 280.215 349.91 275.923 341.596 278.918C333.654 281.783 328.281 290.733 319.944 291.841C313.534 292.69 307.631 288.599 301.526 286.382C287.793 281.394 271.2 286.889 262.739 299.223C241.212 293.421 239.195 256.491 217.622 250.878C211.336 249.239 204.092 250.642 198.82 246.716C194.033 243.143 192.681 236.481 191.678 230.432C189.053 214.514 186.429 198.584 183.804 182.665C180.83 164.613 177.259 145.322 164.811 132.387C147.969 114.877 118.815 115.384 98.9539 129.027C79.082 142.669 67.5239 166.523 62.263 190.695C58.2075 183.632 45.9622 185.094 43.5289 192.924C29.2221 188.278 24.378 163.269 9.50787 165.214C5.19328 165.78 2.12913 168.421 0 172.112V388.636C90.1783 383.071 181.213 392.657 268.496 416.935C297.763 425.071 327.436 434.952 357.649 432.665C398.655 429.564 436.9 404.248 477.928 407.007C480.091 383.931 480.621 356.611 463.069 342.367L463.081 342.343Z" fill="#F9F0D3"/>
<path d="M17.027 289.569C12.4036 276.113 13.1028 260.73 18.9441 247.805C21.1092 243.02 24.3568 238.235 29.2171 236.782C34.0773 235.329 40.3584 239.204 39.7382 244.461C36.9303 228.866 39.8284 212.219 47.7108 198.656C49.9774 194.746 53.1348 190.788 57.4763 190.268C61.8178 189.748 66.3736 195.135 63.8251 198.845C66.1932 190.941 68.6853 182.789 73.8274 176.48C78.9583 170.171 87.4722 166.119 94.9373 168.883C100.677 171.01 104.568 176.563 107.601 182.104C116.588 198.538 121.144 217.583 120.625 236.522C128.598 229.031 142.401 235.187 146.99 245.324C151.58 255.461 149.787 267.358 147.892 278.393C153.159 271.989 163.341 271.93 169.893 276.881C176.434 281.831 179.636 290.526 180.076 298.974C180.516 307.421 178.565 315.774 176.625 323.985C183.177 323.536 189.864 326.431 194.217 331.57C198.446 321.41 209.361 314.782 219.882 315.987C230.404 317.192 239.684 326.136 241.714 337.017C245.503 331.239 255.246 331.759 258.449 337.915C260.027 324.801 265.474 312.218 273.864 302.341C276.705 298.997 280.325 295.76 284.599 295.76C288.873 295.76 293.011 300.9 290.767 304.716C290.407 295.618 300.15 288.565 308.72 290.03C317.301 291.495 323.898 299.281 326.841 307.847C329.785 316.412 329.739 325.746 329.661 334.855C334.769 329.574 343.779 334.997 346.666 341.884C349.552 348.772 349.474 356.901 353.341 363.245C357.209 369.578 366.186 362.146 370.538 364.498C377.451 366.27 374.643 377.848 380.563 381.073C386.495 384.299 393.272 385.409 399.373 388.268C413.638 394.956 422.264 410.055 430 424.279C377.067 420.191 323.842 420.428 270.954 425L19.0343 424.126C15.7528 381.215 30.965 330.058 17.0383 289.558L17.027 289.569Z" fill="#229982"/>
<path d="M280 308C281.105 308 282 307.105 282 306C282 304.895 281.105 304 280 304C278.895 304 278 304.895 278 306C278 307.105 278.895 308 280 308Z" fill="#6FB2BB"/>
<path d="M289.5 319C290.328 319 291 318.105 291 317C291 315.895 290.328 315 289.5 315C288.672 315 288 315.895 288 317C288 318.105 288.672 319 289.5 319Z" fill="#6FB2BB"/>
<path d="M306 300C307.657 300 309 298.657 309 297C309 295.343 307.657 294 306 294C304.343 294 303 295.343 303 297C303 298.657 304.343 300 306 300Z" fill="#6FB2BB"/>
<path d="M313 307C314.105 307 315 306.105 315 305C315 303.895 314.105 303 313 303C311.895 303 311 303.895 311 305C311 306.105 311.895 307 313 307Z" fill="#6FB2BB"/>
<path d="M300 310C301.105 310 302 309.105 302 308C302 306.895 301.105 306 300 306C298.895 306 298 306.895 298 308C298 309.105 298.895 310 300 310Z" fill="#6FB2BB"/>
<path d="M308.5 319C309.328 319 310 318.328 310 317.5C310 316.672 309.328 316 308.5 316C307.672 316 307 316.672 307 317.5C307 318.328 307.672 319 308.5 319Z" fill="#6FB2BB"/>
<path d="M334 344C335.105 344 336 343.105 336 342C336 340.895 335.105 340 334 340C332.895 340 332 340.895 332 342C332 343.105 332.895 344 334 344Z" fill="#6FB2BB"/>
<path d="M341 348C342.657 348 344 346.657 344 345C344 343.343 342.657 342 341 342C339.343 342 338 343.343 338 345C338 346.657 339.343 348 341 348Z" fill="#6FB2BB"/>
<path d="M335.5 355C336.328 355 337 354.105 337 353C337 351.895 336.328 351 335.5 351C334.672 351 334 351.895 334 353C334 354.105 334.672 355 335.5 355Z" fill="#6FB2BB"/>
<path d="M89.5 224C90.3284 224 91 223.328 91 222.5C91 221.672 90.3284 221 89.5 221C88.6716 221 88 221.672 88 222.5C88 223.328 88.6716 224 89.5 224Z" fill="#6FB2BB"/>
<path d="M104.5 221C105.881 221 107 219.881 107 218.5C107 217.119 105.881 216 104.5 216C103.119 216 102 217.119 102 218.5C102 219.881 103.119 221 104.5 221Z" fill="#6FB2BB"/>
<path d="M112 222C113.657 222 115 220.657 115 219C115 217.343 113.657 216 112 216C110.343 216 109 217.343 109 219C109 220.657 110.343 222 112 222Z" fill="#6FB2BB"/>
<path d="M96.5 233C97.8807 233 99 231.657 99 230C99 228.343 97.8807 227 96.5 227C95.1193 227 94 228.343 94 230C94 231.657 95.1193 233 96.5 233Z" fill="#6FB2BB"/>
<path d="M99.5 241C100.328 241 101 240.328 101 239.5C101 238.672 100.328 238 99.5 238C98.6716 238 98 238.672 98 239.5C98 240.328 98.6716 241 99.5 241Z" fill="#6FB2BB"/>
<path d="M112.5 243C114.433 243 116 241.433 116 239.5C116 237.567 114.433 236 112.5 236C110.567 236 109 237.567 109 239.5C109 241.433 110.567 243 112.5 243Z" fill="#6FB2BB"/>
<path d="M140 251C141.657 251 143 249.657 143 248C143 246.343 141.657 245 140 245C138.343 245 137 246.343 137 248C137 249.657 138.343 251 140 251Z" fill="#6FB2BB"/>
<path d="M129 257C130.105 257 131 256.105 131 255C131 253.895 130.105 253 129 253C127.895 253 127 253.895 127 255C127 256.105 127.895 257 129 257Z" fill="#6FB2BB"/>
<path d="M127.5 264C128.328 264 129 263.328 129 262.5C129 261.672 128.328 261 127.5 261C126.672 261 126 261.672 126 262.5C126 263.328 126.672 264 127.5 264Z" fill="#6FB2BB"/>
<path d="M139.5 264C140.881 264 142 262.881 142 261.5C142 260.119 140.881 259 139.5 259C138.119 259 137 260.119 137 261.5C137 262.881 138.119 264 139.5 264Z" fill="#6FB2BB"/>
<path d="M138.5 270C139.881 270 141 268.881 141 267.5C141 266.119 139.881 265 138.5 265C137.119 265 136 266.119 136 267.5C136 268.881 137.119 270 138.5 270Z" fill="#6FB2BB"/>
<path d="M135.5 280C136.881 280 138 278.881 138 277.5C138 276.119 136.881 275 135.5 275C134.119 275 133 276.119 133 277.5C133 278.881 134.119 280 135.5 280Z" fill="#6FB2BB"/>
<path d="M165 288C166.105 288 167 287.105 167 286C167 284.895 166.105 284 165 284C163.895 284 163 284.895 163 286C163 287.105 163.895 288 165 288Z" fill="#6FB2BB"/>
<path d="M163.5 298C164.881 298 166 296.881 166 295.5C166 294.119 164.881 293 163.5 293C162.119 293 161 294.119 161 295.5C161 296.881 162.119 298 163.5 298Z" fill="#6FB2BB"/>
<path d="M160 305C161.105 305 162 304.105 162 303C162 301.895 161.105 301 160 301C158.895 301 158 301.895 158 303C158 304.105 158.895 305 160 305Z" fill="#6FB2BB"/>
<path d="M174 304C176.209 304 178 302.209 178 300C178 297.791 176.209 296 174 296C171.791 296 170 297.791 170 300C170 302.209 171.791 304 174 304Z" fill="#6FB2BB"/>
<path d="M166 316C167.657 316 169 314.433 169 312.5C169 310.567 167.657 309 166 309C164.343 309 163 310.567 163 312.5C163 314.433 164.343 316 166 316Z" fill="#6FB2BB"/>
<path d="M170 326C171.657 326 173 324.657 173 323C173 321.343 171.657 320 170 320C168.343 320 167 321.343 167 323C167 324.657 168.343 326 170 326Z" fill="#6FB2BB"/>
<path d="M359 374C360.105 374 361 373.105 361 372C361 370.895 360.105 370 359 370C357.895 370 357 370.895 357 372C357 373.105 357.895 374 359 374Z" fill="#6FB2BB"/>
<path d="M367.5 380C368.881 380 370 378.657 370 377C370 375.343 368.881 374 367.5 374C366.119 374 365 375.343 365 377C365 378.657 366.119 380 367.5 380Z" fill="#6FB2BB"/>
<path d="M49 210C50.6569 210 52 208.657 52 207C52 205.343 50.6569 204 49 204C47.3431 204 46 205.343 46 207C46 208.657 47.3431 210 49 210Z" fill="#6FB2BB"/>
<path d="M47 216C48.1046 216 49 215.105 49 214C49 212.895 48.1046 212 47 212C45.8954 212 45 212.895 45 214C45 215.105 45.8954 216 47 216Z" fill="#6FB2BB"/>
<path d="M59.5 214C60.3284 214 61 213.328 61 212.5C61 211.672 60.3284 211 59.5 211C58.6716 211 58 211.672 58 212.5C58 213.328 58.6716 214 59.5 214Z" fill="#6FB2BB"/>
<path d="M53 224C54.6569 224 56 222.433 56 220.5C56 218.567 54.6569 217 53 217C51.3431 217 50 218.567 50 220.5C50 222.433 51.3431 224 53 224Z" fill="#6FB2BB"/>
<path d="M49.5 232C50.8807 232 52 230.881 52 229.5C52 228.119 50.8807 227 49.5 227C48.1193 227 47 228.119 47 229.5C47 230.881 48.1193 232 49.5 232Z" fill="#6FB2BB"/>
<path d="M59.3987 280.539C60.5506 270.141 61.9961 259.79 63.4303 249.439C63.9611 245.63 64.4805 241.821 65 238C61.9735 238.733 59.0825 240.236 56.6997 242.318C51.4259 246.931 48.422 253.863 46.9765 260.902C46.3667 260.476 45.7004 260.133 45.0003 259.873C44.4017 266.722 43.8032 273.56 43.4531 280.397C42.6965 294.912 43.0466 309.462 43.3628 324.001C47.6202 324.64 51.8777 325.314 56.1351 326C57.4225 310.87 57.7274 295.645 59.3987 280.551V280.539Z" fill="#165672"/>
<path d="M109.101 301.303C111.392 292.23 114.04 282.947 118 274.413C117.677 274.202 117.344 274.003 116.988 273.827C111.915 271.224 105.24 272.69 101.592 277.226C102.526 273.205 102.348 268.821 100.935 265C100.868 265.27 100.791 265.539 100.724 265.797C98.2988 274.542 96.2741 283.404 94.6945 292.359C92.4474 304.972 90.9011 317.773 90 330.609C94.1383 331.382 98.2765 332.191 102.404 333C103.961 322.298 106.486 311.701 109.101 301.303Z" fill="#165672"/>
<path d="M136 341.035C144.689 342.933 153.356 344.914 162 347C161.158 334.202 154.96 322.517 148.898 311.301C148.659 310.867 148.42 310.434 148.181 310C145.793 315.297 143.507 320.653 141.368 326.068C139.435 330.967 137.626 335.96 136 341.035Z" fill="#165672"/>
<path d="M141.334 322.267C143.145 317.629 145.001 312.991 147 308.436C146.083 306.85 145.023 305.371 143.642 304.262C143.521 304.167 143.399 304.095 143.278 304C138.771 315.852 134.784 327.943 132 340.344C132.939 340.559 133.867 340.785 134.806 341C136.75 334.645 138.959 328.396 141.345 322.267H141.334Z" fill="#165672"/>
<path d="M135 290.35C134.921 290.209 134.854 290.08 134.776 289.939C132.409 286.069 126.014 284.881 123.905 288.904C124.646 285.116 123.636 281.082 121.449 278C117.657 286.528 116.143 296.608 113.686 305.253C110.971 314.828 108.615 324.52 107 334.33C111.33 335.2 115.649 336.094 119.979 337C123.558 320.921 128.179 305.124 135 290.339V290.35Z" fill="#165672"/>
<path d="M136.944 303.754C137.389 299.828 137.767 295.594 136.422 292C129.911 306.577 125.456 322.102 122 337.913C125.189 338.6 128.367 339.288 131.544 340C134.378 327.558 138.422 315.413 143 303.517C141.033 302.532 138.667 302.402 136.944 303.754Z" fill="#165672"/>
<path d="M113.39 303.722C115.839 295.083 117.299 285.23 121 276.815C120.451 276.155 119.836 275.542 119.177 275C115.081 284.016 112.412 293.881 110.139 303.451C107.778 313.339 105.472 323.357 104 333.481C104.835 333.646 105.68 333.835 106.515 334C108.151 323.77 110.567 313.669 113.39 303.71V303.722Z" fill="#165672"/>
<path d="M93.4164 291.079C95.1675 281.713 97.2256 272.334 100 263.229C99.3746 261.948 98.6014 260.751 97.6577 259.672C97.1119 259.055 96.4978 258.51 95.8611 258C93.2117 267.793 91.8359 278.061 90.1758 287.949C87.8675 301.762 83.74 316.025 84.0129 330.194C85.4683 330.455 86.9124 330.727 88.3678 331C89.3116 317.602 90.9603 304.216 93.4164 291.079Z" fill="#165672"/>
<path d="M89.1432 288.507C90.8407 278.193 92.2458 267.488 95 257.292C94.2356 256.794 93.4374 256.344 92.6056 256C89.8514 265.389 87.9853 275.099 86.108 284.701C83.2639 299.248 79.5879 314.422 80.0376 329.419C81.0831 329.609 82.1285 329.81 83.174 330C82.9829 316.07 86.8949 302.117 89.1432 288.507Z" fill="#165672"/>
<path d="M85.4884 284.375C87.3601 274.782 89.243 265.094 92 255.737C88.705 254.676 85.0737 254.876 82.1262 256.752C85.791 250.699 82.6529 241.802 76.5672 238.546C74.9758 237.696 73.2722 237.201 71.5239 237C70.5376 241.472 69.4281 245.92 68.5875 250.369C66.5813 260.965 64.7545 271.619 63.5777 282.357C61.9975 296.799 61.65 311.324 61 325.826C67.1305 326.829 73.261 327.903 79.3803 329C78.9657 314.038 82.6529 298.876 85.4772 284.386L85.4884 284.375Z" fill="#165672"/>
<path d="M62.6337 282.604C63.8272 272.509 65.5005 262.486 67.4545 252.51C68.4608 247.374 69.8182 242.214 71 237.019C69.748 236.959 68.4726 237.042 67.2205 237.255C66.7759 240.486 66.3429 243.729 65.8749 246.959C64.2952 257.977 62.6454 268.995 61.405 280.048C59.6967 295.207 59.3573 310.497 58 325.692C58.6436 325.787 59.2871 325.905 59.9307 326C60.5977 311.515 60.937 297.006 62.6337 282.592V282.604Z" fill="#165672"/>
<path d="M43.2178 323C42.8733 308.266 42.4931 293.497 43.3842 278.786C43.7763 272.287 44.3941 265.776 45 259.254C43.3604 258.89 41.6139 258.914 39.9862 259.348C40.3545 280.346 38.9882 301.368 39.0001 322.378C40.402 322.578 41.8159 322.789 43.2178 322.988V323Z" fill="#165672"/>
<path d="M38.9338 260C38.474 260.201 38.0371 260.426 37.6233 260.698C34.5195 262.709 32.7261 266.696 33.2549 270.435C29.5993 266.188 22.1732 266.401 18.759 270.849C16.1494 274.245 16.0345 278.941 16.023 283.272C16.023 295.517 16.0115 307.774 16 320.019C23.3342 320.941 30.6569 321.947 37.9797 323C37.9797 302 39.2787 280.988 38.9453 260.012L38.9338 260Z" fill="#165672"/>
<path d="M217.019 342.16C216.357 342.041 215.673 341.981 215 342.005C216.677 351.571 217.544 361.268 218 371C218 361.375 217.738 351.761 217.019 342.16Z" fill="#165672"/>
<path d="M251.767 392.458C252.567 383.21 253.356 373.951 254 364.691C251.4 363.343 248.256 363.178 245.822 364.916C247.033 358.885 244.6 352.191 239.889 348.596C239.056 347.958 238.156 347.426 237.211 347C237.144 358.329 236.056 369.646 235.056 380.928C234.578 386.415 234.289 391.938 234 397.472C235.944 398.738 237.956 399.885 240.078 400.831C243.511 402.38 247.067 403.373 250.7 404C251.056 400.121 251.456 396.266 251.778 392.47L251.767 392.458Z" fill="#165672"/>
<path d="M269 371.145C268.48 370.783 267.959 370.422 267.428 370.107C264.668 368.475 260.166 368.486 259.307 371.646C259.216 368.871 257.587 366.492 255.348 365C254.703 373.931 253.912 382.839 253.131 391.758C252.792 395.559 252.373 399.419 252 403.301C257.214 404.059 262.587 404.106 267.959 403.884C268.174 392.971 268.559 382.058 269 371.156V371.145Z" fill="#165672"/>
<path d="M275.889 374.467C275.889 374.467 275.788 374.467 275.732 374.467C273.608 374.467 271.798 373.286 270 372C269.584 382.663 269.214 393.326 269 404C271.326 403.883 273.653 403.731 275.968 403.556C276.069 393.863 275.901 384.159 275.878 374.455L275.889 374.467Z" fill="#165672"/>
<path d="M290 357C289.715 357.163 289.454 357.338 289.205 357.537C286.263 359.953 285.172 363.84 283.594 367.283C283.571 367.342 283.535 367.4 283.511 367.447C281.744 379.235 280.617 391.094 280 403C280.51 402.965 281.032 402.93 281.53 402.895C282.954 402.802 284.389 402.72 285.813 402.638C286.738 387.394 288.185 372.174 289.988 357H290Z" fill="#165672"/>
<path d="M334.16 386.799C335.376 379.225 336.356 371.379 338 363.758C334.678 361.625 330.163 361.708 326.965 364.055C326.346 360.558 324.533 357.382 322.033 355C317.292 370.384 314.421 386.324 312 402.372C318.565 402.407 325.118 402.621 331.672 403C332.482 397.596 333.293 392.203 334.16 386.81V386.799Z" fill="#165672"/>
<path d="M346.945 387.643C347.585 383.562 348.169 379.317 349 375.119C346.867 374.381 344.52 374.474 342.634 375.846C343.622 371.942 342.173 367.533 339.164 365C337.48 372.774 336.492 380.795 335.257 388.487C334.482 393.376 333.741 398.266 333 403.156C336.818 403.379 340.635 403.66 344.453 404C345.283 398.536 346.092 393.072 346.934 387.631L346.945 387.643Z" fill="#165672"/>
<path d="M353 379.154C352.135 377.812 350.881 376.718 349.46 376C348.551 380.72 347.929 385.51 347.208 390.088C346.442 394.937 345.732 399.798 345 404.659C346.087 404.765 347.175 404.882 348.262 405C349.216 396.279 350.803 387.616 353 379.154Z" fill="#165672"/>
<path d="M358.989 383.298C357.668 383.155 356.337 383.131 354.994 383.262C355.12 382.119 354.925 381.024 354.534 380C352.445 388.107 350.93 396.381 350 404.726C350.838 404.81 351.676 404.917 352.514 405C354.305 397.643 356.44 390.381 359 383.298H358.989Z" fill="#165672"/>
<path d="M372 390.955C368.537 387.376 364.124 384.823 359.405 384C356.87 391.086 354.765 398.351 353 405.712C356.395 406.093 359.778 406.523 363.162 407C365.855 401.501 368.775 396.132 371.989 390.955H372Z" fill="#165672"/>
<path d="M365 406.577C369.996 407.28 374.981 408.079 379.943 409C380.424 402.338 377.805 395.857 373.529 391C370.431 396.027 367.607 401.236 365 406.577Z" fill="#165672"/>
<path d="M311.927 378.322C310.887 386.521 310.444 394.766 310 403C310.128 403 310.245 403 310.374 403C312.931 386.71 315.967 370.526 321 354.922C319.295 353.573 317.333 352.556 315.243 352C313.597 360.695 313.024 369.71 311.938 378.322H311.927Z" fill="#165672"/>
<path d="M306.263 382.827C306.653 372.567 306.764 362.2 308 352C303.802 353.034 299.994 355.911 297.89 359.941C297.288 356.946 293.781 356.03 290.986 357.029C289.26 372.65 287.891 388.307 287 404C293.313 403.62 299.638 403.417 305.962 403.358C305.907 396.498 305.996 389.639 306.252 382.827H306.263Z" fill="#165672"/>
<path d="M314.757 351.198C313.157 350.928 311.535 350.94 309.947 351.198C308.44 362.063 308.29 373.209 308.116 384.063C308.023 390.046 307.977 396.017 308.012 402C308.568 402 309.124 401.988 309.692 401.988C309.704 401.707 309.727 401.415 309.738 401.134C310.19 392.364 310.978 383.7 311.987 374.989C312.879 367.215 313.505 359.101 315 351.256C314.919 351.244 314.849 351.221 314.768 351.209L314.757 351.198Z" fill="#165672"/>
<path d="M279.009 403.872C279.557 392.872 280.516 381.907 282 371C280.71 372.878 279.032 374.429 277 374.908C277.011 384.601 277.194 394.306 277.091 404C277.731 403.953 278.37 403.907 279.009 403.86V403.872Z" fill="#165672"/>
<path d="M232.33 394.988C233.085 378.56 233.222 362.097 234 345.669C230.569 345.202 226.989 345.844 224.016 347.655C223.215 344.781 220.802 342.818 218 342C219.052 355.998 219.109 370.031 218.789 384.075C223.238 387.849 227.618 391.728 232.33 395V394.988Z" fill="#165672"/>
<path d="M234.891 346.012C234.022 362.917 233.869 379.869 233 396.762C233.128 396.845 233.256 396.929 233.383 397C233.728 391.294 234.061 385.599 234.636 379.952C235.773 368.837 236.962 357.686 237 346.523C236.31 346.309 235.607 346.143 234.891 346V346.012Z" fill="#165672"/>
<path d="M213.594 342.012C212.645 342.14 211.73 342.398 210.873 342.807C206.061 345.112 203.374 350.694 203.008 356.123C201.602 352.016 194.961 352.414 192.904 356.217C190.846 360.019 192.549 364.981 195.533 368.07C198.516 371.17 202.517 372.949 206.198 375.125C210.027 377.384 213.559 380.133 217 383C216.794 369.24 216.028 355.503 213.605 342L213.594 342.012Z" fill="#165672"/>
<path d="M500 438C431.944 403.55 351.893 384.492 271.605 385.119C259.96 385.214 247.965 385.651 237.019 382.435C224.19 378.664 214.349 370.353 204.665 362.562C147.893 316.846 76.7254 279.653 0 264V438H500Z" fill="#EBA987"/>
<path d="M444 438C381.59 403.061 312.614 383.648 239.866 394.414C173.368 342.241 83.086 308.739 0 327.057V438H444Z" fill="#DA5A00"/>
<path d="M214.879 375.839C190.118 352.339 160.12 334.906 127.961 325.404C124.774 318.488 118.029 314.251 111.498 310.769C87.6935 298.08 61.6484 290.031 35.0852 287.151C31.9435 286.808 28.1713 286.797 26.5724 289.936C25.8179 291.412 25.8517 293.194 26.426 294.752C27.4957 297.691 29.9279 299.532 32.2926 301.279C50.7934 315.018 70.4877 329.111 93.0535 331.306C100.598 332.038 108.334 331.412 115.619 333.596C121.08 335.225 126.001 338.352 130.798 341.539C144.874 350.934 158.431 361.298 173.261 369.324C185.456 375.922 198.754 380.914 212.357 381.988C215.566 382.248 217.266 378.105 214.879 375.839Z" fill="#8D142B"/>
<path d="M261.633 404.681C281.768 405.599 301.948 405.34 322.049 403.928C320.456 405.152 320.885 407.941 322.365 409.295C323.846 410.648 325.936 410.966 327.891 411.213C349.992 413.967 372.262 415.226 394.521 414.967C397.809 414.932 402.239 413.649 401.99 410.236C401.798 407.682 398.951 406.435 396.578 405.776C349.754 392.737 300.4 389.63 252.413 396.679C251.283 398.891 252.616 401.775 254.661 403.093C256.707 404.411 259.226 404.576 261.633 404.681Z" fill="#8D142B"/>
<path d="M314.954 414.786C315.268 413.469 313.9 412.433 312.711 411.904C306.048 408.904 298.466 408.198 291.399 409.927C290.401 410.175 289.246 410.633 289.032 411.692C288.763 413.033 290.221 413.986 291.455 414.445C298.129 416.904 305.375 417.61 312.363 416.468C313.429 416.292 314.685 415.892 314.954 414.798V414.786Z" fill="#EBA987"/>
<path d="M322.771 415.796C321.448 415.325 319.922 414.542 318.769 415.348C318.283 415.681 317.989 416.28 318 416.878C318.034 418.27 319.538 419.098 320.872 419.455C323.517 420.168 326.343 420.18 329 419.501C328.785 418.224 327.643 417.303 326.456 416.832C325.269 416.36 323.981 416.222 322.771 415.796Z" fill="#EBA987"/>
<path d="M374.023 422.211C373.741 424.362 376.096 425.769 378.079 426.467C389.572 430.513 401.933 431.885 414 430.444C413.177 426.769 409.504 424.641 406.102 423.28C397.471 419.85 388.096 418.443 378.879 419.199C376.84 419.362 374.305 420.117 374.023 422.211Z" fill="#EBA987"/>
<path d="M359.82 416.149C358.453 415.984 357.019 415.819 355.764 416.466C354.51 417.101 353.591 418.852 354.185 420.248C354.633 421.289 355.709 421.758 356.694 422.063C361.377 423.484 366.418 423.281 371 421.504C369.622 418.776 362.564 416.491 359.809 416.149H359.82Z" fill="#EBA987"/>
<path d="M87.6436 336.202C83.2618 335.036 78.6782 334.713 74.1955 335.256C72.4024 335.475 70.2283 336.237 70.0154 338.083C69.8024 339.976 71.8421 341.222 73.5791 341.857C82.0178 344.926 91.2186 345.769 100.05 344.292C100.912 344.153 101.977 343.749 102 342.849C102.022 342.076 101.215 341.591 100.531 341.291C97.6513 340.045 90.6695 336.998 87.6436 336.202Z" fill="#EBA987"/>
<path d="M112.529 342.122C109.934 340.704 107.019 339.964 104.114 340.001C103.345 340.001 102.427 340.177 102.105 340.942C101.658 341.996 102.725 343.05 103.678 343.577C106.915 345.334 110.566 346.162 114.182 345.974C114.997 345.936 116.076 345.522 115.996 344.631C115.938 344.029 115.364 343.678 114.859 343.439C113.126 342.599 114.228 343.063 112.529 342.134V342.122Z" fill="#EBA987"/>
<path d="M127.959 351.819C131.436 356.104 136.431 359.025 141.746 359.907C142.78 360.079 144.013 360.09 144.651 359.243C145.531 358.074 144.585 356.402 143.606 355.336C139.028 350.342 132.811 347.008 126.253 346C125.472 347.97 126.628 350.193 127.948 351.819H127.959Z" fill="#EBA987"/>
<path d="M329 61C329.068 60.6716 329.124 60.3433 329.192 60L329 61Z" fill="#F2C446"/>
<path d="M248.145 317.429C250.157 316.515 252.181 315.437 253.553 313.715C254.926 311.993 255.518 309.498 254.453 307.576C252.796 304.577 248.571 304.566 245.115 304.46C238.298 304.238 231.564 302.035 225.966 298.169C224.108 296.881 221.836 295.346 219.777 296.295C218.309 296.963 217.658 298.626 216.794 299.985C214.498 303.593 209.752 305.491 205.563 304.472C206.107 308.795 204.9 313.141 205.007 317.499C205.113 321.857 207.22 326.765 211.492 327.796C213.776 328.347 216.155 327.679 218.392 327C223.789 325.383 229.185 323.778 234.582 322.161C239.174 320.791 243.778 319.408 248.145 317.44V317.429Z" fill="#6FB2BB"/>
<path d="M246.145 314.429C248.157 313.515 250.181 312.437 251.553 310.715C252.926 308.993 253.518 306.498 252.453 304.576C250.796 301.577 246.571 301.566 243.115 301.46C236.298 301.238 229.564 299.035 223.966 295.169C222.108 293.881 219.836 292.346 217.777 293.295C216.309 293.963 215.658 295.626 214.794 296.985C212.498 300.593 207.752 302.491 203.563 301.472C204.107 305.795 202.9 310.141 203.007 314.499C203.125 318.845 205.22 323.765 209.492 324.796C211.776 325.347 214.155 324.679 216.392 324C221.789 322.383 227.185 320.778 232.582 319.162C237.174 317.791 241.778 316.408 246.145 314.44V314.429Z" fill="#062435"/>
<path d="M203.199 311.012C203.067 312.41 202.972 313.796 203.008 315.194C203.115 319.666 205.246 324.728 209.566 325.789C211.35 326.235 213.205 325.909 215 325.415C212.654 319.582 208.848 314.447 203.199 311V311.012Z" fill="#165672"/>
<path d="M242.899 305.399C244.864 304.442 246.544 303.162 248 301.651C246.509 301.409 244.888 301.374 243.408 301.328C236.592 301.109 229.858 298.941 224.26 295.135C222.402 293.867 220.13 292.356 218.071 293.29C217.136 293.705 216.533 294.524 216 295.401C224.391 302.643 233.633 310.415 242.888 305.41L242.899 305.399Z" fill="#165672"/>
<path d="M57.8751 127.78C52.2569 123.941 47.8307 126.993 42 130.515C47.8307 151.373 53.8739 172.853 60.7315 193.759C62.7852 200.038 69.572 203.478 75.8748 201.388C90.0739 196.658 102.573 191.857 118 187.185L111.154 159.32C100.744 161.409 88.1736 166.034 78.8492 171.093C72.7706 159.308 69.1707 146.537 63.0803 134.752C61.7347 132.146 60.3066 129.435 57.8751 127.78Z" fill="#EBA987"/>
<path d="M79.9233 177.688C66.8809 162.7 59.2089 144.139 51.3126 126C48.3383 126.447 45.4111 128.351 42 130.408C47.8307 151.298 53.8739 172.81 60.7315 193.746C62.7852 200.035 69.572 203.48 75.8748 201.387C90.0739 196.65 102.573 191.842 118 187.163L111.591 161.055C100.697 165.58 90.1802 171.247 79.9233 177.7V177.688Z" fill="#F28A53"/>
<path d="M63.1361 134.757C61.787 132.15 60.355 129.437 57.9172 127.781C52.284 123.94 47.8462 126.994 42 130.517C45.7396 143.87 49.5621 157.459 53.6331 171C60.2485 167.101 67.0888 163.484 74 160.301C70.4615 151.751 67.3965 143.013 63.1243 134.757H63.1361Z" fill="white"/>
<path d="M46.4868 128C45.063 128.75 43.5793 129.653 42 130.591C45.7809 143.92 49.6455 157.483 53.7613 171C56.1423 169.605 58.5712 168.269 61 166.967C55.6996 154.131 51.0573 140.977 46.4748 128H46.4868Z" fill="#D9D1BE"/>
<path d="M121.805 136L113.486 151.097C104.544 157.367 94.8132 162.738 84 166.939C88.9183 177.326 91.3069 193.263 97.2724 203C107.768 199.119 127.5 200.456 145.232 190.897C157.304 184.39 160.022 165.448 172 152.41C155.327 146.802 138.384 141.916 121.805 136.012V136Z" fill="#F2C446"/>
<path d="M121.805 136L113.486 151.097C104.544 157.367 94.8132 162.738 84 166.939C88.9183 177.326 91.3069 193.263 97.2724 203C107.768 199.119 127.5 200.456 145.232 190.897C157.304 184.39 160.022 165.448 172 152.41C155.327 146.802 138.384 141.916 121.805 136.012V136Z" fill="#F2C446"/>
<path d="M113.501 151.142C104.554 157.432 94.8186 162.82 84 167.032C87.8377 175.173 90.1451 186.684 93.818 196C109.381 191.384 124.543 186.815 140.401 185.035C143.956 171.91 150.148 159.497 158 147.867C145.91 144.01 133.773 140.272 121.824 136L113.501 151.142Z" fill="#8D142B"/>
<path d="M204.004 304C209.999 302.588 216.005 301.176 222 299.764C218.967 283.583 215.934 267.402 212.901 251.209C210.757 239.782 208.518 228.085 202.606 218.047C194.242 203.855 175.986 177 175.986 177C175.986 177 159.329 187.862 151 193.299C158.215 207.75 172.763 217.341 180.926 231.286C193.875 253.421 183.888 252.668 204.004 303.988V304Z" fill="#EBA987"/>
<path d="M198.879 228.286C193.663 210.476 182.587 195.597 171.136 180C165.639 183.626 156.497 189.664 151 193.278C158.138 207.733 172.531 217.327 180.607 231.276C193.417 253.418 183.537 252.665 203.439 304C208.959 302.682 214.48 301.375 220 300.057C212.241 276.631 206.275 252.312 198.868 228.286H198.879Z" fill="#F28A53"/>
<path d="M191 263.463C192.856 272.072 196.151 284.12 203.931 303.904C211.544 306.401 217.361 304.481 222 299.665C219.454 286.11 216.897 272.555 214.351 259C206.595 260.449 198.804 261.885 191 263.463Z" fill="white"/>
<path d="M174.909 152.9C159.705 147.678 144.244 143.163 129.006 138C126.04 140.558 123.203 143.258 120.765 146.334C116.897 151.215 114.072 157.168 114.002 163.404C113.873 174.037 121.597 183.22 130.318 189.232C133.589 191.496 137.059 193.464 140.552 195.374C148.476 205.901 156.798 216.133 165.519 226C175.342 218.88 185.177 211.748 195 204.628C188.143 192.002 181.285 179.377 174.416 166.752C173.947 162.131 174.112 157.451 174.909 152.877V152.9Z" fill="#F2C446"/>
<path d="M165.147 171.852C162.503 166.571 163.317 157.837 164.875 149.445C152.965 145.602 140.973 141.996 129.111 138C126.124 140.558 123.268 143.257 120.813 146.333C116.918 151.213 114.073 157.165 114.002 163.4C113.967 165.899 114.392 168.316 115.147 170.626C115.985 171.887 116.918 173.054 117.956 174.079C124.696 179.69 137.054 179.69 139.309 185.3C145.883 196.675 152.8 208.214 160.177 219.458C162.066 221.651 163.954 223.843 165.878 226C172.252 221.415 178.626 216.818 185 212.233C178.461 198.808 171.745 185.395 165.147 171.84V171.852Z" fill="#8D142B"/>
<path d="M184 183.078C182.756 178.686 181.513 174.305 180.269 169.912C156.878 170.053 133.487 163.013 114.135 150C112.406 152.261 109.729 152.671 108 154.943C111.612 156.559 112.714 160.073 114.478 163.587C131.557 167.734 151.182 174.34 167.466 180.911C172.76 183.043 178.753 185.315 184 183.078Z" fill="#062435"/>
<path d="M37.5065 113.877C34.7026 115.495 31.4294 116.014 28.3674 117.041C21.2109 119.415 15.0516 124.657 11.5203 131.352C10.2885 133.689 9.37337 136.558 10.5348 138.943C12.3064 142.604 17.6326 142.615 21.2813 140.868C24.9299 139.121 28.121 136.169 32.1098 135.508C37.4009 134.634 42.7624 138.011 48.0066 136.901C54.248 135.578 56.7234 132.013 63 130.832C61.51 125.082 60.8179 115.861 58.3307 110.465C57.5564 108.788 56.6765 107.064 55.1631 106.014C52.3122 104.042 48.3234 105.211 45.5312 107.265C42.739 109.32 40.5216 112.141 37.53 113.877H37.5065Z" fill="#6FB2BB"/>
<path d="M38.5065 117.877C35.7026 119.495 32.4294 120.014 29.3674 121.041C22.2109 123.415 16.0516 128.657 12.5203 135.352C11.2885 137.689 10.3734 140.558 11.5348 142.943C13.3064 146.604 18.6326 146.615 22.2813 144.868C25.9299 143.121 29.121 140.169 33.1098 139.508C38.4009 138.634 43.7624 142.011 49.0066 140.901C55.248 139.578 57.7234 136.013 64 134.832C62.51 129.082 61.8179 119.861 59.3307 114.465C58.5564 112.788 57.6765 111.064 56.1631 110.014C53.3122 108.042 49.3234 109.211 46.5312 111.265C43.739 113.32 41.5216 116.141 38.53 117.877H38.5065Z" fill="#062435"/>
<path d="M45.2863 133.563C37.3419 130.235 27.1192 132.457 20.3081 137.996C19.4492 139.683 20.5467 142.01 21.6322 144C25.3419 142.278 28.5745 139.381 32.6302 138.717C38.0099 137.856 43.4612 141.184 48.7932 140.09C49.5805 139.928 50.3201 139.73 51 139.509C49.6998 137.135 47.9463 135.029 45.2982 133.551L45.2863 133.563Z" fill="#165672"/>
<path d="M61 119.988C60.5242 117.94 59.9555 116.046 59.2476 114.472C58.4816 112.791 57.6112 111.063 56.1141 110.009C54.0484 108.565 51.3791 108.814 49 109.856C51.3327 115.455 55.9052 119.941 61 120V119.988Z" fill="#165672"/>
<path d="M122.019 29.3126C121.027 27.8292 121.061 25.7288 121.592 23.9843C122.123 22.2399 123.081 20.7328 123.831 19.1189C125.215 16.1759 125.965 12.8413 126 9.45928C125.019 8.48619 123.588 9.76782 123.023 11.085C122.458 12.4023 121.892 14.0755 120.623 14.2298C119.665 14.3484 118.777 13.4228 118.442 12.3667C118.107 11.3105 118.2 10.1594 118.304 9.0558C118.454 7.2639 118.615 5.472 118.765 3.6801C118.834 2.90876 118.892 2.10181 118.673 1.36606C118.454 0.630313 117.865 -0.0342325 117.184 0.00136817C116.515 0.0369688 115.973 1.02192 116.388 1.65087C114.588 0.713381 112.234 2.35101 112.13 4.61759C111.426 4.55825 110.722 4.49892 110.03 4.45145L108.865 7.56058C107.711 10.4917 107.076 13.6958 107.007 16.9236C106.88 22.7502 108.542 28.4463 110.18 34C113.884 32.754 117.68 31.864 121.523 31.3537C121.454 29.2414 121.384 27.1172 121.315 25.0049L121.996 29.3244L122.019 29.3126Z" fill="#EBA987"/>
<path d="M108.978 35C108.152 31.8593 107.489 28.658 107 25.4446C112.271 22.4495 118.123 20.5942 124.092 20C124.185 24.3048 124.836 28.5974 126 32.7203C120.264 32.0897 114.377 32.8658 108.978 35Z" fill="#C52246"/>
<path d="M162.338 78.1737C156.23 70.5302 140.93 67.2696 137.213 59.2481C132.219 48.4739 128.854 37.2036 125.747 25C118.267 26.3704 113.718 28.5205 107 32.3718C110.212 45.4024 112.194 58.8582 117.88 71.0028C125.184 86.5969 145.092 96.7686 156.077 110C164.319 102.191 170.826 92.5393 175 81.9305L162.338 78.1737Z" fill="#DA5A00"/>
<path d="M108.108 32C107.743 32.2002 107.377 32.4121 107 32.6241C110.231 45.6123 112.223 59.0245 117.942 71.1295C125.287 86.673 145.308 96.8116 156.355 110C159.916 106.656 163.123 102.958 166 99.0136C136.677 85.5308 112.011 65.0181 108.12 32H108.108Z" fill="#AF571C"/>
<path d="M163.316 78.1897C157.198 70.5439 141.872 67.2823 138.149 59.2584C133.146 48.481 129.787 37.2073 126.663 25C119.593 26.2881 115.13 28.2852 109 31.7477C112.876 64.8834 137.444 85.4692 166.652 99C170.445 93.7295 173.616 88.0099 176 81.9476L163.316 78.1897Z" fill="#DA5A00"/>
<path d="M174.39 63C172.273 70.1049 169.091 76.9015 165 83.1049C173.959 84.1725 182.823 86.1414 191.376 89C191.627 82.3458 192.847 75.7153 195 69.4051C187.691 69.3339 180.431 67.0803 174.39 63Z" fill="#EBA987"/>
<path d="M179 66.0118C181.404 72.4066 186.235 77.7376 192.147 81C192.766 77.1466 193.725 73.3404 195 69.6407C189.476 69.5816 183.977 68.3168 179 66V66.0118Z" fill="#062435"/>
<path d="M194.255 87.9805C193.674 88.0767 193.094 87.8002 192.572 87.5237C182.735 82.4993 171.963 79.3621 161 78.3404C162.256 75.9003 163.513 73.4602 164.769 71.0201C176.964 70.6475 189.23 75.4676 198 84.0619C196.104 84.0259 196.116 87.656 194.255 87.9805Z" fill="#C52246"/>
<path d="M213 84.7512C191.26 82.5397 169.85 77.2109 149.602 69C145.045 99.4203 130.61 128.276 109 150.144C134.11 165.507 154.476 172.471 183.38 178C186.962 138.557 212.706 118.195 213 84.7512Z" fill="#DA5A00"/>
<path d="M253.869 133.846C252.422 134.079 250.964 133.578 249.54 133.228C244.651 132.027 239.33 132.68 234.872 135C235.164 132.144 232.527 129.521 233.075 126.7C233.227 125.919 233.612 125.196 234.067 124.543C236.389 121.151 240.357 119.146 244.394 118.388C246.623 117.968 248.921 117.887 251.174 118.155C251.617 118.843 251.197 119.822 250.52 120.277C249.843 120.731 248.98 120.813 248.163 120.918C247.346 121.023 246.483 121.174 245.888 121.734C245.292 122.293 245.106 123.377 245.736 123.902C246.168 124.263 246.786 124.24 247.346 124.252C251.395 124.298 255.001 126.665 258.35 128.95C258.618 129.125 258.898 129.334 258.98 129.649C259.085 130.081 258.758 130.489 258.443 130.815C257.148 132.156 255.724 133.554 253.892 133.858L253.869 133.846Z" fill="#EBA987"/>
<path d="M131.476 163.652C126.281 160.625 120.757 157.243 118.341 151.696C115.937 146.197 117.156 139.8 118.951 134.064C123.818 118.454 132.531 104.346 142.078 91.1127C145.784 85.9803 150.158 80.5996 156.327 79.2987C162.414 78.0215 168.477 81.0726 173.954 84.0409C181.284 88.0025 189.154 92.5555 192.297 100.325C194.279 105.233 194.349 110.791 193.434 116.018C191.569 126.815 189.4 137.364 185.471 147.404C183.313 152.914 180.627 158.283 176.851 162.825C173.075 167.366 168.079 171.043 162.355 172.392C157.019 173.657 151.355 172.829 146.183 171.008C140.999 169.187 136.226 166.396 131.476 163.629V163.652Z" fill="#062435"/>
<path d="M219 57.339C220.011 57.4442 221.033 57.3156 222 57C221.744 58.356 220.267 59.2911 219.011 58.917C219.011 58.391 219.011 57.865 219.011 57.339H219Z" fill="#062435"/>
<path d="M215.07 34.67C210.243 28.0554 202.403 24.1148 194.353 22.6136C189.151 21.6402 183.573 21.6519 178.792 23.9271C173.777 26.3197 170.109 31.0695 168.328 36.3354C165.492 44.7327 167.344 54.3849 172.488 61.5976C177.632 68.8103 185.799 73.6188 194.482 75.3663C200.072 76.4922 206.259 76.328 210.993 73.138C214.133 71.0269 216.324 67.79 217.801 64.2481C218.211 63.263 218.164 60.0847 218.469 59.0761C221.117 50.1862 220.543 42.1408 215.07 34.6583V34.67Z" fill="#EBA987"/>
<path d="M168.405 63.2002C171.418 67.4587 175.601 71.4325 180.788 71.9426C184.959 72.3577 188.965 70.4479 192.722 68.5975C198.335 65.8336 204.526 62.3698 206.098 56.2964C214.558 57.364 223.266 50.8517 224.661 42.4059C225.334 43.6989 227.437 43.4735 228.3 42.311C229.162 41.1485 229.091 39.5353 228.808 38.1118C226.764 28.0528 216.472 21.8252 206.523 19.4409C197.047 17.1752 186.708 17.3531 177.941 21.6235C169.173 25.9057 162.344 34.743 162.013 44.5174C161.788 51.2195 164.53 57.7318 168.393 63.2002H168.405Z" fill="#062435"/>
<path d="M220.988 26.7576C215.487 21.5743 209.796 16.2618 202.721 13.5703C195.645 10.8787 186.748 11.4311 181.554 16.92C173.059 15.8152 165.227 23.2903 163.5 31.6117C161.772 39.9331 164.754 48.5601 168.895 56L221 26.7576H220.988Z" fill="#062435"/>
<path d="M146 86.6414C149.377 86.7571 152.754 86.8843 156.13 87C156.841 81.6787 158.488 76.4846 161 71.7185L149.886 69C148.595 74.8766 147.291 80.7648 146 86.6414Z" fill="#F2C446"/>
<path d="M198.55 82.2921C197.156 82.6543 195.891 83.3908 194.637 84.1153C190.091 86.7476 185.546 89.3919 181 92.0242C183.05 95.6828 185.112 99.3414 187.163 103C194.801 95.8398 203.131 89.4764 212 84.0308C207.443 83.8376 202.967 81.1208 198.55 82.2921Z" fill="#F2C446"/>
<path d="M200.209 137C192.995 142.421 184.935 146.644 176.433 149.456C175.285 152.304 174.148 155.152 173 158C179.947 154.255 186.883 150.497 193.83 146.752C196.463 145.328 199.166 143.844 201.033 141.463C202.9 139.082 201.752 139.621 200.209 137.012V137Z" fill="#F2C446"/>
<path d="M231 126.434C232.732 124.619 234.464 122.815 236.195 121C239.215 124.479 241.835 128.307 244 132.391C240.365 134.299 236.89 136.51 233.621 139L231.011 126.434H231Z" fill="#AF571C"/>
<path d="M231.976 123.523C226.277 127.677 223.567 127.902 217.868 132.045C218.09 118.859 214.983 109.591 214.574 96.4042C214.493 93.7291 214.376 90.9711 213.22 88.5682C213.126 88.3788 213.009 88.1894 212.904 88C205.056 92.7229 199.169 99.7777 195 108.004C195.876 123.605 198.924 139.088 204.075 153.813C209.704 157.684 216.665 158.785 223.17 157.471C228.776 149.765 234.394 142.059 240 134.353C237.325 130.743 234.651 127.133 231.976 123.511V123.523Z" fill="#DA5A00"/>
<path d="M195 107.352C195.878 122.843 198.935 138.217 204.099 152.839C208.245 155.672 213.117 157 218 157C207.952 138.358 218.668 109.35 205.657 93C201.3 97.0551 197.764 101.933 195 107.352Z" fill="#AF571C"/>
<path d="M191.906 110.501C192.2 104.305 191.953 97.7182 188.99 92.5293C185.017 85.5514 177.328 82.9806 170.286 80.9074C162.056 78.4906 153.051 76.1331 145.327 80.2203C139.989 83.0398 136.157 88.525 132.688 93.9627C126.834 103.144 121.449 112.74 116.594 122.656C113.702 128.556 110.904 135.321 112.432 141.86C113.996 148.613 119.615 152.901 124.812 156.562C132.007 161.633 139.331 166.774 147.466 169.369C155.602 171.975 164.819 171.75 171.955 166.549C178.48 161.799 182.454 153.577 185.287 145.319C189.096 134.219 191.342 122.407 191.906 110.501Z" fill="#C52246"/>
<path d="M181.921 105.576C182.167 100.514 181.956 95.1207 179.554 90.8794C176.319 85.1767 170.073 83.0739 164.354 81.375C157.662 79.4028 150.349 77.4782 144.079 80.8047C139.743 83.1095 136.625 87.6004 133.813 92.0318C129.054 99.5402 124.683 107.381 120.734 115.484C118.378 120.307 116.116 125.832 117.347 131.178C118.624 136.702 123.183 140.207 127.402 143.201C133.25 147.347 139.204 151.541 145.813 153.668C152.423 155.794 159.912 155.616 165.713 151.363C171.022 147.478 174.245 140.754 176.542 134.017C179.636 124.941 181.464 115.294 181.921 105.552V105.576Z" fill="#8D142B"/>
<path d="M118.49 118.012C117.863 119.232 117.224 120.44 116.621 121.671C113.712 127.569 110.897 134.332 112.435 140.869C114.007 147.62 119.66 151.907 124.888 155.567C132.125 160.636 139.493 165.776 147.677 168.369C155.861 170.975 165.133 170.75 172.312 165.551C178.875 160.801 182.873 152.582 185.723 144.327C186.172 143.037 186.598 141.722 187 140.407C164.494 131.916 141.788 124.324 118.501 118L118.49 118.012Z" fill="#165672"/>
<path d="M125.126 121.122C124.073 121.43 123.293 122.319 122.714 123.254C120.278 127.198 120.585 132.433 122.714 136.554C124.842 140.675 128.543 143.778 132.575 146.052C138.594 149.439 145.89 151.157 152.5 149.132C159.098 147.095 164.537 140.64 163.958 133.747C152.263 129.117 140.356 125.007 128.307 121.43C127.278 121.122 126.178 120.826 125.149 121.122H125.126Z" fill="#6FB2BB"/>
<path d="M202.421 62.3321C202.469 60.2075 202.433 58.013 201.474 56.0986C200.516 54.1841 198.368 52.6666 196.196 53.0635C193.988 53.4721 192.617 55.6083 191.913 57.6744C190.93 60.5577 190.736 63.6745 191.355 66.6395C191.852 69.0792 193.102 71.624 195.48 72.5928C197.361 73.3633 199.569 72.9664 201.353 72.0209C203.136 71.0753 204.592 69.6512 206 68.2387L202.408 62.3321H202.421Z" fill="#EBA987"/>
<path d="M182.304 139L181.217 138.566C185.494 127.883 187.387 116.156 186.686 104.664C186.429 100.442 185.74 95.0594 182.701 90.9902C180.727 88.3516 177.852 86.147 174.148 84.4583C166.938 81.1748 158.934 78.9936 151 78.1727L151.117 77C159.168 77.8443 167.301 80.049 174.627 83.3911C178.507 85.1619 181.533 87.4721 183.636 90.2866C186.861 94.6138 187.586 100.207 187.855 104.593C188.567 116.262 186.651 128.153 182.304 139Z" fill="white"/>
<path d="M195.968 64.1695C196.2 64.5567 196.617 64.7986 196.814 65.2221C197.093 65.8392 196.71 66.6377 196.107 66.8918C195.504 67.1459 194.773 66.9281 194.286 66.4925C193.788 66.0449 193.486 65.4036 193.301 64.7502C192.733 62.8386 192.976 60.6728 193.973 58.9547C194.356 58.2893 194.866 57.6722 195.527 57.3093C196.188 56.9463 197.023 56.8737 197.684 57.2488C198.287 57.5875 198.67 58.253 198.843 58.9426C199.017 59.6323 199.006 60.3582 198.994 61.0721C198.159 61.1931 197.29 61.3383 196.606 61.8585C195.933 62.3788 195.539 63.4314 195.991 64.1695H195.968Z" fill="#062435"/>
<path d="M200 15.2452C197.378 13.6674 194.344 12.7232 191.36 13.0724C188.363 13.4216 185.45 15.1805 184 18C187.988 14.7926 195.142 14.0812 200 15.2452Z" fill="#165672"/>
<path d="M184.49 27.7169C184.338 28.5934 184.186 29.4939 184.338 30.3704C184.49 31.2469 185.017 32.1113 185.847 32.3995C186.946 32.7717 188.069 32.0513 189.133 31.583C190.197 31.1148 191.764 31.1028 192.174 32.2074C192.361 32.7117 192.232 33.312 192.478 33.7802C192.875 34.5366 193.94 34.5126 194.723 34.2245C195.507 33.9363 196.337 33.4921 197.132 33.7442C198.571 34.2125 198.957 36.6738 200.465 36.6498C201.717 36.6258 202.266 34.8248 203.483 34.5006C204.383 34.2605 205.248 34.9209 206.02 35.4612C206.792 36.0014 207.891 36.4217 208.593 35.8093C209.587 34.9329 208.792 32.8918 209.88 32.1353C210.476 31.7151 211.318 31.9913 211.903 32.4355C212.487 32.8797 212.979 33.4801 213.645 33.7682C214.312 34.0564 215.283 33.8643 215.47 33.1439C215.587 32.7117 215.376 32.2434 215.458 31.7992C215.587 30.9947 216.604 30.6225 217.341 30.8987C218.089 31.1628 218.604 31.8592 219.037 32.5316C219.937 33.9243 220.697 35.4491 220.931 37.106C221.165 38.763 220.814 40.5639 219.715 41.7886C220.417 40.8641 219.832 39.3153 218.744 38.9671C217.657 38.6189 216.405 39.3993 216.043 40.5159C215.785 41.3203 215.902 42.2088 215.657 43.0133C215.411 43.8177 214.452 44.5261 213.786 44.0338C213.54 43.8537 213.411 43.5656 213.201 43.3374C212.499 42.569 211.201 42.8452 210.417 43.5175C209.634 44.1899 209.154 45.1744 208.464 45.9549C207.763 46.7233 206.64 47.2996 205.728 46.8313C204.547 46.231 204.441 44.322 203.237 43.7697C202.231 43.3014 201.132 44.0578 200.185 44.6462C199.237 45.2345 197.822 45.5827 197.191 44.6462C196.688 43.8777 197.085 42.6891 196.466 42.0167C195.518 40.9962 193.378 42.3769 192.63 41.2003C192.15 40.4679 192.782 39.3993 192.384 38.6069C191.963 37.7784 190.77 37.8625 189.94 38.2467C189.11 38.6309 188.244 39.2072 187.367 38.9551C186.244 38.6309 185.835 37.1661 184.806 36.6018C183.87 36.0855 182.748 36.4577 181.719 36.7098C180.689 36.962 179.403 36.962 178.83 36.0495C178.315 35.221 178.561 33.8523 177.707 33.42C176.912 33.0118 175.696 33.8042 175.158 33.0719C174.83 32.6396 175.076 32.0153 175.322 31.535C176.269 29.686 177.204 27.849 178.152 26C177.988 27.3687 179.298 28.5334 180.631 28.6895C181.964 28.8455 183.262 28.2812 184.49 27.7169Z" fill="#165672"/>
<path d="M219 28C221.433 29.6253 223.368 31.9807 224.484 34.666C224.792 35.4079 225.042 36.197 224.994 37.0096C224.947 37.8105 224.543 38.6349 223.819 39C223.772 37.2216 223.724 35.4079 223.166 33.7238C222.608 32.0278 220.674 28.6595 219.012 28H219Z" fill="#165672"/>
<path d="M176 26C175.183 27.7692 174.192 29.4396 173.069 31C172.793 29.5824 173.375 28.0879 174.264 27C175.163 25.9121 174.836 26.7363 176 26Z" fill="#165672"/>
<path d="M175.822 22.254C173.986 24.1927 172.531 26.4943 171.569 29C170.416 26.8798 171.121 24.0907 172.733 22.2993C174.344 20.5079 176.672 19.5669 179 19L175.822 22.254Z" fill="#165672"/>
<path d="M384.495 133C384.33 132.663 384.165 132.337 384 132L384.495 133Z" fill="#165672"/>
<path d="M261.872 131.93C260.805 131.054 260.052 129.883 259.332 128.625C258.706 127.515 258.01 126.442 257.314 125.381C256.943 124.925 256.584 124.469 256.224 124C254.264 124.259 252.339 124.752 250.495 125.492C250.124 125.64 249.752 125.801 249.451 126.072C249.149 126.343 248.952 126.763 249.01 127.182C249.08 127.688 249.544 128.045 250.008 128.156C250.483 128.255 250.97 128.156 251.434 128.057C251.515 128.045 251.596 128.02 251.678 128.008C251.156 128.255 250.657 128.526 250.17 128.834C249.671 129.143 249.115 129.698 249.323 130.277C249.497 130.758 250.089 130.857 250.564 130.869C252.652 130.931 254.74 130.672 256.758 130.129C255.679 130.684 254.647 131.35 253.684 132.115C253.116 132.559 252.524 133.188 252.64 133.916C252.733 134.508 253.313 134.915 253.881 134.989C254.45 135.05 255.006 134.853 255.54 134.643C257.674 133.817 259.82 132.793 262 132.189C261.954 132.115 261.907 132.029 261.849 131.955L261.872 131.93Z" fill="#F28A53"/>
<path d="M260.412 131.321C260.481 133.413 259.385 135.517 257.697 136.556C257.023 136.972 256.168 137.351 256.019 138.171C255.86 139.064 256.715 139.847 257.56 139.969C258.929 140.177 260.218 139.308 261.302 138.391C262.386 137.486 263.504 136.446 264.873 136.263C265.592 136.165 266.493 136.226 266.858 135.565C267.075 135.174 267.007 134.673 266.893 134.244C266.471 132.593 265.558 131.089 264.326 130L260.412 131.309V131.321Z" fill="#F28A53"/>
<path d="M259.637 120.039C258.246 120.11 256.855 119.992 255.464 120.039C252.491 120.145 249.542 121.03 247 122.563C247.132 123.447 248.055 124.025 248.954 124.119C249.853 124.214 250.741 123.954 251.64 123.813C252.527 123.659 253.51 123.636 254.266 124.143C254.853 124.532 255.201 125.18 255.764 125.605C256.532 126.183 257.575 126.242 258.414 126.69C260.02 127.551 260.524 129.543 260.92 131.312C261.315 133.069 261.963 135.062 263.665 135.746C264.397 136.041 265.212 136.029 266.003 135.958C268.881 135.687 271.686 134.626 274 132.904C273.017 131.831 272.729 130.333 272.369 128.93C272.01 127.527 271.458 126.041 270.199 125.287C269.408 124.815 268.449 124.709 267.562 124.473C265.967 124.048 264.504 123.152 263.425 121.926C262.826 121.254 262.274 120.44 261.411 120.134C260.848 119.945 260.236 120.004 259.649 120.028L259.637 120.039Z" fill="#EBA987"/>
<path d="M267.671 138C269.962 136.802 272.458 136.088 275 135.894C271.626 132.082 269.37 127.168 268.629 122C266.486 122.024 264.355 122.048 262.212 122.073C261.289 127.894 263.431 134.163 267.671 137.988V138Z" fill="#165672"/>
<path d="M348.739 103.582C347.153 101.135 344.24 100.012 341.468 100C338.696 99.9768 336.006 100.899 333.363 101.785C310.881 109.326 287.976 115.248 265 120.803C265 125.412 270.345 134.111 272.964 138C290.936 136.617 305.137 130.849 322.968 128.107C328.065 127.327 333.21 126.441 337.932 124.219C342.654 121.996 346.953 118.273 348.997 113.191C350.23 110.118 350.524 106.324 348.739 103.582Z" fill="#165672"/>
<path d="M271 134.875C271.729 136.084 272.422 137.162 272.986 138C290.967 136.599 305.176 130.756 323.016 127.978C328.117 127.188 333.265 126.29 337.989 124.039C342.713 121.788 347.015 118.016 349.06 112.867C349.542 111.658 349.871 110.329 350 109C324.391 111.922 298.371 125.092 274.455 134.408C273.186 134.839 272.069 134.947 271 134.875Z" fill="#062435"/>
<path d="M367.831 89C364.102 96.0737 359.437 102.653 354 108.503C363.634 110.139 373.116 112.657 382.294 116C382.142 108.208 383.404 100.405 386 93.0606C379.722 93.3784 373.373 91.9542 367.82 89H367.831Z" fill="#EBA987"/>
<path d="M375 91.0118C375.046 94.1636 375.823 97.1501 376.623 99.57C378.083 102.545 380.367 104.256 382.952 105C383.554 100.668 384.563 96.3946 386 92.2631C382.302 92.4519 378.582 92.0034 375 91V91.0118Z" fill="#062435"/>
<path d="M390 111C377.848 109.94 365.79 107.864 354 104.774C355.458 102.516 356.927 100.258 358.385 98.0119C370.163 97.7268 381.965 102.585 390 111Z" fill="#C52246"/>
<path d="M341.405 184.284C352.509 187.139 363.624 188.584 374.681 187.779C375.226 186.973 375.771 186.179 376.304 185.386C391.757 162.475 400.443 135.062 401 107.437C380.333 107.993 359.56 104.428 340.267 97C337.838 122.636 328.275 147.537 313 168.256C322.634 173.302 330.633 181.512 341.417 184.284H341.405Z" fill="#8D142B"/>
<path d="M393.079 144.435C396.104 138.267 399.058 131.759 398.999 124.888C398.941 118.017 394.955 110.688 388.296 109C383.513 112.846 380.676 118.744 379.597 124.794C378.519 130.845 379.046 137.059 380.031 143.121C380.558 146.369 381.801 150.227 385.025 150.907C386.854 151.294 388.765 150.426 390.089 149.125C391.414 147.823 392.27 146.111 393.091 144.435H393.079Z" fill="#062435"/>
<path d="M368.938 186L368 185.32C379.12 169.485 387.019 151.047 390.865 132L392 132.234C388.131 151.434 380.162 170.024 368.95 185.988L368.938 186Z" fill="#DA5A00"/>
<path d="M367.829 165.966C366.363 172.93 363.983 179.988 359.025 185.079C353.902 190.334 346.434 192.891 339.119 192.997C331.792 193.091 324.594 190.923 317.958 187.801C312.542 185.255 307.15 181.779 304.606 176.347C301.628 169.984 303.222 162.419 305.895 155.915C310.948 143.649 319.506 133.185 328.673 123.629C332.237 119.917 335.977 116.252 340.49 113.79C345.004 111.327 350.431 110.161 355.344 111.681C360.314 113.224 364.183 117.372 366.398 122.097C368.626 126.822 369.388 132.101 369.74 137.321C370.408 146.901 369.798 156.575 367.817 165.966H367.829Z" fill="#062435"/>
<path d="M383.967 254.012C377.046 257.66 369.634 260.367 362 262.038C366.957 275.653 371.937 289.328 378.706 302.143C385.464 314.959 394.103 326.974 405.373 336C408.6 333.446 412.189 331.352 416 329.798C406.951 303.873 396.254 278.536 383.967 254V254.012Z" fill="#EBA987"/>
<path d="M383.95 254C377.034 257.672 369.628 260.396 362 262.078C366.392 274.229 370.808 286.405 376.45 298C384.3 295.205 392.15 292.268 400 288.904C394.989 277.119 389.65 265.465 383.95 254.012V254Z" fill="#EBA987"/>
<path d="M362 261.286C366.414 273.367 370.851 285.472 376.521 297C380.677 295.528 384.833 294.021 389 292.443C385.924 280.032 382.062 267.892 375.958 257C371.438 258.813 366.766 260.25 362.012 261.286H362Z" fill="#F28A53"/>
<path d="M399.851 288.012C391.901 291.343 383.95 294.23 376 296.989C376.734 298.461 377.479 299.922 378.26 301.372C385.098 314.101 393.841 326.035 405.246 335C408.511 332.464 412.143 330.383 416 328.84C411.102 315.048 405.695 301.43 399.839 288L399.851 288.012Z" fill="white"/>
<path d="M390.219 292C385.475 293.835 380.744 295.575 376 297.244C376.735 298.745 377.482 300.235 378.265 301.713C385.12 314.691 393.883 326.859 405.316 336C406.798 334.82 408.375 333.759 410 332.782C402.114 319.697 394.121 306.635 390.207 292H390.219Z" fill="#D9D1BE"/>
<path d="M285.19 198L275.737 204.888C246.705 204.176 217.554 210.102 191 221.919C192.216 227.24 193.278 232.608 194.139 238C226.252 231.254 259.238 228.713 292 230.518C287.704 220.245 285.379 209.14 285.19 198Z" fill="#EBA987"/>
<path d="M292 230.315C287.714 220.106 285.394 209.071 285.206 198L275.775 204.845C262.458 204.527 249.105 205.601 236 207.985C238.732 215.279 240.298 223.057 241.063 231C258.007 229.631 275.033 229.383 292 230.315Z" fill="#EBA987"/>
<path d="M275.867 204.836C262.519 204.518 249.136 205.59 236 207.971C237.357 211.577 238.431 215.313 239.257 219.12C248.628 219.12 259.144 219.155 268.503 222.656C275.171 224.141 281.379 220.499 288 217.883C286.348 211.389 285.439 204.694 285.333 198L275.879 204.836H275.867Z" fill="#F28A53"/>
<path d="M235.968 208C220.499 210.838 205.358 215.544 191 222.013C192.041 227.298 192.966 232.631 193.82 238C209.383 234.689 225.145 232.359 241 231.059C240.228 223.101 238.683 215.308 235.968 208Z" fill="white"/>
<path d="M192.012 228.099C192.599 231.392 193.162 234.684 193.678 238C209.288 234.636 225.097 232.269 241 230.947C240.519 225.865 239.721 220.866 238.524 216C222.644 218.295 207.164 222.584 192 228.099H192.012Z" fill="#D9D1BE"/>
<path d="M312.034 173.925C308.36 175.015 305.053 177.065 301.804 179.102C287.865 187.798 273.939 196.505 260 205.201C270.56 231.086 288.988 254.305 313.664 267.325C338.34 280.356 369.442 282.133 394 268.889C379.624 244.556 370.718 217.012 368.107 188.852C358.244 189.267 349.136 184.102 340.336 179.624C331.536 175.146 321.495 171.13 312.022 173.925H312.034Z" fill="#C52246"/>
<path d="M266.746 213.427C271.166 212.48 279.98 212.585 282.719 208.913C284.987 205.872 287.35 202.89 289.9 200.059C298.927 190.072 309.128 181.09 320 173.055C317.238 172.88 314.476 173.113 311.773 173.909C308.118 174.985 304.827 177.008 301.595 179.02C287.726 187.604 273.869 196.2 260 204.784C261.281 207.895 262.68 210.971 264.196 214C265.054 213.813 265.9 213.614 266.758 213.427H266.746Z" fill="#8D142B"/>
<path d="M326.73 179C321.627 182.257 316.535 185.691 311.631 189.397C304.357 197.492 297.74 206.237 290.807 214.733C287.287 219.053 284.858 221.354 279.884 223.856C277.256 225.177 274.628 226.487 272 227.809C275.754 233.544 279.954 238.985 284.577 244C286.548 242.903 288.601 241.876 290.595 240.778C292.437 238.878 294.303 237.002 296.063 235.019C296.825 234.158 297.775 234.099 298.55 234.488C306.41 217.153 314.189 199.593 324.372 183.614C325.205 182.127 326.085 180.664 327 179.224C326.906 179.153 326.824 179.071 326.73 179Z" fill="#8D142B"/>
<path d="M333.575 184C322.37 208.43 309.483 232.044 295 254.701C300.162 258.98 305.728 262.773 311.665 266C314.383 257.786 316.779 249.465 319.413 241.417C325.445 222.979 333.313 205.239 340 187.061C337.759 186.175 335.601 185.146 333.575 184Z" fill="#8D142B"/>
<path d="M346.556 189C345.376 193.315 343.958 197.607 342.719 201.934C338.977 215.14 334.21 228.014 328.847 240.652C324.866 250.029 320.564 259.216 316 268.262C318.074 269.257 320.195 270.158 322.34 271C326.606 261.943 330.73 252.827 334.388 243.497C340.681 227.469 348.272 209.402 350 191.478C349.893 190.909 349.738 190.351 349.607 189.782C348.582 189.545 347.557 189.285 346.544 189H346.556Z" fill="#8D142B"/>
<path d="M354.275 191C354.275 191.283 354.275 191.566 354.264 191.837C357.242 209.129 351.96 228.165 348.168 244.679C345.759 255.17 342.572 265.401 339 275.491C343.316 276.316 347.679 276.823 352.053 277C357.347 248.675 359.999 219.785 356.23 191.318C355.578 191.224 354.927 191.118 354.275 191Z" fill="#8D142B"/>
<path d="M367.766 192.154C366.852 192.119 365.926 192.059 365 192C365.481 194.791 365.938 197.593 366.348 200.396C371.306 224.692 377.177 248.799 382.545 273C386.132 271.741 389.636 270.197 393 268.369C379.416 245.141 370.79 218.98 367.766 192.154Z" fill="#8D142B"/>
<path d="M366 251C366.13 253.667 366.271 256.333 366.413 259C366.295 256.333 366.153 253.667 366 251Z" fill="#8D142B"/>
<path d="M361.469 249C360.373 258.364 358.842 267.706 357 277C359.004 276.977 361.008 276.872 363 276.732C362.527 267.484 361.967 258.248 361.469 249.012V249Z" fill="#8D142B"/>
<path d="M351.012 181.215C362.302 184.053 374.397 178.876 382.82 170.812C391.243 162.761 396.705 152.156 402 141.765C399.5 141.028 397.167 139.734 395.212 138C393.506 148.213 388.21 157.797 380.463 164.661C372.715 171.525 362.586 175.61 352.256 176.049C351.841 177.771 351.415 179.493 351 181.203L351.012 181.215Z" fill="#F2C446"/>
<path d="M352.257 175.828C351.842 177.619 351.415 179.409 351 181.187C356.655 182.657 362.499 182.052 368 180.027C367.194 177.68 366.483 175.334 365.831 173C361.48 174.642 356.892 175.618 352.257 175.828Z" fill="#DA5A00"/>
<path d="M485.629 157.119C485.453 156.679 485.253 156.24 484.982 155.847C484.3 154.853 483.054 154.102 481.867 154.414C481.008 154.634 480.173 155.385 479.362 155.05C478.857 154.853 478.574 154.299 478.081 154.091C477.446 153.825 476.74 154.195 476.152 154.541C475.176 155.131 474.189 155.732 473.213 156.321C472.613 156.483 472.025 156.668 471.449 156.853C467.216 158.205 462.831 159.881 458.457 159.106C457.751 161.591 456.576 163.937 455 166.006C459.409 167.554 463.865 169.103 468.51 169.727C473.154 170.351 478.057 169.981 482.208 167.831C484.324 166.734 486.746 165.162 488.874 166.237C490.015 166.815 490.673 168.016 491.649 168.837C492.625 169.657 494.4 169.923 495 168.802C491.567 165.15 489.733 159.846 485.653 157.107L485.629 157.119Z" fill="#EBA987"/>
<path d="M485.886 163C475.821 163 467.849 164.099 457.046 163.2C456.463 164.424 455.785 165.585 455 166.684C459.462 168.357 463.971 170.03 468.67 170.705C473.37 171.379 478.331 170.979 482.531 168.657C484.673 167.471 487.124 165.772 489.277 166.934C490.431 167.558 491.098 168.857 492.085 169.743C492.882 170.468 494.203 170.767 495 170.23C492.264 166.496 488.849 163.787 485.886 163Z" fill="#F28A53"/>
<path d="M466.988 158.255C458.586 156.168 450.36 153.39 442.415 150C441.335 154.704 440.197 159.396 439 164.089C447.696 166.291 456.521 167.939 465.439 169C465.956 165.414 466.472 161.84 467 158.255H466.988Z" fill="#165672"/>
<path d="M398.952 109.177C380.829 107.36 379.198 119.702 384.97 138.416C405.908 156.316 429.803 169.437 454.93 177C456.126 171.431 457.921 161.26 459 155.667C436.255 144.15 415.07 131.195 398.964 109.177H398.952Z" fill="#165672"/>
<path d="M384.777 138.539C405.923 156.382 430.054 169.461 455.429 177C456.164 173.636 457.112 168.59 458 163.898C430.883 159.181 405.354 147.925 383 132C383.474 134.07 384.066 136.258 384.789 138.539H384.777Z" fill="#062435"/>
<path d="M410 80.4757C411.326 80.9081 412.764 80.7352 414 80C413.764 81.0523 412.978 81.874 412.124 81.9893C411.27 82.0902 410.382 81.4703 410 80.4757Z" fill="#062435"/>
<path d="M408.107 49.6644C403.134 43.8905 395.436 41.121 387.878 40.276C379.572 39.3372 370.563 40.675 364.198 46.1203C358.126 51.3191 355.295 59.7921 356.149 67.7487C357.015 75.7053 361.285 83.0869 367.17 88.4969C373.008 93.86 380.449 97.4276 388.264 98.6363C393.26 99.3992 398.712 99.1175 402.9 96.2775C406.948 93.5314 409.206 88.849 410.856 84.237C414.951 72.8301 416.004 58.8532 408.095 49.6761L408.107 49.6644Z" fill="#EBA987"/>
<path d="M415.843 50.8933C412.97 46.3318 408.424 41.9824 403.525 40.0022C396.118 37.0083 387.827 36.1714 379.878 36.0064C371.929 35.8414 363.497 38.8471 358.927 45.5892C354.594 51.9777 354.44 60.4525 355.653 68.1612C357.396 79.3234 362.755 91.1692 373.036 95C382.869 93.0787 392.114 88.0929 399.309 80.9028C399.05 83.0952 398.261 85.2876 396.53 86.6077C400.781 84.875 404.208 81.3272 405.951 77.0957C409.614 75.0447 412.876 72.2984 415.125 68.7152C418.434 63.4464 419.164 56.1621 415.843 50.8933Z" fill="#062435"/>
<path d="M419.03 66.9832C420.805 68.1594 422.012 70.1508 422.213 72.247C422.415 74.3433 421.61 76.521 420.083 78C420.947 73.5048 418.142 68.602 413.799 66.9949C415.314 68.1944 416.32 69.9878 416.545 71.886C416.769 73.7843 416.225 75.764 415.042 77.278C415.207 75.0071 415.361 72.6779 414.675 70.5118C413.988 68.3458 412.284 66.3311 410 65.9584C412.308 64.2348 415.444 63.4895 418.201 64.3746C420.959 65.2597 423.125 67.9498 422.994 70.7913C421.906 69.3123 420.557 68.0197 419.03 66.9949V66.9832Z" fill="#062435"/>
<path d="M378 42.6572C375.665 41.6874 373.036 42.5507 370.571 43.0592C368.107 43.5678 365.041 43.4495 363.673 41.3208C362.141 38.9202 363.803 35.8218 365.383 33.4448C368.508 28.75 371.491 22.8843 369.227 17.7164C367.305 13.3527 362.353 11.295 357.742 10.0769C354.453 9.21365 350.974 8.55141 347.673 9.37922C344.371 10.207 341.305 12.856 341.01 16.25C335.079 15.3749 329.927 11.638 324.078 10.3489C319.302 9.29644 314.02 10.0415 310.058 12.9151C306.096 15.7888 303.691 20.9212 304.61 25.7462C305.2 28.7973 306.969 32.0849 305.424 34.7811C304.186 36.9335 301.344 37.5366 298.88 37.3355C296.415 37.1345 293.975 36.354 291.51 36.6023C284.353 37.3474 286.664 50.2257 274 48.641C276.783 50.6278 280.32 52.6855 283.41 51.2191C286.475 49.7527 287.831 45.2352 291.215 45.0578C293.244 44.9396 294.989 46.607 295.814 48.4637C296.639 50.3203 296.816 52.3898 297.335 54.3529C298.679 59.438 302.512 63.79 307.37 65.7767C312.228 67.7516 318.005 67.3141 322.498 64.6178C325.163 63.0213 327.439 60.6679 330.398 59.7692C332.78 59.0478 335.504 59.2961 337.591 57.9243C339.654 56.5644 340.503 53.9154 340.539 51.4438C340.574 48.9722 339.937 46.536 339.666 44.0763C339.395 41.581 339.548 38.9438 340.716 36.7206C341.883 34.4973 344.229 32.7708 346.729 32.9127C349.229 33.0546 351.528 35.4907 351.068 37.9623C350.727 39.7717 349.135 41.1435 348.805 42.9528C348.439 44.9869 349.842 47.0209 351.658 47.967C353.486 48.9249 355.62 49.0076 357.683 48.9249C364.841 48.6292 371.904 46.4651 377.988 42.6808L378 42.6572Z" fill="#062435"/>
<path d="M352 28.0042C348.173 27.8966 344.358 29.8806 342.225 33.0838C340.092 36.287 339.737 40.6137 341.301 44.1395C342.355 46.518 344.192 48.4782 345.329 50.8208C346.467 53.1634 346.751 56.2949 344.903 58.1235C343.457 59.5458 341.206 59.7012 339.203 59.4861C337.201 59.271 335.163 58.769 333.184 59.1992C330.175 59.8566 327.864 62.8924 328.006 66C327.911 63.2869 330.755 61.3028 333.445 61.0757C336.123 60.8486 338.753 61.8048 341.419 62.1514C344.085 62.498 347.201 62.0558 348.73 59.8327C350.128 57.8008 349.701 54.9682 348.588 52.757C347.474 50.5459 345.779 48.6814 344.595 46.5061C342.331 42.3109 342.213 37.0161 344.286 32.7253C346.36 28.4344 347.332 28.805 352 28.0161V28.0042Z" fill="#062435"/>
<path d="M337 18.8431C332.915 17.6571 329.322 15.2264 325.636 13.1245C321.938 11.0109 317.899 9.1438 313.649 9.22599C309.399 9.31993 304.938 11.9033 303.952 16.0484C303.459 18.1386 303.87 20.3109 304.14 22.4363C304.41 24.5617 304.492 26.8515 303.436 28.7186C302.379 30.5857 299.773 31.7012 298 30.5035C300.665 30.9027 302.567 27.7322 302.532 25.0314C302.496 22.3307 301.369 19.6886 301.616 16.9995C301.933 13.5707 304.527 10.6468 307.662 9.24948C310.796 7.85212 314.389 7.78166 317.782 8.28659C325.154 9.40213 332.104 13.2067 337 18.8431Z" fill="#062435"/>
<path d="M344.384 6.23372C341.831 5.10512 339.657 2.58657 336.879 2.82417C335.071 2.99049 333.606 4.30916 332.082 5.31896C330.557 6.31688 328.454 7.00591 327 5.91296C328.725 6.56635 330.593 5.414 331.94 4.14285C333.287 2.87169 334.61 1.35106 336.442 1.05406C339.562 0.543222 341.89 3.78645 344.75 5.15264C347.503 6.47132 350.777 6.008 353.684 5.08136C356.591 4.16661 359.415 2.82417 362.441 2.46777C367.357 1.88566 372.509 4.16661 375.404 8.20579C378.3 12.245 378.82 17.8761 376.728 22.3786C375.345 25.3367 373.005 27.7008 370.855 30.148C368.704 32.5953 366.636 35.3158 366.021 38.5234C365.407 41.731 366.695 45.5207 369.673 46.8037C366.293 47.8848 362.842 44.3089 362.772 40.7568C362.701 37.1929 364.91 34.009 367.298 31.3717C369.685 28.7462 372.426 26.2752 373.821 22.9963C375.617 18.7908 374.802 13.6468 371.966 10.0709C369.129 6.49508 364.45 4.55864 359.912 4.86752C354.653 5.2358 349.229 8.33647 344.395 6.20996L344.384 6.23372Z" fill="#062435"/>
<path d="M357.86 51.8347C357.074 52.3919 356.277 52.9613 355.359 53.2399C354.44 53.5064 353.353 53.4337 352.64 52.8038C351.915 52.1739 351.746 50.9019 352.447 50.2477C353.147 49.5936 354.585 50.0902 354.561 51.0473C353.522 50.914 352.773 49.7026 353.123 48.7213C353.462 47.728 354.791 47.2434 355.697 47.7764C354.851 47.0617 355.069 45.4747 356.059 45.0144C357.062 44.5541 358.403 45.4142 358.403 46.5166C357.437 45.7897 357.171 44.2754 357.835 43.2579C358.5 42.2403 359.998 41.889 361.05 42.4947C360.651 41.6224 360.409 40.6412 360.651 39.7084C360.892 38.7877 361.726 37.9761 362.669 37.9761C363.611 37.9761 364.481 39.0421 364.119 39.9265C364.203 39.0542 364.288 38.1578 364.686 37.3825C365.085 36.6072 365.871 35.9651 366.741 36.0015C367.61 36.0378 368.396 36.9827 368.07 37.7944C367.973 36.6799 369.701 36.1347 370.486 36.9221C371.272 37.7096 371.09 39.1148 370.39 39.9749C369.689 40.8471 368.613 41.3075 367.586 41.7436C368.311 41.7315 368.843 42.5916 368.662 43.2942C368.48 43.9968 367.792 44.4814 367.079 44.6268C366.366 44.7721 365.629 44.6631 364.916 44.542C365.242 45.4021 365.568 46.3833 365.158 47.2071C364.747 48.0308 363.224 48.1399 363.067 47.2313C363.031 48.1641 362.922 49.218 362.209 49.7995C361.497 50.381 360.047 49.848 360.288 48.9394C360.82 50.066 360.035 51.6045 358.814 51.8347C359.153 52.501 359.032 53.3732 358.524 53.9183C358.017 54.4634 358.548 52.1133 357.872 51.7983L357.86 51.8347Z" fill="#F2C446"/>
<path d="M408.881 351.738C411.901 353.295 413.864 356.269 416.414 358.505C419.093 360.858 422.477 362.392 426.014 362.872C427.53 363.071 429.093 363.083 430.539 362.579C431.984 362.076 433.277 361.011 433.77 359.57C434.511 357.405 433.335 355.075 432.043 353.19C428.741 348.413 424.334 344.339 419.105 341.798C413.875 339.258 407.8 338.309 402.112 339.527C400.138 339.948 398.011 340.826 397.259 342.688C396.566 344.397 397.341 346.423 398.681 347.675C400.032 348.94 401.842 349.572 403.616 350.04C405.403 350.52 407.236 350.883 408.881 351.726V351.738Z" fill="#F2C446"/>
<path d="M432.44 352.264C427.509 344.022 422.565 335.768 417.634 327.525C416.857 326.232 415.699 324.762 414.207 325.032C412.917 325.268 412.284 326.655 411.58 327.737C409.144 331.488 403.4 332.664 399.663 330.159C399.627 331.97 399.603 333.792 399.567 335.603C398.887 336.967 398.325 338.378 398.098 339.883C397.728 342.305 398.385 345.033 400.355 346.503C402.743 348.29 406.099 347.749 409 348.49C416.177 350.313 419.604 359.566 426.888 360.895C429.98 361.459 433.801 359.707 433.993 356.615C434.088 355.051 433.252 353.593 432.452 352.253L432.44 352.264Z" fill="#165672"/>
<path d="M421.015 346.869C423.584 347.516 425.457 345.692 427 343.151C423.925 337.939 420.85 332.727 417.775 327.527C417.01 326.233 415.867 324.762 414.394 325.033C413.122 325.268 412.498 326.656 411.802 327.738C411.319 328.491 410.707 329.139 410 329.668C413.134 336.48 415.561 344.692 421.003 346.869H421.015Z" fill="#062435"/>
<path d="M384.645 103C387.308 105.237 390.578 106.721 394 107.251C381.982 112.385 370.758 119.415 360.865 128C356.73 125.821 353.483 121.994 352 117.531C362.874 112.691 373.759 107.84 384.633 103H384.645Z" fill="#F2C446"/>
<path d="M344.781 117C341.331 115.633 337.695 114.722 334 114.301C339.25 110.422 343.764 105.538 347.213 100C350.475 100.14 353.738 100.28 357 100.409C352.615 105.702 348.534 111.252 344.769 117H344.781Z" fill="#F2C446"/>
<path d="M365.59 140.13C366.062 134.554 366.51 128.777 364.598 123.506C361.469 114.894 352.238 109.399 343.053 109.023C333.869 108.658 324.944 112.729 317.849 118.564C310.754 124.4 305.264 131.883 300.034 139.413C295.407 146.072 290.708 153.814 292.326 161.755C294.167 170.779 303.257 176.144 311.45 180.392C319.773 184.698 328.828 189.145 338.095 187.733C347.941 186.239 355.791 178.239 359.829 169.179C363.866 160.108 364.751 150.013 365.59 140.13Z" fill="#6FB2BB"/>
<path d="M297.897 143C294.097 148.971 290.958 155.609 292.327 162.415C294.168 171.556 303.254 176.99 311.444 181.293C319.763 185.655 328.814 190.16 338.078 188.73C347.294 187.312 354.775 180.113 359 171.651C338.786 161.89 318.441 152.248 297.897 143Z" fill="#229982"/>
<path d="M292.274 155C291.919 157.119 291.883 159.285 292.321 161.451C294.166 170.58 303.276 176.007 311.486 180.303C319.827 184.659 328.901 189.158 338.188 187.73C343.014 186.992 347.344 184.671 351 181.434C350.172 181.553 349.332 181.636 348.492 181.636C328.688 182.636 299.774 174.448 292.262 155H292.274Z" fill="#165672"/>
<path d="M346.783 155.323C349.309 148.259 350.978 140.89 351.741 133.427C352.435 126.692 352.012 118.994 346.971 114.465C343.669 111.496 338.898 110.534 334.515 111.203C330.132 111.871 326.09 114.019 322.506 116.635C314.222 122.69 308.123 131.233 302.753 139.975C300.509 143.624 298.288 147.813 299.217 151.99C300.121 156.015 303.67 158.82 306.995 161.26C311.543 164.593 316.196 167.937 321.543 169.744C326.889 171.551 333.105 171.61 337.852 168.582C342.435 165.661 344.938 160.439 346.771 155.323H346.783Z" fill="#F2C446"/>
<path d="M307.598 132.012C305.901 134.473 304.285 137.006 302.74 139.562C300.504 143.26 298.291 147.505 299.216 151.738C300.117 155.816 303.653 158.658 306.966 161.131C311.497 164.508 316.133 167.896 321.46 169.727C326.786 171.558 332.98 171.618 337.709 168.55C342.275 165.59 344.769 160.287 346.595 155.114C347.099 153.676 347.555 152.225 348 150.775C334.279 145.032 320.546 139.324 307.598 132V132.012Z" fill="#F28A53"/>
<path d="M307.586 138.028C306.796 138.171 306.124 138.719 305.571 139.315C301.635 143.556 302.543 150.752 306.101 155.315C309.659 159.879 315.174 162.38 320.547 164.442C323.363 165.514 326.438 166.527 329.337 165.693C332 164.918 334.014 162.702 335.534 160.355C337.054 158.008 338.221 155.423 340 153.266C330.161 148.429 320.323 143.592 310.484 138.767C309.577 138.314 308.587 137.861 307.586 138.04V138.028Z" fill="#F9F0D3"/>
<path d="M398.384 81.4901C398.476 79.2881 398.362 76.6689 396.527 75.4984C394.771 74.3858 392.446 75.3014 390.839 76.6225C387.454 79.4156 385.596 84.0165 386.074 88.4321C386.302 90.5066 387.089 92.6274 388.73 93.8791C390.315 95.0844 392.526 95.2814 394.407 94.644C396.287 94.0066 397.86 92.6042 399 90.9586L398.396 81.4901H398.384Z" fill="#EBA987"/>
<path d="M154.005 243.028C153.04 245.084 152.421 247.687 153.814 249.469C155.542 251.679 158.997 251.085 161.677 250.23C173.472 246.451 184.968 241.709 196 236.076C193.713 230.063 193.272 223.36 194.749 217.086C192.629 215.612 190.46 214.127 187.982 213.402C185.504 212.677 182.609 212.867 180.632 214.519C177.975 216.717 177.725 220.651 175.926 223.586C173.4 227.698 168.325 229.255 164.191 231.738C159.783 234.389 156.197 238.358 154.017 243.016L154.005 243.028Z" fill="#F2C446"/>
<path d="M157.005 244.027C156.04 246.083 155.421 248.686 156.814 250.469C158.542 252.68 161.997 252.085 164.677 251.23C176.472 247.45 187.968 242.708 199 237.074C196.713 231.06 196.272 224.356 197.749 218.081C195.628 216.607 193.46 215.121 190.982 214.396C188.504 213.683 185.609 213.862 183.632 215.514C180.975 217.712 180.725 221.647 178.926 224.582C176.4 228.695 171.325 230.252 167.191 232.736C162.783 235.386 159.197 239.356 157.017 244.015L157.005 244.027Z" fill="#165672"/>
<path d="M197.46 232C188.409 234.86 178.642 235.425 173.066 244.052C171.585 245.771 170.988 247.408 171 249C180.588 245.725 189.949 241.838 199 237.363C198.319 235.621 197.818 233.822 197.472 232H197.46Z" fill="#062435"/>
<path d="M352.898 168L351.82 167.507C355.672 159.18 358.398 150.372 359.927 141.341C360.828 136.052 361.562 129.179 359.346 122.963C356.276 114.366 347.411 108.173 338.213 108.173C338.142 108.173 338.071 108.173 338 108.173V107C338.059 107 338.142 107 338.213 107C347.909 107 357.248 113.521 360.472 122.564C362.783 129.038 362.025 136.098 361.1 141.529C359.548 150.665 356.798 159.567 352.898 167.988V168Z" fill="white"/>
<path d="M305.927 29C305.878 25.6973 306.039 22.3483 307.231 19.2427C308.424 16.137 310.746 13.2863 314 12C310.56 13.2515 307.691 15.801 306.201 18.9414C304.71 22.0818 304.599 25.7785 305.915 29H305.927Z" fill="#165672"/>
<path d="M360.405 13.3784C361.592 14.3946 362.616 15.8008 364.14 16.0726C365.35 16.2853 366.7 15.7417 367.771 16.3443C368.911 16.9824 369.12 18.5541 368.946 19.8657C368.515 23.2571 366.525 26.1994 364.606 29C366.13 26.4121 366.758 23.2925 366.351 20.3147C366.235 19.4639 365.979 18.5304 365.246 18.0696C364.326 17.4906 363.105 17.9514 362.069 17.656C360.871 17.3133 360.184 16.108 359.346 15.1745C357.752 13.4138 355.367 12.5748 353.016 12.3976C350.666 12.2203 348.327 12.6457 346 13.0593C348.269 11.8776 350.747 11.0623 353.296 11.0032C355.844 10.9441 358.45 11.7004 360.393 13.3784H360.405Z" fill="#165672"/>
<path d="M352 14.1235C353.497 13.8269 355.129 14.0705 356.431 14.7907C357.734 15.511 358.671 16.6972 359 18C357.369 16.1782 354.654 13.9222 352 14.1235Z" fill="#165672"/>
<path d="M305.685 45.4443C304.489 45.4085 303.58 44.3945 302.778 43.5118C301.032 41.5913 298.975 39.8735 296.547 38.9431C294.119 38.0245 291.261 37.9887 289 39.289C291.057 38.4659 293.449 38.6925 295.483 39.5991C297.516 40.5057 299.202 42.0446 300.602 43.7742C301.69 45.1222 302.611 46.5895 303.747 47.8897C304.883 49.19 306.283 50.3471 307.945 50.8003C310.289 51.4445 312.993 50.4902 314.404 48.51C315.827 46.5417 315.863 43.6788 314.5 41.6748C314.189 41.2215 313.806 40.7682 313.758 40.2075C313.674 39.0146 315.133 38.4182 315.983 37.5832C317.358 36.2352 317.179 33.9449 316.389 32.1913C315.6 30.4378 314.32 28.9228 313.662 27.1215C312.813 24.7954 313.124 22.0756 314.476 20C313.004 20.8827 312.227 22.6244 312.084 24.3302C311.94 26.036 312.347 27.7299 312.777 29.388C313.112 30.6763 313.351 32.3225 312.287 33.1218C311.545 33.6824 310.493 33.5393 309.644 33.8971C308.232 34.4936 307.754 36.271 307.862 37.7859C307.969 39.3009 308.507 40.792 308.4 42.3189C308.292 43.8339 307.216 45.492 305.685 45.4443Z" fill="#165672"/>
<path d="M305.762 42.6549C306.09 42.2595 306.014 41.672 305.915 41.1635C305.707 40.1128 305.511 39.0507 305.303 38C305.325 38.8813 304.964 39.7512 304.34 40.3501C303.717 40.9489 302.853 41.2539 302 41.1861C302.547 42.0222 303.378 42.6436 304.319 42.9148C304.811 43.0504 305.412 43.0617 305.751 42.6662L305.762 42.6549Z" fill="#165672"/>
<path d="M355.997 38C356.1 33.9301 353.171 30.0172 349.406 29.1718C345.641 28.3265 341.453 30.6814 340 34.4494C342.003 31.5993 345.687 30.2708 348.96 31.0558C352.233 31.8408 354.967 34.6185 355.997 38Z" fill="#165672"/>
<path d="M326.615 59.2225C324.729 60.0557 323.286 61.6627 321.668 62.972C320.062 64.2814 318.014 65.3765 316 64.8765C317.629 65.2812 319.224 64.079 320.283 62.7578C321.342 61.4246 322.215 59.8534 323.659 58.9964C325.451 57.937 327.732 58.2345 329.653 57.437C332.016 56.4491 333.482 53.9137 333.971 51.3545C334.46 48.7953 334.134 46.1528 333.924 43.546C333.703 40.9392 333.598 38.2491 334.483 35.797C335.368 33.3449 337.451 31.1785 340 31C337.172 33.0354 336.322 36.9635 336.497 40.4869C336.671 44.0102 337.661 47.4859 337.579 51.0093C337.544 52.89 337.137 54.8778 335.856 56.211C334.704 57.4013 333.028 57.8894 331.399 58.1631C329.781 58.4369 328.105 58.5559 326.592 59.2225H326.615Z" fill="#165672"/>
<path d="M330 51C331.353 49.2364 331.388 46.791 331.05 44.5807C330.711 42.3703 330.058 40.1835 330.257 37.9615C330.455 35.7394 331.819 33.3997 334 33C332.741 35.1986 332.589 37.8557 332.636 40.3952C332.682 42.9347 332.915 45.5095 332.297 47.9784C331.971 49.2717 331.271 50.6473 330 51Z" fill="#165672"/>
<path d="M361 67C359.561 62.8235 358.768 58.4289 358.643 54C358.246 56.2833 357.838 58.6011 358.065 60.9073C358.28 63.2136 359.198 65.5543 361 66.9885V67Z" fill="#165672"/>
<path d="M390.935 40C391.193 40.7337 391.45 41.4675 391.719 42.2129C390.865 41.0365 388.747 41.9333 388.466 43.3542C388.185 44.7751 389.121 46.161 390.163 47.1743C387.776 46.5104 385.002 47.943 384.171 50.2606C382.662 49.1659 380.649 50.4586 379.069 51.4719C374.506 54.3835 368.83 54.896 363.412 54.896C362.429 59.6594 363.225 64.749 365.589 69C365.647 66.0651 365.694 63.1301 365.752 60.1952C366.419 61.4414 367.32 62.6177 368.584 63.2582C369.848 63.8988 371.51 63.8872 372.575 62.9554C373.64 62.0237 373.733 60.102 372.598 59.2635C377.396 60.7309 382.744 60.3116 387.272 58.1454L386.348 55.0241C387.577 54.2205 389.192 54.4301 390.643 54.7213C392.094 55.0125 393.65 55.3386 394.984 54.7213C396.318 54.0924 396.973 52.0193 395.78 51.1574C397.57 51.7398 399.478 51.9727 401.362 51.8446C401.877 51.8096 402.509 51.6582 402.626 51.1574C402.731 50.7032 402.345 50.2956 401.982 50.0044C400.589 48.8281 399.185 47.6518 397.793 46.4755C399.536 46.5454 401.268 46.6153 403 46.6851C400.683 44.8566 398.366 43.0165 396.061 41.188C397.289 41.5141 398.518 41.8402 399.747 42.1663C396.81 41.4558 393.872 40.7337 390.947 40.0233L390.935 40Z" fill="#165672"/>
<path d="M395 39C397.755 41.4935 401.359 42.9351 405 43C401.408 40.3377 399.391 39.2857 395 39Z" fill="#165672"/>
<path d="M416.024 61C415.683 58.3333 415.341 55.6667 415 53C415.754 54.2676 416.521 55.5471 416.848 56.9342C417.176 58.3214 417.005 59.852 416.024 61Z" fill="#165672"/>
<path d="M392.348 87.3671C392.61 88.0725 392.431 88.9283 391.884 89.4602C391.337 89.9922 390.434 90.1541 389.732 89.8419C389.221 89.6106 388.84 89.1596 388.579 88.6739C387.532 86.7773 388.008 84.3835 389.185 82.5563C390.35 80.7407 392.122 79.3646 393.811 78C394.679 78.3469 395.44 78.983 395.797 79.8272C396.154 80.6714 396.047 81.7121 395.428 82.3944C394.834 83.042 393.918 83.2733 393.109 83.6434C392.301 84.0134 391.48 84.6842 391.54 85.5515C391.575 86.2222 392.122 86.7426 392.36 87.3671H392.348Z" fill="#062435"/>
<path d="M101.921 203C96.8794 190.416 92.541 177.4 89 164.303L90.1256 164C93.6432 177.051 97.9816 190.019 103 202.568L101.91 203H101.921Z" fill="#DA5A00"/>
<path d="M194.277 200.396L160 219L160.476 219.879L194.753 201.275L194.277 200.396Z" fill="#DA5A00"/>
<path d="M358.2 272C342.88 272 327.524 268.589 313.9 261.848C290.023 250.044 270.99 227.804 263 202.354L264.12 202C272.016 227.143 290.825 249.123 314.419 260.786C338.012 272.46 366.874 274.042 391.599 265.035L392 266.145C381.252 270.064 369.726 272 358.2 272Z" fill="#DA5A00"/>
<path d="M27.3764 142C27.2018 142 27.0147 141.928 26.8899 141.785C24.7321 139.246 23.6843 135.787 24.0835 132.53C24.1209 132.207 24.4577 131.968 24.782 132.004C25.1188 132.039 25.3682 132.339 25.3308 132.674C24.9691 135.607 25.917 138.732 27.8628 141.018C28.0749 141.27 28.0375 141.653 27.7755 141.856C27.6633 141.952 27.5136 141.988 27.3764 141.988V142Z" fill="white"/>
<path d="M31.3907 139.977C31.1919 139.977 31.0055 139.898 30.8813 139.739C29.2909 137.66 28.6573 134.944 29.1791 132.456C29.2412 132.149 29.5767 131.945 29.9122 132.013C30.2476 132.07 30.4713 132.377 30.3967 132.683C29.9246 134.876 30.4837 137.273 31.8877 139.102C32.0865 139.364 32.0119 139.716 31.7386 139.898C31.6268 139.966 31.5025 140 31.3783 140L31.3907 139.977Z" fill="white"/>
<path d="M35.1945 140C34.8038 140 34.4755 139.779 34.4286 139.473C33.9754 136.862 33.8816 134.201 34.1473 131.566C34.1786 131.222 34.5537 130.977 34.9913 131.002C35.429 131.026 35.7416 131.32 35.7103 131.664C35.4603 134.214 35.554 136.788 35.9917 139.313C36.0542 139.644 35.7572 139.963 35.3196 140C35.2883 140 35.2414 140 35.2102 140H35.1945Z" fill="white"/>
<path d="M38.6691 140.976H38.6419C38.2606 140.964 37.9746 140.676 38.0018 140.353C38.1652 137.332 38.7236 134.335 39.6633 131.433C39.7723 131.11 40.14 130.93 40.5077 131.026C40.8754 131.122 41.0797 131.445 40.9707 131.769C40.0583 134.586 39.5271 137.499 39.3637 140.425C39.3501 140.748 39.0505 141 38.6827 141L38.6691 140.976Z" fill="white"/>
<path d="M41.5312 142.988C41.4667 142.988 41.4021 142.976 41.3483 142.952C41.0686 142.832 40.9287 142.495 41.0363 142.182L43.963 133.389C44.0706 133.077 44.3827 132.92 44.6517 133.041C44.9314 133.161 45.0713 133.498 44.9637 133.81L42.037 142.603C41.9509 142.844 41.7464 143 41.5312 143V142.988Z" fill="white"/>
<path d="M195.37 239C195.13 239 194.916 238.889 194.803 238.688L191.064 231.803C190.913 231.524 191.039 231.19 191.353 231.056C191.668 230.923 192.046 231.034 192.197 231.313L195.936 238.198C196.087 238.476 195.961 238.811 195.647 238.944C195.559 238.978 195.47 239 195.37 239Z" fill="white"/>
<path d="M189.456 241C189.235 241 189.026 240.865 188.937 240.64L186.037 232.758C185.927 232.465 186.07 232.139 186.357 232.038C186.644 231.925 186.963 232.072 187.063 232.364L189.963 240.247C190.073 240.539 189.93 240.865 189.643 240.966C189.577 240.989 189.511 241 189.445 241H189.456Z" fill="white"/>
<path d="M185.445 243C185.276 243 185.106 242.921 184.993 242.774C183.187 240.387 181.81 237.593 181.019 234.709C180.94 234.403 181.11 234.098 181.414 234.019C181.719 233.939 182.024 234.12 182.103 234.415C182.848 237.163 184.158 239.821 185.885 242.095C186.077 242.344 186.021 242.695 185.772 242.887C185.671 242.966 185.547 243 185.434 243H185.445Z" fill="white"/>
<path d="M182.404 244.989C182.231 244.989 182.059 244.92 181.935 244.794C179.96 242.684 178.318 240.333 177.058 237.811C176.91 237.524 177.058 237.18 177.354 237.054C177.663 236.916 178.034 237.054 178.169 237.329C179.379 239.76 180.96 242.019 182.849 244.048C183.071 244.289 183.046 244.645 182.787 244.862C182.676 244.954 182.528 245 182.38 245L182.404 244.989Z" fill="white"/>
<path d="M179.403 248C179.306 248 179.21 247.976 179.113 247.929C176.66 246.636 174.798 244.394 174.025 241.76C173.928 241.44 174.122 241.119 174.436 241.025C174.762 240.93 175.089 241.119 175.185 241.428C175.862 243.717 177.542 245.758 179.681 246.885C179.971 247.039 180.092 247.395 179.923 247.692C179.814 247.893 179.608 248 179.391 248H179.403Z" fill="white"/>
<path d="M409.617 335C409.445 335 409.273 334.925 409.15 334.786C408.929 334.522 408.954 334.132 409.212 333.906C411.888 331.517 414.896 329.555 418.137 328.059C418.444 327.908 418.813 328.059 418.948 328.373C419.083 328.688 418.948 329.065 418.641 329.203C415.51 330.637 412.6 332.535 410.022 334.849C409.912 334.95 409.764 335 409.617 335Z" fill="white"/>
<path d="M411.607 336.988C411.439 336.988 411.26 336.919 411.14 336.779C410.925 336.535 410.961 336.163 411.224 335.965C413.914 333.813 416.927 332.15 420.202 331.033C420.513 330.928 420.86 331.079 420.967 331.394C421.075 331.696 420.908 332.033 420.597 332.138C417.453 333.22 414.547 334.813 411.977 336.872C411.87 336.965 411.726 337 411.595 337L411.607 336.988Z" fill="white"/>
<path d="M414.605 341C414.424 341 414.243 340.912 414.123 340.749C413.917 340.472 413.978 340.083 414.243 339.869C417.03 337.684 420.022 335.724 423.123 334.066C423.424 333.915 423.786 334.028 423.931 334.342C424.088 334.657 423.967 335.033 423.666 335.184C420.613 336.805 417.682 338.726 414.955 340.874C414.846 340.962 414.714 341 414.593 341H414.605Z" fill="white"/>
<path d="M416.602 345C416.458 345 416.314 344.951 416.194 344.84C415.954 344.619 415.93 344.226 416.158 343.968C418.663 341.129 421.768 338.746 425.136 337.062C425.424 336.915 425.795 337.038 425.939 337.345C426.083 337.652 425.963 338.021 425.664 338.168C422.439 339.778 419.466 342.076 417.057 344.791C416.937 344.926 416.781 344.988 416.614 344.988L416.602 345Z" fill="white"/>
<path d="M419.607 347C419.486 347 419.353 346.967 419.244 346.889C418.978 346.7 418.917 346.355 419.123 346.111C421.203 343.533 423.974 341.443 427.131 340.054C427.433 339.921 427.796 340.043 427.941 340.321C428.086 340.599 427.953 340.932 427.651 341.065C424.675 342.377 422.062 344.344 420.091 346.778C419.97 346.922 419.788 347 419.607 347Z" fill="white"/>
<path d="M222.56 304C222.426 304 222.304 303.953 222.192 303.859C221.958 303.647 221.936 303.27 222.136 303.023C224.143 300.574 224.444 296.653 222.828 293.897C222.66 293.615 222.75 293.261 223.006 293.085C223.262 292.92 223.608 293.002 223.775 293.273C225.67 296.499 225.336 300.927 222.984 303.788C222.872 303.918 222.716 303.988 222.56 303.988V304Z" fill="white"/>
<path d="M225.543 306C225.433 306 225.312 305.965 225.224 305.884C224.982 305.699 224.927 305.34 225.103 305.074C226.741 302.7 227.301 299.574 226.598 296.725C226.521 296.413 226.697 296.1 226.994 296.019C227.29 295.938 227.587 296.123 227.664 296.436C228.455 299.62 227.829 303.094 225.993 305.757C225.883 305.907 225.719 306 225.554 306H225.543Z" fill="white"/>
<path d="M230.518 308.988C230.403 308.988 230.298 308.953 230.204 308.87C229.974 308.669 229.932 308.302 230.11 308.041C231.856 305.437 232.41 301.886 231.542 298.772C231.459 298.465 231.605 298.133 231.887 298.027C232.159 297.932 232.452 298.098 232.546 298.417C233.518 301.897 232.902 305.863 230.957 308.763C230.852 308.917 230.696 309 230.539 309L230.518 308.988Z" fill="white"/>
<path d="M236.716 310C236.656 310 236.583 310 236.523 309.963C236.209 309.851 236.039 309.504 236.148 309.17C237.043 306.505 237.006 303.469 236.039 300.83C235.918 300.508 236.088 300.148 236.39 300.037C236.692 299.925 237.055 300.074 237.163 300.396C238.239 303.345 238.275 306.605 237.284 309.579C237.2 309.839 236.958 310 236.716 310Z" fill="white"/>
<path d="M243.316 308C242.933 308 242.632 307.736 242.632 307.4C242.632 305.154 242.084 302.897 241.058 300.843C240.908 300.543 241.058 300.183 241.414 300.051C241.756 299.919 242.166 300.051 242.317 300.363C243.412 302.561 244 304.998 244 307.4C244 307.736 243.699 308 243.316 308Z" fill="white"/>
<path d="M125 120H124V121H125V120Z" fill="white"/>
<path d="M162.97 129L161.888 128.527C164.569 122.349 167.603 115.355 167.814 108.185C168.003 101.746 165.298 93.8077 158.819 90.6063C151.611 87.0386 143.086 90.7244 138.206 95.6506C132.703 101.215 129.728 108.988 127.094 115.852L126 115.426C128.669 108.456 131.691 100.553 137.371 94.8119C142.533 89.5903 151.611 85.7155 159.336 89.5431C166.286 92.9808 169.19 101.392 168.99 108.208C168.767 115.604 165.686 122.715 162.97 128.988V129Z" fill="white"/>
<mask id="mask0_1_12180" style="mask-type:luminance" maskUnits="userSpaceOnUse" x="2" y="293" width="302" height="145">
<path d="M304 293H2V438H304V293Z" fill="white"/>
</mask>
<g mask="url(#mask0_1_12180)">
<path d="M280.994 446C281.632 445.493 282.223 444.915 282.754 444.242C285.695 440.538 285.754 434.84 282.896 431.065C280.038 427.302 274.511 425.827 270.153 427.668C274.334 423.22 270.259 415.234 264.401 413.488C260.398 412.296 256.229 413.004 252.178 414.313C254.08 411.753 254.646 407.471 253.158 403.873C251.044 398.73 244.703 396.441 239.14 396.736C236.01 396.901 232.999 397.774 230.058 398.918C233.176 395.474 234.345 389.752 232.054 385.482C228.511 378.863 219.843 376.398 212.462 377.766C205.08 379.147 198.656 383.511 192.479 387.782C196.837 379.536 201.018 368.836 195.113 361.616C189.751 355.045 178.732 356.178 172.296 361.687C168.363 365.049 165.718 369.485 163.616 374.251C163.51 371.089 162.352 367.951 160.12 365.686C155.467 360.944 147.129 360.614 141.945 364.766C136.748 368.919 135.189 376.87 138.189 382.804C135.39 377.247 132.603 371.679 129.804 366.123C118.75 373.46 112.337 387.228 113.837 400.393C112.314 394.117 107.011 388.914 100.705 387.522C97.3741 386.791 93.8666 387.133 90.6897 388.36C91.9416 387.192 93.0399 385.894 93.902 384.396C96.264 380.303 96.0986 374.345 92.2604 371.585C89.8512 369.862 86.6625 369.768 83.7101 370.039C75.3605 370.806 67.2471 374.039 60.6453 379.206C65.9952 367.881 68.2155 355.081 66.9873 342.623C66.5739 338.459 65.6645 334.07 62.7475 331.05C56.7835 324.881 45.5051 328.207 40.6984 335.309C35.8918 342.411 35.7028 351.554 35.691 360.118C34.2148 347.283 31.9827 334.531 29.0303 321.955C28.05 317.814 26.6919 313.249 23.0072 311.102C19.3343 308.966 14.4096 310.134 11.1855 312.895C7.9496 315.655 6.10726 319.69 4.7255 323.701C-1.46288 341.738 0.20231 362.324 9.20145 379.135C5.82382 376.893 4.44206 372.67 3.5327 368.718C2.62334 364.766 1.86751 360.543 -0.848769 357.535C-3.56504 354.526 -9.05664 353.618 -11.4541 356.886C-13.32 359.434 -12.4461 362.973 -11.5013 365.981C-9.19836 373.295 -6.89543 380.609 -4.5925 387.924C-8.48977 378.167 -15.7765 369.768 -25 364.695C-23.4293 394.494 -11.4659 423.621 8.31571 445.976H280.994V446Z" fill="#165672"/>
<path d="M245.489 437.902C246.503 437.724 247.341 437.263 248.025 436.613C259.443 433.539 271.192 431.719 283 431.163C282.976 431.127 282.953 431.092 282.917 431.045C282.646 430.69 282.339 430.347 282.021 430.04C274.648 430.43 267.3 431.293 260.045 432.653C266.84 431.175 273.669 429.898 280.523 428.798C279.992 428.432 279.426 428.113 278.824 427.853C269.034 429.46 259.302 431.458 249.665 433.835C250.066 432.534 250.148 431.08 249.877 429.709C256.896 426.257 264.079 423.1 271.334 420.239C271.204 419.872 271.051 419.506 270.874 419.151C263.666 422.001 256.53 425.133 249.558 428.562C249.134 427.38 248.438 426.316 247.435 425.547C243.271 422.32 236.89 423.75 233.044 427.356C233.174 427.072 233.268 426.765 233.363 426.469C240.004 420.121 246.904 414.044 254.041 408.251C254.041 407.766 254.017 407.282 253.958 406.785C246.963 412.424 240.192 418.336 233.681 424.519C233.716 423.396 233.528 422.249 233.115 421.208C239.508 414.99 246.138 409.008 252.932 403.238C252.755 402.872 252.555 402.529 252.331 402.198C245.548 407.956 238.93 413.914 232.56 420.109C232.36 419.766 232.136 419.447 231.888 419.151C236.606 411.951 241.466 404.811 246.433 397.765C246.055 397.623 245.654 397.493 245.265 397.374C240.405 404.267 235.663 411.23 231.039 418.276C228.573 416.172 224.74 415.853 221.979 417.555C222.027 413.595 218.972 409.812 215.102 409.043C211.233 408.275 206.963 410.592 205.501 414.281C205.961 411.999 205.265 409.823 203.92 408.015C211.139 398.308 218.913 389.016 227.158 380.173C226.816 379.96 226.474 379.759 226.108 379.57C217.957 388.319 210.278 397.505 203.13 407.092C207.942 396.866 213.451 386.994 219.608 377.525C219.172 377.466 218.736 377.418 218.287 377.383C212.295 386.628 206.916 396.251 202.209 406.218C200.086 404.432 197.267 403.321 194.495 403.357C188.573 403.439 183.348 407.116 178.794 410.923C180.871 406.253 177.615 400.933 172.991 398.734C179.774 386.096 187.382 373.848 195.71 362.156C195.557 361.943 195.427 361.718 195.25 361.505C195.155 361.387 195.049 361.293 194.943 361.186C186.485 373.044 178.771 385.458 171.894 398.285C171.528 398.155 171.162 398.06 170.785 397.966C174.43 383.885 179.538 370.088 185.931 357.036C185.495 357.013 185.058 357.013 184.622 357.013C178.287 370.029 173.227 383.755 169.605 397.776C169.11 397.717 168.603 397.694 168.095 397.717C162.54 398.001 157.868 401.95 155.049 406.868C155.297 403.794 153.15 400.271 149.989 399.455C149.788 399.408 149.576 399.372 149.375 399.337C151.003 387.124 153.575 375.077 157.031 363.255C156.677 363.078 156.311 362.912 155.946 362.77C152.442 374.711 149.847 386.888 148.196 399.219C147.453 399.207 146.698 399.302 145.978 399.491C146.45 386.888 147.641 374.309 149.552 361.836C149.139 361.872 148.738 361.919 148.337 361.978C146.426 374.534 145.223 387.195 144.763 399.893C143.407 400.436 142.133 401.3 141.047 402.352C139.95 390.849 139.384 379.286 139.361 367.736C138.912 368.41 138.535 369.119 138.205 369.852C138.299 381.083 138.889 392.326 139.986 403.522C139.502 404.137 139.066 404.775 138.712 405.461C136.577 409.54 136.435 414.351 136.6 418.962C135.704 418.56 134.795 418.206 133.875 417.875C128.237 402.458 125.465 385.883 125.701 369.426C125.3 369.805 124.899 370.183 124.509 370.573C124.427 386.474 127.116 402.47 132.46 417.402C131.221 417.011 129.959 416.704 128.685 416.444C124.026 403.735 120.935 390.482 119.461 377.04C119.119 377.584 118.788 378.139 118.482 378.707C120.003 391.487 122.976 404.09 127.352 416.208C123.861 415.652 120.286 415.581 116.783 416.042L116.724 421.386C112.253 418.253 106.945 416.385 101.519 415.829C104.043 407.305 105.612 398.509 106.214 389.654C105.836 389.418 105.447 389.193 105.058 388.992C104.503 398.048 102.923 407.022 100.328 415.723C97.7444 415.557 95.1375 415.699 92.5895 416.148L102.793 387.999C102.427 387.869 102.05 387.751 101.661 387.645L91.2212 416.42C89.8764 416.716 88.5553 417.094 87.2695 417.579C86.55 416.74 85.7361 416.007 84.8514 415.368C88.225 405.768 92.1059 396.322 96.435 387.124C95.975 387.148 95.5267 387.195 95.0667 387.254C90.8909 396.204 87.128 405.378 83.8369 414.694C78.2338 411.301 70.3895 411.573 65.2465 415.699C68.3724 412.212 68.0067 405.875 64.1023 403.096C64.0905 403.096 64.0669 403.085 64.0551 403.073C72.1353 391.357 81.5957 380.764 92.2828 371.377C91.9289 371.141 91.5633 370.94 91.1858 370.774C80.534 380.185 71.0973 390.778 63.0288 402.494C62.7221 402.352 62.3918 402.222 62.0734 402.127C68.0185 390.127 76.0988 379.097 85.7361 369.864C85.1345 369.876 84.5447 369.911 83.9549 369.97C83.9431 369.97 83.9313 369.97 83.9195 369.97C74.5535 379.168 66.7092 390.045 60.882 401.855C56.8713 401.276 52.3417 403.688 51.2329 407.684C51.9406 401.926 52.613 395.92 50.6195 390.47C50.0887 389.016 49.2865 387.633 48.3075 386.391C53.4151 367.31 55.6564 347.389 54.925 327.646C54.5357 327.646 54.1465 327.67 53.7454 327.705C54.4532 347.058 52.2945 366.577 47.3638 385.304C46.7268 384.642 46.0308 384.027 45.2995 383.507C48.7675 365.442 50.124 347.106 49.3573 328.71C48.968 328.852 48.5788 329.006 48.2013 329.183C48.9091 347.188 47.5761 365.147 44.2261 382.833C42.1264 381.651 39.7672 381.107 37.3726 381.603C35.4735 382.005 33.7984 382.998 32.4065 384.346C22.663 361.056 16.4348 336.134 14.0638 311C13.6745 311.189 13.297 311.402 12.9314 311.627C15.3731 336.891 21.6722 361.919 31.51 385.292C31.2151 385.635 30.9556 386.001 30.6961 386.368C20.4808 364.201 12.8488 340.958 7.94167 317.018C7.63497 317.538 7.34007 318.07 7.05697 318.614C12.0467 342.424 19.714 365.525 29.9411 387.562C29.4575 388.437 29.0564 389.347 28.7498 390.281C27.6173 393.769 27.5466 397.481 27.6409 401.158C27.5112 397.729 27.1101 394.253 25.1992 391.463C22.9461 388.165 17.8031 386.557 14.9249 389.312C14.2171 389.985 13.7335 390.837 13.3914 391.759C3.7423 381.083 -3.91328 368.54 -8.95016 355.086C-9.31583 355.228 -9.66971 355.417 -10 355.641C-4.82157 369.403 3.06993 382.206 13.0139 393.071C12.9667 393.26 12.9314 393.461 12.896 393.65C4.42647 386.805 -3.19373 378.92 -9.78767 370.242C-9.44559 371.318 -9.1153 372.382 -8.78502 373.458C-2.43879 381.414 4.75675 388.673 12.6954 395.022C12.2118 399.514 12.8606 404.125 14.5356 408.322C14.0756 407.648 13.533 407.045 12.8724 406.549C11.044 405.189 8.03603 405.177 6.84464 407.116C5.93635 408.594 6.40819 410.497 6.99799 412.129C9.86441 419.979 15.1136 426.93 21.8727 431.825C22.4389 437.843 18.1334 440.881 17.2251 446H249.688C251.717 442.678 249.24 437.003 245.442 437.89L245.489 437.902Z" fill="#123A20"/>
</g>
</svg>
