<svg width="24" height="24" viewBox="0 0 24 24" fill="none" xmlns="http://www.w3.org/2000/svg">
<g clip-path="url(#clip0_3_160)">
<path opacity="0.969" fill-rule="evenodd" clip-rule="evenodd" d="M8.03933 -0.0234375C8.4612 -0.0234375 8.88308 -0.0234375 9.30495 -0.0234375C10.9064 0.296454 11.969 1.23396 12.4925 2.78906C11.719 2.80469 10.9456 2.82031 10.1721 2.83594C9.30326 2.84185 8.43608 2.81842 7.57058 2.76562C6.50065 2.44721 6.10222 1.73627 6.37526 0.632812C6.89225 0.307068 7.44692 0.0883181 8.03933 -0.0234375Z" fill="white"/>
<path opacity="0.983" fill-rule="evenodd" clip-rule="evenodd" d="M18.0703 -0.0234375C18.2578 -0.0234375 18.4453 -0.0234375 18.6328 -0.0234375C18.8558 0.116456 19.0433 0.296144 19.1953 0.515625C19.3672 0.609375 19.5391 0.609375 19.711 0.515625C19.8634 0.29409 20.0509 0.114402 20.2735 -0.0234375C20.461 -0.0234375 20.6485 -0.0234375 20.836 -0.0234375C21.546 0.218422 22.1632 0.609047 22.6875 1.14844C22.7599 1.27979 22.799 1.42041 22.8047 1.57031C22.7755 1.79081 22.713 2.00175 22.6172 2.20312C22.6462 2.41798 22.7556 2.57423 22.9453 2.67188C23.5938 2.70322 23.9376 3.03916 23.9766 3.67969C23.9766 4.11719 23.9766 4.55469 23.9766 4.99219C23.9359 5.63437 23.5922 5.97028 22.9453 6C22.7556 6.09764 22.6462 6.25392 22.6172 6.46875C22.6944 6.67673 22.7569 6.88767 22.8047 7.10156C22.799 7.25147 22.7599 7.39209 22.6875 7.52344C22.1078 8.1533 21.3969 8.55956 20.5547 8.74219C20.4438 8.72616 20.3344 8.70272 20.2266 8.67188C20.0342 8.52216 19.8623 8.35031 19.711 8.15625C19.5391 8.0625 19.3672 8.0625 19.1953 8.15625C19.044 8.35031 18.8721 8.52216 18.6797 8.67188C18.579 8.69902 18.4774 8.72245 18.375 8.74219C17.5226 8.56617 16.8039 8.15991 16.2188 7.52344C16.1147 7.33148 16.0834 7.12838 16.125 6.91406C16.3732 6.55055 16.3185 6.24586 15.961 6C15.5281 6.02991 15.2234 5.85019 15.0469 5.46094C14.9109 4.7767 14.8953 4.08919 15 3.39844C15.1218 2.90307 15.4421 2.66088 15.961 2.67188C16.1507 2.57423 16.2601 2.41798 16.2891 2.20312C16.1933 2.00175 16.1308 1.79081 16.1016 1.57031C16.1073 1.42041 16.1464 1.27979 16.2188 1.14844C16.7431 0.609047 17.3603 0.218422 18.0703 -0.0234375ZM19.2422 3.67969C19.9788 3.67331 20.2366 4.01706 20.0156 4.71094C19.6406 5.14842 19.2656 5.14842 18.8906 4.71094C18.6859 4.25492 18.803 3.91117 19.2422 3.67969Z" fill="white"/>
<path opacity="0.984" fill-rule="evenodd" clip-rule="evenodd" d="M5.03906 2.13281C5.55169 3.35505 6.47358 4.03473 7.80469 4.17188C9.414 4.19531 11.0234 4.20313 12.6328 4.19531C12.8458 5.5455 12.5723 6.77986 11.8125 7.89844C10.3352 9.49073 8.60864 9.82669 6.63281 8.90625C5.4938 8.21489 4.82977 7.20708 4.64063 5.88281C4.60937 5.10155 4.60937 4.32031 4.64063 3.53906C4.68628 3.04372 4.81908 2.57497 5.03906 2.13281Z" fill="white"/>
<path opacity="0.983" fill-rule="evenodd" clip-rule="evenodd" d="M4.57031 8.92969C6.29873 10.7249 8.34563 11.2015 10.7109 10.3594C11.4795 10.0282 12.1436 9.55162 12.7031 8.92969C14.2725 9.60084 15.124 10.7883 15.2578 12.4922C10.8516 12.4922 6.44531 12.4922 2.03906 12.4922C2.14656 10.7759 2.99031 9.58838 4.57031 8.92969Z" fill="white"/>
<path opacity="0.994" fill-rule="evenodd" clip-rule="evenodd" d="M15.4922 23.9766C10.914 23.9766 6.33595 23.9766 1.75781 23.9766C1.51689 23.8679 1.36845 23.6804 1.3125 23.4141C0.881273 20.5927 0.435962 17.7802 -0.0234375 14.9766C-0.0234375 14.7578 -0.0234375 14.5391 -0.0234375 14.3203C0.0616317 14.1338 0.202257 14.001 0.398438 13.9219C5.88281 13.8906 11.3672 13.8906 16.8516 13.9219C17.1645 14.0397 17.3207 14.2662 17.3203 14.6016C16.8659 17.5713 16.405 20.5401 15.9375 23.5078C15.8415 23.7209 15.693 23.8771 15.4922 23.9766ZM8.36719 16.8516C9.60263 16.8138 10.3761 17.3919 10.6875 18.5859C10.7827 19.8881 10.1967 20.6928 8.92969 21C7.89314 21.0718 7.15097 20.6421 6.70312 19.7109C6.3757 18.6933 6.63352 17.8574 7.47656 17.2031C7.75823 17.0304 8.05509 16.9133 8.36719 16.8516Z" fill="white"/>
<path opacity="0.921" fill-rule="evenodd" clip-rule="evenodd" d="M8.46084 18.2109C9.186 18.223 9.45942 18.5824 9.28115 19.2891C8.88159 19.7704 8.45971 19.786 8.01553 19.3359C7.7924 18.8095 7.94085 18.4345 8.46084 18.2109Z" fill="white"/>
</g>
<defs>
<clipPath id="clip0_3_160">
<rect width="24" height="24" fill="white"/>
</clipPath>
</defs>
</svg>
