<svg width="24" height="24" viewBox="0 0 24 24" fill="none" xmlns="http://www.w3.org/2000/svg">
<g clip-path="url(#clip0_3_240)">
<path opacity="0.988" fill-rule="evenodd" clip-rule="evenodd" d="M13.8516 -0.0234375C14.5078 -0.0234375 15.1641 -0.0234375 15.8203 -0.0234375C18.4342 0.219346 20.6138 1.3131 22.3594 3.25781C23.23 4.33082 23.769 5.54958 23.9766 6.91406C23.9766 7.4453 23.9766 7.97658 23.9766 8.50781C23.7635 9.96516 23.1698 11.2464 22.1953 12.3516C22.7915 13.0567 23.3853 13.7599 23.9766 14.4609C23.9766 14.6484 23.9766 14.8359 23.9766 15.0234C23.8915 15.21 23.7509 15.3428 23.5547 15.4219C22.7423 15.4453 21.9299 15.4531 21.1172 15.4453C21.0058 12.9182 20.0371 10.7854 18.2109 9.04688C15.375 6.57567 12.0781 5.54442 8.32031 5.95312C7.44197 6.06727 6.58261 6.26255 5.74219 6.53906C5.84756 5.68458 6.13664 4.8877 6.60938 4.14844C8.0003 2.09595 9.91439 0.791269 12.3516 0.234375C12.8556 0.132423 13.3556 0.0464852 13.8516 -0.0234375Z" fill="white"/>
<path opacity="0.991" fill-rule="evenodd" clip-rule="evenodd" d="M11.4141 23.9765C7.7422 23.9765 4.07031 23.9765 0.398438 23.9765C0.328738 23.9154 0.250613 23.8608 0.164063 23.8125C0.107973 23.718 0.0454726 23.632 -0.0234375 23.5547C-0.0234375 23.3672 -0.0234375 23.1797 -0.0234375 22.9922C0.630375 22.2286 1.28663 21.463 1.94531 20.6953C0.856594 19.4553 0.200341 18.0178 -0.0234375 16.3828C-0.0234375 15.8359 -0.0234375 15.289 -0.0234375 14.7422C0.433757 12.196 1.76188 10.235 3.96094 8.85935C6.85472 7.1853 9.9172 6.79469 13.1484 7.68747C15.7155 8.42739 17.6608 9.95083 18.9844 12.2578C20.2673 15.069 19.986 17.7096 18.1406 20.1797C16.3809 22.2891 14.1387 23.5547 11.4141 23.9765ZM5.27344 14.0859C6.45206 14.0379 7.00673 14.6004 6.9375 15.7734C6.58852 16.6977 5.94009 17.0024 4.99219 16.6875C4.28744 16.2453 4.0765 15.628 4.35938 14.8359C4.56151 14.4535 4.86619 14.2035 5.27344 14.0859ZM9.53906 14.0859C10.7177 14.0379 11.2724 14.6004 11.2031 15.7734C10.8541 16.6977 10.2057 17.0024 9.25781 16.6875C8.5155 16.2101 8.32017 15.5617 8.67188 14.7422C8.88403 14.4143 9.17311 14.1955 9.53906 14.0859ZM13.8047 14.0859C14.9833 14.0379 15.538 14.6004 15.4688 15.7734C15.1198 16.6977 14.4713 17.0024 13.5234 16.6875C12.7811 16.2101 12.5858 15.5617 12.9375 14.7422C13.1497 14.4143 13.4387 14.1955 13.8047 14.0859Z" fill="white"/>
</g>
<defs>
<clipPath id="clip0_3_240">
<rect width="24" height="24" fill="white"/>
</clipPath>
</defs>
</svg>
