<svg width="24" height="24" viewBox="0 0 24 24" fill="none" xmlns="http://www.w3.org/2000/svg">
<g clip-path="url(#clip0_3_254)">
<path opacity="0.994" fill-rule="evenodd" clip-rule="evenodd" d="M23.9766 7.80464C23.9766 8.33588 23.9766 8.86716 23.9766 9.39839C23.6666 11.1436 22.9713 12.7217 21.8906 14.1328C20.9212 15.3837 19.8509 16.5477 18.6797 17.625C16.7195 19.3548 14.6257 20.9017 12.3984 22.2656C12.1172 22.4218 11.8359 22.4218 11.5547 22.2656C8.52647 20.4638 5.78428 18.2841 3.32812 15.7265C2.09792 14.4011 1.12917 12.9011 0.421875 11.2265C0.220562 10.6555 0.0721242 10.0774 -0.0234375 9.49214C-0.0234375 8.94525 -0.0234375 8.39841 -0.0234375 7.85152C0.264579 5.56365 1.35833 3.77457 3.25781 2.48433C5.4135 1.26564 7.56975 1.26564 9.72656 2.48433C10.6417 3.07914 11.3917 3.83696 11.9766 4.75777C13.8887 1.93017 16.4825 1.01611 19.7578 2.01558C21.7915 2.9177 23.1118 4.44113 23.7188 6.58589C23.8209 6.99544 23.9068 7.40166 23.9766 7.80464Z" fill="white"/>
</g>
<defs>
<clipPath id="clip0_3_254">
<rect width="24" height="24" fill="white"/>
</clipPath>
</defs>
</svg>
