<svg width="24" height="24" viewBox="0 0 24 24" fill="none" xmlns="http://www.w3.org/2000/svg">
<g clip-path="url(#clip0_3_227)">
<path opacity="0.982" fill-rule="evenodd" clip-rule="evenodd" d="M3.44558 2.97662C5.26616 2.82747 6.4302 3.62434 6.93777 5.36725C7.15494 7.13336 6.42838 8.31306 4.75808 8.90631C3.16772 9.20078 1.98803 8.64606 1.21902 7.24225C0.675805 5.79793 0.980493 4.57135 2.13308 3.56256C2.53438 3.27576 2.97189 3.08045 3.44558 2.97662Z" fill="white"/>
<path opacity="0.986" fill-rule="evenodd" clip-rule="evenodd" d="M11.3672 2.97657C13.1466 2.79999 14.5138 3.45624 15.4688 4.94532C16.4126 6.91121 16.0923 8.63775 14.5079 10.125C13.2011 11.0795 11.7948 11.2514 10.2891 10.6406C8.4359 9.64496 7.69369 8.10591 8.06254 6.02344C8.54554 4.32924 9.64711 3.31361 11.3672 2.97657Z" fill="white"/>
<path opacity="0.982" fill-rule="evenodd" clip-rule="evenodd" d="M19.4297 2.97654C20.9278 2.82306 22.0294 3.40118 22.7344 4.71092C23.2775 6.15575 22.9728 7.38232 21.8203 8.39061C20.9235 9.00528 19.9547 9.1459 18.9141 8.81248C17.6619 8.28575 17.0056 7.34047 16.9453 5.97654C17.0596 4.37843 17.8877 3.37843 19.4297 2.97654Z" fill="white"/>
<path opacity="0.984" fill-rule="evenodd" clip-rule="evenodd" d="M-0.0234375 15.3985C-0.0234375 14.4141 -0.0234375 13.4297 -0.0234375 12.4453C0.28279 11.2093 1.04842 10.4046 2.27344 10.0313C3.31859 9.95627 4.36546 9.94062 5.41406 9.9844C6.15042 10.1064 6.76758 10.4423 7.26562 10.9922C7.29455 11.0367 7.28677 11.0757 7.24219 11.1094C5.15723 12.5051 4.0791 14.466 4.00781 16.9922C3.21078 17 2.41391 16.9922 1.61719 16.9688C0.754139 16.7697 0.207264 16.2462 -0.0234375 15.3985Z" fill="white"/>
<path opacity="0.984" fill-rule="evenodd" clip-rule="evenodd" d="M23.977 12.4453C23.977 13.4297 23.977 14.4141 23.977 15.3985C23.7463 16.2462 23.1995 16.7697 22.3364 16.9688C21.5397 16.9922 20.7428 17 19.9458 16.9922C19.8745 14.466 18.7964 12.5051 16.7114 11.1094C16.6668 11.0757 16.6591 11.0367 16.688 10.9922C17.186 10.4423 17.8032 10.1064 18.5395 9.9844C19.5881 9.94062 20.635 9.95627 21.6802 10.0313C22.9052 10.4046 23.6708 11.2093 23.977 12.4453Z" fill="white"/>
<path opacity="0.993" fill-rule="evenodd" clip-rule="evenodd" d="M10.2891 11.9766C11.4142 11.9687 12.5392 11.9766 13.6641 12C16.0625 12.4609 17.4922 13.8906 17.9531 16.2891C17.9844 17.0235 17.9844 17.7578 17.9531 18.4922C17.6641 19.8437 16.8437 20.6641 15.4922 20.9531C13.1484 20.9844 10.8047 20.9844 8.46095 20.9531C7.1094 20.6641 6.28909 19.8437 6.00001 18.4922C5.96875 17.7578 5.96875 17.0235 6.00001 16.2891C6.46937 13.8901 7.89906 12.4525 10.2891 11.9766Z" fill="white"/>
</g>
<defs>
<clipPath id="clip0_3_227">
<rect width="24" height="24" fill="white"/>
</clipPath>
</defs>
</svg>
