<svg width="24" height="24" viewBox="0 0 24 24" fill="none" xmlns="http://www.w3.org/2000/svg">
<path opacity="0.974" fill-rule="evenodd" clip-rule="evenodd" d="M11.5078 2.46097C12.9003 2.32422 13.7987 2.91797 14.2031 4.24222C14.3553 5.36741 13.9413 6.20338 12.9609 6.75004C14.0413 7.09597 14.7678 7.80688 15.1406 8.88285C15.2874 9.17118 15.3187 9.46804 15.2344 9.77347C14.8515 10.1481 14.4687 10.1403 14.0859 9.75004C12.4803 8.89115 10.9334 8.9849 9.44531 10.0313C8.99597 10.1208 8.73033 9.9411 8.64844 9.49222C8.82511 8.53649 9.29386 7.76305 10.0547 7.17191C10.3459 6.98619 10.6584 6.84557 10.9922 6.75004C9.8497 6.07335 9.48253 5.0968 9.89062 3.82035C10.2161 3.10766 10.7551 2.65454 11.5078 2.46097Z" fill="white"/>
<path opacity="0.981" fill-rule="evenodd" clip-rule="evenodd" d="M3.86719 7.57019C5.5973 7.52702 6.56602 8.36294 6.77344 10.078C6.71897 11.0943 6.25022 11.8443 5.36719 12.328C6.25641 12.6084 6.93609 13.1474 7.40625 13.9452C7.7115 14.4545 7.88339 15.0014 7.92188 15.5858C7.83141 15.7914 7.68295 15.9398 7.47656 16.0311C5.36002 17.2316 3.23504 17.2473 1.10156 16.078C0.810525 15.9436 0.623025 15.7248 0.539062 15.4218C0.748116 14.3468 1.27936 13.4718 2.13281 12.7968C2.45329 12.5897 2.79704 12.4334 3.16406 12.328C2.06288 11.7272 1.60194 10.7975 1.78125 9.53894C2.0773 8.45369 2.77261 7.79744 3.86719 7.57019Z" fill="white"/>
<path opacity="0.981" fill-rule="evenodd" clip-rule="evenodd" d="M19.2891 7.57009C20.8215 7.47203 21.7825 8.15955 22.1719 9.63259C22.3235 10.8529 21.8625 11.7514 20.7891 12.3279C21.804 12.6396 22.5462 13.2724 23.0156 14.2263C23.1811 14.6055 23.3139 14.9962 23.4141 15.3982C23.3937 15.6301 23.2843 15.8097 23.0859 15.9373C21.4799 16.9385 19.7612 17.1885 17.9297 16.6873C17.2719 16.4873 16.6703 16.1826 16.125 15.7732C16.0522 15.6669 16.0132 15.5497 16.0078 15.4217C16.2758 13.8888 17.1352 12.8575 18.5859 12.3279C17.3723 11.5949 16.9583 10.5402 17.3438 9.16384C17.721 8.29375 18.3695 7.76252 19.2891 7.57009Z" fill="white"/>
<path opacity="0.985" fill-rule="evenodd" clip-rule="evenodd" d="M11.6957 10.0547C13.4803 10.0513 14.5819 10.9106 15.0004 12.6328C15.1429 14.0981 14.5726 15.1841 13.2895 15.8906C14.5512 16.2774 15.4652 17.0664 16.0317 18.2578C16.2094 18.6347 16.35 19.0253 16.4535 19.4297C16.5023 19.6613 16.4711 19.88 16.3598 20.0859C14.3316 21.5031 12.1206 21.8703 9.72698 21.1875C8.96376 20.9387 8.26063 20.5794 7.6176 20.1094C7.4849 19.9012 7.44585 19.6747 7.50041 19.4297C7.78073 18.2354 8.39793 17.2589 9.35198 16.5C9.76551 16.2464 10.203 16.0433 10.6645 15.8906C9.29873 15.1199 8.74405 13.9558 9.00041 12.3984C9.41244 11.0567 10.3109 10.2754 11.6957 10.0547Z" fill="white"/>
</svg>
