<svg width="500" height="500" viewBox="0 0 500 500" fill="none" xmlns="http://www.w3.org/2000/svg">
<g clip-path="url(#clip0_1_898)">
<rect width="500" height="500" rx="250" fill="white"/>
<path d="M142.59 332.807L142.354 333.043C139.165 326.074 137.156 318.159 136.329 309.418C137.156 318.041 139.401 325.838 142.59 332.807Z" fill="#DFDFDF"/>
<path d="M218.428 230.863C233.955 230.863 246.542 218.276 246.542 202.749C246.542 187.222 233.955 174.635 218.428 174.635C202.901 174.635 190.314 187.222 190.314 202.749C190.314 218.276 202.901 230.863 218.428 230.863Z" fill="#DFDFDF"/>
<path d="M303.361 131.873H204.371C161.372 131.873 135.739 157.506 135.739 200.505V299.495C135.739 312.371 137.983 323.593 142.354 333.043C152.513 355.487 174.248 368.127 204.371 368.127H303.361C346.36 368.127 371.993 342.493 371.993 299.495V272.444V200.505C371.993 157.506 346.36 131.873 303.361 131.873ZM352.738 255.906C343.525 247.992 328.641 247.992 319.427 255.906L270.286 298.078C261.072 305.992 246.188 305.992 236.974 298.078L232.958 294.77C224.571 287.446 211.222 286.737 201.772 293.116L157.592 322.766C154.994 316.151 153.458 308.473 153.458 299.495V200.505C153.458 167.193 171.059 149.592 204.371 149.592H303.361C336.673 149.592 354.274 167.193 354.274 200.505V257.206L352.738 255.906Z" fill="#DFDFDF"/>
<g clip-path="url(#clip1_1_898)">
<path d="M523.76 -0.496338H-19.6282V543.555H523.76V-0.496338Z" fill="url(#paint0_linear_1_898)"/>
<path d="M568.604 302.122H-64.474V543.446H568.604V302.122Z" fill="#DED9BA"/>
<path d="M568.604 282.763H-64.474V308.34H568.604V282.763Z" fill="#634742"/>
<path d="M568.604 278.309H-64.474V303.886H568.604V278.309Z" fill="#87645C"/>
<path d="M558.885 318.052H374.403V543.445H558.885V318.052Z" fill="#87645C"/>
<path d="M348.197 318.822H163.715V544.214H348.197V318.822Z" fill="#87645C"/>
<path d="M132.776 318.052H-51.7062V543.445H132.776V318.052Z" fill="#87645C"/>
<path d="M466.645 318.052V543.388" stroke="#423230" stroke-width="2.06612" stroke-miterlimit="10"/>
<path d="M40.5358 318.851V544.187" stroke="#423230" stroke-width="2.06612" stroke-miterlimit="10"/>
<path d="M479.686 437.203C482.825 437.203 485.37 434.658 485.37 431.519C485.37 428.38 482.825 425.835 479.686 425.835C476.547 425.835 474.002 428.38 474.002 431.519C474.002 434.658 476.547 437.203 479.686 437.203Z" fill="#E5E166"/>
<path d="M452.439 437.203C455.578 437.203 458.123 434.658 458.123 431.519C458.123 428.38 455.578 425.835 452.439 425.835C449.3 425.835 446.755 428.38 446.755 431.519C446.755 434.658 449.3 437.203 452.439 437.203Z" fill="#E5E166"/>
<path d="M57.0023 435.397C60.1414 435.397 62.6862 432.852 62.6862 429.713C62.6862 426.574 60.1414 424.03 57.0023 424.03C53.8632 424.03 51.3185 426.574 51.3185 429.713C51.3185 432.852 53.8632 435.397 57.0023 435.397Z" fill="#E5E166"/>
<path d="M29.755 435.397C32.8941 435.397 35.4389 432.852 35.4389 429.713C35.4389 426.574 32.8941 424.03 29.755 424.03C26.6159 424.03 24.0712 426.574 24.0712 429.713C24.0712 432.852 26.6159 435.397 29.755 435.397Z" fill="#E5E166"/>
<path opacity="0.31" d="M375.339 395.998C367.801 390.473 330.053 385.98 280.349 384.445L291.27 384.179L295.242 384.081L291.17 338.457L290.759 338.489C291.152 337.479 293.71 330.302 289.741 324.352C289.741 324.352 288.54 316.712 287.16 307.824C287.16 307.824 290.056 311.349 298.66 308.827C307.263 306.308 319.2 285.342 319.2 285.342C320.805 284.004 322.272 282.647 323.616 281.29C336.554 269.095 339.595 256.34 340.035 254.148L340.039 254.087C340.041 254.085 340.042 254.081 340.048 254.077C348.182 244.568 353.797 235.744 352.745 230.991C352.74 230.971 352.696 230.965 352.626 230.974C352.595 230.806 352.533 230.661 352.435 230.545C352.406 230.511 352.37 230.48 352.336 230.451L352.528 230.286C352.441 230.328 352.359 230.368 352.278 230.407C349.833 228.692 335.694 237.488 317.977 251.406C314.958 246.628 291.174 210.784 246.335 192.044C261.338 179.675 264.979 158.236 265.778 145.892C265.555 150.154 265.077 154.972 264.086 158.841C264.086 158.841 281.541 149.787 274.104 126.955C275.789 124.45 277.419 121.342 278.643 117.567V117.566C280.828 110.846 281.726 102.017 279.364 90.7385C278.957 88.7968 278.207 86.9402 277.149 85.2612C272.811 78.3855 259.288 60.6638 232.578 55.5179C227.545 54.547 222.042 54.0236 216.045 54.1033C170.279 54.7155 148.148 92.6984 145.835 105.841C143.899 116.841 149.297 134.356 155.714 142.301C155.714 142.301 155.74 160.85 169.272 164C172.764 175.757 180.094 190.128 195.458 197.214C195.456 197.214 195.454 197.212 195.452 197.212C195.452 197.212 147.312 222.505 128.164 288.499L174.199 271.797C174.199 271.797 174.199 271.803 174.197 271.81L128.623 288.345C128.623 288.345 127.4 312.381 155.714 304.232L172 296.163C171.617 305.786 171.808 316.728 173.588 325.979C173.588 325.979 166.689 334.533 168.815 341.867C169.395 343.871 171 346.03 173.55 348.14L169.868 386.148C138.146 388.32 115.672 391.872 110.044 395.998H108.664V417.043C108.664 419.914 110.466 422.425 113.062 423.191C113.234 423.242 113.408 423.29 113.58 423.341L121.117 554.533H365.951L373.059 422.959C373.441 422.849 373.796 422.745 374.12 422.651C375.656 422.2 376.719 420.711 376.719 419.012V395.996H375.339V395.998ZM265.913 135.38C265.913 135.387 265.939 136.122 265.953 137.361C265.933 136.736 265.912 136.398 265.912 136.398L265.913 135.38ZM283.173 281.272L286.722 278.311C285.515 279.454 284.347 280.573 283.222 281.671C283.204 281.52 283.188 281.388 283.173 281.272ZM285.62 297.851C285.618 297.838 285.617 297.827 285.615 297.815C285.935 297.677 286.258 297.538 286.582 297.396C285.943 297.703 285.62 297.851 285.62 297.851L287.16 307.819C286.655 304.558 286.124 301.131 285.62 297.851ZM265.98 135.338C266.328 135.119 268.027 133.999 270.155 131.824C268.891 133.159 267.439 134.474 265.98 135.338ZM162.114 146.519C162.409 146.481 163.823 146.267 166.102 145.345C166.082 145.356 164.273 146.318 162.114 146.519ZM166.122 146.262C166.14 146.633 166.173 147.202 166.232 147.943C166.182 147.36 166.144 146.796 166.122 146.262Z" fill="black"/>
<path d="M175.167 131.196C175.167 131.196 175.193 149.745 188.725 152.895C188.725 152.895 185.555 140.741 185.555 134.237C185.555 134.237 183.704 135.228 181.507 135.418L179.344 122.436L175.167 131.196Z" fill="url(#paint1_linear_1_898)"/>
<path d="M283.541 147.737C283.541 147.737 300.996 138.682 293.559 115.849C293.559 115.849 289.473 121.877 285.367 124.271C285.367 124.271 285.872 138.631 283.541 147.737Z" fill="url(#paint2_linear_1_898)"/>
<path d="M314.695 372.975L310.721 373.072L207.981 375.572L189.223 376.03L193.003 337.033L193.05 336.531L194.485 336.419L305.267 327.768L310.21 327.381L310.622 327.348L314.695 372.975Z" fill="#CEAA87"/>
<path d="M207.981 344.398V375.572L189.223 376.03L193.05 336.531L194.485 336.419L207.981 344.398Z" fill="#A58972"/>
<path d="M309.194 313.244C313.161 319.194 310.603 326.368 310.212 327.381C310.181 327.46 310.165 327.502 310.165 327.502C307.626 330.413 305.065 332.97 302.489 335.218C302.487 335.22 302.487 335.22 302.485 335.222C287.02 348.705 270.922 350.96 254.912 350.56C254.901 350.558 254.892 350.558 254.877 350.56C247.237 350.364 239.617 349.566 232.097 349.093C213.261 347.908 199.783 342.639 193.005 337.035C190.455 334.925 188.85 332.768 188.27 330.762C186.144 323.429 193.043 314.874 193.043 314.874C191.259 305.602 191.071 294.625 191.458 284.986V284.984C191.998 271.539 193.655 260.693 193.655 260.693L147.621 277.394C166.769 211.4 214.909 186.107 214.909 186.107C246.435 198.252 265.609 180.86 265.609 180.86C265.609 180.86 265.609 180.86 265.611 180.862C310.661 199.619 334.511 235.67 337.452 240.33C337.661 240.658 337.764 240.83 337.764 240.83L302.628 270.162C302.864 272.169 303.896 279.05 305.075 286.743C306.95 298.971 309.194 313.244 309.194 313.244Z" fill="#BD2143"/>
<path d="M337.45 240.33L333.744 243.228C321.415 211.041 266.078 181.179 265.607 180.862C310.66 199.619 334.509 235.67 337.45 240.33Z" fill="#EFF3C3"/>
<path d="M217.381 186.293C217.381 186.293 221.272 218.116 243.149 217.759C264.488 217.412 264.488 181.954 264.488 181.954L217.381 186.293Z" fill="url(#paint3_linear_1_898)"/>
<path d="M285.363 125.289C285.363 125.289 289.437 189.248 238.106 190.47C186.776 191.693 185.555 134.659 185.555 134.659V94.7361H285.439L285.363 125.289Z" fill="url(#paint4_linear_1_898)"/>
<path d="M298.098 106.459V106.461C293.998 119.091 285.365 124.271 285.365 124.271L285.379 119.076C279.636 117.867 267.076 95.0949 266.881 94.7399C272.072 112.866 271.918 121.214 271.918 121.214C251.755 123.049 223.643 94.7363 223.643 94.7363H221.506C200.424 133.639 181.505 135.42 181.505 135.42L179.341 122.438L175.166 131.198C168.75 123.253 163.351 105.736 165.287 94.7363C167.598 81.5935 189.729 43.6107 235.496 42.9984C241.494 42.9187 246.996 43.4404 252.03 44.4131C278.739 49.559 292.262 67.2807 296.6 74.1563C297.66 75.8354 298.41 77.6902 298.816 79.6337C301.181 90.9108 300.283 99.7391 298.098 106.459Z" fill="black"/>
<path d="M393.271 407.665L385.986 543.553H141.151L133.404 407.665H393.271Z" fill="#838299"/>
<path d="M396.171 384.984V408.174C396.171 409.885 395.108 411.385 393.572 411.84C374.745 417.404 256.527 449.281 132.515 412.383C129.92 411.611 128.117 409.081 128.117 406.188V384.982H396.171V384.984Z" fill="#666F7F"/>
<path d="M262.142 401.3C336.163 401.3 396.169 394.914 396.169 387.036C396.169 379.158 336.163 372.772 262.142 372.772C188.121 372.772 128.115 379.158 128.115 387.036C128.115 394.914 188.121 401.3 262.142 401.3Z" fill="#535360"/>
<path d="M223.35 114.805C223.35 114.805 229.2 119.734 225.904 125.979C222.607 132.225 193.161 129.457 193.161 129.457C193.161 129.457 188.278 119.393 223.35 114.805Z" fill="black"/>
<path d="M253.12 114.805C253.12 114.805 247.27 119.734 250.566 125.979C253.863 132.225 283.309 129.457 283.309 129.457C283.309 129.457 288.194 119.393 253.12 114.805Z" fill="black"/>
<path d="M214.48 147.737C216.082 147.737 217.382 145.482 217.382 142.701C217.382 139.92 216.082 137.666 214.48 137.666C212.877 137.666 211.578 139.92 211.578 142.701C211.578 145.482 212.877 147.737 214.48 147.737Z" fill="black"/>
<path d="M259.851 147.737C261.453 147.737 262.753 145.482 262.753 142.701C262.753 139.92 261.453 137.666 259.851 137.666C258.248 137.666 256.949 139.92 256.949 142.701C256.949 145.482 258.248 147.737 259.851 147.737Z" fill="black"/>
<path d="M252.34 173.022C252.024 173.776 251.544 174.537 250.923 175.266C250.923 175.266 250.923 175.268 250.921 175.27C246.85 180.074 236.768 183.703 228.168 177.165C228.168 177.165 227.798 176.897 227.28 176.303C226.518 175.431 225.431 173.855 224.705 171.392C224.705 171.392 223.94 169.226 226.128 168.949C226.128 168.949 237.943 170.985 250.237 168.065C250.24 168.067 254.716 167.32 252.34 173.022Z" fill="black"/>
<path d="M148.078 277.241C148.078 277.241 146.855 301.276 175.169 293.127L252.032 255.038C252.032 255.038 255.562 262.167 264.488 257.617C264.488 257.617 268.118 255.174 268.458 254.494C268.458 254.494 270.902 259.655 276.47 258.093C276.47 258.093 279.728 256.599 280.407 254.156C280.407 254.156 284.006 255.717 285.975 252.797C285.975 252.797 286.926 251.643 286.993 249.334C286.993 249.334 290.456 250.488 292.356 245.26C292.356 245.26 299.214 240.372 299.553 234.737C299.891 229.102 293.713 228.694 293.713 228.694C293.713 228.694 286.991 228.491 273.345 233.786C259.699 239.08 194.11 260.537 194.11 260.537L148.078 277.241Z" fill="url(#paint5_linear_1_898)"/>
<path d="M292.356 245.262L292.764 237.318" stroke="#EF8981" stroke-width="2.06612" stroke-miterlimit="10"/>
<path d="M286.993 249.336V242.545" stroke="#EF8981" stroke-width="2.06612" stroke-miterlimit="10"/>
<path d="M280.407 254.156V246.483" stroke="#EF8981" stroke-width="2.06612" stroke-miterlimit="10"/>
<path d="M268.456 254.496L273.278 247.774" stroke="#EF8981" stroke-width="2.06612" stroke-miterlimit="10"/>
<path d="M359.461 243.02C349.887 254.201 336.845 266.318 327.079 273.857C325.418 275.139 323.851 276.288 322.413 277.279C321.39 277.983 320.357 278.661 319.319 279.309C319.316 279.311 319.31 279.314 319.307 279.318C307.26 286.871 294.693 290.764 289.118 292.247C287.357 292.716 286.294 292.944 286.162 292.973C286.151 292.975 286.147 292.975 286.147 292.975L286.149 292.973L371.981 219.183C366.699 221.739 372.144 219.641 372.198 219.888C373.251 224.64 367.636 233.465 359.501 242.974C359.498 242.976 359.496 242.98 359.492 242.983L359.49 242.985" fill="#7F7F7F"/>
<path d="M371.89 219.44C374.267 222.246 356.781 240.96 332.835 261.241C308.89 281.522 287.551 295.688 285.177 292.883C282.8 290.077 300.286 271.363 324.232 251.082C348.175 230.801 369.514 216.634 371.89 219.44Z" fill="url(#paint6_linear_1_898)"/>
<path d="M357.011 246.483C357.011 246.483 357.011 246.487 357.009 246.492C357.007 246.499 357.005 246.51 357.003 246.526C357.002 246.541 356.998 246.557 356.992 246.577C356.982 246.63 356.965 246.704 356.944 246.798C356.442 249.004 352.908 262.348 338.655 274.234C338.655 274.234 326.717 295.201 318.115 297.719C309.511 300.24 306.615 296.716 306.615 296.716L305.075 286.743C305.075 286.743 308.75 285.054 316.081 281.171C316.084 281.169 316.09 281.166 316.093 281.164C318.368 279.773 320.993 278.05 323.947 275.931C332.388 269.879 343.535 260.595 356.971 246.53C356.973 246.526 356.976 246.523 356.982 246.517C356.991 246.51 356.996 246.501 357.003 246.494L357.005 246.492L357.011 246.488C357.011 246.487 357.011 246.483 357.011 246.483Z" fill="url(#paint7_linear_1_898)"/>
<path d="M354.272 245.949L354.278 245.945V245.951" fill="url(#paint8_linear_1_898)"/>
<path d="M359.49 243.041C359.028 245.336 355.712 259.233 341.147 271.926C341.147 271.926 331.553 277.561 325.869 274.13C325.851 274.123 325.835 274.111 325.818 274.101C334.471 267.603 345.86 257.688 359.51 242.761" fill="url(#paint9_linear_1_898)"/>
<path d="M302.251 227.07C302.251 227.07 305.822 229.977 312.089 228.185C312.089 228.185 320.502 225.892 319.435 220.674L302.251 227.07Z" fill="#BABABA"/>
<path d="M311.524 226.985C316.486 225.492 320.023 222.667 319.423 220.675C318.824 218.682 314.316 218.277 309.354 219.769C304.392 221.262 300.855 224.087 301.454 226.079C302.053 228.072 306.562 228.477 311.524 226.985Z" fill="#BABABA"/>
<path d="M311.651 226.902C316.179 225.54 319.487 223.228 319.038 221.737C318.59 220.247 314.556 220.142 310.028 221.504C305.499 222.866 302.192 225.178 302.64 226.669C303.089 228.159 307.123 228.264 311.651 226.902Z" fill="#A09F9F"/>
<path d="M295.943 229.229L302.482 227.071C302.482 227.071 301.699 226.539 301.628 225.921L293.715 228.696C293.715 228.694 295.088 228.834 295.943 229.229Z" fill="#BABABA"/>
<path d="M236.732 144.956C234.953 147.577 232.057 152.933 232.66 159.345C232.732 160.122 233.263 160.778 234.002 161.028C235.83 161.645 239.568 162.404 243.834 160.417C244.58 160.07 245.033 159.296 244.973 158.476C244.767 155.636 243.848 148.852 239.762 144.679C238.896 143.795 237.427 143.931 236.732 144.956Z" fill="#EF8981"/>
<path d="M194.11 260.539L196.555 225.919L198.519 259.093L194.11 260.539Z" fill="#9C1E45"/>
<path d="M303.101 268.907L297.49 240.038L299.567 272.281L303.101 268.907Z" fill="#9C1E45"/>
<path d="M255.406 350.404C255.406 350.404 255.393 350.404 255.368 350.406C255.357 350.404 255.348 350.404 255.334 350.406C247.693 350.21 240.073 349.412 232.553 348.939C206.63 347.309 190.853 337.939 188.727 330.609C186.6 323.275 193.5 314.72 193.5 314.72C191.715 305.448 191.527 294.471 191.915 284.832L198.52 281.557C198.52 281.557 198.185 322.563 243.151 317.98C243.151 317.98 235.257 329.895 207.76 324.396C207.758 324.396 213.529 347.084 255.406 350.404Z" fill="#9C1E45"/>
<path d="M210.203 543.553H164.892L160.708 456.714C160.708 456.714 160.708 456.711 160.71 456.704C160.724 456.606 160.842 455.865 161.208 454.762C161.21 454.755 161.213 454.744 161.217 454.733C161.863 452.807 163.269 449.792 166.207 447.133C167.469 445.99 169.014 444.912 170.905 444.015C170.911 444.012 170.918 444.01 170.922 444.01C170.925 444.008 170.929 444.006 170.934 444.005C175.725 441.74 182.726 440.636 192.929 442.554C192.929 442.554 203.48 441.936 204.702 455.485L210.203 543.553Z" fill="#666F7F"/>
<path d="M170.483 543.553H164.89L160.706 456.714C160.706 456.714 160.706 456.711 160.708 456.704C160.728 456.609 160.902 455.834 161.206 454.762C161.208 454.755 161.211 454.744 161.215 454.733C161.862 452.807 163.267 449.792 166.205 447.133L170.483 543.553Z" fill="#535360"/>
<path d="M319.443 543.553H364.754L368.938 456.714C368.938 456.714 368.938 456.711 368.936 456.704C368.922 456.606 368.804 455.865 368.438 454.762C368.436 454.755 368.433 454.744 368.429 454.733C367.782 452.807 366.377 449.792 363.439 447.133C362.176 445.99 360.631 444.912 358.74 444.015C358.735 444.012 358.728 444.01 358.724 444.01C358.72 444.008 358.717 444.006 358.711 444.005C353.921 441.74 346.92 440.636 336.717 442.554C336.717 442.554 326.166 441.936 324.943 455.485L319.443 543.553Z" fill="#666F7F"/>
<path d="M359.162 543.553H364.756L368.94 456.714C368.94 456.714 368.94 456.711 368.938 456.704C368.918 456.609 368.744 455.834 368.44 454.762C368.438 454.755 368.434 454.744 368.431 454.733C367.784 452.807 366.379 449.792 363.441 447.133L359.162 543.553Z" fill="#535360"/>
<path d="M170.922 444.012C167.647 445.957 166.522 454.247 166.522 454.247L166.207 447.135C167.47 445.992 169.015 444.914 170.906 444.017C170.913 444.014 170.918 444.012 170.922 444.012Z" fill="#535360"/>
<path d="M246.562 543.553L243.151 455.483C243.151 455.483 247.297 443.323 265.379 443.271C265.379 443.271 285.367 442.45 287.607 454.246L286.385 543.553H246.562Z" fill="#535360"/>
<path d="M250.631 543.553L247.88 455.494C247.88 455.494 251.224 443.336 265.807 443.284C265.807 443.284 281.927 442.463 283.733 454.257L282.748 543.553H250.631Z" fill="#666F7F"/>
<path d="M248.487 350.094L249.918 372.83H259.291V350.406L248.487 350.094Z" stroke="#A58972" stroke-width="2.06612" stroke-miterlimit="10"/>
<path d="M149.677 270.781C149.677 270.781 181.636 257.789 194.42 256.161" stroke="white" stroke-width="2.06612" stroke-miterlimit="10"/>
<path d="M298.098 106.459C297.999 64.5147 252.03 44.4111 252.03 44.4111H252.032C278.741 49.557 292.264 67.2787 296.602 74.1544C297.662 75.8335 298.412 77.6882 298.817 79.6318C301.181 90.9107 300.283 99.7389 298.098 106.459Z" fill="#EFF3C3"/>
<path d="M314.695 372.975L310.723 373.073L307.975 336.421C307.568 334.492 302.485 335.224 302.485 335.224C302.487 335.222 302.487 335.222 302.489 335.22C303.855 333.481 304.738 330.877 305.269 327.768C307.738 313.267 302.485 287.78 302.485 287.78L305.075 286.746C306.952 298.972 309.196 313.247 309.196 313.247C313.163 319.197 310.605 326.372 310.214 327.384L310.625 327.352L314.695 372.975Z" fill="#EFF3C3"/>
<path d="M250.923 175.266C250.923 175.266 250.923 175.268 250.921 175.27C246.85 180.074 236.768 183.703 228.168 177.165C228.168 177.165 227.798 176.897 227.28 176.303C227.28 176.301 227.28 176.301 227.28 176.301C227.28 176.301 237.974 170.553 250.923 175.266Z" fill="#BD2143"/>
<path d="M334.402 246.483C334.402 246.483 333.486 239.303 336.693 237.318C339.901 235.332 341.912 238.386 342.663 238.54C343.415 238.694 347.387 237.318 347.387 237.318C347.387 237.318 349.068 240.067 348.61 241.29C348.152 242.512 345.312 246.827 340.834 248.318C336.356 249.808 334.402 246.483 334.402 246.483Z" fill="#39B54A"/>
<path d="M288.011 277.24C288.011 277.24 305.936 268.586 309.399 269.296C312.86 270.006 309.399 271.334 309.399 271.334C309.399 271.334 290.761 277.445 289.948 278.565C289.132 279.686 287.299 278.871 288.011 277.24Z" fill="#4A9351"/>
<path d="M287.846 277.784C287.846 277.784 305.771 269.129 309.234 269.84C312.696 270.55 309.234 271.877 309.234 271.877C309.234 271.877 290.596 277.989 289.783 279.108C288.969 280.227 287.133 279.414 287.846 277.784Z" fill="#39B54A"/>
<path d="M320.35 264.304C321.791 264.304 322.958 263.761 322.958 263.091C322.958 262.42 321.791 261.877 320.35 261.877C318.91 261.877 317.742 262.42 317.742 263.091C317.742 263.761 318.91 264.304 320.35 264.304Z" fill="#B26339"/>
<path d="M320.35 263.897C321.791 263.897 322.958 263.353 322.958 262.683C322.958 262.013 321.791 261.469 320.35 261.469C318.91 261.469 317.742 262.013 317.742 262.683C317.742 263.353 318.91 263.897 320.35 263.897Z" fill="#F47C37"/>
<path d="M326.021 261.443C326.267 260.819 325.379 259.886 324.039 259.358C322.698 258.831 321.413 258.909 321.167 259.532C320.922 260.156 321.81 261.089 323.15 261.617C324.49 262.144 325.776 262.066 326.021 261.443Z" fill="#B26339"/>
<path d="M326.171 261.064C326.416 260.441 325.529 259.507 324.188 258.98C322.848 258.452 321.562 258.53 321.317 259.154C321.071 259.778 321.959 260.711 323.299 261.238C324.64 261.766 325.925 261.688 326.171 261.064Z" fill="#F47C37"/>
</g>
</g>
<defs>
<linearGradient id="paint0_linear_1_898" x1="265.057" y1="-186.713" x2="240.64" y2="674.569" gradientUnits="userSpaceOnUse">
<stop offset="0.1126" stop-color="#F9EBC3"/>
<stop offset="1" stop-color="#CD755C"/>
</linearGradient>
<linearGradient id="paint1_linear_1_898" x1="175.168" y1="137.666" x2="188.726" y2="137.666" gradientUnits="userSpaceOnUse">
<stop offset="0.6129" stop-color="#F8BBA8"/>
<stop offset="0.9088" stop-color="#EF8981"/>
</linearGradient>
<linearGradient id="paint2_linear_1_898" x1="316.586" y1="127.906" x2="275.441" y2="133.609" gradientUnits="userSpaceOnUse">
<stop offset="0.6129" stop-color="#F8BBA8"/>
<stop offset="0.9088" stop-color="#EF8981"/>
</linearGradient>
<linearGradient id="paint3_linear_1_898" x1="246.929" y1="223.78" x2="241.44" y2="187.483" gradientUnits="userSpaceOnUse">
<stop offset="0.6129" stop-color="#F8BBA8"/>
<stop offset="0.9071" stop-color="#EF8981"/>
</linearGradient>
<linearGradient id="paint4_linear_1_898" x1="244.275" y1="230.789" x2="234.09" y2="96.3543" gradientUnits="userSpaceOnUse">
<stop offset="0.6129" stop-color="#F8BBA8"/>
<stop offset="0.9071" stop-color="#EF8981"/>
</linearGradient>
<linearGradient id="paint5_linear_1_898" x1="234.05" y1="280.047" x2="218.163" y2="245.217" gradientUnits="userSpaceOnUse">
<stop offset="0.6129" stop-color="#F8BBA8"/>
<stop offset="0.9071" stop-color="#EF8981"/>
</linearGradient>
<linearGradient id="paint6_linear_1_898" x1="305.142" y1="225.027" x2="349.445" y2="283.995" gradientUnits="userSpaceOnUse">
<stop offset="0.5076" stop-color="#F1F2F2"/>
<stop offset="0.6117" stop-color="#BCBEC0"/>
</linearGradient>
<linearGradient id="paint7_linear_1_898" x1="305.073" y1="272.556" x2="357.01" y2="272.556" gradientUnits="userSpaceOnUse">
<stop offset="0.6129" stop-color="#F8BBA8"/>
<stop offset="0.9071" stop-color="#EF8981"/>
</linearGradient>
<linearGradient id="paint8_linear_1_898" x1="354.278" y1="245.938" x2="354.275" y2="245.954" gradientUnits="userSpaceOnUse">
<stop offset="0.6129" stop-color="#F8BBA8"/>
<stop offset="0.9071" stop-color="#EF8981"/>
</linearGradient>
<linearGradient id="paint9_linear_1_898" x1="348.925" y1="206.085" x2="338.917" y2="289.609" gradientUnits="userSpaceOnUse">
<stop offset="0.6129" stop-color="#F8BBA8"/>
<stop offset="0.9071" stop-color="#EF8981"/>
</linearGradient>
<clipPath id="clip0_1_898">
<rect width="500" height="500" rx="250" fill="white"/>
</clipPath>
<clipPath id="clip1_1_898">
<rect width="543.388" height="543.388" fill="white" transform="translate(-19.6282)"/>
</clipPath>
</defs>
</svg>
