<svg width="500" height="500" viewBox="0 0 500 500" fill="none" xmlns="http://www.w3.org/2000/svg">
<g clip-path="url(#clip0_1_9336)">
<rect width="500" height="500" rx="250" fill="white"/>
<path d="M142.59 332.807L142.354 333.043C139.165 326.073 137.156 318.159 136.33 309.417C137.156 318.041 139.401 325.837 142.59 332.807Z" fill="#DFDFDF"/>
<path d="M218.427 230.864C233.954 230.864 246.541 218.277 246.541 202.75C246.541 187.223 233.954 174.636 218.427 174.636C202.9 174.636 190.313 187.223 190.313 202.75C190.313 218.277 202.9 230.864 218.427 230.864Z" fill="#DFDFDF"/>
<path d="M303.361 131.873H204.37C161.372 131.873 135.738 157.507 135.738 200.505V299.495C135.738 312.371 137.983 323.593 142.354 333.044C152.512 355.488 174.248 368.127 204.37 368.127H303.361C346.359 368.127 371.993 342.494 371.993 299.495V272.444V200.505C371.993 157.507 346.359 131.873 303.361 131.873ZM352.738 255.907C343.524 247.992 328.64 247.992 319.426 255.907L270.285 298.078C261.071 305.992 246.187 305.992 236.973 298.078L232.957 294.77C224.57 287.447 211.222 286.738 201.771 293.117L157.592 322.767C154.993 316.151 153.457 308.473 153.457 299.495V200.505C153.457 167.193 171.058 149.592 204.37 149.592H303.361C336.673 149.592 354.274 167.193 354.274 200.505V257.206L352.738 255.907Z" fill="#DFDFDF"/>
<g clip-path="url(#clip1_1_9336)">
<path d="M538.223 -16.5288H-27.8926V549.587H538.223V-16.5288Z" fill="#FFE7B5"/>
<path d="M538.223 447.618H-27.8926V549.587H538.223V447.618Z" fill="#B98A75"/>
<path d="M538.223 417.554H-27.8926V445.29H538.223V417.554Z" fill="#A48E87"/>
<path d="M538.223 420.76H-27.8926V448.496H538.223V420.76Z" fill="#E1BFB2"/>
<path d="M430.92 145.271H261.768V154.136H430.92V145.271Z" fill="#A48E87"/>
<path d="M471.282 145.271H302.13V154.136H471.282V145.271Z" fill="#E1BFB2"/>
<path d="M413.033 94.3921H369.477V145.271H413.033V94.3921Z" fill="#92B37E"/>
<path d="M401.37 94.3921H357.815V145.271H401.37V94.3921Z" fill="#73935D"/>
<path d="M394.577 94.3921H351.022V145.271H394.577V94.3921Z" fill="#E0B0CC"/>
<path d="M382.914 94.3921H339.359V145.271H382.914V94.3921Z" fill="#9A7B8E"/>
<path d="M379.593 94.3921H336.037V145.271H379.593V94.3921Z" fill="#92B37E"/>
<path d="M367.93 94.3921H324.375V145.271H367.93V94.3921Z" fill="#73935D"/>
<path d="M363.647 94.3921H320.092V145.271H363.647V94.3921Z" fill="#92B37E"/>
<path d="M351.982 94.3921H308.427V145.271H351.982V94.3921Z" fill="#73935D"/>
<path d="M349.25 94.3921H305.695V145.271H349.25V94.3921Z" fill="#BF2F55"/>
<path d="M337.586 94.3921H294.031V145.271H337.586V94.3921Z" fill="#933251"/>
<path d="M333.935 94.3921H294.788V145.271H333.935V94.3921Z" fill="#92B37E"/>
<path d="M323.452 94.3921H284.305V145.271H323.452V94.3921Z" fill="#73935D"/>
<path d="M413.032 96.7036H417.09L430.92 145.271H413.032V96.7036Z" fill="#73935D"/>
<path d="M417.089 96.7037L423.448 94.3921L437.516 141.416L430.919 145.271L417.089 96.7037Z" fill="#92B37E"/>
<path d="M423.449 94.3921H413.032V96.7037H417.09L423.449 94.3921Z" fill="#ABCB96"/>
<path d="M151.016 48.1611H46.187V193.813H151.016V48.1611Z" fill="#7F5A4C"/>
<path d="M154.176 48.1611H49.3467V193.813H154.176V48.1611Z" fill="#B1806B"/>
<path d="M148.807 54.1582H54.7127V187.722H148.807V54.1582Z" fill="white"/>
<path d="M89.9542 116.535C100.405 116.535 108.878 108.062 108.878 97.6113C108.878 87.1603 100.405 78.688 89.9542 78.688C79.5031 78.688 71.0308 87.1603 71.0308 97.6113C71.0308 108.062 79.5031 116.535 89.9542 116.535Z" fill="#8AD1CD"/>
<path d="M108.877 161.749C125.864 161.749 139.634 147.978 139.634 130.991C139.634 114.005 125.864 100.234 108.877 100.234C91.8904 100.234 78.1199 114.005 78.1199 130.991C78.1199 147.978 91.8904 161.749 108.877 161.749Z" fill="#EE3F6C"/>
<path d="M49.3203 460.097C54.4562 460.097 58.6197 459.562 58.6197 458.901C58.6197 458.24 54.4562 457.705 49.3203 457.705C44.1844 457.705 40.0209 458.24 40.0209 458.901C40.0209 459.562 44.1844 460.097 49.3203 460.097Z" fill="#806C64"/>
<path d="M207.366 460.097C212.502 460.097 216.665 459.562 216.665 458.901C216.665 458.24 212.502 457.705 207.366 457.705C202.23 457.705 198.067 458.24 198.067 458.901C198.067 459.562 202.23 460.097 207.366 460.097Z" fill="#806C64"/>
<path d="M310.888 460.097C316.024 460.097 320.187 459.562 320.187 458.901C320.187 458.24 316.024 457.705 310.888 457.705C305.752 457.705 301.588 458.24 301.588 458.901C301.588 459.562 305.752 460.097 310.888 460.097Z" fill="#806C64"/>
<path d="M486.996 460.097C492.132 460.097 496.295 459.562 496.295 458.901C496.295 458.24 492.132 457.705 486.996 457.705C481.86 457.705 477.696 458.24 477.696 458.901C477.696 459.562 481.86 460.097 486.996 460.097Z" fill="#806C64"/>
<path d="M480.098 334.01V384.79H32.6987V364.41C32.6987 364.41 206.898 363.189 217.035 364.41V346.151C217.035 344.077 216.775 342.066 216.283 340.145C213.614 329.692 204.134 321.965 192.849 321.965H468.778C475.029 321.965 480.098 327.356 480.098 334.01Z" fill="#F2796F"/>
<path d="M451.479 322.929C451.479 322.929 466.511 322.614 461.886 371.687L477.696 379.299L479.245 329.419C479.245 329.419 477.775 322.591 469.542 321.965L450.468 321.967L451.479 322.929Z" fill="#F2E1E1"/>
<path d="M217.035 364.41V384.79H32.6987V364.41C32.6987 364.41 206.898 363.189 217.035 364.41Z" fill="#E83C53"/>
<path d="M318.138 360.508C318.138 360.508 225.899 365.478 217.035 364.41V346.151C217.035 344.077 216.775 342.066 216.282 340.145C213.614 329.692 204.133 321.965 192.849 321.965H312.014C312.014 321.965 315.845 357.158 318.138 360.508Z" fill="#195772"/>
<path d="M480.098 397.511H32.6987V381.709C32.6987 376.174 37.1861 371.687 42.7209 371.687H467.187C474.318 371.687 480.1 377.469 480.1 384.6V397.511H480.098Z" fill="#8A1731"/>
<path d="M49.4656 458.41H43.4912L40.0209 397.511H52.3565L49.4656 458.41Z" fill="#B2B2B2"/>
<path d="M53.6805 458.41H47.7061L44.2358 397.511H56.5696L53.6805 458.41Z" fill="white"/>
<path d="M208.049 458.41H202.075L198.606 397.511H210.94L208.049 458.41Z" fill="#B2B2B2"/>
<path d="M212.265 458.41H206.291L202.822 397.511H215.156L212.265 458.41Z" fill="white"/>
<path d="M311.031 458.41H305.057L301.588 397.511H313.922L311.031 458.41Z" fill="#B2B2B2"/>
<path d="M315.247 458.41H309.273L305.804 397.511H318.138L315.247 458.41Z" fill="white"/>
<path d="M487.139 458.41H481.167L477.696 397.511H490.03L487.139 458.41Z" fill="#B2B2B2"/>
<path d="M491.354 458.41H485.38L481.911 397.511H494.245L491.354 458.41Z" fill="white"/>
<path d="M481.912 397.511C481.912 397.511 488.516 293.523 487.301 272.322C486.084 251.121 474.407 253.014 474.407 253.014C474.407 253.014 333.319 253.459 311.901 253.014C287.574 252.508 295.365 321.965 295.365 321.965H302.415C302.415 321.965 295.546 283.158 302.659 268.158C302.659 268.158 305.821 259.072 310.686 259.072C315.551 259.072 332.582 259.828 332.582 259.828L329.662 321.539L335.501 321.963L335.744 259.449L362.991 259.828L365.911 321.963H373.451L366.883 259.828L399.238 260.964L395.832 321.965H399.968L400.942 260.964L427.215 260.208L431.595 321.965H436.217L429.648 259.83L457.623 259.073L462.245 321.967H467.353L459.812 258.696C459.812 258.696 477.328 256.047 479.274 260.968C481.219 265.89 477.698 397.515 477.698 397.515H481.912V397.511Z" fill="#B2B2B2"/>
<path d="M494.246 397.511C494.246 397.511 490.706 293.523 489.49 272.322C488.273 251.121 476.596 253.014 476.596 253.014C476.596 253.014 335.509 253.459 314.091 253.014C289.763 252.508 297.554 321.965 297.554 321.965H304.604C304.604 321.965 297.736 283.158 304.848 268.158C304.848 268.158 308.011 259.072 312.875 259.072C317.74 259.072 334.771 259.828 334.771 259.828L331.852 321.539L337.69 321.963L337.932 260.049L365.181 259.826L368.1 321.961H375.641L369.072 259.826L401.427 260.962L398.021 321.963H402.158L403.131 260.962L429.405 260.206L433.785 321.963H438.406L431.837 259.828L459.813 259.072L464.434 321.965H469.542L462.002 258.694C462.002 258.694 479.517 256.045 481.463 260.966C483.408 265.888 481.912 397.513 481.912 397.513H494.246V397.511Z" fill="white"/>
<path d="M234.669 469.348L328.844 481.874H528.375L448.204 469.348H234.669Z" fill="#8A1731"/>
<path d="M233.513 466.891L327.687 479.417H527.218L447.047 466.891H233.513Z" fill="#F2796F"/>
<path d="M32.7006 345.648C32.6987 345.75 32.6987 345.853 32.6987 345.957V344.319L32.7572 344.261C32.7251 344.719 32.7063 345.182 32.7006 345.648Z" fill="#195772"/>
<path d="M216.283 340.145C213.614 329.692 204.134 321.965 192.849 321.965H56.5473H55.1131C55.0603 321.965 55.0094 321.967 54.9565 321.967C52.8902 321.982 50.8899 322.293 48.9934 322.867C40.3583 325.011 32.6987 331.24 32.6987 344.319V345.957V364.41C32.6987 364.41 206.898 363.189 217.035 364.41V346.151C217.035 344.077 216.775 342.066 216.283 340.145Z" fill="#224954"/>
<path d="M217.035 364.41H32.6987C32.6987 364.41 206.898 363.189 217.035 364.41Z" fill="#195772"/>
<path d="M217.035 321.965V346.151C217.035 344.077 216.775 342.066 216.282 340.145C213.614 329.692 204.133 321.965 192.849 321.965H217.035Z" fill="#195772"/>
<path d="M217.035 371.687V397.511H32.6987V378.962C32.6987 374.944 35.9558 371.687 39.9733 371.687H217.035Z" fill="#511928"/>
<path d="M199.609 441.561C200.245 448.837 200.587 455.436 200.313 459.686C200.313 459.686 199.611 473.81 200.222 481.772C200.375 483.751 201.93 485.274 203.798 485.274H241.992C244.812 474.027 226.218 471.682 226.218 471.682C219.972 471.436 218.227 467.285 215.91 463.996C213.505 460.586 212.481 458.699 212.792 454.449C213.045 450.985 213.06 446.493 212.922 441.559C212.407 422.885 209.743 397.845 209.743 397.845L194.554 400.429C194.552 400.429 198.007 423.16 199.609 441.561Z" fill="url(#paint0_linear_1_9336)"/>
<path d="M129.599 485.274H171.367C170.971 478.805 165.287 475.854 161.19 473.042C157.093 470.231 145.243 469.059 144.037 459.686C143.671 456.844 144.278 449.884 145.303 441.561C147.656 422.43 152.211 396.102 152.211 396.102L138.555 392.324C134.715 407.043 132.518 425.206 131.263 441.561C129.437 465.328 129.599 485.274 129.599 485.274Z" fill="url(#paint1_linear_1_9336)"/>
<path d="M200.312 459.686C200.312 459.686 199.605 473.896 200.227 481.844C200.378 483.782 201.899 485.275 203.73 485.275H241.993C244.813 474.028 226.22 471.682 226.22 471.682C219.973 471.437 218.228 467.285 215.911 463.996C213.506 460.586 212.482 458.699 212.793 454.45C213.046 450.985 213.061 446.494 212.923 441.559H199.612C200.244 448.836 200.586 455.436 200.312 459.686Z" fill="white"/>
<path d="M129.599 485.275H171.367C170.971 478.806 165.287 475.854 161.19 473.043C157.093 470.231 145.243 469.059 144.037 459.686C143.671 456.844 144.278 449.885 145.303 441.561H131.263C129.437 465.328 129.599 485.275 129.599 485.275Z" fill="white"/>
<path d="M210.504 441.561C210.504 441.561 210.01 449.868 210.974 457.188C212.197 466.459 217.862 472.009 226.393 474.309C231.075 475.571 237.144 477.279 240.857 478.602" stroke="#A4A4A4" stroke-width="1.03306" stroke-miterlimit="10"/>
<path d="M207.502 441.327C207.502 441.327 207.007 449.634 207.972 456.954C209.194 466.225 213.371 474.194 221.902 476.494C226.584 477.757 238.531 480.912 242.242 482.235" stroke="#A4A4A4" stroke-width="1.03306" stroke-miterlimit="10"/>
<path d="M203.992 441.561C203.992 441.561 203.498 449.868 204.462 457.188C205.685 466.459 207.966 472.941 215.556 477.683C220.183 480.574 238.344 483.672 242.058 484.995" stroke="#A4A4A4" stroke-width="1.03306" stroke-miterlimit="10"/>
<path d="M200.12 441.561C200.12 441.561 199.981 455.721 202.162 465.934C203.296 471.248 205.202 474.25 207.214 476.743C212.913 483.805 230.889 485.273 230.889 485.273" stroke="#A4A4A4" stroke-width="1.03306" stroke-miterlimit="10"/>
<path d="M199.993 470.276C199.993 470.276 201.163 482.744 214.794 485.275" stroke="#A4A4A4" stroke-width="1.03306" stroke-miterlimit="10"/>
<path d="M141.493 441.327C141.493 441.327 137.512 468.204 152.316 473.267C167.12 478.33 170.726 482.235 170.726 482.235" stroke="#A4A4A4" stroke-width="1.03306" stroke-miterlimit="10"/>
<path d="M136.904 441.327C136.904 441.327 135.807 452.68 138.087 463.809C138.855 467.561 141.072 470.803 144.18 472.754C146.745 474.364 150.519 476.404 155.867 478.602C168.291 483.71 167.532 483.167 168.589 485.275" stroke="#A4A4A4" stroke-width="1.03306" stroke-miterlimit="10"/>
<path d="M132.9 441.327C132.9 441.327 133.223 451.695 134.365 461.594C135.438 470.905 141.109 478.959 149.265 482.527C152.484 483.935 156.379 484.973 161.057 485.273" stroke="#A4A4A4" stroke-width="1.03306" stroke-miterlimit="10"/>
<path d="M130.272 457.584C130.272 457.584 128.013 481.619 145.989 485.273" stroke="#A4A4A4" stroke-width="1.03306" stroke-miterlimit="10"/>
<path d="M129.596 477.775C129.596 477.775 129.335 483.588 136.208 485.275" stroke="#A4A4A4" stroke-width="2.06612" stroke-miterlimit="10"/>
<path d="M213.002 445.913H199.958" stroke="#CA2026" stroke-width="2.06612" stroke-miterlimit="10"/>
<path d="M213.002 447.267H199.958" stroke="#CA2026" stroke-width="2.06612" stroke-miterlimit="10"/>
<path d="M144.644 447.267H130.846" stroke="#CA2026" stroke-width="2.06612" stroke-miterlimit="10"/>
<path d="M144.82 445.913H130.946" stroke="#CA2026" stroke-width="2.06612" stroke-miterlimit="10"/>
<path d="M224.522 395.672L183.299 402.831L174.119 362.959L166.187 402.138L132.9 394.134H132.898L122.923 391.735L141.163 319.659C143.127 320.952 145.065 322.114 146.979 323.16C181.938 342.262 207.604 321.533 207.604 321.533L224.522 395.672Z" fill="#CEAA86"/>
<path d="M174.119 362.96V351.713L187.954 402.024L183.299 402.831L174.119 362.96Z" fill="#F1CAAA"/>
<path d="M146.977 323.158V323.16L132.9 394.134H132.898L122.923 391.735L141.161 319.659L146.977 323.158Z" fill="#F1CAAA"/>
<path d="M220.317 290.796C221.522 284.513 232.333 262.693 232.333 262.693C232.333 262.693 208.072 248.385 203.992 243.305C199.735 238.002 188.976 239.829 182.944 240.408C176.911 240.988 177.45 240.408 177.45 240.408C181.919 245.088 181.175 250.308 180.99 251.589C180.806 252.869 178.924 259.128 172.497 260.815C166.07 262.502 160.933 257.594 160.933 257.594C156.049 250.851 162.554 240.408 162.554 240.408C162.554 240.408 160.378 240.988 154.345 240.408C148.312 239.829 139.792 238.893 135.271 243.973C130.75 249.053 109.301 264.699 109.301 264.699C109.301 264.699 124.83 287.019 126.038 293.302L141.23 282.15L139.528 325.294C139.528 325.294 173.265 345.723 207.468 321.825L204.699 282.19L220.317 290.796Z" fill="#BD2043"/>
<path d="M177.33 232.783C177.33 232.783 184.427 232.453 188.009 231.63C208.221 228.101 207.315 210.893 207.315 210.893C207.315 210.893 207.355 208.918 207.045 205.142C206.943 203.887 206.802 202.43 206.607 200.781C206.253 197.752 205.717 194.068 204.915 189.777C202.367 176.141 193.215 170.212 193.215 170.212C193.215 170.212 189.05 167.574 185.41 166.246C185.41 166.246 177.745 183.791 157.01 185.641L159.841 191.691C159.841 191.691 157.912 194.778 152.123 191.304C152.123 191.304 141.689 197.299 141.87 210.956C142.051 224.612 154.474 226.21 158.695 222.716C158.695 222.716 160.331 236.757 159.978 240.624C159.978 240.624 153.196 255.347 165.051 260.136C177.086 265.001 186.618 250.116 177.332 240.624V232.783" fill="url(#paint2_linear_1_9336)"/>
<path d="M177.33 232.783C177.33 232.783 169.836 232.911 166.222 229.903C166.222 229.903 172.046 238.004 177.33 240.626V232.783Z" fill="#F48E86"/>
<path d="M201.997 198.376C202.775 198.288 203.246 196.805 203.048 195.066C202.85 193.326 202.058 191.988 201.279 192.076C200.501 192.165 200.03 193.647 200.228 195.387C200.426 197.126 201.218 198.465 201.997 198.376Z" fill="#231F20"/>
<path d="M183.275 199.384C184.054 199.295 184.525 197.813 184.327 196.073C184.129 194.333 183.337 192.995 182.558 193.084C181.78 193.172 181.309 194.654 181.507 196.394C181.705 198.134 182.497 199.472 183.275 199.384Z" fill="#231F20"/>
<path d="M174.535 217.577C174.535 217.577 181.691 212.586 197.654 216.471" stroke="#F48E86" stroke-width="1.03306" stroke-miterlimit="10" stroke-linecap="round"/>
<path d="M189.262 218.119C189.437 218.16 187.637 217.626 182.916 218.411" stroke="#F48E86" stroke-width="1.03306" stroke-miterlimit="10" stroke-linecap="round"/>
<path d="M209.189 175.856C208.469 181.517 203.749 185.507 203.659 185.584C203.657 185.586 203.657 185.586 203.657 185.586C203.649 185.563 203.638 185.535 203.63 185.512C203.019 183.854 202.366 182.385 201.688 181.083C199.448 176.781 196.946 174.316 194.85 172.903C192.219 171.125 190.234 171.016 190.234 171.016C187.111 178.545 173.594 188.662 173.594 188.662L170.997 181.072C172.598 193.481 162.415 205.485 162.257 205.674C162.996 202.098 159.318 198.71 159.318 198.71C156.873 197.312 155.086 196.974 154.208 196.901C154.195 196.899 154.184 196.899 154.171 196.899C153.829 196.872 153.633 196.886 153.595 196.887C153.589 196.887 153.587 196.889 153.587 196.889C151.978 197.048 150.683 197.525 149.645 198.191C149.638 198.197 149.632 198.199 149.625 198.205C148.475 198.944 147.641 199.911 147.034 200.924C147.013 200.952 146.998 200.981 146.981 201.009C145.556 203.43 145.415 206.079 145.401 206.462C145.401 206.493 145.401 206.51 145.401 206.51C145.817 217.641 158.175 221.698 158.175 221.698C159.449 223.033 160.12 224.323 160.47 224.55C163.357 226.42 158.309 226.439 158.309 226.439C145.626 228.364 132.724 211.284 132.724 211.284C127.218 203.468 125.884 195.986 126.325 189.737C127.025 179.779 132.235 172.962 132.235 172.962C140.508 162.747 150.663 157.788 160.198 155.603C160.198 155.601 160.202 155.601 160.205 155.603C169.059 153.574 177.379 153.936 183.161 154.701C183.163 154.701 183.163 154.701 183.165 154.701C188.094 155.352 191.179 156.295 191.179 156.295C206.697 163 209.905 170.25 209.189 175.856Z" fill="black"/>
<path d="M195.959 207.077C193.896 207.849 192.717 207.447 192.717 207.447C188.607 204.547 192.16 198.15 192.237 198.01C192.239 198.008 192.239 198.008 192.239 198.008C192.239 198.008 196.413 196.906 198.714 201.392C201.016 205.874 195.959 207.077 195.959 207.077Z" fill="#EC8680"/>
<path d="M184.694 181.831C184.694 181.831 187.23 185.892 184.065 188.977C180.901 192.062 163.897 184.748 163.897 184.748C163.897 184.748 162.923 177.817 184.694 181.831Z" fill="black"/>
<path d="M193.017 182.148C193.017 182.148 191.517 186.696 195.325 188.939C199.131 191.185 213.913 180.042 213.913 180.042C213.913 180.042 213.211 173.077 193.017 182.148Z" fill="black"/>
<path d="M183.161 154.701C145.646 153.6 126.327 189.737 126.327 189.737C127.027 179.779 132.237 172.962 132.237 172.962C140.51 162.747 150.664 157.788 160.199 155.603C160.199 155.601 160.203 155.601 160.207 155.603C169.059 153.574 177.379 153.936 183.161 154.701Z" fill="#3A3A3A"/>
<path d="M138.253 323.339C141.429 322.618 140.038 327.666 142.65 328.088L150.885 323.735C153.883 317.561 149.007 313.207 149.007 313.207L134.903 310.877C121.239 303.519 113.667 284.037 113.667 284.037L119.294 280.097C117.409 276.8 111.651 268.224 111.651 268.224L99.6212 277.531C97.4757 279.191 96.7076 282.063 97.7531 284.552C97.7531 284.552 112.348 309.169 133.296 318.904C133.296 318.906 135.696 323.92 138.253 323.339Z" fill="url(#paint3_linear_1_9336)"/>
<path d="M204.257 321.869C201.164 321.144 202.519 326.219 199.975 326.643L191.957 322.267C189.037 316.061 193.785 311.685 193.785 311.685L207.519 309.343C220.823 301.949 228.399 283.266 228.399 283.266L224.018 280.395C226.301 275.234 230.498 266.475 230.498 266.475L241.875 275.829C243.964 277.497 244.711 280.384 243.694 282.886C243.694 282.886 229.483 307.627 209.085 317.414C209.084 317.414 206.747 322.452 204.257 321.869Z" fill="url(#paint4_linear_1_9336)"/>
<path d="M409.443 300.466L402.816 300.034L402.801 300.437L402.278 314.254L342.464 321.276L338.911 303.026L339.103 300.724L338.879 300.726L323.207 300.898C323.207 300.898 335.837 249.408 341.666 243.741C344.191 241.284 348.306 238.568 352.16 236.279C357.2 233.281 361.791 231.016 361.791 231.016L377.065 228.907L387.089 231.183L389.297 232.135L395.043 234.619C417.278 252.97 409.443 300.466 409.443 300.466Z" fill="#145677"/>
<path d="M339.753 321.608L326.7 397.753C326.7 397.753 351.741 404.957 365.062 401.355L368.791 377.248L376.841 401.078C376.841 401.078 409.551 394.428 418.609 388.608L399.695 314.256L339.753 321.608Z" fill="#BD2043"/>
<path d="M361.065 355.72L368.79 377.246L365.062 401.353C365.062 401.353 360.11 402.881 353.785 402.323L361.065 355.72Z" fill="#9B1E45"/>
<path d="M390.559 323.199L409.581 392.563C409.581 392.563 417.099 390.086 418.608 388.608L399.694 314.254L390.559 323.199Z" fill="#9B1E45"/>
<path d="M343.659 442.512C343.019 449.683 342.672 456.185 342.949 460.373C342.949 460.373 343.657 474.292 343.042 482.138C342.889 484.089 341.321 485.589 339.437 485.589H300.947C298.105 474.505 316.844 472.195 316.844 472.195C323.139 471.953 324.898 467.862 327.232 464.622C329.655 461.261 330.687 459.403 330.374 455.215C330.119 451.8 330.104 447.377 330.244 442.512C330.763 424.109 333.448 399.434 333.448 399.434L348.756 401.98C348.756 401.98 345.272 424.379 343.659 442.512Z" fill="url(#paint5_linear_1_9336)"/>
<path d="M414.214 485.591H372.123C372.524 479.217 378.251 476.309 382.38 473.537C386.508 470.766 398.452 469.612 399.665 460.374C400.033 457.574 399.422 450.715 398.389 442.514C396.017 423.66 391.428 397.715 391.428 397.715L405.19 393.992C409.059 408.496 411.274 426.396 412.538 442.512C414.376 465.934 414.214 485.591 414.214 485.591Z" fill="url(#paint6_linear_1_9336)"/>
<path d="M342.949 460.375C342.949 460.375 343.663 474.378 343.036 482.21C342.883 484.119 341.351 485.589 339.507 485.589H300.947C298.105 474.505 316.844 472.195 316.844 472.195C323.139 471.953 324.898 467.862 327.232 464.622C329.655 461.261 330.687 459.403 330.374 455.215C330.119 451.8 330.104 447.377 330.244 442.512H343.659C343.019 449.683 342.674 456.187 342.949 460.375Z" fill="white"/>
<path d="M414.214 485.591H372.123C372.524 479.217 378.251 476.309 382.38 473.537C386.508 470.767 398.452 469.612 399.665 460.375C400.033 457.574 399.422 450.715 398.389 442.514H412.538C414.376 465.934 414.214 485.591 414.214 485.591Z" fill="white"/>
<path d="M358.818 321.115C358.818 321.115 356.889 342.222 362.127 343.18L363.441 320.249L358.818 321.115Z" stroke="#9B1E45" stroke-width="1.03306" stroke-miterlimit="10"/>
<path d="M332.678 442.512C332.678 442.512 333.176 450.698 332.204 457.91C330.972 467.045 325.264 472.516 316.666 474.784C311.947 476.028 305.833 477.711 302.091 479.015" stroke="#A4A4A4" stroke-width="1.03306" stroke-miterlimit="10"/>
<path d="M335.705 442.283C335.705 442.283 336.203 450.469 335.231 457.682C333.999 466.817 329.791 474.671 321.193 476.939C316.474 478.184 304.436 481.292 300.694 482.596" stroke="#A4A4A4" stroke-width="1.03306" stroke-miterlimit="10"/>
<path d="M339.241 442.512C339.241 442.512 339.739 450.698 338.767 457.91C337.535 467.045 335.237 473.435 327.588 478.107C322.926 480.957 304.623 484.01 300.881 485.314" stroke="#A4A4A4" stroke-width="1.03306" stroke-miterlimit="10"/>
<path d="M343.144 442.512C343.144 442.512 343.285 456.466 341.087 466.532C339.943 471.769 338.022 474.727 335.996 477.184C330.253 484.142 312.138 485.589 312.138 485.589" stroke="#A4A4A4" stroke-width="1.03306" stroke-miterlimit="10"/>
<path d="M343.272 470.81C343.272 470.81 342.093 483.096 328.357 485.589" stroke="#A4A4A4" stroke-width="2.06612" stroke-miterlimit="10"/>
<path d="M402.226 442.283C402.226 442.283 406.238 468.77 391.319 473.757C376.4 478.745 372.765 482.594 372.765 482.594" stroke="#A4A4A4" stroke-width="1.03306" stroke-miterlimit="10"/>
<path d="M406.852 442.283C406.852 442.283 407.958 453.472 405.66 464.439C404.884 468.136 402.652 471.331 399.519 473.253C396.934 474.84 393.132 476.85 387.74 479.017C375.22 484.051 375.984 483.513 374.918 485.591" stroke="#A4A4A4" stroke-width="1.03306" stroke-miterlimit="10"/>
<path d="M410.885 442.283C410.885 442.283 410.56 452.5 409.409 462.256C408.328 471.432 402.614 479.368 394.392 482.883C391.148 484.27 387.223 485.293 382.509 485.589" stroke="#A4A4A4" stroke-width="1.03306" stroke-miterlimit="10"/>
<path d="M413.536 458.304C413.536 458.304 415.812 481.989 397.696 485.591" stroke="#A4A4A4" stroke-width="2.06612" stroke-miterlimit="10"/>
<path d="M414.218 478.201C414.218 478.201 414.48 483.928 407.555 485.591" stroke="#A4A4A4" stroke-width="2.06612" stroke-miterlimit="10"/>
<path d="M330.163 446.801H343.308" stroke="#CA2026" stroke-width="2.06612" stroke-miterlimit="10"/>
<path d="M330.163 448.137H343.308" stroke="#CA2026" stroke-width="2.06612" stroke-miterlimit="10"/>
<path d="M399.05 448.137H412.955" stroke="#CA2026" stroke-width="2.06612" stroke-miterlimit="10"/>
<path d="M398.872 446.801H412.855" stroke="#CA2026" stroke-width="2.06612" stroke-miterlimit="10"/>
<path d="M327.808 392.563C327.808 392.563 353.245 399.487 365.815 396.496" stroke="white" stroke-width="2.06612" stroke-miterlimit="10"/>
<path d="M375.271 396.428C375.271 396.428 408.753 389.993 417.277 383.343" stroke="white" stroke-width="2.06612" stroke-miterlimit="10"/>
<path d="M343.663 353.196C334.595 340.675 327.074 300.896 327.074 300.896L338.909 300.921L346.684 345.447H350.786C350.786 345.447 366.977 349.308 361.58 357.943C356.183 366.579 344.878 355.46 344.878 355.46" fill="url(#paint7_linear_1_9336)"/>
<path d="M380.196 352.973C390.213 340.55 400.512 299.915 400.512 299.915L388.063 299.207L377.49 344.828L373.26 344.61C373.26 344.61 356.355 347.727 361.464 356.915C366.572 366.101 378.823 355.245 378.823 355.245" fill="url(#paint8_linear_1_9336)"/>
<path d="M360.497 224.829C360.497 224.829 354.262 226.08 350.975 226.14C332.659 227.452 329.719 212.314 329.719 212.314C329.719 212.314 329.257 210.606 328.708 207.262C328.525 206.151 328.332 204.856 328.143 203.381C327.796 200.674 327.464 197.359 327.23 193.458C326.489 181.066 333.154 173.935 333.154 173.935C333.154 173.935 336.199 170.742 339.071 168.8C339.071 168.8 349.528 182.376 367.932 179.49L366.785 185.357C366.785 185.357 369.128 187.62 373.403 183.351C373.403 183.351 383.761 186.297 386.561 198.197C389.361 210.095 378.918 214.173 374.499 212.053C374.499 212.053 376.118 224.6 377.262 227.882C377.262 227.882 386.338 239.197 377.082 245.924C367.683 252.755 356.185 241.893 362.192 231.641L360.497 224.829Z" fill="url(#paint9_linear_1_9336)"/>
<path d="M360.497 224.829C360.497 224.829 367.032 223.318 369.517 219.923C369.517 219.923 366.214 228.218 362.195 231.64L360.497 224.829Z" fill="#F48E86"/>
<path d="M331.625 200.267C332.321 200.175 332.719 198.842 332.514 197.289C332.309 195.736 331.579 194.551 330.884 194.643C330.189 194.735 329.791 196.068 329.996 197.621C330.2 199.174 330.93 200.358 331.625 200.267Z" fill="#231F20"/>
<path d="M348.099 197.089C348.794 196.997 349.192 195.664 348.987 194.111C348.783 192.558 348.053 191.373 347.358 191.465C346.662 191.557 346.264 192.89 346.469 194.443C346.674 195.996 347.404 197.18 348.099 197.089Z" fill="#231F20"/>
<path d="M359.631 211.017C359.631 211.017 352.338 208.234 339.317 215.063" stroke="#F48E86" stroke-width="1.03306" stroke-miterlimit="10" stroke-linecap="round"/>
<path d="M346.962 214.679C346.818 214.754 348.266 213.899 352.536 213.56" stroke="#F48E86" stroke-width="1.03306" stroke-miterlimit="10" stroke-linecap="round"/>
<path d="M320.504 182.295C322.356 187.054 327.319 189.498 327.415 189.545C327.417 189.547 327.417 189.547 327.417 189.547C327.419 189.524 327.422 189.5 327.424 189.477C327.596 187.903 327.845 186.488 328.151 185.21C329.164 180.989 330.804 178.306 332.317 176.626C334.216 174.514 335.916 173.988 335.916 173.988C340.258 179.849 354.186 185.707 354.186 185.707L354.798 178.555C356.096 189.677 367.535 197.895 367.715 198.023C366.297 195.08 368.758 191.341 368.758 191.341C370.579 189.598 372.057 188.916 372.804 188.662C372.815 188.658 372.825 188.654 372.836 188.652C373.127 188.556 373.3 188.524 373.334 188.516C373.338 188.515 373.34 188.516 373.34 188.516C374.772 188.305 375.999 188.441 377.044 188.794C377.052 188.798 377.057 188.798 377.065 188.801C378.222 189.194 379.156 189.854 379.903 190.602C379.928 190.622 379.947 190.643 379.967 190.664C381.728 192.458 382.426 194.727 382.52 195.057C382.526 195.083 382.53 195.098 382.53 195.098C384.581 204.854 374.727 211.053 374.727 211.053C373.908 212.488 373.606 213.754 373.353 214.026C371.251 216.275 375.638 215.197 375.638 215.197C387.068 214.122 394.573 196.497 394.573 196.497C397.662 188.518 397.2 181.731 395.464 176.402C392.699 167.906 386.7 163.115 386.7 163.115C377.305 156.036 367.413 153.929 358.659 154.097C358.659 154.095 358.655 154.097 358.653 154.098C350.525 154.253 343.379 156.37 338.524 158.286C338.522 158.286 338.522 158.286 338.52 158.286C334.382 159.918 331.906 161.405 331.906 161.405C319.885 170.591 318.67 177.581 320.504 182.295Z" fill="black"/>
<path d="M338.755 206.54C340.713 206.762 341.649 206.159 341.649 206.159C344.589 202.751 340.119 197.965 340.023 197.859C340.021 197.857 340.021 197.857 340.021 197.857C340.021 197.857 336.158 197.805 335.131 202.198C334.103 206.591 338.755 206.54 338.755 206.54Z" fill="#EC8680"/>
<path d="M343.353 179.896C343.353 179.896 340.978 183.463 343.727 186.305C346.476 189.148 361.88 183.053 361.88 183.053C361.88 183.053 362.933 176.877 343.353 179.896Z" fill="black"/>
<path d="M334.146 179.932C334.146 179.932 337.656 182.389 336.13 186.039C334.603 189.688 318.037 189.615 318.037 189.615C318.037 189.615 314.81 184.244 334.146 179.932Z" fill="black"/>
<path opacity="0.46" d="M351.324 200.7C355 200.439 357.745 196.914 357.455 192.826C357.165 188.738 353.95 185.636 350.274 185.897C346.598 186.158 343.853 189.683 344.143 193.771C344.433 197.859 347.648 200.961 351.324 200.7Z" fill="#62C7D1"/>
<path d="M351.324 200.7C355 200.439 357.745 196.914 357.455 192.826C357.165 188.738 353.95 185.636 350.274 185.897C346.598 186.158 343.853 189.683 344.143 193.771C344.433 197.859 347.648 200.961 351.324 200.7Z" stroke="#9C7A2C" stroke-width="1.03306" stroke-miterlimit="10"/>
<path opacity="0.46" d="M331.104 202.134C334.78 201.874 337.525 198.348 337.235 194.261C336.945 190.173 333.729 187.071 330.053 187.332C326.377 187.593 323.633 191.118 323.923 195.206C324.213 199.293 327.428 202.395 331.104 202.134Z" fill="#62C7D1"/>
<path d="M331.104 202.134C334.78 201.874 337.525 198.348 337.235 194.261C336.945 190.173 333.729 187.071 330.053 187.332C326.377 187.593 323.633 191.118 323.923 195.206C324.213 199.293 327.428 202.395 331.104 202.134Z" stroke="#9C7A2C" stroke-width="1.03306" stroke-miterlimit="10"/>
<path d="M337.107 193.327L344.072 192.834" stroke="#9C7A2C" stroke-width="1.03306" stroke-miterlimit="10"/>
<path d="M357.383 191.889L369.436 190.679" stroke="#9C7A2C" stroke-width="1.03306" stroke-miterlimit="10"/>
<path d="M338.524 158.288C370.862 149.209 395.464 176.403 395.464 176.403C392.699 167.908 386.701 163.117 386.701 163.117C377.305 156.038 367.413 153.931 358.659 154.099C358.659 154.097 358.655 154.099 358.653 154.1C350.526 154.255 343.379 156.372 338.524 158.288Z" fill="#3A3A3A"/>
<path d="M338.879 300.726L323.207 300.898C323.207 300.898 335.837 249.408 341.666 243.741C341.666 243.741 337.633 292.433 338.879 300.726Z" fill="white"/>
<path d="M409.444 300.466L402.816 300.034L402.801 300.438L388.063 299.207C391.136 285.949 389.298 232.136 389.298 232.136L395.044 234.619C417.279 252.971 409.444 300.466 409.444 300.466Z" fill="white"/>
</g>
</g>
<defs>
<linearGradient id="paint0_linear_1_9336" x1="172.663" y1="435.634" x2="212.615" y2="442.606" gradientUnits="userSpaceOnUse">
<stop offset="0.6129" stop-color="#F8BBA7"/>
<stop offset="1" stop-color="#EE8780"/>
</linearGradient>
<linearGradient id="paint1_linear_1_9336" x1="118.859" y1="437.671" x2="147.53" y2="439.795" gradientUnits="userSpaceOnUse">
<stop offset="0.6129" stop-color="#F8BBA7"/>
<stop offset="1" stop-color="#EE8780"/>
</linearGradient>
<linearGradient id="paint2_linear_1_9336" x1="210.562" y1="261.583" x2="162.47" y2="191.214" gradientUnits="userSpaceOnUse">
<stop offset="0.6882" stop-color="#F9BBA7"/>
<stop offset="1" stop-color="#F48E86"/>
</linearGradient>
<linearGradient id="paint3_linear_1_9336" x1="97.2899" y1="298.156" x2="151.861" y2="298.156" gradientUnits="userSpaceOnUse">
<stop offset="0.6882" stop-color="#F9BBA7"/>
<stop offset="1" stop-color="#F48E86"/>
</linearGradient>
<linearGradient id="paint4_linear_1_9336" x1="244.142" y1="296.559" x2="191.007" y2="296.559" gradientUnits="userSpaceOnUse">
<stop offset="0.6882" stop-color="#F9BBA7"/>
<stop offset="1" stop-color="#F48E86"/>
</linearGradient>
<linearGradient id="paint5_linear_1_9336" x1="300.654" y1="442.513" x2="348.756" y2="442.513" gradientUnits="userSpaceOnUse">
<stop offset="0.6129" stop-color="#F8BBA7"/>
<stop offset="1" stop-color="#EE8780"/>
</linearGradient>
<linearGradient id="paint6_linear_1_9336" x1="372.122" y1="439.791" x2="414.217" y2="439.791" gradientUnits="userSpaceOnUse">
<stop offset="0.6129" stop-color="#F8BBA7"/>
<stop offset="1" stop-color="#EE8780"/>
</linearGradient>
<linearGradient id="paint7_linear_1_9336" x1="327.075" y1="331.064" x2="362.683" y2="331.064" gradientUnits="userSpaceOnUse">
<stop offset="0.6882" stop-color="#F9BBA7"/>
<stop offset="1" stop-color="#F48E86"/>
</linearGradient>
<linearGradient id="paint8_linear_1_9336" x1="398.888" y1="330.99" x2="361.737" y2="329.072" gradientUnits="userSpaceOnUse">
<stop offset="0.6882" stop-color="#F9BBA7"/>
<stop offset="1" stop-color="#F48E86"/>
</linearGradient>
<linearGradient id="paint9_linear_1_9336" x1="337.85" y1="257.059" x2="364.371" y2="185.535" gradientUnits="userSpaceOnUse">
<stop offset="0.6882" stop-color="#F9BBA7"/>
<stop offset="1" stop-color="#F48E86"/>
</linearGradient>
<clipPath id="clip0_1_9336">
<rect width="500" height="500" rx="250" fill="white"/>
</clipPath>
<clipPath id="clip1_1_9336">
<rect width="566.116" height="566.116" fill="white" transform="translate(-27.8926 -16.5288)"/>
</clipPath>
</defs>
</svg>
