<svg width="500" height="500" viewBox="0 0 500 500" fill="none" xmlns="http://www.w3.org/2000/svg">
<g clip-path="url(#clip0_1_11231)">
<rect width="500" height="500" rx="250" fill="white"/>
<path d="M142.59 332.806L142.354 333.042C139.165 326.073 137.156 318.158 136.33 309.417C137.156 318.04 139.401 325.837 142.59 332.806Z" fill="#DFDFDF"/>
<path d="M218.427 230.863C233.954 230.863 246.541 218.276 246.541 202.749C246.541 187.222 233.954 174.635 218.427 174.635C202.9 174.635 190.313 187.222 190.313 202.749C190.313 218.276 202.9 230.863 218.427 230.863Z" fill="#DFDFDF"/>
<path d="M303.361 131.876H204.37C161.372 131.876 135.738 157.51 135.738 200.508V299.498C135.738 312.374 137.983 323.596 142.354 333.047C152.512 355.491 174.248 368.13 204.37 368.13H303.361C346.359 368.13 371.993 342.497 371.993 299.498V272.447V200.508C371.993 157.51 346.359 131.876 303.361 131.876ZM352.738 255.909C343.524 247.995 328.64 247.995 319.426 255.909L270.285 298.081C261.071 305.995 246.187 305.995 236.973 298.081L232.957 294.773C224.57 287.449 211.222 286.741 201.771 293.12L157.592 322.769C154.993 316.154 153.457 308.476 153.457 299.498V200.508C153.457 167.196 171.058 149.595 204.37 149.595H303.361C336.673 149.595 354.274 167.196 354.274 200.508V257.209L352.738 255.909Z" fill="#DFDFDF"/>
<g clip-path="url(#clip1_1_11231)">
<path d="M610.537 -12.9854H-34.0911V632.429H610.537V-12.9854Z" fill="url(#paint0_linear_1_11231)"/>
<path d="M196.997 143.242C196.997 143.242 197.027 165.247 213.08 168.984C213.08 168.984 209.32 154.566 209.32 146.85C209.32 146.85 207.124 148.025 204.518 148.251L201.952 132.851L196.997 143.242Z" fill="url(#paint1_linear_1_11231)"/>
<path d="M325.562 162.863C325.562 162.863 346.27 152.121 337.447 125.034C337.447 125.034 332.599 132.185 327.728 135.026C327.728 135.026 328.328 152.061 325.562 162.863Z" fill="url(#paint2_linear_1_11231)"/>
<path d="M362.52 430.068L357.806 430.184L235.924 433.149L213.671 433.693L218.156 387.43L218.211 386.835L219.913 386.701L351.336 376.439L357.2 375.979L357.688 375.94L362.52 430.068Z" fill="#CEAA87"/>
<path d="M235.924 396.165V433.148L213.671 433.691L218.211 386.833L219.913 386.7L235.924 396.165Z" fill="#A58972"/>
<path d="M348.203 308.1C348.483 310.481 349.707 318.644 351.106 327.77C353.332 342.274 355.995 359.209 355.995 359.209C360.7 366.267 357.666 374.778 357.202 375.98C357.166 376.074 357.146 376.124 357.146 376.124C354.134 379.577 351.095 382.611 348.04 385.277C348.038 385.279 348.038 385.279 348.036 385.282C329.69 401.277 310.591 403.952 291.598 403.477C291.586 403.475 291.575 403.475 291.558 403.477C282.494 403.245 273.454 402.298 264.533 401.737C242.188 400.331 226.199 394.081 218.158 387.432C215.133 384.929 213.229 382.37 212.541 379.991C210.019 371.291 218.203 361.142 218.203 361.142C216.087 350.143 215.863 337.121 216.323 325.686V325.684C216.963 309.733 215.182 316.884 215.182 316.884L175.527 299.091C198.241 220.8 244.143 208.387 244.143 208.387C281.542 222.794 304.289 202.162 304.289 202.162C304.289 202.162 304.289 202.162 304.291 202.164" fill="#BD2143"/>
<path d="M247.076 208.604C247.076 208.604 251.692 246.356 277.644 245.933C302.959 245.52 302.959 203.456 302.959 203.456L247.076 208.604Z" fill="url(#paint3_linear_1_11231)"/>
<path d="M327.723 136.234C327.723 136.234 332.556 212.108 271.662 213.559C210.768 215.009 209.32 147.349 209.32 147.349V99.9883H327.813L327.723 136.234Z" fill="url(#paint4_linear_1_11231)"/>
<path d="M342.831 113.896V113.898C337.967 128.881 327.726 135.027 327.726 135.027L327.743 128.864C320.929 127.429 306.03 100.415 305.798 99.9935C311.956 121.496 311.773 131.4 311.773 131.4C287.853 133.576 254.504 99.9892 254.504 99.9892H251.969C226.959 146.14 204.516 148.252 204.516 148.252L201.948 132.852L196.995 143.244C189.384 133.819 182.979 113.039 185.276 99.9892C188.018 84.3978 214.271 39.3383 268.566 38.612C275.68 38.5174 282.208 39.1363 288.18 40.2902C319.865 46.3948 335.908 67.4183 341.054 75.575C342.311 77.5669 343.201 79.7672 343.682 82.0728C346.489 95.451 345.423 105.924 342.831 113.896Z" fill="black"/>
<path d="M254.156 123.798C254.156 123.798 261.096 129.645 257.186 137.054C253.275 144.462 218.343 141.179 218.343 141.179C218.343 141.179 212.55 129.241 254.156 123.798Z" fill="black"/>
<path d="M289.473 123.798C289.473 123.798 282.533 129.645 286.444 137.054C290.354 144.462 325.287 141.179 325.287 141.179C325.287 141.179 331.082 129.241 289.473 123.798Z" fill="black"/>
<path d="M239.093 162.76C240.994 162.76 242.536 160.085 242.536 156.786C242.536 153.487 240.994 150.812 239.093 150.812C237.192 150.812 235.651 153.487 235.651 156.786C235.651 160.085 237.192 162.76 239.093 162.76Z" fill="black"/>
<path d="M294.016 162.864C295.917 162.864 297.458 160.19 297.458 156.891C297.458 153.591 295.917 150.917 294.016 150.917C292.115 150.917 290.573 153.591 290.573 156.891C290.573 160.19 292.115 162.864 294.016 162.864Z" fill="black"/>
<path d="M288.547 192.862C288.173 193.755 287.604 194.658 286.867 195.524C286.867 195.524 286.867 195.526 286.864 195.528C282.034 201.227 270.074 205.533 259.872 197.776C259.872 197.776 259.433 197.458 258.819 196.753C257.914 195.719 256.625 193.85 255.763 190.928C255.763 190.928 254.857 188.358 257.452 188.029C257.452 188.029 271.469 190.444 286.052 186.98C286.056 186.983 291.366 186.097 288.547 192.862Z" fill="black"/>
<path d="M336.02 278.56L336.503 269.136" stroke="#EF8981" stroke-width="2.06612" stroke-miterlimit="10"/>
<path d="M329.657 283.392V275.336" stroke="#EF8981" stroke-width="2.06612" stroke-miterlimit="10"/>
<path d="M321.845 289.109V280.007" stroke="#EF8981" stroke-width="2.06612" stroke-miterlimit="10"/>
<path d="M409.471 279.375L409.479 279.369V279.377" fill="url(#paint5_linear_1_11231)"/>
<path d="M270.031 159.566C267.921 162.675 264.485 169.029 265.2 176.635C265.286 177.557 265.916 178.335 266.793 178.632C268.961 179.364 273.396 180.265 278.456 177.907C279.341 177.495 279.879 176.577 279.808 175.604C279.563 172.235 278.473 164.188 273.626 159.237C272.599 158.188 270.856 158.349 270.031 159.566Z" fill="#EF8981"/>
<path d="M216.862 325.502L221.207 255.613L224.699 322.584L216.862 325.502Z" fill="#9C1E45"/>
<path d="M292.185 403.291C292.185 403.291 292.17 403.291 292.14 403.293C292.127 403.291 292.116 403.291 292.099 403.293C283.035 403.061 273.996 402.113 265.074 401.552C234.321 399.618 215.605 388.503 213.083 379.807C210.56 371.106 218.745 360.958 218.745 360.958C216.628 349.958 216.405 336.937 216.864 325.501L224.701 321.616C224.701 321.616 224.303 370.262 277.646 364.826C277.646 364.826 268.282 378.96 235.662 372.437C235.66 372.437 242.506 399.352 292.185 403.291Z" fill="#9C1E45"/>
<path d="M283.977 402.923L285.674 429.894H296.794V403.292L283.977 402.923Z" stroke="#A58972" stroke-width="2.06612" stroke-miterlimit="10"/>
<path d="M342.831 113.895C342.713 64.1362 288.179 40.2871 288.179 40.2871H288.182C319.867 46.3917 335.91 67.4152 341.056 75.5719C342.313 77.5638 343.203 79.7641 343.684 82.0698C346.488 95.4501 345.422 105.923 342.831 113.895Z" fill="#EFF3C3"/>
<path d="M362.521 430.067L357.809 430.183L354.091 389.61C353.608 387.322 343.064 388.458 343.064 388.458C343.066 388.456 348.036 385.28 348.038 385.278C349.658 383.215 350.707 380.125 351.336 376.438C354.265 359.235 345.094 307.091 345.094 307.091L348.008 306.711C350.234 321.215 355.995 359.209 355.995 359.209C360.701 366.268 357.667 374.779 357.203 375.981L357.69 375.942L362.521 430.067Z" fill="#EFF3C3"/>
<path d="M286.867 195.524C286.867 195.524 286.867 195.526 286.865 195.528C282.034 201.226 270.074 205.533 259.872 197.776C259.872 197.776 259.434 197.458 258.819 196.753C258.819 196.751 258.819 196.751 258.819 196.751C258.819 196.751 271.505 189.933 286.867 195.524Z" fill="#BD2143"/>
<path d="M186.672 304.088C186.672 304.088 176.666 347.42 137.603 387.221H161.779C161.779 387.221 197.5 355.491 209.32 314.252L186.672 304.088Z" fill="url(#paint6_linear_1_11231)"/>
<path d="M297.187 297.505C297.187 297.505 287.18 343.998 248.118 386.7H272.294C272.294 386.7 308.015 352.655 319.835 308.408L297.187 297.505Z" fill="url(#paint7_linear_1_11231)"/>
<path d="M312.284 234.349L293.85 313.788L348.766 306.609C374.826 213.581 304.289 202.16 304.289 202.16" fill="#BD2143"/>
<path d="M313.874 230.398L283.353 308.961L294.101 313.79L313.874 230.398Z" fill="#9C1E45"/>
<path d="M133.215 316.881L122.536 386.701L166.332 387.223L146.95 316.881H133.215Z" fill="#B1E3F9"/>
<path d="M624.992 434.857H-79.142V632.232H624.992V434.857Z" fill="#CD9B8E"/>
<path d="M624.992 487.664H-79.142V491.478H624.992V487.664Z" fill="#C3C6C7"/>
<path d="M624.992 434.857H-79.142V440.262H624.992V434.857Z" fill="#D2D3D3"/>
<path d="M-105.68 387.052C-118.882 387.052 -129.585 397.753 -129.585 410.955C-129.585 424.157 -118.882 434.86 -105.68 434.86H624.989V387.054H-105.68V387.052Z" fill="#D0B5A8"/>
<path d="M299.299 387.052H-54.2279V413.855H299.299V387.052Z" fill="#535A63"/>
<path opacity="0.2" d="M-105.679 387.052C-118.881 387.052 -129.584 397.753 -129.584 410.955C-129.584 413.106 -129.273 415.179 -128.742 417.158C-126.007 406.971 -116.733 399.463 -105.682 399.463H624.987V387.05H-105.679V387.052Z" fill="white"/>
<path d="M-14.4087 387.225V371.675C-14.4087 367.347 -10.8654 363.804 -6.53778 363.804H13.465C17.7948 363.804 21.3359 367.347 21.3359 371.675V387.225H-14.4087Z" fill="#9AA1A5"/>
<path d="M12.612 369.487C15.1497 369.487 17.2082 371.544 17.2082 374.084V387.225H8.01581V374.084C8.01581 371.546 10.0743 369.487 12.612 369.487Z" fill="#ABB1B5"/>
<path d="M-6.53778 363.804C-10.8675 363.804 -14.4087 367.347 -14.4087 371.675V387.225H3.4647V363.804H-6.53778Z" fill="#D2D3D3"/>
<path d="M143.907 387.225V371.675C143.907 367.347 147.451 363.804 151.778 363.804H171.781C176.109 363.804 179.652 367.347 179.652 371.675V387.225H143.907Z" fill="#9AA1A5"/>
<path d="M152.632 369.487C150.094 369.487 148.036 371.544 148.036 374.084V387.225H157.228V374.084C157.228 371.546 155.17 369.487 152.632 369.487Z" fill="#ABB1B5"/>
<path d="M170.928 369.487C173.466 369.487 175.524 371.544 175.524 374.084V387.225H166.332V374.084C166.332 371.546 168.388 369.487 170.928 369.487Z" fill="#ABB1B5"/>
<path d="M151.778 363.804C147.451 363.804 143.907 367.347 143.907 371.675V387.225H161.781V363.804H151.778Z" fill="#D2D3D3"/>
<path d="M127.82 368.919H37.4236V387.224H127.82V368.919Z" fill="#9AA1A5"/>
<path opacity="0.7" d="M82.6228 368.919H37.4236V387.224H82.6228V368.919Z" fill="#D2D3D3"/>
<path d="M89.8357 368.919H75.4046V304.089C75.4046 284.365 91.4515 268.316 111.177 268.316C130.903 268.316 146.95 284.363 146.95 304.089H132.519C132.519 292.32 122.944 282.747 111.177 282.747C99.4084 282.747 89.8357 292.32 89.8357 304.089V368.919Z" fill="#9AA1A5"/>
<path d="M149.902 304.092H129.566L127.516 316.883H151.952L149.902 304.092Z" fill="#535A63"/>
<path d="M101.121 359.484H64.1237V368.922H101.121V359.484Z" fill="#535A63"/>
<path d="M180.785 287.19L219.008 304.752M289.256 297.521L352.273 291.323" stroke="white" stroke-width="2.06612"/>
<path d="M333.284 390.94C333.284 390.94 340.314 397.316 347.342 397.748C354.372 398.179 381.453 397.748 381.453 397.748C381.453 397.748 392.679 395.8 396.848 390.822L333.284 390.94Z" fill="#CCBFBA"/>
<path d="M364.06 394.717C390.444 394.717 411.831 389.38 411.831 382.797C411.831 376.213 390.444 370.876 364.06 370.876C337.677 370.876 316.289 376.213 316.289 382.797C316.289 389.38 337.677 394.717 364.06 394.717Z" fill="white"/>
<path d="M364.367 392.413C385.116 392.413 401.936 388.974 401.936 384.732C401.936 380.489 385.116 377.05 364.367 377.05C343.619 377.05 326.799 380.489 326.799 384.732C326.799 388.974 343.619 392.413 364.367 392.413Z" fill="#E5E5E5"/>
<path d="M332.078 380.364C332.078 380.364 339.108 386.74 346.135 387.172C353.165 387.603 380.247 387.172 380.247 387.172C380.247 387.172 391.472 385.224 395.642 380.246L332.078 380.364Z" fill="#CCBFBA"/>
<path d="M362.854 384.14C389.237 384.14 410.625 378.803 410.625 372.219C410.625 365.636 389.237 360.299 362.854 360.299C336.471 360.299 315.083 365.636 315.083 372.219C315.083 378.803 336.471 384.14 362.854 384.14Z" fill="white"/>
<path d="M363.161 381.837C383.909 381.837 400.729 378.398 400.729 374.155C400.729 369.913 383.909 366.474 363.161 366.474C342.413 366.474 325.593 369.913 325.593 374.155C325.593 378.398 342.413 381.837 363.161 381.837Z" fill="#E5E5E5"/>
<path d="M334.289 369.953C334.289 369.953 341.319 376.329 348.347 376.76C355.377 377.192 382.458 376.76 382.458 376.76C382.458 376.76 393.683 374.812 397.853 369.835L334.289 369.953Z" fill="#CCBFBA"/>
<path d="M365.065 373.729C391.448 373.729 412.836 368.392 412.836 361.808C412.836 355.225 391.448 349.888 365.065 349.888C338.682 349.888 317.294 355.225 317.294 361.808C317.294 368.392 338.682 373.729 365.065 373.729Z" fill="white"/>
<path d="M365.372 371.425C386.12 371.425 402.94 367.986 402.94 363.743C402.94 359.501 386.12 356.062 365.372 356.062C344.624 356.062 327.804 359.501 327.804 363.743C327.804 367.986 344.624 371.425 365.372 371.425Z" fill="#E5E5E5"/>
<path opacity="0.61" d="M417.975 387.823L411.94 338.843H456.597L449.354 387.823C449.356 387.823 432.46 394.664 417.975 387.823Z" fill="#A4DDEE"/>
<path d="M455.667 345.143L414.065 356.082L415.296 366.078L455.667 347.158" fill="#A4DDEE"/>
<path d="M415.998 371.772L454.531 352.825L454.119 355.61L415.998 371.772Z" fill="#A4DDEE"/>
</g>
</g>
<defs>
<linearGradient id="paint0_linear_1_11231" x1="303.635" y1="-233.897" x2="274.668" y2="787.852" gradientUnits="userSpaceOnUse">
<stop offset="0.1126" stop-color="#F9EBC3"/>
<stop offset="1" stop-color="#CD755C"/>
</linearGradient>
<linearGradient id="paint1_linear_1_11231" x1="196.997" y1="150.918" x2="213.081" y2="150.918" gradientUnits="userSpaceOnUse">
<stop offset="0.6129" stop-color="#F8BBA8"/>
<stop offset="0.9088" stop-color="#EF8981"/>
</linearGradient>
<linearGradient id="paint2_linear_1_11231" x1="364.764" y1="139.338" x2="315.953" y2="146.104" gradientUnits="userSpaceOnUse">
<stop offset="0.6129" stop-color="#F8BBA8"/>
<stop offset="0.9088" stop-color="#EF8981"/>
</linearGradient>
<linearGradient id="paint3_linear_1_11231" x1="282.128" y1="253.075" x2="275.617" y2="210.016" gradientUnits="userSpaceOnUse">
<stop offset="0.6129" stop-color="#F8BBA8"/>
<stop offset="0.9071" stop-color="#EF8981"/>
</linearGradient>
<linearGradient id="paint4_linear_1_11231" x1="278.98" y1="261.389" x2="266.898" y2="101.908" gradientUnits="userSpaceOnUse">
<stop offset="0.6129" stop-color="#F8BBA8"/>
<stop offset="0.9071" stop-color="#EF8981"/>
</linearGradient>
<linearGradient id="paint5_linear_1_11231" x1="409.478" y1="279.36" x2="409.475" y2="279.381" gradientUnits="userSpaceOnUse">
<stop offset="0.6129" stop-color="#F8BBA8"/>
<stop offset="0.9071" stop-color="#EF8981"/>
</linearGradient>
<linearGradient id="paint6_linear_1_11231" x1="137.604" y1="345.655" x2="209.321" y2="345.655" gradientUnits="userSpaceOnUse">
<stop offset="0.6129" stop-color="#F8BBA8"/>
<stop offset="0.9071" stop-color="#EF8981"/>
</linearGradient>
<linearGradient id="paint7_linear_1_11231" x1="248.119" y1="342.103" x2="319.836" y2="342.103" gradientUnits="userSpaceOnUse">
<stop offset="0.6129" stop-color="#F8BBA8"/>
<stop offset="0.9071" stop-color="#EF8981"/>
</linearGradient>
<clipPath id="clip0_1_11231">
<rect width="500" height="500" rx="250" fill="white"/>
</clipPath>
<clipPath id="clip1_1_11231">
<rect width="644.628" height="644.628" fill="white" transform="translate(-34.0909 -12.3965)"/>
</clipPath>
</defs>
</svg>
