<svg width="500" height="500" viewBox="0 0 500 500" fill="none" xmlns="http://www.w3.org/2000/svg">
<g clip-path="url(#clip0_1_11527)">
<rect width="500" height="500" rx="250" fill="white"/>
<path d="M142.59 332.806L142.354 333.042C139.164 326.073 137.156 318.158 136.329 309.417C137.156 318.04 139.401 325.837 142.59 332.806Z" fill="#DFDFDF"/>
<path d="M218.427 230.863C233.954 230.863 246.541 218.276 246.541 202.749C246.541 187.222 233.954 174.635 218.427 174.635C202.9 174.635 190.313 187.222 190.313 202.749C190.313 218.276 202.9 230.863 218.427 230.863Z" fill="#DFDFDF"/>
<path d="M303.361 131.876H204.37C161.372 131.876 135.738 157.51 135.738 200.508V299.498C135.738 312.374 137.983 323.596 142.353 333.047C152.512 355.491 174.248 368.13 204.37 368.13H303.361C346.359 368.13 371.992 342.497 371.992 299.498V272.447V200.508C371.992 157.51 346.359 131.876 303.361 131.876ZM352.738 255.909C343.524 247.995 328.64 247.995 319.426 255.909L270.285 298.081C261.071 305.995 246.187 305.995 236.973 298.081L232.957 294.773C224.57 287.449 211.221 286.741 201.771 293.12L157.592 322.769C154.993 316.154 153.457 308.476 153.457 299.498V200.508C153.457 167.196 171.058 149.595 204.37 149.595H303.361C336.672 149.595 354.273 167.196 354.273 200.508V257.209L352.738 255.909Z" fill="#DFDFDF"/>
<g clip-path="url(#clip1_1_11527)">
<path d="M839.068 339.879L1276.52 667.148H-782.813L-345.363 339.879H839.068Z" fill="#A2BD30"/>
<path d="M774.502 361.465L1113.9 645.567H-625.66L-286.253 361.465H774.502ZM1103.54 641.738L772.658 362.905H-284.412L-615.29 641.731L1103.54 641.738Z" fill="white"/>
<path d="M261.316 361.939L272.242 644.302H266.43L257.767 361.939H261.316Z" fill="white"/>
<path d="M357.067 437.755C362.713 463.764 321.143 486.923 263.875 486.922C206.597 486.922 163.421 463.762 167.267 437.755C170.76 414.11 212.563 396.405 260.733 396.405C308.902 396.405 351.937 414.112 357.067 437.755ZM171.42 437.755C167.954 462.568 209.25 484.578 263.795 484.578C318.333 484.581 358.104 462.577 352.917 437.755C348.178 415.101 307.016 398.078 260.796 398.078C214.573 398.076 174.587 415.095 171.42 437.755Z" fill="white"/>
<path d="M527.911 -48.6387H-24.7794V340.753H527.911V-48.6387Z" fill="url(#paint0_linear_1_11527)"/>
<path d="M252.502 236.892L303.858 185.571H300.119L252.502 233.143V236.892Z" fill="#606060"/>
<path d="M252.502 265.142L332.106 185.571H328.361L252.502 261.398V265.142Z" fill="#606060"/>
<path d="M252.502 293.404L360.355 185.571H356.637L252.502 289.666V293.404Z" fill="#606060"/>
<path d="M252.502 321.64L388.603 185.571H384.848L252.502 317.896V321.64Z" fill="#606060"/>
<path d="M261.084 341.333L416.848 185.571H413.109L257.36 341.333H261.084Z" fill="#606060"/>
<path d="M289.334 341.333L445.083 185.571H441.352L285.603 341.333H289.334Z" fill="#606060"/>
<path d="M317.582 341.333L473.345 185.571H469.614L313.838 341.333H317.582Z" fill="#606060"/>
<path d="M345.837 341.333L501.626 185.571H497.839L342.1 341.333H345.837Z" fill="#606060"/>
<path d="M374.061 341.333L529.825 185.571H526.112L370.33 341.333H374.061Z" fill="#606060"/>
<path d="M402.35 341.333L558.111 185.571H554.331L398.58 341.333H402.35Z" fill="#606060"/>
<path d="M430.572 341.333L586.361 185.571H582.579L426.817 341.333H430.572Z" fill="#606060"/>
<path d="M458.817 341.333L614.604 185.571H610.867L455.091 341.333H458.817Z" fill="#606060"/>
<path d="M487.077 341.333L642.841 185.571H639.097L483.333 341.333H487.077Z" fill="#606060"/>
<path d="M639.945 341.333L484.168 185.571H480.424L636.206 341.333H639.945Z" fill="#606060"/>
<path d="M613.517 341.333L457.754 185.571H453.997L609.791 341.333H613.517Z" fill="#606060"/>
<path d="M587.115 341.333L431.339 185.571H427.582L583.346 341.333H587.115Z" fill="#606060"/>
<path d="M560.688 341.333L404.911 185.571H401.18L556.944 341.333H560.688Z" fill="#606060"/>
<path d="M534.273 341.333L378.509 185.571H374.753L530.504 341.333H534.273Z" fill="#606060"/>
<path d="M507.833 341.333L352.082 185.571H348.338L504.114 341.333H507.833Z" fill="#606060"/>
<path d="M481.424 341.333L325.66 185.571H321.898L477.687 341.333H481.424Z" fill="#606060"/>
<path d="M454.984 341.333L299.245 185.571H295.496L451.258 341.333H454.984Z" fill="#606060"/>
<path d="M428.594 341.333L272.818 185.571H269.061L424.843 341.333H428.594Z" fill="#606060"/>
<path d="M398.428 341.333H402.165L250.555 189.729C251.454 191.28 252.057 193.133 252.327 195.245L398.428 341.333Z" fill="#606060"/>
<path d="M375.74 341.333L252.502 218.11V221.873L372.014 341.333H375.74Z" fill="#606060"/>
<path d="M349.336 341.333L252.502 244.537V248.281L345.581 341.333H349.336Z" fill="#606060"/>
<path d="M322.909 341.333L252.502 270.965V274.722L319.179 341.333H322.909Z" fill="#606060"/>
<path d="M296.494 341.333L252.502 297.367V301.111L292.726 341.333H296.494Z" fill="#606060"/>
<path d="M674.053 182.989H256.586V194.103H674.053V182.989Z" fill="url(#paint1_linear_1_11527)"/>
<path d="M-134.982 341.333L20.7922 185.571H17.0174L-138.734 341.333H-134.982Z" fill="#606060"/>
<path d="M-106.721 341.333L49.0298 185.571H45.291L-110.496 341.333H-106.721Z" fill="#606060"/>
<path d="M-78.484 341.333L77.2923 185.571H73.5481L-82.2534 341.333H-78.484Z" fill="#606060"/>
<path d="M-50.2416 341.333L105.515 185.571H101.796L-53.9659 341.333H-50.2416Z" fill="#606060"/>
<path d="M-21.9664 341.333L133.783 185.571H130.046L-25.7303 341.333H-21.9664Z" fill="#606060"/>
<path d="M6.25641 341.333L162.02 185.571H158.276L2.51227 341.333H6.25641Z" fill="#606060"/>
<path d="M34.5061 341.333L190.282 185.571H186.538L30.762 341.333H34.5061Z" fill="#606060"/>
<path d="M62.736 341.333L218.512 185.571H214.774L59.0117 341.333H62.736Z" fill="#606060"/>
<path d="M91.0111 341.333L244.851 187.498L242.973 185.614L87.2417 341.333H91.0111Z" fill="#606060"/>
<path d="M119.272 341.333L254.104 206.502V202.771L115.491 341.333H119.272Z" fill="#606060"/>
<path d="M147.516 341.333L254.104 234.75V231.006L143.74 341.333H147.516Z" fill="#606060"/>
<path d="M175.752 341.333L254.104 263V259.249L171.982 341.333H175.752Z" fill="#606060"/>
<path d="M204.014 341.333L254.104 291.243V287.506L200.27 341.333H204.014Z" fill="#606060"/>
<path d="M254.104 221.29L218.361 185.571H214.611L254.104 225.039V221.29Z" fill="#606060"/>
<path d="M254.104 247.717L191.959 185.571H188.202L254.104 251.448V247.717Z" fill="#606060"/>
<path d="M254.104 274.137L165.544 185.571H161.799L254.104 277.888V274.137Z" fill="#606060"/>
<path d="M254.104 300.552L139.086 185.571H135.36L254.104 304.29V300.552Z" fill="#606060"/>
<path d="M254.104 326.954L112.682 185.571H108.945L254.104 330.723V326.954Z" fill="#606060"/>
<path d="M242.062 341.333L86.2799 185.571H82.5304L238.281 341.333H242.062Z" fill="#606060"/>
<path d="M215.616 341.333L59.8395 185.571H56.1279L211.877 341.333H215.616Z" fill="#606060"/>
<path d="M189.214 341.333L33.425 185.571H29.688L185.475 341.333H189.214Z" fill="#606060"/>
<path d="M162.761 341.333L7.01037 185.571H3.28607L159.048 341.333H162.761Z" fill="#606060"/>
<path d="M136.359 341.333L-19.4046 185.571H-23.1487L132.646 341.333H136.359Z" fill="#606060"/>
<path d="M109.957 341.333L-45.8318 185.571H-49.5759L106.206 341.333H109.957Z" fill="#606060"/>
<path d="M83.5281 341.333L-72.2338 185.571H-75.9906L79.7857 341.333H83.5281Z" fill="#606060"/>
<path d="M57.1008 341.333L-98.6484 185.571H-102.405L53.3585 341.333H57.1008Z" fill="#606060"/>
<path d="M30.6868 341.333L-125.088 185.571H-128.832L26.9552 341.333H30.6868Z" fill="#606060"/>
<path d="M4.28435 341.333L-151.49 185.571H-155.26L0.514938 341.333H4.28435Z" fill="#606060"/>
<path d="M259.727 182.329H248.633V342.708H259.727V182.329Z" fill="url(#paint2_linear_1_11527)"/>
<path d="M249.709 182.989H-167.698V194.103H249.709V182.989Z" fill="url(#paint3_linear_1_11527)"/>
<path opacity="0.25" d="M343.833 401.205C413.342 401.205 469.69 391.511 469.69 379.552C469.69 367.594 413.342 357.899 343.833 357.899C274.324 357.899 217.975 367.594 217.975 379.552C217.975 391.511 274.324 401.205 343.833 401.205Z" fill="#231F20"/>
<path d="M304.06 339.695L250.716 311.536L250.608 311.478L250.518 311.431C250.518 311.431 246.927 311.05 238.704 317.498C230.48 323.943 223.948 315.93 223.948 315.93L245.195 297.041L254.377 301.034L254.617 301.139L292.232 317.498L326.741 328.281C330.456 346.13 304.06 339.695 304.06 339.695Z" fill="url(#paint4_linear_1_11527)"/>
<path d="M445.715 373.535L417.492 386.614L412.712 378.57L411.72 376.899L391.292 342.516C391.292 342.516 369.573 313.66 369.603 313.591C377.025 296.936 394.677 317.591 394.677 317.591L421.016 370.683L421.585 371.828L421.587 371.825L421.599 371.801L421.624 371.756C421.955 371.2 424.445 367.629 434.068 367.24C444.508 366.817 445.715 373.535 445.715 373.535Z" fill="url(#paint5_linear_1_11527)"/>
<path d="M399.993 322.932C399.993 322.932 383.99 330.954 371.22 333.012C367.604 333.593 364.249 333.695 361.59 333.006L361.469 332.371L354.693 296.952L354.664 296.804L331.37 333.791C331.37 333.791 311.03 330.043 302.833 324.98L319.953 260.281L374.969 266.111L399.993 322.932Z" fill="#F1CAAA"/>
<path d="M356.287 200.676C356.287 200.676 363.319 204.581 362.267 208.767C362.189 209.074 351.52 218.955 337.541 224.191C323.562 229.428 319.022 227.865 319.022 227.865L319.291 201.974C319.291 201.974 336.877 192.876 356.287 200.676Z" fill="#9B1E45"/>
<path d="M369.347 200.835L369.342 200.83L354.39 197.612C333.452 203.536 325.953 238.092 325.953 238.092L320.314 260.463C326.422 270.108 342.014 274.126 342.014 274.126C372.074 282.968 374.805 275.895 374.805 275.895C378.342 270.911 374.966 263.356 374.966 263.356C374.484 254.514 378.021 242.943 378.021 242.943C378.021 242.943 378.034 242.973 378.037 242.961C383.575 218.051 369.347 200.835 369.347 200.835Z" fill="#BD2043"/>
<path d="M371.22 333.011C367.604 333.592 364.25 333.695 361.59 333.006L361.469 332.371C361.325 332.378 361.181 332.389 361.034 332.396L354.665 296.961L354.694 296.952L354.824 296.961L370.944 331.294L371.22 333.011Z" fill="#CEAA86"/>
<path d="M328.219 268.066L311.004 328.425C311.004 328.425 291.182 321.7 289.816 320.415L319.952 260.283L328.219 268.066Z" fill="#CEAA86"/>
<path d="M359.957 186.618C359.957 186.618 351.869 184.801 352.496 174.503C352.658 171.852 353.797 169.334 355.794 167.585C358.013 165.643 361.496 164.375 366.209 167.912L366.413 151.497C366.413 151.497 397.086 131.419 406.783 152.722C406.783 152.722 411.74 164.25 411.092 172.576L410.545 181.371C410.545 181.371 410.451 196.779 397.299 200.286C384.147 203.796 373.775 199.007 373.775 199.007L370.081 197.282C370.081 197.282 368.946 201.856 369.652 202.849C370.359 203.841 374.906 208.583 370.908 217.309C370.908 217.309 365.736 222.524 356.346 207.536C356.346 207.536 353.123 200.23 355.41 197.19C355.41 197.19 360.706 194.314 360.532 192.051L359.957 186.618Z" fill="url(#paint6_linear_1_11527)"/>
<path d="M414.93 150.041C413.838 155.42 409.096 158.866 409.004 158.933C409.003 158.935 409.003 158.935 409.003 158.935C408.995 158.911 408.988 158.884 408.981 158.861C408.524 157.217 408.016 155.754 407.471 154.449C405.668 150.135 403.485 147.562 401.61 146.035C399.257 144.113 397.391 143.845 397.391 143.845C393.898 150.82 380.408 159.429 380.408 159.429L378.508 151.928C379.12 163.976 368.64 174.673 368.476 174.839C369.434 171.466 366.207 167.912 366.207 167.912C364.002 166.369 362.341 165.9 361.516 165.756C361.505 165.754 361.493 165.75 361.484 165.75C361.162 165.696 360.977 165.694 360.94 165.692C360.935 165.692 360.933 165.692 360.933 165.692C359.401 165.712 358.147 166.066 357.119 166.622C357.111 166.625 357.104 166.629 357.099 166.632C355.962 167.248 355.103 168.108 354.455 169.032C354.436 169.058 354.419 169.083 354.399 169.11C352.88 171.32 352.554 173.85 352.514 174.216C352.51 174.245 352.51 174.262 352.51 174.262C352.095 184.987 361.568 186.14 361.568 186.14C361.144 189.316 361.466 191.564 361.529 191.957C361.534 191.997 360.529 192.051 360.529 192.051C351.339 192.666 344.387 184.142 341.57 180.001C341.57 180.001 341.57 180.001 341.57 180C340.675 178.686 340.199 177.811 340.199 177.811C336.935 172.203 335.617 166.921 335.426 162.204C335.426 162.204 335.426 162.204 335.426 162.203C334.921 149.561 342.517 140.968 342.517 140.968C348.107 134.996 354.293 131.246 360.466 128.998C363.73 127.809 366.994 127.04 370.161 126.584C370.163 126.584 370.166 126.582 370.168 126.584C370.567 126.526 370.966 126.474 371.361 126.427C386.592 124.59 399.347 129.781 399.347 129.781C413.508 137.489 416.009 144.714 414.93 150.041Z" fill="#231F20"/>
<path d="M406.227 149.783C406.227 149.783 409.52 153.197 407.088 156.837C404.656 160.478 386.673 156.889 386.673 156.889C386.673 156.889 384.306 150.371 406.227 149.783Z" fill="#231F20"/>
<path d="M412.353 178.805C414.304 178.466 415.035 177.618 415.035 177.618C416.904 173.502 411.242 170.155 411.119 170.081C411.117 170.081 411.117 170.081 411.117 170.081C411.117 170.081 407.38 171.124 407.633 175.646C407.884 180.169 412.353 178.805 412.353 178.805Z" fill="#EE8780"/>
<path d="M397.039 169.61C397.175 167.89 396.426 166.428 395.367 166.344C394.308 166.261 393.339 167.589 393.204 169.309C393.069 171.03 393.818 172.492 394.877 172.575C395.936 172.659 396.904 171.331 397.039 169.61Z" fill="#231F20"/>
<path d="M370.082 197.282C370.082 197.282 367.285 197.053 364.428 191.597C364.428 191.597 366.085 201.496 369.652 202.849L370.082 197.282Z" fill="#EE8780"/>
<path d="M360.471 128.998C338.254 149.373 341.545 179.74 341.576 180C340.681 178.686 340.204 177.811 340.204 177.811C336.94 172.203 335.623 166.921 335.432 162.205C335.432 162.205 335.432 162.205 335.432 162.203C334.926 149.561 342.523 140.968 342.523 140.968C348.111 134.994 354.297 131.246 360.471 128.998Z" fill="#3A3A3A"/>
<path d="M390.677 189.567C391.556 192.064 395.863 192.919 399.761 191.606C401.32 191.081 402.009 190.709 402.848 189.572C402.848 189.572 403.595 188.269 403.635 188.17C403.95 187.369 403.763 187.207 402.812 186.994C400.307 186.436 393.272 184.875 392.076 185.048C390.908 185.216 389.928 185.77 390.21 187.775C390.282 188.278 390.432 188.868 390.677 189.567Z" fill="#231F20"/>
<path d="M390.679 189.548C391.543 192.051 395.818 193.148 400.053 191.504C399.01 188.175 391.971 187.742 390.222 187.756C390.289 188.256 390.437 188.848 390.679 189.548Z" fill="#B62325"/>
<path d="M391.662 231.329L371.523 241.093L368.364 242.625C368.364 242.625 352.384 230.936 350.717 210.083C350.717 210.083 350.895 206.124 352.462 203.444C353.126 202.307 354.039 201.4 355.295 201.124C355.605 201.057 369.205 206.207 380.121 216.387C391.038 226.568 391.662 231.329 391.662 231.329Z" fill="#BD2043"/>
<path d="M389.381 231.602L396.184 240.166L430.298 231.602C430.298 231.602 431.675 223.383 431.045 223.54C430.415 223.697 444.598 219.916 445.526 223.697C446.453 227.477 449.584 234.058 441.59 236.131C433.597 238.204 409.324 251.241 390.91 253.444L376.103 238.04L389.381 231.602Z" fill="url(#paint7_linear_1_11527)"/>
<path d="M319.381 220.521L308.651 222.634L300.599 256.874C300.599 256.874 307.27 261.871 307.42 261.239C307.57 260.607 304.418 274.942 300.634 274.032C296.85 273.121 289.565 272.883 291.393 264.83C293.221 256.777 292.779 229.229 299.275 211.856L319.757 205.771L319.381 220.521Z" fill="url(#paint8_linear_1_11527)"/>
<path d="M254.377 301.034L250.716 311.536L250.608 311.478L250.518 311.431C250.518 311.431 246.927 311.05 238.704 317.498C230.48 323.943 223.948 315.93 223.948 315.93L245.195 297.041L254.377 301.034Z" fill="white"/>
<path d="M245.195 297.04L243.418 295.467L221.945 314.413L223.948 315.929L245.195 297.04Z" fill="black"/>
<path d="M445.715 373.534L417.492 386.613L412.712 378.569C413.351 378.136 413.934 377.748 413.934 377.748L421.585 371.827L421.586 371.824L421.599 371.8L421.624 371.755C421.954 371.2 424.445 367.629 434.067 367.239C444.508 366.817 445.715 373.534 445.715 373.534Z" fill="white"/>
<path d="M417.492 386.613L445.715 373.535L446.594 375.222L418.445 388.575L417.492 386.613Z" fill="black"/>
<path d="M353.759 296.605C353.759 296.605 358.838 300.283 362.166 278.715L356.992 277.455L353.759 296.605Z" stroke="#CEAA86" stroke-width="1.03306" stroke-miterlimit="10"/>
<path d="M371.523 241.093L368.364 242.625C368.364 242.625 352.384 230.936 350.717 210.083C350.717 210.083 350.895 206.124 352.462 203.444C352.462 203.444 359.354 231.627 371.523 241.093Z" fill="#9B1E45"/>
<path opacity="0.25" d="M126.7 464.355C196.21 464.355 252.558 454.66 252.558 442.702C252.558 430.743 196.21 421.049 126.7 421.049C57.1913 421.049 0.843048 430.743 0.843048 442.702C0.843048 454.66 57.1913 464.355 126.7 464.355Z" fill="#231F20"/>
<path opacity="0.25" d="M269.339 451.544C285.284 451.544 298.21 446.01 298.21 439.183C298.21 432.357 285.284 426.823 269.339 426.823C253.394 426.823 240.469 432.357 240.469 439.183C240.469 446.01 253.394 451.544 269.339 451.544Z" fill="#231F20"/>
<path d="M98.8061 401.928L45.3542 373.711L45.264 373.664C45.264 373.664 41.6714 373.283 33.4505 379.73C25.226 386.177 18.6941 378.162 18.6941 378.162L39.9428 359.275L49.3636 363.373L86.9801 379.732C86.9801 379.732 121.473 390.441 121.489 390.515C125.203 408.363 98.8061 401.928 98.8061 401.928Z" fill="url(#paint9_linear_1_11527)"/>
<path d="M123.71 279.408L104.907 281.887L87.2054 315.648C87.2054 315.648 92.4219 322.147 92.7251 321.571C93.0282 320.996 86.4061 334.096 82.9668 332.272C79.5276 330.447 72.5338 328.403 76.3086 321.057C80.0834 313.713 86.5143 286.921 97.1296 271.714L126.756 264.285L123.71 279.408Z" fill="url(#paint10_linear_1_11527)"/>
<path d="M240.461 435.767L212.237 448.845L206.464 439.13L186.037 404.747C186.037 404.747 164.317 375.891 164.348 375.823C171.771 359.168 189.422 379.821 189.422 379.821L215.762 432.913L216.331 434.058C216.331 434.058 218.373 429.892 228.814 429.47C239.254 429.049 240.461 435.767 240.461 435.767Z" fill="url(#paint11_linear_1_11527)"/>
<path d="M194.737 385.164C194.737 385.164 178.734 393.187 165.964 395.244C162.348 395.825 158.994 395.928 156.334 395.238L156.213 394.603L149.438 359.185L149.409 359.037L126.114 396.023C126.114 396.023 105.775 392.276 97.5772 387.212L114.697 322.514L169.714 328.344L194.737 385.164Z" fill="#BD2043"/>
<path d="M151.103 265.074C151.103 265.074 158.135 268.979 157.083 273.165C157.006 273.472 146.336 283.352 132.357 288.589C118.379 293.825 113.839 292.263 113.839 292.263L114.108 266.371C114.106 266.371 131.693 257.273 151.103 265.074Z" fill="white"/>
<path d="M163.73 262.888L163.725 262.882L148.774 259.665C127.835 265.589 120.336 300.145 120.336 300.145L114.697 322.516C120.805 332.161 136.397 336.179 136.397 336.179C166.457 345.021 169.189 337.947 169.189 337.947C172.725 332.964 169.349 325.409 169.349 325.409C168.867 316.567 172.404 304.995 172.404 304.995C172.404 304.995 172.417 305.026 172.42 305.013C177.96 280.104 163.73 262.888 163.73 262.888Z" fill="#145677"/>
<path d="M165.965 395.244C162.349 395.825 158.994 395.928 156.334 395.238L156.214 394.603C156.069 394.611 155.925 394.621 155.779 394.629L149.409 359.194L149.438 359.185L149.568 359.194L165.689 393.526L165.965 395.244Z" fill="#9B1E45"/>
<path d="M122.964 330.298L105.748 390.657C105.748 390.657 85.9265 383.932 84.5606 382.647L114.696 322.516L122.964 330.298Z" fill="#9B1E45"/>
<path d="M145.473 262.505C149.371 274.324 167.657 279.706 166.415 271.752C165.17 263.799 160.766 262.456 160.766 262.456C159.725 260.708 160.899 254.035 160.899 254.035C160.899 254.035 171.327 258.833 184.539 255.289C197.749 251.747 197.823 236.265 197.823 236.265C199.811 236.325 200.701 235.637 200.701 235.637C203.37 231.962 198.469 227.526 198.362 227.429C198.361 227.427 198.361 227.427 198.361 227.427C199.001 219.062 194.005 207.483 194.005 207.483C184.232 186.09 153.438 206.307 153.438 206.307L153.256 222.801C148.514 219.253 145.017 220.533 142.79 222.487C140.786 224.248 139.643 226.779 139.485 229.443C138.869 239.793 146.998 241.606 146.998 241.606C152.029 253.34 145.473 262.505 145.473 262.505Z" fill="url(#paint12_linear_1_11527)"/>
<path d="M127.135 232.781C127.135 232.781 136.431 247.862 148.597 247.03C148.597 247.03 148.591 247.009 148.586 246.969C148.521 246.574 148.196 244.315 148.617 241.125C148.617 241.125 139.097 239.979 139.499 229.201C139.499 229.201 139.501 229.185 139.503 229.154C139.542 228.786 139.867 226.242 141.39 224.021C141.408 223.994 141.426 223.968 141.446 223.943C142.095 223.016 142.956 222.149 144.098 221.529C144.104 221.525 144.111 221.522 144.118 221.518C145.15 220.959 146.41 220.601 147.949 220.58C147.949 220.58 147.951 220.58 147.956 220.58C147.992 220.58 148.18 220.583 148.501 220.636C148.51 220.637 148.523 220.639 148.535 220.641C149.364 220.784 151.034 221.254 153.252 222.801C153.252 222.801 156.498 226.368 155.54 229.759C155.704 229.591 166.22 218.829 165.591 206.724L167.511 214.259C167.511 214.259 181.053 205.59 184.553 198.577C184.553 198.577 186.428 198.844 188.795 200.773C190.681 202.305 192.879 204.887 194.696 209.219C195.244 210.529 195.759 212 196.219 213.651C196.226 213.674 196.233 213.701 196.24 213.725C196.24 213.725 196.24 213.725 196.242 213.723C196.336 213.656 201.096 210.186 202.184 204.78C203.263 199.427 200.739 192.171 186.502 184.445C186.502 184.445 173.003 178.97 157.178 181.269C157.177 181.267 157.173 181.269 157.171 181.269C147.972 182.606 137.989 186.57 129.412 195.76C129.416 195.758 115.042 212.059 127.135 232.781Z" fill="#231F20"/>
<path d="M193.446 220.229C193.546 218.568 192.98 217.182 192.182 217.134C191.384 217.086 190.657 218.394 190.557 220.056C190.457 221.717 191.023 223.102 191.82 223.15C192.618 223.198 193.346 221.89 193.446 220.229Z" fill="#231F20"/>
<path d="M194.878 207.082C194.878 207.082 197.377 211.14 194.207 214.192C191.037 217.243 174.158 209.852 174.158 209.852C174.158 209.852 173.234 202.945 194.878 207.082Z" fill="#231F20"/>
<path d="M177.924 245.298C178.559 248.246 182.789 249.594 186.82 248.414C188.431 247.943 189.158 247.573 190.109 246.339C190.109 246.339 190.984 244.904 191.033 244.794C191.427 243.899 191.257 243.697 190.326 243.372C187.872 242.517 180.981 240.124 179.765 240.224C178.579 240.318 177.543 240.871 177.632 243.201C177.654 243.782 177.747 244.473 177.924 245.298Z" fill="#231F20"/>
<path d="M177.928 245.276C178.548 248.226 182.722 249.854 187.121 248.324C186.401 244.407 179.396 243.309 177.644 243.178C177.664 243.759 177.754 244.45 177.928 245.276Z" fill="#B62325"/>
<path d="M197.823 236.265C199.812 236.324 200.701 235.637 200.701 235.637C203.37 231.961 198.469 227.526 198.363 227.429C198.361 227.427 198.361 227.427 198.361 227.427C198.361 227.427 194.472 227.701 193.81 232.205C193.148 236.709 197.823 236.265 197.823 236.265Z" fill="#EE8780"/>
<path opacity="0.46" d="M196.898 229.214C198.741 229.087 199.916 224.376 199.523 218.693C199.131 213.009 197.319 208.505 195.477 208.632C193.635 208.759 192.46 213.47 192.852 219.153C193.245 224.837 195.056 229.341 196.898 229.214Z" fill="#62C7D1"/>
<path d="M196.898 229.214C198.741 229.087 199.916 224.376 199.523 218.693C199.131 213.009 197.319 208.505 195.477 208.632C193.635 208.759 192.46 213.47 192.852 219.153C193.245 224.837 195.056 229.341 196.898 229.214Z" stroke="#9C7A2C" stroke-width="1.03306" stroke-miterlimit="10"/>
<path d="M192.821 218.299L154.463 224.668" stroke="#9C7A2C" stroke-width="1.03306" stroke-miterlimit="10"/>
<path d="M160.899 254.035C160.899 254.035 155.816 251.855 153.602 249.623C153.602 249.623 156.41 257.719 160.385 260.969C160.385 260.969 160.262 256.395 160.899 254.035Z" fill="#EE8780"/>
<path d="M152.453 339.937C152.453 339.937 154.2 358.304 149.458 359.136L148.269 339.183L152.453 339.937Z" stroke="#9B1E45" stroke-width="1.03306" stroke-miterlimit="10"/>
<path d="M157.18 181.267C188.44 179.054 202.182 204.785 202.182 204.785C202.184 204.783 202.184 204.78 202.186 204.778C203.265 199.424 200.741 192.169 186.504 184.442C186.504 184.441 173.005 178.966 157.18 181.267Z" fill="#3A3A3A"/>
<path d="M155.26 390.533C158.597 390.757 162.659 390.189 166.859 389.218C167.018 389.182 167.175 389.144 167.334 389.108C170.777 388.288 174.297 387.211 177.572 386.087C185.827 383.254 192.534 380.129 192.534 380.129" stroke="white" stroke-width="2.06612" stroke-miterlimit="10"/>
<path d="M129.734 390.359C129.734 390.359 95.6557 384.394 86.9783 378.227" stroke="white" stroke-width="2.06612" stroke-miterlimit="10"/>
<path d="M37.2453 365.286C37.2453 365.286 33.4686 362.875 35.6375 357.168" stroke="#EE8780" stroke-width="2.06612" stroke-miterlimit="10"/>
<path d="M42.0668 365.365C42.0668 365.365 38.6907 362.357 40.3796 357.752" stroke="#EE8780" stroke-width="2.06612" stroke-miterlimit="10"/>
<path d="M143.839 275.563C143.839 275.563 144.202 267.528 148.417 266.604C148.725 266.536 162.325 271.685 173.243 281.868C184.16 292.048 184.784 296.81 184.784 296.81L161.486 308.107C161.486 308.106 145.504 296.417 143.839 275.563Z" fill="white"/>
<path d="M183.765 296.903L190.568 305.466L224.682 296.903C224.682 296.903 226.059 288.684 225.429 288.841C224.799 288.998 238.982 285.217 239.909 288.998C240.837 292.778 243.967 299.358 235.974 301.432C227.98 303.505 203.707 316.542 185.293 318.745L170.486 303.341L183.765 296.903Z" fill="url(#paint13_linear_1_11527)"/>
<path d="M49.3616 363.371L45.3522 373.711L45.262 373.664C45.262 373.664 41.6694 373.283 33.4485 379.73C25.224 386.177 18.692 378.162 18.692 378.162L39.9408 359.275L49.3616 363.371Z" fill="black"/>
<path d="M18.692 378.162L16.8822 376.982L38.7606 358.409L39.9407 359.273L18.692 378.162Z" fill="#515151"/>
<path d="M240.461 435.768L212.237 448.846L206.464 439.131C209.171 437.323 212.767 434.918 215.763 432.915L216.331 434.061C216.331 434.061 218.374 429.894 228.814 429.472C239.254 429.05 240.461 435.768 240.461 435.768Z" fill="black"/>
<path d="M212.237 448.846L213.467 450.641L241.011 437.263L240.461 435.768L212.237 448.846Z" fill="#515151"/>
<path d="M282.206 446.101C298.857 446.101 312.356 432.602 312.356 415.951C312.356 399.299 298.857 385.801 282.206 385.801C265.555 385.801 252.056 399.299 252.056 415.951C252.056 432.602 265.555 446.101 282.206 446.101Z" fill="#CBC8BD"/>
<path d="M305.918 434.584C308.155 431.739 309.914 428.442 311.037 424.774C315.909 408.851 306.952 391.993 291.029 387.121C284.238 385.042 277.278 385.483 271.149 387.904C268.911 390.75 267.152 394.046 266.029 397.715C261.158 413.637 270.115 430.495 286.037 435.367C292.828 437.446 299.788 437.006 305.918 434.584Z" fill="#E3E5D7"/>
<path d="M292.211 399.571C292.211 399.571 284.618 399.481 280.603 401.011L278.74 413.972C278.74 413.972 288.252 419.38 290.885 419.792C290.885 419.792 298.815 411.051 299.192 410.248C299.192 410.246 295.771 402.105 292.211 399.571Z" fill="#2E2E2E"/>
<path d="M287.711 386.37C287.711 386.37 293.998 389.871 295.19 391.549C295.19 391.549 301.511 393.22 303.332 394.566C303.334 394.566 296.97 387.889 287.711 386.37Z" fill="#2E2E2E"/>
<path d="M274.496 387.056C274.496 387.056 271.937 392.841 271.627 394.717C271.627 394.717 262.583 400.226 261.275 401.928C261.275 401.928 258.696 400.482 257.852 398.515C257.852 398.515 263.269 389.4 274.496 387.056Z" fill="#2E2E2E"/>
<path d="M268.442 420.149L259.16 414.418C259.16 414.418 254.927 418.377 255.109 422.505C255.291 426.634 261.11 433.801 261.11 433.801C261.11 433.801 266.441 433.987 269.292 431.969C269.292 431.969 267.891 421.95 268.442 420.149Z" fill="#2E2E2E"/>
<path d="M292.011 431.565C292.011 431.565 283.559 436.861 280.955 437.641C280.955 437.641 282.904 444.149 283.552 444.609C284.2 445.07 292.749 443.745 295.887 442.078C299.025 440.411 300.826 434.525 300.826 434.525L292.011 431.565Z" fill="#2E2E2E"/>
<path d="M310.131 405.842C310.131 405.842 309.014 412.069 308.175 413.52C308.175 413.52 309.315 422.672 308.711 425.506C308.711 425.506 310.467 425.78 311.037 424.774C311.607 423.767 312.854 411.537 310.131 405.842Z" fill="#2E2E2E"/>
<path d="M278.661 413.871L268.363 420.047L268.492 420.262L278.79 414.086L278.661 413.871Z" fill="#2E2E2E"/>
<path d="M291.012 419.815L290.762 419.839L291.888 431.614L292.138 431.59L291.012 419.815Z" fill="#2E2E2E"/>
<path d="M269.198 432.053L269.384 431.885C273.233 436.156 280.899 437.504 280.975 437.516L280.934 437.763C280.858 437.751 273.104 436.389 269.198 432.053Z" fill="#2E2E2E"/>
<path d="M260.986 433.819L261.235 433.785C261.24 433.821 261.736 437.334 263.449 439.267L263.261 439.433C261.498 437.444 261.008 433.966 260.986 433.819Z" fill="#2E2E2E"/>
<path d="M259.036 414.414C259.175 408.857 261.134 401.962 261.154 401.892L261.396 401.96C261.376 402.029 259.424 408.893 259.287 414.42L259.036 414.414Z" fill="#2E2E2E"/>
<path d="M252.673 420.271L252.9 420.165C253.586 421.639 255.147 422.384 255.161 422.392L255.055 422.619C254.988 422.588 253.398 421.827 252.673 420.271Z" fill="#2E2E2E"/>
<path d="M271.567 394.827L271.686 394.605C271.748 394.64 277.938 397.992 280.696 400.925L280.513 401.096C277.783 398.194 271.628 394.86 271.567 394.827Z" fill="#2E2E2E"/>
<path d="M292.096 399.521C292.949 397.58 295.051 391.569 295.073 391.51L295.309 391.593C295.288 391.654 293.184 397.674 292.325 399.624L292.096 399.521Z" fill="#2E2E2E"/>
<path d="M299.182 410.371L299.203 410.12C301.627 410.337 307.96 413.28 308.227 413.406L308.121 413.633C308.056 413.604 301.56 410.586 299.182 410.371Z" fill="#2E2E2E"/>
<path d="M300.772 434.413C304.115 432.735 308.56 425.516 308.605 425.443L308.819 425.575C308.635 425.875 304.294 432.928 300.885 434.639L300.772 434.413Z" fill="#2E2E2E"/>
<g opacity="0.56">
<path d="M300.841 416.47C305.333 414.13 306.558 407.595 303.577 401.873C300.596 396.151 294.539 393.409 290.047 395.749C285.556 398.089 284.331 404.624 287.311 410.346C290.292 416.068 296.35 418.81 300.841 416.47Z" fill="white"/>
</g>
</g>
</g>
<defs>
<linearGradient id="paint0_linear_1_11527" x1="248.184" y1="-76.1752" x2="256.129" y2="445.952" gradientUnits="userSpaceOnUse">
<stop stop-color="#F6DB98"/>
<stop offset="1" stop-color="white"/>
</linearGradient>
<linearGradient id="paint1_linear_1_11527" x1="465.32" y1="194.101" x2="465.32" y2="182.989" gradientUnits="userSpaceOnUse">
<stop stop-color="#414141"/>
<stop offset="0.2143" stop-color="#696969"/>
<stop offset="0.4381" stop-color="#8C8C8C"/>
<stop offset="0.65" stop-color="#A5A5A5"/>
<stop offset="0.843" stop-color="#B4B4B4"/>
<stop offset="1" stop-color="#B9B9B9"/>
</linearGradient>
<linearGradient id="paint2_linear_1_11527" x1="248.633" y1="262.52" x2="259.727" y2="262.52" gradientUnits="userSpaceOnUse">
<stop stop-color="#414141"/>
<stop offset="0.2143" stop-color="#696969"/>
<stop offset="0.4381" stop-color="#8C8C8C"/>
<stop offset="0.65" stop-color="#A5A5A5"/>
<stop offset="0.843" stop-color="#B4B4B4"/>
<stop offset="1" stop-color="#B9B9B9"/>
</linearGradient>
<linearGradient id="paint3_linear_1_11527" x1="41.0048" y1="194.101" x2="41.0048" y2="182.989" gradientUnits="userSpaceOnUse">
<stop stop-color="#414141"/>
<stop offset="0.2143" stop-color="#696969"/>
<stop offset="0.4381" stop-color="#8C8C8C"/>
<stop offset="0.65" stop-color="#A5A5A5"/>
<stop offset="0.843" stop-color="#B4B4B4"/>
<stop offset="1" stop-color="#B9B9B9"/>
</linearGradient>
<linearGradient id="paint4_linear_1_11527" x1="223.948" y1="318.933" x2="327.1" y2="318.933" gradientUnits="userSpaceOnUse">
<stop offset="0.6129" stop-color="#F8BBA7"/>
<stop offset="0.9088" stop-color="#EE8780"/>
</linearGradient>
<linearGradient id="paint5_linear_1_11527" x1="457.667" y1="411.451" x2="375.688" y2="311.147" gradientUnits="userSpaceOnUse">
<stop offset="0.6129" stop-color="#F8BBA7"/>
<stop offset="0.9088" stop-color="#EE8780"/>
</linearGradient>
<linearGradient id="paint6_linear_1_11527" x1="395.252" y1="210.048" x2="368.181" y2="150.854" gradientUnits="userSpaceOnUse">
<stop offset="0.6129" stop-color="#F8BBA7"/>
<stop offset="0.9088" stop-color="#EE8780"/>
</linearGradient>
<linearGradient id="paint7_linear_1_11527" x1="376.103" y1="237.728" x2="446.91" y2="237.728" gradientUnits="userSpaceOnUse">
<stop offset="0.6129" stop-color="#F8BBA7"/>
<stop offset="0.9088" stop-color="#EE8780"/>
</linearGradient>
<linearGradient id="paint8_linear_1_11527" x1="320.055" y1="205.885" x2="287.554" y2="268.79" gradientUnits="userSpaceOnUse">
<stop offset="0.6129" stop-color="#F8BBA7"/>
<stop offset="0.9088" stop-color="#EE8780"/>
</linearGradient>
<linearGradient id="paint9_linear_1_11527" x1="18.6927" y1="381.166" x2="121.845" y2="381.166" gradientUnits="userSpaceOnUse">
<stop offset="0.6129" stop-color="#F8BBA7"/>
<stop offset="0.9088" stop-color="#EE8780"/>
</linearGradient>
<linearGradient id="paint10_linear_1_11527" x1="125.643" y1="263.305" x2="71.5427" y2="323.947" gradientUnits="userSpaceOnUse">
<stop offset="0.6129" stop-color="#F8BBA7"/>
<stop offset="0.9088" stop-color="#EE8780"/>
</linearGradient>
<linearGradient id="paint11_linear_1_11527" x1="252.413" y1="473.683" x2="170.434" y2="373.379" gradientUnits="userSpaceOnUse">
<stop offset="0.6129" stop-color="#F8BBA7"/>
<stop offset="0.9088" stop-color="#EE8780"/>
</linearGradient>
<linearGradient id="paint12_linear_1_11527" x1="185.624" y1="269.594" x2="156.111" y2="205.289" gradientUnits="userSpaceOnUse">
<stop offset="0.6129" stop-color="#F8BBA7"/>
<stop offset="0.9088" stop-color="#EE8780"/>
</linearGradient>
<linearGradient id="paint13_linear_1_11527" x1="170.487" y1="303.029" x2="241.295" y2="303.029" gradientUnits="userSpaceOnUse">
<stop offset="0.6129" stop-color="#F8BBA7"/>
<stop offset="0.9088" stop-color="#EE8780"/>
</linearGradient>
<clipPath id="clip0_1_11527">
<rect width="500" height="500" rx="250" fill="white"/>
</clipPath>
<clipPath id="clip1_1_11527">
<rect width="541.322" height="541.322" fill="white" transform="translate(-17.562 -39.2559)"/>
</clipPath>
</defs>
</svg>
