<svg width="500" height="500" viewBox="0 0 500 500" fill="none" xmlns="http://www.w3.org/2000/svg">
<g clip-path="url(#clip0_1_11756)">
<rect width="500" height="500" rx="250" fill="white"/>
<path d="M142.59 332.806L142.354 333.042C139.164 326.073 137.156 318.158 136.329 309.417C137.156 318.04 139.401 325.837 142.59 332.806Z" fill="#DFDFDF"/>
<path d="M218.427 230.863C233.954 230.863 246.541 218.276 246.541 202.749C246.541 187.222 233.954 174.635 218.427 174.635C202.9 174.635 190.313 187.222 190.313 202.749C190.313 218.276 202.9 230.863 218.427 230.863Z" fill="#DFDFDF"/>
<path d="M303.361 131.876H204.37C161.372 131.876 135.738 157.51 135.738 200.508V299.498C135.738 312.374 137.983 323.596 142.353 333.047C152.512 355.491 174.248 368.13 204.37 368.13H303.361C346.359 368.13 371.992 342.497 371.992 299.498V272.447V200.508C371.992 157.51 346.359 131.876 303.361 131.876ZM352.738 255.909C343.524 247.995 328.64 247.995 319.426 255.909L270.285 298.081C261.071 305.995 246.187 305.995 236.973 298.081L232.957 294.773C224.57 287.449 211.221 286.741 201.771 293.12L157.592 322.769C154.993 316.154 153.457 308.476 153.457 299.498V200.508C153.457 167.196 171.058 149.595 204.37 149.595H303.361C336.672 149.595 354.273 167.196 354.273 200.508V257.209L352.738 255.909Z" fill="#DFDFDF"/>
<g clip-path="url(#clip1_1_11756)">
<path d="M538.223 -227.272H-189.05V500H538.223V-227.272Z" fill="url(#paint0_linear_1_11756)"/>
<path d="M538.085 316.144H-188.914V352.987H538.085V316.144Z" fill="#C6B69D"/>
<path d="M537.949 321.467H-189.05V355.668H537.949V321.467Z" fill="#FAEDCC"/>
<path d="M538.223 356.129H-189.05V500H538.223V356.129Z" fill="#BF7051"/>
<path d="M538.223 374.188H-189.05V399.088H538.223V374.188Z" fill="#AB614A"/>
<path d="M539.714 419.653H-187.559V444.553H539.714V419.653Z" fill="#AB614A"/>
<path d="M536.158 465.875H-191.115V490.774H536.158V465.875Z" fill="#AB614A"/>
<path d="M483.224 413.564C483.224 431.945 346.802 447.969 178.805 448.972C8.54796 449.988 -134.41 433.94 -125.159 411.392C-118.182 394.386 11.0328 378.109 179.033 378.109C347.033 378.109 483.224 395.183 483.224 413.564Z" fill="#8E6350"/>
<path d="M178.805 444.759C346.805 444.759 482.996 429.858 482.996 411.477C482.996 393.095 346.805 378.194 178.805 378.194C10.8046 378.194 -125.387 393.095 -125.387 411.477C-125.387 429.858 10.8046 444.759 178.805 444.759Z" fill="#C49075"/>
<path d="M160.994 236.983H78.6474C48.4874 236.983 24.0364 212.535 24.0364 182.372V26.8912C24.0364 -3.2688 48.4849 -27.7197 78.6474 -27.7197H160.994C191.154 -27.7197 215.605 -3.27122 215.605 26.8912V182.372C215.602 212.532 191.154 236.983 160.994 236.983Z" fill="#69705A"/>
<path d="M229.869 236.983H92.9141C62.7541 236.983 38.3032 212.535 38.3032 182.372V26.8912C38.3032 -3.2688 62.7516 -27.7197 92.9141 -27.7197H175.261C205.421 -27.7197 229.872 -3.27122 229.872 26.8912V236.983H229.869Z" fill="#87936C"/>
<path d="M217.77 265.802H50.405C35.302 265.802 23.0571 253.557 23.0571 238.454V223.717C23.0571 208.614 35.302 196.369 50.405 196.369H217.772C232.875 196.369 245.12 208.614 245.12 223.717V238.454C245.118 253.557 232.875 265.802 217.77 265.802Z" fill="#69705A"/>
<path d="M215.988 374.049H50.405C35.302 374.049 23.0571 361.804 23.0571 346.701V238.983C23.0571 223.88 35.302 211.635 50.405 211.635H215.988C231.091 211.635 243.336 223.88 243.336 238.983V346.701C243.336 361.807 231.091 374.049 215.988 374.049Z" fill="#69705A"/>
<path d="M328.853 230.234H257.217C242.114 230.234 229.869 217.989 229.869 202.886V159.79H301.506C316.609 159.79 328.853 172.035 328.853 187.138V230.234Z" fill="#96A57A"/>
<path d="M306.844 226.652H229.869V166.09H279.496C294.599 166.09 306.844 178.335 306.844 193.438V226.652Z" fill="#69705A"/>
<path d="M279.724 265.802H128.441C113.338 265.802 101.094 253.557 101.094 238.454V223.717C101.094 208.614 113.338 196.369 128.441 196.369H279.724C294.827 196.369 307.072 208.614 307.072 223.717V238.454C307.072 253.557 294.827 265.802 279.724 265.802Z" fill="#747C5C"/>
<path d="M328.764 374.305H100.376C99.9153 374.305 99.542 373.931 99.542 373.471V227.556C99.542 227.095 99.9153 226.722 100.376 226.722H329.598V373.468C329.595 373.931 329.222 374.305 328.764 374.305Z" fill="#96A57A"/>
<path d="M137.704 229.597H50.405C35.302 229.597 23.0571 217.352 23.0571 202.249V160.164H110.359C125.462 160.164 137.707 172.409 137.707 187.512V229.597H137.704Z" fill="#96A57A"/>
<path d="M98.8002 233.866H23.0571V165.5H71.4523C86.5553 165.5 98.8002 177.745 98.8002 192.848V233.866Z" fill="#69705A"/>
<path d="M72.9408 374.051H57.2729V389.719H72.9408V374.051Z" fill="#96834D"/>
<path d="M76.5699 374.051H63.2584V389.719H76.5699V374.051Z" fill="#C6B375"/>
<path d="M144.626 374.051H128.958V389.719H144.626V374.051Z" fill="#96834D"/>
<path d="M148.255 374.051H134.943V389.719H148.255V374.051Z" fill="#C6B375"/>
<path d="M265.957 374.051H250.289V389.719H265.957V374.051Z" fill="#96834D"/>
<path d="M269.588 374.051H256.276V389.719H269.588V374.051Z" fill="#C6B375"/>
<path d="M314.681 374.051H299.014V389.719H314.681V374.051Z" fill="#96834D"/>
<path d="M318.313 374.051H305.001V389.719H318.313V374.051Z" fill="#C6B375"/>
<path d="M50.148 -262.665H-192.62V142.438H50.148V-262.665Z" fill="#9B8870"/>
<path d="M50.148 -257.239H-192.62V147.864H50.148V-257.239Z" fill="#C6B69D"/>
<path d="M28.9045 -41.2764H-68.3779V126.973H28.9045V-41.2764Z" fill="#AEDFE6"/>
<path d="M-68.3779 119.899H21.45V-41.2764H28.9045V126.976H-68.3779V119.899Z" fill="#9B8870"/>
<path d="M89.2317 -227.272L539.714 22.2063L-188.892 478.328L-189.05 -227.272H89.2317Z" fill="url(#paint1_linear_1_11756)"/>
<path d="M131.319 351.707C131.319 351.707 127.149 394.715 128.635 398.405C128.635 398.405 129.421 405.013 121.566 400.829C121.566 400.829 119.232 399.845 119.232 394.679L117.072 349.913L118.807 344.492L128.786 346.953L131.319 351.707Z" fill="url(#paint2_linear_1_11756)"/>
<path d="M165.35 341.057C165.62 341.249 162.339 393.855 163.666 397.889C163.666 397.889 163.452 405.358 155.598 400.655C155.598 400.655 153.263 399.55 153.263 393.739L151.103 343.404L152.839 337.31L162.817 340.076L165.35 341.057Z" fill="url(#paint3_linear_1_11756)"/>
<path d="M177.469 350.434C177.469 350.434 175.986 350.858 173.59 351.469C168.073 352.882 157.717 355.297 149.494 355.849C146.723 356.039 144.192 356.012 142.172 355.668L141.634 321.466L141.6 319.229L140.691 355.668C140.691 355.668 114.422 358.029 106.875 353.983L107.748 282.102L171.811 283.144L172.117 286.783L177.469 350.434Z" fill="#BD2143"/>
<path d="M173.583 281.064C173.993 287.871 169.236 289.032 168.929 289.102C168.924 289.102 168.916 289.105 168.912 289.105C166.347 289.558 163.876 289.963 161.503 290.319C161.464 290.327 161.426 290.331 161.389 290.336C157.207 290.964 153.321 291.451 149.726 291.82C149.011 291.895 148.308 291.963 147.617 292.026C147.564 292.033 147.51 292.038 147.457 292.043C147.409 292.045 147.372 292.05 147.348 292.053C147.336 292.053 147.326 292.055 147.314 292.055C124.007 294.191 113.709 291.316 113.709 291.316C106.066 290.913 106.914 284.079 106.914 284.079L106.492 252.981L106.49 252.722H104.187C104.313 248.152 104.366 240.528 104.366 240.528C102.456 215.17 124.303 198.067 124.303 198.067C126.655 192.867 144.196 195.304 144.196 195.304C157.91 207.434 162.967 207.495 169.549 232.62C171.763 241.071 172.943 249.316 173.535 256.537L173.537 256.542C174.706 270.794 173.583 281.064 173.583 281.064Z" fill="#155677"/>
<path d="M125.067 170.024C116.226 169.457 107.333 162.49 108.89 147.864C110.446 133.239 130.429 139.372 130.429 139.372C131.561 157.719 128.429 162.087 128.429 162.087L128.943 118.994C152.722 119.525 160.563 115.021 160.563 115.021C164.524 116.88 168.912 120.206 168.912 120.206C168.912 120.206 178.538 127.653 179.67 142.543C180.027 147.229 180.16 151.231 180.172 154.514C180.179 156.301 180.153 157.874 180.107 159.229C179.971 163.302 179.67 165.411 179.67 165.411C179.67 165.411 178.255 183.934 154.851 185.265L144.938 185.421L144.196 195.353C144.196 195.353 149.37 199.905 148.07 202.32C146.771 204.734 129.316 210.119 129.687 198.048L129.501 195.631C129.501 195.631 134.352 190.434 125.067 170.024Z" fill="url(#paint4_linear_1_11756)"/>
<path d="M155.433 146.278C156.329 146.278 157.055 145.139 157.055 143.733C157.055 142.327 156.329 141.188 155.433 141.188C154.537 141.188 153.811 142.327 153.811 143.733C153.811 145.139 154.537 146.278 155.433 146.278Z" fill="black"/>
<path d="M175.331 146.278C176.227 146.278 176.953 145.139 176.953 143.733C176.953 142.327 176.227 141.188 175.331 141.188C174.435 141.188 173.709 142.327 173.709 143.733C173.709 145.139 174.435 146.278 175.331 146.278Z" fill="black"/>
<path d="M141.736 165.267C141.736 165.267 149.212 171.873 167.838 169.514" stroke="#F58F87" stroke-width="1.03306" stroke-miterlimit="10" stroke-linecap="round"/>
<path d="M152.65 171.851C152.65 171.851 154.725 172.607 159.891 172.338" stroke="#F58F87" stroke-width="1.03306" stroke-miterlimit="10" stroke-linecap="round"/>
<path d="M114.958 300.795C114.958 300.795 110.39 318.417 114.958 329.558C114.958 329.558 115.324 330.431 116.509 330.543C117.695 330.652 115.862 322.458 116.509 319.946C116.509 319.946 118.449 330.543 119.85 332.4C119.85 332.4 120.909 333.745 122.594 333.447C124.167 333.168 125.202 331.619 124.965 330.017C124.553 327.255 123.85 321.854 124.16 318.853C124.16 318.853 126.099 330.213 126.747 330.213C126.747 330.213 128.039 331.086 128.686 329.777C129.333 328.468 127.607 317.432 126.747 313.173C126.747 313.173 128.516 314.691 129.809 315.711C129.809 315.711 133.651 317.631 133.149 314.572L129.586 310.404L125.741 305.961L125.377 300.991C125.377 300.994 118.832 299.124 114.958 300.795Z" fill="url(#paint5_linear_1_11756)"/>
<path d="M114.958 300.795C114.958 300.795 110.645 265.083 110.846 253.398C110.846 253.398 118.109 252.904 122.805 252.368C122.805 252.368 123.358 296.788 125.377 300.994" fill="url(#paint6_linear_1_11756)"/>
<path d="M144.325 194.882C144.325 194.882 139.838 195.054 136.124 184.938L144.938 185.417L144.325 194.882Z" fill="#F58F87"/>
<path d="M100.793 146.734C100.793 146.734 108.485 168.07 121.702 170.024C121.702 170.024 126.737 171.561 124.424 168.771C124.146 168.434 123.867 166.914 123.001 165.166C123.001 165.166 111.915 157.234 114.866 145.791C114.866 145.791 114.87 145.774 114.88 145.743C115.009 145.357 115.952 142.71 118.102 140.688C118.129 140.664 118.153 140.64 118.179 140.618C119.091 139.777 120.216 139.049 121.583 138.654C121.59 138.652 121.598 138.649 121.607 138.647C122.841 138.291 124.274 138.201 125.927 138.538C125.927 138.538 125.93 138.538 125.935 138.54C125.973 138.55 126.172 138.596 126.504 138.729C126.514 138.732 126.526 138.739 126.538 138.744C127.392 139.091 129.069 139.983 131.081 142.157C131.081 142.157 133.721 146.734 131.903 150.14C132.119 150 145.891 140.938 148.046 127.832L148.339 136.346C148.339 136.346 164.861 130.232 170.247 123.544C170.247 123.544 172.192 124.269 174.274 126.887C175.935 128.969 177.683 132.245 178.613 137.309C178.895 138.841 179.101 140.533 179.207 142.407C179.21 142.434 179.21 142.463 179.212 142.492C179.212 142.492 179.212 142.492 179.215 142.489C179.331 142.438 185.236 139.84 187.666 134.308C190.07 128.829 189.067 120.472 175.634 108.875C175.634 108.875 162.466 99.8591 144.989 98.6203C144.987 98.6178 144.984 98.6178 144.982 98.6178C134.824 97.8978 123.21 99.8081 111.881 107.641C111.889 107.638 92.691 121.728 100.793 146.734Z" fill="black"/>
<path d="M168.383 160.876C166.172 161.428 165.006 160.876 165.006 160.876C161.12 157.414 165.523 151.249 165.617 151.116C165.619 151.113 165.619 151.113 165.619 151.113C165.619 151.113 170.039 150.468 171.881 155.351C173.726 160.231 168.383 160.876 168.383 160.876Z" fill="#EF8981"/>
<path d="M169.433 131.995C169.433 131.995 166.989 134.187 168.485 136.824C169.983 139.459 182.579 137.879 182.579 137.879C182.579 137.879 184.541 133.496 169.433 131.995Z" fill="black"/>
<path d="M159.331 131.392C159.331 131.392 162.233 133.845 160.587 136.946C158.943 140.044 144.32 138.635 144.32 138.635C144.32 138.635 141.906 133.629 159.331 131.392Z" fill="black"/>
<path opacity="0.46" d="M152.65 153.915C156.774 153.915 160.117 149.87 160.117 144.88C160.117 139.89 156.774 135.845 152.65 135.845C148.526 135.845 145.183 139.89 145.183 144.88C145.183 149.87 148.526 153.915 152.65 153.915Z" fill="#63C8D2"/>
<path d="M152.65 153.915C156.774 153.915 160.117 149.87 160.117 144.88C160.117 139.89 156.774 135.845 152.65 135.845C148.526 135.845 145.183 139.89 145.183 144.88C145.183 149.87 148.526 153.915 152.65 153.915Z" stroke="#9E7A2C" stroke-width="1.03306" stroke-miterlimit="10"/>
<path opacity="0.46" d="M175.331 153.915C179.455 153.915 182.798 149.87 182.798 144.88C182.798 139.89 179.455 135.845 175.331 135.845C171.207 135.845 167.864 139.89 167.864 144.88C167.864 149.87 171.207 153.915 175.331 153.915Z" fill="#63C8D2"/>
<path d="M175.331 153.915C179.455 153.915 182.798 149.87 182.798 144.88C182.798 139.89 179.455 135.845 175.331 135.845C171.207 135.845 167.864 139.89 167.864 144.88C167.864 149.87 171.207 153.915 175.331 153.915Z" stroke="#9E7A2C" stroke-width="1.03306" stroke-miterlimit="10"/>
<path d="M167.927 143.732H160.114" stroke="#9E7A2C" stroke-width="1.03306" stroke-miterlimit="10"/>
<path d="M145.183 143.734L131.634 143.305" stroke="#9E7A2C" stroke-width="1.03306" stroke-miterlimit="10"/>
<path d="M129.44 251.152C129.44 251.152 116.996 253.87 106.492 252.98C105.712 252.915 104.941 252.83 104.187 252.721C104.313 248.151 104.366 240.527 104.366 240.527C102.456 215.169 124.303 198.066 124.303 198.066C124.303 198.066 130.182 248.183 129.44 251.152Z" fill="white"/>
<path d="M149.493 355.85C146.723 356.039 144.192 356.012 142.172 355.668L141.634 321.467L146.771 319.733L149.493 355.85Z" fill="#9C1E45"/>
<path d="M147.617 292.026C148.046 291.983 148.912 291.896 150.097 291.765C149.976 291.784 149.852 291.803 149.726 291.82C148.96 291.929 148.167 292.007 147.348 292.053C147.372 292.051 147.409 292.046 147.457 292.043C147.501 292.036 147.554 292.031 147.617 292.026Z" fill="#9C1E45"/>
<path d="M173.583 281.063C173.993 287.87 169.236 289.032 168.929 289.102C168.924 289.102 168.916 289.104 168.912 289.104C166.509 289.553 163.966 289.96 161.503 290.319C161.464 290.326 161.426 290.331 161.389 290.336C156.936 290.983 152.749 291.473 150.119 291.761C173.372 288.127 173.535 256.537 173.535 256.537L173.537 256.542C174.706 270.794 173.583 281.063 173.583 281.063Z" fill="#164354"/>
<path d="M142.172 352.042C142.172 352.042 171.787 350.309 177.106 346.101" stroke="white" stroke-width="2.06612" stroke-miterlimit="10"/>
<path d="M106.909 350.938C106.909 350.938 125.261 355.272 140.781 351.808" stroke="white" stroke-width="2.06612" stroke-miterlimit="10"/>
<path d="M147.617 292.026C147.617 292.026 150.364 317.629 141.634 321.466L140.781 292.55L147.617 292.026Z" stroke="#9C1E45" stroke-width="2.06612" stroke-miterlimit="10"/>
<path d="M151.106 423.371H187.212C186.868 418.113 181.956 415.716 178.415 413.43C174.873 411.144 164.628 410.193 163.586 402.574C163.27 400.264 163.794 394.608 164.681 387.842H152.543C150.965 407.161 151.106 423.371 151.106 423.371Z" fill="white"/>
<path d="M161.389 387.654C161.389 387.654 157.947 409.499 170.744 413.613C183.542 417.727 186.66 420.9 186.66 420.9" stroke="#A5A4A4" stroke-width="1.03306" stroke-miterlimit="10"/>
<path d="M157.421 387.654C157.421 387.654 156.473 396.881 158.444 405.926C159.108 408.975 161.023 411.611 163.712 413.196C165.93 414.505 169.193 416.161 173.816 417.95C184.558 422.1 183.901 421.659 184.815 423.373" stroke="#A5A4A4" stroke-width="1.03306" stroke-miterlimit="10"/>
<path d="M153.959 387.654C153.959 387.654 154.238 396.081 155.224 404.127C156.153 411.695 161.055 418.241 168.104 421.14C170.887 422.285 174.255 423.128 178.298 423.373" stroke="#A5A4A4" stroke-width="1.03306" stroke-miterlimit="10"/>
<path d="M151.687 400.866C151.687 400.866 149.736 420.401 165.275 423.37" stroke="#A5A4A4" stroke-width="1.03306" stroke-miterlimit="10"/>
<path d="M151.103 417.276C151.103 417.276 150.878 422.001 156.819 423.371" stroke="#A5A4A4" stroke-width="1.03306" stroke-miterlimit="10"/>
<path d="M164.112 392.48H152.184" stroke="#CB2027" stroke-width="2.06612" stroke-miterlimit="10"/>
<path d="M164.264 391.381H152.269" stroke="#CB2027" stroke-width="2.06612" stroke-miterlimit="10"/>
<path d="M116.892 423.371H152.999C152.655 418.113 147.743 415.716 144.201 413.43C140.66 411.144 130.415 410.193 129.372 402.574C129.057 400.264 129.581 394.608 130.468 387.842H118.33C116.752 407.161 116.892 423.371 116.892 423.371Z" fill="white"/>
<path d="M127.176 387.654C127.176 387.654 123.734 409.499 136.531 413.613C149.329 417.727 152.446 420.9 152.446 420.9" stroke="#A5A4A4" stroke-width="1.03306" stroke-miterlimit="10"/>
<path d="M123.208 387.654C123.208 387.654 122.26 396.881 124.231 405.926C124.895 408.975 126.81 411.611 129.498 413.196C131.717 414.505 134.98 416.161 139.603 417.95C150.344 422.1 149.688 421.659 150.601 423.373" stroke="#A5A4A4" stroke-width="1.03306" stroke-miterlimit="10"/>
<path d="M119.748 387.654C119.748 387.654 120.027 396.081 121.014 404.127C121.942 411.695 126.844 418.241 133.894 421.14C136.677 422.285 140.044 423.128 144.087 423.373" stroke="#A5A4A4" stroke-width="1.03306" stroke-miterlimit="10"/>
<path d="M117.474 400.866C117.474 400.866 115.523 420.401 131.062 423.37" stroke="#A5A4A4" stroke-width="1.03306" stroke-miterlimit="10"/>
<path d="M116.89 417.276C116.89 417.276 116.664 422.001 122.606 423.371" stroke="#A5A4A4" stroke-width="1.03306" stroke-miterlimit="10"/>
<path d="M129.901 392.48H117.971" stroke="#CB2027" stroke-width="2.06612" stroke-miterlimit="10"/>
<path d="M130.054 391.381H118.058" stroke="#CB2027" stroke-width="2.06612" stroke-miterlimit="10"/>
<path d="M260.354 105.818L318.955 99.3066L330.279 151.396L336.773 165.464C325.278 162.531 314.143 173.195 314.143 173.195C313.576 168.099 307.915 163.004 307.915 163.004C307.915 163.004 305.651 166.4 294.327 172.628C283.004 178.856 276.492 172.628 276.492 172.628L260.073 152.245C260.073 152.245 252.145 154.509 249.881 149.697C247.617 144.885 257.809 141.486 256.393 140.354C255.35 139.52 253.847 128.55 253.127 122.601C252.679 118.887 253.12 115.103 254.531 111.639C255.682 108.802 257.515 106.133 260.354 105.818Z" fill="url(#paint7_linear_1_11756)"/>
<path d="M356.82 123.087C348.749 140.074 330.277 151.397 330.277 151.397C330.277 151.397 323.481 150.689 318.599 132.641C318.599 132.641 323.765 122.379 317.253 115.303C310.742 108.224 302.817 116.716 303.947 119.264C305.081 121.814 304.087 132.427 304.087 132.427L297.576 118.415C297.576 118.415 277.144 133.138 255.656 109.356C255.656 109.356 239.401 104.403 240.463 90.8129C241.232 80.9972 277.557 67.3463 297.668 60.5196C297.67 60.5196 297.67 60.5196 297.67 60.5196C305.404 57.8942 310.74 56.282 310.74 56.282C310.74 56.282 319.447 53.8675 325.178 62.362C330.912 70.8566 349.384 80.8347 353.84 85.7172C358.306 90.602 364.887 106.1 356.82 123.087Z" fill="black"/>
<path d="M275.295 236.325L242.235 254.728C214.773 259.256 152.715 227.821 152.715 227.821C143.779 229.571 141.716 222.076 141.258 220.325C140.8 218.577 137.593 217.828 137.593 217.828C137.593 217.828 128.657 220.325 125.886 218.577C123.152 216.851 136.073 213.671 136.439 213.581C136.245 213.593 132.807 213.823 125.886 213.579C118.759 213.329 118.805 208.333 118.805 205.334C118.805 202.335 133.149 203.29 133.149 203.29C127.038 201.474 124.977 199.55 124.356 198.187C124.337 198.148 124.318 198.107 124.303 198.068C124.095 197.545 124.095 197.113 124.146 196.81C124.153 196.766 124.163 196.728 124.17 196.691C124.182 196.648 124.194 196.607 124.206 196.573C124.226 196.512 124.245 196.461 124.259 196.425C124.269 196.405 124.279 196.386 124.286 196.374C124.296 196.352 124.303 196.34 124.303 196.34C124.303 196.34 135.302 197.967 143.636 200.287C151.971 202.609 163.942 217.828 163.942 217.828C188.916 237.317 239.096 236.318 239.096 236.318L263.571 220.173L273.234 224.153L275.295 236.325Z" fill="url(#paint8_linear_1_11756)"/>
<path d="M411.889 299.883C409.624 292.523 403.954 292.31 403.954 292.31C403.716 292.271 403.474 292.237 403.227 292.201C381.508 289.27 328.012 306.535 328.012 304.836C328.012 304.797 327.961 304.741 327.942 304.647L327.939 304.635C327.828 304.012 327.915 302.181 327.973 301.212V301.209C327.995 300.836 328.012 300.588 328.012 300.588C328.012 300.588 328.007 300.004 327.978 298.957V298.918C327.765 290.317 326.286 251.33 316.97 249.066C306.495 246.518 302.247 232.079 302.247 232.079L301.552 232.807L283.282 251.898C272.242 227.551 261.767 217.643 261.767 217.643L314.141 173.197C325.278 163.745 332.824 165.17 332.824 165.17C337.554 165.095 341.404 166.601 343.515 167.66C344.65 168.227 345.28 168.668 345.28 168.668C365.379 177.243 379.452 194.152 389.287 213.054C409.665 252.191 411.889 299.883 411.889 299.883Z" fill="#DB5A27"/>
<path d="M380.429 368.178L372.866 372.066L365.864 377.751C365.864 377.751 366.289 386.507 365.864 388.498C365.44 390.49 367.564 395.586 367.564 395.586H370.832L379.736 388.498C379.736 388.498 390.495 399.038 394.74 404.532C398.987 410.023 413.275 417.906 426.589 408.968L415.974 396.01L380.429 368.178Z" fill="url(#paint9_linear_1_11756)"/>
<path d="M380.126 368.327C380.126 368.327 375.639 373.953 389.476 384.222C403.809 394.855 415.598 406.196 415.598 406.196C415.598 406.196 424.235 412.283 429.835 406.896C435.729 401.224 412.255 386.336 412.255 386.336L397.21 377.864C397.21 377.859 387.205 366.775 380.126 368.327Z" fill="#6B696A"/>
<path d="M380.885 366.628C380.885 366.628 376.398 372.257 390.235 382.524C404.567 393.156 416.357 404.497 416.357 404.497C416.357 404.497 424.994 410.584 430.594 405.198C436.487 399.525 413.014 384.638 413.014 384.638L397.969 376.165C397.969 376.162 387.964 365.079 380.885 366.628Z" fill="#968F91"/>
<path d="M359.707 381.889L352.143 385.777L345.142 391.462C345.142 391.462 345.566 400.218 345.142 402.209C344.718 404.201 346.841 409.297 346.841 409.297H350.109L359.013 402.209C359.013 402.209 369.772 412.749 374.017 418.243C378.264 423.734 392.553 431.617 405.867 422.679L395.251 409.721L359.707 381.889Z" fill="url(#paint10_linear_1_11756)"/>
<path d="M381.261 407.422L373.132 417.141C373.132 417.141 374.931 421.002 380.192 423.281L390.407 415.352L381.261 407.422Z" fill="#6B696A"/>
<path d="M359.707 381.89C359.707 381.89 355.22 387.519 369.057 397.785C383.389 408.418 395.178 419.759 395.178 419.759C395.178 419.759 403.816 425.846 409.416 420.459C415.309 414.787 391.835 399.899 391.835 399.899L376.79 391.427C376.79 391.424 366.786 380.341 359.707 381.89Z" fill="#6B696A"/>
<path d="M401.515 393.214L393.384 402.933C393.384 402.933 395.183 406.794 400.444 409.073L410.66 401.144L401.515 393.214Z" fill="#6B696A"/>
<path d="M361.263 380.82C361.263 380.82 356.776 386.449 370.614 396.716C384.946 407.349 396.735 418.689 396.735 418.689C396.735 418.689 405.372 424.777 410.972 419.39C416.866 413.717 393.392 398.83 393.392 398.83L378.347 390.357C378.347 390.355 368.344 379.271 361.263 380.82Z" fill="#968F91"/>
<path d="M413.901 352.399C413.59 353.277 413.251 354.14 412.878 354.981L412.866 355.007C410.742 359.798 407.586 363.924 403.033 366.835C392.963 373.274 387.244 376.375 384.003 377.793H384C383.203 378.142 382.555 378.389 382.029 378.559C378.706 379.638 375.501 381.049 372.516 382.864L368.713 385.18C353.99 399.618 350.66 415.744 350.66 415.744C343.3 413.972 338.487 415.744 338.487 415.744C292.133 424.484 265.161 424.6 249.479 421.616C226.177 417.184 227.796 405.907 227.796 405.907C228.919 358.157 324.798 306.782 326.296 305.982L326.308 305.977C326.31 305.977 326.313 305.975 326.313 305.975C417.755 274.266 411.809 300.877 411.809 300.877C411.809 300.877 421.28 331.519 413.901 352.399Z" fill="#AB213E"/>
<path d="M118.999 208.456H135.508" stroke="#F58F87" stroke-width="10.3306" stroke-miterlimit="10"/>
<path d="M413.901 352.397L412.878 354.979L412.866 355.006C410.742 359.796 407.586 363.922 403.033 366.834C392.963 373.273 387.244 376.373 384.003 377.791H384L311.127 381.997C300.679 369.84 337.636 363.791 337.636 363.791C384.492 352.681 413.901 352.397 413.901 352.397Z" fill="#8C203B"/>
<path d="M296.943 385.518C296.943 385.518 305.649 381.484 329.852 379.998C354.056 378.512 382.034 379.593 393.384 372.647" stroke="#771F38" stroke-width="10.3306" stroke-miterlimit="10"/>
<path opacity="0.44" d="M255.019 143.741C256.716 143.461 257.04 136.856 255.742 128.987C254.443 121.119 252.015 114.968 250.317 115.248C248.62 115.528 248.296 122.133 249.594 130.002C250.892 137.87 253.321 144.021 255.019 143.741Z" fill="#80B9C6"/>
<path d="M261.826 135.508C262.443 135.406 262.619 133.36 262.219 130.939C261.82 128.517 260.996 126.637 260.379 126.739C259.762 126.84 259.586 128.886 259.985 131.307C260.385 133.729 261.209 135.609 261.826 135.508Z" fill="black"/>
<path d="M255.966 119.729C255.966 119.729 260.638 114.948 269.343 117.283C269.343 117.283 274.298 119.264 272.599 122.733C272.599 122.733 266.228 119.407 256.887 121.884C256.885 121.884 254.296 122.403 255.966 119.729Z" fill="black"/>
<path d="M255.736 128.95L303.949 119.266" stroke="black" stroke-width="1.03306" stroke-miterlimit="10"/>
<path d="M271.04 159.393C271.04 159.393 279.108 159.393 283.566 152.812" stroke="#F58F87" stroke-width="1.03306" stroke-miterlimit="10"/>
<path d="M302.252 232.08C302.252 232.08 317.539 216.638 320.301 202.667" stroke="#A04827" stroke-width="10.3306" stroke-miterlimit="10"/>
<path d="M393.763 248.147C393.125 256.426 383.147 251.332 383.147 251.332C381.661 241.567 376.989 237.531 376.989 237.531C357.074 216.564 348.533 192.51 344.88 175.165C344.318 172.493 343.869 169.98 343.515 167.662C343.127 165.138 342.851 162.85 342.652 160.835C342.07 154.93 342.165 151.403 342.165 151.403L352.572 144.537C366.007 146.072 375.641 164.055 382.196 184.658C385.171 194.016 387.513 203.912 389.29 213.058C392.153 227.79 393.547 240.571 393.758 245.984C393.76 245.987 393.76 245.987 393.76 245.989C393.799 246.949 393.799 247.681 393.763 248.147Z" fill="black"/>
<path d="M337.639 144.531L342.167 151.397C342.167 151.397 350.449 149.203 352.572 144.531L345.106 137.351L337.639 144.531Z" fill="#EC3D53"/>
<path d="M256.327 141.011C256.327 141.011 262.429 139.317 265.072 144.374C267.714 149.431 260.07 152.245 260.07 152.245C260.07 152.245 250.929 155.074 249.602 148.846C249.6 148.849 248.017 146.092 256.327 141.011Z" fill="#F58F87"/>
<path d="M311.549 175.397L265.181 221.463L261.767 217.642L311.549 175.397Z" fill="#EA997D"/>
<path d="M327.973 301.213C327.973 303.113 327.985 304.459 328.012 304.835L327.942 304.646L327.939 304.634C327.83 304.013 327.915 302.183 327.973 301.213Z" fill="#EA997D"/>
<path d="M316.972 249.067C306.499 246.507 302.25 232.081 302.25 232.081L301.554 232.808L303.348 230.927C303.348 230.927 308.48 246.663 320.298 248.646C320.298 248.646 325.04 263.366 328.276 280.204L329.602 304.844L328.015 305.387C328.012 305.383 323.341 250.624 316.972 249.067Z" fill="#EA997D"/>
<path d="M255.658 109.359C255.658 109.359 239.404 104.406 240.466 90.8158C241.234 81 277.559 67.3491 297.67 60.5225C297.181 60.794 245.358 89.4049 247.047 95.7224C247.05 95.7224 245.796 103.909 255.658 109.359Z" fill="#3A3A3A"/>
<path d="M246.48 383.645C246.48 383.645 233.796 411.276 249.479 421.613C226.177 417.182 227.796 405.904 227.796 405.904C228.919 358.154 324.798 306.779 326.296 305.979L326.308 305.975C325.542 306.556 247.045 366.001 246.48 383.645Z" fill="#C24866"/>
<path d="M307.913 163.004L312.946 156.104L313.161 169.927C313.161 169.927 310.31 165.942 307.913 163.004Z" fill="#F58F87"/>
<path d="M265.181 221.462L240.356 238.653C219.683 239.518 197.05 233.576 197.05 233.576C175.779 229.244 162.863 219.465 162.863 219.465C162.863 219.465 152.96 208.447 147.884 204.362C142.807 200.277 124.356 198.187 124.356 198.187C124.337 198.148 124.318 198.107 124.303 198.068C124.08 197.564 124.087 197.12 124.146 196.81C124.153 196.766 124.163 196.728 124.17 196.691C124.182 196.648 124.194 196.607 124.206 196.573C124.226 196.512 124.245 196.461 124.259 196.425C124.272 196.405 124.279 196.388 124.286 196.374C124.296 196.352 124.303 196.34 124.303 196.34C124.303 196.34 135.302 197.967 143.636 200.287C151.971 202.609 163.942 217.828 163.942 217.828C188.916 237.317 239.096 236.318 239.096 236.318L263.571 220.173L265.181 221.462Z" fill="#F6CEC4"/>
</g>
</g>
<defs>
<linearGradient id="paint0_linear_1_11756" x1="-218.979" y1="-408.251" x2="477.717" y2="555.834" gradientUnits="userSpaceOnUse">
<stop offset="0.4238" stop-color="#F5DB96"/>
<stop offset="1" stop-color="#F9A466"/>
</linearGradient>
<linearGradient id="paint1_linear_1_11756" x1="-212.071" y1="-220.631" x2="52.1769" y2="100.504" gradientUnits="userSpaceOnUse">
<stop stop-color="#AEDFE6" stop-opacity="0.6"/>
<stop offset="1" stop-color="white" stop-opacity="0"/>
</linearGradient>
<linearGradient id="paint2_linear_1_11756" x1="124.193" y1="423.715" x2="124.193" y2="347.937" gradientUnits="userSpaceOnUse">
<stop offset="0.6882" stop-color="#FABCA8"/>
<stop offset="1" stop-color="#F58F87"/>
</linearGradient>
<linearGradient id="paint3_linear_1_11756" x1="170.815" y1="411.811" x2="152.19" y2="341.692" gradientUnits="userSpaceOnUse">
<stop offset="0.6882" stop-color="#FABCA8"/>
<stop offset="1" stop-color="#F58F87"/>
</linearGradient>
<linearGradient id="paint4_linear_1_11756" x1="179.105" y1="214.646" x2="132.79" y2="127.092" gradientUnits="userSpaceOnUse">
<stop offset="0.6882" stop-color="#FABCA8"/>
<stop offset="1" stop-color="#F58F87"/>
</linearGradient>
<linearGradient id="paint5_linear_1_11756" x1="112.928" y1="316.796" x2="133.195" y2="316.796" gradientUnits="userSpaceOnUse">
<stop offset="0.6882" stop-color="#FABCA8"/>
<stop offset="1" stop-color="#F58F87"/>
</linearGradient>
<linearGradient id="paint6_linear_1_11756" x1="124.655" y1="313.967" x2="115.738" y2="256.215" gradientUnits="userSpaceOnUse">
<stop offset="0.6882" stop-color="#FABCA8"/>
<stop offset="1" stop-color="#F58F87"/>
</linearGradient>
<linearGradient id="paint7_linear_1_11756" x1="277.685" y1="199.275" x2="300.899" y2="120.574" gradientUnits="userSpaceOnUse">
<stop offset="0.733" stop-color="#FABCA8"/>
<stop offset="1" stop-color="#F58F87"/>
</linearGradient>
<linearGradient id="paint8_linear_1_11756" x1="118.805" y1="225.757" x2="275.295" y2="225.757" gradientUnits="userSpaceOnUse">
<stop offset="0.733" stop-color="#FABCA8"/>
<stop offset="1" stop-color="#F58F87"/>
</linearGradient>
<linearGradient id="paint9_linear_1_11756" x1="429.246" y1="361.932" x2="394.001" y2="395.479" gradientUnits="userSpaceOnUse">
<stop offset="0.733" stop-color="#FABCA8"/>
<stop offset="1" stop-color="#F58F87"/>
</linearGradient>
<linearGradient id="paint10_linear_1_11756" x1="345.085" y1="404.307" x2="405.866" y2="404.307" gradientUnits="userSpaceOnUse">
<stop offset="0.733" stop-color="#FABCA8"/>
<stop offset="1" stop-color="#F58F87"/>
</linearGradient>
<clipPath id="clip0_1_11756">
<rect width="500" height="500" rx="250" fill="white"/>
</clipPath>
<clipPath id="clip1_1_11756">
<rect width="727.273" height="727.273" fill="white" transform="translate(-189.05 -227.272)"/>
</clipPath>
</defs>
</svg>
