<svg width="500" height="500" viewBox="0 0 500 500" fill="none" xmlns="http://www.w3.org/2000/svg">
<g clip-path="url(#clip0_1_10496)">
<rect width="500" height="500" rx="250" fill="white"/>
<path d="M142.591 332.806L142.354 333.042C139.165 326.073 137.157 318.158 136.33 309.417C137.157 318.04 139.401 325.837 142.591 332.806Z" fill="#DFDFDF"/>
<path d="M218.427 230.864C233.954 230.864 246.542 218.277 246.542 202.75C246.542 187.222 233.954 174.635 218.427 174.635C202.9 174.635 190.313 187.222 190.313 202.75C190.313 218.277 202.9 230.864 218.427 230.864Z" fill="#DFDFDF"/>
<path d="M303.362 131.872H204.371C161.373 131.872 135.739 157.506 135.739 200.504V299.494C135.739 312.37 137.984 323.592 142.354 333.043C152.513 355.487 174.249 368.126 204.371 368.126H303.362C346.36 368.126 371.993 342.493 371.993 299.494V272.443V200.504C371.993 157.506 346.36 131.872 303.362 131.872ZM352.739 255.906C343.525 247.991 328.641 247.991 319.427 255.906L270.286 298.077C261.072 305.991 246.188 305.991 236.974 298.077L232.958 294.769C224.571 287.446 211.222 286.737 201.772 293.116L157.593 322.766C154.994 316.15 153.458 308.472 153.458 299.494V200.504C153.458 167.192 171.059 149.591 204.371 149.591H303.362C336.673 149.591 354.274 167.192 354.274 200.504V257.205L352.739 255.906Z" fill="#DFDFDF"/>
<g clip-path="url(#clip1_1_10496)">
<path d="M516.735 -4.95947H-14.2566V526.032H516.735V-4.95947Z" fill="url(#paint0_linear_1_10496)"/>
<path d="M518.151 -6.19824H441.157V524.794H518.151V-6.19824Z" fill="#D3C0B6"/>
<path d="M198.827 -81.2451H-35.2219V247.219H198.827V-81.2451Z" fill="#9B8770"/>
<path d="M200.298 -76.8467H-26.4888V251.618H200.298V-76.8467Z" fill="#C5B69D"/>
<path d="M75.5712 -58.3081H-9.71671V78.1125H75.5712V-58.3081Z" fill="#ADDEE5"/>
<path d="M75.5712 97.4009H-9.71671V233.821H75.5712V97.4009Z" fill="#ADDEE5"/>
<path d="M184.495 98.2598H99.2073V234.68H184.495V98.2598Z" fill="#ADDEE5"/>
<path d="M184.495 -58.3081H99.2073V78.1125H184.495V-58.3081Z" fill="#ADDEE5"/>
<path d="M-9.71661 228.084H69.0348V97.4019H75.5713V233.821H-9.71661V228.084Z" fill="#9B8770"/>
<path d="M-9.71671 72.3743H69.0347V-58.3081H75.5712V78.1107H-9.71671V72.3743Z" fill="#9B8770"/>
<path d="M99.2074 72.3743H177.961V-58.3081H184.497V78.1107H99.2074V72.3743Z" fill="#9B8770"/>
<path d="M99.2074 228.944H177.961V98.2598H184.497V234.68H99.2074V228.944Z" fill="#9B8770"/>
<path d="M503.106 396.47L435.847 369.743V72.034L504.345 47.2544L503.106 396.47Z" fill="#FFC08C"/>
<path d="M492.157 380.717L435.847 356.768V89.9904L493.195 67.7861L492.157 380.717Z" fill="#73916A"/>
<path d="M293.727 311.963C293.727 311.963 300.578 336.774 294.366 352.629C294.366 352.629 293.868 353.874 292.196 354.054C290.521 354.235 292.93 342.61 291.96 339.073C291.96 339.073 289.452 354.099 287.514 356.755C287.514 356.755 286.045 358.681 283.656 358.299C281.424 357.941 279.926 355.771 280.229 353.502C280.751 349.59 281.625 341.937 281.117 337.7C281.117 337.7 278.627 353.807 277.712 353.821C277.712 353.821 275.903 355.084 274.96 353.245C274.016 351.406 276.209 335.769 277.333 329.726C277.333 329.726 274.866 331.912 273.061 333.381C273.061 333.381 267.669 336.181 268.313 331.846L273.259 325.876L278.595 319.51L279.001 312.476C279.001 312.472 288.213 309.685 293.727 311.963Z" fill="url(#paint1_linear_1_10496)"/>
<path d="M284.072 356.127C284.072 356.127 287.39 342.803 287.251 336.379L284.072 356.127Z" fill="url(#paint2_linear_1_10496)"/>
<path d="M292.967 496.991L323.813 499.545L323.829 499.547L327.172 499.825C327.172 499.825 342.748 469.794 347.391 382.833C347.987 371.656 348.723 324.15 348.902 311.034L338.755 315.514L279.213 314.53C279.213 314.528 272.335 441.869 292.967 496.991Z" fill="#444444"/>
<path d="M297.948 209.133C297.948 209.133 275.378 230.107 271.843 286.166C271.843 286.166 269.824 308.892 275.126 317.983H279.075L297.948 209.133Z" fill="#D7D7D7"/>
<path d="M300.497 209.133C300.497 209.133 277.927 230.107 274.392 286.166C274.392 286.166 272.372 308.892 277.675 317.983H281.624L300.497 209.133Z" fill="#AAAAAA"/>
<path d="M277.443 310.377C277.443 315.288 279.164 316.076 279.164 316.076C305.103 327.08 348.902 319.749 348.902 319.749C369.565 317.474 363.503 271.92 363.503 271.92C367.544 274.951 371.165 278.839 384.967 273.79C387.983 272.689 391.024 269.292 393.918 264.579C404.28 247.709 412.765 213.956 411.483 207.886C409.363 197.881 390.516 198.454 390.516 198.454C390.516 198.454 375.794 226.653 371.078 228.338C367.222 229.717 358.515 220.317 354.8 215.864C354.203 215.145 353.738 214.334 353.317 213.501C351.481 209.855 336.306 203.759 336.306 203.759C336.302 203.752 328.137 196.091 328.137 196.091L307.667 198.376C275.818 222.956 277.443 310.377 277.443 310.377Z" fill="#D7D7D7"/>
<path d="M268.061 140.591C268.061 140.591 268.963 148.175 274.261 148.29L274.695 145.014C299.06 156.901 319.645 145.014 319.645 145.014L324.509 167.563L340.644 168.018C340.644 168.018 355.439 167.771 354.671 147.294C354.501 142.748 352.733 138.375 349.559 135.12C347.771 133.284 345.493 131.695 342.785 131.307C342.785 131.307 338.447 123.486 328.378 117.5C328.374 117.498 328.373 117.496 328.371 117.494C328.369 117.493 328.369 117.493 328.369 117.493C321.232 113.252 311.218 109.931 297.833 110.97C297.832 110.967 266.733 111.703 268.061 140.591Z" fill="#231F20"/>
<path d="M274.693 145.013C274.693 145.013 267.618 188.343 288.253 194.239C288.253 194.239 296.801 197.039 305.938 194.239C305.938 194.239 309.034 199.397 307.559 202.346L303.727 205.146L309.181 213.695L315.96 206.473C315.96 206.473 325.687 205.148 328.781 198.514C328.781 198.514 325.245 187.46 327.749 178.175C327.749 178.175 339.982 180.386 341.014 165.058C341.014 165.058 341.603 153.562 329.075 154.298C329.075 154.298 328.633 165.351 324.507 167.562L319.643 145.013C319.645 145.013 299.159 156.066 274.693 145.013Z" fill="url(#paint3_linear_1_10496)"/>
<path d="M315.96 206.471C315.96 206.471 321.659 221.849 321.266 227.153C321.266 227.153 332.074 218.703 336.298 201.312L328.135 196.088L328.781 198.511C328.783 198.513 326.965 204.457 315.96 206.471Z" fill="white"/>
<path d="M303.727 205.145L298.536 221.882L297.75 204.851L307.667 198.376C307.667 198.376 308.46 201.15 307.559 202.347L303.727 205.145Z" fill="white"/>
<path d="M319.087 223.84C319.087 223.84 305.382 233.534 298.939 221.227L302.665 209.216L308.119 217.765L314.898 210.544C314.898 210.542 319.101 222.695 319.087 223.84Z" fill="#D7D7D7"/>
<path d="M306.823 498.7C303.686 492.914 302.87 344.72 302.87 344.72L302.704 498.36L306.823 498.7Z" fill="#353535"/>
<path d="M323.813 500.108C323.813 500.108 328.733 509.639 329.126 512.783C329.126 512.783 349.367 506.97 353.493 525.696H309.278V498.904L323.813 500.108Z" fill="#231F20"/>
<path d="M296.897 497.879L284.716 511.113C284.716 511.113 258.067 504.552 258.952 525.696H306.825L306.437 498.708" fill="#231F20"/>
<path d="M288.727 160.766C288.591 160.447 288.159 160.403 287.968 160.692C286.79 162.467 283.613 167.527 283.974 169.934C284.321 172.253 287.952 171.927 289.486 171.683C289.884 171.619 290.18 171.283 290.191 170.88C290.235 169.108 290.203 164.239 288.727 160.766Z" fill="#F48E86"/>
<path d="M300.555 166.622C301.54 166.622 302.338 165.1 302.338 163.224C302.338 161.347 301.54 159.825 300.555 159.825C299.571 159.825 298.773 161.347 298.773 163.224C298.773 165.1 299.571 166.622 300.555 166.622Z" fill="#231F20"/>
<path d="M280.595 166.542C281.58 166.542 282.378 165.021 282.378 163.144C282.378 161.267 281.58 159.746 280.595 159.746C279.611 159.746 278.813 161.267 278.813 163.144C278.813 165.021 279.611 166.542 280.595 166.542Z" fill="#231F20"/>
<path d="M308.251 154.248L294.377 153.505C294.377 153.505 294.069 152.25 295.27 151.354C295.27 151.354 298.77 150.156 305.301 151.255C311.83 152.354 308.251 154.248 308.251 154.248Z" fill="#231F20"/>
<path d="M271.316 153.764L285.21 153.593C285.21 153.593 285.569 152.352 284.405 151.407C284.405 151.407 280.958 150.065 274.387 150.894C267.815 151.722 271.316 153.764 271.316 153.764Z" fill="#231F20"/>
<path d="M305.938 194.238C305.938 194.238 315.501 191.684 319.629 183.169C319.629 183.169 318.94 195.909 307.559 202.345C307.559 202.345 308.295 198.693 305.938 194.238Z" fill="#F48E86"/>
<path d="M341.021 134.499C341.021 134.499 350.155 136.66 350.743 145.895C350.743 145.895 353.732 162.429 340.644 168.017C340.644 168.017 355.439 167.769 354.671 147.292C354.501 142.747 352.732 138.373 349.559 135.118C347.771 133.283 345.493 131.693 342.785 131.306C342.785 131.306 338.447 123.484 328.378 117.498C328.767 117.849 341.509 129.274 341.021 134.499Z" fill="#3A3A3A"/>
<path d="M323.813 500.108L323.829 500.109L327.172 500.387C327.172 500.387 342.748 470.356 347.391 383.396L345.947 371.487C345.947 371.486 334.907 479.082 323.813 500.108Z" fill="#353535"/>
<path d="M344.52 245.512C347.504 258.643 363.503 271.921 363.503 271.921C367.543 274.952 371.165 278.84 384.967 273.791C387.983 272.69 391.024 269.293 393.918 264.58C368.528 282.134 344.52 245.512 344.52 245.512Z" fill="#AAAAAA"/>
<path d="M312.025 213.693H305.938L308.982 218.39L312.025 213.693Z" fill="#AAAAAA"/>
<path d="M308.982 218.39L312.784 296.164L302.703 308.285L291.711 294.605L308.982 218.39Z" fill="#BC4040"/>
<path d="M393.918 198.548C393.918 198.548 411.421 163.011 423.634 161.418L437.567 159.781C437.567 159.781 440.272 165.312 431.245 165.666C422.45 166.011 422.218 169.383 422.218 169.383C422.218 169.383 430.94 175.537 424.101 183.169C417.262 190.8 412.306 188.676 412.306 188.676L408.918 203.45L393.918 198.548Z" fill="url(#paint4_linear_1_10496)"/>
<path d="M305.473 182.847C304.54 187.169 298.34 189.146 292.43 187.417C290.067 186.727 288.999 186.185 287.607 184.375C287.607 184.375 286.323 182.27 286.252 182.109C285.675 180.797 285.925 180.5 287.291 180.024C290.888 178.771 300.991 175.263 302.773 175.406C304.512 175.544 306.028 176.355 305.901 179.771C305.869 180.622 305.733 181.636 305.473 182.847Z" fill="#231F20"/>
<path d="M305.469 182.815C304.559 187.141 298.441 189.525 291.989 187.282C293.044 181.539 303.313 179.932 305.881 179.737C305.853 180.588 305.722 181.604 305.469 182.815Z" fill="#B62325"/>
<path d="M253.54 385.851H143.978V524.793H253.54V385.851Z" fill="#5E5148"/>
<path d="M258.85 377.001H136.191V386.559H258.85V377.001Z" fill="#756356"/>
<path d="M140.262 441.958H37.7802V451.516H140.262V441.958Z" fill="#756356"/>
<path d="M54.241 370.629L54.241 276.466H37.7803L37.7803 370.629H54.241Z" fill="#756356"/>
<path d="M51.4092 441.959L51.4092 369.921H42.0284L42.0284 441.959H51.4092Z" fill="#5E5148"/>
<path d="M51.4092 524.793L51.4092 451.517H42.0284L42.0284 524.793H51.4092Z" fill="#5E5148"/>
<path d="M139.554 524.793V451.517H130.173V524.793H139.554Z" fill="#5E5148"/>
<path d="M143.846 400.847L139.924 434.879L139.91 434.99L139.49 438.62L139.278 440.468L138.964 443.171C138.964 443.171 138.672 443.109 138.085 442.985C134.678 442.256 118.527 444.59 94.9417 438.783C83.3572 435.932 75.6472 436.008 71.5851 427.027C71.0152 425.767 70.5249 424.395 70.1072 422.938C65.5088 406.934 69.5337 380.785 69.5337 380.785L143.846 400.847Z" fill="#CEAA86"/>
<path d="M139.49 438.62L139.278 440.468L138.964 443.171C138.964 443.171 138.672 443.109 138.085 442.985C134.678 442.256 118.527 444.591 94.9417 438.783C83.3572 435.932 75.6472 436.008 71.5851 427.027C71.0152 425.767 70.5249 424.395 70.1072 422.938L139.49 438.62Z" fill="#A38C78"/>
<path d="M120.944 304.025L120.937 304.019L104.107 300.398C80.5377 307.067 72.0949 345.966 72.0949 345.966L68.6046 383.449C75.4809 394.306 94.9382 398.81 94.9382 398.81C128.775 408.763 128.483 396.615 128.483 396.615C129.893 389.562 127.267 374.404 127.267 374.404C126.725 364.451 130.706 351.424 130.706 351.424C130.706 351.424 130.72 351.46 130.723 351.444C136.961 323.404 120.944 304.025 120.944 304.025Z" fill="#145677"/>
<path d="M100.391 303.593C104.779 316.896 125.364 322.957 123.966 314.002C122.565 305.048 117.606 303.538 117.606 303.538C116.434 301.57 117.756 294.058 117.756 294.058C117.756 294.058 129.495 299.46 144.366 295.471C159.238 291.483 159.321 274.054 159.321 274.054C161.558 274.12 162.562 273.346 162.562 273.346C165.565 269.208 160.048 264.217 159.93 264.107C159.928 264.105 159.928 264.105 159.928 264.105C160.65 254.687 155.025 241.655 155.025 241.655C144.025 217.573 109.36 240.329 109.36 240.329L109.154 258.896C103.818 254.903 99.8797 256.342 97.3717 258.542C95.115 260.524 93.83 263.374 93.6512 266.372C92.9591 278.024 102.11 280.065 102.11 280.065C107.77 293.276 100.391 303.593 100.391 303.593Z" fill="url(#paint5_linear_1_10496)"/>
<path d="M79.75 270.133C79.75 270.133 90.2141 287.109 103.908 286.173C103.908 286.173 103.903 286.148 103.896 286.102C103.822 285.658 103.457 283.114 103.931 279.521C103.931 279.521 93.2142 278.231 93.6673 266.099C93.6673 266.099 93.6691 266.082 93.6726 266.048C93.7186 265.634 94.0832 262.77 95.7983 260.269C95.8196 260.239 95.8373 260.209 95.8603 260.181C96.5913 259.136 97.5612 258.161 98.8462 257.462C98.8515 257.457 98.8604 257.453 98.8692 257.45C100.03 256.821 101.45 256.418 103.181 256.393C103.181 256.393 103.183 256.393 103.188 256.393C103.229 256.393 103.439 256.396 103.802 256.457C103.813 256.458 103.827 256.46 103.839 256.464C104.772 256.625 106.652 257.154 109.149 258.896C109.149 258.896 112.802 262.912 111.725 266.728C111.91 266.538 123.748 254.425 123.038 240.798L125.199 249.279C125.199 249.279 140.444 239.522 144.384 231.626C144.384 231.626 146.494 231.927 149.158 234.098C151.282 235.824 153.754 238.729 155.799 243.607C156.416 245.083 156.995 246.736 157.514 248.594C157.521 248.621 157.53 248.651 157.537 248.678C157.537 248.678 157.537 248.678 157.539 248.676C157.643 248.6 163.002 244.695 164.229 238.61C165.443 232.583 162.602 224.415 146.577 215.717C146.577 215.717 131.382 209.554 113.569 212.144C113.567 212.142 113.564 212.144 113.562 212.144C103.207 213.648 91.9681 218.112 82.3129 228.456C82.3165 228.456 66.1354 246.807 79.75 270.133Z" fill="#231F20"/>
<path d="M154.39 256.003C154.503 254.133 153.866 252.573 152.969 252.519C152.071 252.465 151.252 253.937 151.14 255.808C151.027 257.678 151.664 259.239 152.561 259.293C153.459 259.346 154.278 257.874 154.39 256.003Z" fill="#231F20"/>
<path d="M146.308 237.585C146.308 237.585 151.455 239.1 151.098 244.04C150.74 248.98 131.051 255.502 131.051 255.502C131.051 255.502 125.081 250.415 146.308 237.585Z" fill="#231F20"/>
<path d="M136.922 284.224C137.637 287.542 142.398 289.061 146.936 287.732C148.751 287.201 149.57 286.786 150.639 285.395C150.639 285.395 151.625 283.779 151.68 283.655C152.124 282.648 151.931 282.42 150.883 282.055C148.122 281.094 140.364 278.4 138.996 278.51C137.662 278.616 136.497 279.239 136.594 281.862C136.617 282.516 136.722 283.294 136.922 284.224Z" fill="#231F20"/>
<path d="M136.924 284.199C137.623 287.521 142.32 289.351 147.274 287.629C146.464 283.218 138.579 281.985 136.607 281.836C136.628 282.491 136.729 283.27 136.924 284.199Z" fill="#B62325"/>
<path d="M159.321 274.054C161.558 274.119 162.562 273.346 162.562 273.346C165.566 269.207 160.048 264.216 159.93 264.106C159.928 264.104 159.928 264.104 159.928 264.104C159.928 264.104 155.551 264.412 154.806 269.483C154.059 274.554 159.321 274.054 159.321 274.054Z" fill="#EE8780"/>
<path opacity="0.46" d="M158.284 266.115C160.358 265.971 161.681 260.668 161.239 254.27C160.797 247.872 158.758 242.801 156.683 242.945C154.609 243.088 153.286 248.391 153.728 254.789C154.17 261.187 156.21 266.258 158.284 266.115Z" fill="#62C7D1"/>
<path d="M158.284 266.115C160.358 265.971 161.681 260.668 161.239 254.27C160.797 247.872 158.758 242.801 156.683 242.945C154.609 243.088 153.286 248.391 153.728 254.789C154.17 261.187 156.21 266.258 158.284 266.115Z" stroke="#9C7A2C" stroke-width="1.03306" stroke-miterlimit="10"/>
<path d="M153.69 253.831L110.512 261.001" stroke="#9C7A2C" stroke-width="1.03306" stroke-miterlimit="10"/>
<path d="M117.756 294.058C117.756 294.058 112.036 291.603 109.542 289.092C109.542 289.092 112.703 298.205 117.178 301.864C117.178 301.864 117.04 296.715 117.756 294.058Z" fill="#EE8780"/>
<path d="M113.571 212.144C148.76 209.653 164.229 238.619 164.229 238.619C164.231 238.617 164.231 238.614 164.233 238.61C165.447 232.583 162.606 224.415 146.581 215.717C146.581 215.717 131.384 209.554 113.571 212.144Z" fill="#3A3A3A"/>
<path d="M92.869 314.984C92.869 314.984 96.6232 306.745 101.413 307.551C101.765 307.609 113.804 318.7 120.93 333.918C128.056 349.136 126.707 354.37 126.707 354.37L97.6303 356.382C97.6303 356.384 85.8511 337.463 92.869 314.984Z" fill="white"/>
<path d="M125.605 354.042L129.113 365.844L168.339 371.228C168.339 371.228 173.229 363.223 172.505 363.122C171.781 363.021 188.182 365.032 187.562 369.368C186.943 373.706 187.449 381.894 178.229 380.701C169.01 379.508 138.185 382.93 118.027 377.496L109.034 355.189L125.605 354.042Z" fill="url(#paint6_linear_1_10496)"/>
<path d="M143.533 400.221L144.315 400.749V510.103L138.986 440.348L143.533 400.221Z" fill="url(#paint7_linear_1_10496)"/>
</g>
</g>
<defs>
<linearGradient id="paint0_linear_1_10496" x1="262.613" y1="510.756" x2="237.668" y2="-38.0409" gradientUnits="userSpaceOnUse">
<stop stop-color="#F2F2F2"/>
<stop offset="1" stop-color="#FFDE94"/>
</linearGradient>
<linearGradient id="paint1_linear_1_10496" x1="279.178" y1="372.856" x2="288.823" y2="269.265" gradientUnits="userSpaceOnUse">
<stop offset="0.6882" stop-color="#F9BBA7"/>
<stop offset="1" stop-color="#F48E86"/>
</linearGradient>
<linearGradient id="paint2_linear_1_10496" x1="287.255" y1="346.252" x2="284.072" y2="346.252" gradientUnits="userSpaceOnUse">
<stop offset="0.6882" stop-color="#F9BBA7"/>
<stop offset="1" stop-color="#F48E86"/>
</linearGradient>
<linearGradient id="paint3_linear_1_10496" x1="307.929" y1="205.866" x2="306.919" y2="140.465" gradientUnits="userSpaceOnUse">
<stop offset="0.6882" stop-color="#F9BBA7"/>
<stop offset="1" stop-color="#F48E86"/>
</linearGradient>
<linearGradient id="paint4_linear_1_10496" x1="430.504" y1="157.53" x2="402.847" y2="198.879" gradientUnits="userSpaceOnUse">
<stop offset="0.6882" stop-color="#F9BBA7"/>
<stop offset="1" stop-color="#F48E86"/>
</linearGradient>
<linearGradient id="paint5_linear_1_10496" x1="145.581" y1="311.578" x2="112.359" y2="239.19" gradientUnits="userSpaceOnUse">
<stop offset="0.6129" stop-color="#F8BBA7"/>
<stop offset="0.9088" stop-color="#EE8780"/>
</linearGradient>
<linearGradient id="paint6_linear_1_10496" x1="109.172" y1="354.862" x2="183.124" y2="384.601" gradientUnits="userSpaceOnUse">
<stop offset="0.6129" stop-color="#F8BBA7"/>
<stop offset="0.9088" stop-color="#EE8780"/>
</linearGradient>
<linearGradient id="paint7_linear_1_10496" x1="138.986" y1="455.162" x2="144.316" y2="455.162" gradientUnits="userSpaceOnUse">
<stop offset="0.6129" stop-color="#F8BBA7"/>
<stop offset="0.9088" stop-color="#EE8780"/>
</linearGradient>
<clipPath id="clip0_1_10496">
<rect width="500" height="500" rx="250" fill="white"/>
</clipPath>
<clipPath id="clip1_1_10496">
<rect width="530.992" height="530.992" fill="white" transform="translate(-15.4959 -6.19824)"/>
</clipPath>
</defs>
</svg>
