<svg width="24" height="24" viewBox="0 0 24 24" fill="none" xmlns="http://www.w3.org/2000/svg">
<g clip-path="url(#clip0_3_194)">
<path opacity="0.977" fill-rule="evenodd" clip-rule="evenodd" d="M11.6953 0.445305C12.0634 0.402921 12.4071 0.473233 12.7266 0.656242C15.8203 3.12499 18.9141 5.59373 22.0078 8.06249C22.7299 8.72849 22.8002 9.45506 22.2187 10.2422C21.693 10.6543 21.1226 10.7246 20.5078 10.4531C17.7912 8.31468 15.088 6.15843 12.3984 3.98437C12.283 3.86413 12.1424 3.79382 11.9766 3.77343C11.8922 3.77704 11.8141 3.80048 11.7422 3.84374C9.01636 6.04251 6.282 8.23002 3.53906 10.4062C2.79748 10.7816 2.14904 10.6644 1.59375 10.0547C1.25 9.50779 1.25 8.96095 1.59375 8.41406C4.82241 5.79468 8.06456 3.19313 11.3203 0.609367C11.452 0.558114 11.577 0.503425 11.6953 0.445305ZM9.53906 8.78906C11.1641 8.78123 12.7891 8.78906 14.4141 8.81249C14.4688 8.83593 14.5078 8.87498 14.5312 8.92968C14.5625 9.44531 14.5625 9.96093 14.5312 10.4766C14.4889 10.5329 14.4343 10.5719 14.3672 10.5937C12.7734 10.625 11.1797 10.625 9.58594 10.5937C9.50001 10.5703 9.44531 10.5156 9.42187 10.4297C9.39061 9.92966 9.39061 9.4297 9.42187 8.92968C9.47086 8.88876 9.5099 8.84188 9.53906 8.78906Z" fill="white"/>
<path opacity="0.984" fill-rule="evenodd" clip-rule="evenodd" d="M11.9297 4.80469C14.5462 6.82472 17.1399 8.87939 19.7109 10.9688C19.8866 11.0918 20.0663 11.2089 20.25 11.3203C20.289 12.7425 20.2813 14.1643 20.2266 15.5859C18.8272 15.2895 17.7881 15.7739 17.1094 17.0391C16.8225 17.7457 16.8303 18.4488 17.1328 19.1484C16.539 19.2109 15.9453 19.2109 15.3516 19.1484C14.9656 18.6921 14.5046 18.3327 13.9687 18.0703C14.1194 17.8376 14.2601 17.5876 14.3906 17.3203C14.8078 16.0405 14.4874 14.9858 13.4297 14.1562C12.1568 13.4478 11.0084 13.6119 9.98437 14.6484C9.37237 15.4445 9.23175 16.3195 9.5625 17.2734C9.6749 17.5451 9.82331 17.7952 10.0078 18.0234C9.76523 18.1951 9.5152 18.3592 9.25781 18.5156C9.00782 18.7031 8.78906 18.9219 8.60156 19.1719C8.00718 19.2109 7.41346 19.2031 6.82031 19.1484C7.31278 17.8291 7.00031 16.7432 5.88281 15.8906C5.20251 15.4775 4.48375 15.3759 3.72656 15.5859C3.67188 14.1643 3.66406 12.7425 3.70312 11.3203C6.4784 9.18703 9.22059 7.01517 11.9297 4.80469ZM9.53906 8.78906C9.5099 8.84189 9.47085 8.88877 9.42187 8.92969C9.3906 9.4297 9.3906 9.92967 9.42187 10.4297C9.44531 10.5156 9.50001 10.5703 9.58593 10.5938C11.1797 10.625 12.7734 10.625 14.3672 10.5938C14.4343 10.572 14.4889 10.5329 14.5312 10.4766C14.5625 9.96094 14.5625 9.44531 14.5312 8.92969C14.5078 8.87498 14.4688 8.83594 14.4141 8.8125C12.7891 8.78906 11.1641 8.78123 9.53906 8.78906Z" fill="white"/>
<path opacity="0.968" fill-rule="evenodd" clip-rule="evenodd" d="M11.7424 14.6016C13.0218 14.6075 13.6702 15.2482 13.6877 16.5234C13.4396 17.6438 12.7443 18.136 11.6018 18C10.5912 17.658 10.1616 16.9626 10.3127 15.9141C10.5399 15.2031 11.0165 14.7656 11.7424 14.6016Z" fill="white"/>
<path opacity="0.968" fill-rule="evenodd" clip-rule="evenodd" d="M4.05493 16.3828C5.48363 16.3038 6.17893 16.9757 6.14087 18.3985C5.91976 19.2749 5.35726 19.7436 4.45337 19.8047C3.26287 19.6579 2.70037 18.986 2.76587 17.7891C2.91267 17.0565 3.34236 16.5878 4.05493 16.3828Z" fill="white"/>
<path opacity="0.968" fill-rule="evenodd" clip-rule="evenodd" d="M19.1012 16.3828C20.5068 16.2964 21.2021 16.9526 21.1871 18.3515C20.9875 19.2542 20.425 19.7385 19.4996 19.8047C18.2843 19.6518 17.7218 18.9643 17.8121 17.7422C17.98 17.0353 18.4097 16.5822 19.1012 16.3828Z" fill="white"/>
<path opacity="0.971" fill-rule="evenodd" clip-rule="evenodd" d="M11.5078 18.4922C13.0701 18.371 14.2654 18.9648 15.0938 20.2735C15.3514 20.7416 15.4998 21.2416 15.5391 21.7735C13.164 21.7735 10.7891 21.7735 8.41406 21.7735C8.69063 19.9657 9.72188 18.872 11.5078 18.4922Z" fill="white"/>
<path opacity="0.976" fill-rule="evenodd" clip-rule="evenodd" d="M4.14844 20.2266C5.69363 20.1903 6.85767 20.8309 7.64062 22.1484C7.84036 22.5756 7.9732 23.0209 8.03906 23.4844C5.66409 23.5078 3.28912 23.5156 0.914062 23.5078C1.17519 21.6061 2.25332 20.5123 4.14844 20.2266Z" fill="white"/>
<path opacity="0.976" fill-rule="evenodd" clip-rule="evenodd" d="M19.1953 20.2266C21.0362 20.2046 22.2784 21.0483 22.9219 22.7579C22.9943 23.003 23.0334 23.253 23.0391 23.5079C20.664 23.5157 18.289 23.5079 15.9141 23.4844C16.2253 21.6029 17.319 20.5169 19.1953 20.2266Z" fill="white"/>
</g>
<defs>
<clipPath id="clip0_3_194">
<rect width="24" height="24" fill="white"/>
</clipPath>
</defs>
</svg>
