<svg width="24" height="24" viewBox="0 0 24 24" fill="none" xmlns="http://www.w3.org/2000/svg">
<g clip-path="url(#clip0_3_211)">
<path opacity="0.993" fill-rule="evenodd" clip-rule="evenodd" d="M23.9766 11.2734C23.9766 11.5078 23.9766 11.7422 23.9766 11.9766C23.8223 12.3532 23.5567 12.6266 23.1797 12.7969C22.4793 12.8641 21.7762 12.8875 21.0703 12.8672C21.0781 16.1485 21.0703 19.4297 21.0469 22.7109C21.0263 22.9946 20.8935 23.2055 20.6484 23.3438C18.5256 23.4209 16.4006 23.4365 14.2734 23.3906C14.0082 23.3439 13.8285 23.1955 13.7344 22.9453C13.7109 20.8672 13.7031 18.7891 13.7109 16.7109C12.5547 16.7109 11.3985 16.7109 10.2422 16.7109C10.25 18.7891 10.2422 20.8672 10.2188 22.9453C10.1247 23.1955 9.94495 23.3439 9.67969 23.3906C7.55255 23.4365 5.42756 23.4209 3.30469 23.3438C3.05962 23.2055 2.9268 22.9946 2.90625 22.7109C2.88281 19.4297 2.875 16.1485 2.88281 12.8672C2.17695 12.8875 1.47383 12.8641 0.773438 12.7969C0.382308 12.6169 0.116683 12.3279 -0.0234375 11.9297C-0.0234375 11.7109 -0.0234375 11.4922 -0.0234375 11.2734C0.0994313 10.9748 0.286931 10.717 0.539062 10.5C4.05469 7.29689 7.57031 4.09375 11.0859 0.890625C11.6797 0.421875 12.2734 0.421875 12.8672 0.890625C16.4844 4.19531 20.1015 7.5 23.7188 10.8047C23.8186 10.9578 23.9045 11.1141 23.9766 11.2734Z" fill="white"/>
<path opacity="0.958" fill-rule="evenodd" clip-rule="evenodd" d="M16.1016 1.94531C17.7266 1.9375 19.3516 1.94531 20.9766 1.96875C21.318 2.04458 21.5133 2.25552 21.5625 2.60156C21.6015 4.05494 21.5938 5.50805 21.5391 6.96094C19.8133 5.41491 18.0945 3.86023 16.3828 2.29688C16.2601 2.19817 16.1663 2.08098 16.1016 1.94531Z" fill="white"/>
</g>
<defs>
<clipPath id="clip0_3_211">
<rect width="24" height="24" fill="white"/>
</clipPath>
</defs>
</svg>
