<svg width="24" height="24" viewBox="0 0 24 24" fill="none" xmlns="http://www.w3.org/2000/svg">
<g clip-path="url(#clip0_4_354)">
<path opacity="0.967" fill-rule="evenodd" clip-rule="evenodd" d="M10.7578 2.97659C11.606 2.95442 12.4497 2.97785 13.2891 3.0469C13.4674 3.23868 13.5221 3.46524 13.4531 3.72659C13.3612 3.85012 13.244 3.93606 13.1016 3.9844C12.899 4.0078 12.6959 4.01561 12.4922 4.00784C12.4922 4.16409 12.4922 4.32034 12.4922 4.47659C14.4992 4.77345 15.8976 5.85158 16.6875 7.71097C16.7799 7.9714 16.8503 8.237 16.8984 8.50784C13.6172 8.50784 10.3359 8.50784 7.05469 8.50784C7.4273 6.76822 8.42728 5.54164 10.0547 4.82815C10.5095 4.65196 10.9782 4.53477 11.4609 4.47659C11.4609 4.32034 11.4609 4.16409 11.4609 4.00784C11.2572 4.01561 11.0541 4.0078 10.8516 3.9844C10.4968 3.86327 10.3796 3.62108 10.5 3.25784C10.5638 3.1396 10.6497 3.04585 10.7578 2.97659ZM10.9922 5.60159C11.5457 5.53761 11.7566 5.77198 11.625 6.30472C11.5703 6.35942 11.5156 6.41408 11.4609 6.46878C11.0863 6.57012 10.727 6.71075 10.3828 6.89065C10.024 7.17139 9.6803 7.46825 9.35156 7.78128C8.883 7.82825 8.68772 7.61731 8.76562 7.14847C9.34266 6.39509 10.0848 5.87947 10.9922 5.60159Z" fill="white"/>
<path opacity="0.975" fill-rule="evenodd" clip-rule="evenodd" d="M-0.0234375 9.3986C-0.0234375 9.14861 -0.0234375 8.89858 -0.0234375 8.6486C0.132895 8.29718 0.39852 8.07058 0.773438 7.96891C1.15145 7.92846 1.52645 7.94407 1.89844 8.01579C2.23043 8.17577 2.44137 8.43358 2.53125 8.78922C2.9529 10.3665 3.36697 11.9447 3.77344 13.5236C4.88292 13.5158 5.99231 13.5236 7.10156 13.547C7.69908 13.6466 8.09752 13.9826 8.29688 14.5548C8.43234 14.9194 8.49483 15.2944 8.48438 15.6798C8.34206 16.1891 8.00611 16.4704 7.47656 16.5236C7.81148 17.8008 8.13183 19.0821 8.4375 20.3673C8.41664 20.9136 8.14317 21.0933 7.61719 20.9064C7.54458 20.8495 7.48992 20.7792 7.45312 20.6955C7.0867 19.2923 6.73514 17.886 6.39844 16.4767C5.21095 16.4767 4.02344 16.4767 2.83594 16.4767C2.54036 17.8686 2.23567 19.2592 1.92188 20.6486C1.832 20.8693 1.66793 20.9787 1.42969 20.9767C1.08594 20.9767 0.914062 20.8048 0.914062 20.4611C1.2029 19.1027 1.48415 17.7433 1.75781 16.383C1.25792 16.2146 0.937608 15.8708 0.796875 15.3517C0.529022 13.3598 0.255584 11.3754 -0.0234375 9.3986Z" fill="white"/>
<path opacity="0.976" fill-rule="evenodd" clip-rule="evenodd" d="M23.9765 8.64845C23.9765 8.89843 23.9765 9.14846 23.9765 9.39845C23.6975 11.3753 23.424 13.3597 23.1562 15.3516C23.0159 15.8687 22.6956 16.2124 22.1952 16.3828C22.4689 17.7432 22.7501 19.1026 23.039 20.4609C22.9921 20.9149 22.7421 21.079 22.289 20.9531C22.1539 20.8945 22.068 20.793 22.0312 20.6484C21.7174 19.2591 21.4127 17.8684 21.1171 16.4766C19.9296 16.4766 18.7421 16.4766 17.5546 16.4766C17.2105 17.8997 16.859 19.3217 16.4999 20.7422C16.2844 20.9834 16.0266 21.0381 15.7265 20.9063C15.5995 20.793 15.5214 20.6524 15.4921 20.4844C15.8241 19.1486 16.1522 17.8127 16.4765 16.4766C15.7637 16.4121 15.4278 16.0215 15.4687 15.3047C15.5173 14.7513 15.7282 14.2748 16.1015 13.875C16.3224 13.7023 16.5724 13.5929 16.8515 13.5469C17.9607 13.5234 19.0701 13.5156 20.1796 13.5234C20.5705 12.0067 20.969 10.4911 21.3749 8.97657C21.4469 8.45157 21.736 8.11567 22.2421 7.96876C22.5546 7.9375 22.8671 7.9375 23.1796 7.96876C23.5545 8.07043 23.8201 8.29703 23.9765 8.64845Z" fill="white"/>
<path opacity="0.967" fill-rule="evenodd" clip-rule="evenodd" d="M4.85156 9.44532C9.44536 9.43749 14.0391 9.44532 18.6328 9.46876C18.8125 9.52346 18.9297 9.64065 18.9844 9.82032C19.0156 10.2578 19.0156 10.6953 18.9844 11.1328C18.9297 11.3125 18.8125 11.4297 18.6328 11.4844C14.0391 11.5156 9.44531 11.5156 4.85156 11.4844C4.70508 11.4385 4.58789 11.3525 4.5 11.2266C4.46875 10.7266 4.46875 10.2266 4.5 9.72657C4.59886 9.60366 4.71605 9.50991 4.85156 9.44532Z" fill="white"/>
<path opacity="0.971" fill-rule="evenodd" clip-rule="evenodd" d="M10.9449 12.4453C11.6324 12.4453 12.3199 12.4453 13.0074 12.4453C12.9996 14.586 13.0074 16.7266 13.0309 18.8672C13.0835 18.9668 13.1538 19.0527 13.2418 19.125C13.6287 19.377 14.0115 19.6348 14.3902 19.8984C14.5875 20.2941 14.5328 20.6457 14.2262 20.9531C12.7262 20.9844 11.2262 20.9844 9.72617 20.9531C9.41956 20.6457 9.36486 20.2941 9.56211 19.8984C9.94086 19.6348 10.3237 19.377 10.7105 19.125C10.7986 19.0527 10.8689 18.9668 10.9215 18.8672C10.9449 16.7266 10.9528 14.586 10.9449 12.4453Z" fill="white"/>
</g>
<defs>
<clipPath id="clip0_4_354">
<rect width="24" height="24" fill="white"/>
</clipPath>
</defs>
</svg>
