<svg width="24" height="24" viewBox="0 0 24 24" fill="none" xmlns="http://www.w3.org/2000/svg">
<path opacity="0.987" fill-rule="evenodd" clip-rule="evenodd" d="M11.3202 1.47658C13.0745 1.28776 14.4417 1.91276 15.4217 3.35158C16.0676 4.64984 16.1302 5.97794 15.6092 7.33596C15.1853 8.49007 14.4744 9.41979 13.4764 10.125C12.2486 10.7483 11.0923 10.6389 10.0077 9.79689C8.50566 8.38389 7.85724 6.65735 8.06236 4.61721C8.46961 2.85826 9.55557 1.81139 11.3202 1.47658Z" fill="white"/>
<path opacity="0.98" fill-rule="evenodd" clip-rule="evenodd" d="M6.91403 10.7109C7.82041 10.7031 8.72669 10.7109 9.63278 10.7344C10.2502 10.965 10.8439 11.2462 11.414 11.5781C11.789 11.7344 12.164 11.7344 12.539 11.5781C13.0985 11.2593 13.6766 10.9781 14.2734 10.7344C15.1953 10.7031 16.1171 10.7031 17.039 10.7344C17.9356 10.9434 18.5372 11.4825 18.8437 12.3516C19.5 14.1641 20.1562 15.9766 20.8125 17.7891C21.0138 18.5035 20.7716 18.9957 20.0859 19.2656C19.0391 19.2891 17.9923 19.2969 16.9453 19.2891C16.9014 17.4287 16.831 15.5693 16.7343 13.7109C16.5905 13.1376 16.2234 12.8251 15.6328 12.7734C14.4048 13.1843 13.1861 13.6217 11.9765 14.0859C10.85 13.6766 9.72499 13.2625 8.60153 12.8438C7.9038 12.7123 7.44283 12.9858 7.21872 13.6641C7.13275 15.5249 7.04678 17.3843 6.96091 19.2422C5.93003 19.2968 4.89878 19.3047 3.86716 19.2656C3.24229 19.04 2.98448 18.5947 3.09372 17.9297C3.78122 16.0234 4.46872 14.1172 5.15622 12.2109C5.49372 11.412 6.07966 10.912 6.91403 10.7109Z" fill="white"/>
<path opacity="0.988" fill-rule="evenodd" clip-rule="evenodd" d="M8.13281 13.5234C8.25877 13.5158 8.38378 13.5236 8.50781 13.5469C9.65887 13.9905 10.8151 14.4202 11.9766 14.8359C13.138 14.4202 14.2943 13.9905 15.4453 13.5469C15.7002 13.4693 15.8955 13.5396 16.0312 13.7578C16.13 16.0876 16.2315 18.4157 16.3359 20.7422C16.3225 20.913 16.2444 21.0458 16.1016 21.1406C14.7331 21.6098 13.3581 22.0551 11.9766 22.4766C10.5603 22.0487 9.15403 21.5878 7.75781 21.0938C7.68333 20.9798 7.63645 20.8548 7.61719 20.7188C7.71933 18.3989 7.82091 16.0786 7.92188 13.7578C7.96992 13.6553 8.04023 13.5772 8.13281 13.5234Z" fill="white"/>
</svg>
