<svg width="24" height="24" viewBox="0 0 24 24" fill="none" xmlns="http://www.w3.org/2000/svg">
<g clip-path="url(#clip0_3_149)">
<path opacity="0.982" fill-rule="evenodd" clip-rule="evenodd" d="M5.13302 -0.0234375C5.47676 -0.0234375 5.82054 -0.0234375 6.16427 -0.0234375C7.83382 0.452491 8.5916 1.56187 8.43771 3.30469C8.08479 4.77389 7.15512 5.55516 5.64865 5.64844C4.43943 5.61038 3.57224 5.04787 3.04709 3.96094C2.53696 2.53838 2.8729 1.3587 4.0549 0.421875C4.39799 0.218606 4.75737 0.0701686 5.13302 -0.0234375Z" fill="white"/>
<path opacity="0.982" fill-rule="evenodd" clip-rule="evenodd" d="M17.7889 -0.0234375C18.1326 -0.0234375 18.4764 -0.0234375 18.8201 -0.0234375C20.2621 0.356534 21.0433 1.29404 21.1639 2.78906C21.0959 4.01222 20.5178 4.89502 19.4295 5.4375C17.8761 5.95308 16.6652 5.52338 15.7967 4.14844C15.196 2.7786 15.4381 1.58329 16.5233 0.5625C16.9138 0.288977 17.3357 0.0936642 17.7889 -0.0234375Z" fill="white"/>
<path opacity="0.983" fill-rule="evenodd" clip-rule="evenodd" d="M6.35188 5.74217C8.23574 5.59475 9.80605 6.21973 11.0628 7.61717C11.3947 8.01941 11.6994 8.44128 11.9769 8.8828C13.7084 6.00608 16.1615 5.12328 19.3363 6.23436C21.3309 7.2942 22.4325 8.95827 22.6409 11.2265C22.7725 12.8409 22.3975 14.3253 21.5159 15.6797C20.8844 16.551 20.1968 17.3792 19.4534 18.164C18.8519 18.7344 18.2503 19.3047 17.6488 19.875C17.0591 20.23 16.481 20.2144 15.9144 19.8281C15.2939 19.1779 15.2392 18.4825 15.7503 17.7422C16.9254 16.7233 18.0036 15.614 18.9847 14.414C19.4952 13.768 19.7687 13.0336 19.805 12.2109C19.3519 12.2109 18.8988 12.2109 18.4456 12.2109C18.4342 12.5065 18.3639 12.7877 18.2347 13.0547C17.9586 13.5183 17.6461 13.9558 17.2972 14.3672C16.6084 15.0717 15.9052 15.7592 15.1878 16.4297C13.0465 15.2423 10.9058 15.2423 8.76594 16.4297C7.87382 15.6157 7.03007 14.7563 6.23469 13.8515C6.05113 13.5939 5.87929 13.3283 5.71907 13.0547C5.58984 12.7877 5.51952 12.5065 5.50813 12.2109C5.05499 12.2109 4.60188 12.2109 4.14876 12.2109C4.1851 13.0336 4.45854 13.768 4.96907 14.414C5.89551 15.5593 6.91893 16.6139 8.03938 17.5781C8.63385 18.2023 8.70416 18.882 8.25032 19.6172C7.81579 20.0754 7.29238 20.2239 6.68001 20.0625C5.23302 18.8811 3.92831 17.5608 2.76594 16.1015C1.13806 13.8726 0.856811 11.482 1.9222 8.92967C2.84376 7.09381 4.32032 6.0313 6.35188 5.74217ZM11.5081 9.91405C12.948 9.80164 13.9715 10.3954 14.5784 11.6953C15.027 13.2723 14.5348 14.452 13.1019 15.2344C11.4831 15.7625 10.2565 15.286 9.42219 13.8047C8.90423 12.2332 9.34954 11.0223 10.7581 10.1719C11.0087 10.0701 11.2587 9.98422 11.5081 9.91405Z" fill="white"/>
<path opacity="0.967" fill-rule="evenodd" clip-rule="evenodd" d="M11.6016 11.2735C12.8741 11.1943 13.46 11.7881 13.3594 13.0547C13.0487 13.8703 12.4627 14.2062 11.6016 14.0625C10.7886 13.7574 10.4527 13.1715 10.5938 12.3047C10.7508 11.7806 11.0868 11.4368 11.6016 11.2735Z" fill="white"/>
<path opacity="0.98" fill-rule="evenodd" clip-rule="evenodd" d="M12.5859 23.9765C12.2734 23.9765 11.961 23.9765 11.6484 23.9765C11.316 23.8783 11.0034 23.7298 10.7109 23.5312C9.87295 22.7789 9.0292 22.0367 8.17969 21.3046C9.74414 20.4553 10.2285 19.1897 9.63281 17.5078C11.1773 16.7124 12.7319 16.6968 14.2969 17.4609C13.8846 18.4752 13.9783 19.4439 14.5781 20.3671C14.96 20.8119 15.4209 21.1479 15.9609 21.3749C15.1328 22.1093 14.3047 22.8437 13.4766 23.5781C13.1975 23.7618 12.9007 23.8946 12.5859 23.9765Z" fill="white"/>
</g>
<defs>
<clipPath id="clip0_3_149">
<rect width="24" height="24" fill="white"/>
</clipPath>
</defs>
</svg>
