<svg width="24" height="24" viewBox="0 0 24 24" fill="none" xmlns="http://www.w3.org/2000/svg">
<g clip-path="url(#clip0_3_133)">
<path opacity="0.986" fill-rule="evenodd" clip-rule="evenodd" d="M23.9766 12.9609C23.9766 13.3046 23.9766 13.6484 23.9766 13.9922C23.6121 15.2782 22.7684 16.0438 21.4453 16.289C20.0235 19.9217 17.3985 22.117 13.5703 22.875C9.10664 23.3733 5.67694 21.7405 3.28125 17.9765C2.98493 17.4308 2.72712 16.8683 2.50781 16.289C1.18477 16.0438 0.341021 15.2782 -0.0234375 13.9922C-0.0234375 13.6484 -0.0234375 13.3046 -0.0234375 12.9609C0.191813 12.0262 0.738689 11.3543 1.61719 10.9453C1.63281 10.8984 1.64844 10.8515 1.66406 10.8047C1.47405 9.49605 1.43499 8.18355 1.54688 6.86716C1.94027 4.77053 3.1512 3.3877 5.17969 2.71872C5.71683 2.5613 6.26367 2.45192 6.82031 2.3906C8.68786 0.857025 10.8285 0.232026 13.2422 0.515597C15.3528 0.707058 17.3215 1.33206 19.1484 2.3906C21.6444 3.93735 22.746 6.17955 22.4531 9.11716C22.4167 9.68153 22.362 10.244 22.2891 10.8047C22.3047 10.8515 22.3203 10.8984 22.3359 10.9453C23.2144 11.3543 23.7613 12.0262 23.9766 12.9609ZM8.32031 8.13278C9.50259 9.06766 10.8307 9.73174 12.3047 10.125C13.3205 10.4063 14.3517 10.6094 15.3984 10.7343C16.7336 10.8816 18.0696 10.9832 19.4062 11.039C19.7031 12.0859 20 13.1328 20.2969 14.1797C20.2496 14.9469 20.0621 15.6813 19.7344 16.3828C18.1591 19.6046 15.5731 21.2921 11.9766 21.4453C8.73108 21.3292 6.27014 19.8917 4.59375 17.1328C4.11007 16.2677 3.78976 15.3458 3.63281 14.3672C3.92907 13.2048 4.24938 12.0486 4.59375 10.8984C5.86308 10.4829 6.95681 9.79539 7.875 8.83591C8.05369 8.61869 8.20214 8.38432 8.32031 8.13278Z" fill="white"/>
<path opacity="0.965" fill-rule="evenodd" clip-rule="evenodd" d="M7.57031 11.9766C8.44537 11.8319 9.06253 12.16 9.42188 12.9609C9.64266 13.9336 9.29109 14.5977 8.36719 14.9531C7.23623 15.0914 6.59564 14.5993 6.44531 13.4766C6.50353 12.7336 6.87853 12.2337 7.57031 11.9766Z" fill="white"/>
<path opacity="0.965" fill-rule="evenodd" clip-rule="evenodd" d="M15.5855 11.9765C16.7156 11.8608 17.3562 12.3608 17.5074 13.4765C17.4209 14.4224 16.9053 14.9224 15.9605 14.9765C15.2665 14.969 14.79 14.6409 14.5308 13.9921C14.3161 13.0151 14.6676 12.3433 15.5855 11.9765Z" fill="white"/>
<path opacity="0.958" fill-rule="evenodd" clip-rule="evenodd" d="M9.30445 16.9454C9.46575 16.936 9.62198 16.9595 9.7732 17.0157C10.0076 17.1876 10.242 17.3594 10.4763 17.5313C11.4763 18.1251 12.4763 18.1251 13.4763 17.5313C13.7107 17.3594 13.9451 17.1876 14.1795 17.0157C14.7017 16.8666 15.0532 17.0463 15.2341 17.5547C15.2759 17.7937 15.229 18.0125 15.0935 18.211C13.693 19.4902 12.0915 19.8105 10.2888 19.1719C9.74353 18.9503 9.26695 18.63 8.85914 18.211C8.56701 17.6261 8.71547 17.2042 9.30445 16.9454Z" fill="white"/>
</g>
<defs>
<clipPath id="clip0_3_133">
<rect width="24" height="24" fill="white"/>
</clipPath>
</defs>
</svg>
