<svg width="24" height="24" viewBox="0 0 24 24" fill="none" xmlns="http://www.w3.org/2000/svg">
<g clip-path="url(#clip0_3_173)">
<path opacity="0.985" fill-rule="evenodd" clip-rule="evenodd" d="M10.3359 -0.0234375C11.4297 -0.0234375 12.5235 -0.0234375 13.6172 -0.0234375C13.7685 0.056993 13.9013 0.166368 14.0156 0.304688C14.2391 0.806255 14.4812 1.29844 14.7422 1.78125C15.7068 2.04544 16.6209 2.42826 17.4844 2.92969C17.8956 2.72798 18.3097 2.53266 18.7266 2.34375C18.9185 2.30778 19.106 2.32341 19.2891 2.39062C20.0299 3.08457 20.7565 3.79551 21.4688 4.52344C21.6175 4.73545 21.6644 4.96983 21.6094 5.22656C21.4205 5.64347 21.2251 6.05752 21.0234 6.46875C21.5795 7.41666 21.9857 8.42447 22.2422 9.49219C22.6802 9.61997 23.1177 9.75277 23.5547 9.89062C23.72 10.0013 23.8606 10.1342 23.9766 10.2891C23.9766 11.4141 23.9766 12.5391 23.9766 13.6641C23.8606 13.8189 23.72 13.9518 23.5547 14.0625C23.1177 14.2004 22.6802 14.3332 22.2422 14.4609C22.0094 15.4484 21.6344 16.3781 21.1172 17.25C21.2902 17.7223 21.4543 18.1988 21.6094 18.6797C21.6594 18.9266 21.6282 19.161 21.5156 19.3828C20.8047 20.0938 20.0938 20.8047 19.3828 21.5156C19.161 21.6282 18.9266 21.6594 18.6797 21.6094C18.1988 21.4543 17.7223 21.2902 17.25 21.1172C16.3781 21.6344 15.4484 22.0094 14.4609 22.2422C14.3332 22.6802 14.2004 23.1177 14.0625 23.5547C13.9518 23.72 13.8189 23.8606 13.6641 23.9766C12.5391 23.9766 11.4141 23.9766 10.2891 23.9766C10.1342 23.8606 10.0013 23.72 9.89062 23.5547C9.75277 23.1177 9.61997 22.6802 9.49219 22.2422C8.50477 22.0094 7.57505 21.6344 6.70312 21.1172C6.23086 21.2902 5.75428 21.4543 5.27344 21.6094C5.0265 21.6594 4.79212 21.6282 4.57031 21.5156C3.85937 20.8047 3.14844 20.0938 2.4375 19.3828C2.32494 19.161 2.29369 18.9266 2.34375 18.6797C2.49881 18.1988 2.66288 17.7223 2.83594 17.25C2.36251 16.467 2.01095 15.6311 1.78125 14.7422C1.29844 14.4812 0.806255 14.2391 0.304688 14.0156C0.166368 13.9013 0.056993 13.7685 -0.0234375 13.6172C-0.0234375 12.5235 -0.0234375 11.4297 -0.0234375 10.3359C0.056993 10.1846 0.166368 10.0518 0.304688 9.9375C0.806255 9.71405 1.29844 9.47189 1.78125 9.21094C2.04544 8.2463 2.42826 7.33223 2.92969 6.46875C2.72798 6.05752 2.53266 5.64347 2.34375 5.22656C2.28878 4.96983 2.33566 4.73545 2.48438 4.52344C3.21376 3.76271 3.97157 3.03615 4.75781 2.34375C4.9297 2.3125 5.10155 2.3125 5.27344 2.34375C5.66902 2.54544 6.06745 2.74075 6.46875 2.92969C7.33223 2.42826 8.2463 2.04544 9.21094 1.78125C9.47189 1.29844 9.71405 0.806255 9.9375 0.304688C10.0518 0.166368 10.1846 0.056993 10.3359 -0.0234375ZM11.1328 4.28906C14.403 4.11538 16.9108 5.39662 18.6562 8.13281C19.842 10.3487 19.9826 12.63 19.0781 14.9766C17.826 17.6389 15.7401 19.1936 12.8203 19.6406C9.54905 19.8371 7.04123 18.5637 5.29688 15.8203C4.11116 13.6044 3.97054 11.3231 4.875 8.97656C6.13683 6.31659 8.22277 4.75411 11.1328 4.28906Z" fill="white"/>
<path opacity="0.985" fill-rule="evenodd" clip-rule="evenodd" d="M11.4136 7.05471C13.1714 6.89815 14.4448 7.60127 15.2339 9.16408C15.8351 10.9067 15.4211 12.352 13.9917 13.5C12.9057 14.1528 11.7651 14.2622 10.5699 13.8281C8.91306 12.9756 8.23337 11.624 8.53079 9.77346C8.95641 8.29301 9.91735 7.38673 11.4136 7.05471Z" fill="white"/>
<path opacity="0.975" fill-rule="evenodd" clip-rule="evenodd" d="M8.50781 14.0859C8.77833 14.2699 9.04392 14.4652 9.30469 14.6719C10.7507 15.5395 12.2663 15.6801 13.8516 15.0938C14.4241 14.8408 14.9397 14.5049 15.3984 14.0859C16.044 14.6742 16.458 15.393 16.6406 16.2422C14.8814 18.0628 12.7642 18.6799 10.2891 18.0938C9.12009 17.7556 8.12789 17.1384 7.3125 16.2422C7.33908 15.9278 7.43283 15.631 7.59375 15.3516C7.85297 14.8952 8.15766 14.4733 8.50781 14.0859Z" fill="white"/>
</g>
<defs>
<clipPath id="clip0_3_173">
<rect width="24" height="24" fill="white"/>
</clipPath>
</defs>
</svg>
