<svg width="500" height="500" viewBox="0 0 500 500" fill="none" xmlns="http://www.w3.org/2000/svg">
<g clip-path="url(#clip0_1_10219)">
<rect width="500" height="500" rx="250" fill="white"/>
<path d="M142.591 332.806L142.354 333.042C139.165 326.073 137.157 318.158 136.33 309.417C137.157 318.04 139.401 325.837 142.591 332.806Z" fill="#DFDFDF"/>
<path d="M218.427 230.864C233.955 230.864 246.542 218.277 246.542 202.75C246.542 187.222 233.955 174.635 218.427 174.635C202.9 174.635 190.313 187.222 190.313 202.75C190.313 218.277 202.9 230.864 218.427 230.864Z" fill="#DFDFDF"/>
<path d="M303.362 131.872H204.371C161.373 131.872 135.739 157.506 135.739 200.504V299.494C135.739 312.37 137.984 323.592 142.354 333.043C152.513 355.487 174.249 368.126 204.371 368.126H303.362C346.36 368.126 371.993 342.493 371.993 299.494V272.443V200.504C371.993 157.506 346.36 131.872 303.362 131.872ZM352.739 255.906C343.525 247.991 328.641 247.991 319.427 255.906L270.286 298.077C261.072 305.991 246.188 305.991 236.974 298.077L232.958 294.769C224.571 287.446 211.222 286.737 201.772 293.116L157.593 322.766C154.994 316.15 153.458 308.472 153.458 299.494V200.504C153.458 167.192 171.059 149.591 204.371 149.591H303.362C336.673 149.591 354.274 167.192 354.274 200.504V257.205L352.739 255.906Z" fill="#DFDFDF"/>
<g clip-path="url(#clip1_1_10219)">
<path d="M610.537 -12.9858H-34.0911V632.429H610.537V-12.9858Z" fill="url(#paint0_linear_1_10219)"/>
<path d="M196.997 143.242C196.997 143.242 197.027 165.248 213.081 168.985C213.081 168.985 209.32 154.566 209.32 146.85C209.32 146.85 207.124 148.026 204.518 148.251L201.952 132.851L196.997 143.242Z" fill="url(#paint1_linear_1_10219)"/>
<path d="M325.562 162.865C325.562 162.865 346.269 152.123 337.447 125.036C337.447 125.036 332.599 132.187 327.728 135.028C327.728 135.028 328.327 152.063 325.562 162.865Z" fill="url(#paint2_linear_1_10219)"/>
<path d="M362.521 430.068L357.806 430.184L235.924 433.149L213.672 433.693L218.156 387.43L218.212 386.835L219.914 386.701L351.336 376.439L357.2 375.979L357.688 375.94L362.521 430.068Z" fill="#CEAA87"/>
<path d="M235.924 396.167V433.149L213.672 433.693L218.212 386.835L219.914 386.702L235.924 396.167Z" fill="#A58972"/>
<path d="M348.203 308.102C348.483 310.483 349.708 318.646 351.106 327.771C353.333 342.276 355.995 359.21 355.995 359.21C360.701 366.269 357.667 374.78 357.202 375.981C357.166 376.076 357.147 376.125 357.147 376.125C354.134 379.578 351.096 382.612 348.04 385.279C348.038 385.281 348.038 385.281 348.036 385.283C329.69 401.278 310.592 403.954 291.599 403.479C291.586 403.477 291.575 403.477 291.558 403.479C282.494 403.247 273.455 402.299 264.533 401.738C242.188 400.333 226.199 394.082 218.158 387.434C215.133 384.931 213.229 382.371 212.541 379.993C210.019 371.292 218.203 361.144 218.203 361.144C216.087 350.144 215.863 337.123 216.323 325.687V325.685C216.964 309.735 215.182 316.886 215.182 316.886L175.527 299.092C198.241 220.802 244.143 208.389 244.143 208.389C281.542 222.796 304.289 202.164 304.289 202.164C304.289 202.164 304.289 202.164 304.291 202.166" fill="#BD2143"/>
<path d="M247.076 208.605C247.076 208.605 251.692 246.357 277.645 245.934C302.959 245.521 302.959 203.457 302.959 203.457L247.076 208.605Z" fill="url(#paint3_linear_1_10219)"/>
<path d="M327.723 136.235C327.723 136.235 332.556 212.11 271.662 213.56C210.768 215.011 209.32 147.351 209.32 147.351V99.9897H327.814L327.723 136.235Z" fill="url(#paint4_linear_1_10219)"/>
<path d="M342.832 113.897V113.899C337.967 128.882 327.726 135.028 327.726 135.028L327.743 128.865C320.929 127.43 306.03 100.416 305.798 99.9944C311.956 121.497 311.773 131.401 311.773 131.401C287.853 133.577 254.505 99.9902 254.505 99.9902H251.969C226.96 146.141 204.516 148.253 204.516 148.253L201.948 132.853L196.995 143.245C189.384 133.82 182.979 113.04 185.276 99.9902C188.018 84.3988 214.271 39.3392 268.566 38.613C275.681 38.5184 282.209 39.1373 288.18 40.2911C319.866 46.3958 335.908 67.4192 341.055 75.5759C342.312 77.5678 343.201 79.7682 343.682 82.0738C346.489 95.452 345.423 105.925 342.832 113.897Z" fill="black"/>
<path d="M254.157 123.798C254.157 123.798 261.097 129.645 257.186 137.054C253.276 144.463 218.343 141.18 218.343 141.18C218.343 141.18 212.55 129.241 254.157 123.798Z" fill="black"/>
<path d="M289.474 123.798C289.474 123.798 282.533 129.645 286.444 137.054C290.355 144.463 325.287 141.18 325.287 141.18C325.287 141.18 331.082 129.241 289.474 123.798Z" fill="black"/>
<path d="M239.093 162.76C240.995 162.76 242.536 160.085 242.536 156.786C242.536 153.487 240.995 150.812 239.093 150.812C237.192 150.812 235.651 153.487 235.651 156.786C235.651 160.085 237.192 162.76 239.093 162.76Z" fill="black"/>
<path d="M294.016 162.866C295.917 162.866 297.458 160.191 297.458 156.892C297.458 153.593 295.917 150.918 294.016 150.918C292.115 150.918 290.574 153.593 290.574 156.892C290.574 160.191 292.115 162.866 294.016 162.866Z" fill="black"/>
<path d="M288.547 192.862C288.173 193.755 287.604 194.658 286.867 195.524C286.867 195.524 286.867 195.526 286.865 195.528C282.034 201.227 270.074 205.533 259.872 197.776C259.872 197.776 259.434 197.458 258.819 196.753C257.914 195.719 256.625 193.85 255.763 190.928C255.763 190.928 254.857 188.358 257.452 188.029C257.452 188.029 271.469 190.444 286.052 186.98C286.057 186.983 291.366 186.097 288.547 192.862Z" fill="black"/>
<path d="M336.02 278.56L336.504 269.136" stroke="#EF8981" stroke-width="2.06612" stroke-miterlimit="10"/>
<path d="M329.657 283.393V275.337" stroke="#EF8981" stroke-width="2.06612" stroke-miterlimit="10"/>
<path d="M321.844 289.111V280.009" stroke="#EF8981" stroke-width="2.06612" stroke-miterlimit="10"/>
<path d="M409.471 279.376L409.479 279.371V279.379" fill="url(#paint5_linear_1_10219)"/>
<path d="M270.032 159.567C267.921 162.676 264.486 169.03 265.201 176.636C265.287 177.558 265.917 178.336 266.793 178.633C268.961 179.365 273.397 180.266 278.457 177.908C279.342 177.496 279.879 176.578 279.808 175.605C279.563 172.236 278.474 164.189 273.626 159.238C272.599 158.189 270.857 158.35 270.032 159.567Z" fill="#EF8981"/>
<path d="M216.862 325.503L221.207 255.614L224.699 322.585L216.862 325.503Z" fill="#9C1E45"/>
<path d="M292.185 403.293C292.185 403.293 292.17 403.293 292.14 403.295C292.127 403.293 292.116 403.293 292.099 403.295C283.036 403.063 273.996 402.115 265.074 401.554C234.321 399.62 215.605 388.505 213.083 379.809C210.56 371.108 218.745 360.96 218.745 360.96C216.628 349.96 216.405 336.939 216.865 325.503L224.701 321.618C224.701 321.618 224.304 370.264 277.647 364.828C277.647 364.828 268.282 378.962 235.662 372.438C235.66 372.438 242.506 399.354 292.185 403.293Z" fill="#9C1E45"/>
<path d="M283.977 402.925L285.674 429.896H296.794V403.294L283.977 402.925Z" stroke="#A58972" stroke-width="2.06612" stroke-miterlimit="10"/>
<path d="M342.832 113.897C342.714 64.1382 288.18 40.2891 288.18 40.2891H288.182C319.868 46.3937 335.911 67.4172 341.057 75.5739C342.314 77.5658 343.203 79.7661 343.685 82.0717C346.489 95.452 345.423 105.925 342.832 113.897Z" fill="#EFF3C3"/>
<path d="M362.52 430.067L357.808 430.183L354.091 389.611C353.607 387.322 343.063 388.459 343.063 388.459C343.066 388.457 348.036 385.281 348.038 385.279C349.658 383.216 350.706 380.126 351.336 376.439C354.265 359.236 345.094 307.092 345.094 307.092L348.008 306.711C350.234 321.216 355.995 359.21 355.995 359.21C360.7 366.269 357.666 374.78 357.202 375.981L357.69 375.942L362.52 430.067Z" fill="#EFF3C3"/>
<path d="M286.867 195.525C286.867 195.525 286.867 195.527 286.865 195.529C282.034 201.227 270.074 205.534 259.872 197.777C259.872 197.777 259.434 197.459 258.819 196.754C258.819 196.752 258.819 196.752 258.819 196.752C258.819 196.752 271.505 189.934 286.867 195.525Z" fill="#BD2143"/>
<path d="M186.672 304.09C186.672 304.09 176.666 347.422 137.603 387.224H161.779C161.779 387.224 197.5 355.493 209.32 314.254L186.672 304.09Z" fill="url(#paint6_linear_1_10219)"/>
<path d="M297.187 297.506C297.187 297.506 287.181 343.999 248.118 386.701H272.294C272.294 386.701 308.015 352.656 319.835 308.409L297.187 297.506Z" fill="url(#paint7_linear_1_10219)"/>
<path d="M312.285 234.35L293.85 313.79L348.766 306.611C374.826 213.582 304.289 202.162 304.289 202.162" fill="#BD2143"/>
<path d="M313.875 230.398L283.354 308.961L294.102 313.789L313.875 230.398Z" fill="#9C1E45"/>
<path d="M133.216 316.881L122.536 386.701L166.332 387.223L146.95 316.881H133.216Z" fill="#B1E3F9"/>
<path d="M624.992 434.857H-79.1421V632.231H624.992V434.857Z" fill="#CD9B8E"/>
<path d="M624.991 487.665H-79.1422V491.479H624.991V487.665Z" fill="#C3C6C7"/>
<path d="M624.992 434.857H-79.1421V440.261H624.992V434.857Z" fill="#D2D3D3"/>
<path d="M-105.679 387.052C-118.881 387.052 -129.584 397.753 -129.584 410.955C-129.584 424.157 -118.881 434.86 -105.679 434.86H624.989V387.054H-105.679V387.052Z" fill="#D0B5A8"/>
<path d="M299.3 387.052H-54.2271V413.855H299.3V387.052Z" fill="#535A63"/>
<path opacity="0.2" d="M-105.679 387.052C-118.881 387.052 -129.584 397.753 -129.584 410.955C-129.584 413.106 -129.273 415.179 -128.742 417.158C-126.007 406.971 -116.733 399.463 -105.682 399.463H624.987V387.05H-105.679V387.052Z" fill="white"/>
<path d="M-14.4083 387.224V371.674C-14.4083 367.346 -10.865 363.803 -6.53742 363.803H13.4654C17.7952 363.803 21.3363 367.346 21.3363 371.674V387.224H-14.4083Z" fill="#9AA1A5"/>
<path d="M12.6126 369.487C15.1502 369.487 17.2088 371.543 17.2088 374.083V387.225H8.01636V374.083C8.01636 371.545 10.0749 369.487 12.6126 369.487Z" fill="#ABB1B5"/>
<path d="M-6.53742 363.803C-10.8672 363.803 -14.4083 367.346 -14.4083 371.674V387.224H3.46507V363.803H-6.53742Z" fill="#D2D3D3"/>
<path d="M143.908 387.224V371.674C143.908 367.346 147.451 363.803 151.779 363.803H171.781C176.109 363.803 179.652 367.346 179.652 371.674V387.224H143.908Z" fill="#9AA1A5"/>
<path d="M152.632 369.487C150.094 369.487 148.036 371.543 148.036 374.083V387.225H157.228V374.083C157.228 371.545 155.169 369.487 152.632 369.487Z" fill="#ABB1B5"/>
<path d="M170.929 369.487C173.466 369.487 175.525 371.543 175.525 374.083V387.225H166.332V374.083C166.332 371.545 168.389 369.487 170.929 369.487Z" fill="#ABB1B5"/>
<path d="M151.779 363.803C147.451 363.803 143.908 367.346 143.908 371.674V387.224H161.781V363.803H151.779Z" fill="#D2D3D3"/>
<path d="M127.82 368.92H37.4242V387.225H127.82V368.92Z" fill="#9AA1A5"/>
<path opacity="0.7" d="M82.6234 368.92H37.4242V387.225H82.6234V368.92Z" fill="#D2D3D3"/>
<path d="M89.8367 368.919H75.4056V304.089C75.4056 284.365 91.4526 268.316 111.178 268.316C130.904 268.316 146.951 284.363 146.951 304.089H132.52C132.52 292.32 122.945 282.747 111.178 282.747C99.4094 282.747 89.8367 292.32 89.8367 304.089V368.919Z" fill="#9AA1A5"/>
<path d="M149.903 304.091H129.567L127.517 316.883H151.953L149.903 304.091Z" fill="#535A63"/>
<path d="M101.122 359.484H64.1248V368.921H101.122V359.484Z" fill="#535A63"/>
<path d="M180.785 287.19L219.008 304.752M289.256 297.521L352.273 291.322" stroke="white" stroke-width="2.06612"/>
</g>
</g>
<defs>
<linearGradient id="paint0_linear_1_10219" x1="303.635" y1="-233.897" x2="274.668" y2="787.852" gradientUnits="userSpaceOnUse">
<stop offset="0.1126" stop-color="#F9EBC3"/>
<stop offset="1" stop-color="#CD755C"/>
</linearGradient>
<linearGradient id="paint1_linear_1_10219" x1="196.997" y1="150.919" x2="213.081" y2="150.919" gradientUnits="userSpaceOnUse">
<stop offset="0.6129" stop-color="#F8BBA8"/>
<stop offset="0.9088" stop-color="#EF8981"/>
</linearGradient>
<linearGradient id="paint2_linear_1_10219" x1="364.764" y1="139.34" x2="315.953" y2="146.106" gradientUnits="userSpaceOnUse">
<stop offset="0.6129" stop-color="#F8BBA8"/>
<stop offset="0.9088" stop-color="#EF8981"/>
</linearGradient>
<linearGradient id="paint3_linear_1_10219" x1="282.128" y1="253.076" x2="275.617" y2="210.017" gradientUnits="userSpaceOnUse">
<stop offset="0.6129" stop-color="#F8BBA8"/>
<stop offset="0.9071" stop-color="#EF8981"/>
</linearGradient>
<linearGradient id="paint4_linear_1_10219" x1="278.98" y1="261.391" x2="266.898" y2="101.909" gradientUnits="userSpaceOnUse">
<stop offset="0.6129" stop-color="#F8BBA8"/>
<stop offset="0.9071" stop-color="#EF8981"/>
</linearGradient>
<linearGradient id="paint5_linear_1_10219" x1="409.479" y1="279.362" x2="409.476" y2="279.383" gradientUnits="userSpaceOnUse">
<stop offset="0.6129" stop-color="#F8BBA8"/>
<stop offset="0.9071" stop-color="#EF8981"/>
</linearGradient>
<linearGradient id="paint6_linear_1_10219" x1="137.604" y1="345.657" x2="209.321" y2="345.657" gradientUnits="userSpaceOnUse">
<stop offset="0.6129" stop-color="#F8BBA8"/>
<stop offset="0.9071" stop-color="#EF8981"/>
</linearGradient>
<linearGradient id="paint7_linear_1_10219" x1="248.119" y1="342.104" x2="319.836" y2="342.104" gradientUnits="userSpaceOnUse">
<stop offset="0.6129" stop-color="#F8BBA8"/>
<stop offset="0.9071" stop-color="#EF8981"/>
</linearGradient>
<clipPath id="clip0_1_10219">
<rect width="500" height="500" rx="250" fill="white"/>
</clipPath>
<clipPath id="clip1_1_10219">
<rect width="644.628" height="644.628" fill="white" transform="translate(-34.0909 -12.3965)"/>
</clipPath>
</defs>
</svg>
