<svg width="500" height="500" viewBox="0 0 500 500" fill="none" xmlns="http://www.w3.org/2000/svg">
<g clip-path="url(#clip0_1_9633)">
<rect width="500" height="500" rx="250" fill="white"/>
<path d="M142.591 332.807L142.354 333.043C139.165 326.073 137.157 318.159 136.33 309.417C137.157 318.041 139.401 325.837 142.591 332.807Z" fill="#DFDFDF"/>
<path d="M218.427 230.864C233.955 230.864 246.542 218.277 246.542 202.75C246.542 187.223 233.955 174.636 218.427 174.636C202.9 174.636 190.313 187.223 190.313 202.75C190.313 218.277 202.9 230.864 218.427 230.864Z" fill="#DFDFDF"/>
<path d="M303.362 131.873H204.371C161.373 131.873 135.739 157.507 135.739 200.505V299.495C135.739 312.371 137.984 323.593 142.354 333.044C152.513 355.488 174.249 368.127 204.371 368.127H303.362C346.36 368.127 371.993 342.494 371.993 299.495V272.444V200.505C371.993 157.507 346.36 131.873 303.362 131.873ZM352.739 255.907C343.525 247.992 328.641 247.992 319.427 255.907L270.286 298.078C261.072 305.992 246.188 305.992 236.974 298.078L232.958 294.77C224.571 287.447 211.222 286.738 201.772 293.117L157.593 322.767C154.994 316.151 153.458 308.473 153.458 299.495V200.505C153.458 167.193 171.059 149.592 204.371 149.592H303.362C336.673 149.592 354.274 167.193 354.274 200.505V257.206L352.739 255.907Z" fill="#DFDFDF"/>
<g clip-path="url(#clip1_1_9633)">
<path d="M498.967 358.976H-3.099V499.999H498.967V358.976Z" fill="#B98A75"/>
<path d="M498.967 -2.06592H-3.099V358.977H498.967V-2.06592Z" fill="#FFE7B5"/>
<path d="M523.76 332.645H-19.6279V359.267H523.76V332.645Z" fill="#E1BFB2"/>
<path d="M228.962 47.3633H115.69V192.502H228.962V47.3633Z" fill="#9B8770"/>
<path d="M229.672 49.3062H119.915V194.445H229.672V49.3062Z" fill="#C5B69D"/>
<path d="M169.309 57.498H128.033V117.778H169.309V57.498Z" fill="#ADDEE5"/>
<path d="M169.309 126.303H128.033V186.583H169.309V126.303Z" fill="#ADDEE5"/>
<path d="M222.025 126.681H180.749V186.96H222.025V126.681Z" fill="#ADDEE5"/>
<path d="M222.025 57.498H180.749V117.778H222.025V57.498Z" fill="#ADDEE5"/>
<path d="M128.033 184.048H166.146V126.303H169.309V186.583H128.033V184.048Z" fill="#9B8770"/>
<path d="M128.033 115.244H166.146V57.498H169.309V117.778H128.033V115.244Z" fill="#9B8770"/>
<path d="M180.749 115.244H218.862V57.498H222.025V117.778H180.749V115.244Z" fill="#9B8770"/>
<path d="M180.749 184.427H218.862V126.681H222.025V186.962H180.749V184.427Z" fill="#9B8770"/>
<path d="M124.94 47.3633H11.6685V192.502H124.94V47.3633Z" fill="#9B8770"/>
<path d="M125.65 49.3062H15.8936V194.445H125.65V49.3062Z" fill="#C5B69D"/>
<path d="M65.2873 57.498H24.0107V117.778H65.2873V57.498Z" fill="#ADDEE5"/>
<path d="M65.2873 126.303H24.0107V186.583H65.2873V126.303Z" fill="#ADDEE5"/>
<path d="M118.003 126.681H76.7269V186.96H118.003V126.681Z" fill="#ADDEE5"/>
<path d="M118.003 57.498H76.7269V117.778H118.003V57.498Z" fill="#ADDEE5"/>
<path d="M24.0107 184.048H62.1243V126.303H65.2873V186.583H24.0107V184.048Z" fill="#9B8770"/>
<path d="M24.0107 115.244H62.1243V57.498H65.2873V117.778H24.0107V115.244Z" fill="#9B8770"/>
<path d="M76.7269 115.244H114.839V57.498H118.002V117.778H76.7269V115.244Z" fill="#9B8770"/>
<path d="M76.7269 184.427H114.839V126.681H118.002V186.962H76.7269V184.427Z" fill="#9B8770"/>
<path d="M254.247 47.4049L173.875 47.353C173.875 47.353 194.844 113.35 227.475 142.302L209.001 201.445H248.964L246.329 149.764L254.247 47.4049Z" fill="#BF3231"/>
<path d="M236.981 148.595L228.962 201.446L240.549 191.354L241.343 148.595H236.981Z" fill="#963435"/>
<path d="M229.43 148.595L216.186 199.774L226.445 183.908L230.57 148.595H229.43Z" fill="#963435"/>
<path d="M229.673 142.303C229.673 142.303 189.933 90.9898 178.939 47.3452L229.673 142.303Z" fill="#963435"/>
<path d="M207.06 47.3452C207.06 47.3452 215.608 111.713 236.554 142.303H241.685C241.685 142.303 231.413 72.2895 228.961 47.362L207.06 47.3452Z" fill="#963435"/>
<path d="M247.24 148.594H225.013L227.475 142.302H247.24V148.594Z" fill="#E0BA23"/>
<path d="M-12.4066 47.4132L67.9658 47.3613C67.9658 47.3613 46.9962 113.358 14.3652 142.31L32.8396 201.454H-7.12321L-4.48903 149.773L-12.4066 47.4132Z" fill="#BF3231"/>
<path d="M4.8603 148.603L9.32702 186.583L-2.24561 201.454L0.499022 148.603H4.8603Z" fill="#963435"/>
<path d="M12.4107 148.603L16.1862 157.515L17.4682 201.454L11.271 148.603H12.4107Z" fill="#963435"/>
<path d="M12.1667 142.311C12.1667 142.311 51.907 90.9981 62.8989 47.3535L12.1667 142.311Z" fill="#963435"/>
<path d="M34.7813 47.3555C34.7813 47.3555 26.2328 111.724 5.28663 142.313H0.155518C0.155518 142.313 10.4278 72.2998 12.8795 47.3722L34.7813 47.3555Z" fill="#963435"/>
<path d="M-5.39917 148.603H16.8273L14.3655 142.31H-5.39917V148.603Z" fill="#E0BA23"/>
<path d="M376.923 143.584L378.166 147.691C378.166 147.691 376.918 150.928 374.225 149.816L371.866 145.641C371.864 145.639 374.962 146.399 376.923 143.584Z" fill="#EB3C53"/>
<path d="M378.151 147.691C378.151 147.691 386.881 155.321 386.963 174.021L375.375 167.153C372.875 152.156 374.244 150.017 374.244 150.017" fill="#231F20"/>
<path d="M415.589 307.236L415.167 321.819C415.167 321.819 417.524 330.831 415.693 333.604C413.862 336.378 405.066 340.078 394.723 344.923C389.955 347.157 386.422 343.465 391.282 337.097C396.142 330.729 400.144 327.434 403.829 325.761C407.514 324.087 403.357 305.708 403.357 305.708L415.589 307.236Z" fill="url(#paint0_linear_1_9633)"/>
<path d="M391.331 300.946L390.832 315.57C390.832 315.57 393.06 324.59 391.269 327.382C389.478 330.173 380.935 333.937 370.887 338.859C366.254 341.128 362.855 337.448 367.602 331.034C372.348 324.619 376.244 321.292 379.825 319.59C383.407 317.889 379.492 299.489 379.492 299.489L391.331 300.946Z" fill="url(#paint1_linear_1_9633)"/>
<path d="M344.948 225.028C351.425 225.684 384.158 231.282 384.158 231.282L384.138 231.369L395.702 233.601C397.496 228.321 395.798 214.653 395.798 214.653L394.977 203.839L397.376 204.543L397.528 190.311C396.457 170.341 373.599 164.194 373.599 164.194L361.824 164.435C361.824 164.435 340.02 175.818 336.945 200.507L346.811 200.985C346.811 200.985 346.814 200.997 346.819 201.01C348.695 206.011 346.844 218.024 346.943 219.23C346.95 219.304 346.946 219.393 346.938 219.49C346.791 220.988 344.948 225.028 344.948 225.028Z" fill="#DB5A27"/>
<path d="M339.854 130.396C339.854 130.396 337.787 148.98 346.173 156.762C346.173 156.762 352.18 162.569 361.274 157.931L361.707 164.711C361.707 164.711 358.099 168.396 358.099 172.292C358.099 172.292 357.567 177.487 364.874 177.207C372.181 176.928 380.68 170.301 373.483 164.455L371.267 148.257C371.267 148.257 378.304 151.1 378.592 141.904C378.592 141.904 378.826 133.834 372.684 135.663L355.437 121.47L347.516 119.979L344.584 122.102C344.582 122.102 340.662 125.413 339.854 130.396Z" fill="url(#paint2_linear_1_9633)"/>
<path d="M333.21 127.657C334.561 135.73 339.802 139.89 339.802 139.89C339.414 135.643 339.755 131.558 339.755 131.558C340.994 126.202 347.253 122.743 347.253 122.743C356.461 136.515 368.817 135.911 368.817 135.911L369.806 144.526C372.779 142.089 372.681 135.663 372.681 135.663C375.397 134.948 376.719 136.25 376.719 136.25C379.705 139.417 378.18 144.859 378.18 144.859C384.014 140.955 386.419 135.663 387.085 131.58C387.313 130.196 387.339 128.95 387.234 127.946C386.814 123.977 384.339 119.224 371.728 112.622C367.565 110.441 363.613 109.765 360.111 109.858C353.01 110.054 347.746 113.433 346.269 113.917C344.063 114.643 331.858 119.585 333.21 127.657Z" fill="#231F20"/>
<path d="M377.972 303.213C377.972 303.213 384.27 304.751 391.883 306.239L391.967 306.254C392.209 306.3 392.454 306.349 392.698 306.396C394.003 306.649 395.344 306.896 396.691 307.134C399.099 307.561 401.538 307.952 403.862 308.264C405.196 308.443 406.493 308.597 407.728 308.715C412.213 309.149 415.865 309.129 417.425 308.259C423.137 305.07 417.877 257.744 417.877 257.744C417.877 257.744 424.132 258.444 428.422 255.242L428.423 255.24C430.412 253.758 431.976 251.436 432.303 247.82C433.484 234.689 431.58 233.241 431.58 233.241L409.845 229.156C409.845 229.156 409.844 229.156 409.842 229.155L379.669 223.483C362.136 220.486 362.7 232.678 362.7 232.678C359.378 254.464 377.972 303.213 377.972 303.213Z" fill="#AB203E"/>
<path d="M394.974 203.838C394.974 203.838 394.934 215.714 394.04 217.021C390.265 222.542 363.061 227.126 363.061 227.126L334.224 222.224C334.224 222.224 332.315 218.53 349.935 219.628C349.935 219.628 352.78 219.64 355.612 221.101C355.612 221.101 376.329 213.578 382.046 211.778C383.465 211.331 383.955 209.413 383.934 208.185L384.205 202.182C384.205 202.18 389.714 202.136 394.974 203.838Z" fill="url(#paint3_linear_1_9633)"/>
<path d="M343.439 142.908C343.821 142.838 344.004 142.089 343.847 141.235C343.69 140.382 343.254 139.746 342.872 139.816C342.49 139.887 342.308 140.635 342.464 141.489C342.621 142.343 343.058 142.978 343.439 142.908Z" fill="#231F20"/>
<path d="M353.591 141.739C353.973 141.669 354.156 140.92 353.999 140.066C353.843 139.213 353.406 138.577 353.024 138.648C352.642 138.718 352.46 139.466 352.616 140.32C352.773 141.174 353.21 141.809 353.591 141.739Z" fill="#231F20"/>
<path d="M350.011 133.544C350.011 133.544 353.311 131.364 358.062 133.794C358.062 133.794 360.685 135.553 359.269 137.345C359.269 137.345 355.994 134.632 350.275 134.903C350.275 134.903 348.711 134.881 350.011 133.544Z" fill="#231F20"/>
<path d="M344.008 134.118C344.008 134.118 340.503 132.284 336.023 135.186C336.023 135.186 333.593 137.204 335.183 138.843C335.183 138.843 338.166 135.812 343.882 135.497C343.882 135.497 345.437 135.316 344.008 134.118Z" fill="#231F20"/>
<path d="M347.588 143.895C347.588 143.895 349.82 144.017 350.131 146C350.444 147.984 347.571 148.062 347.571 148.062C347.571 148.062 344.195 147.975 344.455 145.749C344.455 145.751 344.237 144.653 347.588 143.895Z" fill="#F48E86"/>
<path opacity="0.44" d="M341.562 146.712C343.761 146.275 345.11 143.744 344.577 141.059C344.043 138.374 341.828 136.551 339.63 136.988C337.432 137.425 336.082 139.956 336.616 142.641C337.149 145.326 339.364 147.148 341.562 146.712Z" fill="#7FB8C5"/>
<path opacity="0.44" d="M354.154 145.232C356.537 144.758 358.037 142.198 357.503 139.513C356.97 136.827 354.605 135.035 352.222 135.508C349.839 135.982 348.339 138.542 348.873 141.228C349.406 143.913 351.771 145.706 354.154 145.232Z" fill="#7FB8C5"/>
<path d="M348.774 140.035L344.455 140.527" stroke="#3A3A3A" stroke-width="1.03306" stroke-miterlimit="10"/>
<path d="M357.401 139.052L372.676 135.638" stroke="#3A3A3A" stroke-width="1.03306" stroke-miterlimit="10"/>
<path d="M349.77 155.572C350.638 156.546 352.406 156.887 355.06 156.327C356.969 155.922 358.059 155.132 358.67 154.27C359.821 152.645 358.67 149.912 358.67 149.912C353.647 150.495 348.511 152.454 348.511 152.454C348.511 152.454 348.449 154.093 349.77 155.572Z" fill="#231F20"/>
<path d="M349.433 155.127C349.522 155.291 349.636 155.438 349.77 155.572C350.772 156.407 352.406 156.887 355.06 156.327C356.969 155.922 358.059 155.132 358.67 154.27C355.543 151.247 349.433 155.127 349.433 155.127Z" fill="#851727"/>
<path d="M360.112 109.86C360.112 109.86 385.485 121.081 387.087 131.581C387.314 130.197 387.341 128.952 387.236 127.948C386.816 123.978 384.341 119.225 371.73 112.623C367.566 110.442 363.615 109.766 360.112 109.86Z" fill="#3A3A3A"/>
<path d="M361.272 157.931C361.272 157.931 363.627 156.823 364.91 154.654C364.91 154.654 364.798 160.749 361.637 163.636L361.272 157.931Z" fill="#F48E86"/>
<path d="M346.647 198.067C347.023 201.385 346.859 201.116 346.816 201.009C348.692 206.009 346.841 218.022 346.94 219.229C346.946 219.302 346.943 219.391 346.935 219.488L348.851 219.563L349.681 201.939C349.681 201.939 348.441 189.645 350.158 180.771C350.156 180.774 346.222 194.315 346.647 198.067Z" fill="#A04827"/>
<path d="M382.811 175.638C382.811 175.638 378.771 190.906 380.011 202.18C380.011 202.18 384.278 201.929 390.601 202.776C390.601 202.776 381.914 202.152 381.715 200.957C381.515 199.762 379.85 188.338 382.811 175.638Z" fill="#A04827"/>
<path d="M376.625 302.811C376.625 302.811 381.942 304.287 388.231 305.502L388.133 305.196C388.133 305.196 384.494 295.946 378.19 283.943C370.196 268.721 370.137 233.603 372.56 230.085C376.173 224.84 398.94 227.12 399.284 227.163L374.369 222.579C359.905 220.216 360.922 232.455 360.922 232.455C359.204 254.481 376.625 302.811 376.625 302.811Z" fill="#8C1F3A"/>
<path d="M403.206 250.204L417.877 257.747C417.877 257.747 424.132 258.446 428.422 255.245L428.423 255.243C427.715 254.985 411.044 254.055 403.206 250.204Z" fill="#8C1F3A"/>
<path d="M383.271 277.338C383.823 285.819 391.612 301.265 392.698 306.397C394.004 306.65 395.344 306.898 396.691 307.136C395.436 302.028 384.56 286.219 383.271 277.338Z" fill="#8C1F3A"/>
<path d="M469.937 347.243H244.054V359.348H469.937V347.243Z" fill="#8F5C54"/>
<path opacity="0.7" d="M469.937 353.295H244.054V359.348H469.937V353.295Z" fill="#D1D3D3"/>
<path d="M415.082 228.483H250.083V347.242H415.082V228.483Z" fill="#CD9A8D"/>
<path d="M415.082 260.258H250.083V262.553H415.082V260.258Z" fill="#C3C6C8"/>
<path d="M415.082 228.483H250.083V231.735H415.082V228.483Z" fill="#D1D3D3"/>
<path d="M243.865 217.28C240.773 217.28 238.264 219.787 238.264 222.882C238.264 225.976 240.773 228.483 243.865 228.483H415.083V217.28H243.865Z" fill="#D0B5A8"/>
<path opacity="0.2" d="M243.865 217.28C240.773 217.28 238.264 219.787 238.264 222.882C238.264 223.385 238.338 223.872 238.462 224.336C239.102 221.949 241.276 220.189 243.865 220.189H415.083V217.28H243.865Z" fill="white"/>
<path d="M460.509 228.483H415.083V347.242H460.509V228.483Z" fill="#CD9A8D"/>
<path d="M460.509 260.258H415.083V262.553H460.509V260.258Z" fill="#C3C6C8"/>
<path d="M460.509 228.483H415.083V231.735H460.509V228.483Z" fill="#D1D3D3"/>
<path d="M466.728 217.28C469.82 217.28 472.329 219.787 472.329 222.882C472.329 225.976 469.82 228.483 466.728 228.483H415.083V217.28H466.728Z" fill="#D0B5A8"/>
<path opacity="0.2" d="M466.728 217.28C469.82 217.28 472.329 219.787 472.329 222.882C472.329 223.385 472.255 223.872 472.131 224.336C471.49 221.949 469.317 220.189 466.728 220.189H415.083V217.28H466.728Z" fill="white"/>
<path d="M263.109 217.281V211.795C263.109 210.267 264.36 209.019 265.886 209.019H272.943C274.471 209.019 275.72 210.269 275.72 211.795V217.281H263.109Z" fill="#9BA2A6"/>
<path d="M266.189 211.023C265.294 211.023 264.567 211.75 264.567 212.645V217.283H267.811V212.645C267.809 211.75 267.084 211.023 266.189 211.023Z" fill="#AAB0B4"/>
<path d="M272.644 211.023C273.539 211.023 274.265 211.75 274.265 212.645V217.283H271.022V212.645C271.022 211.75 271.748 211.023 272.644 211.023Z" fill="#AAB0B4"/>
<path d="M265.888 209.018C264.36 209.018 263.112 210.268 263.112 211.795V217.281H269.417V209.017H265.888V209.018Z" fill="#D1D3D3"/>
<path d="M318.966 217.281V211.795C318.966 210.267 320.216 209.019 321.743 209.019H328.8C330.328 209.019 331.576 210.269 331.576 211.795V217.281H318.966Z" fill="#9BA2A6"/>
<path d="M322.043 211.023C321.148 211.023 320.422 211.75 320.422 212.645V217.283H323.665V212.645C323.665 211.75 322.939 211.023 322.043 211.023Z" fill="#AAB0B4"/>
<path d="M328.499 211.023C329.394 211.023 330.12 211.75 330.12 212.645V217.283H326.877V212.645C326.877 211.75 327.603 211.023 328.499 211.023Z" fill="#AAB0B4"/>
<path d="M321.743 209.018C320.215 209.018 318.966 210.268 318.966 211.795V217.281H325.272V209.017H321.743V209.018Z" fill="#D1D3D3"/>
<path d="M313.289 210.824H281.396V217.282H313.289V210.824Z" fill="#9BA2A6"/>
<path opacity="0.7" d="M297.344 210.824H281.396V217.282H297.344V210.824Z" fill="#D1D3D3"/>
<path d="M299.889 210.824H294.798V187.951C294.798 180.993 300.46 175.331 307.419 175.331C314.377 175.331 320.039 180.993 320.039 187.951H314.948C314.948 183.799 311.571 180.422 307.419 180.422C303.267 180.422 299.889 183.799 299.889 187.951V210.824Z" fill="#9BA2A6"/>
<path d="M321.082 187.951H313.907L313.182 192.463H321.805L321.082 187.951Z" fill="#515962"/>
<path d="M303.869 207.494H290.817V210.822H303.869V207.494Z" fill="#515962"/>
<path d="M341.196 200.712L336.942 217.28H347.075C347.075 217.28 348.474 205.354 346.816 201.008L341.196 200.712Z" fill="url(#paint4_linear_1_9633)"/>
</g>
<g clip-path="url(#clip2_1_9633)">
<path d="M244.634 578.979L179.097 590.321L164.501 527.157L151.892 589.223L98.9701 576.542L83.1116 572.743L112.111 458.562C115.234 460.61 118.315 462.452 121.357 464.108C176.937 494.37 217.741 461.531 217.741 461.531L244.64 578.979H244.634Z" fill="#CEAA86"/>
<path d="M121.351 464.105V464.108L98.9671 576.542L83.1056 572.743L112.105 458.562L121.351 464.105Z" fill="#F1CAAA"/>
<path d="M237.95 412.842C239.867 402.888 257.054 368.321 257.054 368.321C257.054 368.321 218.482 345.655 211.996 337.608C205.228 329.208 188.124 332.101 178.533 333.019C168.941 333.937 169.799 333.019 169.799 333.019C176.904 340.433 175.722 348.702 175.428 350.731C175.134 352.761 172.143 362.674 161.924 365.347C151.706 368.019 143.54 360.244 143.54 360.244C135.775 349.563 146.117 333.019 146.117 333.019C146.117 333.019 142.657 333.937 133.066 333.019C123.475 332.101 109.929 330.619 102.741 338.666C95.5529 346.717 61.4507 371.499 61.4507 371.499C61.4507 371.499 86.1385 406.858 88.0586 416.812L112.212 399.145L109.506 467.492C109.506 467.492 163.142 499.855 217.519 461.997L213.118 399.208L237.95 412.842Z" fill="#BD2043"/>
<path d="M169.608 320.939C169.608 320.939 180.891 320.416 186.585 319.113C218.719 313.522 217.279 286.262 217.279 286.262C217.279 286.262 217.342 283.132 216.85 277.15C216.688 275.162 216.463 272.855 216.154 270.242C215.59 265.444 214.738 259.609 213.463 252.811C209.413 231.209 194.863 221.816 194.863 221.816C194.863 221.816 188.241 217.637 182.454 215.533C182.454 215.533 170.268 243.328 137.303 246.258L141.803 255.842C141.803 255.842 138.737 260.733 129.532 255.232C129.532 255.232 112.945 264.729 113.233 286.364C113.521 307.998 133.271 310.53 139.982 304.994C139.982 304.994 142.583 327.238 142.022 333.363C142.022 333.363 131.239 356.687 150.086 364.274C169.221 371.98 184.374 348.4 169.611 333.363V320.939" fill="url(#paint5_linear_1_9633)"/>
<path d="M197.058 304.367C194.031 307.678 187.872 308.839 178.621 306.933C171.966 305.556 168.169 302.87 166.04 299.94C162.027 294.415 166.04 285.124 166.04 285.124C183.544 287.104 201.445 293.766 201.445 293.766C201.445 293.766 201.66 299.337 197.058 304.367Z" fill="#231F20"/>
<path d="M197.314 302.671C197.016 303.26 196.634 303.789 196.185 304.27C192.822 307.27 187.341 308.995 178.435 306.981C172.027 305.527 168.372 302.689 166.322 299.593C176.812 288.736 197.314 302.671 197.314 302.671Z" fill="#851727"/>
<path d="M169.608 320.939C169.608 320.939 157.694 321.143 151.949 316.377C151.949 316.377 161.207 329.211 169.608 333.363V320.939Z" fill="#F48E86"/>
<path d="M211.026 260.234C212.264 260.093 213.012 257.746 212.697 254.99C212.383 252.234 211.124 250.113 209.886 250.254C208.648 250.394 207.9 252.742 208.214 255.498C208.529 258.254 209.788 260.374 211.026 260.234Z" fill="#231F20"/>
<path d="M180.034 264.366C181.272 264.226 182.02 261.878 181.706 259.122C181.391 256.366 180.132 254.246 178.894 254.386C177.656 254.526 176.908 256.874 177.222 259.63C177.537 262.386 178.796 264.506 180.034 264.366Z" fill="#231F20"/>
<path d="M220.258 230.758C219.112 239.726 211.609 246.045 211.465 246.168C211.453 246.132 211.435 246.09 211.423 246.054C210.451 243.427 209.413 241.101 208.336 239.038C204.775 232.222 200.797 228.318 197.464 226.079C193.282 223.263 190.125 223.09 190.125 223.09C185.16 235.017 163.67 251.044 163.67 251.044L159.542 239.02C162.086 258.679 145.898 277.694 145.646 277.993C146.822 272.328 140.975 266.962 140.975 266.962C137.087 264.747 134.245 264.212 132.85 264.095C132.829 264.095 132.811 264.095 132.79 264.095C132.247 264.054 131.935 264.074 131.875 264.077C131.866 264.077 131.863 264.077 131.863 264.077C129.304 264.329 127.246 265.085 125.596 266.14C125.584 266.149 125.575 266.152 125.563 266.161C123.736 267.333 122.41 268.864 121.444 270.469C121.411 270.514 121.387 270.558 121.36 270.603C119.095 274.439 118.87 278.636 118.849 279.243V279.317C119.509 296.952 139.157 303.379 139.157 303.379C141.182 305.493 142.25 307.537 142.805 307.896C147.395 310.859 139.37 310.889 139.37 310.889C119.206 313.938 98.6942 286.881 98.6942 286.881C89.9399 274.499 87.8189 262.646 88.5209 252.748C89.6339 236.973 97.9172 226.172 97.9172 226.172C111.067 209.987 127.213 202.131 142.373 198.669C142.373 198.669 142.379 198.669 142.385 198.669C156.461 195.456 169.689 196.03 178.881 197.24H178.887C186.723 198.272 191.628 199.766 191.628 199.766C216.298 210.391 221.398 221.873 220.264 230.758H220.258Z" fill="black"/>
<path d="M199.222 280.215C195.943 281.437 194.068 280.8 194.068 280.8C187.533 276.206 193.183 266.072 193.306 265.85C193.306 265.85 199.942 264.102 203.599 271.207C207.259 278.31 199.219 280.218 199.219 280.218L199.222 280.215Z" fill="#EC8680"/>
<path d="M179.25 235.439C179.25 235.439 185.256 240.099 182.217 246.413C179.178 252.727 149.792 251.103 149.792 251.103C149.792 251.103 144.554 241.319 179.25 235.442V235.439Z" fill="black"/>
<path d="M196.473 233.259C196.473 233.259 190.8 238.314 194.262 244.407C197.724 250.499 226.93 246.894 226.93 246.894C226.93 246.894 231.491 236.778 196.473 233.259Z" fill="black"/>
<path d="M178.878 197.24C119.233 195.497 88.521 252.745 88.521 252.745C89.634 236.97 97.9173 226.169 97.9173 226.169C111.067 209.987 127.213 202.131 142.373 198.669C142.373 198.669 142.379 198.669 142.385 198.669C156.461 195.456 169.689 196.03 178.881 197.24H178.878Z" fill="#3A3A3A"/>
<path d="M107.482 464.392C112.531 463.25 110.32 471.246 114.472 471.916L127.564 465.019C132.332 455.238 124.579 448.342 124.579 448.342L102.156 444.65C80.4327 432.994 68.3933 402.131 68.3933 402.131L77.3396 395.889C74.3425 390.667 65.1892 377.08 65.1892 377.08L46.0635 391.824C42.6524 394.455 41.4314 399.004 43.0934 402.947C43.0934 402.947 66.2962 441.944 99.6004 457.367C99.6004 457.367 103.414 465.309 107.482 464.389V464.392Z" fill="url(#paint6_linear_1_9633)"/>
<path d="M212.413 462.066C207.496 460.918 209.65 468.956 205.606 469.629L192.858 462.696C188.217 452.864 195.765 445.932 195.765 445.932L217.6 442.222C238.751 430.509 250.796 400.911 250.796 400.911L243.83 396.364C247.46 388.188 254.132 374.312 254.132 374.312L272.22 389.13C275.541 391.773 276.729 396.346 275.112 400.31C275.112 400.31 252.518 439.505 220.09 455.008C220.09 455.008 216.376 462.989 212.416 462.066H212.413Z" fill="url(#paint7_linear_1_9633)"/>
</g>
</g>
<defs>
<linearGradient id="paint0_linear_1_9633" x1="401.145" y1="349.599" x2="405.426" y2="313.395" gradientUnits="userSpaceOnUse">
<stop offset="0.6882" stop-color="#F9BBA7"/>
<stop offset="1" stop-color="#F48E86"/>
</linearGradient>
<linearGradient id="paint1_linear_1_9633" x1="375.961" y1="341.359" x2="384.121" y2="308.652" gradientUnits="userSpaceOnUse">
<stop offset="0.6882" stop-color="#F9BBA7"/>
<stop offset="1" stop-color="#F48E86"/>
</linearGradient>
<linearGradient id="paint2_linear_1_9633" x1="352.618" y1="187.572" x2="360.532" y2="132.407" gradientUnits="userSpaceOnUse">
<stop offset="0.8174" stop-color="#F9BBA7"/>
<stop offset="0.976" stop-color="#F48E86"/>
</linearGradient>
<linearGradient id="paint3_linear_1_9633" x1="394.975" y1="214.653" x2="334.164" y2="214.653" gradientUnits="userSpaceOnUse">
<stop offset="0.8174" stop-color="#F9BBA7"/>
<stop offset="0.976" stop-color="#F48E86"/>
</linearGradient>
<linearGradient id="paint4_linear_1_9633" x1="336.942" y1="208.996" x2="347.627" y2="208.996" gradientUnits="userSpaceOnUse">
<stop offset="0.8174" stop-color="#F9BBA7"/>
<stop offset="0.976" stop-color="#F48E86"/>
</linearGradient>
<linearGradient id="paint5_linear_1_9633" x1="222.455" y1="366.598" x2="146.368" y2="254.861" gradientUnits="userSpaceOnUse">
<stop offset="0.69" stop-color="#F9BBA7"/>
<stop offset="1" stop-color="#F48E86"/>
</linearGradient>
<linearGradient id="paint6_linear_1_9633" x1="42.3554" y1="424.501" x2="129.115" y2="424.501" gradientUnits="userSpaceOnUse">
<stop offset="0.69" stop-color="#F9BBA7"/>
<stop offset="1" stop-color="#F48E86"/>
</linearGradient>
<linearGradient id="paint7_linear_1_9633" x1="275.826" y1="421.969" x2="191.349" y2="421.969" gradientUnits="userSpaceOnUse">
<stop offset="0.69" stop-color="#F9BBA7"/>
<stop offset="1" stop-color="#F48E86"/>
</linearGradient>
<clipPath id="clip0_1_9633">
<rect width="500" height="500" rx="250" fill="white"/>
</clipPath>
<clipPath id="clip1_1_9633">
<rect width="502.066" height="502.066" fill="white" transform="translate(-3.09912 -2.06592)"/>
</clipPath>
<clipPath id="clip2_1_9633">
<rect width="233.471" height="524.793" fill="white" transform="translate(42.3553 196.281)"/>
</clipPath>
</defs>
</svg>
