<svg width="24" height="24" viewBox="0 0 24 24" fill="none" xmlns="http://www.w3.org/2000/svg">
<path opacity="0.991" fill-rule="evenodd" clip-rule="evenodd" d="M11.6954 3.11714C12.0962 3.1006 12.4868 3.15529 12.8673 3.2812C16.3594 4.74731 19.8437 6.2317 23.3204 7.73432C23.963 8.31281 24.0958 8.9925 23.7189 9.77339C23.4905 10.134 23.1702 10.3762 22.7579 10.4999C19.4142 11.9062 16.0704 13.3124 12.7267 14.7187C12.1229 14.8897 11.5292 14.8585 10.9454 14.6249C7.50027 13.1744 4.06276 11.7057 0.632941 10.2187C-0.0390941 9.60197 -0.156282 8.89101 0.281378 8.08589C0.431435 7.92014 0.595497 7.77168 0.773566 7.64057C4.16802 6.2122 7.55863 4.77473 10.9454 3.32808C11.1973 3.24184 11.4473 3.17153 11.6954 3.11714Z" fill="white"/>
<path opacity="0.968" fill-rule="evenodd" clip-rule="evenodd" d="M21.9145 11.8359C21.9996 12.3965 22.0387 12.9747 22.0317 13.5703C22.6893 13.9647 22.8924 14.5272 22.641 15.2578C22.5509 15.434 22.4337 15.5902 22.2895 15.7266C22.5351 15.9366 22.6836 16.2022 22.7348 16.5234C22.7661 17.0547 22.7661 17.586 22.7348 18.1172C22.683 18.2783 22.5814 18.3955 22.4301 18.4688C21.8051 18.5 21.1801 18.5 20.5551 18.4688C20.4106 18.4319 20.3091 18.346 20.2504 18.2109C20.2191 17.6016 20.2191 16.9922 20.2504 16.3828C20.3352 16.1342 20.468 15.9154 20.6488 15.7266C20.2656 15.35 20.1328 14.8968 20.2504 14.3672C20.3509 13.9934 20.5774 13.7277 20.9301 13.5703C20.9614 13.1328 20.9926 12.6953 21.0238 12.2578C21.3306 12.1277 21.6276 11.9871 21.9145 11.8359Z" fill="white"/>
<path opacity="0.988" fill-rule="evenodd" clip-rule="evenodd" d="M4.47656 12.9141C6.61617 13.8119 8.75681 14.7104 10.8984 15.6094C11.669 15.8383 12.4346 15.8227 13.1953 15.5625C15.2734 14.6797 17.3516 13.7969 19.4297 12.9141C19.4844 14.32 19.4922 15.7263 19.4531 17.1328C19.3084 17.8551 18.9256 18.4097 18.3047 18.7969C14.5375 20.8553 10.6781 21.0428 6.72656 19.3594C6.0885 19.0915 5.51822 18.7243 5.01562 18.2578C4.7678 17.9183 4.5959 17.5433 4.5 17.1328C4.47656 15.7267 4.46875 14.3204 4.47656 12.9141Z" fill="white"/>
</svg>
