<svg width="24" height="24" viewBox="0 0 24 24" fill="none" xmlns="http://www.w3.org/2000/svg">
<g clip-path="url(#clip0_3_180)">
<path opacity="0.99" fill-rule="evenodd" clip-rule="evenodd" d="M23.9769 3.02342C23.9769 7.0078 23.9769 10.9922 23.9769 14.9765C23.6739 16.1153 22.9395 16.795 21.7737 17.0156C16.5862 17.0469 11.3987 17.0469 6.21123 17.0156C5.07718 16.8503 4.35062 16.2175 4.03154 15.1172C3.97747 13.0798 3.95403 11.0408 3.96123 8.99998C3.95403 6.95919 3.97747 4.92012 4.03154 2.8828C4.28434 1.95811 4.87028 1.35655 5.78935 1.07811C11.178 1.00036 16.5686 0.984728 21.9612 1.03123C23.0322 1.29755 23.7041 1.96161 23.9769 3.02342ZM6.35185 3.02342C11.43 3.01561 16.5081 3.02342 21.5862 3.04686C21.7659 3.10155 21.8831 3.21873 21.9378 3.39842C21.9691 5.77344 21.9691 8.14841 21.9378 10.5234C20.8225 9.20487 19.6897 7.9002 18.5394 6.60936C17.5653 6.07897 16.7138 6.22742 15.9847 7.05467C14.7972 8.49219 13.6097 9.92966 12.4222 11.3672C11.9286 10.858 11.4208 10.3658 10.8987 9.89061C10.1585 9.52536 9.45535 9.58784 8.78935 10.0781C7.85968 11.0078 6.92996 11.9375 6.00029 12.8672C5.96903 9.75781 5.96903 6.64841 6.00029 3.53905C6.0257 3.29966 6.14288 3.12778 6.35185 3.02342Z" fill="white"/>
<path opacity="0.974" fill-rule="evenodd" clip-rule="evenodd" d="M8.5074 4.00783C9.80138 3.86091 10.6217 4.40778 10.9683 5.64846C11.0844 6.81293 10.5922 7.58636 9.49178 7.96877C8.29557 8.17155 7.47526 7.71063 7.03084 6.58596C6.79763 5.30158 7.28982 4.4422 8.5074 4.00783Z" fill="white"/>
<path opacity="0.978" fill-rule="evenodd" clip-rule="evenodd" d="M-0.0234375 17.0859C-0.0234375 16.7734 -0.0234375 16.461 -0.0234375 16.1484C0.796973 13.3991 1.63291 10.6491 2.48438 7.89844C2.48559 10.4155 2.51684 12.9312 2.57812 15.4453C2.88497 16.7991 3.68184 17.7366 4.96875 18.2578C5.28023 18.3689 5.60053 18.4392 5.92969 18.4688C10.8672 18.4922 15.8047 18.5 20.7422 18.4922C20.4398 19.5947 20.1039 20.6885 19.7344 21.7734C19.0938 22.8474 18.1641 23.2302 16.9453 22.9219C11.7714 21.5385 6.59953 20.1479 1.42969 18.75C0.667889 18.4338 0.183514 17.8791 -0.0234375 17.0859Z" fill="white"/>
</g>
<defs>
<clipPath id="clip0_3_180">
<rect width="24" height="24" fill="white"/>
</clipPath>
</defs>
</svg>
